<?xml version="1.0" encoding="UTF-8"?>
<svg width="272px" height="288px" viewBox="0 0 272 288" version="1.1" xmlns="http://www.w3.org/2000/svg" xmlns:xlink="http://www.w3.org/1999/xlink">
    <!-- Generator: Sketch 55.2 (78181) - https://sketchapp.com -->
    <title>banner-image2@2x</title>
    <desc>Created with Sketch.</desc>
    <g id="Homepage" stroke="none" stroke-width="1" fill="none" fill-rule="evenodd">
        <g id="Home" transform="translate(-1033.000000, -139.000000)">
            <g id="banner-image2" transform="translate(1034.000000, 140.000000)">
                <circle id="Oval" stroke="#C1C6F2" fill-opacity="0" fill="#D8D8D8" transform="translate(45.000000, 143.000000) rotate(-360.000000) translate(-45.000000, -143.000000) " cx="45" cy="143" r="45"></circle>
                <circle id="Oval-Copy" stroke="#C1C6F2" fill-opacity="0" fill="#D8D8D8" transform="translate(45.000000, 241.000000) rotate(-360.000000) translate(-45.000000, -241.000000) " cx="45" cy="241" r="45"></circle>
                <path d="M34.0795435,237.272736 L35.187497,243.541196 L35.2556787,243.541196 L36.7258478,237.272736 L38.1917555,237.272736 L39.6619245,243.55398 L39.7301063,243.55398 L40.8423211,237.272736 L42.3508424,237.272736 L40.5909009,246 L38.9374934,246 L37.4886311,240.068187 L37.4204494,240.068187 L35.9801098,246 L34.3267023,246 L32.5582381,237.272736 L34.0795435,237.272736 Z M48.2059603,243.285514 L49.884936,243.46023 C49.6590839,245.002842 48.474426,246.119318 46.5397687,246.119318 C44.2599414,246.119318 42.951704,244.423297 42.951704,241.623584 C42.951704,238.862223 44.3068163,237.153418 46.531246,237.153418 C48.5085169,237.153418 49.6420385,238.299723 49.8891974,239.842335 L48.2272671,240.021313 C48.1036877,239.330972 47.6818131,238.563928 46.6079505,238.563928 C45.2911904,238.563928 44.6051115,239.701711 44.6051115,241.623584 C44.6051115,243.511366 45.2315313,244.691763 46.6079505,244.691763 C47.7457335,244.691763 48.0738582,243.890627 48.2059603,243.285514 Z M56.063915,240.937505 L56.063915,242.330969 L52.6846568,242.330969 L52.6846568,246 L51.026988,246 L51.026988,237.272736 L56.6477212,237.272736 L56.6477212,238.6662 L52.6846568,238.6662 L52.6846568,240.937505 L56.063915,240.937505 Z" id="WCF" fill="#C1C6F2" fill-rule="nonzero" transform="translate(44.602980, 241.636368) rotate(-360.000000) translate(-44.602980, -241.636368) "></path>
                <circle id="Oval-Copy-2" stroke="#C1C6F2" fill-opacity="0" fill="#D8D8D8" transform="translate(135.000000, 90.000000) rotate(-360.000000) translate(-135.000000, -90.000000) " cx="135" cy="90" r="45"></circle>
                <path d="M124.48437,94 L122.873576,90.7315372 L121.369316,90.7315372 L121.369316,94 L119.711647,94 L119.711647,85.2727356 L122.830962,85.2727356 C124.795449,85.2727356 125.975846,86.3849504 125.975846,87.9105172 C125.975846,89.129266 125.379255,89.8835267 124.437495,90.3096626 L126.274141,93.9190342 L126.274141,94 L124.48437,94 Z M121.369316,86.6662002 L121.369316,89.3508567 L122.830962,89.3508567 C123.789768,89.3508567 124.322438,88.8011413 124.322438,88.0340966 C124.322438,87.1690406 123.866473,86.6662002 122.830962,86.6662002 L121.369316,86.6662002 Z M130.782666,94 L130.782666,93.3224438 L130.73153,93.3224438 C130.526985,93.6931821 129.968747,94.1321021 129.065338,94.1321021 C127.842328,94.1321021 126.887784,93.3607961 126.887784,92.2357971 C126.887784,90.8338098 127.91051,90.041197 130.100849,90.041197 L130.714485,90.041197 L130.714485,89.7684699 C130.714485,88.9715957 130.322439,88.6221642 129.653406,88.6221642 C129.052554,88.6221642 128.677555,88.916198 128.464487,89.4403453 L126.93892,89.1505728 C127.34801,87.8551195 128.571021,87.3693245 129.713065,87.3693245 C131.149143,87.3693245 132.355108,88.0639261 132.355108,89.8451744 L132.355108,94 L130.782666,94 Z M130.714485,91.1278436 L130.109371,91.1278436 C129.073861,91.1278436 128.468748,91.4815365 128.468748,92.1676154 C128.468748,92.6875013 128.903407,92.8963079 129.342327,92.8963079 C130.096587,92.8963079 130.714485,92.4105129 130.714485,91.8267066 L130.714485,91.1278436 Z M138.874994,92.6747172 L138.874994,94 L133.624999,94 L133.624999,92.9815351 L136.765621,88.7798345 L133.680397,88.7798345 L133.680397,87.4545517 L138.802551,87.4545517 L138.802551,88.4559712 L135.661929,92.6747172 L138.874994,92.6747172 Z M142.748576,94.1150567 C141.056817,94.1150567 139.795454,92.9389215 139.795454,90.7272758 C139.795454,88.6051188 141.09943,87.3693245 142.735792,87.3693245 C144.384938,87.3693245 145.701699,88.5582438 145.701699,90.7272758 C145.701699,92.968751 144.440336,94.1150567 142.748576,94.1150567 Z M142.735792,92.7897739 C143.596587,92.7897739 144.154825,92.1164791 144.154825,90.7272758 C144.154825,89.342334 143.588064,88.6946073 142.735792,88.6946073 C141.904827,88.6946073 141.363634,89.3892089 141.363634,90.7272758 C141.363634,92.0696041 141.870736,92.7897739 142.735792,92.7897739 Z M150.240053,87.399154 L150.240053,88.9460275 C150.13778,88.9289821 149.954542,88.9247207 149.801133,88.9247207 C148.940338,88.9247207 148.3821,89.5426179 148.377839,90.2286968 L148.377839,94 L146.749999,94 L146.749999,87.4545517 L148.377839,87.4545517 L148.377839,88.3920508 L148.433236,88.3920508 C148.620736,87.8806877 149.242895,87.3650631 149.865053,87.3650631 C149.984371,87.3650631 150.13778,87.3693245 150.240053,87.399154 Z" id="Razor" fill="#C1C6F2" fill-rule="nonzero" transform="translate(134.975850, 89.702419) rotate(-360.000000) translate(-134.975850, -89.702419) "></path>
                <circle id="Oval-Copy-4" stroke="#C1C6F2" fill-opacity="0" fill="#D8D8D8" transform="translate(45.000000, 45.000000) rotate(-360.000000) translate(-45.000000, -45.000000) " cx="45" cy="45" r="45"></circle>
                <circle id="Oval-Copy-3" stroke="#C1C6F2" fill-opacity="0" fill="#D8D8D8" transform="translate(135.000000, 190.000000) rotate(-360.000000) translate(-135.000000, -190.000000) " cx="135" cy="190" r="45"></circle>
                <circle id="Oval-Copy-5" stroke="#C1C6F2" fill-opacity="0" fill="#D8D8D8" transform="translate(225.000000, 139.000000) rotate(-360.000000) translate(-225.000000, -139.000000) " cx="225" cy="139" r="45"></circle>
                <path d="M203.660509,139 L201.857954,139 L204.802554,130.272736 L206.558234,130.272736 L209.502833,139 L207.70454,139 L207.14204,137.12074 L204.223009,137.12074 L203.660509,139 Z M205.629257,132.446029 L204.632099,135.761367 L206.73295,135.761367 L205.740053,132.446029 L205.629257,132.446029 Z M214.748575,132.744324 C214.67187,132.019893 214.156246,131.568189 213.257099,131.568189 C212.340906,131.568189 211.808236,131.981541 211.808236,132.599438 C211.808236,133.196028 212.400565,133.494323 213.414769,133.822448 L213.879257,133.971596 C215.524142,134.504266 216.436073,135.220174 216.436073,136.549718 C216.436073,138.151989 215.238631,139.132102 213.235792,139.132102 C211.480112,139.132102 209.9375,138.21591 209.903409,136.353696 L211.556816,136.353696 C211.620737,137.24432 212.238634,137.721592 213.274144,137.721592 C214.224427,137.721592 214.786927,137.201706 214.786927,136.592332 C214.786927,135.99148 214.335223,135.603696 213.048292,135.20739 L212.562497,135.066765 C211.075283,134.632106 210.150568,134.031255 210.150568,132.603699 C210.150568,131.112223 211.497157,130.153418 213.299712,130.153418 C215.11079,130.153418 216.36363,131.184667 216.393459,132.744324 L214.748575,132.744324 Z M220.982951,135.842333 L219.384941,135.842333 L219.384941,139 L217.727272,139 L217.727272,130.272736 L220.940337,130.272736 C222.977267,130.272736 224.05113,131.504269 224.05113,133.123585 C224.05113,134.776993 222.828119,135.842333 220.982951,135.842333 Z M219.384941,131.6662 L219.384941,134.461652 L220.889201,134.461652 C221.941757,134.453129 222.401983,133.835232 222.401983,133.068187 C222.401983,132.275575 222.001416,131.653416 220.940337,131.6662 L219.384941,131.6662 Z M224.928976,139.119318 C224.400567,139.119318 223.97017,138.688921 223.97017,138.151989 C223.97017,137.627842 224.40909,137.201706 224.928976,137.201706 C225.453123,137.201706 225.88352,137.632104 225.88352,138.151989 C225.88352,138.688921 225.453123,139.119318 224.928976,139.119318 Z M234.240049,130.272736 L234.240049,139 L232.620733,139 L228.998577,133.119324 L228.926134,133.119324 L228.926134,139 L227.268465,139 L227.268465,130.272736 L228.900566,130.272736 L232.51846,136.166196 L232.590903,136.166196 L232.590903,130.272736 L234.240049,130.272736 Z M241.275562,137.606535 L241.275562,139 L235.616477,139 L235.616477,130.272736 L241.249994,130.272736 L241.249994,131.6662 L237.274145,131.6662 L237.274145,133.937505 L240.708801,133.937505 L240.708801,135.330969 L237.274145,135.330969 L237.274145,137.606535 L241.275562,137.606535 Z M249.124993,130.272736 L249.124993,131.6662 L246.504257,131.6662 L246.504257,139 L244.859372,139 L244.859372,131.6662 L242.234375,131.6662 L242.234375,130.272736 L249.124993,130.272736 Z M213.272016,144.272736 L215.411219,144.272736 L217.605819,150.536934 L217.708092,150.536934 L219.915476,144.272736 L222.050417,144.272736 L222.050417,153 L220.409794,153 L220.409794,147.021313 L220.345873,147.021313 L218.253546,152.974432 L217.047581,152.974432 L214.97656,146.995744 L214.925424,146.995744 L214.925424,153 L213.272016,153 L213.272016,144.272736 Z M224.91406,144.272736 L226.882809,150.826707 L226.993604,150.826707 L228.958091,144.272736 L230.756384,144.272736 L227.811785,153 L226.056105,153 L223.111505,144.272736 L224.91406,144.272736 Z M236.240761,150.285514 L237.919737,150.46023 C237.693885,152.002842 236.509227,153.119318 234.57457,153.119318 C232.294743,153.119318 230.986505,151.423297 230.986505,148.623584 C230.986505,145.862223 232.341617,144.153418 234.566047,144.153418 C236.543318,144.153418 237.67684,145.299723 237.923998,146.842335 L236.262068,147.021313 C236.138489,146.330972 235.716614,145.563928 234.642752,145.563928 C233.325992,145.563928 232.639913,146.701711 232.639913,148.623584 C232.639913,150.511366 233.266332,151.691763 234.642752,151.691763 C235.780535,151.691763 236.108659,150.890627 236.240761,150.285514 Z" id="ASP.NETMVC" fill="#C1C6F2" fill-rule="nonzero" transform="translate(225.491474, 141.636368) rotate(-360.000000) translate(-225.491474, -141.636368) "></path>
                <path d="M107.151987,196 L105.349431,196 L108.294031,187.272736 L110.049711,187.272736 L112.994311,196 L111.196017,196 L110.633517,194.12074 L107.714486,194.12074 L107.151987,196 Z M109.120735,189.446029 L108.123577,192.761367 L110.224427,192.761367 L109.23153,189.446029 L109.120735,189.446029 Z M115.636361,192.386367 L115.636361,196 L114.008522,196 L114.008522,189.454552 L115.534089,189.454552 L115.534089,190.298301 L115.602271,190.298301 C115.955963,189.752847 116.590906,189.369325 117.426132,189.369325 C118.572438,189.369325 119.595164,190.072449 119.595164,191.883527 L119.595164,196 L117.967325,196 L117.967325,191.951708 C117.967325,191.163357 117.494314,190.715914 116.85511,190.715914 C116.117895,190.715914 115.636361,191.359379 115.636361,192.386367 Z M125.083802,189.488643 L126.588062,189.488643 L126.588062,195.859375 C126.588062,197.546874 125.309654,198.488634 123.524145,198.488634 C122.279828,198.488634 121.376419,197.981532 121.00142,197.542612 L121.794033,196.515625 C122.143464,196.809658 122.654827,197.184658 123.47727,197.184658 C124.427553,197.184658 124.985791,196.758522 124.994314,195.714489 L124.994314,195.428978 L124.938916,195.428978 C124.602269,195.757103 124.133519,195.965909 123.490054,195.965909 C121.811078,195.965909 120.630681,194.632104 120.630681,192.659094 C120.630681,190.737221 121.806817,189.369325 123.47727,189.369325 C124.176133,189.369325 124.661928,189.616483 124.998575,189.987222 L125.04545,189.987222 L125.083802,189.488643 Z M122.190339,192.659094 C122.190339,193.865059 122.684657,194.657672 123.643463,194.657672 C124.406246,194.657672 124.892041,194.133525 125.019882,193.609377 C125.100848,193.306821 125.122154,192.867901 125.126416,192.633526 C125.122154,192.416197 125.10937,192.100856 125.024143,191.798299 C124.896302,191.338073 124.495735,190.673301 123.639201,190.673301 C122.676134,190.673301 122.190339,191.504266 122.190339,192.659094 Z M131.876416,193.098014 L131.876416,189.454552 L133.504255,189.454552 L133.504255,196 L131.974427,196 L131.974427,195.224433 L131.906246,195.224433 C131.552553,195.705966 130.921872,196.085227 130.086645,196.085227 C129.034089,196.085227 127.917613,195.40341 127.917613,193.571025 L127.917613,189.454552 L129.545452,189.454552 L129.545452,193.52415 C129.545452,194.312502 130.018463,194.738638 130.653406,194.738638 C131.394882,194.738638 131.876416,194.125002 131.876416,193.098014 Z M136.461646,187.272736 L136.461646,196 L134.833806,196 L134.833806,187.272736 L136.461646,187.272736 Z M141.490053,196 L141.490053,195.322444 L141.438916,195.322444 C141.234371,195.693182 140.676133,196.132102 139.772725,196.132102 C138.549715,196.132102 137.59517,195.360796 137.59517,194.235797 C137.59517,192.83381 138.617896,192.041197 140.808235,192.041197 L141.421871,192.041197 L141.421871,191.76847 C141.421871,190.971596 141.029826,190.622164 140.360792,190.622164 C139.759941,190.622164 139.384941,190.916198 139.171873,191.440345 L137.646306,191.150573 C138.055397,189.855119 139.278407,189.369325 140.420451,189.369325 C141.85653,189.369325 143.062494,190.063926 143.062494,191.845174 L143.062494,196 L141.490053,196 Z M141.421871,193.127844 L140.816758,193.127844 C139.781247,193.127844 139.176134,193.481536 139.176134,194.167615 C139.176134,194.687501 139.610793,194.896308 140.049713,194.896308 C140.803974,194.896308 141.421871,194.410513 141.421871,193.826707 L141.421871,193.127844 Z M147.882098,189.399154 L147.882098,190.946028 C147.779826,190.928982 147.596587,190.924721 147.443178,190.924721 C146.582384,190.924721 146.024146,191.542618 146.019884,192.228697 L146.019884,196 L144.392045,196 L144.392045,189.454552 L146.019884,189.454552 L146.019884,190.392051 L146.075282,190.392051 C146.262782,189.880688 146.88494,189.365063 147.507099,189.365063 C147.626417,189.365063 147.779826,189.369325 147.882098,189.399154 Z M151.623576,193.387787 L151.623576,187.272736 L153.26846,187.272736 L153.26846,193.387787 C153.26846,195.088069 152.096586,196.119318 150.473008,196.119318 C148.892044,196.119318 147.703125,195.254262 147.703125,193.562502 L149.343748,193.562502 C149.356532,194.333808 149.838066,194.759944 150.498577,194.759944 C151.124997,194.759944 151.623576,194.342331 151.623576,193.387787 Z M159.196018,189.744324 C159.119313,189.019893 158.603689,188.568189 157.704542,188.568189 C156.78835,188.568189 156.25568,188.981541 156.25568,189.599438 C156.25568,190.196028 156.848009,190.494323 157.862212,190.822448 L158.3267,190.971596 C159.971585,191.504266 160.883516,192.220174 160.883516,193.549718 C160.883516,195.151989 159.686074,196.132102 157.683235,196.132102 C155.927555,196.132102 154.384943,195.21591 154.350852,193.353696 L156.004259,193.353696 C156.06818,194.24432 156.686077,194.721592 157.721587,194.721592 C158.67187,194.721592 159.23437,194.201706 159.23437,193.592332 C159.23437,192.99148 158.782666,192.603696 157.495735,192.20739 L157.00994,192.066765 C155.522726,191.632106 154.598011,191.031255 154.598011,189.603699 C154.598011,188.112223 155.9446,187.153418 157.747155,187.153418 C159.558233,187.153418 160.811073,188.184667 160.840903,189.744324 L159.196018,189.744324 Z" id="AngularJS" fill="#C1C6F2" fill-rule="nonzero" transform="translate(133.116474, 192.821026) rotate(-360.000000) translate(-133.116474, -192.821026) "></path>
                <path d="M23.1519866,50 L21.3494315,50 L24.2940309,41.2727356 L26.0497111,41.2727356 L28.9943106,50 L27.1960168,50 L26.6335174,48.1207404 L23.714486,48.1207404 L23.1519866,50 Z M25.1207347,43.446029 L24.1235766,46.7613667 L26.2244268,46.7613667 L25.2315301,43.446029 L25.1207347,43.446029 Z M34.2400518,43.7443241 C34.1633473,43.019893 33.6477228,42.5681889 32.748576,42.5681889 C31.8323837,42.5681889 31.2997137,42.9815408 31.2997137,43.5994379 C31.2997137,44.1960283 31.8920427,44.4943234 32.9062463,44.8224481 L33.3707345,44.9715957 C35.0156193,45.5042657 35.9275502,46.2201741 35.9275502,47.5497182 C35.9275502,49.1519894 34.7301082,50.1321021 32.7272692,50.1321021 C30.971589,50.1321021 29.4289769,49.2159098 29.394886,47.3536957 L31.0482935,47.3536957 C31.1122139,48.2443199 31.730111,48.7215921 32.7656214,48.7215921 C33.7159046,48.7215921 34.278404,48.2017063 34.278404,47.5923318 C34.278404,46.9914801 33.8266999,46.6036964 32.5397693,46.20739 L32.0539744,46.0667651 C30.5667599,45.6321064 29.6420448,45.0312547 29.6420448,43.6036993 C29.6420448,42.1122234 30.9886345,41.1534175 32.7911896,41.1534175 C34.6022674,41.1534175 35.8551071,42.1846665 35.8849366,43.7443241 L34.2400518,43.7443241 Z M40.474428,46.8423326 L38.8764182,46.8423326 L38.8764182,50 L37.2187493,50 L37.2187493,41.2727356 L40.4318144,41.2727356 C42.4687443,41.2727356 43.5426069,42.5042685 43.5426069,44.1235851 C43.5426069,45.7769927 42.3195967,46.8423326 40.474428,46.8423326 Z M38.8764182,42.6662002 L38.8764182,45.4616521 L40.3806781,45.4616521 C41.4332339,45.4531293 41.8934608,44.8352322 41.8934608,44.0681875 C41.8934608,43.2755746 41.492893,42.6534161 40.4318144,42.6662002 L38.8764182,42.6662002 Z M44.420453,50.1193181 C43.8920444,50.1193181 43.4616471,49.6889208 43.4616471,49.1519894 C43.4616471,48.6278422 43.9005671,48.2017063 44.420453,48.2017063 C44.9446002,48.2017063 45.3749975,48.6321036 45.3749975,49.1519894 C45.3749975,49.6889208 44.9446002,50.1193181 44.420453,50.1193181 Z M53.7315268,41.2727356 L53.7315268,50 L52.1122101,50 L48.4900545,44.1193238 L48.4176114,44.1193238 L48.4176114,50 L46.7599425,50 L46.7599425,41.2727356 L48.3920432,41.2727356 L52.0099375,47.1661959 L52.0823806,47.1661959 L52.0823806,41.2727356 L53.7315268,41.2727356 Z M60.7670394,48.6065354 L60.7670394,50 L55.1079539,50 L55.1079539,41.2727356 L60.7414712,41.2727356 L60.7414712,42.6662002 L56.7656227,42.6662002 L56.7656227,44.9375048 L60.2002786,44.9375048 L60.2002786,46.3309694 L56.7656227,46.3309694 L56.7656227,48.6065354 L60.7670394,48.6065354 Z M68.6164704,41.2727356 L68.6164704,42.6662002 L65.9957342,42.6662002 L65.9957342,50 L64.3508494,50 L64.3508494,42.6662002 L61.7258519,42.6662002 L61.7258519,41.2727356 L68.6164704,41.2727356 Z" id="ASP.NET" fill="#C1C6F2" fill-rule="nonzero"></path>
                <path d="M23.0795435,141.272736 L24.187497,147.541196 L24.2556787,147.541196 L25.7258478,141.272736 L27.1917555,141.272736 L28.6619245,147.55398 L28.7301063,147.55398 L29.8423211,141.272736 L31.3508424,141.272736 L29.5909009,150 L27.9374934,150 L26.4886311,144.068187 L26.4204494,144.068187 L24.9801098,150 L23.3267023,150 L21.5582381,141.272736 L23.0795435,141.272736 Z M34.8153375,150.123579 C32.842328,150.123579 31.6747155,148.696024 31.6747155,146.795458 C31.6747155,144.809664 32.7613622,143.369325 34.6491445,143.369325 C36.3963019,143.369325 37.499994,144.511369 37.499994,146.61648 L37.499994,147.298298 L33.2599413,147.298298 C33.4133502,148.248581 34.0184633,148.789774 34.8963033,148.789774 C35.5397686,148.789774 35.9403364,148.52557 36.2812452,148.009945 L37.3252783,148.853694 C36.9374946,149.535512 36.0724386,150.123579 34.8153375,150.123579 Z M34.6448831,144.694607 C33.8693157,144.694607 33.4090888,145.286936 33.268464,146.173299 L35.9744273,146.173299 C35.9744273,145.355118 35.5184618,144.694607 34.6448831,144.694607 Z M38.5781244,141.272736 L40.2059637,141.272736 L40.2059637,143.927563 L40.244316,143.927563 C40.5809634,143.586654 41.0497129,143.369325 41.6974396,143.369325 C43.3636312,143.369325 44.535505,144.758528 44.535505,146.74006 C44.535505,148.734376 43.3636312,150.123579 41.6889169,150.123579 C41.0198834,150.123579 40.5383498,149.901989 40.2017024,149.552557 L40.1590888,149.552557 L40.150566,150 L38.5781244,150 L38.5781244,141.272736 Z M40.1889183,147.720173 C40.3167591,148.248581 40.7684632,148.789774 41.5312465,148.789774 C42.4900525,148.789774 42.9758474,147.946025 42.9758474,146.74006 C42.9758474,145.555402 42.4900525,144.694607 41.5355079,144.694607 C40.683236,144.694607 40.2997136,145.410516 40.1846569,145.845174 C40.1122138,146.151992 40.0866457,146.501424 40.0823843,146.723014 C40.0866457,146.961651 40.1164752,147.413355 40.1889183,147.720173 Z M50.3863616,150 L48.5838065,150 L51.5284059,141.272736 L53.2840861,141.272736 L56.2286856,150 L54.4303918,150 L53.8678924,148.12074 L50.948861,148.12074 L50.3863616,150 Z M52.3551097,143.446029 L51.3579516,146.761367 L53.4588018,146.761367 L52.4659051,143.446029 L52.3551097,143.446029 Z M60.4772689,146.842333 L58.8792591,146.842333 L58.8792591,150 L57.2215902,150 L57.2215902,141.272736 L60.4346553,141.272736 C62.4715852,141.272736 63.5454478,142.504269 63.5454478,144.123585 C63.5454478,145.776993 62.3224376,146.842333 60.4772689,146.842333 Z M58.8792591,142.6662 L58.8792591,145.461652 L60.383519,145.461652 C61.4360748,145.453129 61.8963017,144.835232 61.8963017,144.068187 C61.8963017,143.275575 61.4957339,142.653416 60.4346553,142.6662 L58.8792591,142.6662 Z M66.460225,141.272736 L66.460225,150 L64.8068175,150 L64.8068175,141.272736 L66.460225,141.272736 Z" id="WebAPI" fill="#C1C6F2" fill-rule="nonzero"></path>
            </g>
        </g>
    </g>
</svg>