<?xml version="1.0" encoding="UTF-8"?>
<svg width="40px" height="57px" viewBox="0 0 40 57" version="1.1" xmlns="http://www.w3.org/2000/svg" xmlns:xlink="http://www.w3.org/1999/xlink">
    <!-- Generator: Sketch 55.2 (78181) - https://sketchapp.com -->
    <title>icn-designer</title>
    <desc>Created with Sketch.</desc>
    <defs>
        <linearGradient x1="24.9289498%" y1="0%" x2="75.0710502%" y2="100%" id="linearGradient-1">
            <stop stop-color="#242845" offset="0%"></stop>
            <stop stop-color="#554479" offset="100%"></stop>
        </linearGradient>
    </defs>
    <g id="Homepage" stroke="none" stroke-width="1" fill="none" fill-rule="evenodd">
        <g id="Home" transform="translate(-147.000000, -2028.000000)" fill="url(#linearGradient-1)">
            <g id="icn-designer" transform="translate(147.000000, 2028.000000)">
                <path d="M35.7142857,42.3897472 L30.8218254,42.3897472 C31.5118056,35.141961 39.3095238,27.1691661 39.3919643,27.0860077 C39.6176587,26.858348 39.7204365,26.5353213 39.6700397,26.2181987 C39.6186508,25.9005758 39.4191468,25.6274842 39.1343254,25.483283 C27.7749008,19.7542626 22.8329365,1.29210674 22.7845238,1.10587605 C22.6566468,0.619734902 22.1925595,0.304013343 21.6975198,0.368558638 C21.203373,0.433504213 20.8333333,0.858202247 20.8333333,1.36095506 L20.8333333,23.3764045 C20.8333333,23.7721822 21.064881,24.1308339 21.4233135,24.2911464 C22.8727183,24.9395014 23.8095238,26.3834147 23.8095238,27.9694277 C23.8095238,29.555941 22.8727183,30.9998543 21.4369048,31.6424052 C20.4157738,32.0802124 19.2507937,32.0743083 18.2592262,31.6483093 C16.8098214,30.9999544 15.8730159,29.5560411 15.8730159,27.9694277 C15.8730159,26.3833146 16.8098214,24.9395014 18.2592262,24.2910463 C18.6181548,24.1308339 18.8492063,23.7721822 18.8492063,23.3764045 L18.8492063,1.36095506 C18.8492063,0.858202247 18.4791667,0.433103933 17.9845238,0.368558638 C17.4928571,0.300110604 17.0244048,0.619734902 16.8975198,1.1063764 C16.8491071,1.29200667 11.9202381,19.7478581 0.548313492,25.4833831 C0.262996032,25.6274842 0.0638888889,25.9006759 0.0125992063,26.2182988 C-0.0382936508,26.5359217 0.0648809524,26.8588483 0.290674603,27.0861078 C0.373115079,27.1692662 8.17172619,35.1327546 8.86081349,42.3898473 L3.96825397,42.3898473 C1.78015873,42.3898473 -0.000154711409,44.1855074 -0.000154711409,46.3926563 C-0.000154711409,48.5998051 1.78015873,50.3954652 3.96825397,50.3954652 L5.95238095,50.3954652 L5.95238095,55.3989765 C5.95238095,55.9515643 6.39662698,56.3996787 6.94444444,56.3996787 L32.7380952,56.3996787 C33.2864087,56.3996787 33.7301587,55.9515643 33.7301587,55.3989765 L33.7301587,50.3954652 L35.7142857,50.3954652 C37.902877,50.3954652 39.6826138,48.5998051 39.6826138,46.3926563 C39.6826138,44.1855074 37.902877,42.3897472 35.7142857,42.3897472 Z M2.59791667,26.637493 C9.96031746,22.2828371 14.5210317,13.3381601 16.8650794,7.40179424 L16.8650794,22.7655758 C15.0378968,23.8386289 13.8888889,25.8160165 13.8888889,27.9694277 C13.8888889,30.3465959 15.2887897,32.5087131 17.4681548,33.4835973 C18.9814484,34.1334533 20.684623,34.1403581 22.2274802,33.4776931 C24.39375,32.5088132 25.7936508,30.3465959 25.7936508,27.9694277 C25.7936508,25.8160165 24.6446429,23.8386289 22.8174603,22.7655758 L22.8174603,7.40179424 C25.162004,13.33806 29.7222222,22.2828371 37.085119,26.637493 C34.8646825,29.1040239 29.3423611,35.8446541 28.8115079,42.3897472 L10.8715278,42.3897472 C10.3396825,35.8446541 4.81785714,29.1040239 2.59791667,26.637493 Z M31.7460317,54.3981742 L7.93650794,54.3981742 L7.93650794,50.3953652 L31.7460317,50.3953652 L31.7460317,54.3981742 Z M35.7142857,48.3939607 L32.7380952,48.3939607 L6.94444444,48.3939607 L3.96825397,48.3939607 C2.87400794,48.3939607 1.98412698,47.4963308 1.98412698,46.3925562 C1.98412698,45.2887816 2.87400794,44.3911517 3.96825397,44.3911517 L9.92063492,44.3911517 L29.7619048,44.3911517 L35.7142857,44.3911517 C36.8080357,44.3911517 37.6984127,45.2887816 37.6984127,46.3925562 C37.6984127,47.4963308 36.8080357,48.3939607 35.7142857,48.3939607 Z" id="Shape"></path>
            </g>
        </g>
    </g>
</svg>