<?xml version="1.0" encoding="UTF-8"?>
<svg width="50px" height="50px" viewBox="0 0 50 50" version="1.1" xmlns="http://www.w3.org/2000/svg" xmlns:xlink="http://www.w3.org/1999/xlink">
    <!-- Generator: Sketch 55.2 (78181) - https://sketchapp.com -->
    <title>icn-testers</title>
    <desc>Created with Sketch.</desc>
    <defs>
        <linearGradient x1="0%" y1="0.00370746385%" x2="100%" y2="99.9962925%" id="linearGradient-1">
            <stop stop-color="#242845" offset="0%"></stop>
            <stop stop-color="#554479" offset="100%"></stop>
        </linearGradient>
        <linearGradient x1="0%" y1="32.6621609%" x2="100%" y2="67.3378391%" id="linearGradient-2">
            <stop stop-color="#242845" offset="0%"></stop>
            <stop stop-color="#554479" offset="100%"></stop>
        </linearGradient>
    </defs>
    <g id="Homepage" stroke="none" stroke-width="1" fill="none" fill-rule="evenodd">
        <g id="Home" transform="translate(-952.000000, -2035.000000)">
            <g id="icn-testers" transform="translate(952.000000, 2035.000000)">
                <path d="M20.9561966,41.7067308 C26.1298077,41.7067308 30.8627137,39.7996795 34.5032051,36.6559829 L47.2409188,49.0117521 C47.4839744,49.2494658 47.7991453,49.3669872 48.1143162,49.3669872 C48.4428419,49.3669872 48.7686966,49.2387821 49.0144231,48.9850427 C49.4978632,48.4882479 49.4845085,47.6923077 48.9877137,47.2088675 L36.3060897,34.9065171 C39.6607906,31.2179487 41.7094017,26.3221154 41.7094017,20.9535256 C41.7094017,9.51121795 32.4011752,0.202991453 20.9561966,0.202991453 C9.51388889,0.202991453 0.202991453,9.51121795 0.202991453,20.9535256 C0.202991453,32.3958333 9.51388889,41.7067308 20.9561966,41.7067308 Z M20.9561966,2.71634615 C31.0149573,2.71634615 39.1987179,10.9001068 39.1987179,20.9561966 C39.1987179,31.0122863 31.0149573,39.196047 20.9561966,39.196047 C10.8974359,39.196047 2.71367521,31.0122863 2.71367521,20.9561966 C2.71367521,10.9001068 10.8974359,2.71634615 20.9561966,2.71634615 Z" id="Shape" fill="url(#linearGradient-1)"></path>
                <path d="M9.13995726,14.5058761 C9.7142094,14.8931624 10.4941239,14.7435897 10.8840812,14.1693376 C13.1543803,10.8119658 16.920406,8.80608974 20.9561966,8.80608974 C27.6549145,8.80608974 33.1063034,14.2574786 33.1063034,20.9561966 C33.1063034,21.650641 33.6672009,22.2115385 34.3616453,22.2115385 C35.0560897,22.2115385 35.6169872,21.650641 35.6169872,20.9561966 C35.6169872,12.8712607 29.0411325,6.29540598 20.9561966,6.29540598 C16.0844017,6.29540598 11.5411325,8.71260684 8.8034188,12.7617521 C8.41613248,13.3360043 8.56570513,14.1159188 9.13995726,14.5058761 Z" id="Path" fill="url(#linearGradient-2)"></path>
            </g>
        </g>
    </g>
</svg>