<?xml version="1.0" encoding="UTF-8"?>
<svg width="80px" height="80px" viewBox="0 0 80 80" version="1.1" xmlns="http://www.w3.org/2000/svg" xmlns:xlink="http://www.w3.org/1999/xlink">
    <!-- Generator: Sketch 55.2 (78181) - https://sketchapp.com -->
    <title>icn-magic</title>
    <desc>Created with Sketch.</desc>
    <g id="Homepage" stroke="none" stroke-width="1" fill="none" fill-rule="evenodd">
        <g id="Home" transform="translate(-680.000000, -3384.000000)">
            <g id="Office-2" transform="translate(0.000000, 3115.000000)">
                <g id="Group-42" transform="translate(548.000000, 269.000000)">
                    <g id="icn-magic" transform="translate(132.000000, 0.000000)">
                        <rect id="Rectangle" stroke="#FFBB41" x="0.5" y="0.5" width="79" height="79" rx="39.5"></rect>
                        <g id="noun_Wizard-Hat_3030764" transform="translate(18.000000, 16.000000)" fill="#FFBB41">
                            <path d="M41.8,33.4240631 L41.0666667,33.4240631 L41.0666667,33.4054773 C39.8518475,33.4084361 38.6861953,32.9771621 37.82955,32.2077923 C36.4226555,30.9497525 34.7903367,29.9104937 33,29.1329319 L33,26.8553819 C33,26.4936302 32.6716755,26.2003724 32.2666667,26.2003724 L32.0478583,26.2003724 L30.0443917,19.4899635 L27.9522833,11.6380367 C27.95045,11.6311591 27.948525,11.6242815 27.9464167,11.6174858 L26.2441667,6.04302717 C26.1409374,5.71041001 26.35377,5.36499763 26.7236068,5.26492942 C27.0934436,5.1648612 27.4850992,5.34671479 27.605875,5.67458431 L29.1991333,9.94377269 C29.5112917,10.7806429 30.4745065,11.2770412 31.4418896,11.0995901 C32.4092728,10.922139 33.0754944,10.1268464 32.993125,9.24782506 L32.64195,5.48332153 C32.4442167,3.44582794 31.0791576,1.64515699 29.0345,0.724677276 L28.79855,0.619220741 C27.2030978,-0.0932995495 25.3517735,-0.195439158 23.6702762,0.336288199 C21.9887789,0.868015556 20.621809,1.98785231 19.8836917,3.43829989 L17.771325,7.58901342 C17.761425,7.60849995 17.7525944,7.62834129 17.7448333,7.64853741 L13.239325,19.438709 C13.2289013,19.465883 13.2205106,19.4936456 13.2142083,19.5218133 L11.7186667,26.2010274 C11.319682,26.2081561 11.0003192,26.4989397 11,26.8553819 L11,29.1329319 C9.20968968,29.9105334 7.57737792,30.9497877 6.17045,32.2077923 C5.31380474,32.9771621 4.14815252,33.4084361 2.93333333,33.4054773 C2.87584948,33.4056655 2.81859073,33.4119039 2.76274167,33.4240631 L2.2,33.4240631 C0.98497355,33.4240631 0,34.3038364 0,35.3890917 C0,36.4743471 0.98497355,37.3541203 2.2,37.3541203 L9.35540833,37.3541203 C10.7438033,37.3540447 12.1095735,37.039979 13.3254,36.4412008 C13.4836167,36.5618863 13.6370667,36.6868294 13.7818083,36.8164394 C15.5604984,38.4117737 17.9778085,39.3079803 20.4985,39.3066219 L23.5462333,39.3191489 L23.5632833,39.3191489 C25.9560859,39.3129952 28.2555586,38.4892765 29.9900333,37.0169542 C30.7842822,37.240104 31.6119767,37.3537988 32.4445917,37.3541203 L41.8,37.3541203 C43.0150264,37.3541203 44,36.4743471 44,35.3890917 C44,34.3038364 43.0150264,33.4240631 41.8,33.4240631 Z M12.4666667,27.5103915 L22.7333333,27.5103915 L22.7333333,28.8204105 L12.4666667,28.8204105 L12.4666667,27.5103915 Z M24.2,27.5103915 L27.1333333,27.5103915 L27.1333333,28.8204105 L24.2,28.8204105 L24.2,27.5103915 Z M28.6,27.5103915 L31.5333333,27.5103915 L31.5333333,28.8204105 L28.6,28.8204105 L28.6,27.5103915 Z M14.642925,19.8209889 L19.1216667,8.10196776 L21.219275,3.98040216 C21.7925128,2.85388559 22.8541752,1.98414031 24.1601273,1.57116879 C25.4660794,1.15819726 26.9039314,1.23753971 28.1430417,1.79095092 L28.3789917,1.89632558 C29.9670617,2.61133606 31.0272308,4.00999297 31.1806917,5.59254437 L31.5319583,9.35712978 C31.5522914,9.57514695 31.3870058,9.77234433 31.1470738,9.81632434 C30.9071418,9.86030436 30.6682617,9.73719135 30.5908167,9.52964291 L28.9971917,5.26037266 C28.6242198,4.26087894 27.4283167,3.70813325 26.2994056,4.01345758 C25.1704945,4.31878191 24.5187662,5.37123636 24.8292,6.38764406 L26.5283333,11.9521957 L28.6199833,19.8019937 C28.6215417,19.8076431 28.6231,19.8133744 28.6248417,19.8191058 L30.52995,26.2003724 L13.2141167,26.2003724 L14.642925,19.8209889 Z M2.2,36.0441013 C1.79499118,36.0441013 1.46666667,35.7508435 1.46666667,35.3890917 C1.46666667,35.02734 1.79499118,34.7340822 2.2,34.7340822 L8.66433333,34.7340822 C9.81063871,34.8056215 10.9263354,35.0964088 11.935825,35.5867409 C11.1175582,35.8887763 10.2407936,36.0441765 9.35540833,36.0441013 L2.2,36.0441013 Z M29.2691667,35.8133742 C29.235525,35.8425221 29.2018833,35.8715881 29.1683333,35.9011454 L29.1030667,35.9594413 C27.6310427,37.2671987 25.6410179,38.0037038 23.5648417,38.0091299 L23.55045,38.0091299 L20.5027167,37.9966028 C18.3692949,37.998055 16.3232574,37.2397405 14.8177333,35.8896009 C13.1920673,34.440821 11.0349025,33.5657045 8.74380833,33.4255369 L8.74380833,33.4255369 C8.52426667,33.4121911 8.30674167,33.4054773 8.09765,33.4054773 L6.88105,33.4054773 C6.99300556,33.3189068 7.10181389,33.2284882 7.207475,33.1342214 C8.61209808,31.878277 10.2603102,30.8605133 12.07195,30.1304296 L31.92805,30.1304296 C33.7397159,30.860472 35.3879359,31.8782406 36.792525,33.1342214 C36.8976667,33.2281334 37.0071167,33.3168872 37.1184917,33.403021 C36.7213,33.4025297 36.3194333,33.4019566 35.925725,33.4012197 C35.6813417,33.4029391 35.4338417,33.4094073 35.1864333,33.4257825 C32.9717257,33.5795413 30.886204,34.417749 29.2885083,35.796262 L29.2885083,35.796262 L29.2691667,35.8133742 Z M41.8,36.0441013 L32.4445917,36.0441013 C32.0853242,36.0436519 31.7266753,36.0174768 31.3720917,35.9658276 C32.5311541,35.2588177 33.8767355,34.8342444 35.2758083,34.7340822 L41.8,34.7340822 C42.2050088,34.7340822 42.5333333,35.02734 42.5333333,35.3890917 C42.5333333,35.7508435 42.2050088,36.0441013 41.8,36.0441013 Z" id="Shape"></path>
                        </g>
                    </g>
                </g>
            </g>
        </g>
    </g>
</svg>