<?xml version="1.0" encoding="UTF-8"?>
<svg width="45px" height="42px" viewBox="0 0 45 42" version="1.1" xmlns="http://www.w3.org/2000/svg" xmlns:xlink="http://www.w3.org/1999/xlink">
    <!-- Generator: Sketch 55.2 (78181) - https://sketchapp.com -->
    <title>icn-family</title>
    <desc>Created with Sketch.</desc>
    <defs>
        <linearGradient x1="0%" y1="6.37670189%" x2="100%" y2="93.6232981%" id="linearGradient-1">
            <stop stop-color="#242845" offset="0%"></stop>
            <stop stop-color="#554479" offset="100%"></stop>
        </linearGradient>
    </defs>
    <g id="Homepage" stroke="none" stroke-width="1" fill="none" fill-rule="evenodd">
        <g id="Home" transform="translate(-750.000000, -2526.000000)" fill="url(#linearGradient-1)">
            <g id="Group-20" transform="translate(120.000000, 2438.000000)">
                <g id="Group-35" transform="translate(630.000000, 88.000000)">
                    <g id="icn-family">
                        <path d="M44.3316832,17.0049505 C44.4059406,17.0049505 44.4059406,16.9306931 44.3316832,17.0049505 C45.5940594,11.1386139 44.4059406,6.16336634 41.2128713,3.26732673 C38.6881188,0.965346535 34.9752475,-0.0742574257 31.4108911,0.51980198 C27.7722772,1.03960396 24.7277228,3.19306931 22.5742574,6.46039604 C20.4207921,3.19306931 17.3762376,1.03960396 13.8118812,0.445544554 C10.1732673,-0.148514851 6.46039604,0.891089109 3.93564356,3.26732673 C0.742574257,6.16336634 -0.445544554,11.1386139 0.742574257,16.9306931 C0.816831683,17.3019802 1.11386139,17.5247525 1.48514851,17.5247525 C1.48514851,17.5247525 1.55940594,17.5247525 1.55940594,17.5247525 C1.78217822,17.5247525 1.93069307,17.450495 2.07920792,17.3019802 L4.67821782,14.7029703 C4.75247525,14.7029703 4.75247525,14.6287129 4.75247525,14.5544554 C5.04950495,14.3316832 5.34653465,14.2574257 5.71782178,14.2574257 C6.08910891,14.2574257 6.46039604,14.4059406 6.68316832,14.7029703 C6.98019802,15 7.12871287,15.3712871 7.12871287,15.8168317 C7.12871287,16.1881188 6.98019802,16.5594059 6.68316832,16.7821782 C6.60891089,16.8564356 6.53465347,16.9306931 6.46039604,17.0792079 L2.52475248,21.0891089 C2.22772277,21.3861386 2.22772277,21.8316832 2.52475248,22.1287129 C2.67326733,22.2772277 2.82178218,22.3514851 3.04455446,22.3514851 C3.26732673,22.3514851 3.41584158,22.2772277 3.56435644,22.1287129 L7.7970297,17.8217822 L10.3960396,15.2227723 C10.6930693,14.9257426 11.0643564,14.7772277 11.509901,14.7772277 C11.8811881,14.7772277 12.2524752,14.9257426 12.4752475,15.2227723 C12.7722772,15.519802 12.9207921,15.8910891 12.9207921,16.3366337 C12.9207921,16.7079208 12.7722772,17.0792079 12.4752475,17.3019802 C12.4009901,17.3762376 12.3267327,17.450495 12.3267327,17.5990099 L11.509901,18.490099 L4.6039604,25.3217822 C4.30693069,25.6188119 4.30693069,26.0643564 4.6039604,26.3613861 C4.75247525,26.509901 4.97524752,26.5841584 5.12376238,26.5841584 C5.34653465,26.5841584 5.4950495,26.509901 5.64356436,26.3613861 L12.549505,19.529703 C12.549505,19.529703 12.549505,19.529703 12.549505,19.529703 C13.1435644,18.9356436 14.1089109,19.009901 14.6287129,19.529703 C14.9257426,19.8267327 15.0742574,20.1980198 15.0742574,20.6435644 C15.0742574,21.0148515 14.9257426,21.3861386 14.6287129,21.6089109 C14.6287129,21.6089109 14.6287129,21.6089109 14.6287129,21.6089109 C14.6287129,21.6089109 14.6287129,21.6089109 14.6287129,21.6089109 L13.0693069,23.1683168 C13.0693069,23.1683168 13.0693069,23.1683168 13.0693069,23.1683168 C13.0693069,23.1683168 13.0693069,23.1683168 13.0693069,23.1683168 L7.27722772,28.960396 C6.98019802,29.2574257 6.98019802,29.7029703 7.27722772,30 C7.42574257,30.1485149 7.64851485,30.2227723 7.7970297,30.2227723 C7.94554455,30.2227723 8.16831683,30.1485149 8.31683168,30 L14.1089109,24.2079208 C14.1089109,24.2079208 14.1089109,24.2079208 14.1089109,24.2079208 C14.480198,23.8366337 15.0742574,23.6881188 15.519802,23.8366337 C16.039604,23.9851485 16.4851485,24.4306931 16.5594059,24.8762376 C16.7079208,25.3960396 16.5594059,25.9158416 16.1881188,26.2871287 C16.1138614,26.3613861 16.039604,26.4356436 16.039604,26.509901 L10.3960396,32.1534653 C10.0990099,32.450495 10.0990099,32.8960396 10.3960396,33.1930693 C10.470297,33.2673267 10.6188119,33.3415842 10.7673267,33.4158416 C14.1831683,36.5346535 17.8960396,39.2821782 22.2029703,41.8811881 C22.2772277,41.8811881 22.4257426,41.8811881 22.5742574,41.8811881 C22.7227723,41.8811881 22.8712871,41.8811881 22.9455446,41.8069307 C27.3267327,39.1336634 31.1881188,36.3118812 34.6782178,33.1188119 C34.6782178,33.1188119 34.6782178,33.1188119 34.6782178,33.1188119 C34.6782178,33.1188119 34.6782178,33.1188119 34.6782178,33.1188119 C34.6782178,33.1188119 34.7524752,33.0445545 34.7524752,33.0445545 C34.7524752,32.970297 34.8267327,32.970297 34.8267327,32.8960396 C34.8267327,32.8217822 34.8267327,32.8217822 34.8267327,32.7475248 C34.8267327,32.6732673 34.8267327,32.6732673 34.8267327,32.5990099 C34.8267327,32.5247525 34.8267327,32.5247525 34.8267327,32.450495 C34.8267327,32.3762376 34.8267327,32.3762376 34.8267327,32.3019802 C34.8267327,32.2277228 34.7524752,32.2277228 34.7524752,32.1534653 C34.7524752,32.0792079 34.6782178,32.0792079 34.6782178,32.0049505 C34.6782178,32.0049505 34.6782178,32.0049505 34.6782178,32.0049505 C34.6782178,32.0049505 34.6782178,32.0049505 34.6782178,32.0049505 L28.960396,26.2871287 C28.960396,26.2871287 28.960396,26.2871287 28.960396,26.2871287 C28.5891089,25.9158416 28.4405941,25.3217822 28.5891089,24.8762376 C28.7376238,24.3564356 29.1831683,23.9108911 29.6287129,23.8366337 C30.1485149,23.6881188 30.6683168,23.8366337 31.039604,24.2079208 C31.1138614,24.2821782 31.1881188,24.3564356 31.2623762,24.3564356 L36.7574257,29.9257426 C36.9059406,30.0742574 37.1287129,30.1485149 37.2772277,30.1485149 C37.5,30.1485149 37.6485149,30.0742574 37.7970297,29.9257426 C38.0940594,29.6287129 38.0940594,29.1831683 37.7970297,28.8861386 L32.0792079,23.0940594 L30.519802,21.5346535 C29.9257426,20.9405941 30,19.9752475 30.519802,19.4554455 C30.8168317,19.1584158 31.1881188,19.009901 31.6336634,19.009901 C32.0049505,19.009901 32.3762376,19.1584158 32.5990099,19.3811881 C32.5990099,19.3811881 32.5990099,19.3811881 32.5990099,19.3811881 L32.5990099,19.3811881 L39.5049505,26.2128713 C39.6534653,26.3613861 39.8019802,26.4356436 40.0247525,26.4356436 C40.2475248,26.4356436 40.3960396,26.3613861 40.5445545,26.2128713 C40.8415842,25.9158416 40.8415842,25.470297 40.5445545,25.1732673 L33.6386139,18.3415842 L32.5990099,17.2277228 C32.5990099,17.1534653 32.5247525,17.1534653 32.450495,17.1534653 C32.0049505,16.5594059 32.0792079,15.7425743 32.5990099,15.2227723 C33.1930693,14.6287129 33.9356436,14.6287129 34.6039604,15.0742574 C34.6039604,15.1485149 34.6782178,15.1485149 34.6782178,15.2227723 L36.980198,17.5247525 C37.0544554,17.5990099 37.0544554,17.6732673 37.1287129,17.7475248 L37.2029703,17.8217822 C37.2772277,17.8960396 37.3514851,17.970297 37.4257426,17.970297 L41.509901,22.0544554 C41.6584158,22.2029703 41.8811881,22.2772277 42.029703,22.2772277 C42.1782178,22.2772277 42.4009901,22.2029703 42.549505,22.0544554 C42.8465347,21.7574257 42.8465347,21.3118812 42.549505,21.0148515 L38.019802,16.4851485 C37.6485149,15.8910891 37.7970297,15.1485149 38.3168317,14.6287129 C38.9851485,13.960396 39.8762376,14.1831683 40.3960396,14.6287129 C40.470297,14.7029703 40.5445545,14.7029703 40.6188119,14.7772277 L43.0693069,17.2277228 C43.0693069,17.2277228 43.0693069,17.2277228 43.1435644,17.2277228 C43.2178218,17.2277228 43.2178218,17.3019802 43.2920792,17.3019802 C43.3663366,17.3019802 43.3663366,17.3762376 43.4405941,17.3762376 C43.4405941,17.3762376 43.5148515,17.3762376 43.5148515,17.3762376 C43.5891089,17.3762376 43.5891089,17.3762376 43.6633663,17.3762376 C43.6633663,17.3762376 43.6633663,17.3762376 43.6633663,17.3762376 C43.6633663,17.3762376 43.6633663,17.3762376 43.6633663,17.3762376 C43.6633663,17.3762376 43.6633663,17.3762376 43.6633663,17.3762376 C43.7376238,17.3762376 43.8118812,17.3762376 43.960396,17.3019802 C43.960396,17.3019802 44.0346535,17.3019802 44.0346535,17.2277228 C44.1089109,17.2277228 44.1831683,17.1534653 44.1831683,17.1534653 C44.1831683,17.1534653 44.1831683,17.1534653 44.1831683,17.1534653 C44.1831683,17.1534653 44.1831683,17.0792079 44.1831683,17.0792079 C44.2574257,17.0049505 44.2574257,17.0049505 44.2574257,16.9306931 C44.3316832,17.0792079 44.3316832,17.0049505 44.3316832,17.0049505 Z M37.3514851,13.6633663 C36.980198,14.0346535 36.6831683,14.5544554 36.5346535,15 L35.9405941,14.4059406 C35.8663366,14.3316832 35.8663366,14.2574257 35.7920792,14.1831683 C34.6039604,13.0693069 32.8217822,13.1435644 31.6336634,14.2574257 C30.7425743,15.1485149 30.519802,16.4851485 31.039604,17.5990099 C30.4455446,17.7475248 29.9257426,17.970297 29.480198,18.4158416 C28.3663366,19.529703 28.3663366,21.2376238 29.3316832,22.3514851 C29.3316832,22.3514851 29.3316832,22.3514851 29.3316832,22.3514851 C28.3663366,22.5742574 27.549505,23.3910891 27.1782178,24.4306931 C26.8811881,25.3960396 27.1782178,26.4356436 27.8465347,27.1782178 C27.8465347,27.1782178 27.8465347,27.1782178 27.8465347,27.2524752 L27.9207921,27.3267327 C27.9207921,27.3267327 27.9207921,27.3267327 27.9207921,27.3267327 C27.9207921,27.3267327 27.9207921,27.3267327 27.9207921,27.3267327 L33.0445545,32.450495 C29.9257426,35.2722772 26.4356436,37.7970297 22.5742574,40.2475248 C18.6386139,37.8712871 15.2227723,35.2722772 12.1039604,32.450495 L17.3019802,27.2524752 C17.3762376,27.1782178 17.450495,27.1039604 17.450495,27.029703 C18.1188119,26.2871287 18.3415842,25.2475248 18.1188119,24.3564356 C17.8960396,23.3910891 17.0792079,22.5742574 16.039604,22.2029703 C16.039604,22.2029703 16.039604,22.2029703 16.039604,22.2029703 C16.4108911,21.7574257 16.6336634,21.1633663 16.7079208,20.4950495 C16.7079208,19.6782178 16.4108911,18.9356436 15.8168317,18.3415842 C15.3712871,17.8960396 14.7772277,17.5990099 14.2574257,17.5247525 C14.480198,17.1534653 14.5544554,16.7079208 14.5544554,16.2623762 C14.5544554,15.4455446 14.2574257,14.7029703 13.6633663,14.1089109 C13.1435644,13.5148515 12.4009901,13.2178218 11.6584158,13.2178218 C10.8415842,13.2178218 10.0990099,13.5148515 9.5049505,14.1089109 L8.68811881,15 C8.53960396,14.480198 8.31683168,14.0346535 7.94554455,13.6633663 C7.42574257,13.0693069 6.68316832,12.7722772 5.94059406,12.7722772 C5.12376238,12.7722772 4.38118812,13.0693069 3.78712871,13.6633663 C3.71287129,13.7376238 3.71287129,13.8118812 3.63861386,13.8861386 L2.22772277,15.2970297 C1.55940594,10.6188119 2.5990099,6.68316832 5.1980198,4.30693069 C7.35148515,2.3019802 10.6930693,1.41089109 13.8118812,1.93069307 C17.0049505,2.52475248 19.9752475,4.75247525 21.9059406,8.31683168 C22.2029703,8.76237624 22.9455446,8.76237624 23.2425743,8.31683168 C25.1732673,4.75247525 28.1435644,2.52475248 31.6336634,1.93069307 C34.7524752,1.41089109 38.019802,2.3019802 40.2475248,4.30693069 C42.8465347,6.60891089 43.8861386,10.5445545 43.2178218,15.2227723 L41.5841584,13.6633663 C41.509901,13.5891089 41.3613861,13.5148515 41.2871287,13.5148515 C40.0990099,12.549505 38.3910891,12.549505 37.3514851,13.6633663 Z" id="Shape"></path>
                    </g>
                </g>
            </g>
        </g>
    </g>
</svg>