<?xml version="1.0" encoding="UTF-8"?>
<svg width="22px" height="22px" viewBox="0 0 22 22" version="1.1" xmlns="http://www.w3.org/2000/svg" xmlns:xlink="http://www.w3.org/1999/xlink">
    <!-- Generator: Sketch 55.2 (78181) - https://sketchapp.com -->
    <title>in</title>
    <desc>Created with Sketch.</desc>
    <g id="Homepage" stroke="none" stroke-width="1" fill="none" fill-rule="evenodd">
        <g id="Home" transform="translate(-1196.000000, -5076.000000)" fill="#FFBB41" fill-rule="nonzero">
            <g id="Group-13" transform="translate(0.000000, 4534.000000)">
                <g id="Group-15" transform="translate(1196.000000, 542.000000)">
                    <path d="M19.9375,0 L2.0625,0 C0.928125,0 0,0.928125 0,2.0625 L0,19.9375 C0,21.071875 0.928125,22 2.0625,22 L19.9375,22 C21.071875,22 22,21.071875 22,19.9375 L22,2.0625 C22,0.928125 21.071875,0 19.9375,0 Z M9,18 L6,18 L6,8 L9,8 L9,18 Z M7.5,7 C6.6705,7 6,6.3295 6,5.5 C6,4.6705 6.6705,4 7.5,4 C8.3295,4 9,4.6705 9,5.5 C9,6.3295 8.3295,7 7.5,7 Z M18,18 L15.3333333,18 L15.3333333,12.2857143 C15.3333333,11.4957143 14.7373333,10.8571429 14,10.8571429 C13.2626667,10.8571429 12.6666667,11.4957143 12.6666667,12.2857143 L12.6666667,18 L10,18 L10,8 L12.6666667,8 L12.6666667,9.77285714 C13.216,8.96428571 14.0586667,8 15,8 C16.6586667,8 18,9.59857143 18,11.5714286 L18,18 Z" id="in"></path>
                </g>
            </g>
        </g>
    </g>
</svg>