<?xml version="1.0" encoding="UTF-8"?>
<svg width="66px" height="72px" viewBox="0 0 66 72" version="1.1" xmlns="http://www.w3.org/2000/svg" xmlns:xlink="http://www.w3.org/1999/xlink">
    <!-- Generator: Sketch 45.1 (43504) - http://www.bohemiancoding.com/sketch -->
    <title>Human-Resource-icon</title>
    <desc>Created with Sketch.</desc>
    <defs></defs>
    <g id="Page-1" stroke="none" stroke-width="1" fill="none" fill-rule="evenodd">
        <g id="Home-Page" transform="translate(-389.000000, -2554.000000)" fill-rule="nonzero">
            <g id="Group-22" transform="translate(254.000000, 2554.000000)">
                <g id="Human-Resource-icon" transform="translate(135.000000, 0.000000)">
                    <path d="M45.545,40.762 L45.454,40.743 C45.419,40.739 41.945,40.308 39.496,39.721 C38.858,39.568 38.149,39.397 37.471,39.2 L35.075,35.34 L34.572,35.657 L34.572,33.772 C35.178,33.145 35.841,32.383 36.307,31.58 C36.822,30.693 36.971,29.695 37.071,28.428 C38.147,27.998 39.146,26.565 39.109,24.73 C39.094,24.009 39.061,22.439 37.731,22.068 C37.731,21.488 37.731,20.436 37.731,18.559 C37.731,15.018 34.489,12.08 29.57,12.08 C24.651,12.08 21.409,15.018 21.409,18.559 C21.409,20.436 21.409,21.489 21.409,22.068 C20.079,22.439 20.046,24.009 20.032,24.73 C19.995,26.565 20.994,27.998 22.07,28.428 C22.171,29.695 22.319,30.693 22.835,31.581 C23.302,32.384 23.964,33.145 24.569,33.772 L24.569,35.658 L24.067,35.341 L21.671,39.201 C20.993,39.399 20.283,39.57 19.646,39.722 C17.199,40.31 13.723,40.741 13.688,40.744 L13.597,40.763 C13.484,40.794 11.562,41.372 10.444,43.624 C10.723,44.007 11.009,44.385 11.31,44.75 C12.069,42.659 13.627,42.058 13.895,41.969 C14.37,41.909 17.562,41.498 19.936,40.929 C20.603,40.769 21.291,40.603 21.952,40.413 L22.752,41.016 L24.812,52.898 C25.24,52.985 25.674,53.059 26.11,53.123 L24.2,42.108 L27.215,44.379 L28.051,42.521 L28.994,43.952 L27.355,53.272 C28.085,53.34 28.824,53.379 29.572,53.379 C30.371,53.379 31.161,53.338 31.94,53.26 L29.974,43.936 L30.986,42.282 L31.93,44.38 L34.945,42.109 L33.034,53.125 C33.471,53.061 33.904,52.988 34.332,52.9 L36.393,41.018 L37.193,40.415 C37.854,40.605 38.542,40.77 39.209,40.931 C41.582,41.5 44.771,41.911 45.249,41.971 C45.527,42.064 47.078,42.668 47.835,44.752 C48.136,44.387 48.422,44.009 48.701,43.626 C47.581,41.371 45.659,40.793 45.545,40.762 Z M29.57,38.809 L25.809,36.438 L25.809,34.976 C27.008,36.076 28.021,36.48 29.57,36.48 C31.118,36.48 32.132,36.076 33.331,34.977 L33.331,36.438 L29.57,38.809 Z M22.897,39.572 L24.46,37.054 L28.11,39.356 L26.717,42.452 L22.897,39.572 Z M23.235,27.356 L22.699,27.317 C22.178,27.279 21.241,26.277 21.271,24.754 C21.302,23.227 21.657,23.227 22.034,23.227 C22.172,23.227 22.338,23.243 22.528,23.275 L22.643,23.295 C23.015,23.749 23.2,24.439 23.2,25.275 C23.2,26.769 23.557,27.086 23.557,27.086 C23.557,27.086 23.629,24.921 23.629,22.606 C23.629,20.291 23.629,20.291 23.629,19.236 C23.629,18.182 25.076,16.298 26.783,17.051 C28.489,17.804 29.57,17.578 29.57,17.578 C29.57,17.578 30.651,17.804 32.357,17.051 C34.063,16.298 35.51,18.181 35.51,19.236 C35.51,20.291 35.51,20.291 35.51,22.606 C35.51,24.921 35.583,27.086 35.583,27.086 C35.583,27.086 35.939,26.769 35.939,25.275 C35.939,24.439 36.125,23.748 36.496,23.295 L36.612,23.275 C36.801,23.243 36.967,23.227 37.106,23.227 C37.482,23.227 37.838,23.227 37.868,24.754 C37.899,26.278 36.961,27.279 36.44,27.317 L35.904,27.356 L35.866,27.892 C35.77,29.249 35.674,30.196 35.233,30.954 C34.594,32.054 33.469,33.134 32.796,33.779 L32.665,33.905 C31.488,35.039 30.729,35.238 29.569,35.238 C28.409,35.238 27.65,35.039 26.473,33.904 L26.342,33.779 C25.67,33.134 24.544,32.054 23.905,30.954 C23.464,30.195 23.368,29.248 23.272,27.891 L23.235,27.356 Z M31.029,39.356 L34.679,37.054 L36.242,39.572 L32.421,42.452 L31.029,39.356 Z M29.419,40.225 L29.078,40.231 L29.57,39.137 L30.054,40.215 L29.419,40.225 Z" id="Shape" fill="#000000"></path>
                    <path d="M29.592,58.937 C34.163,58.937 38.653,57.852 42.694,55.824 L43.149,56.373 C44.669,58.206 47.222,58.7 49.286,57.723 L51.857,60.824 C51.5,61.939 51.63,63.097 52.326,63.937 L58.032,70.818 C59.238,72.272 61.693,72.244 63.488,70.756 L63.606,70.658 C65.401,69.17 65.883,66.762 64.677,65.308 L58.971,58.427 C58.277,57.59 57.167,57.26 56.009,57.402 L53.428,54.289 C54.769,52.442 54.757,49.842 53.237,48.009 L52.784,47.463 C60.859,36.891 60.904,21.751 52.059,11.085 C46.497,4.377 38.292,0.53 29.549,0.53 L29.548,0.53 C22.758,0.53 16.143,2.915 10.921,7.246 C-1.479,17.529 -3.202,35.984 7.081,48.384 C12.644,55.09 20.849,58.937 29.592,58.937 Z M53.516,58.488 L53.398,58.586 C53.028,58.893 52.717,59.24 52.462,59.608 L50.345,57.055 C50.349,57.052 50.354,57.049 50.359,57.045 L52.564,55.216 C52.569,55.212 52.572,55.208 52.577,55.204 L54.702,57.766 C54.291,57.95 53.887,58.18 53.516,58.488 Z M12.9,9.631 C17.765,5.597 23.673,3.63 29.547,3.63 C37.057,3.63 44.514,6.844 49.671,13.064 C58.862,24.148 57.323,40.644 46.238,49.835 C41.373,53.869 35.466,55.836 29.591,55.836 C22.081,55.836 14.625,52.622 9.467,46.402 C0.277,35.318 1.816,18.822 12.9,9.631 Z" id="Shape" fill="#FFBB41"></path>
                    <path d="M6.547,29.733 C6.547,17.038 16.876,6.71 29.57,6.71 L29.57,5.47 C16.191,5.47 5.306,16.354 5.306,29.734 L6.547,29.734 L6.547,29.733 Z" id="Shape" fill="#000000"></path>
                </g>
            </g>
        </g>
    </g>
</svg>