<?xml version="1.0" encoding="UTF-8"?>
<svg width="82px" height="66px" viewBox="0 0 82 66" version="1.1" xmlns="http://www.w3.org/2000/svg" xmlns:xlink="http://www.w3.org/1999/xlink">
    <!-- Generator: Sketch 45.1 (43504) - http://www.bohemiancoding.com/sketch -->
    <title>Soft-Dev-icon</title>
    <desc>Created with Sketch.</desc>
    <defs></defs>
    <g id="Page-1" stroke="none" stroke-width="1" fill="none" fill-rule="evenodd">
        <g id="Home-Page" transform="translate(-760.000000, -2552.000000)" fill-rule="nonzero">
            <g id="Soft-Dev-icon" transform="translate(760.000000, 2552.000000)">
                <rect id="Rectangle-path" fill="#000000" x="65.783" y="42.04" width="1.24" height="10.651"></rect>
                <path d="M3.529,60.129 L18.517,60.129 L18.517,62.326 L12.958,62.326 L12.958,64.89 L33.713,64.89 L33.713,62.326 L25.673,62.326 L25.673,60.129 L40.661,60.129 C41.582,60.129 42.406,59.729 42.986,59.1 C43.276,58.787 43.498,58.416 43.643,58.006 L78.289,58.006 L78.289,65.216 L78.289,65.598 L79.839,65.598 L79.839,65.598 L81.391,65.598 L81.391,59.099 L81.391,54.904 L43.837,54.904 L43.837,33.78 C43.837,32.824 43.403,31.975 42.733,31.393 C43.201,31.278 43.67,31.158 44.127,31.026 L44.972,31.663 L48.18,52.691 L48.818,52.691 L48.981,52.666 L48.978,52.691 L52.414,52.691 L55.364,52.641 L55.692,52.691 L56.326,52.691 L59.533,31.662 L60.378,31.025 C61.088,31.23 61.83,31.408 62.548,31.581 C65.086,32.19 68.499,32.628 68.994,32.69 C69.349,32.809 72.231,33.923 72.231,38.482 L72.231,52.69 L73.472,52.69 L73.472,38.483 C73.472,32.718 69.463,31.532 69.292,31.484 L69.201,31.466 C69.163,31.461 65.451,31.002 62.836,30.374 C62.15,30.209 61.386,30.026 60.657,29.812 L58.113,25.714 L57.548,26.07 L57.548,23.964 C58.195,23.294 58.906,22.479 59.405,21.62 C59.954,20.675 60.111,19.607 60.217,18.248 C61.36,17.809 62.429,16.287 62.39,14.331 C62.374,13.574 62.341,11.927 60.961,11.531 C60.961,10.922 60.961,9.792 60.961,7.743 C60.961,3.963 57.501,0.827 52.25,0.827 C46.999,0.827 43.539,3.963 43.539,7.743 C43.539,9.792 43.539,10.922 43.539,11.531 C42.159,11.927 42.125,13.574 42.11,14.331 C42.07,16.286 43.14,17.808 44.283,18.248 C44.39,19.607 44.546,20.675 45.095,21.621 C45.594,22.479 46.304,23.294 46.952,23.964 L46.952,26.07 L46.387,25.714 L43.843,29.812 C43.114,30.026 42.35,30.209 41.664,30.374 C41.333,30.454 40.984,30.53 40.628,30.604 L3.526,30.604 C1.775,30.604 0.35,32.028 0.35,33.779 L0.35,56.953 C0.354,58.705 1.778,60.129 3.529,60.129 Z M3.455,33.78 C3.455,33.739 3.488,33.706 3.529,33.706 L40.662,33.706 C40.703,33.706 40.736,33.739 40.736,33.78 L40.736,56.954 C40.736,56.995 40.703,57.028 40.662,57.028 L25.674,57.028 L25.674,54.007 L18.517,54.007 L18.517,57.028 L3.529,57.028 C3.488,57.028 3.455,56.995 3.455,56.954 L3.455,33.78 Z M48.919,24.157 L48.779,24.023 C48.059,23.332 46.856,22.176 46.171,20.999 C45.695,20.181 45.592,19.166 45.489,17.712 L45.451,17.176 L44.915,17.137 C44.271,17.09 43.319,15.958 43.352,14.358 C43.386,12.686 43.785,12.686 44.208,12.686 C44.358,12.686 44.537,12.704 44.741,12.739 L44.818,12.752 C45.242,13.234 45.453,13.991 45.453,14.915 C45.453,16.51 45.834,16.848 45.834,16.848 C45.834,16.848 45.912,14.537 45.912,12.066 C45.912,9.595 45.912,9.595 45.912,8.469 C45.912,7.344 47.457,5.333 49.278,6.137 C51.099,6.941 52.253,6.7 52.253,6.7 C52.253,6.7 53.406,6.941 55.227,6.137 C57.048,5.333 58.593,7.343 58.593,8.469 C58.593,9.594 58.593,9.594 58.593,12.066 C58.593,14.538 58.671,16.849 58.671,16.849 C58.671,16.849 59.052,16.511 59.052,14.916 C59.052,13.993 59.262,13.235 59.687,12.753 L59.763,12.74 C59.968,12.705 60.147,12.687 60.296,12.687 C60.719,12.687 61.119,12.687 61.152,14.359 C61.183,15.903 60.24,17.09 59.59,17.138 L59.054,17.177 L59.016,17.713 C58.913,19.168 58.81,20.182 58.335,21.001 C57.651,22.178 56.448,23.334 55.729,24.023 L55.587,24.16 C54.32,25.38 53.503,25.595 52.254,25.595 C51.003,25.592 50.186,25.378 48.919,24.157 Z M48.196,25.175 C49.498,26.39 50.581,26.833 52.253,26.833 C53.924,26.833 55.007,26.39 56.309,25.176 L56.309,26.853 L52.252,29.411 L48.197,26.853 L48.196,25.175 Z M59.431,30.186 L55.281,33.314 L53.758,29.929 L57.721,27.43 L59.431,30.186 Z M50.749,29.929 L49.226,33.315 L45.076,30.187 L46.787,27.431 L50.749,29.929 Z M49.205,51.174 L46.392,32.731 L49.721,35.239 L50.603,33.279 L51.637,34.848 L49.205,51.174 Z M52.092,30.872 L51.681,30.879 L52.253,29.609 L52.815,30.859 L52.092,30.872 Z M55.439,50.28 L52.682,34.83 L53.788,33.021 L54.786,35.239 L58.115,32.73 L55.439,50.28 Z" id="Shape" fill="#000000"></path>
                <circle id="Oval" fill="#000000" cx="22.096" cy="45.987" r="2.744"></circle>
                <path d="M75.654,61.492 L74.571,61.492 L74.571,61.456 C74.571,61.022 74.217,60.668 73.784,60.668 L73.25,60.668 C72.816,60.668 72.462,61.022 72.462,61.456 L72.462,61.492 L71.928,61.492 L71.928,61.456 C71.928,61.022 71.574,60.668 71.141,60.668 L70.607,60.668 C70.173,60.668 69.819,61.022 69.819,61.456 L69.819,61.492 L69.285,61.492 L69.285,61.456 C69.285,61.022 68.931,60.668 68.498,60.668 L67.964,60.668 C67.53,60.668 67.176,61.022 67.176,61.456 L67.176,61.492 L66.642,61.492 L66.642,61.456 C66.642,61.022 66.288,60.668 65.855,60.668 L65.321,60.668 C64.887,60.668 64.533,61.022 64.533,61.456 L64.533,61.492 L63.999,61.492 L63.999,61.456 C63.999,61.022 63.645,60.668 63.212,60.668 L62.678,60.668 C62.339,60.668 62.055,60.887 61.945,61.189 C61.914,61.273 61.891,61.361 61.891,61.456 L61.891,61.492 L61.357,61.492 L61.357,61.456 C61.357,61.285 61.29,61.134 61.197,61.005 C61.053,60.807 60.832,60.669 60.57,60.669 L60.036,60.669 C59.996,60.669 59.962,60.686 59.924,60.691 C59.546,60.748 59.249,61.063 59.249,61.456 L59.249,61.492 L58.715,61.492 L58.715,61.456 C58.715,61.022 58.361,60.668 57.927,60.668 L57.393,60.668 C56.96,60.668 56.605,61.022 56.605,61.456 L56.605,61.492 L56.071,61.492 L56.071,61.456 C56.071,61.022 55.717,60.668 55.283,60.668 L54.749,60.668 C54.316,60.668 53.961,61.022 53.961,61.456 L53.961,61.492 L53.427,61.492 L53.427,61.456 C53.427,61.022 53.073,60.668 52.639,60.668 L52.105,60.668 C51.672,60.668 51.317,61.022 51.317,61.456 L51.317,61.492 L50.783,61.492 L50.783,61.456 C50.783,61.022 50.429,60.668 49.995,60.668 L49.461,60.668 C49.028,60.668 48.673,61.022 48.673,61.456 L48.673,61.492 L48.139,61.492 L48.139,61.456 C48.139,61.022 47.785,60.668 47.351,60.668 L46.817,60.668 C46.384,60.668 46.029,61.022 46.029,61.456 L46.029,61.492 L45.495,61.492 L45.495,61.456 C45.495,61.022 45.141,60.668 44.707,60.668 L44.173,60.668 C43.739,60.668 43.385,61.022 43.385,61.456 L43.385,61.492 L42.302,61.492 L42.302,63.767 L72.407,63.767 L75.655,63.767 L75.655,61.492 L75.654,61.492 Z" id="Shape" fill="#FFBB41"></path>
            </g>
        </g>
    </g>
</svg>