<?xml version="1.0" encoding="UTF-8"?>
<svg width="89px" height="64px" viewBox="0 0 89 64" version="1.1" xmlns="http://www.w3.org/2000/svg" xmlns:xlink="http://www.w3.org/1999/xlink">
    <!-- Generator: Sketch 45.1 (43504) - http://www.bohemiancoding.com/sketch -->
    <title>Prod-Management-icon</title>
    <desc>Created with Sketch.</desc>
    <defs></defs>
    <g id="Page-1" stroke="none" stroke-width="1" fill="none" fill-rule="evenodd">
        <g id="Home-Page" transform="translate(-559.000000, -2908.000000)" fill-rule="nonzero">
            <g id="Group-8" transform="translate(441.000000, 2908.000000)">
                <g id="Prod-Management-icon" transform="translate(118.000000, 0.000000)">
                    <path d="M41.625,42.231 L41.563,42.219 C41.538,42.215 39.005,41.902 37.221,41.474 C36.753,41.362 36.232,41.237 35.734,41.09 L33.998,38.294 L33.613,38.537 L33.613,37.095 C34.056,36.638 34.539,36.089 34.88,35.502 C35.255,34.857 35.361,34.128 35.434,33.201 C36.214,32.901 36.943,31.863 36.916,30.529 C36.906,30.012 36.882,28.889 35.941,28.619 C35.941,28.204 35.941,27.432 35.941,26.034 C35.941,23.456 33.581,21.316 29.998,21.316 C26.415,21.316 24.055,23.456 24.055,26.035 C24.055,27.433 24.055,28.204 24.055,28.62 C23.114,28.89 23.091,30.013 23.08,30.529 C23.054,31.863 23.783,32.901 24.563,33.201 C24.636,34.129 24.743,34.857 25.117,35.503 C25.458,36.089 25.941,36.638 26.384,37.095 L26.384,38.537 L26,38.295 L24.264,41.092 C23.766,41.238 23.245,41.363 22.777,41.475 C20.993,41.904 18.461,42.217 18.435,42.22 L18.373,42.233 C18.29,42.255 16.895,42.675 16.088,44.316 C16.278,44.577 16.474,44.834 16.679,45.083 C17.24,43.556 18.384,43.12 18.576,43.057 C18.912,43.014 21.243,42.715 22.974,42.299 C23.464,42.182 23.97,42.06 24.455,41.92 L25.058,42.374 L26.562,51.048 C26.854,51.108 27.15,51.158 27.448,51.202 L26.046,43.118 L28.27,44.794 L28.872,43.457 L29.577,44.527 L28.384,51.313 C28.916,51.363 29.453,51.391 29.998,51.391 C30.58,51.391 31.155,51.362 31.722,51.305 L30.29,44.514 L31.044,43.281 L31.725,44.795 L33.949,43.118 L32.547,51.202 C32.845,51.158 33.14,51.107 33.433,51.048 L34.937,42.374 L35.54,41.92 C36.025,42.06 36.531,42.181 37.021,42.299 C38.752,42.714 41.081,43.014 41.419,43.056 C41.617,43.121 42.756,43.56 43.316,45.082 C43.521,44.833 43.716,44.576 43.907,44.315 C43.103,42.674 41.708,42.255 41.625,42.231 Z M29.999,40.816 L27.231,39.072 L27.231,37.927 C28.12,38.755 28.858,39.058 29.999,39.058 C31.14,39.058 31.878,38.755 32.767,37.927 L32.767,39.072 L29.999,40.816 Z M25.102,41.346 L26.269,39.466 L28.972,41.17 L27.933,43.481 L25.102,41.346 Z M25.359,32.47 L24.994,32.444 C24.555,32.412 23.905,31.639 23.928,30.548 C23.95,29.407 24.223,29.407 24.511,29.407 C24.613,29.407 24.736,29.419 24.875,29.443 L24.927,29.452 C25.217,29.781 25.36,30.298 25.36,30.927 C25.36,32.016 25.62,32.246 25.62,32.246 C25.62,32.246 25.673,30.669 25.672,28.983 C25.672,27.296 25.672,27.296 25.672,26.529 C25.672,25.762 26.726,24.389 27.968,24.938 C29.211,25.487 29.997,25.322 29.997,25.322 C29.997,25.322 30.784,25.487 32.026,24.938 C33.269,24.389 34.322,25.76 34.322,26.529 C34.322,27.297 34.322,27.297 34.322,28.983 C34.322,30.669 34.375,32.246 34.375,32.246 C34.375,32.246 34.635,32.015 34.635,30.927 C34.635,30.297 34.779,29.781 35.068,29.451 L35.12,29.442 C35.26,29.419 35.382,29.406 35.484,29.406 C35.773,29.406 36.046,29.406 36.068,30.547 C36.089,31.601 35.446,32.411 35.002,32.443 L34.636,32.469 L34.611,32.834 C34.541,33.826 34.47,34.519 34.146,35.077 C33.679,35.88 32.858,36.668 32.368,37.139 L32.271,37.233 C31.407,38.065 30.849,38.212 29.997,38.212 C29.145,38.212 28.587,38.066 27.723,37.233 L27.626,37.139 C27.136,36.668 26.315,35.88 25.848,35.077 C25.523,34.518 25.453,33.827 25.383,32.835 L25.359,32.47 Z M31.025,41.17 L33.729,39.466 L34.896,41.346 L32.064,43.48 L31.025,41.17 Z M29.889,41.814 L29.609,41.819 L29.999,40.952 L30.383,41.806 L29.889,41.814 Z" id="Shape" fill="#000000"></path>
                    <path d="M53.768,30.59 C53.504,28.829 53.033,27.082 52.37,25.397 L52.203,24.975 L56.305,21.645 L54.001,17.657 L49.059,19.548 L48.776,19.194 C47.657,17.795 46.38,16.517 44.979,15.397 L44.625,15.115 L46.516,10.172 L42.527,7.869 L39.198,11.971 L38.776,11.805 C37.089,11.141 35.341,10.67 33.583,10.407 L33.134,10.339 L32.303,5.13 L27.697,5.13 L26.866,10.337 L26.417,10.403 C24.653,10.667 22.903,11.135 21.217,11.798 L20.795,11.964 L17.472,7.87 L13.483,10.173 L15.372,15.111 L15.019,15.394 C14.297,15.973 13.621,16.576 13.01,17.187 C12.4,17.796 11.797,18.472 11.218,19.195 L10.935,19.548 L5.998,17.66 L3.695,21.648 L7.789,24.972 L7.623,25.395 C6.96,27.081 6.491,28.83 6.228,30.593 L6.161,31.042 L0.954,31.873 L0.954,36.479 L6.163,37.31 L6.23,37.758 C6.495,39.52 6.965,41.268 7.628,42.951 L7.795,43.373 L3.693,46.703 L5.996,50.692 L10.938,48.801 L11.221,49.155 C12.34,50.554 13.618,51.832 15.018,52.951 L15.372,53.234 L13.481,58.176 L17.47,60.479 L20.799,56.378 L21.221,56.543 C22.909,57.208 24.656,57.678 26.415,57.942 L26.864,58.009 L27.695,63.218 L32.301,63.218 L33.132,58.012 L33.582,57.945 C35.346,57.682 37.095,57.213 38.781,56.55 L39.204,56.384 L42.527,60.478 L46.516,58.175 L44.627,53.237 L44.981,52.954 C45.703,52.376 46.379,51.772 46.99,51.161 C47.603,50.549 48.205,49.873 48.782,49.154 L49.065,48.8 L54.002,50.689 L56.306,46.7 L52.211,43.377 L52.377,42.954 C53.04,41.268 53.509,39.519 53.772,37.755 L53.839,37.306 L59.046,36.476 L59.046,31.87 L53.837,31.039 L53.768,30.59 Z M30,53.757 L30,53.757 C19.202,53.757 10.416,44.972 10.416,34.173 C10.416,23.375 19.201,14.59 29.999,14.589 C40.797,14.589 49.583,23.374 49.583,34.173 C49.583,44.971 40.798,53.757 30,53.757 Z" id="Shape" fill="#FFBB41"></path>
                    <path d="M80.511,40.573 L82.357,38.06 L81.112,36.313 L79.789,34.671 L76.96,35.735 C76.692,35.553 76.417,35.388 76.136,35.241 L75.681,32.265 L73.566,31.911 L71.47,31.685 L70.227,34.425 C69.916,34.492 69.606,34.576 69.299,34.678 L66.863,32.889 L65.116,34.134 L63.474,35.456 L64.571,38.374 C64.416,38.615 64.278,38.853 64.154,39.093 L61.069,39.565 L60.714,41.68 L60.488,43.777 L63.33,45.065 C63.385,45.33 63.454,45.597 63.538,45.87 L61.692,48.383 L62.937,50.13 L64.26,51.772 L67.089,50.708 C67.357,50.89 67.632,51.055 67.913,51.202 L68.368,54.178 L70.484,54.532 L72.58,54.758 L73.823,52.018 C74.133,51.952 74.444,51.867 74.75,51.765 L77.186,53.554 L78.933,52.309 L80.575,50.987 L79.478,48.069 C79.633,47.829 79.771,47.59 79.896,47.35 L82.981,46.878 L83.335,44.763 L83.561,42.666 L80.719,41.378 C80.664,41.113 80.595,40.847 80.511,40.573 Z M82.107,44.594 L81.906,45.788 L79.061,46.223 L78.92,46.523 C78.746,46.894 78.535,47.258 78.274,47.637 L78.09,47.904 L79.098,50.585 L78.184,51.321 L77.198,52.023 L74.95,50.373 L74.636,50.49 C74.191,50.657 73.736,50.781 73.284,50.859 L72.96,50.916 L71.82,53.43 L70.653,53.305 L69.459,53.104 L69.042,50.376 L68.746,50.233 C68.331,50.036 67.928,49.793 67.545,49.512 L67.274,49.314 L64.663,50.295 L63.926,49.382 L63.224,48.395 L64.919,46.088 L64.814,45.781 C64.665,45.346 64.56,44.938 64.494,44.534 L64.44,44.207 L61.818,43.019 L61.943,41.852 L62.144,40.657 L64.989,40.223 L65.129,39.921 C65.302,39.553 65.513,39.188 65.775,38.808 L65.959,38.54 L64.951,35.861 L65.865,35.124 L66.852,34.422 L69.099,36.072 L69.413,35.955 C69.858,35.788 70.313,35.664 70.765,35.586 L71.088,35.529 L72.228,33.015 L73.395,33.14 L74.589,33.341 L75.006,36.07 L75.302,36.212 C75.716,36.409 76.12,36.652 76.504,36.933 L76.775,37.131 L79.385,36.15 L80.122,37.063 L80.824,38.05 L79.129,40.357 L79.234,40.664 C79.383,41.1 79.488,41.508 79.555,41.911 L79.609,42.238 L82.23,43.426 L82.107,44.594 Z" id="Shape" fill="#000000"></path>
                    <path d="M72.734,38.083 C72.503,38.051 72.268,38.035 72.037,38.035 C69.489,38.035 67.302,39.964 66.949,42.522 C66.558,45.356 68.518,47.975 71.317,48.361 C71.548,48.393 71.783,48.409 72.015,48.409 C74.563,48.409 76.75,46.48 77.102,43.922 C77.492,41.089 75.533,38.47 72.734,38.083 Z M75.873,43.753 C75.605,45.7 73.946,47.169 72.015,47.169 C71.84,47.169 71.662,47.156 71.487,47.133 C69.365,46.84 67.881,44.848 68.178,42.692 C68.447,40.745 70.105,39.276 72.037,39.276 C72.212,39.276 72.39,39.289 72.564,39.312 C74.686,39.604 76.17,41.597 75.873,43.753 Z" id="Shape" fill="#000000"></path>
                    <path d="M84.708,13.935 L87.781,11.219 L86.719,8.747 L85.53,6.376 L81.472,6.975 C81.182,6.674 80.868,6.384 80.525,6.099 L80.777,2.01 L78.279,1.014 L75.76,0.178 L73.391,3.367 C72.903,3.352 72.412,3.367 71.931,3.414 L69.312,0.452 L66.841,1.514 L64.469,2.703 L65.046,6.614 C64.701,6.952 64.374,7.315 64.069,7.7 L60.104,7.456 L59.107,9.954 L58.272,12.472 L61.561,14.915 C61.557,15.362 61.577,15.788 61.62,16.203 L58.547,18.92 L59.609,21.392 L60.798,23.763 L64.856,23.164 C65.146,23.465 65.459,23.753 65.803,24.04 L65.551,28.128 L68.05,29.125 L70.568,29.96 L72.937,26.772 C73.425,26.787 73.916,26.772 74.398,26.725 L77.016,29.687 L79.488,28.625 L81.859,27.435 L81.282,23.526 C81.627,23.187 81.955,22.824 82.259,22.439 L86.224,22.683 L87.221,20.184 L88.056,17.666 L84.767,15.224 C84.77,14.776 84.75,14.351 84.708,13.935 Z M86.054,19.759 L85.403,21.389 L81.669,21.16 L81.468,21.429 C81.085,21.944 80.658,22.419 80.199,22.842 L79.958,23.064 L80.499,26.73 L78.963,27.501 L77.35,28.193 L74.896,25.417 L74.57,25.458 C73.95,25.537 73.307,25.558 72.672,25.519 L72.338,25.499 L70.107,28.501 L68.476,27.961 L66.845,27.31 L67.081,23.475 L66.827,23.274 C66.338,22.887 65.919,22.5 65.548,22.088 L65.325,21.842 L61.505,22.406 L60.734,20.87 L60.042,19.257 L62.935,16.699 L62.891,16.37 C62.817,15.82 62.79,15.25 62.809,14.628 L62.819,14.304 L59.734,12.012 L60.275,10.381 L60.926,8.751 L64.66,8.98 L64.861,8.711 C65.244,8.196 65.671,7.721 66.13,7.298 L66.372,7.076 L65.831,3.409 L67.367,2.638 L68.98,1.946 L71.435,4.722 L71.761,4.681 C72.38,4.602 73.024,4.582 73.659,4.62 L73.994,4.64 L76.225,1.637 L77.857,2.178 L79.487,2.828 L79.251,6.665 L79.506,6.866 C79.993,7.251 80.412,7.638 80.785,8.051 L81.008,8.297 L84.828,7.733 L85.599,9.269 L86.292,10.882 L83.399,13.439 L83.443,13.768 C83.518,14.319 83.544,14.889 83.525,15.51 L83.515,15.834 L86.6,18.126 L86.054,19.759 Z" id="Shape" fill="#000000"></path>
                    <path d="M73.096,8.396 C72.14,8.396 71.215,8.602 70.345,9.006 C68.744,9.75 67.533,11.081 66.935,12.754 C66.338,14.424 66.424,16.234 67.176,17.853 C68.275,20.216 70.652,21.743 73.231,21.743 C74.186,21.743 75.112,21.538 75.982,21.134 C79.284,19.599 80.705,15.63 79.151,12.286 C78.052,9.923 75.676,8.396 73.096,8.396 Z M68.301,17.329 C67.687,16.009 67.617,14.532 68.103,13.172 C68.588,11.815 69.57,10.734 70.868,10.131 C71.574,9.803 72.323,9.637 73.097,9.637 C75.196,9.637 77.131,10.882 78.027,12.809 C79.293,15.533 78.141,18.762 75.461,20.008 C74.755,20.336 74.005,20.502 73.232,20.502 C71.132,20.502 69.197,19.257 68.301,17.329 Z" id="Shape" fill="#000000"></path>
                </g>
            </g>
        </g>
    </g>
</svg>