<?xml version="1.0" encoding="UTF-8"?>
<svg width="58px" height="44px" viewBox="0 0 58 44" version="1.1" xmlns="http://www.w3.org/2000/svg" xmlns:xlink="http://www.w3.org/1999/xlink">
    <!-- Generator: Sketch 45.1 (43504) - http://www.bohemiancoding.com/sketch -->
    <title>Quote-icon</title>
    <desc>Created with Sketch.</desc>
    <defs></defs>
    <g id="Page-1" stroke="none" stroke-width="1" fill="none" fill-rule="evenodd">
        <g id="Home-Page" transform="translate(-589.000000, -4369.000000)" fill="#FFBB41">
            <g id="Bitmap" transform="translate(1.000000, 4246.000000)">
                <g id="Quote-icon" transform="translate(588.000000, 123.000000)">
                    <path d="M5.96118806,3.27107087 C4.44453134,3.27107087 3.21060299,4.50584252 3.21060299,6.02332283 L3.21060299,25.4846614 C3.21060299,27.002315 4.44453134,28.2370866 5.96118806,28.2370866 L13.5964119,28.2370866 C14.1021373,28.2370866 14.5763522,28.4825512 14.868603,28.8957008 C15.1605075,29.3088504 15.2340896,29.838063 15.0656299,30.3151339 L11.4086866,40.6778268 C11.3877373,40.7374173 11.3761373,40.7701575 11.4580299,40.8235118 C11.5406149,40.8770394 11.5657194,40.8529606 11.6114269,40.8096535 L22.0339403,30.9642205 C23.2723701,29.7945827 23.982394,28.1466614 23.982394,26.4429606 L23.982394,6.02332283 C23.982394,4.50584252 22.7482925,3.27107087 21.2316358,3.27107087 L5.96118806,3.27107087 Z M11.5362866,43.9748819 C10.9268537,43.9748819 10.3122269,43.7976693 9.75854328,43.4371811 C8.47994627,42.6048189 7.96227463,41.0788504 8.47025075,39.6394961 L11.3936239,31.3551969 L5.96118806,31.3551969 C2.72617313,31.3551969 0.0941850746,28.7216063 0.0941850746,25.4846614 L0.0941850746,6.02332283 C0.0941850746,2.78637795 2.72617313,0.15296063 5.96118806,0.15296063 L21.2316358,0.15296063 C24.4668239,0.15296063 27.0988119,2.78637795 27.0988119,6.02332283 L27.0988119,26.4429606 C27.0988119,29.0010236 26.0326507,31.4754173 24.1735343,33.2316063 L13.7508478,43.0770394 C13.1218507,43.6710394 12.3337433,43.9747087 11.5362866,43.9748819 L11.5362866,43.9748819 Z" id="Fill-3"></path>
                    <path d="M1.65239403,27.0437165 C0.791743284,27.0437165 0.0941850746,26.3457795 0.0941850746,25.4846614 L0.0941850746,6.02332283 C0.0941850746,2.78637795 2.72617313,0.15296063 5.96118806,0.15296063 L21.2316358,0.15296063 C22.0921134,0.15296063 22.7898448,0.850897638 22.7898448,1.71201575 C22.7898448,2.57313386 22.0921134,3.27107087 21.2316358,3.27107087 L5.96118806,3.27107087 C4.44453134,3.27107087 3.21060299,4.50584252 3.21060299,6.02332283 L3.21060299,25.4846614 C3.21060299,26.3457795 2.51287164,27.0437165 1.65239403,27.0437165" id="Fill-4"></path>
                    <path d="M36.8168418,3.27107087 C35.3000119,3.27107087 34.0659104,4.50584252 34.0659104,6.02332283 L34.0659104,25.4846614 C34.0659104,27.002315 35.3000119,28.2370866 36.8168418,28.2370866 L44.4520657,28.2370866 C44.957791,28.2370866 45.432006,28.4825512 45.7240836,28.8957008 C46.0161612,29.3088504 46.0897433,29.838063 45.9212836,30.3151339 L42.2641672,40.6778268 C42.2432179,40.7372441 42.231791,40.7701575 42.3136836,40.8235118 C42.3959224,40.8768661 42.4210269,40.8531339 42.4670806,40.8096535 L52.889594,30.9642205 C54.1278507,29.7945827 54.8380478,28.1466614 54.8380478,26.4429606 L54.8380478,6.02332283 C54.8380478,4.50584252 53.6039463,3.27107087 52.0871164,3.27107087 L36.8168418,3.27107087 Z M42.3917672,43.9748819 C41.7826806,43.9748819 41.1678806,43.7976693 40.614197,43.4371811 C39.3356,42.6049921 38.8177552,41.0788504 39.3255582,39.6396693 L42.2492776,31.3551969 L36.8168418,31.3551969 C33.5816537,31.3551969 30.9494925,28.7216063 30.9494925,25.4846614 L30.9494925,6.02332283 C30.9494925,2.78637795 33.5816537,0.15296063 36.8168418,0.15296063 L52.0871164,0.15296063 C55.3224776,0.15296063 57.9544657,2.78637795 57.9544657,6.02332283 L57.9544657,26.4429606 C57.9544657,29.0010236 56.8883045,31.4754173 55.0291881,33.2316063 L44.6063284,43.0770394 C43.9775045,43.6710394 43.189397,43.9748819 42.3917672,43.9748819 L42.3917672,43.9748819 Z" id="Fill-5"></path>
                    <path d="M42.3917672,43.9748819 C41.7826806,43.9748819 41.1678806,43.7976693 40.614197,43.4371811 C39.3356,42.6049921 38.8177552,41.0788504 39.3255582,39.6396693 L42.9826746,29.2769764 C43.2693851,28.4652283 44.1592955,28.0390866 44.9709493,28.3259528 C45.7822567,28.6126457 46.2078209,29.5032126 45.9212836,30.3151339 L42.2641672,40.6778268 C42.2432179,40.7372441 42.231791,40.7701575 42.3136836,40.8235118 C42.3959224,40.8768661 42.4210269,40.8531339 42.4670806,40.8096535 L52.889594,30.9642205 C54.1278507,29.7945827 54.8380478,28.1466614 54.8380478,26.4429606 L54.8380478,6.02332283 C54.8380478,5.16237795 55.535606,4.46426772 56.3962567,4.46426772 C57.2569075,4.46426772 57.9544657,5.16237795 57.9544657,6.02332283 L57.9544657,26.4429606 C57.9544657,29.0010236 56.8883045,31.4754173 55.0291881,33.2316063 L44.6063284,43.0770394 C43.9775045,43.6710394 43.189397,43.9748819 42.3917672,43.9748819" id="Fill-6"></path>
                    <path d="M44.4520657,31.3551969 L36.8168418,31.3551969 C33.5816537,31.3551969 30.9494925,28.7217795 30.9494925,25.4846614 L30.9494925,6.02332283 C30.9494925,5.16237795 31.6472239,4.46426772 32.5077015,4.46426772 C33.3683522,4.46426772 34.0659104,5.16237795 34.0659104,6.02332283 L34.0659104,25.4846614 C34.0659104,27.002315 35.3000119,28.2370866 36.8168418,28.2370866 L44.4520657,28.2370866 C45.3125433,28.2370866 46.0102746,28.9350236 46.0102746,29.7961417 C46.0102746,30.6570866 45.3125433,31.3551969 44.4520657,31.3551969" id="Fill-7"></path>
                </g>
            </g>
        </g>
    </g>
</svg>