<?xml version="1.0" encoding="UTF-8" standalone="no"?>
<!DOCTYPE svg PUBLIC "-//W3C//DTD SVG 1.1//EN" "http://www.w3.org/Graphics/SVG/1.1/DTD/svg11.dtd">
<svg version="1.1" xmlns="http://www.w3.org/2000/svg" xmlns:xlink="http://www.w3.org/1999/xlink" preserveAspectRatio="xMidYMid meet" viewBox="0 0 769 489" width="769" height="489"><defs><path d="M21.7 285.31C54.81 285.31 319.68 285.31 352.78 285.31C364.25 285.4 373.49 276.07 373.49 264.59C373.49 242.6 373.49 66.69 373.49 44.7C373.49 33.22 364.25 23.98 352.78 23.98C319.68 23.98 54.81 23.98 21.7 23.98C10.24 23.98 1 33.22 1 44.7C1 59.36 1 132.66 1 264.59C7.16 278.41 14.06 285.31 21.7 285.31Z" id="a1XePy8GG6"></path><path d="M27.44 9.85C27.44 9.85 27.44 9.85 27.44 9.85C27.44 163.41 27.44 248.73 27.44 265.79C27.44 265.79 27.44 265.79 27.44 265.79C221.36 265.79 329.1 265.79 350.64 265.79C350.64 265.79 350.64 265.79 350.64 265.79C350.64 112.23 350.64 26.91 350.64 9.85C350.64 9.85 350.64 9.85 350.64 9.85C156.72 9.85 48.98 9.85 27.44 9.85Z" id="e2N7n9AuRj"></path><path d="M27.52 9.85C27.52 9.85 27.52 9.85 27.52 9.85C27.52 163.41 27.52 248.73 27.52 265.79C27.52 265.79 27.52 265.79 27.52 265.79C124.79 265.79 178.83 265.79 189.64 265.79C189.64 265.79 189.64 265.79 189.64 265.79C189.64 112.23 189.64 26.91 189.64 9.85C189.64 9.85 189.64 9.85 189.64 9.85C92.37 9.85 38.33 9.85 27.52 9.85Z" id="aTm3Fg6x"></path><path d="M79.71 68.07L100.41 78.44L100.41 0L56.86 0L56.86 78.44L79.71 68.07Z" id="g9GVM7QvMJ"></path><path d="M263.29 132.94C259.5 129.21 229.22 99.34 225.43 95.61C225.41 95.58 225.4 95.56 225.38 95.54C224.78 94.96 220.02 90.26 219.43 89.68C219.17 89.42 218.74 89.42 218.48 89.68C216.52 91.61 206.7 101.3 189.02 118.73C171.35 101.3 161.54 91.62 159.57 89.69C159.31 89.43 158.89 89.43 158.63 89.69C158.03 90.27 153.28 94.96 152.68 95.55C152.42 95.81 152.42 96.23 152.68 96.48C156.27 100.02 184.97 128.33 188.55 131.87C188.82 132.12 189.24 132.12 189.5 131.87C190.1 131.28 194.86 126.59 195.45 126C195.48 125.97 195.51 125.94 195.53 125.91C197.09 124.37 204.9 116.67 218.95 102.81L249.98 133.4C235.32 147.86 227.17 155.89 225.54 157.5C225.28 157.75 225.28 158.17 225.54 158.43C226.14 159.02 230.9 163.71 231.49 164.29C231.75 164.55 232.18 164.55 232.43 164.29C235.52 161.25 260.2 136.91 263.29 133.87C263.42 133.74 263.49 133.57 263.49 133.4C263.48 133.23 263.42 133.07 263.29 132.94Z" id="b1nkbtFAAR"></path><path d="M126.99 134.57C141.65 120.11 149.79 112.08 151.42 110.47C151.68 110.22 151.68 109.8 151.42 109.54C150.83 108.96 146.07 104.26 145.48 103.68C145.22 103.42 144.79 103.42 144.53 103.68C141.45 106.72 116.77 131.06 113.68 134.1C113.55 134.23 113.49 134.4 113.49 134.57C113.49 134.74 113.55 134.91 113.68 135.03C116.41 137.72 130.04 151.16 154.57 175.36C156.36 177.12 157.35 178.1 157.55 178.29C157.81 178.55 158.23 178.55 158.49 178.29C160.45 176.36 170.27 166.67 187.94 149.24C205.62 166.67 215.44 176.35 217.4 178.29C217.66 178.54 218.09 178.54 218.34 178.29C218.94 177.7 223.7 173.01 224.29 172.42C224.55 172.17 224.55 171.75 224.29 171.49C220.7 167.95 192 139.64 188.41 136.11C188.15 135.85 187.73 135.85 187.47 136.11C187.27 136.3 186.28 137.28 184.5 139.04L158.01 165.16L126.99 134.57Z" id="a4LJnVVWoQ"></path><path d="M373.49 16.49L769.49 428.49L534.49 488.49L374.49 318.49L373.49 16.49Z" id="aa0tj9XX2"></path><linearGradient id="gradientb3vIrAApRv" gradientUnits="userSpaceOnUse" x1="604.84" y1="-152.57" x2="631.78" y2="488.49"><stop style="stop-color: #cccccc;stop-opacity: 1" offset="0%"></stop><stop style="stop-color: #fefefe;stop-opacity: 1" offset="100%"></stop></linearGradient><path d="M336.49 186.49L566.49 436.49L479.49 486.49L319.49 316.49L336.49 186.49Z" id="eDkv1KNWU"></path><linearGradient id="gradientd3XElU6e5G" gradientUnits="userSpaceOnUse" x1="463.79" y1="79.04" x2="480.59" y2="486.49"><stop style="stop-color: #b8b8b8;stop-opacity: 1" offset="0%"></stop><stop style="stop-color: #fefefe;stop-opacity: 1" offset="100%"></stop></linearGradient><path d="M359.49 287.49L519.49 457.49L182.49 457.49L22.49 287.49L359.49 287.49Z" id="e18ULC73ri"></path><linearGradient id="gradientaYorF153k" gradientUnits="userSpaceOnUse" x1="312.85" y1="226.6" x2="346.65" y2="457.49"><stop style="stop-color: #b8b8b8;stop-opacity: 1" offset="0%"></stop><stop style="stop-color: #fefefe;stop-opacity: 1" offset="100%"></stop></linearGradient><path d="M410.73 29.87L411 29.88L411.26 29.89L411.53 29.92L411.79 29.94L412.06 29.97L412.32 30.01L412.58 30.05L412.84 30.1L413.09 30.15L413.35 30.21L413.6 30.27L413.85 30.34L414.1 30.41L414.35 30.48L414.6 30.56L414.85 30.65L415.09 30.74L415.33 30.84L415.57 30.94L415.81 31.04L416.04 31.15L416.28 31.27L416.51 31.39L416.74 31.52L416.97 31.65L417.19 31.78L417.42 31.92L417.64 32.07L417.86 32.22L418.08 32.37L418.29 32.53L418.5 32.7L418.71 32.87L418.92 33.05L419.13 33.23L419.33 33.41L419.53 33.6L419.73 33.8L419.91 33.98L420.09 34.17L420.27 34.37L420.44 34.56L420.61 34.77L420.77 34.97L420.93 35.18L421.09 35.39L421.24 35.6L421.39 35.82L421.53 36.04L421.67 36.26L421.81 36.49L421.94 36.71L422.06 36.94L422.19 37.18L422.3 37.41L422.42 37.65L422.52 37.89L422.63 38.13L422.73 38.38L422.82 38.63L422.91 38.88L423 39.13L423.08 39.38L423.15 39.63L423.22 39.89L423.29 40.15L423.35 40.41L423.4 40.67L423.45 40.93L423.5 41.19L423.54 41.46L423.57 41.72L423.6 41.99L423.63 42.26L423.65 42.53L423.66 42.8L423.67 43.07L423.67 43.34L423.5 172.44L423.5 172.46L423.5 172.49L423.51 172.51L423.51 172.54L423.52 172.56L423.52 172.59L423.53 172.61L423.54 172.63L423.54 172.66L423.55 172.68L423.56 172.71L423.57 172.73L423.58 172.76L423.59 172.78L423.61 172.81L423.62 172.83L423.63 172.86L423.64 172.88L423.65 172.91L423.68 172.96L423.69 172.98L423.7 173.01L423.71 173.03L423.73 173.05L423.74 173.08L423.75 173.1L423.76 173.13L423.77 173.15L423.78 173.18L423.79 173.2L423.8 173.23L423.8 173.25L423.81 173.28L423.82 173.3L423.82 173.33L423.82 173.35L423.83 173.38L423.83 173.4L423.83 173.42L429.87 212.11L429.93 212.5L429.97 212.88L430.01 213.27L430.04 213.65L430.06 214.04L430.06 214.43L430.06 214.81L430.05 215.2L430.03 215.59L430 215.97L429.96 216.36L429.91 216.74L429.86 217.13L429.79 217.51L429.71 217.89L429.63 218.27L429.54 218.65L429.43 219.02L429.32 219.4L429.2 219.77L429.07 220.14L428.94 220.51L428.79 220.87L428.64 221.23L428.48 221.59L428.31 221.94L428.13 222.29L427.94 222.64L427.74 222.98L427.54 223.32L427.33 223.66L427.11 223.99L426.88 224.31L426.65 224.63L426.41 224.95L426.16 225.26L425.9 225.56L425.63 225.86L425.36 226.16L425.08 226.44L424.79 226.73L424.5 227L424.2 227.27L423.9 227.53L423.59 227.78L423.28 228.03L422.96 228.27L422.63 228.5L422.31 228.73L421.97 228.95L421.64 229.16L421.3 229.36L420.95 229.56L420.6 229.75L420.25 229.94L419.89 230.12L419.53 230.29L419.16 230.45L418.8 230.61L418.42 230.76L418.05 230.9L417.67 231.03L417.29 231.16L416.9 231.28L416.51 231.39L416.12 231.5L415.73 231.6L415.33 231.69L414.94 231.78L414.53 231.85L414.13 231.92L413.73 231.99L413.32 232.04L412.91 232.09L412.5 232.13L412.08 232.17L411.67 232.19L411.25 232.21L410.83 232.22L410.42 232.23L409.91 232.24L409.41 232.23L408.92 232.22L408.43 232.2L407.95 232.17L407.47 232.13L406.99 232.08L406.53 232.02L406.06 231.95L405.6 231.87L405.15 231.79L404.7 231.69L404.26 231.58L403.83 231.47L403.39 231.34L402.97 231.21L402.55 231.07L402.13 230.92L401.72 230.76L401.32 230.59L400.92 230.42L400.53 230.23L400.14 230.04L399.76 229.83L399.38 229.62L399.01 229.4L398.65 229.18L398.29 228.94L397.94 228.7L397.59 228.45L397.25 228.19L396.92 227.92L396.59 227.64L396.26 227.36L395.95 227.07L395.64 226.77L395.33 226.46L395.03 226.15L394.74 225.83L394.45 225.5L394.22 225.21L394 224.92L393.78 224.63L393.56 224.33L393.36 224.03L393.16 223.73L392.97 223.43L392.78 223.12L392.6 222.8L392.43 222.49L392.26 222.17L392.1 221.85L391.95 221.53L391.81 221.2L391.67 220.88L391.54 220.55L391.41 220.21L391.3 219.88L391.19 219.54L391.08 219.2L390.99 218.86L390.9 218.52L390.82 218.18L390.75 217.83L390.69 217.48L390.63 217.14L390.58 216.79L390.54 216.44L390.51 216.08L390.48 215.73L390.46 215.38L390.46 215.02L390.45 214.67L390.46 214.31L390.48 213.95L390.5 213.6L390.53 213.24L390.57 212.88L390.62 212.52L390.68 212.16L396.66 175.27L396.66 175.25L396.66 175.22L396.66 175.19L396.65 175.17L396.65 175.14L396.65 175.11L396.64 175.09L396.64 175.06L396.64 175.03L396.63 175L396.63 174.97L396.62 174.94L396.62 174.91L396.61 174.88L396.61 174.85L396.6 174.82L396.59 174.79L396.59 174.76L396.56 174.63L396.56 174.6L396.55 174.57L396.55 174.54L396.54 174.51L396.54 174.48L396.53 174.45L396.53 174.42L396.52 174.39L396.52 174.36L396.51 174.33L396.51 174.31L396.5 174.28L396.5 174.25L396.5 174.22L396.5 174.2L396.5 174.17L396.5 174.14L396.49 174.12L396.67 43.38L396.67 43.1L396.68 42.84L396.69 42.57L396.71 42.3L396.73 42.03L396.76 41.77L396.79 41.51L396.83 41.24L396.87 40.98L396.92 40.73L396.97 40.47L397.03 40.21L397.09 39.96L397.16 39.71L397.23 39.46L397.3 39.21L397.39 38.96L397.47 38.71L397.56 38.47L397.66 38.23L397.76 37.99L397.87 37.75L397.98 37.51L398.1 37.28L398.22 37.05L398.34 36.82L398.48 36.59L398.61 36.36L398.75 36.14L398.9 35.92L399.05 35.7L399.21 35.48L399.37 35.26L399.53 35.05L399.7 34.84L399.88 34.63L400.06 34.42L400.24 34.22L400.44 34.02L400.63 33.82L400.82 33.64L401.01 33.46L401.2 33.28L401.4 33.11L401.6 32.94L401.81 32.78L402.02 32.62L402.23 32.46L402.44 32.31L402.66 32.16L402.88 32.01L403.1 31.87L403.33 31.74L403.55 31.61L403.79 31.48L404.02 31.36L404.26 31.24L404.49 31.13L404.73 31.02L404.98 30.91L405.22 30.81L405.47 30.72L405.72 30.63L405.97 30.54L406.22 30.46L406.48 30.38L406.73 30.31L406.99 30.25L407.25 30.19L407.51 30.13L407.78 30.08L408.04 30.03L408.3 29.99L408.57 29.96L408.84 29.93L409.11 29.9L409.37 29.88L409.64 29.87L409.92 29.86L410.19 29.86L410.46 29.86L410.73 29.87ZM398.58 213.47L398.53 213.79L398.48 214.12L398.46 214.44L398.44 214.76L398.44 215.08L398.46 215.4L398.48 215.71L398.52 216.03L398.58 216.34L398.64 216.65L398.72 216.96L398.81 217.27L398.91 217.57L399.03 217.87L399.16 218.17L399.29 218.46L399.44 218.75L399.6 219.03L399.77 219.31L399.95 219.59L400.14 219.86L400.34 220.12L400.55 220.38L400.84 220.7L401.14 221.01L401.45 221.3L401.78 221.58L402.12 221.85L402.48 222.1L402.85 222.35L403.23 222.58L403.62 222.8L404.02 223L404.43 223.19L404.86 223.37L405.29 223.53L405.73 223.68L406.19 223.81L406.65 223.93L407.12 224.03L407.6 224.12L408.08 224.19L408.58 224.25L409.08 224.29L409.58 224.32L410.1 224.32L410.57 224.32L411.03 224.3L411.49 224.26L411.94 224.22L412.39 224.16L412.82 224.08L413.26 224L413.68 223.9L414.1 223.79L414.52 223.66L414.92 223.53L415.32 223.38L415.71 223.21L416.09 223.03L416.46 222.84L416.83 222.64L417.19 222.43L417.54 222.2L417.88 221.95L418.21 221.7L418.54 221.43L418.85 221.15L419.16 220.85L419.41 220.59L419.65 220.32L419.89 220.04L420.11 219.75L420.32 219.46L420.52 219.16L420.71 218.85L420.88 218.53L421.04 218.21L421.19 217.89L421.32 217.56L421.44 217.23L421.55 216.89L421.63 216.55L421.7 216.21L421.76 215.86L421.8 215.52L421.82 215.17L421.82 214.83L421.8 214.48L421.77 214.13L421.71 213.79L421.64 213.44L416.08 178.21L404.23 178.23L398.58 213.47ZM410.23 38.24L410.12 38.24L410.01 38.25L409.91 38.25L409.81 38.26L409.71 38.26L409.61 38.27L409.51 38.28L409.41 38.29L409.31 38.3L409.21 38.31L409.1 38.33L409 38.35L408.9 38.37L408.8 38.39L408.7 38.41L408.6 38.44L408.49 38.46L408.39 38.49L408.29 38.52L408.19 38.56L408.09 38.59L407.99 38.63L407.89 38.67L407.8 38.71L407.7 38.75L407.6 38.79L407.51 38.84L407.41 38.88L407.32 38.93L407.23 38.98L407.14 39.04L407.05 39.09L406.96 39.15L406.87 39.21L406.78 39.27L406.7 39.33L406.61 39.39L406.53 39.46L406.45 39.53L406.37 39.6L406.3 39.67L406.22 39.74L406.15 39.82L406.08 39.89L406 39.97L405.94 40.05L405.87 40.13L405.8 40.21L405.74 40.29L405.67 40.37L405.61 40.46L405.55 40.54L405.49 40.63L405.43 40.72L405.38 40.8L405.32 40.89L405.27 40.98L405.22 41.08L405.18 41.17L405.13 41.26L405.09 41.36L405.05 41.45L405.01 41.55L404.97 41.64L404.94 41.74L404.9 41.84L404.87 41.94L404.85 42.04L404.82 42.14L404.8 42.25L404.78 42.35L404.76 42.45L404.74 42.56L404.73 42.66L404.72 42.77L404.72 42.87L404.71 42.98L404.71 43.09L404.71 43.2L404.72 43.31L404.72 43.42L404.73 43.53L404.57 170.32L415.11 170.31L415.27 43.52L415.26 43.41L415.25 43.3L415.23 43.19L415.22 43.08L415.2 42.97L415.19 42.86L415.17 42.75L415.15 42.65L415.13 42.54L415.11 42.44L415.09 42.33L415.07 42.23L415.05 42.13L415.02 42.03L414.99 41.93L414.97 41.83L414.94 41.73L414.91 41.63L414.88 41.53L414.84 41.44L414.81 41.34L414.77 41.25L414.73 41.16L414.7 41.06L414.65 40.97L414.61 40.88L414.57 40.79L414.52 40.7L414.47 40.62L414.42 40.53L414.37 40.45L414.31 40.36L414.26 40.28L414.2 40.2L414.14 40.12L414.07 40.04L414.01 39.96L413.94 39.88L413.87 39.81L413.8 39.73L413.72 39.66L413.65 39.59L413.57 39.51L413.49 39.45L413.41 39.38L413.33 39.31L413.25 39.25L413.17 39.18L413.08 39.12L413 39.06L412.91 39L412.82 38.95L412.74 38.89L412.65 38.84L412.56 38.79L412.46 38.74L412.37 38.69L412.28 38.64L412.18 38.6L412.09 38.56L411.99 38.52L411.9 38.48L411.8 38.45L411.7 38.42L411.6 38.39L411.5 38.36L411.4 38.34L411.3 38.31L411.19 38.29L411.09 38.28L410.98 38.26L410.88 38.25L410.77 38.24L410.67 38.23L410.56 38.23L410.45 38.23L410.34 38.23L410.23 38.24Z" id="a8BLds3LBd"></path><path d="M412.25 237.41L412.77 237.46L413.28 237.52L413.78 237.61L414.28 237.71L414.77 237.83L415.25 237.96L415.72 238.12L416.19 238.29L416.64 238.48L417.09 238.69L417.53 238.92L417.96 239.17L418.38 239.43L418.79 239.71L419.18 240.01L419.57 240.32L419.95 240.66L420.31 241.01L420.66 241.37L421 241.76L421.32 242.16L421.63 242.58L422.19 243.4L422.69 244.25L423.14 245.13L423.53 246.05L423.86 247L424.15 247.97L424.39 248.96L424.58 249.97L424.72 250.99L424.83 252.03L424.89 253.07L424.92 254.12L424.91 255.17L424.87 256.22L424.79 257.26L424.69 258.3L424.56 259.33L424.4 260.34L424.22 261.33L424.02 262.3L423.81 263.25L423.57 264.17L423.32 265.06L423.06 265.91L422.69 266.96L422.27 268.02L421.82 269.1L421.33 270.17L420.81 271.25L420.27 272.32L419.71 273.37L419.14 274.42L418.56 275.44L417.98 276.43L417.41 277.4L416.84 278.32L416.28 279.21L415.75 280.05L415.23 280.84L414.75 281.58L414.3 282.25L413.9 282.86L413.53 283.4L413.22 283.86L412.97 284.25L412.77 284.54L412.64 284.75L412.58 284.86L411.93 285.51L411.74 285.69L411.54 285.85L411.33 286L411.11 286.13L410.88 286.24L410.65 286.34L410.41 286.43L410.16 286.49L409.91 286.55L409.66 286.59L409.41 286.61L409.15 286.62L408.9 286.61L408.64 286.59L408.39 286.55L408.14 286.5L407.9 286.43L407.66 286.35L407.43 286.25L407.2 286.13L406.98 286L406.77 285.86L406.57 285.7L406.38 285.52L406.22 285.36L406.08 285.19L405.94 285.02L405.81 284.85L405.69 284.67L405.58 284.49L405.48 284.31L405.39 284.13L405.31 283.95L405.24 283.77L405.18 283.59L405.12 283.4L405.07 283.22L405.04 283.04L405.01 282.85L404.98 282.67L404.97 282.49L404.96 282.31L404.97 282.14L404.98 281.96L404.99 281.79L405.02 281.62L405.05 281.45L405.08 281.28L405.2 280.55L405.26 279.79L405.27 279L405.23 278.19L405.15 277.36L405.03 276.5L404.86 275.64L404.67 274.76L404.44 273.88L404.18 272.99L403.9 272.1L403.59 271.21L403.27 270.33L402.93 269.45L402.58 268.59L402.22 267.74L401.85 266.91L401.49 266.1L401.12 265.31L400.76 264.56L400.4 263.83L400.05 263.14L399.72 262.49L399.41 261.88L399.37 261.79L399.32 261.71L399.28 261.62L399.23 261.54L399.19 261.45L399.14 261.36L399.09 261.28L399 261.1L398.95 261.01L398.91 260.92L398.86 260.84L398.81 260.75L398.77 260.67L398.73 260.58L398.69 260.5L398.65 260.42L398.61 260.34L398.57 260.26L398.54 260.19L398.51 260.12L398.48 260.05L398.45 259.98L398.43 259.92L398.01 259.02L397.62 258.13L397.28 257.24L396.98 256.36L396.72 255.48L396.51 254.61L396.34 253.75L396.2 252.89L396.11 252.05L396.06 251.22L396.05 250.41L396.08 249.6L396.16 248.82L396.27 248.04L396.43 247.29L396.62 246.55L396.85 245.84L397.13 245.14L397.44 244.47L397.8 243.82L398.19 243.2L398.62 242.6L399.1 242.02L399.61 241.48L399.94 241.16L400.29 240.85L400.65 240.56L401.02 240.28L401.41 240.01L401.81 239.76L402.22 239.52L402.65 239.29L403.09 239.08L403.54 238.88L404.01 238.69L404.49 238.51L404.98 238.35L405.48 238.2L406 238.06L406.53 237.94L407.07 237.82L407.62 237.72L408.19 237.64L408.77 237.56L409.36 237.5L409.96 237.45L410.57 237.41L411.2 237.38L411.73 237.39L412.25 237.41ZM409.92 245.58L409.33 245.63L408.76 245.71L408.21 245.81L407.7 245.93L407.21 246.08L406.76 246.25L406.34 246.44L405.96 246.66L405.61 246.91L405.31 247.18L404.94 247.63L404.64 248.16L404.42 248.77L404.27 249.45L404.2 250.18L404.2 250.98L404.28 251.81L404.43 252.69L404.65 253.61L404.96 254.55L405.33 255.51L405.78 256.48L405.86 256.64L405.93 256.79L406 256.95L406.14 257.24L406.21 257.4L406.28 257.55L406.36 257.71L406.44 257.88L406.54 258.05L406.64 258.24L406.76 258.44L407.18 259.27L407.62 260.15L408.08 261.06L408.55 262L409.02 262.99L409.5 264L409.97 265.04L410.44 266.12L410.89 267.22L411.33 268.34L411.74 269.49L412.12 270.66L412.41 270.05L412.7 269.43L413 268.8L413.29 268.18L413.58 267.55L413.86 266.93L414.13 266.31L414.39 265.69L414.63 265.08L414.85 264.48L415.06 263.89L415.23 263.32L415.68 261.75L416.05 260.18L416.34 258.61L416.54 257.06L416.65 255.55L416.68 254.09L416.61 252.7L416.46 251.4L416.22 250.19L415.89 249.1L415.46 248.14L414.94 247.33L414.69 247.02L414.43 246.74L414.17 246.5L413.89 246.28L413.61 246.1L413.31 245.94L412.99 245.81L412.67 245.71L412.32 245.63L411.96 245.58L411.58 245.55L411.19 245.54L410.54 245.55L409.92 245.58Z" id="cdbvOxQEB"></path><path d="M409.34 140.69C409.34 139.65 410.2 138.79 411.24 138.79C412.28 138.79 413.14 139.66 413.14 140.69C413.14 141.83 413.16 150.96 413.16 152.1C413.16 152.44 412.99 152.96 412.64 153.3C412.3 153.65 411.78 153.82 411.43 153.82C410.22 153.99 409.36 153.13 409.36 152.09C409.35 149.81 409.34 141.83 409.34 140.69Z" id="f3EuB95kxU"></path><path d="M410.19 77.17C411.17 77.17 411.98 77.97 411.97 78.95C411.96 81.39 411.88 100.9 411.87 103.34C411.87 103.66 411.7 104.15 411.38 104.48C411.05 104.8 410.56 104.97 410.24 104.97C409.26 104.97 408.45 104.16 408.46 103.19C408.45 101.57 408.43 93.5 408.4 78.97C408.94 77.77 409.54 77.17 410.19 77.17Z" id="c1OcuxVWGy"></path><path d="M411.23 111.6C412.19 111.59 412.99 112.39 412.98 113.34C412.97 115.16 412.9 129.73 412.89 131.55C412.88 131.87 412.72 132.35 412.4 132.67C412.08 132.99 411.6 133.16 411.28 133.16C410.32 133.16 409.53 132.37 409.53 131.41C409.53 130.21 409.51 124.19 409.47 113.36C410.01 112.19 410.59 111.6 411.23 111.6Z" id="c1P0zUcJIK"></path></defs><g><g><g><use xlink:href="#a1XePy8GG6" opacity="1" fill="#202020" fill-opacity="1"></use><g><use xlink:href="#a1XePy8GG6" opacity="1" fill-opacity="0" stroke="#000000" stroke-width="1" stroke-opacity="0"></use></g></g><g><use xlink:href="#e2N7n9AuRj" opacity="1" fill="#fafafa" fill-opacity="1"></use><g><use xlink:href="#e2N7n9AuRj" opacity="1" fill-opacity="0" stroke="#000000" stroke-width="1" stroke-opacity="0"></use></g></g><g><use xlink:href="#aTm3Fg6x" opacity="1" fill="#f2f2f2" fill-opacity="1"></use><g><use xlink:href="#aTm3Fg6x" opacity="1" fill-opacity="0" stroke="#000000" stroke-width="1" stroke-opacity="0"></use></g></g><g><use xlink:href="#g9GVM7QvMJ" opacity="1" fill="#ffbb41" fill-opacity="1"></use><g><use xlink:href="#g9GVM7QvMJ" opacity="1" fill-opacity="0" stroke="#000000" stroke-width="1" stroke-opacity="0"></use></g></g><g><use xlink:href="#b1nkbtFAAR" opacity="1" fill="#000000" fill-opacity="0"></use><g><use xlink:href="#b1nkbtFAAR" opacity="1" fill-opacity="0" stroke="#ffbb41" stroke-width="2" stroke-opacity="1"></use></g></g><g><use xlink:href="#a4LJnVVWoQ" opacity="1" fill="#000000" fill-opacity="0"></use><g><use xlink:href="#a4LJnVVWoQ" opacity="1" fill-opacity="0" stroke="#202020" stroke-width="1" stroke-opacity="1"></use></g></g><g><use xlink:href="#aa0tj9XX2" opacity="0.3" fill="url(#gradientb3vIrAApRv)"></use><g><use xlink:href="#aa0tj9XX2" opacity="0.3" fill-opacity="0" stroke="#000000" stroke-width="1" stroke-opacity="0"></use></g></g><g><use xlink:href="#eDkv1KNWU" opacity="0.1" fill="url(#gradientd3XElU6e5G)"></use><g><use xlink:href="#eDkv1KNWU" opacity="0.1" fill-opacity="0" stroke="#000000" stroke-width="1" stroke-opacity="0"></use></g></g><g><use xlink:href="#e18ULC73ri" opacity="0.22" fill="url(#gradientaYorF153k)"></use><g><use xlink:href="#e18ULC73ri" opacity="0.22" fill-opacity="0" stroke="#000000" stroke-width="1" stroke-opacity="0"></use></g></g><g><use xlink:href="#a8BLds3LBd" opacity="1" fill="#ffbb41" fill-opacity="1"></use><g><use xlink:href="#a8BLds3LBd" opacity="1" fill-opacity="0" stroke="#000000" stroke-width="1" stroke-opacity="0"></use></g></g><g><use xlink:href="#cdbvOxQEB" opacity="1" fill="#202020" fill-opacity="1"></use><g><use xlink:href="#cdbvOxQEB" opacity="1" fill-opacity="0" stroke="#000000" stroke-width="1" stroke-opacity="0"></use></g></g><g><use xlink:href="#f3EuB95kxU" opacity="1" fill="#202020" fill-opacity="1"></use><g><use xlink:href="#f3EuB95kxU" opacity="1" fill-opacity="0" stroke="#000000" stroke-width="1" stroke-opacity="0"></use></g></g><g><use xlink:href="#c1OcuxVWGy" opacity="1" fill="#202020" fill-opacity="1"></use><g><use xlink:href="#c1OcuxVWGy" opacity="1" fill-opacity="0" stroke="#000000" stroke-width="1" stroke-opacity="0"></use></g></g><g><use xlink:href="#c1P0zUcJIK" opacity="1" fill="#202020" fill-opacity="1"></use><g><use xlink:href="#c1P0zUcJIK" opacity="1" fill-opacity="0" stroke="#000000" stroke-width="1" stroke-opacity="0"></use></g></g></g></g></svg>