<?xml version="1.0" encoding="UTF-8"?>
<svg width="181px" height="116px" viewBox="0 0 181 116" version="1.1" xmlns="http://www.w3.org/2000/svg" xmlns:xlink="http://www.w3.org/1999/xlink">
    <!-- Generator: Sketch 45.2 (43514) - http://www.bohemiancoding.com/sketch -->
    <title>Logo-black</title>
    <desc>Created with Sketch.</desc>
    <defs>
        <path d="M0.519833694,58.8011408 C0.183392085,59.7330963 4.61776085e-12,60.7382279 4.61852778e-12,61.7861931 L4.55457894e-12,61.7861931 L4.54747351e-12,123.457381 C4.55293833e-12,125.946502 1.03461575,128.193976 2.69726353,129.793219 C4.29650635,131.455867 6.54398035,132.490483 9.0331018,132.490483 L9.0331018,132.490483 L47.8527201,132.490483 C52.7073031,132.490483 56.6427201,128.555066 56.6427201,123.700483 L56.6427201,123.700483 L56.6427201,122.249435 L56.6427201,122.249435 C56.6427201,117.394852 52.7073031,113.459435 47.8527201,113.459435 L47.8527201,113.459435 L19.0310475,113.459435 L19.0310475,65.394385 L56.604385,65.394385 C61.458968,65.394385 65.394385,61.458968 65.394385,56.604385 L65.394385,56.604385 L65.394385,55.1533375 L65.394385,55.1533375 C65.394385,54.4433363 65.3102058,53.7529961 65.1512832,53.0917531 L65.1512832,8.79 C65.1512832,3.93541705 61.2158662,-2.4439627e-12 56.3612832,-2.58104649e-12 L56.3612832,-2.82783516e-12 L54.9102357,-2.8684401e-12 L54.9102357,-3.11040083e-12 C50.0556528,-3.10950904e-12 46.1202357,3.93541705 46.1202357,8.79 L46.1202357,8.79 L46.1202357,46.3633375 L9.0331018,46.3633375 C4.17851885,46.3633375 0.243101803,50.2987546 0.243101803,55.1533375 L0.243101803,55.1533375 L0.243101803,56.604385 C0.243101803,57.3629128 0.339181116,58.0990001 0.519833694,58.8011408 Z" id="path-1"></path>
        <path d="M65.8310389,75.5292196 L65.8310389,15.6224501 C65.8310389,14.7765829 65.71156,13.9586214 65.4885579,13.1845215 C65.7879505,12.2996647 65.9502811,11.3516249 65.9502811,10.3656707 L65.9502811,10.3656707 L65.9502811,8.91462317 C65.9502811,4.06004022 62.014864,0.124623172 57.1602811,0.124623172 L57.1602811,0.124623172 L18.3406627,0.124623172 C13.4860798,0.124623172 9.55066273,4.06004022 9.55066273,8.91462317 L9.55066273,8.91462317 L9.55066273,10.3656707 L9.55066273,10.3656707 C9.55066273,15.2202536 13.4860798,19.1556707 18.3406627,19.1556707 L18.3406627,19.1556707 L46.7999914,19.1556707 L46.7999914,67.4152848 L13.2065477,67.4152848 C12.4054792,67.1749858 11.5563313,67.0458745 10.6770279,67.0458745 L10.6770279,67.0458745 L9.22598039,67.0458745 C4.37139744,67.0458745 0.435980388,70.9812915 0.435980388,75.8358745 L0.435980388,75.8358745 L0.435980388,123.407158 C0.435980388,128.261741 4.37139744,132.197158 9.22598039,132.197158 L9.22598039,132.197158 L10.6770279,132.197158 L10.6770279,132.197158 C15.5316108,132.197158 19.4670279,128.261741 19.4670279,123.407158 L19.4670279,123.407158 L19.4670279,86.4463323 L57.0666514,86.4463323 C61.9212344,86.4463323 65.8566514,82.5109152 65.8566514,77.6563323 L65.8566514,77.6563323 L65.8566514,76.2052848 C65.8566514,75.9778081 65.8480105,75.7523496 65.8310389,75.5292196 Z" id="path-3"></path>
    </defs>
    <g id="Page-1" stroke="none" stroke-width="1" fill="none" fill-rule="evenodd">
        <g id="About-Us" transform="translate(-711.000000, -1491.000000)">
            <g id="Logo-black" transform="translate(801.500000, 1549.500000) rotate(-315.000000) translate(-801.500000, -1549.500000) translate(735.000000, 1483.000000)">
                <g id="Bitmap" transform="translate(-0.000000, 0.000000)">
                    <mask id="mask-2" fill="white">
                        <use xlink:href="#path-1"></use>
                    </mask>
                    <use id="Mask" fill="#000000" fill-rule="nonzero" xlink:href="#path-1"></use>
                </g>
                <g id="Bitmap" transform="translate(66.609894, -0.000000)">
                    <mask id="mask-4" fill="white">
                        <use xlink:href="#path-3"></use>
                    </mask>
                    <use id="Mask" fill="#000000" xlink:href="#path-3"></use>
                </g>
            </g>
        </g>
    </g>
</svg>