<?xml version="1.0" encoding="UTF-8"?>
<svg width="16px" height="13px" viewBox="0 0 16 13" version="1.1" xmlns="http://www.w3.org/2000/svg" xmlns:xlink="http://www.w3.org/1999/xlink">
    <!-- Generator: Sketch 45.1 (43504) - http://www.bohemiancoding.com/sketch -->
    <title>Email-icon</title>
    <desc>Created with Sketch.</desc>
    <defs></defs>
    <g id="Page-1" stroke="none" stroke-width="1" fill="none" fill-rule="evenodd">
        <g id="Home-Page" transform="translate(-1428.000000, -9.000000)" fill-rule="nonzero" fill="#000000">
            <g id="Group-15">
                <g id="Group-21" transform="translate(1124.000000, 7.000000)">
                    <g id="Email-icon" transform="translate(304.000000, 2.000000)">
                        <path d="M16,2.15294444 C15.9912727,0.965611111 15.0181818,0 13.8181818,0 L2.18181818,0 C0.981818182,0 0.00872727273,0.961277778 0,2.15294444 C0,2.16161111 0,2.16666667 0,2.17533333 L0,10.8333333 C0,12.0293333 0.977454545,13 2.18181818,13 L13.8181818,13 C15.0225455,13 16,12.0293333 16,10.8333333 L16,2.17533333 C16,2.16666667 16,2.15727778 16,2.15294444 Z M2.18181818,1.44444444 L13.8181818,1.44444444 C14.1047273,1.44444444 14.3498182,1.60694444 14.4683636,1.846 L8,6.34183333 L1.53163636,1.846 C1.64945455,1.60694444 1.89527273,1.44444444 2.18181818,1.44444444 Z M13.8181818,11.5555556 L2.18181818,11.5555556 C1.78181818,11.5555556 1.45454545,11.2305556 1.45454545,10.8333333 L1.45454545,3.55261111 L7.58181818,7.81372222 C7.70909091,7.89966667 7.85454545,7.94444444 8,7.94444444 C8.14545455,7.94444444 8.29090909,7.89894444 8.41818182,7.81372222 L14.5454545,3.55261111 L14.5454545,10.8333333 C14.5454545,11.2305556 14.2181818,11.5555556 13.8181818,11.5555556 Z" id="Shape"></path>
                    </g>
                </g>
            </g>
        </g>
    </g>
</svg>