<?xml version="1.0" encoding="UTF-8"?>
<svg width="28px" height="22px" viewBox="0 0 28 22" version="1.1" xmlns="http://www.w3.org/2000/svg" xmlns:xlink="http://www.w3.org/1999/xlink">
    <!-- Generator: Sketch 45.2 (43514) - http://www.bohemiancoding.com/sketch -->
    <title>envelope</title>
    <desc>Created with Sketch.</desc>
    <defs></defs>
    <g id="Page-1" stroke="none" stroke-width="1" fill="none" fill-rule="evenodd">
        <g id="Referral" transform="translate(-206.000000, -1046.000000)" fill-rule="nonzero" fill="#FFFFFF">
            <g id="Group-3" transform="translate(45.000000, 925.000000)">
                <g id="Group-2">
                    <g id="Group-4">
                        <g id="Group-6" transform="translate(120.000000, 99.000000)">
                            <g id="envelope" transform="translate(41.000000, 22.000000)">
                                <path d="M27.9990001,7.09467751 L27.9990001,19.5001136 C27.9990001,20.8750511 26.8740804,22 25.4991786,22 L2.50082137,22 C1.12591958,22 0.000999928577,20.8750511 0.000999928577,19.5001136 L0.000999928577,7.09467751 C0.469966431,7.61065406 1.00092851,8.06363347 1.57888722,8.45361574 C4.17270195,10.2195355 6.79751446,11.9844553 9.34433255,13.8443707 C10.6572388,14.8133267 12.2821227,16.0002727 13.9850011,16.0002727 L14.0159989,16.0002727 C15.7188772,16.0002727 17.3437612,14.8123267 18.6566674,13.8443707 C21.2034855,12.0004545 23.828298,10.2195355 26.4371116,8.45361574 C26.9990715,8.06263352 27.5310335,7.60965411 28,7.09467751 L27.9990001,7.09467751 Z M27.9990001,2.50088632 C27.9990001,4.25080678 26.7020927,5.82873506 25.3271909,6.78169174 C22.889365,8.46861506 20.4365402,10.1565383 18.0147132,11.8594609 C16.9987858,12.562429 15.2809085,14.0003636 14.0149989,14.0003636 L13.9840011,14.0003636 C12.7180916,14.0003636 11.0002143,12.5634289 9.98428684,11.8594609 C7.56245982,10.1565383 5.10963503,8.46861506 2.68780801,6.78169174 C1.57888722,6.03172583 0,4.2658061 0,2.84387073 C0,1.31294032 0.827940861,0 2.49982144,0 L25.4981787,0 C26.8570816,0 27.9980001,1.12494887 27.9980001,2.49988637 L27.9990001,2.50088632 Z" id="Shape"></path>
                            </g>
                        </g>
                    </g>
                </g>
            </g>
        </g>
    </g>
</svg>