<svg width="592" height="365" xmlns="http://www.w3.org/2000/svg">
 <!-- Generator: Sketch 45.1 (43504) - http://www.bohemiancoding.com/sketch -->
 <title>Logo-transparent-style</title>
 <desc>Created with Sketch.</desc>

 <g>
  <title>background</title>
  <rect fill="none" id="canvas_background" height="367" width="594" y="-1" x="-1"/>
 </g>
 <g>
  <title>Layer 1</title>
  <g transform="rotate(45.0681266784668 295.9999999999999,182.50000000000003) " fill-rule="evenodd" fill="none" id="Page-1">
   <g fill="#FFBB41" fill-rule="nonzero" id="Home-Page">
    <g id="Logo-transparent-style">
     <rect rx="8.79" height="207" width="39" y="-27" x="254" id="_Rectangle_"/>
     <rect rx="8.79" height="251" width="39" y="435.5" x="105.5" transform="rotate(180 105.5,266.5) translate(-19.5,-294.5) " id="_Rectangle_2"/>
     <rect rx="8.79" height="179" width="39" y="685.5" x="245.5" transform="rotate(90 175.49999999999997,373.50000000000006) translate(-89.5,-401.5) " id="_Rectangle_3"/>
     <rect rx="8.79" height="207" width="39" y="245.5" x="273.5" transform="rotate(90 189.5,160.50000000000003) translate(-103.5,-188.5) " id="_Rectangle_4"/>
     <rect rx="8.79" height="207" width="39" y="503.5" x="531.5" transform="rotate(180 318.5,289.5) translate(-232.5,-317.5) " id="_Rectangle_5"/>
     <rect rx="8.79" height="251" width="39" y="-27" x="467" id="_Rectangle_6"/>
     <rect rx="8.79" height="179" width="39" y="-78.5" x="727.5" transform="rotate(-90 416.5,-8.50000000000003) translate(-330.5,-19.5) " id="_Rectangle_7"/>
     <rect rx="8.79" height="207" width="39" y="335.5" x="699.5" transform="rotate(-90 402.5,205.49999999999997) translate(-316.5,-233.5) " id="_Rectangle_8"/>
    </g>
   </g>
  </g>
 </g>
</svg>