<?xml version="1.0" encoding="UTF-8"?>
<svg width="21px" height="20px" viewBox="0 0 21 20" version="1.1" xmlns="http://www.w3.org/2000/svg" xmlns:xlink="http://www.w3.org/1999/xlink">
    <!-- Generator: Sketch 45.1 (43504) - http://www.bohemiancoding.com/sketch -->
    <title>Time-icon</title>
    <desc>Created with Sketch.</desc>
    <defs></defs>
    <g id="Page-1" stroke="none" stroke-width="1" fill="none" fill-rule="evenodd">
        <g id="Home-Page" transform="translate(-444.000000, -5969.000000)" fill="#D9D9D9">
            <g id="Group-15" transform="translate(227.000000, 5405.000000)">
                <g id="Article#1">
                    <g id="time" transform="translate(217.022293, 563.553512)">
                        <path d="M10.0776547,0.553211869 C4.50228553,0.553211869 0,4.93530945 0,10.3618448 C0,15.7883801 4.50228553,20.1704777 10.0776547,20.1704777 C15.6530238,20.1704777 20.1553093,15.7883801 20.1553093,10.3618448 C20.1553093,4.93530945 15.6530238,0.553211869 10.0776547,0.553211869 L10.0776547,0.553211869 Z M14.5332844,14.698532 L9.16786639,11.7468601 C9.07455477,11.6787446 8.98124315,11.6106291 8.88793154,11.5198084 C8.56134088,11.201936 8.39804555,10.7705378 8.39804555,10.3618448 L8.39804555,3.0053701 L10.0776547,3.0053701 L11.6172963,9.54445871 L15.7230075,13.5405684 L14.5332844,14.698532 Z" id="Time-icon"></path>
                    </g>
                </g>
            </g>
        </g>
    </g>
</svg>