<?xml version="1.0" encoding="UTF-8"?>
<svg width="22px" height="22px" viewBox="0 0 22 22" version="1.1" xmlns="http://www.w3.org/2000/svg" xmlns:xlink="http://www.w3.org/1999/xlink">
    <!-- Generator: Sketch 45.1 (43504) - http://www.bohemiancoding.com/sketch -->
    <title>twitter-square-icon</title>
    <desc>Created with Sketch.</desc>
    <defs></defs>
    <g id="Page-1" stroke="none" stroke-width="1" fill="none" fill-rule="evenodd">
        <g id="Home-Page" transform="translate(-1236.000000, -7337.000000)" fill-rule="nonzero" fill="#FFBB41">
            <g id="footer" transform="translate(0.000000, 7020.000000)">
                <g id="twitter-square-icon" transform="translate(1236.000000, 317.000000)">
                    <path d="M18.3333333,6.90341667 C17.7888333,7.14725 17.2159167,7.30491667 16.5999167,7.39016667 C17.2305833,7.018 17.7026667,6.41666667 17.9318333,5.7145 C17.34425,6.05825 16.6998333,6.31583333 16.0123333,6.44508333 C15.4678333,5.8575 14.6804167,5.5 13.8205833,5.5 C12.1586667,5.5 10.813,6.84658333 10.813,8.50758333 C10.813,8.73675 10.8276667,8.98058333 10.8845,9.19508333 C8.37833333,9.06583333 6.15816667,7.87783333 4.66858333,6.0445 C4.411,6.48816667 4.25333333,7.018 4.25333333,7.5625 C4.25333333,8.60841667 4.74008333,9.52508333 5.55683333,10.0686667 C5.05541667,10.054 4.58333333,9.911 4.12408333,9.6965 L4.12408333,9.72491667 C4.12408333,11.1860833 5.22683333,12.4034167 6.60183333,12.6756667 C6.34425,12.7471667 6.1435,12.79025 5.87125,12.79025 C5.68516667,12.79025 5.49908333,12.7618333 5.313,12.7325 C5.69983333,13.9214167 6.80258333,14.795 8.12075,14.8234167 C7.0895,15.6255 5.80066667,16.11225 4.38258333,16.11225 C4.13875,16.11225 3.89583333,16.0975833 3.66666667,16.0691667 C4.99858333,16.9143333 6.57433333,17.41575 8.27841667,17.41575 C13.8068333,17.41575 16.84375,12.8324167 16.84375,8.85041667 C16.84375,8.72116667 16.84375,8.59283333 16.8290833,8.46358333 C17.4166667,8.04833333 17.9318333,7.5185 18.3333333,6.9025 L18.3333333,6.90341667 Z M22,4.125 L22,17.875 C22,20.152 20.152,22 17.875,22 L4.125,22 C1.848,22 0,20.152 0,17.875 L0,4.125 C0,1.848 1.848,0 4.125,0 L17.875,0 C20.152,0 22,1.848 22,4.125 Z" id="Shape"></path>
                </g>
            </g>
        </g>
    </g>
</svg>