<?xml version="1.0" encoding="UTF-8"?>
<svg width="28px" height="23px" viewBox="0 0 28 23" version="1.1" xmlns="http://www.w3.org/2000/svg" xmlns:xlink="http://www.w3.org/1999/xlink">
    <!-- Generator: Sketch 45.2 (43514) - http://www.bohemiancoding.com/sketch -->
    <title>twitter</title>
    <desc>Created with Sketch.</desc>
    <defs></defs>
    <g id="Page-1" stroke="none" stroke-width="1" fill="none" fill-rule="evenodd">
        <g id="Referral" transform="translate(-208.000000, -947.000000)" fill-rule="nonzero" fill="#FFFFFF">
            <g id="Group-3" transform="translate(45.000000, 925.000000)">
                <g id="Group-2">
                    <g id="Group-4">
                        <g id="Group-7" transform="translate(120.000000, 0.000000)">
                            <g id="twitter" transform="translate(43.000000, 22.000000)">
                                <path d="M28,2.72008769 C26.9720677,3.1844929 25.8619009,3.49409638 24.7027432,3.63209107 C25.8890208,2.91292643 26.7971005,1.77447021 27.2283947,0.420176147 C26.1182278,1.08361217 24.8882085,1.57013192 23.5812035,1.83019884 C22.5314004,0.702357602 21.0389302,0 19.3872399,0 C16.2159595,0 13.6456914,2.59890004 13.6456914,5.80550748 C13.6456914,6.25841314 13.6946822,6.70070382 13.7935387,7.12707204 C9.02043367,6.88381216 4.78797725,4.57240106 1.95613323,1.05707473 C1.46360057,1.91423407 1.18015372,2.91469559 1.18015372,3.97619322 C1.18015372,5.98861582 2.1914641,7.76839352 3.73379991,8.80866121 C2.79335125,8.78123918 1.90801725,8.51586477 1.13116291,8.08418907 C1.13116291,8.1063036 1.13116291,8.13372563 1.13116291,8.15584016 C1.13116291,10.9696935 3.1109167,13.3200262 5.74067362,13.8498904 C5.25951384,13.9825776 4.75123414,14.0542287 4.22633256,14.0542287 C3.85452728,14.0542287 3.49934387,14.0153071 3.14416047,13.9489635 C3.87727301,16.2541825 5.99875023,17.9348871 8.50777979,17.9853083 C6.53939886,19.5439406 4.06798725,20.4736356 1.37261763,20.4736356 C0.908079735,20.4736356 0.454039868,20.4462136 0,20.390485 C2.54839718,22.0437675 5.56570643,23 8.80872336,23 C19.3723677,23 25.1515341,14.1488789 25.1515341,6.47513557 C25.1515341,6.22126072 25.1462851,5.97180878 25.1349122,5.72324141 C26.2555771,4.91031114 27.2292695,3.88773509 28,2.72097227 L28,2.72008769 Z" id="Shape"></path>
                            </g>
                        </g>
                    </g>
                </g>
            </g>
        </g>
    </g>
</svg>