<svg xmlns="http://www.w3.org/2000/svg" xmlns:xlink="http://www.w3.org/1999/xlink" viewBox="0 0 460 389" version="1.1" style="&#10;    width: auto;&#10;    height: auto;&#10;">
    <!-- Generator: Sketch 46.2 (44496) - http://www.bohemiancoding.com/sketch -->
    <title>Graphics-Design-Graphics</title>
    <desc>Created with Sketch.</desc>

    <g id="UX/UI" stroke="none" stroke-width="1" fill="none" fill-rule="evenodd" style="&#10;    /* width: auto; */&#10;    /* height: auto; */&#10;">
        <g id="[Services]-UX-UI-Designs-Copy-5" transform="translate(0, 0)">
            <g id="3rd-section" transform="translate(0.000000, 0)">
                <g id="Graphics-Design-Graphics" transform="translate(0, 0)">
                    <g id="MBP-graphics" transform="translate(0.000000, 0.000000)">
                        <g id="Group">

                            <path d="M396.438481,217.736006 C396.438481,225.903328 389.815286,232.52591 381.643949,232.52591 L70.4304087,232.52591 C62.2590718,232.52591 55.635877,225.905969 55.635877,217.736006 L55.635877,14.9445326 C55.635877,6.77721023 62.2590718,0.154628719 70.4304087,0.154628719 L381.643949,0.154628719 C389.815286,0.154628719 396.438481,6.77456965 396.438481,14.9445326 L396.438481,217.736006 Z" id="Shape" stroke="#EAEAEA" fill="#323232" fill-rule="nonzero"/>
                            <rect id="Rectangle-path" fill="#FFFFFF" fill-rule="nonzero" x="75" y="17" width="303.816275" height="198.043705"/>
                            <g id="Group-18" transform="translate(156.000000, 70.000000)" fill-rule="nonzero" fill="#FFBB41" opacity=".2">
                                <path d="M0.00544791078,42.1608322 C0.00544791078,41.9987998 0.0671908996,41.8367674 0.190676877,41.7143429 L36.3406066,5.87516008 C36.356857,5.85429842 36.3746081,5.83424938 36.39386,5.81516303 L42.0742149,0.183636727 C42.3211869,-0.0612122424 42.7279642,-0.0612122424 42.9749362,0.183636727 L71.1079474,28.074815 L99.2336948,0.190838168 C99.4806668,-0.0540108022 99.8874441,-0.0540108022 100.134416,0.190838168 L105.814771,5.82236447 C106.061743,6.06721344 106.061743,6.4704941 105.814771,6.71534307 L71.5583081,40.6845369 C71.3040722,40.9293859 70.9045588,40.9293859 70.6503229,40.6845369 L64.969968,35.0530106 C64.9426217,35.0258994 64.9183033,34.9968458 64.897013,34.9662799 L42.5282075,12.789758 L12.9024687,42.1608322 L36.2340546,65.2918584 C36.4810265,65.5367073 36.4810265,65.939988 36.2340546,66.184837 L30.5536996,71.8163633 C30.3067277,72.0612122 29.8999503,72.0612122 29.6529784,71.8163633 L0.190676877,42.6073215 C0.0635589591,42.484897 -9.02056208e-16,42.3228646 6.9388939e-18,42.1608322 Z" id="Combined-Shape"/>
                                <path d="M100.481601,72.2066413 L130.1032,42.8391678 L106.772014,19.7081416 C106.525046,19.4632927 106.525046,19.060012 106.772014,18.815163 L112.452272,13.1836367 C112.699239,12.9387878 113.10601,12.9387878 113.352977,13.1836367 L142.814774,42.3926785 C142.938258,42.515103 143,42.6753351 143,42.8364673 C143,43.0012002 142.938258,43.1632326 142.814774,43.2856571 L103.768451,81.9969994 L100.92469,84.8163633 C100.677722,85.0612122 100.270952,85.0612122 100.023984,84.8163633 L71.8974189,56.9192721 L43.7661893,84.8091618 C43.5192215,85.0540108 43.1124512,85.0540108 42.8654835,84.8091618 L37.1852258,79.1776355 C36.9382581,78.9327866 36.9382581,78.5295059 37.1852258,78.2846569 L71.4483657,44.3154631 C71.6953334,44.0706141 72.1021037,44.0706141 72.3490715,44.3154631 L75.1892003,47.1312262 L100.481601,72.2066413 Z" id="Combined-Shape"/>
                            </g>
                            <path d="M459.130309,380.617712 C459.130309,384.119124 456.290287,386.95511 452.789795,386.95511 L6.4044311,386.95511 C2.90129736,386.95511 0.0639175407,384.119124 0.0639175407,380.617712 L0.0639175407,371.462811 C0.0639175407,367.964039 11.4609907,355.973153 14.9641244,355.973153 L447.572081,355.973153 C451.072573,355.973153 459.132951,367.964039 459.132951,371.462811 L459.132951,380.617712 L459.130309,380.617712 Z" id="Shape" fill="#4A4A4A" fill-rule="nonzero"/>
                            <g transform="translate(0.000000, 229.565036)" id="Shape" fill-rule="nonzero">
                                <path d="M9.75697765,146.978257 C6.07155414,146.978257 3.15227602,145.871853 1.94757844,144.018163 C1.23691255,142.924962 1.19200058,141.657482 1.81548441,140.257974 L61.9420461,4.99148224 C62.7108334,3.25925996 66.9906801,1.33163456 71.9019362,1.33163456 L383.886906,1.33163456 C388.811372,1.33163456 393.151981,3.27246287 393.968323,5.01524748 L457.328546,140.281739 C457.989016,141.697091 457.973165,142.967212 457.275709,144.060413 C456.113281,145.887696 453.236273,146.978257 449.577268,146.978257 L9.75697765,146.978257 L9.75697765,146.978257 Z" fill="#FFFFFF"/>
                                <path d="M383.886906,2.65456651 C388.750608,2.65456651 392.30658,4.58483249 392.771551,5.57505102 L456.131774,140.841542 C456.821305,142.314988 456.324632,143.0966 456.163477,143.350096 C455.452811,144.467063 453.352516,145.657965 449.57991,145.657965 L9.75697765,145.657965 C5.94738575,145.657965 3.7968949,144.440657 3.05452644,143.299925 C2.88544608,143.041148 2.37292123,142.254254 3.02282387,140.794012 L63.1493856,5.52752053 C63.5985053,4.51353676 67.2654357,2.65456651 71.8992943,2.65456651 L383.886906,2.65456651 L383.886906,2.65456651 Z M383.886906,0.0139837718 L71.9019362,0.0139837718 C66.8215997,0.0139837718 61.8310872,1.98913966 60.7347067,4.45808452 L0.608144955,139.724576 C-1.48158264,144.424813 2.58955544,148.301189 9.75697765,148.301189 L449.577268,148.301189 C456.739407,148.301189 460.723363,144.424813 458.522676,139.724576 L395.162453,4.45808452 C394.007951,1.98913966 388.967243,0.0139837718 383.886906,0.0139837718 L383.886906,0.0139837718 Z" fill="#EAEAEA"/>
                            </g>
                            <path d="M354.857921,240.392206 L356.308314,244.514155 C356.44305,244.889118 357.158999,245.195426 357.917219,245.195426 L372.820068,245.195426 C373.575646,245.195426 374.069678,244.889118 373.913807,244.514155 L372.273199,240.392206 C372.127895,240.025165 371.406662,239.729419 370.661652,239.729419 L355.975437,239.729419 C355.227785,239.73206 354.728469,240.027805 354.857921,240.392206 Z M94.2126183,246.476108 L79.2542901,246.476108 C78.4987122,246.476108 77.7642694,246.785057 77.6216078,247.1653 L74.607222,254.994628 C74.451351,255.393356 74.961234,255.712867 75.7379469,255.712867 L91.0582128,255.712867 C91.8349257,255.712867 92.5746523,255.393356 92.7093882,254.994628 L95.3565526,247.1653 C95.4833629,246.785057 94.9681962,246.476108 94.2126183,246.476108 Z M114.835139,246.476108 L99.8820942,246.476108 C99.1185907,246.476108 98.4052829,246.785057 98.2837564,247.1653 L95.6947133,254.994628 C95.5652612,255.393356 96.0909954,255.712867 96.8677084,255.712867 L112.190616,255.712867 C112.967329,255.712867 113.688562,255.393356 113.79688,254.994628 L116.018701,247.1653 C116.124376,246.785057 115.596,246.476108 114.835139,246.476108 Z M135.455017,246.476108 L120.501973,246.476108 C119.746395,246.476108 119.043655,246.785057 118.940621,247.1653 L116.782205,254.994628 C116.673888,255.393356 117.215473,255.712867 117.992186,255.712867 L133.30981,255.712867 C134.091807,255.712867 134.794547,255.393356 134.884371,254.994628 L136.678208,247.1653 C136.76539,246.785057 136.223804,246.476108 135.455017,246.476108 Z M156.080179,246.476108 L141.129777,246.476108 C140.366273,246.476108 139.684668,246.785057 139.60277,247.1653 L137.869696,254.994628 C137.779872,255.393356 138.345235,255.712867 139.119306,255.712867 L154.439572,255.712867 C155.221568,255.712867 155.908457,255.393356 155.974504,254.994628 L157.342998,247.1653 C157.406403,246.785057 156.843683,246.476108 156.080179,246.476108 Z M176.707984,246.476108 L161.754939,246.476108 C160.996719,246.476108 160.333607,246.785057 160.270202,247.1653 L158.962471,254.994628 C158.899066,255.393356 159.469712,255.712867 160.251709,255.712867 L175.569333,255.712867 C176.343404,255.712867 177.014442,255.393356 177.059354,254.994628 L177.999863,247.1653 C178.044775,246.785057 177.466203,246.476108 176.707984,246.476108 Z M197.330504,246.476108 L182.377459,246.476108 C181.61924,246.476108 180.974621,246.785057 180.929709,247.1653 L180.047321,254.994628 C180.002409,255.393356 180.59419,255.712867 181.373545,255.712867 L196.691169,255.712867 C197.473165,255.712867 198.117784,255.393356 198.146845,254.994628 L198.662012,247.1653 C198.685789,246.785057 198.088724,246.476108 197.330504,246.476108 Z M217.953024,246.476108 L203.002622,246.476108 C202.244402,246.476108 201.610351,246.785057 201.594499,247.1653 L201.137454,254.994628 C201.113677,255.393356 201.726593,255.712867 202.503306,255.712867 L217.818288,255.712867 C218.602927,255.712867 219.234336,255.393356 219.236978,254.994628 L219.32416,247.1653 C219.329444,246.785057 218.716528,246.476108 217.953024,246.476108 Z M238.580828,246.476108 L223.63571,246.476108 C222.872206,246.476108 222.254006,246.785057 222.254006,247.1653 L222.224945,254.994628 C222.224945,255.393356 222.851071,255.712867 223.63571,255.712867 L238.953334,255.712867 C239.730046,255.712867 240.345605,255.393356 240.327111,254.994628 L239.988951,247.1653 C239.967816,246.785057 239.34169,246.476108 238.580828,246.476108 Z M259.208632,246.476108 L244.250304,246.476108 C243.494726,246.476108 242.897661,246.785057 242.913513,247.1653 L243.315078,254.994628 C243.333572,255.393356 243.975549,255.712867 244.754903,255.712867 L260.075169,255.712867 C260.84924,255.712867 261.448947,255.393356 261.409319,254.994628 L260.643174,247.1653 C260.606187,246.785057 259.96421,246.476108 259.208632,246.476108 Z M279.828511,246.476108 L264.872825,246.476108 C264.12253,246.476108 263.533391,246.785057 263.575661,247.1653 L264.399928,254.994628 C264.442198,255.393356 265.107952,255.712867 265.879381,255.712867 L281.202289,255.712867 C281.984286,255.712867 282.557574,255.393356 282.49681,254.994628 L281.305322,247.1653 C281.244559,246.785057 280.589373,246.476108 279.828511,246.476108 Z M300.453673,246.476108 L285.503271,246.476108 C284.739767,246.476108 284.177047,246.785057 284.23781,247.1653 L285.484777,254.994628 C285.553466,255.393356 286.227146,255.712867 287.009143,255.712867 L302.329408,255.712867 C303.108763,255.712867 303.668842,255.393356 303.586944,254.994628 L301.975396,247.1653 C301.890856,246.785057 301.217177,246.476108 300.453673,246.476108 Z M321.076194,246.476108 L306.128433,246.476108 C305.367571,246.476108 304.81806,246.785057 304.899958,247.1653 L306.574911,254.994628 C306.659451,255.393356 307.362191,255.712867 308.136262,255.712867 L323.461812,255.712867 C324.235883,255.712867 324.782752,255.393356 324.677077,254.994628 L322.637545,247.1653 C322.53187,246.785057 321.837055,246.476108 321.076194,246.476108 Z M341.703998,246.476108 L326.750953,246.476108 C325.990092,246.476108 325.456432,246.785057 325.559465,247.1653 L327.662402,254.994628 C327.770719,255.393356 328.486669,255.712867 329.268665,255.712867 L344.586289,255.712867 C345.363002,255.712867 345.891379,255.393356 345.76721,254.994628 L343.29441,247.1653 C343.172883,246.785057 342.462217,246.476108 341.703998,246.476108 Z M123.101583,257.072767 L107.731122,257.072767 C106.949125,257.072767 106.219966,257.397559 106.098439,257.796287 L103.607146,266.074513 C103.477694,266.494366 104.027205,266.835001 104.830337,266.835001 L120.586513,266.835001 C121.389645,266.835001 122.118804,266.494366 122.227121,266.074513 L124.335341,257.796287 C124.433091,257.397559 123.88358,257.072767 123.101583,257.072767 Z M101.903133,257.072767 L75.2174964,257.072767 C74.4434254,257.072767 73.6852056,257.397559 73.5266928,257.796287 L70.3458685,266.074513 C70.1820719,266.494366 70.7025224,266.835001 71.5030122,266.835001 L98.8544026,266.835001 C99.6522506,266.835001 100.405187,266.494366 100.534639,266.074513 L103.094621,257.796287 C103.210864,257.397559 102.677204,257.072767 101.903133,257.072767 Z M144.297392,257.072767 L128.932214,257.072767 C128.147575,257.072767 127.436909,257.397559 127.336518,257.796287 L125.294344,266.074513 C125.191311,266.494366 125.756673,266.835001 126.559805,266.835001 L142.315981,266.835001 C143.116471,266.835001 143.837704,266.494366 143.916961,266.074513 L145.570778,257.796287 C145.650035,257.397559 145.08203,257.072767 144.297392,257.072767 Z M165.503768,257.072767 L150.133306,257.072767 C149.353951,257.072767 148.653853,257.397559 148.577238,257.796287 L146.989468,266.074513 C146.904928,266.494366 147.491425,266.835001 148.289273,266.835001 L164.048091,266.835001 C164.843298,266.835001 165.543396,266.494366 165.606801,266.074513 L166.808857,257.796287 C166.86962,257.397559 166.277839,257.072767 165.503768,257.072767 Z M186.702218,257.072767 L171.33704,257.072767 C170.552402,257.072767 169.873438,257.397559 169.820601,257.796287 L168.679308,266.074513 C168.623829,266.494366 169.223536,266.835001 170.026667,266.835001 L185.782844,266.835001 C186.585975,266.835001 187.264939,266.494366 187.301925,266.074513 L188.054861,257.796287 C188.089205,257.397559 187.486857,257.072767 186.702218,257.072767 Z M207.90331,257.072767 L192.532849,257.072767 C191.753494,257.072767 191.098307,257.397559 191.063963,257.796287 L190.374432,266.074513 C190.337446,266.494366 190.958288,266.835001 191.750852,266.835001 L207.50967,266.835001 C208.31016,266.835001 208.973272,266.494366 208.991765,266.074513 L209.290298,257.796287 C209.306149,257.397559 208.685307,257.072767 207.90331,257.072767 Z M229.107044,257.072767 L213.741866,257.072767 C212.954586,257.072767 212.317893,257.397559 212.304683,257.796287 L212.064272,266.074513 C212.053705,266.494366 212.687756,266.835001 213.490888,266.835001 L229.244422,266.835001 C230.050196,266.835001 230.692173,266.494366 230.684247,266.074513 L230.536302,257.796287 C230.528376,257.397559 229.889041,257.072767 229.107044,257.072767 Z M250.308137,257.072767 L234.940317,257.072767 C234.153036,257.072767 233.534836,257.397559 233.548046,257.796287 L233.756754,266.074513 C233.769964,266.494366 234.419866,266.835001 235.228282,266.835001 L250.979174,266.835001 C251.782306,266.835001 252.40579,266.494366 252.374087,266.074513 L251.77438,257.796287 C251.742678,257.397559 251.087491,257.072767 250.308137,257.072767 Z M271.509229,257.072767 L256.141409,257.072767 C255.359412,257.072767 254.75178,257.397559 254.780841,257.796287 L255.441311,266.074513 C255.480939,266.494366 256.15726,266.835001 256.955108,266.835001 L272.708643,266.835001 C273.517058,266.835001 274.119407,266.494366 274.058644,266.074513 L273.012459,257.796287 C272.964905,257.397559 272.293867,257.072767 271.509229,257.072767 Z M292.712963,257.072767 L277.342501,257.072767 C276.557863,257.072767 275.968723,257.397559 276.021561,257.796287 L277.136435,266.074513 C277.191914,266.494366 277.889371,266.835001 278.687219,266.835001 L294.45132,266.835001 C295.249168,266.835001 295.835666,266.494366 295.753768,266.074513 L294.258463,257.796287 C294.181849,257.397559 293.492318,257.072767 292.712963,257.072767 Z M313.914055,257.072767 L298.540952,257.072767 C297.761597,257.072767 297.188309,257.397559 297.270207,257.796287 L298.831558,266.074513 C298.910815,266.494366 299.624123,266.835001 300.427254,266.835001 L316.183431,266.835001 C316.986562,266.835001 317.554567,266.494366 317.451533,266.074513 L315.501825,257.796287 C315.404076,257.397559 314.69341,257.072767 313.914055,257.072767 Z M335.112505,257.072767 L319.744686,257.072767 C318.962689,257.072767 318.405252,257.397559 318.503002,257.796287 L320.521399,266.074513 C320.62179,266.494366 321.353591,266.835001 322.156723,266.835001 L337.912899,266.835001 C338.716031,266.835001 339.2629,266.494366 339.141373,266.074513 L336.737262,257.796287 C336.621019,257.397559 335.894502,257.072767 335.112505,257.072767 Z M356.31624,257.072767 L340.943136,257.072767 C340.166423,257.072767 339.624838,257.397559 339.743722,257.796287 L342.211239,266.074513 C342.338049,266.494366 343.090985,266.835001 343.891475,266.835001 L359.645009,266.835001 C360.450783,266.835001 360.973875,266.494366 360.831214,266.074513 L357.977982,257.796287 C357.837963,257.397559 357.098236,257.072767 356.31624,257.072767 Z M111.160283,280.140898 L94.8783722,280.140898 C94.0514636,280.140898 93.266825,280.505298 93.1241635,280.954197 L90.1863922,290.25697 C90.035805,290.729634 90.6064512,291.109878 91.4544949,291.109878 L108.169674,291.109878 C109.020359,291.109878 109.80764,290.726994 109.937092,290.25697 L112.436311,280.954197 C112.557838,280.505298 111.992475,280.140898 111.160283,280.140898 Z M88.706939,280.140898 L66.4306014,280.140898 C65.6063346,280.140898 64.7926354,280.505298 64.6182712,280.954197 L61.0438067,290.25697 C60.861517,290.729634 61.4004606,291.109878 62.2485043,291.109878 L85.1166232,291.109878 C85.9567413,291.109878 86.7704405,290.726994 86.9236696,290.25697 L89.9354135,280.954197 C90.0833588,280.505298 89.5312058,280.140898 88.706939,280.140898 Z M133.61891,280.140898 L117.334358,280.140898 C116.510091,280.140898 115.741304,280.505298 115.627703,280.954197 L113.194531,290.25697 C113.073004,290.729634 113.659502,291.109878 114.507545,291.109878 L131.225366,291.109878 C132.070768,291.109878 132.842197,290.726994 132.945231,290.25697 L134.937209,280.954197 C135.034958,280.505298 134.445819,280.140898 133.61891,280.140898 Z M156.077538,280.140898 L139.795627,280.140898 C138.966077,280.140898 138.223708,280.505298 138.1286,280.954197 L136.205311,290.25697 C136.107562,290.729634 136.70991,291.109878 137.563238,291.109878 L154.278417,291.109878 C155.129102,291.109878 155.874113,290.726994 155.956011,290.25697 L157.440748,280.954197 C157.512079,280.505298 156.904446,280.140898 156.077538,280.140898 Z M106.138068,293.597307 L103.41693,303.483649 C103.276911,303.98536 103.876618,304.39465 104.743155,304.39465 L121.98671,304.39465 C122.866456,304.39465 123.666946,303.988 123.783188,303.483649 L126.044638,293.597307 C126.155597,293.116721 125.55589,292.731196 124.697279,292.731196 L107.918695,292.731196 C107.06801,292.731196 106.272803,293.116721 106.138068,293.597307 Z M129.325854,293.597307 L127.138377,303.483649 C127.027418,303.98536 127.645618,304.39465 128.525364,304.39465 L152.109433,304.39465 C152.981253,304.39465 153.755324,303.988 153.834581,303.483649 L155.417067,293.597307 C155.493682,293.116721 154.864914,292.731196 154.016871,292.731196 L131.064212,292.731196 C130.208242,292.731196 129.434171,293.116721 129.325854,293.597307 Z M82.9449973,293.597307 L79.6849166,303.483649 C79.52112,303.98536 80.0917662,304.39465 80.9662287,304.39465 L98.2097837,304.39465 C99.0842462,304.39465 99.9111549,303.988 100.048533,303.483649 L102.851568,293.597307 C102.99423,293.116721 102.410374,292.731196 101.56233,292.731196 L84.7758206,292.731196 C83.9224932,292.731196 83.106152,293.116721 82.9449973,293.597307 Z M326.814358,292.731196 L310.033132,292.731196 C309.182447,292.731196 308.566889,293.119362 308.664638,293.597307 L310.640765,303.483649 C310.738515,303.98536 311.525795,304.39465 312.405541,304.39465 L329.646454,304.39465 C330.518275,304.39465 331.131191,303.988 331.009665,303.483649 L328.565925,293.597307 C328.454966,293.119362 327.662402,292.731196 326.814358,292.731196 Z M303.671484,292.731196 L280.718825,292.731196 C279.868139,292.731196 279.226162,293.119362 279.289567,293.597307 L280.578805,303.483649 C280.644852,303.98536 281.405714,304.39465 282.28546,304.39465 L305.866887,304.39465 C306.741349,304.39465 307.372759,303.988 307.277651,303.483649 L305.378139,293.597307 C305.288315,293.119362 304.522169,292.731196 303.671484,292.731196 Z M158.703567,293.597307 L157.197695,303.483649 C157.123722,303.98536 157.765699,304.39465 158.640162,304.39465 L275.752089,304.39465 C276.62391,304.39465 277.28438,303.988 277.223617,303.483649 L276.008352,293.597307 C275.947588,293.119362 275.207862,292.731196 274.359818,292.731196 L160.375877,292.731196 C159.52255,292.731196 158.77754,293.116721 158.703567,293.597307 Z M59.7598527,293.597307 L55.9581865,303.483649 C55.7653292,303.98536 56.3201241,304.39465 57.1919447,304.39465 L74.430216,304.39465 C75.3073204,304.39465 76.1580059,303.988 76.3297282,303.483649 L79.6690653,293.597307 C79.8328619,293.116721 79.2674995,292.731196 78.414172,292.731196 L61.6329461,292.731196 C60.7849024,292.731196 59.9395006,293.116721 59.7598527,293.597307 Z M178.536165,280.140898 L162.246329,280.140898 C161.41942,280.140898 160.698187,280.505298 160.63214,280.954197 L159.21345,290.25697 C159.139477,290.729634 159.768245,291.109878 160.613647,291.109878 L177.331467,291.109878 C178.184795,291.109878 178.911312,290.726994 178.958866,290.25697 L179.944287,280.954197 C179.989199,280.505298 179.363074,280.140898 178.536165,280.140898 Z M200.984225,280.140898 L184.702314,280.140898 C183.878048,280.140898 183.175307,280.505298 183.130395,280.954197 L182.221588,290.25697 C182.171393,290.729634 182.821295,291.109878 183.666697,291.109878 L200.384518,291.109878 C201.237845,291.109878 201.943227,290.726994 201.967004,290.25697 L202.442543,280.954197 C202.46632,280.505298 201.819059,280.140898 200.984225,280.140898 Z M223.442852,280.140898 L207.166226,280.140898 C206.339317,280.140898 205.649786,280.505298 205.628651,280.954197 L205.227085,290.25697 C205.20595,290.729634 205.876988,291.109878 206.730315,291.109878 L223.44021,291.109878 C224.285612,291.109878 224.977785,290.726994 224.975143,290.25697 L224.946082,280.954197 C224.94344,280.505298 224.275045,280.140898 223.442852,280.140898 Z M245.906763,280.140898 L229.624853,280.140898 C228.795302,280.140898 228.129548,280.505298 228.137474,280.954197 L228.237866,290.25697 C228.240507,290.729634 228.93268,291.109878 229.78865,291.109878 L246.501187,291.109878 C247.346588,291.109878 248.012342,290.726994 247.985923,290.25697 L247.452264,280.954197 C247.423203,280.505298 246.73103,280.140898 245.906763,280.140898 Z M268.362749,280.140898 L252.080838,280.140898 C251.25393,280.140898 250.604027,280.505298 250.633088,280.954197 L251.24072,290.25697 C251.275065,290.729634 251.985731,291.109878 252.839058,291.109878 L269.554237,291.109878 C270.399639,291.109878 271.041616,290.726994 270.988778,290.25697 L269.945235,280.954197 C269.900323,280.505298 269.192299,280.140898 268.362749,280.140898 Z M290.818734,280.140898 L274.534182,280.140898 C273.709915,280.140898 273.086432,280.505298 273.141911,280.954197 L274.256785,290.25697 C274.314906,290.729634 275.046707,291.109878 275.889467,291.109878 L292.60993,291.109878 C293.460615,291.109878 294.078815,290.726994 293.996917,290.25697 L292.448775,280.954197 C292.366877,280.505298 291.645643,280.140898 290.818734,280.140898 Z M313.27472,280.140898 L296.995451,280.140898 C296.171185,280.140898 295.563552,280.505298 295.637525,280.954197 L297.262281,290.25697 C297.34418,290.729634 298.094474,291.109878 298.947801,291.109878 L315.660338,291.109878 C316.511024,291.109878 317.116014,290.726994 317.010339,290.25697 L314.957598,280.954197 C314.857207,280.505298 314.101629,280.140898 313.27472,280.140898 Z M335.733347,280.140898 L319.451437,280.140898 C318.624528,280.140898 318.035389,280.505298 318.143706,280.954197 L320.27042,290.25697 C320.378737,290.729634 321.152808,291.109878 322.000852,291.109878 L338.716031,291.109878 C339.569358,291.109878 340.14793,290.726994 340.018478,290.25697 L337.455854,280.954197 C337.329043,280.505298 336.562898,280.140898 335.733347,280.140898 Z M386.637104,280.140898 L341.904781,280.140898 C341.080514,280.140898 340.515151,280.505298 340.641962,280.954197 L343.273275,290.25697 C343.413294,290.729634 344.208501,291.109878 345.053902,291.109878 L390.975072,291.109878 C391.817832,291.109878 392.354134,290.726994 392.169202,290.25697 L388.45736,280.954197 C388.277712,280.505298 387.464012,280.140898 386.637104,280.140898 Z M124.567827,268.274119 L108.756171,268.274119 C107.958323,268.274119 107.205387,268.617395 107.081219,269.042528 L104.537088,277.809263 C104.410278,278.255522 104.970356,278.617281 105.797265,278.617281 L122.018412,278.617281 C122.840037,278.617281 123.598257,278.255522 123.703932,277.809263 L125.843855,269.042528 C125.944247,268.617395 125.376242,268.274119 124.567827,268.274119 Z M102.759102,268.274119 L70.9508592,268.274119 C70.1477275,268.274119 69.3657308,268.617395 69.1992923,269.042528 L65.8335363,277.809263 C65.6591722,278.255522 66.1875484,278.617281 67.0091732,278.617281 L99.6443249,278.617281 C100.46595,278.617281 101.240021,278.255522 101.372115,277.809263 L103.984935,269.042528 C104.111745,268.617395 103.564876,268.274119 102.759102,268.274119 Z M146.381836,268.274119 L130.572822,268.274119 C129.767048,268.274119 129.037889,268.617395 128.937498,269.042528 L126.868905,277.809263 C126.765872,278.255522 127.349727,278.617281 128.171352,278.617281 L144.392499,278.617281 C145.216766,278.617281 145.951209,278.255522 146.035749,277.809263 L147.69485,269.042528 C147.771465,268.617395 147.182325,268.274119 146.381836,268.274119 Z M168.193202,268.274119 L152.378905,268.274119 C151.578415,268.274119 150.867749,268.617395 150.791134,269.042528 L149.19808,277.809263 C149.121466,278.255522 149.715889,278.617281 150.540156,278.617281 L166.763945,278.617281 C167.588212,278.617281 168.301519,278.255522 168.364924,277.809263 L169.548487,269.042528 C169.601325,268.617395 168.996334,268.274119 168.193202,268.274119 Z M190.004569,268.274119 L174.195555,268.274119 C173.392423,268.274119 172.700251,268.617395 172.644771,269.042528 L171.532539,277.809263 C171.47706,278.255522 172.092618,278.617281 172.916885,278.617281 L189.138032,278.617281 C189.962299,278.617281 190.662397,278.255522 190.696742,277.809263 L191.399482,269.042528 C191.431184,268.617395 190.807701,268.274119 190.004569,268.274119 Z M211.815935,268.274119 L196.009564,268.274119 C195.198506,268.274119 194.527468,268.617395 194.498408,269.042528 L193.861715,277.809263 C193.82737,278.255522 194.471989,278.617281 195.296256,278.617281 L211.514761,278.617281 C212.34167,278.617281 213.020633,278.255522 213.031201,277.809263 L213.258402,269.042528 C213.266328,268.617395 212.621709,268.274119 211.815935,268.274119 Z M233.632586,268.274119 L217.818288,268.274119 C217.009873,268.274119 216.357328,268.617395 216.352045,269.042528 L216.19089,277.809263 C216.180322,278.255522 216.843434,278.617281 217.670343,278.617281 L233.89149,278.617281 C234.715757,278.617281 235.373585,278.255522 235.360376,277.809263 L235.104113,269.042528 C235.093546,268.617395 234.430434,268.274119 233.632586,268.274119 Z M255.438669,268.274119 L239.621729,268.274119 C238.821239,268.274119 238.18983,268.617395 238.205681,269.042528 L238.520065,277.809263 C238.538558,278.255522 239.217522,278.617281 240.041788,278.617281 L256.262936,278.617281 C257.089844,278.617281 257.723896,278.255522 257.681625,277.809263 L256.955108,269.042528 C256.918122,268.617395 256.247084,268.274119 255.438669,268.274119 Z M277.247394,268.274119 L261.43838,268.274119 C260.632606,268.274119 260.014406,268.617395 260.054034,269.042528 L260.851882,277.809263 C260.89151,278.255522 261.591609,278.617281 262.418517,278.617281 L278.639665,278.617281 C279.463931,278.617281 280.082132,278.255522 280.018726,277.809263 L278.811387,269.042528 C278.753266,268.617395 278.053167,268.274119 277.247394,268.274119 Z M299.064044,268.274119 L283.252388,268.274119 C282.449257,268.274119 281.846908,268.617395 281.907671,269.042528 L283.181058,277.809263 C283.247105,278.255522 283.965696,278.617281 284.789963,278.617281 L301.01111,278.617281 C301.832735,278.617281 302.435084,278.255522 302.347902,277.809263 L300.662382,269.042528 C300.583125,268.617395 299.864534,268.274119 299.064044,268.274119 Z M320.872769,268.274119 L305.061113,268.274119 C304.255339,268.274119 303.679409,268.617395 303.758666,269.042528 L305.510233,277.809263 C305.600057,278.255522 306.339783,278.617281 307.166692,278.617281 L323.385197,278.617281 C324.212106,278.617281 324.790678,278.255522 324.679719,277.809263 L322.521302,269.042528 C322.412985,268.617395 321.6759,268.274119 320.872769,268.274119 Z M342.684135,268.274119 L326.869838,268.274119 C326.061422,268.274119 325.509269,268.617395 325.614945,269.042528 L327.847334,277.809263 C327.960935,278.255522 328.711229,278.617281 329.540779,278.617281 L345.764568,278.617281 C346.588835,278.617281 347.14363,278.255522 347.011536,277.809263 L344.372297,269.042528 C344.240203,268.617395 343.489909,268.274119 342.684135,268.274119 Z M364.495502,268.274119 L348.681204,268.274119 C347.878073,268.274119 347.331203,268.617395 347.465939,269.042528 L350.171225,277.809263 C350.311245,278.255522 351.087958,278.617281 351.909583,278.617281 L368.136014,278.617281 C368.96028,278.617281 369.499224,278.255522 369.335427,277.809263 L366.22065,269.042528 C366.070063,268.617395 365.295992,268.274119 364.495502,268.274119 Z M380.441894,264.469039 L369.097658,264.469039 C368.29981,264.469039 367.782002,264.807034 367.937873,265.224246 L372.505684,277.811904 C372.669481,278.258162 373.462045,278.619922 374.291596,278.619922 L386.037397,278.619922 C386.859022,278.619922 387.382114,278.258162 387.202466,277.811904 L382.182893,265.224246 C382.016455,264.807034 381.239742,264.469039 380.441894,264.469039 Z M377.517332,257.072767 L362.141586,257.072767 C361.364873,257.072767 360.844423,257.397559 360.987085,257.796287 L363.903721,266.074513 C364.054308,266.494366 364.820453,266.835001 365.620943,266.835001 L381.374478,266.835001 C382.177609,266.835001 382.68485,266.494366 382.521054,266.074513 L379.218703,257.796287 C379.057548,257.397559 378.294045,257.072767 377.517332,257.072767 Z M373.324667,246.476108 L347.373474,246.476108 C346.617896,246.476108 346.097445,246.785057 346.221614,247.1653 L348.752535,254.994628 C348.879346,255.393356 349.611146,255.712867 350.393143,255.712867 L376.975746,255.712867 C377.752459,255.712867 378.254416,255.393356 378.098546,254.994628 L374.973201,247.1653 C374.822614,246.785057 374.085529,246.476108 373.324667,246.476108 Z M334.560352,240.392206 L335.791469,244.514155 C335.899786,244.889118 336.610452,245.195426 337.36603,245.195426 L352.266237,245.195426 C353.02974,245.195426 353.529055,244.889118 353.402245,244.514155 L351.980913,240.392206 C351.859387,240.025165 351.154005,239.729419 350.406353,239.729419 L335.720138,239.729419 C334.969844,239.73206 334.452035,240.027805 334.560352,240.392206 Z M375.454023,298.873192 L377.081421,303.483649 C377.255786,303.98536 378.109113,304.39465 378.988859,304.39465 L396.224489,304.39465 C397.098951,304.39465 397.640537,303.988 397.442396,303.483649 L395.606289,298.873192 C395.410789,298.379403 394.55482,297.983315 393.690925,297.983315 L376.703633,297.983315 C375.839738,297.983315 375.284943,298.379403 375.454023,298.873192 Z M353.542265,298.873192 L354.931894,303.483649 C355.079839,303.98536 355.914674,304.39465 356.791778,304.39465 L374.024766,304.39465 C374.90187,304.39465 375.475158,303.988 375.300794,303.483649 L373.697172,298.873192 C373.52545,298.379403 372.68269,297.983315 371.816153,297.983315 L354.831503,297.983315 C353.97025,297.983315 353.39432,298.379403 353.542265,298.873192 Z M351.690307,292.731196 L353.045591,297.209625 C353.190895,297.695492 354.009878,298.09686 354.868489,298.09686 L371.858423,298.09686 C372.722318,298.09686 373.287681,297.695492 373.121242,297.209625 L371.559891,292.731196 C371.396094,292.253251 370.563902,291.865085 369.715858,291.865085 L352.971619,291.865085 C352.120933,291.865085 351.545003,292.253251 351.690307,292.731196 Z M331.633149,298.873192 L332.790292,303.483649 C332.914461,303.98536 333.722876,304.39465 334.602622,304.39465 L351.832968,304.39465 C352.717998,304.39465 353.307138,303.988 353.15655,303.483649 L351.785414,298.873192 C351.634827,298.379403 350.82377,297.983315 349.951949,297.983315 L332.975224,297.983315 C332.106045,297.983315 331.50898,298.379403 331.633149,298.873192 Z M314.270709,240.392206 L315.26934,244.514155 C315.361806,244.889118 316.051337,245.195426 316.809556,245.195426 L331.709763,245.195426 C332.467983,245.195426 332.993717,244.889118 332.882758,244.514155 L331.685986,240.392206 C331.582953,240.025165 330.893422,239.729419 330.143128,239.729419 L315.462197,239.729419 C314.711903,239.73206 314.180885,240.027805 314.270709,240.392206 Z M293.978424,240.392206 L294.755137,244.514155 C294.826467,244.889118 295.494863,245.195426 296.250441,245.195426 L311.158574,245.195426 C311.91151,245.195426 312.453095,244.889118 312.368555,244.514155 L311.401627,240.392206 C311.314445,240.025165 310.632839,239.729419 309.890471,239.729419 L295.201614,239.729419 C294.453962,239.73206 293.909735,240.027805 293.978424,240.392206 Z M273.683497,240.392206 L274.23565,244.514155 C274.288487,244.889118 274.946316,245.195426 275.701893,245.195426 L290.607384,245.195426 C291.365604,245.195426 291.920399,244.889118 291.849068,244.514155 L291.101416,240.392206 C291.038011,240.025165 290.382824,239.729419 289.637814,239.729419 L274.948957,239.729419 C274.196021,239.73206 273.630659,240.027805 273.683497,240.392206 Z M253.388569,240.392206 L253.721446,244.514155 C253.750507,244.889118 254.389842,245.195426 255.14542,245.195426 L270.048269,245.195426 C270.80913,245.195426 271.379777,244.889118 271.329581,244.514155 L270.80913,240.392206 C270.761577,240.025165 270.127525,239.729419 269.374589,239.729419 L254.688375,239.729419 C253.946006,239.73206 253.362151,240.027805 253.388569,240.392206 Z M231.743641,240.392206 L231.836107,244.514155 C231.841391,244.889118 232.459591,245.195426 233.223094,245.195426 L249.489154,245.195426 C250.250015,245.195426 250.839155,244.889118 250.810094,244.514155 L250.516845,240.392206 C250.485143,240.025165 249.861659,239.729419 249.116648,239.729419 L233.083075,239.729419 C232.335422,239.73206 231.738357,240.027805 231.743641,240.392206 Z M210.096071,240.392206 L209.945484,244.514155 C209.929633,244.889118 210.537265,245.195426 211.292843,245.195426 L227.566828,245.195426 C228.322406,245.195426 228.93268,244.889118 228.924755,244.514155 L228.869275,240.392206 C228.863991,240.025165 228.256359,239.729419 227.508707,239.729419 L211.469849,239.729419 C210.727481,239.73206 210.106639,240.027805 210.096071,240.392206 Z M188.451143,240.392206 L188.062787,244.514155 C188.0258,244.889118 188.61494,245.195426 189.370517,245.195426 L205.64186,245.195426 C206.402722,245.195426 207.020922,244.889118 207.042057,244.514155 L207.216421,240.392206 C207.237556,240.025165 206.648417,239.729419 205.903407,239.729419 L189.867191,239.729419 C189.119539,239.73206 188.485487,240.027805 188.451143,240.392206 Z M166.808857,240.392206 L166.177447,244.514155 C166.12461,244.889118 166.68733,245.195426 167.44555,245.195426 L183.716893,245.195426 C184.480396,245.195426 185.125015,244.889118 185.162002,244.514155 L185.582061,240.392206 C185.619047,240.025165 185.040475,239.729419 184.295465,239.729419 L168.256607,239.729419 C167.508955,239.73206 166.861694,240.027805 166.808857,240.392206 Z M145.161287,240.392206 L144.29475,244.514155 C144.218135,244.889118 144.765005,245.195426 145.520582,245.195426 L161.794567,245.195426 C162.550145,245.195426 163.210615,244.889118 163.27402,244.514155 L163.934491,240.392206 C163.98997,240.025165 163.435175,239.729419 162.687523,239.729419 L146.651307,239.729419 C145.903655,239.73206 145.240543,240.027805 145.161287,240.392206 Z M123.516358,240.392206 L122.40941,244.514155 C122.309019,244.889118 122.837395,245.195426 123.592973,245.195426 L139.864316,245.195426 C140.625178,245.195426 141.304141,244.889118 141.386039,244.514155 L142.286921,240.392206 C142.363535,240.025165 141.824591,239.729419 141.074297,239.729419 L125.038082,239.729419 C124.295713,239.73206 123.61675,240.027805 123.516358,240.392206 Z M101.868788,240.392206 L100.518787,244.514155 C100.397261,244.889118 100.909786,245.195426 101.670647,245.195426 L117.939348,245.195426 C118.70021,245.195426 119.397667,244.889118 119.498058,244.514155 L120.63935,240.392206 C120.7371,240.025165 120.219291,239.729419 119.471639,239.729419 L103.438066,239.729419 C102.693055,239.73206 101.985031,240.027805 101.868788,240.392206 Z M80.2238603,240.392206 L78.6334481,244.514155 C78.4934284,244.889118 78.9927439,245.195426 79.7403961,245.195426 L96.0196647,245.195426 C96.7726007,245.195426 97.4911922,244.889118 97.6153606,244.514155 L98.9917804,240.392206 C99.1159488,240.025165 98.6087077,239.729419 97.8663392,239.729419 L81.8248399,239.729419 C81.0851133,239.73206 80.3638799,240.027805 80.2238603,240.392206 Z" id="Tastatur_1_" fill="#202020" fill-rule="nonzero" opacity="0.3"/>
                            <path d="M306.154852,366.097147 C306.479803,368.074944 304.302893,369.69098 301.283224,369.69098 L153.079003,369.69098 C150.05405,369.69098 147.848079,368.074944 148.149254,366.097147 L156.378712,311.706424 C156.613839,310.145839 158.957187,308.891563 161.614919,308.891563 L291.867561,308.891563 C294.522651,308.891563 296.879209,310.14848 297.143397,311.706424 L306.154852,366.097147 Z" id="Shape" fill="#CCCCCC" fill-rule="nonzero" opacity="0.3"/>
                            <path d="M357.877591,232.52591 C357.877591,234.56708 355.513108,236.486784 352.59383,236.486784 L101.879356,236.486784 C98.9627197,236.486784 96.5955946,234.569721 96.5955946,232.52591 L96.5955946,232.52591 C96.5955946,230.482099 98.9627197,228.565036 101.879356,228.565036 L352.591188,228.565036 C355.513108,228.565036 357.877591,230.482099 357.877591,232.52591 L357.877591,232.52591 Z" id="Shape" fill="#EAEAEA" fill-rule="nonzero"/>
                        </g>
                    </g>
                    <g id="ellipse-box" transform="translate(9.000000, 0.000000)">
                        <circle id="Oval-3" fill="#FFBB41" cx="38.5" cy="38.5" r="38.5"/>
                        <g id="Group" transform="translate(20.000000, 18.000000)" fill-rule="nonzero" fill="#FFFFFF">
                            <path d="M37,10.8574057 C37,10.625575 36.8435518,10.3937443 36.6088795,10.2391904 L18.8520085,0.115915363 C18.6173362,-0.0386384545 18.3826638,-0.0386384545 18.1479915,0.115915363 L0.391120507,10.2391904 C0.156448203,10.3937443 0,10.625575 0,10.8574057 L0,10.8574057 L0,10.8574057 L0,31.1812328 C0,31.4130635 0.156448203,31.6448942 0.391120507,31.799448 L18.1479915,41.9227231 C18.2262156,42 18.3826638,42 18.5391121,42 C18.6955603,42 18.7737844,42 18.9302326,41.9227231 L36.6088795,31.7221711 C36.8435518,31.5676173 37,31.3357866 37,31.1039558 L37,10.8574057 L37,10.8574057 L37,10.8574057 Z M1.40803383,12.0938362 L17.756871,21.4443422 L17.756871,40.0680773 L1.40803383,30.7175713 L1.40803383,12.0938362 Z M19.1649049,40.0680773 L19.1649049,21.4443422 L25.5792812,17.8123275 C25.8921776,17.5804968 26.0486258,17.1941122 25.8139535,16.8077277 C25.5792812,16.4986201 25.1881607,16.3440662 24.7970402,16.575897 L18.3826638,20.2079117 L2.03382664,10.8574057 L18.3826638,1.50689972 L34.7315011,10.8574057 L29.0211416,14.1030359 C28.7082452,14.3348666 28.551797,14.7212511 28.7864693,15.1076357 C29.0211416,15.4167433 29.4122622,15.5712971 29.8033827,15.3394664 L35.5137421,12.0938362 L35.5137421,30.7175713 L19.1649049,40.0680773 Z" id="Shape"/>
                            <path d="M26.04,26 C25.88,26 25.8,26 25.64,25.9232112 C25.4,25.7696335 25.24,25.539267 25.24,25.3089005 L25.24,17.6300175 L7.4,7.72425829 C7.16,7.57068063 7,7.34031414 7,7.10994764 C7,6.87958115 7.16,6.64921466 7.4,6.495637 L11.72,4.11518325 C11.96,3.96160558 12.2,3.96160558 12.44,4.11518325 L30.6,14.1745201 C30.84,14.3280977 31,14.5584642 31,14.7888307 L31,22.8516579 C31,23.0820244 30.84,23.3123909 30.6,23.4659686 L26.28,25.8464223 C26.28,26 26.12,26 26.04,26 Z M9.32,7.18673647 L26.44,16.6317627 C26.68,16.7853403 26.84,17.0157068 26.84,17.2460733 L26.84,24.0802792 L29.64,22.5445026 L29.64,15.3263525 L12.2,5.65095986 L9.32,7.18673647 Z" id="Shape"/>
                        </g>
                    </g>
                    <g id="ellipse-connect" transform="translate(9.000000, 90.000000)">
                        <circle id="Oval-3" fill="#FFBB41" cx="38.5" cy="38.5" r="38.5"/>
                        <g id="Group" transform="translate(24.000000, 16.000000)" fill-rule="nonzero" fill="#FFFFFF">
                            <g transform="translate(2.000000, 0.000000)" id="Shape">
                                <path d="M24.972973,5.325 C23.4594595,5.325 22.172973,6.525 22.172973,8.1 C22.172973,8.625 22.3243243,9.075 22.5513514,9.525 L15.3621622,16.65 C15.0594595,16.95 15.0594595,17.325 15.3621622,17.625 C15.5135135,17.775 15.6648649,17.85 15.8918919,17.85 C16.0432432,17.85 16.2702703,17.775 16.4216216,17.625 L23.6108108,10.5 C23.9891892,10.725 24.5189189,10.875 24.972973,10.875 C26.4864865,10.875 27.772973,9.675 27.772973,8.1 C27.772973,6.6 26.5621622,5.325 24.972973,5.325 Z M24.972973,9.45 C24.2162162,9.45 23.6108108,8.85 23.6108108,8.1 C23.6108108,7.35 24.2162162,6.75 24.972973,6.75 C25.7297297,6.75 26.3351351,7.35 26.3351351,8.1 C26.4108108,8.85 25.7297297,9.45 24.972973,9.45 Z"/>
                                <path d="M16.6486486,3 C16.6486486,1.5 15.4378378,0.225 13.8486486,0.225 C12.3351351,0.225 11.0486486,1.425 11.0486486,3 C11.0486486,4.275 11.9567568,5.325 13.0918919,5.625 L13.0918919,15.825 C13.0918919,16.2 13.3945946,16.5 13.772973,16.5 C14.1513514,16.5 14.4540541,16.2 14.4540541,15.825 L14.4540541,5.625 C15.7405405,5.325 16.6486486,4.275 16.6486486,3 Z M12.4864865,3 C12.4864865,2.25 13.0918919,1.65 13.8486486,1.65 C14.6054054,1.65 15.2108108,2.25 15.2108108,3 C15.2108108,3.75 14.6054054,4.35 13.8486486,4.35 C13.0918919,4.35 12.4864865,3.75 12.4864865,3 Z"/>
                                <path d="M5.22162162,9.675 C5.52432432,9.225 5.75135135,8.7 5.75135135,8.1 C5.75135135,6.6 4.54054054,5.325 2.95135135,5.325 C1.43783784,5.325 0.151351351,6.525 0.151351351,8.1 C0.151351351,9.6 1.36216216,10.875 2.95135135,10.875 C3.40540541,10.875 3.78378378,10.8 4.16216216,10.575 L11.2756757,17.625 C11.427027,17.775 11.5783784,17.85 11.8054054,17.85 C11.9567568,17.85 12.1837838,17.775 12.3351351,17.625 C12.6378378,17.325 12.6378378,16.95 12.3351351,16.65 L5.22162162,9.675 Z M1.58918919,8.1 C1.58918919,7.35 2.19459459,6.75 2.95135135,6.75 C3.70810811,6.75 4.31351351,7.35 4.31351351,8.1 C4.31351351,8.85 3.70810811,9.45 2.95135135,9.45 C2.19459459,9.45 1.58918919,8.85 1.58918919,8.1 Z"/>
                            </g>
                            <path d="M27.4255302,21.0787172 C25.9186329,21.0787172 24.6377702,22.2915452 24.6377702,23.8833819 C24.6377702,24.4139942 24.78846,24.8688047 25.0144946,25.3236152 L18.2334569,32.1457726 C17.4800082,31.6151603 16.5758699,31.2361516 15.6717315,31.0845481 L15.6717315,21.4577259 C16.8772493,21.154519 17.7060428,20.0932945 17.7060428,18.8046647 C17.7060428,17.2886297 16.500525,16 14.9182829,16 C13.4113856,16 12.130523,17.212828 12.130523,18.8046647 C12.130523,20.0932945 13.0346613,21.154519 14.1648343,21.4577259 L14.1648343,31.0845481 C13.185351,31.2361516 12.2812127,31.6151603 11.6031089,32.1457726 L5.04810583,25.5510204 C5.34948528,25.0962099 5.57551987,24.5655977 5.57551987,23.9591837 C5.57551987,22.4431487 4.37000206,21.154519 2.78775994,21.154519 C1.28086267,21.154519 0,22.3673469 0,23.9591837 C0,25.4752187 1.20551781,26.7638484 2.78775994,26.7638484 C3.23982911,26.7638484 3.61655343,26.6880466 3.99327775,26.4606414 L10.6236257,33.1311953 C9.87017707,34.0408163 9.41810789,35.2536443 9.41810789,36.5422741 C9.41810789,39.574344 11.9044884,42 14.842938,42 C17.8567326,42 20.2677682,39.4985423 20.2677682,36.5422741 C20.2677682,35.2536443 19.815699,34.1166181 19.0622504,33.1311953 L25.8432881,26.3090379 C26.2200124,26.5364431 26.7474264,26.6880466 27.1994956,26.6880466 C28.7063929,26.6880466 29.9872555,25.4752187 29.9872555,23.8833819 C30.1379453,22.3673469 28.9324274,21.0787172 27.4255302,21.0787172 Z M13.6374202,18.728863 C13.6374202,17.9708455 14.2401791,17.3644315 14.9936278,17.3644315 C15.7470764,17.3644315 16.3498353,17.9708455 16.3498353,18.728863 C16.3498353,19.4868805 15.7470764,20.0932945 14.9936278,20.0932945 C14.2401791,20.0932945 13.6374202,19.4868805 13.6374202,18.728863 Z M1.50689726,23.8833819 C1.50689726,23.1253644 2.10965617,22.5189504 2.8631048,22.5189504 C3.61655343,22.5189504 4.21931234,23.1253644 4.21931234,23.8833819 C4.21931234,24.6413994 3.61655343,25.2478134 2.8631048,25.2478134 C2.10965617,25.2478134 1.50689726,24.6413994 1.50689726,23.8833819 Z M14.9936278,40.5597668 C12.7332819,40.5597668 10.9250052,38.7405248 10.9250052,36.4664723 C10.9250052,34.1924198 12.7332819,32.3731778 14.9936278,32.3731778 C17.2539737,32.3731778 19.0622504,34.1924198 19.0622504,36.4664723 C19.0622504,38.7405248 17.2539737,40.5597668 14.9936278,40.5597668 Z M27.4255302,25.2478134 C26.6720815,25.2478134 26.0693226,24.6413994 26.0693226,23.8833819 C26.0693226,23.1253644 26.6720815,22.5189504 27.4255302,22.5189504 C28.1789788,22.5189504 28.7817377,23.1253644 28.7817377,23.8833819 C28.7817377,24.6413994 28.1789788,25.2478134 27.4255302,25.2478134 Z" id="Shape"/>
                        </g>
                    </g>
                </g>
            </g>
        </g>
    </g>
</svg>