<?xml version="1.0" encoding="UTF-8"?>
<svg width="60px" height="53px" viewBox="0 0 60 53" version="1.1" xmlns="http://www.w3.org/2000/svg" xmlns:xlink="http://www.w3.org/1999/xlink">
    <!-- Generator: Sketch 45.2 (43514) - http://www.bohemiancoding.com/sketch -->
    <title>Operating System-icon</title>
    <desc>Created with Sketch.</desc>
    <defs></defs>
    <g id="Page-1" stroke="none" stroke-width="1" fill="none" fill-rule="evenodd">
        <g id="[Services]-Soft-Dev" transform="translate(-480.000000, -1074.000000)" fill-rule="nonzero">
            <g id="box1" transform="translate(224.000000, 1014.000000)">
                <g id="Operating-System-icon" transform="translate(256.000000, 60.000000)">
                    <path d="M55.6028986,30.3421597 L59.626501,30.3421597 C59.8641822,29.0868846 60,27.8146463 60,26.4915184 C60,25.2701696 59.8811594,24.0827472 59.6774327,22.9292511 L55.8236025,22.9292511 C55.4501035,21.0293753 54.73706,19.2482416 53.7863354,17.6537029 L56.4517598,14.9904841 C55.0426501,12.9209764 53.2770186,11.1398428 51.2397516,9.71493587 L48.6252588,12.3272652 C47.0293996,11.2925114 45.2467909,10.5122052 43.3453416,10.0711626 L43.3453416,6.3731899 C42.0890269,6.13570542 40.815735,6 39.4915114,6 C38.2691511,6 37.0807453,6.11874224 35.926294,6.32230037 L35.926294,10.0711626 C34.0418219,10.5122052 32.2931677,11.258585 30.7142857,12.2763757 L27.9809524,9.5453041 C25.9097308,10.9532478 24.1271222,12.7174183 22.7010352,14.7529996 L25.5362319,17.5858502 C24.6024845,19.1294994 23.9064182,20.8427803 23.515942,22.6578403 L19.373499,22.6578403 C19.1358178,23.9131154 19,25.1853537 19,26.5084816 C19,27.7298304 19.1188406,28.9172528 19.3225673,30.0707489 L23.6178054,30.0707489 C24.042236,31.800993 24.7383023,33.429458 25.6720497,34.9052544 L22.4973085,38.0095159 C23.9064182,40.0790236 25.6720497,41.8601572 27.7093168,43.2850641 L30.8501035,40.1468763 C32.2931677,41.0628879 33.9060041,41.741415 35.6037267,42.1654944 L35.6037267,46.6268101 C36.8600414,46.8642946 38.1333333,47 39.4575569,47 C40.6799172,47 41.868323,46.8812578 43.0227743,46.6776996 L43.0227743,42.3011998 C44.7714286,41.9280099 46.4182195,41.2834092 47.9122153,40.401324 L50.9681159,43.4546959 C53.0393375,42.0467522 54.8219462,40.2825817 56.2480331,38.2470004 L53.3279503,35.3293339 C54.3635611,33.8196111 55.1275362,32.1402565 55.6028986,30.3421597 Z M39.6273292,37.2461729 C33.4985507,37.2461729 28.5242236,32.2759619 28.5242236,26.1522549 C28.5242236,20.0285478 33.4985507,15.0583368 39.6273292,15.0583368 C45.7561077,15.0583368 50.7304348,20.0285478 50.7304348,26.1522549 C50.7304348,32.2759619 45.7391304,37.2461729 39.6273292,37.2461729 Z" id="Shape" fill="#FFBB41"></path>
                    <path d="M19.6446858,13.0737005 L21.7951901,13.0737005 C21.9146625,12.4080683 22,11.708301 22,11.0085337 C22,10.359969 21.93173,9.71140419 21.8293251,9.0969744 L19.7641583,9.0969744 C19.5593483,8.07292475 19.1838635,7.11714507 18.6718386,6.26377036 L20.1055081,4.83010085 C19.3545384,3.72071373 18.3987587,2.76493406 17.3064391,1.99689682 L15.9069046,3.39643134 C15.0535299,2.83320403 14.0977502,2.42358417 13.0737005,2.18463926 L13.0737005,0.20480993 C12.4080683,0.0853374709 11.708301,0 11.0085337,0 C10.359969,0 9.71140419,0.0682699767 9.0969744,0.170674942 L9.0969744,2.18463926 C8.08999224,2.42358417 7.15128006,2.81613654 6.29790535,3.36229635 L4.83010085,1.89449185 C3.72071373,2.6454616 2.76493406,3.60124127 1.99689682,4.6935609 L3.5159038,6.21256788 C3.00387898,7.0488751 2.6454616,7.95345229 2.42358417,8.92629946 L0.20480993,8.92629946 C0.0853374709,9.59193173 0,10.291699 0,10.9914663 C0,11.640031 0.0682699767,12.2885958 0.170674942,12.9030256 L2.47478666,12.9030256 C2.69666408,13.8417378 3.07214895,14.71218 3.56710628,15.4972847 L1.89449185,17.1698991 C2.6454616,18.2792863 3.60124127,19.2350659 4.6935609,20.0031032 L6.38324282,18.3134213 C7.16834756,18.8083786 8.02172227,19.166796 8.94336695,19.4057409 L8.94336695,21.7951901 C9.60899922,21.9146625 10.3087665,22 11.0085337,22 C11.6570985,22 12.3056633,21.93173 12.9200931,21.8293251 L12.9200931,19.4740109 C13.8588053,19.2692009 14.746315,18.927851 15.5484872,18.4499612 L17.1869666,20.0884407 C18.2963538,19.3374709 19.2521334,18.3816912 20.0201707,17.2893716 L18.4499612,15.7191621 C18.9790535,14.9340574 19.3886734,14.0294802 19.6446858,13.0737005 Z M11.0768037,16.7773468 C7.78277735,16.7773468 5.12024825,14.0977502 5.12024825,10.8207913 C5.12024825,7.54383243 7.79984484,4.86423584 11.0768037,4.86423584 C14.3708301,4.86423584 17.0333592,7.54383243 17.0333592,10.8207913 C17.0333592,14.0977502 14.3537626,16.7773468 11.0768037,16.7773468 Z" id="Shape" fill="#000000"></path>
                    <path d="M20.9692029,45.3173164 L22.8278986,45.3173164 C22.9311594,44.731641 23,44.1459655 23,43.5258386 C23,42.9573889 22.9483696,42.406165 22.8451087,41.8721668 L21.0552536,41.8721668 C20.8831522,40.9936537 20.5561594,40.1668178 20.1086957,39.4261106 L21.3478261,38.1858568 C20.6938406,37.2212149 19.8849638,36.394379 18.9384058,35.7398005 L17.7336957,36.9456029 C16.9936594,36.463282 16.1675725,36.1015413 15.2898551,35.8948323 L15.2898551,34.1722575 C14.7047101,34.068903 14.1195652,34 13.5,34 C12.9320652,34 12.3813406,34.0516772 11.8478261,34.1550317 L11.8478261,35.8948323 C10.9701087,36.1015413 10.1612319,36.4460562 9.4384058,36.9111514 L8.16485507,35.6364461 C7.20108696,36.2910245 6.375,37.1006346 5.72101449,38.0480508 L7.02898551,39.3572076 C6.59873188,40.080689 6.27173913,40.8558477 6.08242754,41.6999093 L4.17210145,41.6999093 C4.06884058,42.2855848 4,42.8712602 4,43.4913871 C4,44.0598368 4.05163043,44.6110607 4.1548913,45.1450589 L6.13405797,45.1450589 C6.32336957,45.9546691 6.65036232,46.712602 7.08061594,47.3844062 L5.63496377,48.831369 C6.28894928,49.7960109 7.09782609,50.6228468 8.04438406,51.2774252 L9.50724638,49.8132366 C10.178442,50.2266546 10.9184783,50.5539438 11.7101449,50.7606528 L11.7101449,52.8277425 C12.2952899,52.931097 12.8804348,53 13.5,53 C14.0679348,53 14.6186594,52.9483228 15.1521739,52.8449683 L15.1521739,50.81233 C15.9610507,50.6400725 16.7182971,50.3472348 17.423913,49.9338169 L18.8351449,51.3463282 C19.798913,50.6917498 20.625,49.8821396 21.2789855,48.9347235 L19.9193841,47.5738894 C20.4012681,46.919311 20.7626812,46.1441523 20.9692029,45.3173164 Z M13.5688406,48.5213055 C10.7291667,48.5213055 8.42300725,46.2130553 8.42300725,43.3708069 C8.42300725,40.5285585 10.7291667,38.2203083 13.5688406,38.2203083 C16.4085145,38.2203083 18.7146739,40.5285585 18.7146739,43.3708069 C18.7146739,46.2130553 16.4085145,48.5213055 13.5688406,48.5213055 Z" id="Shape" fill="#000000"></path>
                </g>
            </g>
        </g>
    </g>
</svg>