<?xml version="1.0" encoding="UTF-8"?>
<svg width="73px" height="49px" viewBox="0 0 73 49" version="1.1" xmlns="http://www.w3.org/2000/svg" xmlns:xlink="http://www.w3.org/1999/xlink">
    <!-- Generator: Sketch 45.2 (43514) - http://www.bohemiancoding.com/sketch -->
    <title>Programming-icon</title>
    <desc>Created with Sketch.</desc>
    <defs></defs>
    <g id="Page-1" stroke="none" stroke-width="1" fill="none" fill-rule="evenodd">
        <g id="[Services]-Soft-Dev" transform="translate(-469.000000, -1350.000000)">
            <g id="Programming-icon" transform="translate(469.000000, 1350.000000)">
                <g id="Group-3" transform="translate(0.000000, 10.000000)" fill="#000000">
                    <path d="M0.75,13.4922932 L21,0.740413534 L21,7.20657895 C21,7.66773414 20.900001,8.09379504 20.7,8.48477444 C20.499999,8.87575383 20.1833355,9.21159008 19.75,9.49229323 L12.65,14.093797 C12.2166645,14.3745002 11.7583358,14.6100868 11.275,14.8005639 C10.7916642,14.9910411 10.283336,15.1664779 9.75,15.3268797 C10.283336,15.4872815 10.7916642,15.6526934 11.275,15.8231203 C11.7583358,15.9935472 12.2166645,16.2191089 12.65,16.499812 L19.75,21.131391 C20.1833355,21.4120941 20.499999,21.7429179 20.7,22.1238722 C20.900001,22.5048265 21,22.9258749 21,23.3870301 L21,29.8531955 L0.75,17.131391 L0.75,13.4922932 Z M72.25,17.131391 L52,29.8531955 L52,23.3870301 C52,22.9258749 52.099999,22.5048265 52.3,22.1238722 C52.500001,21.7429179 52.8166645,21.4120941 53.25,21.131391 L60.35,16.499812 C60.7666688,16.2191089 61.2208309,15.9935472 61.7125,15.8231203 C62.2041691,15.6526934 62.716664,15.4872815 63.25,15.3268797 C62.716664,15.1664779 62.2041691,14.9910411 61.7125,14.8005639 C61.2208309,14.6100868 60.7666688,14.3745002 60.35,14.093797 L53.25,9.49229323 C52.8166645,9.21159008 52.500001,8.87575383 52.3,8.48477444 C52.099999,8.09379504 52,7.66773414 52,7.20657895 L52,0.740413534 L72.25,13.4922932 L72.25,17.131391 Z" id="&lt;/&gt;"></path>
                </g>
                <path d="M33.25,45.2366541 C33.0666657,45.7780102 32.8291681,46.2592084 32.5375,46.6802632 C32.2458319,47.1013179 31.9208351,47.4521916 31.5625,47.7328947 C31.2041649,48.0135979 30.8208354,48.2241221 30.4125,48.3644737 C30.0041646,48.5048253 29.600002,48.575 29.2,48.575 L25.9,48.575 L40.1,3.73289474 C40.433335,2.71033323 40.9416632,1.92838617 41.625,1.38703008 C42.3083367,0.845673985 43.0999955,0.575 44,0.575 L47.3,0.575 L33.25,45.2366541 Z" id="Path" fill="#FFBB41"></path>
            </g>
        </g>
    </g>
</svg>