<?xml version="1.0" encoding="UTF-8"?>
<svg width="45px" height="53px" viewBox="0 0 45 53" version="1.1" xmlns="http://www.w3.org/2000/svg" xmlns:xlink="http://www.w3.org/1999/xlink">
    <!-- Generator: Sketch 45.2 (43514) - http://www.bohemiancoding.com/sketch -->
    <title>Applications &amp; Web Servers-icon</title>
    <desc>Created with Sketch.</desc>
    <defs></defs>
    <g id="Page-1" stroke="none" stroke-width="1" fill="none" fill-rule="evenodd">
        <g id="[Services]-Soft-Dev" transform="translate(-492.000000, -1929.000000)" fill-rule="nonzero">
            <g id="Box7" transform="translate(224.000000, 1870.000000)">
                <g id="Applications-&amp;-Web-Servers-icon" transform="translate(268.000000, 59.000000)">
                    <path d="M32.6721666,42 L14.3275409,42 C13.3679313,42 12.7263845,41.1737705 13.1155293,40.4400729 L14.0624886,38.6586521 C14.2751328,38.2579235 14.7504196,38 15.2745002,38 L31.7258097,38 C32.2498902,38 32.7245747,38.2579235 32.9378212,38.6586521 L33.8841781,40.4400729 C34.2739254,41.1737705 33.6323785,42 32.6721666,42 Z" id="Shape" fill="#000000"></path>
                    <path d="M25,37.8839862 C24.3029269,37.8802195 24.1002172,37.4196083 24.0433344,37.0913689 L24.0433344,34 L20.9752818,34 L20.9752818,36.7685105 L20.9752818,36.9390874 C20.9556314,37.2506457 20.8144586,37.8802195 20,37.8839862 L20.9752818,37.8839862 L20.9752818,39 L24.0433344,39 L24.0433344,37.8839862 L25,37.8839862 L25,37.8839862 Z" id="Shape" fill="#000000"></path>
                    <path d="M42.153833,34 L2.84675696,34 C1.27440312,34 0,32.7587466 0,31.2272927 L0,2.57789947 C0,1.15390596 1.1853129,0 2.64674647,0 L42.3532535,0 C43.8158671,0 45,1.15448061 45,2.57789947 L45,31.2272927 C45,32.7587466 43.7255969,34 42.153833,34 Z M39.3766963,29.998107 C40.2693684,29.998107 40.9921202,29.2935808 40.9927102,28.4247034 L40.9927102,6.04536389 C40.9927102,4.91616807 40.0534279,4.00131832 38.8940751,4.00131832 L6.10651493,4.00131832 C4.94775209,4.00131832 4.0078798,4.91674272 4.0078798,6.04536389 L4.0078798,28.4241287 C4.0078798,29.2935808 4.73122157,29.998107 5.62330375,29.998107 L39.3766963,29.998107 Z" id="Combined-Shape" fill="#FFBB41"></path>
                    <path d="M43.2707284,53 L1.72986155,53 C0.774661737,53 0,52.2190476 0,51.2553571 L0,41.622619 C0,40.7267857 0.720382316,40 1.60832284,40 L43.3916772,40 C44.2802077,40 45,40.7261905 45,41.622619 L45,51.2553571 C44.99941,52.2184524 44.2259283,53 43.2707284,53 Z M40.4793418,47 C40.7666419,47 40.9994137,46.6927245 41,46.3126935 L41,45.6873065 C41,45.3072755 40.7666419,45 40.4793418,45 L26.5206582,45 C26.2327718,45 26,45.3072755 26,45.6873065 L26,46.3126935 C26,46.6927245 26.2333581,47 26.5206582,47 L40.4793418,47 Z M11,50 C12.1045695,50 13,49.1045695 13,48 C13,46.8954305 12.1045695,46 11,46 C9.8954305,46 9,46.8954305 9,48 C9,49.1045695 9.8954305,50 11,50 Z M6,50 C7.1045695,50 8,49.1045695 8,48 C8,46.8954305 7.1045695,46 6,46 C4.8954305,46 4,46.8954305 4,48 C4,49.1045695 4.8954305,50 6,50 Z M40.4793418,51 C40.7666419,51 40.9994137,50.6928433 41,50.3129594 L41,49.6878143 C41,49.3079304 40.7666419,49 40.4793418,49 L26.5206582,49 C26.2327718,49 26,49.3079304 26,49.6878143 L26,50.3129594 C26,50.6928433 26.2333581,51 26.5206582,51 L40.4793418,51 Z M22,50 C23.1045695,50 24,49.1045695 24,48 C24,46.8954305 23.1045695,46 22,46 C20.8954305,46 20,46.8954305 20,48 C20,49.1045695 20.8954305,50 22,50 Z M16,50 C17.1045695,50 18,49.1045695 18,48 C18,46.8954305 17.1045695,46 16,46 C14.8954305,46 14,46.8954305 14,48 C14,49.1045695 14.8954305,50 16,50 Z" id="Combined-Shape" fill="#000000"></path>
                </g>
            </g>
        </g>
    </g>
</svg>