<?xml version="1.0" encoding="UTF-8"?>
<svg width="47px" height="51px" viewBox="0 0 47 51" version="1.1" xmlns="http://www.w3.org/2000/svg" xmlns:xlink="http://www.w3.org/1999/xlink">
    <!-- Generator: Sketch 45.2 (43514) - http://www.bohemiancoding.com/sketch -->
    <title>Database-icon</title>
    <desc>Created with Sketch.</desc>
    <defs></defs>
    <g id="Page-1" stroke="none" stroke-width="1" fill="none" fill-rule="evenodd">
        <g id="[Services]-Soft-Dev" transform="translate(-1070.000000, -1074.000000)">
            <g id="Box2" transform="translate(803.000000, 1014.000000)">
                <g id="Group-8" transform="translate(70.000000, 60.000000)">
                    <g id="Database-icon" transform="translate(197.000000, 0.000000)">
                        <path d="M1.81215219,28.1232159 L13.5042707,28.1232159 L13.5042707,1.85140414 L1.81215219,1.85140414 L1.81215219,28.1232159 Z M7.20590138,48.3999148 C5.32774686,48.3999148 3.80678142,46.9195468 3.80678142,45.0936337 C3.80678142,43.2686647 5.32774686,41.7873526 7.20590138,41.7873526 C9.08211466,41.7873526 10.6040507,43.2686647 10.6040507,45.0936337 C10.6040507,46.9195468 9.08211466,48.3999148 7.20590138,48.3999148 Z M14.429274,0 L0.570726026,0 C0.255273716,0 0,0.372924341 0,0.833651123 L0,50.167293 C0,50.6280198 0.255273716,51 0.570726026,51 L14.429274,51 C14.7447263,51 15,50.6280198 15,50.167293 L15,0.833651123 C15,0.372924341 14.7447263,0 14.429274,0 L14.429274,0 Z" id="Fill-106" fill="#000000"></path>
                        <path d="M17.8131228,28.1232159 L29.5042707,28.1232159 L29.5042707,1.85140414 L17.8131228,1.85140414 L17.8131228,28.1232159 Z M23.2059014,48.3999148 C21.3287175,48.3999148 19.8067814,46.9195468 19.8067814,45.0936337 C19.8067814,43.2686647 21.3287175,41.7873526 23.2059014,41.7873526 C25.0821147,41.7873526 26.6040507,43.2686647 26.6040507,45.0936337 C26.6040507,46.9195468 25.0821147,48.3999148 23.2059014,48.3999148 Z M30.429274,0 L16.570726,0 C16.2552737,0 16,0.372924341 16,0.833651123 L16,50.167293 C16,50.6280198 16.2552737,51 16.570726,51 L30.429274,51 C30.7447263,51 31,50.6280198 31,50.167293 L31,0.833651123 C31,0.372924341 30.7447263,0 30.429274,0 L30.429274,0 Z" id="Fill-110" fill="#FFBB41"></path>
                        <path d="M33.8131228,28.1232159 L45.5052414,28.1232159 L45.5052414,1.85140414 L33.8131228,1.85140414 L33.8131228,28.1232159 Z M39.2059014,48.3999148 C37.3287175,48.3999148 35.8067814,46.9195468 35.8067814,45.0936337 C35.8067814,43.2686647 37.3287175,41.7873526 39.2059014,41.7873526 C41.0830853,41.7873526 42.6050214,43.2686647 42.6050214,45.0936337 C42.6050214,46.9195468 41.0830853,48.3999148 39.2059014,48.3999148 Z M46.4302446,0 L32.570726,0 C32.2552737,0 32,0.372924341 32,0.833651123 L32,50.167293 C32,50.6280198 32.2552737,51 32.570726,51 L46.4302446,51 C46.7447263,51 47,50.6280198 47,50.167293 L47,0.833651123 C47,0.372924341 46.7447263,0 46.4302446,0 L46.4302446,0 Z" id="Fill-114" fill="#000000"></path>
                    </g>
                </g>
            </g>
        </g>
    </g>
</svg>