<?xml version="1.0" encoding="UTF-8"?>
<svg width="73px" height="50px" viewBox="0 0 73 50" version="1.1" xmlns="http://www.w3.org/2000/svg" xmlns:xlink="http://www.w3.org/1999/xlink">
    <!-- Generator: Sketch 45.2 (43514) - http://www.bohemiancoding.com/sketch -->
    <title>Development-Platforms-icon</title>
    <desc>Created with Sketch.</desc>
    <defs></defs>
    <g id="Page-1" stroke="none" stroke-width="1" fill="none" fill-rule="evenodd">
        <g id="[Services]-Soft-Dev" transform="translate(-478.000000, -1644.000000)">
            <g id="box5" transform="translate(224.000000, 1584.000000)">
                <g id="Development-Platforms-icon" transform="translate(254.000000, 60.000000)">
                    <path d="M37.4660506,34.9913008 C42.0742941,34.7608829 45.7608889,31.0741963 45.9913011,26.4658381 C46.2217132,21.1662261 41.8438819,16.6730768 36.5444019,17.0187036 C31.9361583,17.2491216 28.2495635,20.9358082 28.0191514,25.5441664 C27.6735331,30.8437784 32.0513644,35.2217188 37.4660506,34.9913008 Z" id="Shape"></path>
                    <path d="M18.2322404,28.4604905 L21.3688525,28.4604905 C22.2650273,28.4604905 23.0491803,29.0190736 23.3852459,29.9128065 C23.6092896,30.8065395 24.057377,31.5885559 24.3934426,32.3705722 C24.8415301,33.1525886 24.7295082,34.1580381 24.057377,34.8283379 L21.8169399,37.0626703 C21.3688525,37.5095368 21.3688525,38.2915531 21.8169399,38.8501362 L24.1693989,41.1961853 C24.6174863,41.6430518 25.4016393,41.6430518 25.9617486,41.1961853 L28.2021858,38.9618529 C28.8743169,38.2915531 29.8825137,38.1798365 30.6666667,38.626703 C31.4508197,39.0735695 32.3469945,39.4087193 33.1311475,39.6321526 C34.0273224,39.8555858 34.5874317,40.6376022 34.5874317,41.6430518 L34.5874317,44.7711172 C34.5874317,45.4414169 35.147541,46 35.8196721,46 L39.1803279,46 C39.852459,46 40.4125683,45.4414169 40.4125683,44.7711172 L40.4125683,41.5313351 C40.4125683,40.6376022 40.9726776,39.8555858 41.8688525,39.520436 C42.7650273,39.2970027 43.5491803,38.8501362 44.3333333,38.5149864 C45.1174863,38.0681199 46.1256831,38.1798365 46.7978142,38.8501362 L49.0382514,41.0844687 C49.4863388,41.5313351 50.2704918,41.5313351 50.8306011,41.0844687 L53.1830601,38.7384196 C53.6311475,38.2915531 53.6311475,37.5095368 53.1830601,36.9509537 L50.942623,34.7166213 C50.2704918,34.0463215 50.1584699,33.0408719 50.6065574,32.2588556 C51.0546448,31.4768392 51.3907104,30.5831063 51.6147541,29.8010899 C51.8387978,28.9073569 52.6229508,28.3487738 53.6311475,28.3487738 L56.7677596,28.3487738 C57.4398907,28.3487738 58,27.7901907 58,27.119891 L58,23.7683924 C58,23.0980926 57.4398907,22.5395095 56.7677596,22.5395095 L53.6311475,22.5395095 C52.7349727,22.5395095 51.9508197,21.9809264 51.6147541,21.0871935 C51.3907104,20.1934605 50.942623,19.4114441 50.6065574,18.6294278 C50.1584699,17.8474114 50.2704918,16.8419619 50.942623,16.1716621 L53.1830601,13.9373297 C53.6311475,13.4904632 53.6311475,12.7084469 53.1830601,12.1498638 L50.8306011,9.80381471 C50.3825137,9.35694823 49.5983607,9.35694823 49.0382514,9.80381471 L46.7978142,12.0381471 C46.1256831,12.7084469 45.1174863,12.8201635 44.3333333,12.373297 C43.5491803,11.9264305 42.6530055,11.5912807 41.8688525,11.3678474 C40.9726776,11.1444142 40.4125683,10.3623978 40.4125683,9.35694823 L40.4125683,6.22888283 C40.4125683,5.55858311 39.852459,5 39.1803279,5 L35.8196721,5 C35.147541,5 34.5874317,5.55858311 34.5874317,6.22888283 L34.5874317,9.35694823 C34.5874317,10.2506812 34.0273224,11.0326975 33.1311475,11.3678474 C32.2349727,11.5912807 31.4508197,12.0381471 30.6666667,12.373297 C29.8825137,12.8201635 28.8743169,12.7084469 28.2021858,12.0381471 L25.9617486,9.80381471 C25.5136612,9.35694823 24.7295082,9.35694823 24.1693989,9.80381471 L21.8169399,12.1498638 C21.3688525,12.5967302 21.3688525,13.3787466 21.8169399,13.9373297 L24.057377,16.1716621 C24.7295082,16.8419619 24.8415301,17.8474114 24.3934426,18.6294278 C23.9453552,19.4114441 23.6092896,20.3051771 23.3852459,21.0871935 C23.1612022,21.9809264 22.3770492,22.5395095 21.3688525,22.5395095 L18.2322404,22.5395095 C17.5601093,22.5395095 17,23.0980926 17,23.7683924 L17,27.119891 C17,27.9019074 17.5601093,28.4604905 18.2322404,28.4604905 Z M37.0519126,16.8419619 C42.204918,16.6185286 46.5737705,20.8637602 46.2377049,26.0027248 C46.0136612,30.4713896 42.4289617,34.0463215 37.9480874,34.2697548 C32.795082,34.493188 28.4262295,30.2479564 28.7622951,25.1089918 C28.9863388,20.640327 32.5710383,17.0653951 37.0519126,16.8419619 Z" id="Shape" fill="#000000" fill-rule="nonzero"></path>
                    <path d="M20,50 L20,46.9162996 L14.255814,46.9162996 C12.7093023,46.9162996 11.494186,45.7048458 11.494186,44.1629956 L11.494186,31.0572687 L5.41860465,25 L11.494186,18.9427313 L11.494186,5.83700441 C11.494186,4.29515419 12.7093023,3.08370044 14.255814,3.08370044 L20,3.08370044 L20,0 L14.255814,0 C11.0523256,0 8.40116279,2.64317181 8.40116279,5.83700441 L8.40116279,17.6211454 L1,25 L8.40116279,32.3788546 L8.40116279,44.1629956 C8.40116279,47.3568282 11.0523256,50 14.255814,50 L20,50 Z" id="Shape" fill="#FFBB41" fill-rule="nonzero"></path>
                    <path d="M19,50 L19,46.9162996 L13.255814,46.9162996 C11.7093023,46.9162996 10.494186,45.7048458 10.494186,44.1629956 L10.494186,31.0572687 L4.41860465,25 L10.494186,18.9427313 L10.494186,5.83700441 C10.494186,4.29515419 11.7093023,3.08370044 13.255814,3.08370044 L19,3.08370044 L19,0 L13.255814,0 C10.0523256,0 7.40116279,2.64317181 7.40116279,5.83700441 L7.40116279,17.6211454 L0,25 L7.40116279,32.3788546 L7.40116279,44.1629956 C7.40116279,47.3568282 10.0523256,50 13.255814,50 L19,50 Z" id="Shape-Copy-2" fill="#FFBB41" fill-rule="nonzero"></path>
                    <path d="M64.5988372,5.83700441 C64.5988372,2.64317181 61.9476744,0 58.744186,0 L53,0 L53,3.08370044 L58.744186,3.08370044 C60.2906977,3.08370044 61.505814,4.29515419 61.505814,5.83700441 L61.505814,18.9427313 L67.5813953,25 L61.505814,31.0572687 L61.505814,44.1629956 C61.505814,45.7048458 60.2906977,46.9162996 58.744186,46.9162996 L53,46.9162996 L53,50 L58.744186,50 C61.9476744,50 64.5988372,47.3568282 64.5988372,44.1629956 L64.5988372,32.3788546 L72,25 L64.5988372,17.6211454 L64.5988372,5.83700441 Z" id="Shape" fill="#FFBB41" fill-rule="nonzero"></path>
                    <path d="M65.5988372,5.83700441 C65.5988372,2.64317181 62.9476744,0 59.744186,0 L54,0 L54,3.08370044 L59.744186,3.08370044 C61.2906977,3.08370044 62.505814,4.29515419 62.505814,5.83700441 L62.505814,18.9427313 L68.5813953,25 L62.505814,31.0572687 L62.505814,44.1629956 C62.505814,45.7048458 61.2906977,46.9162996 59.744186,46.9162996 L54,46.9162996 L54,50 L59.744186,50 C62.9476744,50 65.5988372,47.3568282 65.5988372,44.1629956 L65.5988372,32.3788546 L73,25 L65.5988372,17.6211454 L65.5988372,5.83700441 Z" id="Shape-Copy" fill="#FFBB41" fill-rule="nonzero"></path>
                </g>
            </g>
        </g>
    </g>
</svg>