<?xml version="1.0" encoding="UTF-8"?>
<svg width="57px" height="52px" viewBox="0 0 57 52" version="1.1" xmlns="http://www.w3.org/2000/svg" xmlns:xlink="http://www.w3.org/1999/xlink">
    <!-- Generator: Sketch 45.2 (43514) - http://www.bohemiancoding.com/sketch -->
    <title>Development-Frameworks-icon</title>
    <desc>Created with Sketch.</desc>
    <defs></defs>
    <g id="Page-1" stroke="none" stroke-width="1" fill="none" fill-rule="evenodd">
        <g id="[Services]-Soft-Dev" transform="translate(-1056.000000, -1342.000000)">
            <g id="Development-Frameworks-icon" transform="translate(1056.000000, 1342.000000)">
                <path d="M17.9919858,31 C16.882492,31 15.9835948,30.1882613 15.9835948,29.1878647 L15.9835948,4.62393066 L13.0164052,4.62393066 L13.0164052,29.1878647 C13.0164052,30.1882613 12.117508,31 11.008391,31 C9.89889718,31 9,30.1882613 9,29.1878647 L9,2.81179537 C9,1.81139879 9.89889718,1 11.008391,1 L17.9919858,1 C19.1011028,1 20,1.81139879 20,2.81179537 L20,29.1878647 C20,30.1882613 19.1011028,31 17.9919858,31" id="Fill-96" fill="#FFFFFF"></path>
                <path d="M44.066759,52 L36.933241,52 C35.8656249,52 35,51.198873 35,50.2111408 L35,15.7891948 C35,14.801127 35.8656249,14 36.933241,14 C38.0004945,14 38.8661194,14.801127 38.8661194,15.7891948 L38.8661194,48.4219461 L42.1338806,48.4219461 L42.1338806,15.7891948 C42.1338806,14.801127 42.9995055,14 44.066759,14 C45.1343751,14 46,14.801127 46,15.7891948 L46,50.2111408 C46,51.198873 45.1343751,52 44.066759,52" id="Fill-97" fill="#FFFFFF"></path>
                <path d="M30.9452552,13.3687062 L51.3302454,13.3687062 L45.0002961,4.63078298 L30.9452552,4.63078298 L30.9452552,13.3687062 Z M55.0271874,16.9994891 C55.0245969,17.0001703 55.0205262,17.0001703 55.0160855,16.9994891 L28.9728126,16.9994891 C27.8829733,16.9994891 27,16.1865561 27,15.1839274 L27,2.81522121 C27,1.81293303 27.8829733,1 28.9728126,1 L46.0560894,1 C46.7155439,1 47.3313309,1.30310448 47.6973244,1.80816509 L56.5540726,14.0341738 C56.833101,14.3471547 57,14.7473207 57,15.1839274 C57,16.1865561 56.1170267,16.9994891 55.0271874,16.9994891 L55.0271874,16.9994891 Z" id="Fill-98" fill="#FFFFFF"></path>
                <path d="M10.7763071,36.7164421 L17.2214215,36.7164421 C18.3359247,36.7164421 19.2391872,37.5377665 19.2391872,38.5507447 L19.2391872,46.3762076 C22.1136514,44.7569565 23.9640902,41.8787083 23.9640902,38.7248503 C23.9640902,33.7308403 19.4935846,29.668261 13.998675,29.668261 C8.50527967,29.668261 4.03590985,33.7308403 4.03590985,38.7248503 C4.03590985,41.8776761 5.88521288,44.7559242 8.75854143,46.3751754 L8.75854143,38.5507447 C8.75854143,37.5377665 9.66180387,36.7164421 10.7763071,36.7164421 Z M10.7763071,50.9999851 C10.5938375,50.9999851 10.4106107,50.9776197 10.2311696,50.9318568 C4.20702243,49.3951854 0,44.3750252 0,38.7248503 C0,31.7083248 6.27968038,26 13.998675,26 C21.7191839,26 28,31.7083248 28,38.7248503 C28,44.3760574 23.7914633,49.3962176 17.7661804,50.9318568 C17.1582007,51.0866938 16.5051715,50.974523 16.0020551,50.627344 C15.4989387,50.2805091 15.2032773,49.7399558 15.2032773,49.1660266 L15.2032773,40.3850472 L12.7944513,40.3850472 L12.7944513,49.1660266 C12.7944513,49.7399558 12.4987899,50.2811972 11.9952949,50.627344 C11.640577,50.8719865 11.2116599,50.9999851 10.7763071,50.9999851 L10.7763071,50.9999851 Z" id="Fill-99" fill="#000000"></path>
                <path d="M16.9919858,30 C15.882492,30 14.9835948,29.188592 14.9835948,28.1878442 L14.9835948,3.62431165 L12.0164052,3.62431165 L12.0164052,28.1878442 C12.0164052,29.188592 11.117508,30 10.008391,30 C8.89889718,30 8,29.188592 8,28.1878442 L8,1.81215582 C8,0.811747909 8.89889718,0 10.008391,0 L16.9919858,0 C18.1011028,0 19,0.811747909 19,1.81215582 L19,28.1878442 C19,29.188592 18.1011028,30 16.9919858,30" id="Fill-100" fill="#000000"></path>
                <path d="M43.066759,51 L35.933241,51 C34.8656249,51 34,50.198873 34,49.2111408 L34,14.7891948 C34,13.801127 34.8656249,13 35.933241,13 C37.0004945,13 37.8661194,13.801127 37.8661194,14.7891948 L37.8661194,47.4219461 L41.1338806,47.4219461 L41.1338806,14.7891948 C41.1338806,13.801127 41.9995055,13 43.066759,13 C44.1343751,13 45,13.801127 45,14.7891948 L45,49.2111408 C45,50.198873 44.1343751,51 43.066759,51" id="Fill-101" fill="#FFBB41"></path>
                <polygon id="Fill-102" fill="#FFBB41" points="30.9452552 12.3690614 51.3302454 12.3690614 45.0002961 3.63112785 30.9452552 3.63112785"></polygon>
            </g>
        </g>
    </g>
</svg>