<?xml version="1.0" encoding="UTF-8"?>
<svg viewBox="0 0 242 233" version="1.1" xmlns="http://www.w3.org/2000/svg" xmlns:xlink="http://www.w3.org/1999/xlink">
    <!-- Generator: Sketch 46.2 (44496) - http://www.bohemiancoding.com/sketch -->
    <title>Hero-graphics</title>
    <desc>Created with Sketch.</desc>
    <defs></defs>
    <g id="UX/UI" stroke="none" stroke-width="1" fill="none" fill-rule="evenodd">
        <g id="Mobile-Copy" transform="translate(-34.000000, -114.000000)">
            <g id="Hero-graphics" transform="translate(34.000000, 114.000000)">
                <path stroke-dasharray="2,2" stroke-width="2" stroke="#FFBB41" id="Combined-Shape" d="m77.98178,193.661017c-25.36092,-17.51916 -41.98178,-46.8161 -41.98178,-80c0,-33.1839 16.62086,-62.48084 41.98178,-80l0,160z"/>
                <g id="Satellite01" transform="matrix(1,0,0,1,67,150)" fill-rule="nonzero">
                    <path d="M23.7670972,11.7170203 L20.667041,8.74726862 C20.5582671,8.63927765 20.3407193,8.53128668 20.1775585,8.53128668 C20.0143976,8.53128668 19.7968498,8.58528217 19.6880759,8.74726862 L17.2406632,11.2310609 L17.0775023,11.3930474 C17.0775023,11.3930474 17.0775023,11.3930474 17.0775023,11.3930474 L14.9564113,13.5528668 L14.8476374,13.4448758 L15.4458938,12.79693 C15.6634416,12.5809481 15.7178286,12.2029797 15.5546677,11.9330023 L15.5546677,11.9330023 L18.2740152,9.12523702 L18.7091108,8.69327314 L19.1985934,8.20731377 C19.4705281,7.93733634 19.4705281,7.50537246 19.1985934,7.23539503 L18.6547239,6.69544018 C18.6547239,6.69544018 18.6547239,6.69544018 18.6547239,6.69544018 L18.491563,6.53345372 L17.8933066,5.99349887 L17.7301457,5.83151242 C17.7301457,5.83151242 17.7301457,5.83151242 17.7301457,5.83151242 L17.1862762,5.29155756 L17.0231154,5.12957111 C17.0231154,5.12957111 17.0231154,5.12957111 17.0231154,5.12957111 L16.4792459,4.58961625 C16.370472,4.48162528 16.2073111,4.37363431 15.9897633,4.37363431 C15.9897633,4.37363431 15.9897633,4.37363431 15.9897633,4.37363431 C15.8266025,4.37363431 15.6090547,4.4276298 15.5002808,4.58961625 L15.0107982,5.07557562 L14.9564113,5.12957111 L11.8019682,8.36930023 C11.6931943,8.31530474 11.5844204,8.26130926 11.4756465,8.26130926 C11.3124856,8.26130926 11.0949378,8.31530474 10.9861639,8.4772912 L10.6054553,8.85525959 L10.3879075,9.12523702 L10.2247466,8.96325056 L12.3458377,6.74943567 L12.6177724,6.47945824 C12.6177724,6.47945824 12.6177724,6.47945824 12.6177724,6.47945824 L14.9020243,4.15765237 C15.0107982,4.0496614 15.1195721,3.83367946 15.1195721,3.671693 C15.1195721,3.50970655 15.0651852,3.2937246 14.9020243,3.18573363 L11.8019682,0.215981941 C11.6931943,0.107990971 11.4756465,0 11.3124856,0 C11.1493248,0 10.931777,0.0539954853 10.8230031,0.215981941 L2.33863885,8.96325056 L2.2842519,9.01724605 L0.2175478,11.1770655 C0.1087739,11.2850564 0,11.5010384 0,11.6630248 C0,11.8250113 0.05438695,12.0409932 0.2175478,12.1489842 L0.978965101,12.904921 C0.978965101,12.904921 0.978965101,12.904921 0.978965101,12.904921 L0.978965101,12.904921 L1.68599545,13.6068623 C1.68599545,13.6068623 1.68599545,13.6068623 1.68599545,13.6068623 L1.68599545,13.6068623 L2.3930258,14.3088036 L2.3930258,14.3088036 L3.20883005,15.0647404 C3.31760395,15.1727314 3.53515175,15.2807223 3.6983126,15.2807223 C3.86147345,15.2807223 4.07902125,15.2267269 4.18779515,15.0647404 L6.25449925,12.904921 L6.526434,12.6349436 C6.526434,12.6349436 6.526434,12.6349436 6.526434,12.6349436 L8.86507286,10.2591422 L9.02823371,10.4211287 L8.42997726,11.015079 C8.37559031,11.0690745 8.32120336,11.0690745 8.26681641,11.12307 L8.21242946,11.1770655 C8.15804251,11.2310609 8.10365556,11.2850564 8.10365556,11.3390519 L4.350956,15.2267269 C4.07902125,15.4967043 4.07902125,15.9286682 4.350956,16.1986456 L4.5685038,16.4146275 L4.2421821,16.7925959 C3.97024735,17.0625734 3.97024735,17.4945372 4.2421821,17.7645147 L4.4597299,17.9804966 C4.5685038,18.0884876 4.7860516,18.1964786 4.94921245,18.1964786 C4.94921245,18.1964786 4.94921245,18.1964786 4.94921245,18.1964786 C5.1123733,18.1964786 5.3299211,18.1424831 5.438695,17.9804966 L5.7650167,17.6025282 L6.4176601,18.1964786 C6.36327315,18.4124605 6.4176601,18.6824379 6.58082095,18.8984199 L6.79836875,19.1144018 C6.90714265,19.2223928 7.12469045,19.3303837 7.2878513,19.3303837 C7.2878513,19.3303837 7.2878513,19.3303837 7.2878513,19.3303837 C7.34223825,19.3303837 7.45101215,19.3303837 7.5053991,19.2763883 L7.88610775,19.6543567 C7.99488166,19.7623476 8.15804251,19.8703386 8.37559031,19.8703386 C8.37559031,19.8703386 8.37559031,19.8703386 8.37559031,19.8703386 C8.53875116,19.8703386 8.75629896,19.8163431 8.86507286,19.6543567 L9.24578151,19.2763883 C9.24578151,19.2763883 9.24578151,19.2763883 9.24578151,19.2763883 L9.73526406,18.7904289 L10.2791336,18.250474 L11.0405509,17.4945372 L12.7809333,15.6586907 L12.7809333,15.6586907 L13.4879636,14.902754 L13.5967375,15.0107449 L8.91945981,19.8163431 C8.81068591,19.9243341 8.70191201,20.140316 8.70191201,20.3023025 C8.70191201,20.4642889 8.75629896,20.6802709 8.91945981,20.7882619 L9.73526406,21.5441986 L9.73526406,21.5441986 L10.4966814,22.24614 L10.4966814,22.24614 L11.2580987,22.9480813 L11.2580987,22.9480813 L12.0739029,23.7040181 C12.1826768,23.812009 12.4002246,23.92 12.5633855,23.92 C12.5633855,23.92 12.5633855,23.92 12.5633855,23.92 C12.7265463,23.92 12.9440941,23.8660045 13.052868,23.7040181 L15.1195721,21.5441986 L15.3915069,21.2742212 C15.3915069,21.2742212 15.3915069,21.2742212 15.3915069,21.2742212 L18.0564674,18.5204515 L18.3284022,18.250474 L21.0477497,15.4427088 L21.3196844,15.1727314 C21.3196844,15.1727314 21.3196844,15.1727314 21.3196844,15.1727314 L23.6039363,12.8509255 C23.7127102,12.7429345 23.8214841,12.5269526 23.8214841,12.3649661 C23.984645,12.0409932 23.930258,11.8250113 23.7670972,11.7170203 Z" id="Shape" fill="#FFBB41"></path>
                    <g id="Group" transform="translate(1.353962, 1.353962)">
                        <rect id="Rectangle-path" fill="#F6EDF4" transform="translate(10.569284, 10.908441) rotate(43.922286) translate(-10.569284, -10.908441) " x="6.53038377" y="10.4084408" width="8.07780105" height="1"></rect>
                        <rect id="Rectangle-path" fill="#FFFFFF" transform="translate(13.534780, 7.907771) rotate(43.922286) translate(-13.534780, -7.907771) " x="11.597199" y="4.08718926" width="3.87516132" height="7.64116316"></rect>
                        <rect id="Rectangle-path" fill="#FFFFFF" transform="translate(8.775705, 12.778425) rotate(43.918159) translate(-8.775705, -12.778425) " x="6.31978757" y="8.08489327" width="4.91183559" height="9.38706357"></rect>
                        <rect id="Rectangle-path" fill="#C6C0C7" transform="translate(6.023472, 15.632921) rotate(43.922286) translate(-6.023472, -15.632921) " x="3.56738392" y="15.1329207" width="4.91217632" height="1"></rect>
                        <rect id="Rectangle-path" fill="#C6C0C7" transform="translate(11.307804, 10.184954) rotate(43.918159) translate(-11.307804, -10.184954) " x="8.85188629" y="9.68495373" width="4.91183559" height="1"></rect>
                        <rect id="Rectangle-path" fill="#C6C0C7" transform="translate(15.337717, 5.980594) rotate(43.918159) translate(-15.337717, -5.980594) " x="13.4002712" y="5.48059442" width="3.87489252" height="1"></rect>
                        <rect id="Rectangle-path" fill="#C6C0C7" transform="translate(12.147867, 9.325983) rotate(43.922286) translate(-12.147867, -9.325983) " x="10.2102861" y="8.82598328" width="3.87516132" height="1"></rect>
                        <circle id="Oval" fill="#C6C0C7" cx="7.28410706" cy="14.3247108" r="1"></circle>
                        <path d="M5.91964897,12.2507345 C6.13796226,12.4690478 6.13796226,12.7965178 5.91964897,13.0148311 C5.70133567,13.2331444 5.37386573,13.2331444 5.15555244,13.0148311 L5.91964897,12.2507345 Z" id="Shape" fill="#C6C0C7"></path>
                        <path d="M9.46724002,15.6891689 C9.24892672,15.4708556 8.92145678,15.4708556 8.70314348,15.6891689 C8.48483019,15.9074822 8.48483019,16.2349522 8.70314348,16.4532655 L9.46724002,15.6891689 Z" id="Shape" fill="#C6C0C7"></path>
                        <g id="Rectangle-path" fill="#FFFFFF">
                            <rect transform="translate(5.891399, 5.996931) rotate(43.877650) translate(-5.891399, -5.996931) " x="5.3913993" y="-1.67109461" width="1" height="15.3360508"></rect>
                            <rect transform="translate(6.671461, 6.717789) rotate(43.622379) translate(-6.671461, -6.717789) " x="6.17146135" y="-0.950439981" width="1" height="15.336457"></rect>
                            <rect transform="translate(7.439601, 7.436470) rotate(43.942464) translate(-7.439601, -7.436470) " x="6.93960149" y="-0.231389949" width="1" height="15.3357208"></rect>
                            <rect transform="translate(5.981087, 6.707171) rotate(43.922286) translate(-5.981087, -6.707171) " x="3.79789708" y="6.20717067" width="4.36637895" height="1"></rect>
                            <rect transform="translate(3.016496, 9.843640) rotate(43.922286) translate(-3.016496, -9.843640) " x="0.83330623" y="9.34363958" width="4.36637895" height="1"></rect>
                            <rect transform="translate(8.989793, 3.607471) rotate(43.922286) translate(-8.989793, -3.607471) " x="6.80660359" y="3.10747117" width="4.36637895" height="1"></rect>
                        </g>
                        <g transform="translate(8.826994, 8.732532)" id="Rectangle-path" fill="#FFFFFF">
                            <rect transform="translate(6.027167, 5.881908) rotate(43.869549) translate(-6.027167, -5.881908) " x="5.52716717" y="-1.78613887" width="1" height="15.3360934"></rect>
                            <rect transform="translate(6.798382, 6.607706) rotate(43.375225) translate(-6.798382, -6.607706) " x="6.29838229" y="-1.06084707" width="1" height="15.337106"></rect>
                            <rect transform="translate(7.536240, 7.366522) rotate(43.565676) translate(-7.536240, -7.366522) " x="7.03624028" y="-0.301892794" width="1" height="15.3368295"></rect>
                            <rect transform="translate(6.150559, 6.631247) rotate(43.922286) translate(-6.150559, -6.631247) " x="3.96736991" y="6.13124676" width="4.36637895" height="1"></rect>
                            <rect transform="translate(3.147802, 9.729800) rotate(43.922286) translate(-3.147802, -9.729800) " x="0.964612441" y="9.22980011" width="4.36637895" height="1"></rect>
                            <rect transform="translate(9.118043, 3.494123) rotate(43.922286) translate(-9.118043, -3.494123) " x="6.93485342" y="2.99412291" width="4.36637895" height="1"></rect>
                        </g>
                        <g transform="translate(11.650373, 4.009408)" id="Rectangle-path" fill="#D7D0D8">
                            <rect transform="translate(2.959909, 3.298990) rotate(43.978995) translate(-2.959909, -3.298990) " x="2.45990855" y="0.651920296" width="1" height="5.29413849"></rect>
                            <rect transform="translate(2.203141, 2.574777) rotate(43.897982) translate(-2.203141, -2.574777) " x="1.70314124" y="-0.0723612508" width="1" height="5.2942772"></rect>
                            <rect transform="translate(3.688303, 4.057129) rotate(43.918159) translate(-3.688303, -4.057129) " x="3.18830272" y="1.41019505" width="1" height="5.29386725"></rect>
                        </g>
                        <rect id="Rectangle-path" fill="#F6EDF4" transform="translate(4.648736, 15.718487) rotate(43.926260) translate(-4.648736, -15.718487) " x="4.14873604" y="14.8452744" width="1" height="1.74642579"></rect>
                        <rect id="Rectangle-path" fill="#F6EDF4" transform="translate(6.691273, 17.185347) rotate(43.942464) translate(-6.691273, -17.185347) " x="6.19127284" y="16.6853469" width="1" height="1"></rect>
                        <rect id="Rectangle-path" fill="#3C393E" transform="translate(9.108693, 12.450254) rotate(43.918159) translate(-9.108693, -12.450254) " x="6.62548756" y="11.9502544" width="4.96641154" height="1"></rect>
                        <circle id="Oval" fill="#C6C0C7" cx="9.41266169" cy="12.0869996" r="1.41903642"></circle>
                        <g transform="translate(8.921457, 11.555910)" id="Oval" fill="#FFFFFF">
                            <circle cx="0.491204914" cy="0.531089074" r="1"></circle>
                        </g>
                    </g>
                </g>

                <g id="Product1" transform="matrix(.2, 0, 0, .2, 70, 50)"><g id="Multicolor"><circle cx="55" cy="55" r="55" style="fill:#E04F5F;"/><g><path d="M73,81c0,3.314-2.686,6-6,6H43c-3.314,0-6-2.686-6-6V29c0-3.314,2.686-6,6-6h24    c3.314,0,6,2.686,6,6V81z" style="fill:#FFFFFF;"/><polygon points="39,35 39,65.872 55.171,35   " style="fill:#4AC3AF;"/><polygon points="39,74.491 39,75 68.24,75 47.208,58.822   " style="fill:#21B2D1;"/><polygon points="59.686,35 48.621,56.124 71,73.338 71,35   " style="fill:#FBE158;"/><circle cx="48" cy="30" r="1" style="fill:#B6BCBD;"/><path d="M63,30c0,0.552-0.448,1-1,1H52c-0.552,0-1-0.448-1-1s0.448-1,1-1h10C62.552,29,63,29.448,63,30z" style="fill:#B6BCBD;"/><circle cx="55" cy="81" r="4" style="fill:#CFD3D4;"/><rect height="4" style="fill:#FFFFFF;" width="4" x="53" y="79"/><polygon points="48.621,56.124 59.686,35 55.171,35 39,65.872 39,74.491 47.208,58.822 68.24,75 71,75     71,73.338   " style="fill:#F0F1F1;"/><path d="M68,46.5c0,3.59-6.5,15.6-6.5,15.6S55,50.09,55,46.5s2.91-6.5,6.5-6.5S68,42.91,68,46.5z" style="fill:#DF2C2C;"/><circle cx="61.5" cy="46.5" r="2.9" style="fill:#FFFFFF;"/></g></g></g>

                <g id="mouse-pointer" transform="translate(220.000000, 168.000000)" stroke="#FFC154" stroke-width="2" fill-rule="nonzero">
                    <path d="M16.7189755,15.1310595 C16.9994667,15.3919719 17.0731311,15.7986609 16.9258024,16.1319973 C16.7784737,16.48019 16.4384843,16.7123184 16.0550519,16.7123184 L10.4178399,16.7123184 L13.3842468,23.6186034 C13.5910737,24.0977165 13.3549699,24.6343974 12.8827625,24.8377419 L10.2705112,25.92596 C9.7831931,26.1293045 9.23732134,25.8971761 9.03049449,25.4329192 L6.21236068,18.8748268 L1.60833844,23.4013312 C1.43173286,23.5749633 1.19468475,23.6770998 0.944414818,23.6770998 C0.826362966,23.6770998 0.693200477,23.6483159 0.590259262,23.6046757 C0.236103705,23.4598276 0,23.1255626 0,22.7485861 L0,0.928513717 C0,0.551537148 0.236103705,0.21727221 0.590259262,0.07242407 C0.693200477,0.0287839252 0.826362966,0 0.944414818,0 C1.19562916,0 1.43173286,0.0872802894 1.60833844,0.275768574 L16.7189755,15.1310595 Z" id="Shape"></path>
                </g>
                <g id="Ellpse-yellow" transform="translate(48.000000, 5.000000)">
                    <g id="Building-bot" transform="translate(89.751309, 196.500000) rotate(-180.000000) translate(-89.751309, -196.500000) translate(35.251309, 165.000000)" fill-rule="nonzero">
                        <g id="Group" fill="#FFBB41">
                            <path d="M108.312275,49.7479337 C108.312275,49.7479337 107.928887,48.713483 107.280223,48.713483 C106.986525,48.713483 106.865255,48.713483 106.81978,48.713483 L106.81978,32.8872778 L105.761832,32.8872778 L105.761832,31.9811804 L105.446027,29.9974243 L105.249596,32.0154927 L104.225756,32.0154927 L104.225756,30.7414917 L103.969954,31.9894408 L103.432453,31.9894408 L103.432453,32.7932369 L102.331557,32.7932369 L102.331557,43.6181147 L101.725842,43.6181147 L101.725842,44.0622676 L101.111285,44.0622676 L101.111285,43.5920628 L100.633156,43.5920628 L100.633156,42.9852444 L99.7034259,42.9852444 L99.7034259,43.6009586 L99.4299387,44.062903 L98.9612838,44.062903 L98.9612838,43.2076386 L98.730746,44.0540073 L98.4319944,42.677705 L98.2014566,44.062903 L97.8692296,44.062903 L97.8692296,48.8767839 L97.2319347,40.0566678 L97.2319347,36.6451411 L97.442261,36.4824757 L97.2319347,36.2003528 L97.442261,36.0033751 L97.2319347,34.9346122 L97.3999431,34.6353332 L96.9394991,34.6353332 L96.9394991,34.181649 L96.7430683,33.9509945 L96.6154831,33.7120796 L96.9394991,33.3867487 L96.5049512,33.3867487 L96.5049512,32.4545994 L96.3426274,31.7022716 L96.2491491,30.3342297 L96.1297747,31.710532 L96.0021894,32.4889116 L95.86513,33.3956445 L95.4046861,33.3956445 L95.4046861,33.6606112 L95.7287022,33.9935671 L95.5411139,34.1562326 L95.4046861,34.618177 L94.9177145,34.618177 L94.9177145,34.943508 L95.1141453,36.0033751 L94.9177145,36.2175089 L95.1311988,36.4735799 L94.9177145,36.678818 L95.1311988,40.0477721 L94.4686395,40.0477721 L94.4686395,29.8646603 L94.1610453,29.2063736 L93.8427137,29.668318 L93.5528046,29.2241651 L93.0923606,29.2241651 L93.0923606,29.8220877 L92.333165,29.8220877 L92.333165,30.4460622 L91.7103972,30.4460622 L91.7103972,29.6676826 L90.644239,29.6676826 L90.644239,30.4632184 L89.8509364,30.4632184 L89.8509364,31.3775761 L87.7091458,31.3775761 L87.7091458,30.4797391 L85.5509333,30.4797391 L85.5509333,29.8557646 L85.0816469,29.8557646 L85.0816469,30.4886348 L84.6294139,26.0785768 L84.6294139,27.1301836 L84.2965552,27.1301836 L84.2965552,17.1091019 L83.241766,17.1091019 L83.241766,16.7672503 L82.718161,16.7672503 L82.718161,16.4025238 L81.1940853,16.4025238 L81.1940853,12.0245355 L80.89786,14.4645174 L80.4203626,14.4645174 L80.4203626,10.3832665 L80.1468754,14.601131 L79.8285438,16.4025238 L78.8950237,16.4025238 L78.8950237,16.6300013 L78.4402643,16.6300013 L78.4402643,16.8581142 L78.0758251,16.8581142 L78.0758251,17.0627168 L77.5073758,17.0627168 L77.5073758,26.4795218 L77.0071404,26.4795218 L77.0071404,25.8409328 L76.6205949,25.8409328 L76.6205949,25.3167179 L76.1879418,25.3167179 L76.1879418,24.7696282 L75.4830647,24.7696282 L75.4830647,25.4762063 L75.1413635,25.4762063 L75.1413635,20.4831393 L74.1175232,20.4831393 L74.1175232,19.7930819 L73.0595759,19.7930819 L73.0595759,20.5460451 L72.0193137,20.5460451 L72.0193137,26.6167707 L71.5070777,26.6167707 L71.5070777,8.24002203 L70.8874679,8.24002203 L70.8874679,7.85242075 L70.1478523,7.85242075 L70.1478523,3.90778343 L69.8295206,2.64267826 L69.6356163,0.094040967 L69.3172847,2.64267826 L69.067167,3.79404469 L68.8056803,7.82954592 L68.1911235,7.82954592 L68.1911235,8.22858462 L67.4969837,8.22858462 L67.4969837,26.6631558 L66.5634636,26.6631558 L66.5634636,20.0046741 L66.245132,17.8391902 L65.3583511,17.8391902 L65.3583511,20.0046741 L64.6983183,20.0046741 L64.6983183,23.6754489 L63.9245957,23.6754489 L63.9245957,28.4632778 L63.4237287,28.4632778 L63.4237287,15.8605174 L60.2442023,15.8605174 L60.2442023,15.3648961 L59.9378713,13.9460212 L59.698491,15.3992084 L58.8792924,15.3992084 L58.8792924,14.8521187 L58.5382228,14.8521187 L58.5382228,15.3312193 L58.2994741,15.9984018 L54.7561402,15.9984018 L54.7561402,20.6438985 L53.5219736,20.6438985 L53.5219736,20.3331821 L52.6857215,20.3331821 L52.6857215,20.5987843 L52.3275985,20.5987843 L52.3275985,20.0173823 L50.3992921,20.0173823 L50.3992921,20.615305 L49.9047412,20.615305 L49.9047412,23.0095372 L49.4613508,23.0095372 L49.4613508,23.6767197 L49.0009069,23.6767197 L49.0009069,17.144685 L48.2158152,17.144685 L48.2158152,16.0161933 L47.3625097,16.0161933 L47.3625097,13.6219612 L46.577418,13.6219612 L46.577418,12.1262015 L46.211084,12.1262015 L46.211084,13.6054404 L45.4247292,13.6054404 L45.4247292,15.9996726 L44.6655336,15.9996726 L44.6655336,17.2133094 L43.6189553,17.2133094 L43.6189553,18.912401 L43.2892547,18.912401 L43.2892547,18.3189262 L40.8209215,18.3189262 L40.8209215,18.9683172 L40.1956273,18.9683172 L40.1956273,28.3622473 L39.7010764,28.3622473 L39.7010764,25.9343383 L39.2917929,25.9343383 L39.2917929,25.6350593 L38.677236,25.6350593 L38.677236,25.9000261 L38.2167921,25.9000261 L38.2167921,24.8992523 L37.9433048,25.8657138 L37.6363422,25.1902709 L37.3723291,25.8917657 L37.1247379,19.6761661 L36.5670259,19.6761661 L36.5670259,19.1970655 L36.1457418,19.1970655 L36.1457418,18.627101 L35.7137204,18.627101 L35.7137204,19.1970655 L35.3044369,19.1970655 L35.3044369,19.7333532 L33.1487508,19.7333532 L33.1487508,33.3140126 L32.8361037,32.9454736 L32.0282741,32.9454736 L32.0282741,33.4588865 L31.4257179,33.4588865 L31.4257179,33.7556239 L32.0630127,33.7556239 L31.4257179,33.9379871 L31.4257179,34.2226516 L32.0282741,34.2226516 L32.0282741,34.7017522 L30.7315781,34.7017522 L30.7315781,26.2768253 L29.7418447,26.2768253 L29.7418447,25.1368963 L29.2870853,25.1368963 L29.2870853,25.6725486 L28.9573847,25.6725486 L28.9573847,24.5898066 L28.6504221,25.7977247 L28.3434595,25.1483337 L27.8994374,25.1483337 L27.8994374,26.1630866 L27.2514052,34.9832027 L27.2514052,45.5856863 L26.7960142,45.5856863 L26.7960142,43.6019302 L26.3639927,43.6019302 L26.3639927,43.1463398 L25.953446,43.1463398 L25.953446,41.3443116 C26.0469243,41.44979 26.7789607,41.9257135 26.9848657,41.9415988 C26.9848657,41.9415988 26.5560022,41.3646448 26.6437961,41.0189807 C26.6437961,41.0189807 26.3418863,40.3556106 25.953446,40.0887376 C25.9976587,39.9228951 26.0286076,39.8739684 26.0286076,39.8174167 C25.8559675,39.8551178 25.7947013,40.9645471 25.844809,43.1457044 L24.6788563,43.1457044 L24.6788563,41.3436762 C24.7729663,41.4491546 25.5050027,41.9250781 25.7109076,41.9409634 C25.7109076,41.9409634 25.2820442,41.3640094 25.3692064,41.0183453 C25.3692064,41.0183453 25.0672967,40.3549752 24.6788563,40.0881022 C24.7230691,39.9222597 24.7546496,39.8733329 24.7546496,39.8167813 C24.5820094,39.8544824 24.5207432,40.9639116 24.570851,43.145069 L23.4168989,43.145069 L23.4168989,41.3430408 C23.5103772,41.4485191 24.2424136,41.9244427 24.4483186,41.940328 C24.4483186,41.940328 24.0188236,41.3633739 24.1066174,41.0177098 C24.1066174,41.0177098 23.8047076,40.3543398 23.4168989,40.0874668 C23.46048,39.9216243 23.4914289,39.8726975 23.4914289,39.8161459 C23.3192098,39.853847 23.2581542,40.9632762 23.3082619,43.1444336 L22.9962464,41.6836216 L22.5288548,41.6836216 L22.5288548,40.991658 L22.3760051,40.7260558 C22.3760051,40.027738 21.9370359,39.4336279 21.3199526,39.2029734 L21.3199526,38.8534968 L21.1885777,37.895931 L21.0553079,37.3259665 L20.7515033,36.3696715 L20.6005485,37.3259665 L20.4470671,37.895931 L20.3150606,38.8534968 L20.1824224,39.2029734 C19.5659707,39.4336279 19.1263699,40.0283735 19.1263699,40.7260558 L19.1263699,40.991658 L18.9735202,41.6836216 L18.5067602,41.6836216 L18.5067602,43.1444336 L17.7759871,43.1444336 L17.7759871,33.2148512 L17.3925996,33.2148512 L17.3925996,33.6253273 L17.0426875,33.6253273 L17.0426875,34.1044279 L16.7527783,33.6088066 L16.453395,33.4632973 L16.1634859,33.6348585 L16.001162,33.4118289 L15.5748251,33.4118289 L15.5748251,34.0618553 L15.0796426,34.0618553 L15.0796426,43.4068587 L13.8170535,43.4068587 L13.8170535,33.3521002 L12.9302726,33.3521002 L12.9302726,32.5654602 L11.3095605,32.5654602 L11.3095605,33.3184234 L10.9337524,33.3184234 L10.9337524,40.2780904 L10.1998212,49.0982064 L10.1998212,48.7220425 L9.51768203,48.7220425 L9.51768203,49.1325187 L8.47678821,49.1325187 L8.47678821,48.7391987 L6.42973913,48.7391987 L6.42973913,49.183987 L5.6446475,49.183987 L5.6446475,39.6763182 L5.38884531,39.0434479 L5.04777574,39.0434479 L5.04777574,39.6420059 L3.98982844,39.6420059 L3.98982844,38.4105776 L3.49464594,38.4105776 L3.49464594,42.4632349 L3.22179028,56.7177301 L2.04446863,56.7177301 L2.04446863,58.7923501 L0.0308948998,58.7923501 L0.0308948998,62.6226133 L108.588288,53.8024972 L108.588288,50.701687 L108.312275,49.7479337 Z" id="Shape"></path>
                        </g>
                        <g id="Group" transform="translate(102.910995, 21.609284)" fill="#FFFFFF">
                            <g transform="translate(-0.000000, 0.000000)" id="Rectangle-path">
                                <rect x="0.0806331926" y="0.140817762" width="1.16785768" height="1.30272505"></rect>
                                <rect x="1.83241972" y="0.140817762" width="1.16846977" height="1.30272505"></rect>
                            </g>
                            <g transform="translate(-0.000000, 1.929010)" id="Rectangle-path">
                                <rect x="0.0806331926" y="0.178111964" width="1.16785768" height="1.30208205"></rect>
                                <rect x="1.83241972" y="0.178111964" width="1.16846977" height="1.30208205"></rect>
                            </g>
                            <g transform="translate(-0.000000, 3.858021)" id="Rectangle-path">
                                <rect x="0.0806331926" y="0.215406166" width="1.16785768" height="1.30272505"></rect>
                                <rect x="1.83241972" y="0.215406166" width="1.16846977" height="1.30272505"></rect>
                            </g>
                            <g transform="translate(-0.000000, 5.787031)" id="Rectangle-path">
                                <rect x="0.0806331926" y="0.253343371" width="1.16785768" height="1.30208205"></rect>
                                <rect x="1.83241972" y="0.253343371" width="1.16846977" height="1.30208205"></rect>
                            </g>
                            <g transform="translate(-0.000000, 7.716042)" id="Rectangle-path">
                                <rect x="0.0806331926" y="0.289994569" width="1.16785768" height="1.30272505"></rect>
                                <rect x="1.83241972" y="0.289994569" width="1.16846977" height="1.30272505"></rect>
                            </g>
                        </g>
                        <g id="Group" transform="translate(79.162304, 18.963250)" fill="#FFFFFF">
                            <g id="Rectangle-path">
                                <rect x="0.237438913" y="0.0710218679" width="1.14462345" height="1.29025878"></rect>
                                <rect x="1.95467388" y="0.0710218679" width="1.14402385" height="1.29025878"></rect>
                            </g>
                            <g transform="translate(0.000000, 2.003394)" id="Rectangle-path">
                                <rect x="0.237438913" y="0.0151158605" width="1.14462345" height="1.29025878"></rect>
                                <rect x="1.95467388" y="0.0151158605" width="1.14402385" height="1.29025878"></rect>
                            </g>
                            <g transform="translate(0.000000, 3.913945)" id="Rectangle-path">
                                <rect x="0.237438913" y="0.0526900304" width="1.14462345" height="1.28962193"></rect>
                                <rect x="1.95467388" y="0.0526900304" width="1.14402385" height="1.28962193"></rect>
                            </g>
                            <g transform="translate(0.000000, 5.824496)" id="Rectangle-path">
                                <rect x="0.237438913" y="0.0896273499" width="1.14462345" height="1.29025878"></rect>
                                <rect x="1.95467388" y="0.0896273499" width="1.14402385" height="1.29025878"></rect>
                            </g>
                            <g transform="translate(0.000000, 7.838049)" id="Rectangle-path">
                                <rect x="0.237438913" y="0.0235634625" width="1.14462345" height="1.28962193"></rect>
                                <rect x="1.95467388" y="0.0235634625" width="1.14402385" height="1.28962193"></rect>
                            </g>
                        </g>
                        <g id="Group" transform="translate(57.612565, 17.640232)" fill="#FFFFFF">
                            <g id="Rectangle-path">
                                <rect x="0.174481625" y="0.0423636028" width="1.14402385" height="1.29025878"></rect>
                                <rect x="1.89051741" y="0.0423636028" width="1.14462345" height="1.29025878"></rect>
                            </g>
                            <g transform="translate(0.000000, 1.910551)" id="Rectangle-path">
                                <rect x="0.174481625" y="0.0793009223" width="1.14402385" height="1.29025878"></rect>
                                <rect x="1.89051741" y="0.0793009223" width="1.14462345" height="1.29025878"></rect>
                            </g>
                            <g transform="translate(0.000000, 3.913945)" id="Rectangle-path">
                                <rect x="0.174481625" y="0.0240317653" width="1.14402385" height="1.28962193"></rect>
                                <rect x="1.89051741" y="0.0240317653" width="1.14462345" height="1.28962193"></rect>
                            </g>
                            <g transform="translate(0.000000, 5.824496)" id="Rectangle-path">
                                <rect x="0.174481625" y="0.0609690848" width="1.14402385" height="1.29025878"></rect>
                                <rect x="1.89051741" y="0.0609690848" width="1.14462345" height="1.29025878"></rect>
                            </g>
                            <g transform="translate(0.000000, 7.735047)" id="Rectangle-path">
                                <rect x="0.174481625" y="0.0979064043" width="1.14402385" height="1.28962193"></rect>
                                <rect x="1.89051741" y="0.0979064043" width="1.14462345" height="1.28962193"></rect>
                            </g>
                        </g>
                        <g id="Group" transform="translate(50.575916, 22.491296)" fill="#FFFFFF">
                            <g id="Rectangle-path">
                                <rect x="0.195467388" y="0.0729324189" width="1.14402385" height="1.28962193"></rect>
                                <rect x="1.91150317" y="0.0729324189" width="1.14462345" height="1.28962193"></rect>
                            </g>
                            <g transform="translate(0.000000, 2.003394)" id="Rectangle-path">
                                <rect x="0.195467388" y="0.0163895612" width="1.14402385" height="1.29025878"></rect>
                                <rect x="1.91150317" y="0.0163895612" width="1.14462345" height="1.29025878"></rect>
                            </g>
                            <g transform="translate(0.000000, 3.913945)" id="Rectangle-path">
                                <rect x="0.195467388" y="0.0539637311" width="1.14402385" height="1.28962193"></rect>
                                <rect x="1.91150317" y="0.0539637311" width="1.14462345" height="1.28962193"></rect>
                            </g>
                            <g transform="translate(0.000000, 5.824496)" id="Rectangle-path">
                                <rect x="0.195467388" y="0.0902642003" width="1.14402385" height="1.29025878"></rect>
                                <rect x="1.91150317" y="0.0902642003" width="1.14462345" height="1.29025878"></rect>
                            </g>
                            <g transform="translate(0.000000, 7.838049)" id="Rectangle-path">
                                <rect x="0.195467388" y="0.0248371631" width="1.14402385" height="1.28962193"></rect>
                                <rect x="1.91150317" y="0.0248371631" width="1.14462345" height="1.28962193"></rect>
                            </g>
                        </g>
                        <g id="Group" transform="translate(44.418848, 18.081238)" fill="#FFFFFF">
                            <g id="Rectangle-path">
                                <rect x="0.262621828" y="0.0627428135" width="1.14402385" height="1.29025878"></rect>
                                <rect x="1.97865761" y="0.0627428135" width="1.14462345" height="1.29025878"></rect>
                            </g>
                            <g transform="translate(0.000000, 2.003394)" id="Rectangle-path">
                                <rect x="0.262621828" y="0.00747365651" width="1.14402385" height="1.29025878"></rect>
                                <rect x="1.97865761" y="0.00747365651" width="1.14462345" height="1.29025878"></rect>
                            </g>
                            <g transform="translate(0.000000, 3.913945)" id="Rectangle-path">
                                <rect x="0.262621828" y="0.044410976" width="1.14402385" height="1.28962193"></rect>
                                <rect x="1.97865761" y="0.044410976" width="1.14462345" height="1.28962193"></rect>
                            </g>
                            <g transform="translate(0.000000, 5.824496)" id="Rectangle-path">
                                <rect x="0.262621828" y="0.0813482956" width="1.14402385" height="1.29025878"></rect>
                                <rect x="1.97865761" y="0.0813482956" width="1.14462345" height="1.29025878"></rect>
                            </g>
                            <g transform="translate(0.000000, 7.838049)" id="Rectangle-path">
                                <rect x="0.262621828" y="0.0146475577" width="1.14402385" height="1.29025878"></rect>
                                <rect x="1.97865761" y="0.0146475577" width="1.14462345" height="1.29025878"></rect>
                            </g>
                        </g>
                        <g id="Group" transform="translate(33.424084, 21.168279)" fill="#FFFFFF">
                            <g id="Rectangle-path">
                                <rect x="0.0648809824" y="0.244550529" width="1.16846977" height="1.29025878"></rect>
                                <rect x="1.81789168" y="0.244550529" width="1.16785768" height="1.29025878"></rect>
                            </g>
                            <g transform="translate(0.000000, 1.910551)" id="Rectangle-path">
                                <rect x="0.0648809824" y="0.281487849" width="1.16846977" height="1.29025878"></rect>
                                <rect x="1.81789168" y="0.281487849" width="1.16785768" height="1.29025878"></rect>
                            </g>
                            <g transform="translate(0.000000, 3.821102)" id="Rectangle-path">
                                <rect x="0.0648809824" y="0.318425168" width="1.16846977" height="1.29025878"></rect>
                                <rect x="1.81789168" y="0.318425168" width="1.16785768" height="1.29025878"></rect>
                            </g>
                            <g transform="translate(0.000000, 5.731653)" id="Rectangle-path">
                                <rect x="0.0648809824" y="0.355999338" width="1.16846977" height="1.28962193"></rect>
                                <rect x="1.81789168" y="0.355999338" width="1.16785768" height="1.28962193"></rect>
                            </g>
                            <g transform="translate(0.000000, 7.642204)" id="Rectangle-path">
                                <rect x="0.0648809824" y="0.392299807" width="1.16846977" height="1.29025878"></rect>
                                <rect x="1.81789168" y="0.392299807" width="1.16785768" height="1.29025878"></rect>
                            </g>
                        </g>
                    </g>
                    <g id="Building-top" transform="translate(18.031414, 0.000000)">
                        <g id="Shape" fill="#FFBB41">
                            <path d="M122.23163,48.1817593 L115.885645,38.0771603 L115.885645,37.3506396 L113.61411,37.3506396 L113.61411,39.2129172 L112.830058,39.2129172 L112.830058,37.2096805 L108.560601,37.2096805 L108.560601,24.423321 L107.803255,24.423321 L107.803255,31.4475329 L107.228317,31.4475329 L107.228317,30.8685394 L105.583118,25.8162399 L105.583118,26.3159123 L102.99766,26.3159123 L102.99766,20.8665021 L100.960938,20.8665021 L100.960938,26.0264156 L100.621317,29.1158967 L100.02068,29.1158967 L100.02068,23.7650063 L99.6946638,23.4623736 L98.8063065,23.4623736 L98.8063065,21.9967015 L98.0817132,21.9967015 L98.0817132,23.0814302 L97.7093388,23.0814302 L97.7093388,23.4163977 L97.2392098,23.4163977 L97.2392098,23.7321664 L96.3382552,17.164177 L96.3382552,22.2321387 L95.3002426,22.2321387 L95.3002426,10.5971982 L94.6633261,10.5971982 L94.6633261,11.2580389 L93.7719454,11.2580389 L93.7719454,10.5481909 L93.1063072,10.5481909 L93.1063072,11.2878475 L92.2250043,11.2878475 L92.2250043,10.5481909 L91.500411,10.5481909 L91.500411,19.6296992 L90.560153,19.6296992 L90.560153,18.4661546 L89.8945149,18.4661546 L89.8945149,18.978963 L88.0533022,18.4737331 L88.0533022,13.4648834 L87.5050704,13.4648834 L87.5050704,11.0190652 L87.1719993,10.4279461 L86.8197805,9.83581664 L86.2710447,9.83581664 L86.2710447,10.6840977 L85.9581293,11.275722 L85.5857548,11.275722 L85.5857548,13.5436992 L85.0178713,13.5436992 L85.0178713,18.3155961 L83.9617186,18.3155961 L83.9617186,6.25323108 L83.3933312,6.25323108 L83.3933312,6.58213577 L82.7957181,6.58213577 L82.7957181,6.25323108 L82.3356669,6.25323108 L82.3356669,6.5624318 L82.0418992,6.90750386 L81.8166606,21.688006 L81.2976543,21.688006 L81.2976543,3.42646951 L80.573061,3.42646951 L80.573061,3.09150206 L79.632803,3.09150206 L79.632803,3.73263886 L78.7127006,3.73263886 L78.7127006,3.09150206 L77.7920943,3.09150206 L77.7920943,3.72253426 L77.4398754,13.4941867 L77.1330067,13.8650255 L76.5323703,13.8650255 L76.5323703,14.1545222 L76.2063537,14.4829217 L75.2529946,14.4829217 L75.2529946,21.7925886 L74.7435622,21.7925886 L74.7435622,7.17274958 L74.306186,7.17274958 L74.306186,2.49937256 L74.0386206,2.15126912 L73.6727967,0.29758044 L70.8525266,0.29758044 L70.8525266,2.46653261 L70.5784107,7.22579873 L69.9384709,7.22579873 L69.9384709,21.7400447 L69.3116322,21.7400447 L69.3116322,14.5354656 L69.0244151,12.2482896 L68.3194736,12.2482896 L68.3194736,13.4840821 L67.4578223,13.4840821 L67.4578223,12.2740564 L66.7785791,12.2740564 L66.7785791,21.7395395 L66.1517405,21.7395395 L66.1517405,11.6708118 L65.8907257,10.0667067 L65.5118007,10.0667067 L65.5118007,7.84521064 L65.2376847,6.88527374 L64.9373665,6.28101872 L63.6312847,6.28101872 L63.6312847,6.88527374 L63.3571687,7.85834662 L63.0437494,8.79201157 L62.7177328,10.054076 L62.4043135,21.6890165 L61.5295611,21.6890165 L61.5295611,13.7942933 L60.5636047,13.7942933 L60.5636047,12.8939735 L60.2340609,12.0987416 L59.9105638,12.8843742 L59.3331063,12.8843742 L59.3331063,13.8503738 L57.3744874,13.8503738 L57.3744874,21.9522413 L56.4065155,21.9522413 L56.4065155,15.9728448 L56.3913988,10.9943089 L55.8340969,10.9943089 L55.8340969,10.2506104 L55.6249827,10.9943089 L55.253616,10.9943089 L55.253616,10.2197914 L55.2077621,7.78407782 L55.1392331,10.2197914 L55.0445019,10.9948141 L54.7804637,10.2511157 L54.5718534,10.9948141 L53.9868376,10.9948141 L53.9868376,15.6626336 L53.7212877,21.9522413 L52.8082398,21.9522413 L52.8082398,15.9299003 L52.410167,15.9299003 L52.410167,15.496413 L51.7445288,15.496413 L51.7445288,14.7668609 L50.5105032,14.7668609 L50.5105032,15.1412363 L49.0220133,15.1412363 L49.0220133,8.90973015 L48.3367234,8.90973015 L48.3367234,8.47573762 L47.9452012,8.47573762 L47.9452012,8.08165826 L46.4179118,8.08165826 L46.4179118,8.43683491 L46.0263896,8.43683491 L46.0263896,8.81121031 L45.261989,8.81121031 L45.261989,21.7678323 L44.4396412,21.7678323 L44.4396412,8.87082744 L43.9433099,8.87082744 L43.9433099,8.43734014 L42.6639342,8.43734014 L42.6639342,21.9254641 L41.6359994,21.9254641 L41.6359994,19.862105 L41.6359994,19.5059179 C41.6359994,19.218442 41.67883,18.9269243 41.6359994,18.6419746 C41.5835949,18.2958921 41.2102127,18.0973368 40.7869454,18.0422667 C40.7859376,17.9944383 40.8059253,17.9211799 40.8469083,17.8224917 L40.7496576,17.2925055 L40.6826403,17.1182011 L40.5869012,16.889332 L40.4699989,17.1182011 L40.441781,17.2925055 L40.3732521,17.8224917 L40.3651898,18.0124581 C39.9036269,18.0831903 39.5085775,18.2842718 39.4546613,18.6414694 C39.4113268,18.9264191 39.4546613,19.2179368 39.4546613,19.5054126 L39.0505418,19.5054126 C39.0505418,18.9794683 39.1170553,18.4489768 39.0505418,17.9275795 C38.90391,16.7736343 37.8407029,16.1132988 36.6429573,15.9430363 C36.59408,15.7687319 36.6797412,15.7257874 36.7457508,15.6297937 L36.7739686,15.3352446 L36.489271,13.7877253 L36.292754,13.279464 L36.0135992,17.6623338 C36.0534064,17.5602773 36.0841437,17.5143014 36.0841437,17.4597366 C35.8859471,17.4947658 35.8101957,17.5622982 35.8568895,17.6623338 L35.6734737,18.3317635 L35.5908358,18.8400248 L35.3912955,20.3870389 L35.1600102,20.681588 C35.215438,20.7119017 35.2879981,20.7881915 35.3671088,20.8306308 C34.1386259,21.1954068 33.1197612,21.8517005 32.9761526,22.9793738 C32.9101431,23.5007711 32.9761526,24.0312625 32.9761526,24.5572069 L32.572537,29.6095064 C32.572537,29.3220305 32.6153677,29.0305129 32.572537,28.7455632 C32.518117,28.3858394 32.1175247,28.1837475 31.6741019,28.138782 C31.6626804,28.1030791 31.6776291,28.0357151 31.718948,27.93669 L31.6211935,27.4067038 L31.5521606,27.2323995 L31.4564216,27.0035303 L31.3395192,27.2323995 L31.3107975,27.4067038 L31.2427724,27.93669 L31.2347101,28.1266565 C30.8003573,28.2095142 30.4400762,28.4070591 30.3886795,28.7460684 C30.3458489,29.0310181 30.3886795,29.3225358 30.3886795,29.6100116 L30.3886795,29.9661987 L30.3886795,32.0295578 L29.4338087,32.0295578 L29.4338087,25.3645643 L27.9846222,25.3645643 L27.9846222,26.2714521 L27.318984,26.2714521 L27.318984,25.4433802 L26.4578367,25.4433802 L26.4578367,26.2714521 L25.4001724,26.2714521 L25.4001724,32.2271027 L24.9693468,32.2271027 L24.9693468,31.3788217 L24.6660052,20.6709781 L23.8335796,20.6709781 L23.8335796,22.0512663 L23.402754,22.0512663 L23.402754,21.3414183 L22.6388573,21.3414183 L22.6388573,32.1876948 L21.9928708,32.1876948 L21.9928708,26.7973965 L21.2677737,26.7973965 L21.2677737,26.1537335 L20.6605867,32.2164929 L20.6605867,30.6583637 L19.7792838,30.6583637 L19.7792838,30.9544285 L17.9189234,30.9544285 L17.9189234,30.6386598 L16.9983171,30.6386598 L16.9983171,32.5317564 L16.7045494,32.177085 L16.0585629,32.177085 L16.0585629,32.8672291 L15.7451436,37.0277977 L14.8633368,44.6062469 L14.8633368,43.2517255 L12.6437031,43.2517255 L12.6437031,42.9627339 L11.6772428,42.9627339 L11.6772428,42.5944213 L10.6850842,42.5944213 L10.6850842,41.4374447 L10.4240694,40.4648771 L10.005841,40.4648771 L10.005841,40.0702925 L9.74432228,49.1212387 L8.46494656,49.1212387 L8.46494656,49.3581915 L8.17420226,49.686591 L7.81190563,50.9188468 L7.4884085,51.8752471 L6.32341573,51.8752471 L6.32341573,52.3026716 L5.29195371,52.3026716 L5.29195371,52.6310711 L3.5031456,52.6310711 L3.5031456,54.0906804 L1.29610912,54.0906804 L1.29610912,54.7217126 L0.0560367976,54.7217126 L0.0560367976,56.2075939 L0.0560367976,56.9038008 L0.0560367976,57.2796919 L123.628412,51.5551797 L123.628412,51.1792886 L123.628412,50.4830817 L123.628412,48.9709285 L122.23163,48.9709285 L122.23163,48.1817593 Z M10.0320432,45.4863575 C9.42284071,45.4863575 8.81313428,54.7474794 8.20393175,54.7474794 C8.20393175,53.6258689 8.20393175,52.5042584 8.20393175,51.3821427 C8.40951871,50.3827978 9.82696017,41.121676 10.0320432,42.1210208 C10.0320432,43.2431365 10.0320432,44.3652523 10.0320432,45.4863575 Z M18.5190559,32.2286184 L17.9189234,32.2286184 L17.9189234,31.2560508 L18.5190559,31.2560508 L18.5190559,32.2286184 Z M19.9687463,32.2286184 L19.4074133,32.2286184 L19.4074133,31.2560508 L19.9687463,31.2560508 L19.9687463,32.2286184 Z M40.6846558,17.4309385 L40.6987647,17.4309385 C40.702292,17.4309385 40.7053153,17.4354855 40.7053153,17.4410431 L40.7053153,17.8224917 L40.6786092,17.8224917 L40.6786092,17.4410431 C40.6786092,17.4354855 40.6811286,17.4309385 40.6846558,17.4309385 Z M40.620158,17.2551184 L40.6398097,17.2551184 L40.6398097,17.2920002 L40.620158,17.2920002 L40.620158,17.2551184 Z M40.6161268,17.4309385 L40.6377941,17.4309385 C40.6438408,17.4309385 40.6483758,17.4354855 40.6483758,17.4410431 L40.6483758,17.8224917 L40.606049,17.8224917 L40.606049,17.4410431 C40.6055452,17.4354855 40.6105841,17.4309385 40.6161268,17.4309385 Z M40.4805805,17.2551184 L40.5002322,17.2551184 L40.5002322,17.2920002 L40.4805805,17.2920002 L40.4805805,17.2551184 Z M40.4750378,17.4309385 L40.496705,17.4309385 C40.5027517,17.4309385 40.5072867,17.4354855 40.5072867,17.4410431 L40.5072867,17.8224917 L40.4654638,17.8224917 L40.4654638,17.4410431 C40.46496,17.4354855 40.469495,17.4309385 40.4750378,17.4309385 Z M40.4170904,17.4309385 L40.4306955,17.4309385 C40.4342227,17.4309385 40.437246,17.4354855 40.437246,17.4410431 L40.437246,17.8224917 L40.4105399,17.8224917 L40.4105399,17.4410431 C40.4105399,17.4354855 40.4135632,17.4309385 40.4170904,17.4309385 Z M36.2841879,14.2217178 C36.2841879,14.2055505 36.2932579,14.191404 36.3028318,14.191404 L36.343143,14.191404 C36.3537247,14.191404 36.3622908,14.2050452 36.3622908,14.2217178 L36.3622908,15.3347394 L36.2841879,15.3347394 L36.2841879,14.2217178 Z M36.1153849,18.7324108 L36.1723244,18.7324108 L36.1723244,18.8395196 L36.1153849,18.8395196 L36.1153849,18.7324108 Z M36.1027876,19.2437035 L36.1662777,19.2437035 C36.1824022,19.2437035 36.1960072,19.2573447 36.1960072,19.2740173 L36.1960072,20.3870389 L36.073562,20.3870389 L36.073562,19.2740173 C36.0730581,19.25785 36.0861593,19.2437035 36.1027876,19.2437035 Z M35.7072343,18.7324108 L35.7641738,18.7324108 L35.7641738,18.8395196 L35.7072343,18.8395196 L35.7072343,18.7324108 Z M35.6911098,19.2437035 L35.754096,19.2437035 C35.7702205,19.2437035 35.7843294,19.2573447 35.7843294,19.2740173 L35.7843294,20.3870389 L35.6618842,20.3870389 L35.6618842,19.2740173 C35.6613803,19.25785 35.6744815,19.2437035 35.6911098,19.2437035 Z M35.5026551,19.2740173 C35.5026551,19.25785 35.5112212,19.2437035 35.521299,19.2437035 L35.5616102,19.2437035 C35.5721919,19.2437035 35.5802541,19.2573447 35.5802541,19.2740173 L35.5802541,20.3870389 L35.5026551,20.3870389 L35.5026551,19.2740173 Z M31.5496411,27.5557466 C31.5496411,27.5496839 31.5526645,27.5451368 31.5561917,27.5451368 L31.5697967,27.5451368 C31.5738278,27.5451368 31.5768512,27.5496839 31.5768512,27.5557466 L31.5768512,27.93669 L31.5496411,27.93669 L31.5496411,27.5557466 Z M31.4921977,27.3703272 L31.5113455,27.3703272 L31.5113455,27.4067038 L31.4921977,27.4067038 L31.4921977,27.3703272 Z M31.4881666,27.5451368 L31.5098339,27.5451368 C31.5153766,27.5451368 31.5199117,27.5496839 31.5199117,27.5557466 L31.5199117,27.93669 L31.4780888,27.93669 L31.4780888,27.5557466 C31.4775849,27.5496839 31.4821199,27.5451368 31.4881666,27.5451368 Z M31.3526203,27.3703272 L31.372272,27.3703272 L31.372272,27.4067038 L31.3526203,27.4067038 L31.3526203,27.3703272 Z M31.3470775,27.5451368 L31.3687448,27.5451368 C31.3742876,27.5451368 31.3793265,27.5496839 31.3793265,27.5557466 L31.3793265,27.93669 L31.3369997,27.93669 L31.3369997,27.5557466 C31.3364958,27.5496839 31.3415347,27.5451368 31.3470775,27.5451368 Z M31.2820758,27.5557466 C31.2820758,27.5496839 31.2850991,27.5451368 31.2886263,27.5451368 L31.3022313,27.5451368 C31.3062625,27.5451368 31.3092858,27.5496839 31.3092858,27.5557466 L31.3092858,27.93669 L31.2820758,27.93669 L31.2820758,27.5557466 Z"></path>
                        </g>
                        <g id="Group" transform="translate(17.151832, 4.410058)" fill-rule="nonzero" fill="#FFFFFF">
                            <g transform="translate(74.764398, 7.497099)" id="Rectangle-path">
                                <g>
                                    <rect x="0.339664921" y="0.157938878" width="1" height="1.01310793"></rect>
                                    <rect x="1.80812565" y="0.157938878" width="1" height="1.01310793"></rect>
                                </g>
                                <g transform="translate(0.000000, 1.499420)">
                                    <rect x="0.339664921" y="0.187427466" width="1" height="1.01260812"></rect>
                                    <rect x="1.80812565" y="0.187427466" width="1" height="1.01260812"></rect>
                                </g>
                                <g transform="translate(0.000000, 2.998839)">
                                    <rect x="0.339664921" y="0.216916054" width="1" height="1.01210832"></rect>
                                    <rect x="1.80812565" y="0.216916054" width="1" height="1.01210832"></rect>
                                </g>
                                <g transform="translate(0.000000, 4.498259)">
                                    <rect x="0.339664921" y="0.245405029" width="1" height="1.01260812"></rect>
                                    <rect x="1.80812565" y="0.245405029" width="1" height="1.01260812"></rect>
                                </g>
                                <g transform="translate(0.000000, 5.997679)">
                                    <rect x="0.339664921" y="0.274893617" width="1" height="1.01260812"></rect>
                                    <rect x="1.80812565" y="0.274893617" width="1" height="1.01260812"></rect>
                                </g>
                            </g>
                            <g transform="translate(61.130890, 0.000000)" id="Rectangle-path">
                                <g>
                                    <rect x="0.0604712042" y="0.209418956" width="1" height="1.01260812"></rect>
                                    <rect x="1.52944503" y="0.209418956" width="1" height="1.01260812"></rect>
                                </g>
                                <g transform="translate(0.000000, 1.499420)">
                                    <rect x="0.0604712042" y="0.238907544" width="1" height="1.01260812"></rect>
                                    <rect x="1.52944503" y="0.238907544" width="1" height="1.01260812"></rect>
                                </g>
                                <g transform="translate(0.000000, 2.998839)">
                                    <rect x="0.0604712042" y="0.267396518" width="1" height="1.01260812"></rect>
                                    <rect x="1.52944503" y="0.267396518" width="1" height="1.01260812"></rect>
                                </g>
                                <g transform="translate(0.000000, 4.498259)">
                                    <rect x="0.0604712042" y="0.296885106" width="1" height="1.01210832"></rect>
                                    <rect x="1.52944503" y="0.296885106" width="1" height="1.01210832"></rect>
                                </g>
                                <g transform="translate(0.000000, 5.997679)">
                                    <rect x="0.0604712042" y="0.325374081" width="1" height="1.01260812"></rect>
                                    <rect x="1.52944503" y="0.325374081" width="1" height="1.01260812"></rect>
                                </g>
                            </g>
                            <g transform="translate(54.094241, 3.087041)" id="Rectangle-path">
                                <g>
                                    <rect x="0.0469696335" y="0.267396518" width="1.0069445" height="1.01260812"></rect>
                                    <rect x="1.55738639" y="0.267396518" width="1.0069445" height="1.01260812"></rect>
                                </g>
                                <g transform="translate(0.000000, 1.499420)">
                                    <rect x="0.0469696335" y="0.296885106" width="1.0069445" height="1.01260812"></rect>
                                    <rect x="1.55738639" y="0.296885106" width="1.0069445" height="1.01260812"></rect>
                                </g>
                                <g transform="translate(0.000000, 2.998839)">
                                    <rect x="0.0469696335" y="0.325873888" width="1.0069445" height="1.01210832"></rect>
                                    <rect x="1.55738639" y="0.325873888" width="1.0069445" height="1.01210832"></rect>
                                </g>
                                <g transform="translate(0.000000, 4.498259)">
                                    <rect x="0.0469696335" y="0.354862669" width="1.0069445" height="1.01260812"></rect>
                                    <rect x="1.55738639" y="0.354862669" width="1.0069445" height="1.01260812"></rect>
                                </g>
                                <g transform="translate(0.000000, 5.997679)">
                                    <rect x="0.0469696335" y="0.383851451" width="1.0069445" height="1.01260812"></rect>
                                    <rect x="1.55738639" y="0.383851451" width="1.0069445" height="1.01260812"></rect>
                                </g>
                            </g>
                            <g transform="translate(45.738220, 7.497099)" id="Rectangle-path">
                                <g>
                                    <rect x="0.0448586387" y="0.158438685" width="1.0069445" height="1.01260812"></rect>
                                    <rect x="1.55527539" y="0.158438685" width="1.00747225" height="1.01260812"></rect>
                                </g>
                                <g transform="translate(0.000000, 1.499420)">
                                    <rect x="0.0448586387" y="0.187927273" width="1.0069445" height="1.01210832"></rect>
                                    <rect x="1.55527539" y="0.187927273" width="1.00747225" height="1.01210832"></rect>
                                </g>
                                <g transform="translate(0.000000, 2.998839)">
                                    <rect x="0.0448586387" y="0.216916054" width="1.0069445" height="1.01260812"></rect>
                                    <rect x="1.55527539" y="0.216916054" width="1.00747225" height="1.01260812"></rect>
                                </g>
                                <g transform="translate(0.000000, 4.498259)">
                                    <rect x="0.0448586387" y="0.245904836" width="1.0069445" height="1.01210832"></rect>
                                    <rect x="1.55527539" y="0.245904836" width="1.00747225" height="1.01210832"></rect>
                                </g>
                                <g transform="translate(0.000000, 5.997679)">
                                    <rect x="0.0448586387" y="0.274893617" width="1.0069445" height="1.01260812"></rect>
                                    <rect x="1.55527539" y="0.274893617" width="1.00747225" height="1.01260812"></rect>
                                </g>
                            </g>
                            <g transform="translate(28.586387, 6.174081)" id="Rectangle-path">
                                <g>
                                    <rect x="0.0635497382" y="0.325873888" width="1" height="1.01260812"></rect>
                                    <rect x="1.53303665" y="0.325873888" width="1" height="1.01260812"></rect>
                                </g>
                                <g transform="translate(0.000000, 1.499420)">
                                    <rect x="0.0635497382" y="0.355362476" width="1" height="1.01210832"></rect>
                                    <rect x="1.53303665" y="0.355362476" width="1" height="1.01210832"></rect>
                                </g>
                                <g transform="translate(0.000000, 2.998839)">
                                    <rect x="0.0635497382" y="0.384351257" width="1" height="1.01260812"></rect>
                                    <rect x="1.53303665" y="0.384351257" width="1" height="1.01260812"></rect>
                                </g>
                                <g transform="translate(0.000000, 4.498259)">
                                    <rect x="0.0635497382" y="0.413340039" width="1" height="1.01210832"></rect>
                                    <rect x="1.53303665" y="0.413340039" width="1" height="1.01210832"></rect>
                                </g>
                                <g transform="translate(0.000000, 6.438685)">
                                    <rect x="0.0635497382" y="0.00132301741" width="1" height="1.01260812"></rect>
                                    <rect x="1.53303665" y="0.00132301741" width="1" height="1.01260812"></rect>
                                </g>
                            </g>
                            <g transform="translate(0.000000, 12.348162)" id="Rectangle-path">
                                <g>
                                    <rect x="0.43304712" y="0.240593166" width="1" height="1"></rect>
                                    <rect x="1.90202094" y="0.240593166" width="1" height="1"></rect>
                                </g>
                                <g transform="translate(0.000000, 1.470019)">
                                    <rect x="0.43304712" y="0.269503546" width="1" height="1"></rect>
                                    <rect x="1.90202094" y="0.269503546" width="1" height="1"></rect>
                                </g>
                                <g transform="translate(0.000000, 2.940039)">
                                    <rect x="0.43304712" y="0.29792392" width="1" height="1"></rect>
                                    <rect x="1.90202094" y="0.29792392" width="1" height="1"></rect>
                                </g>
                            </g>
                        </g>
                    </g>
                    <ellipse id="Oval-3" fill="#FFBB41" cx="84" cy="108.046422" rx="84" ry="84.2321083"></ellipse>
                </g>
                <circle id="Oval-3-Copy" fill="#FFC55C" cx="131.5" cy="113.5" r="66.5"></circle>
                <circle id="Oval-3-Copy-2" stroke="#FFFFFF" stroke-width="4" stroke-dasharray="3,3,3,4" cx="131.5" cy="113.5" r="66.5"></circle>
                <circle id="Project-Progress" stroke="rgb(127, 173, 83)" stroke-width="4" stroke-dashoffset="810" stroke-dasharray="810" cx="131.5" cy="113.5" r="66.5" transform="rotate(-90 131.5 113.5)"></circle>
                <path d="M131.5,125.603613 C124.815379,125.603613 119.395415,120.184621 119.395415,113.5 C119.395415,106.814407 124.815379,101.395415 131.5,101.395415 C138.184621,101.395415 143.604585,106.814407 143.604585,113.5 C143.604585,120.184621 138.184621,125.603613 131.5,125.603613 M159,118.394479 L159,108.604549 L153.465421,108.604549 C152.889429,106.018897 151.868572,103.601282 150.484441,101.437182 L154.40663,97.5149936 L147.484035,90.5933703 L143.543391,94.5340138 C141.382205,93.1683385 138.97139,92.1620514 136.394479,91.5986861 L136.394479,86 L126.605521,86 L126.605521,91.6346249 C124.05095,92.2135314 121.661504,93.2285603 119.519744,94.5971496 L115.515965,90.5933703 L108.59337,97.5149936 L112.616576,101.539171 C111.26547,103.677045 110.265983,106.059692 109.698732,108.604549 L104,108.604549 L104,118.394479 L109.698732,118.394479 C110.265983,120.940308 111.26547,123.322955 112.616576,125.460829 L108.59337,129.484035 L115.515965,136.40663 L119.519744,132.401879 C121.661504,133.77144 124.05095,134.785497 126.605521,135.365375 L126.605521,141 L136.394479,141 L136.394479,135.401314 C138.97139,134.836977 141.382205,133.831661 143.543391,132.465015 L147.484035,136.40663 L154.40663,129.484035 L150.484441,125.561847 C151.868572,123.397747 152.889429,120.980132 153.465421,118.394479 L159,118.394479" id="Cog" fill="#FFFFFF"></path>
                <g id="Cloud" transform="translate(197.000000, 11.000000)" fill-rule="nonzero">
                    <path d="M33.989704,9.21829679 C34.1119691,8.85939827 34.1608752,8.47657318 34.1608752,8.09374809 C34.1608752,5.31826619 31.1287001,3.06916879 27.3873874,3.06916879 C26.2136422,3.06916879 25.0888031,3.2845079 24.1106821,3.69125956 C22.8880309,1.99247323 20.8584299,0.867924528 18.5842986,0.867924528 C15.7232947,0.867924528 13.2779923,2.614564 12.2754183,5.07900051 C11.6640927,4.98329424 11.028314,4.98329424 10.3925354,5.12685365 C8.09395109,5.60538501 6.43114543,7.54343702 6.01544402,9.9600204 C2.64092664,10.2232126 0,12.2569709 0,14.7214074 C0,17.3533299 3.03217503,19.5067211 6.77348777,19.5067211 C7.6048906,19.5067211 8.41184041,19.3870882 9.14543115,19.1956757 C10.3680824,20.8466089 12.3732304,21.9233044 14.6229086,21.9233044 C16.5791506,21.9233044 18.3153153,21.1098011 19.5624196,19.8177664 C20.5405405,21.7079653 22.3500644,23 24.4530245,23 C26.3359073,23 27.998713,21.9711576 29.02574,20.3920041 C29.7104247,20.6073432 30.4684685,20.726976 31.2265122,20.726976 C34.967825,20.726976 38,18.0232738 38,14.6974809 C37.975547,12.2569709 36.3371943,10.1514329 33.989704,9.21829679 Z" id="Shape" fill="#E0DEDE"></path>
                    <path d="M33.989704,8.35037226 C34.1119691,7.99147374 34.1608752,7.60864865 34.1608752,7.22582356 C34.1608752,4.45034166 31.1287001,2.20124426 27.3873874,2.20124426 C26.2136422,2.20124426 25.0888031,2.41658338 24.1106821,2.82333503 C22.8880309,1.1245487 20.8584299,0 18.5842986,0 C15.7232947,0 13.2779923,1.74663947 12.2754183,4.21107598 C11.6640927,4.11536971 11.028314,4.11536971 10.3925354,4.25892912 C8.09395109,4.73746048 6.43114543,6.67551249 6.01544402,9.09209587 C2.64092664,9.35528812 0,11.3890464 0,13.8534829 C0,16.4854054 3.03217503,18.6387965 6.77348777,18.6387965 C7.6048906,18.6387965 8.41184041,18.5191637 9.14543115,18.3277511 C10.3680824,19.9786843 12.3732304,21.0553799 14.6229086,21.0553799 C16.5791506,21.0553799 18.3153153,20.2418766 19.5624196,18.9498419 C20.5405405,20.8400408 22.3500644,22.1320755 24.4530245,22.1320755 C26.3359073,22.1320755 27.998713,21.103233 29.02574,19.5240796 C29.7104247,19.7394187 30.4684685,19.8590515 31.2265122,19.8590515 C34.967825,19.8590515 38,17.1553493 38,13.8295563 C37.975547,11.3890464 36.3371943,9.28350841 33.989704,8.35037226 Z" id="Shape" fill="#FFFFFF"></path>
                </g>
                <g id="Cloud-double-Group-19">
					<path d="M52.6979665,15.1047059 C52.8726077,14.5388235 52.9599282,13.9294118 52.9599282,13.32 C52.9599282,8.96705882 48.2882775,5.44117647 42.5251196,5.44117647 C40.6913876,5.44117647 38.9886364,5.78941176 37.5041866,6.44235294 C35.6267943,3.78705882 32.4832536,2.00235294 28.9904306,2.00235294 C24.5807416,2.00235294 20.7822967,4.74470588 19.2978469,8.61882353 C18.3373206,8.48823529 17.3767943,8.48823529 16.3726077,8.70588235 C12.8361244,9.44588235 10.3038278,12.5364706 9.60526316,16.28 C4.36602871,16.6717647 0.30562201,19.8929412 0.30562201,23.7670588 C0.30562201,27.9023529 4.97727273,31.2976471 10.7404306,31.2976471 C12.0502392,31.2976471 13.2727273,31.1235294 14.4078947,30.8188235 C16.2852871,33.4305882 19.3851675,35.1282353 22.8343301,35.1282353 C25.84689,35.1282353 28.5538278,33.8658824 30.4312201,31.82 C31.9156699,34.78 34.7535885,36.7823529 37.9844498,36.7823529 C40.8660287,36.7823529 43.4419856,35.1717647 45.013756,32.6905882 C46.0616029,33.0388235 47.2404306,33.2129412 48.4192584,33.2129412 C54.1824163,33.2129412 58.854067,28.9905882 58.854067,23.7670588 C58.854067,19.8929412 56.3217703,16.5847059 52.6979665,15.1047059 Z" id="Shape" fill="#C9C7C7"></path>
					<path d="M52.6979665,13.1458824 C52.8726077,12.58 52.9599282,11.9705882 52.9599282,11.3611765 C52.9599282,7.00823529 48.2882775,3.48235294 42.5251196,3.48235294 C40.6913876,3.48235294 38.9886364,3.83058824 37.5041866,4.48352941 C35.6267943,1.82823529 32.4832536,0.0435294118 28.9904306,0.0435294118 C24.5807416,0.0435294118 20.7822967,2.78588235 19.2978469,6.66 C18.3373206,6.52941176 17.3767943,6.52941176 16.3726077,6.74705882 C12.8361244,7.48705882 10.3038278,10.5776471 9.60526316,14.3211765 C4.36602871,14.7129412 0.30562201,17.9341176 0.30562201,21.8082353 C0.30562201,25.9435294 4.97727273,29.3388235 10.7404306,29.3388235 C12.0502392,29.3388235 13.2727273,29.1647059 14.4078947,28.86 C16.2852871,31.4717647 19.3851675,33.1694118 22.8343301,33.1694118 C25.84689,33.1694118 28.5538278,31.9070588 30.4312201,29.8611765 C31.9156699,32.8211765 34.7535885,34.8235294 37.9844498,34.8235294 C40.8660287,34.8235294 43.4419856,33.2129412 45.013756,30.7317647 C46.0616029,31.08 47.2404306,31.2541176 48.4192584,31.2541176 C54.1824163,31.2541176 58.854067,27.0317647 58.854067,21.8082353 C58.854067,17.9341176 56.3217703,14.6258824 52.6979665,13.1458824 Z" id="Shape" fill="#FFFFFF"></path>
				</g>
				<g id="Cloud-double-Group-19-Copy" transform="translate(41.477273, 4.788235)">
					<path d="M27.3487257,7.59394832 C27.4398881,7.30357064 27.4854693,6.99085622 27.4854693,6.67814179 C27.4854693,4.44446735 25.0468746,2.63519105 22.0385148,2.63519105 C21.0813094,2.63519105 20.1924758,2.813885 19.4175952,3.14893617 C18.4375992,1.78639476 16.7966757,0.870588235 14.9734273,0.870588235 C12.6715762,0.870588235 10.6887936,2.27780314 9.91391306,4.26577339 C9.41251976,4.19876316 8.91112645,4.19876316 8.38694254,4.31044688 C6.54090356,4.69017154 5.21904849,6.27608039 4.85439881,8.19704042 C2.11952624,8.39807112 0,10.0509902 0,12.0389605 C0,14.1609512 2.43859471,15.9032173 5.44695453,15.9032173 C6.13067268,15.9032173 6.76880961,15.8138703 7.36136533,15.6575131 C8.34136134,16.9977177 9.95949427,17.8688508 11.759952,17.8688508 C13.3325038,17.8688508 14.7455213,17.2210852 15.7255173,16.1712582 C16.5003978,17.6901568 17.9817871,18.7176471 19.6682919,18.7176471 C21.1724718,18.7176471 22.5171175,17.8911875 23.3375793,16.6179931 C23.8845538,16.796687 24.4999001,16.886034 25.1152464,16.886034 C28.1236062,16.886034 30.562201,14.7193698 30.562201,12.0389605 C30.562201,10.0509902 29.2403459,8.35339763 27.3487257,7.59394832 Z" id="Shape" fill="#C9C7C7"></path>
					<path d="M27.3487257,6.72336008 C27.4398881,6.4329824 27.4854693,6.12026798 27.4854693,5.80755356 C27.4854693,3.57387911 25.0468746,1.76460281 22.0385148,1.76460281 C21.0813094,1.76460281 20.1924758,1.94329677 19.4175952,2.27834793 C18.4375992,0.915806523 16.7966757,0 14.9734273,0 C12.6715762,0 10.6887936,1.4072149 9.91391306,3.39518516 C9.41251976,3.32817492 8.91112645,3.32817492 8.38694254,3.43985865 C6.54090356,3.8195833 5.21904849,5.40549216 4.85439881,7.32645218 C2.11952624,7.52748288 0,9.18040197 0,11.1683722 C0,13.290363 2.43859471,15.032629 5.44695453,15.032629 C6.13067268,15.032629 6.76880961,14.943282 7.36136533,14.7869248 C8.34136134,16.1271295 9.95949427,16.9982625 11.759952,16.9982625 C13.3325038,16.9982625 14.7455213,16.3504969 15.7255173,15.30067 C16.5003978,16.8195686 17.9817871,17.8470588 19.6682919,17.8470588 C21.1724718,17.8470588 22.5171175,17.0205993 23.3375793,15.7474048 C23.8845538,15.9260988 24.4999001,16.0154458 25.1152464,16.0154458 C28.1236062,16.0154458 30.562201,13.8487816 30.562201,11.1683722 C30.562201,9.18040197 29.2403459,7.48280939 27.3487257,6.72336008 Z" id="Shape" fill="#F2F2F2"></path>
				</g>
            </g>
        </g>
    </g>
</svg>