<?xml version="1.0" encoding="UTF-8"?>
<svg width="58px" height="61px" viewBox="0 0 58 61" version="1.1" xmlns="http://www.w3.org/2000/svg" xmlns:xlink="http://www.w3.org/1999/xlink">
    <!-- Generator: Sketch 45.2 (43514) - http://www.bohemiancoding.com/sketch -->
    <title>Prod-Management-icon</title>
    <desc>Created with Sketch.</desc>
    <defs></defs>
    <g id="Page-1" stroke="none" stroke-width="1" fill="none" fill-rule="evenodd">
        <g id="[Services]-Soft-Dev" transform="translate(-1065.000000, -1638.000000)">
            <g id="Prod-Management-icon" transform="translate(1065.000000, 1638.000000)">
                <path d="M3.17893669,55.8670949 L54.5668425,55.8670949 L54.5668425,16.6014988 L3.17893669,16.6014988 L3.17893669,55.8670949 Z M55.8391234,55.9110268 L55.8391234,16.6858005 C57.0678571,16.4685158 58,15.4224623 58,14.1638735 C58,12.74618 56.8206981,11.5968273 55.3648133,11.5968273 L31.4174513,11.5968273 L31.4174513,5.51879319 L38.0307224,5.51879319 L38.0307224,0 L19.0795049,0 L19.0795049,5.51879319 L26.2012175,5.51879319 L26.2012175,11.5968273 L2.63518669,11.5968273 C1.1804789,11.5968273 0,12.74618 0,14.1638735 C0,15.4224623 0.932142857,16.4685158 2.16205357,16.6858005 L2.16205357,55.9110268 C0.932142857,56.1294988 0,57.174365 0,58.4341411 C0,59.8506472 1.1804789,61 2.63518669,61 L55.3648133,61 C56.8206981,61 58,59.8506472 58,58.4341411 C58,57.174365 57.0678571,56.1294988 55.8391234,55.9110268 L55.8391234,55.9110268 Z" id="Fill-221" fill="#FFBB41"></path>
                <polyline id="Fill-220" fill="#000000" points="48 51.4746844 46.1750292 51.4746844 46.1750292 26.632347 38.8763127 26.632347 38.8763127 51.4746844 35.9288215 51.4746844 35.9288215 19 28.6312719 19 28.6312719 51.4746844 26.8063011 51.4746844 26.8063011 25.6620062 19.5087515 25.6620062 19.5087515 51.4746844 17.5425904 51.4746844 17.5425904 31.0744536 10.2450408 31.0744536 10.2450408 51.4746844 8 51.4746844 8 53 48 53 48 51.4746844"></polyline>
            </g>
        </g>
    </g>
</svg>