<?xml version="1.0" encoding="UTF-8"?>
<svg width="15px" height="11px" viewBox="0 0 15 11" version="1.1" xmlns="http://www.w3.org/2000/svg" xmlns:xlink="http://www.w3.org/1999/xlink">
    <!-- Generator: Sketch 45.1 (43504) - http://www.bohemiancoding.com/sketch -->
    <title>Contact-icon</title>
    <desc>Created with Sketch.</desc>
    <defs></defs>
    <g id="Page-1" stroke="none" stroke-width="1" fill="none" fill-rule="evenodd">
        <g id="Home-Page" transform="translate(-1418.000000, -61.000000)" fill-rule="nonzero" fill="#FFBB41">
            <g id="HEADER" transform="translate(0.000000, 37.000000)">
                <g id="user" transform="translate(1306.000000, 23.000000)">
                    <g id="Group-5">
                        <g id="Contact-icon" transform="translate(112.000000, 1.000000)">
                            <path d="M14.0625,0 L0.9375,0 C0.42,0 0,0.410666667 0,0.916666667 L0,10.0833333 C0,10.5893333 0.42,11 0.9375,11 L14.0625,11 C14.58,11 15,10.5893333 15,10.0833333 L15,0.916666667 C15,0.410666667 14.58,0 14.0625,0 Z M12.766875,1.83333333 L7.5,5.34508333 L2.233125,1.83333333 L12.766875,1.83333333 Z M13.125,8.70833333 C13.125,8.96133333 12.915,9.16666667 12.65625,9.16666667 L2.34375,9.16666667 C2.085,9.16666667 1.875,8.96133333 1.875,8.70833333 L1.875,3.79225 L7.0284375,7.205 C7.17375,7.29025 7.336875,7.33241667 7.5,7.33241667 C7.663125,7.33241667 7.82625,7.29025 7.9715625,7.205 L13.125,3.79225 L13.125,8.70833333 Z" id="Shape"></path>
                        </g>
                    </g>
                </g>
            </g>
        </g>
    </g>
</svg>