<?xml version="1.0" encoding="UTF-8"?>
<svg width="22px" height="22px" viewBox="0 0 22 22" version="1.1" xmlns="http://www.w3.org/2000/svg" xmlns:xlink="http://www.w3.org/1999/xlink">
    <!-- Generator: Sketch 45.1 (43504) - http://www.bohemiancoding.com/sketch -->
    <title>facebook-icon</title>
    <desc>Created with Sketch.</desc>
    <defs></defs>
    <g id="Page-1" stroke="none" stroke-width="1" fill="none" fill-rule="evenodd">
        <g id="Home-Page" transform="translate(-1204.000000, -7337.000000)" fill-rule="nonzero" fill="#FFBB41">
            <g id="footer" transform="translate(0.000000, 7020.000000)">
                <g id="facebook-icon" transform="translate(1204.000000, 317.000000)">
                    <path d="M19.9375,0 L2.0625,0 C0.928125,0 0,0.928125 0,2.0625 L0,19.9375 C0,21.071875 0.928125,22 2.0625,22 L11,22 L11,12.375 L8.25,12.375 L8.25,9.625 L11,9.625 L11,8.25 C11,5.977125 12.852125,4.125 15.125,4.125 L17.875,4.125 L17.875,6.875 L15.125,6.875 C14.36875,6.875 13.75,7.49375 13.75,8.25 L13.75,9.625 L17.875,9.625 L17.1875,12.375 L13.75,12.375 L13.75,22 L19.9375,22 C21.071875,22 22,21.071875 22,19.9375 L22,2.0625 C22,0.928125 21.071875,0 19.9375,0 Z" id="Shape"></path>
                </g>
            </g>
        </g>
    </g>
</svg>