<?xml version="1.0" encoding="UTF-8"?>
<svg width="119px" height="195px" viewBox="0 0 119 195" version="1.1" xmlns="http://www.w3.org/2000/svg" xmlns:xlink="http://www.w3.org/1999/xlink">
    <!-- Generator: Sketch 45.2 (43514) - http://www.bohemiancoding.com/sketch -->
    <title>graphics</title>
    <desc>Created with Sketch.</desc>
    <defs></defs>
    <g id="Page-1" stroke="none" stroke-width="1" fill="none" fill-rule="evenodd">
        <g id="Referral" transform="translate(-458.000000, -296.000000)" fill-rule="nonzero" fill="#000000">
            <g id="graphics" transform="translate(458.000000, 296.000000)">
                <g id="Group">
                    <g transform="translate(22.666667, 103.931398)" id="Shape">
                        <path d="M16.4977273,16.3002507 L16.4977273,21.5848021 C17.969,21.2688918 18.812303,20.3124142 18.812303,19.0091557 C18.8117879,17.4934037 17.8314545,16.9145778 16.4977273,16.3002507 Z"></path>
                        <path d="M12.4460606,10.6915567 C12.4460606,12.1517414 13.6875758,12.7779024 14.8868485,13.3001319 L14.8868485,8.32068602 C13.3965152,8.51568602 12.4460606,9.3903562 12.4460606,10.6915567 Z"></path>
                        <path d="M15.2515758,0.111134565 C7.03748485,0.111134565 0.354939394,6.78538259 0.354939394,14.9887599 C0.354939394,23.1926517 7.03748485,29.8663852 15.2515758,29.8663852 C23.4656667,29.8663852 30.147697,23.1921372 30.147697,14.9887599 C30.147697,6.78538259 23.4656667,0.111134565 15.2515758,0.111134565 Z M16.4977273,23.4447625 L16.4977273,24.5838918 C16.4977273,24.9497098 16.2004848,25.2465831 15.8342121,25.2465831 L15.5508788,25.2465831 C15.1840909,25.2465831 14.8873636,24.9497098 14.8873636,24.5838918 L14.8873636,23.5214248 C12.7525758,23.4118338 10.8985455,22.4857124 9.5529697,21.0949868 L10.8109697,19.6373747 C11.8840303,20.7548945 13.3316061,21.5338654 14.8873636,21.6702111 L14.8873636,15.5902243 L13.6793333,15.0643931 C12.144697,14.4109631 10.3329091,13.2301583 10.3329091,10.8176121 C10.3329091,8.49150396 12.2307273,6.72878628 14.8868485,6.47873351 L14.8868485,5.39362797 C14.8868485,5.02781003 15.1840909,4.73093668 15.5503636,4.73093668 L15.833697,4.73093668 C16.2004848,4.73093668 16.4972121,5.02781003 16.4972121,5.39362797 L16.4972121,6.51937995 C18.0622424,6.73907652 19.4320303,7.4748285 20.3963939,8.4801847 L19.2893333,9.83695251 C18.5052727,9.09245383 17.5805758,8.56662269 16.4972121,8.36905013 L16.4972121,13.9870053 L17.5537879,14.4361741 C19.4660303,15.2655673 20.950697,16.3959499 20.950697,18.8337071 C20.950697,21.1356332 19.2702727,23.0264644 16.4977273,23.4447625 Z"></path>
                    </g>
                    <g transform="translate(52.545455, 86.952507)" id="Shape">
                        <path d="M10.618303,10.7687335 L10.618303,14.1567942 C11.5615455,13.9540765 12.1019394,13.3412929 12.1019394,12.5057256 C12.1019394,11.5338127 11.4734545,11.1623351 10.618303,10.7687335 Z"></path>
                        <path d="M8.02090909,7.17281003 C8.02090909,8.10922164 8.81681818,8.5105409 9.58593939,8.84548813 L9.58593939,5.65294195 C8.62981818,5.77745383 8.02090909,6.33878628 8.02090909,7.17281003 Z"></path>
                        <path d="M9.81930303,0.389485488 C4.55342424,0.389485488 0.268909091,4.66816623 0.268909091,9.92802111 C0.268909091,15.1873615 4.55342424,19.4665567 9.81930303,19.4665567 C15.0851818,19.4665567 19.369697,15.187876 19.369697,9.92802111 C19.369697,4.66816623 15.085697,0.389485488 9.81930303,0.389485488 Z M10.618303,15.3489182 L10.618303,16.0795251 C10.618303,16.3141425 10.427697,16.5045119 10.1927879,16.5045119 L10.0114545,16.5045119 C9.77654545,16.5045119 9.58593939,16.3141425 9.58593939,16.0795251 L9.58593939,15.3983113 C8.21718182,15.3278232 7.02872727,14.7340765 6.16584848,13.8424274 L6.97257576,12.9080739 C7.66081818,13.6247889 8.58860606,14.1238654 9.58593939,14.2113325 L9.58593939,10.3133905 L8.81166667,9.97638522 C7.82772727,9.55757256 6.66657576,8.80021108 6.66657576,7.25358839 C6.66657576,5.76253298 7.88336364,4.6321504 9.58645455,4.47162269 L9.58645455,3.77600264 C9.58645455,3.54138522 9.77706061,3.35101583 10.0119697,3.35101583 L10.193303,3.35101583 C10.4282121,3.35101583 10.6188182,3.54138522 10.6188182,3.77600264 L10.6188182,4.4978628 C11.6223333,4.63883905 12.5001515,5.11064644 13.1188485,5.7548153 L12.4089697,6.62485488 C11.9061818,6.14790237 11.3137576,5.81038259 10.6188182,5.68381266 L10.6188182,9.28539578 L11.2962424,9.57300792 C12.522303,10.1044987 13.4737879,10.8294459 13.4737879,12.392533 C13.4732727,13.8686675 12.3960909,15.0808575 10.618303,15.3489182 Z"></path>
                    </g>
                    <g transform="translate(51.000000, 63.799472)" id="Shape">
                        <path d="M7.30793939,7.37192612 L7.30793939,9.74897098 C7.96939394,9.6069657 8.34906061,9.17683377 8.34906061,8.59080475 C8.34906061,7.90856201 7.90757576,7.648219 7.30793939,7.37192612 Z"></path>
                        <path d="M5.48584848,4.84927441 C5.48584848,5.50579156 6.04427273,5.78774406 6.58363636,6.02236148 L6.58363636,3.78269129 C5.91290909,3.87067282 5.48584848,4.26427441 5.48584848,4.84927441 Z"></path>
                        <path d="M6.74745455,0.0905540897 C3.05330303,0.0905540897 0.0473939394,3.09221636 0.0473939394,6.78229551 C0.0473939394,10.4718602 3.05278788,13.4735224 6.74745455,13.4735224 C10.4421212,13.4735224 13.447,10.4718602 13.447,6.78229551 C13.4475152,3.09221636 10.4421212,0.0905540897 6.74745455,0.0905540897 Z M7.30793939,10.5850528 L7.30793939,11.0975066 C7.30793939,11.2621504 7.17451515,11.395409 7.00966667,11.395409 L6.88242424,11.395409 C6.71757576,11.395409 6.58415152,11.2621504 6.58415152,11.0975066 L6.58415152,10.6195251 C5.62390909,10.5701319 4.78987879,10.1533773 4.18509091,9.52824538 L4.75072727,8.87275726 C5.23342424,9.37543536 5.88457576,9.72581794 6.58415152,9.78704485 L6.58415152,7.05241425 L6.04066667,6.81573879 C5.35036364,6.52195251 4.53590909,5.99046174 4.53590909,4.90587071 C4.53590909,3.85986807 5.38951515,3.06700528 6.58415152,2.95432718 L6.58415152,2.46656992 C6.58415152,2.30192612 6.71757576,2.16866755 6.88242424,2.16866755 L7.00966667,2.16866755 C7.17451515,2.16866755 7.30793939,2.30192612 7.30793939,2.46656992 L7.30793939,2.9728496 C8.01163636,3.07163588 8.62775758,3.40246702 9.06151515,3.85472296 L8.56336364,4.46493404 C8.21048485,4.12998681 7.79475758,3.89382586 7.30742424,3.8048153 L7.30742424,6.33158311 L7.78239394,6.53378628 C8.64269697,6.90680739 9.31033333,7.41514512 9.31033333,8.51156992 C9.31084848,9.54676781 8.55512121,10.3967414 7.30793939,10.5850528 Z"></path>
                    </g>
                    <g transform="translate(65.424242, 117.308707)" id="Shape">
                        <path d="M9.08160606,8.90722955 L9.08160606,11.7241821 C9.86566667,11.5559367 10.3153939,11.0460554 10.3153939,10.3514644 C10.3153939,9.54316623 9.79251515,9.2344591 9.08160606,8.90722955 Z"></path>
                        <path d="M6.92260606,5.91740106 C6.92260606,6.69585752 7.58406061,7.02926121 8.22336364,7.30812665 L8.22336364,4.65375989 C7.429,4.75769129 6.92260606,5.22383905 6.92260606,5.91740106 Z"></path>
                        <path d="M8.41757576,0.277836412 C4.03930303,0.277836412 0.477545455,3.8351715 0.477545455,8.20800792 C0.477545455,12.5808443 4.03930303,16.1381794 8.41757576,16.1381794 C12.7958485,16.1381794 16.3576061,12.5808443 16.3576061,8.20800792 C16.3576061,3.8351715 12.7958485,0.277836412 8.41757576,0.277836412 Z M9.08160606,12.7151319 L9.08160606,13.3222559 C9.08160606,13.5172559 8.92345455,13.6757256 8.72769697,13.6757256 L8.57675758,13.6757256 C8.38151515,13.6757256 8.22284848,13.5177704 8.22284848,13.3222559 L8.22284848,12.7562929 C7.08487879,12.698153 6.09681818,12.2042216 5.37972727,11.46281 L6.05045455,10.6858971 C6.62278788,11.2817018 7.3939697,11.6969129 8.22336364,11.7694591 L8.22336364,8.52854881 L7.57942424,8.24813984 C6.76136364,7.8998153 5.7959697,7.27056728 5.7959697,5.9842876 C5.7959697,4.74431398 6.80772727,3.8048153 8.22336364,3.67155673 L8.22336364,3.09324538 C8.22336364,2.89824538 8.38151515,2.73977573 8.57727273,2.73977573 L8.72821212,2.73977573 C8.92345455,2.73977573 9.08212121,2.89773087 9.08212121,3.09324538 L9.08212121,3.69316623 C9.91615152,3.81047493 10.6461212,4.20253298 11.1607576,4.73813984 L10.5703939,5.46154354 C10.1526061,5.06485488 9.65960606,4.78444591 9.08212121,4.67897098 L9.08212121,7.67343008 L9.64518182,7.9126781 C10.6646667,8.3546438 11.4559394,8.95765172 11.4559394,10.2567942 C11.4554242,11.4844195 10.5595758,12.4918338 9.08160606,12.7151319 Z"></path>
                    </g>
                    <g transform="translate(48.424242, 6.174142)" id="Shape">
                        <path d="M8.70657576,8.88047493 L8.70657576,11.6974274 C9.49063636,11.5291821 9.94036364,11.0193008 9.94036364,10.3247098 C9.93984848,9.51641161 9.41748485,9.20770449 8.70657576,8.88047493 Z"></path>
                        <path d="M6.54706061,5.89116095 C6.54706061,6.66961741 7.20851515,7.00302111 7.84781818,7.28137203 L7.84781818,4.62700528 C7.05345455,4.73093668 6.54706061,5.19759894 6.54706061,5.89116095 Z"></path>
                        <path d="M8.04254545,0.251081794 C3.66427273,0.251081794 0.102515152,3.80841689 0.102515152,8.1812533 C0.102515152,12.5540897 3.66427273,16.1114248 8.04254545,16.1114248 C12.4208182,16.1114248 15.9825758,12.5540897 15.9825758,8.1812533 C15.9825758,3.8089314 12.4208182,0.251081794 8.04254545,0.251081794 Z M8.70657576,12.6883773 L8.70657576,13.2955013 C8.70657576,13.4905013 8.54842424,13.648971 8.35266667,13.648971 L8.20172727,13.648971 C8.00648485,13.648971 7.84781818,13.4910158 7.84781818,13.2955013 L7.84781818,12.7295383 C6.70984848,12.6708839 5.72178788,12.177467 5.00469697,11.4360554 L5.67542424,10.6591425 C6.24724242,11.2549472 7.01893939,11.6701583 7.84833333,11.7427045 L7.84833333,8.5017942 L7.20439394,8.22138522 C6.38633333,7.87306069 5.42093939,7.24381266 5.42093939,5.95804749 C5.42093939,4.71807388 6.43269697,3.7785752 7.84833333,3.64531662 L7.84833333,3.06700528 C7.84833333,2.87200528 8.00648485,2.71353562 8.20224242,2.71353562 L8.35318182,2.71353562 C8.54842424,2.71353562 8.70709091,2.87200528 8.70709091,3.06700528 L8.70709091,3.66692612 C9.54112121,3.78423483 10.2710909,4.17629288 10.7857273,4.71241425 L10.1953636,5.43581794 C9.77757576,5.03912929 9.28457576,4.75872032 8.70709091,4.65324538 L8.70709091,7.64770449 L9.27015152,7.88695251 C10.2896364,8.32891821 11.0809091,8.93141161 11.0809091,10.2310686 C11.0798788,11.4576649 10.1845455,12.4655937 8.70657576,12.6883773 Z"></path>
                    </g>
                    <path d="M11.3214848,138.573997 C12.7098182,163.987282 33.7800303,184.167982 59.5721212,184.167982 C85.363697,184.167982 106.434424,163.987282 107.822758,138.573997 L11.3214848,138.573997 Z" id="Shape"></path>
                    <path d="M59.5721212,194.972731 C26.9604545,194.972731 0.428606061,168.473826 0.428606061,135.902652 C0.428606061,122.2969 5.17366667,109.015805 13.7890606,98.5074142 C21.8393333,88.6884697 32.912,81.6767018 45.1478788,78.6066095 L45.1478788,41.5025858 C45.1478788,40.081504 46.3007879,38.9300264 47.7236364,38.9300264 L71.4206061,38.9300264 C72.8434545,38.9300264 73.9963636,40.081504 73.9963636,41.5025858 L73.9963636,78.6066095 C86.2322424,81.6767018 97.3049091,88.6884697 105.355697,98.5074142 C113.971091,109.015805 118.715636,122.295871 118.715636,135.902652 C118.715636,168.473826 92.1837879,194.972731 59.5721212,194.972731 Z M50.2993939,44.0756596 L50.2993939,80.6507652 C50.2993939,81.8644987 49.4499091,82.9135884 48.2604242,83.1672427 C23.5300606,88.4312137 5.58012121,110.610277 5.58012121,135.903166 C5.58012121,165.637322 29.801,189.828127 59.5721212,189.828127 C89.3437576,189.828127 113.564636,165.637322 113.564636,135.903166 C113.564636,110.610277 95.614697,88.4312137 70.8843333,83.1672427 C69.6948485,82.9141029 68.8453636,81.8650132 68.8453636,80.6507652 L68.8453636,44.0756596 L50.2993939,44.0756596 Z" id="Shape"></path>
                    <rect id="Rectangle-path" x="39.9963636" y="27.7826121" width="39.1515152" height="9.26121372"></rect>
                    <path d="M72.7450606,16.0218997 C72.5029394,15.9941161 72.2201212,15.9709631 71.9172121,15.9555277 C71.6812727,15.9426649 71.4324545,15.9354617 71.1815758,15.9323747 C71.1784848,15.6818074 71.1712727,15.4332982 71.1583939,15.1976517 C71.1429394,14.8951187 71.1197576,14.6126517 71.0919394,14.3708311 C71.0409394,13.8866755 70.968303,13.5640765 70.968303,13.5640765 C70.968303,13.5640765 70.8961818,13.8866755 70.8446667,14.3708311 C70.8168485,14.6126517 70.7936667,14.8951187 70.7782121,15.1976517 C70.7653333,15.4332982 70.7581212,15.6818074 70.7550303,15.9323747 C70.5041515,15.9354617 70.2553333,15.9421504 70.0193939,15.9550132 C69.7164848,15.969934 69.4336667,15.9930871 69.1915455,16.0213852 C68.707303,16.0728364 68.3837879,16.1453826 68.3837879,16.1453826 C68.3837879,16.1453826 68.7067879,16.2179288 69.1915455,16.2693799 C69.4336667,16.2971636 69.7164848,16.3203166 70.0193939,16.335752 C70.2553333,16.3486148 70.5041515,16.3553034 70.7550303,16.3583905 C70.7581212,16.6089578 70.7648182,16.857467 70.777697,17.0931135 C70.7926364,17.3956464 70.8158182,17.6775989 70.8441515,17.919934 C70.8956667,18.4035752 70.968303,18.7266887 70.968303,18.7266887 C70.968303,18.7266887 71.0409394,18.4040897 71.0924545,17.919934 C71.1202727,17.6781135 71.1434545,17.3956464 71.1589091,17.0931135 C71.1717879,16.857467 71.1784848,16.6089578 71.1815758,16.3583905 C71.4324545,16.3553034 71.6812727,16.3481003 71.9172121,16.3352375 C72.2201212,16.3198021 72.5029394,16.2966491 72.7450606,16.2688654 C73.229303,16.2179288 73.5528182,16.1453826 73.5528182,16.1453826 C73.5528182,16.1453826 73.2298182,16.0728364 72.7450606,16.0218997 Z" id="Shape"></path>
                    <path d="M66.8352424,3.31654354 C66.5565455,3.2846438 66.232,3.25788918 65.8837576,3.24039578 C65.6127879,3.22598945 65.3263636,3.21775726 65.0378788,3.21364116 C65.0342727,2.92551451 65.0260303,2.63996042 65.0110909,2.36881266 C64.9935758,2.02100264 64.9667879,1.69686016 64.9348485,1.41850923 C64.8761212,0.8623219 64.7926667,0.491358839 64.7926667,0.491358839 C64.7926667,0.491358839 64.7097273,0.8623219 64.6504848,1.41850923 C64.6185455,1.69686016 64.5917576,2.02100264 64.5742424,2.36881266 C64.5598182,2.63944591 64.5515758,2.92551451 64.5474545,3.21364116 C64.2589697,3.21724274 63.9725455,3.22496042 63.7015758,3.23988127 C63.3533333,3.25737467 63.0287879,3.28361478 62.7500909,3.31602902 C62.1932121,3.37519789 61.8217879,3.45854881 61.8217879,3.45854881 C61.8217879,3.45854881 62.1932121,3.54189974 62.7500909,3.6010686 C63.0287879,3.63296834 63.3533333,3.65972296 63.7015758,3.67721636 C63.9725455,3.6921372 64.2589697,3.69985488 64.5474545,3.70345646 C64.5510606,3.99158311 64.5587879,4.2771372 64.5737273,4.54828496 C64.5912424,4.89609499 64.6180303,5.22023747 64.6499697,5.49858839 C64.7092121,6.05477573 64.7926667,6.42573879 64.7926667,6.42573879 C64.7926667,6.42573879 64.8761212,6.05477573 64.9353636,5.49858839 C64.967303,5.22023747 64.9940909,4.89609499 65.0116061,4.54828496 C65.0265455,4.27765172 65.0342727,3.99158311 65.0378788,3.70345646 C65.3263636,3.69985488 65.6122727,3.69162269 65.8837576,3.67670185 C66.232,3.65920844 66.5565455,3.63245383 66.8352424,3.60055409 C67.3921212,3.54189974 67.7635455,3.45854881 67.7635455,3.45854881 C67.7635455,3.45854881 67.3921212,3.3757124 66.8352424,3.31654354 Z" id="Shape"></path>
                    <path d="M70.6025455,9.14184697 C70.2800606,9.10480211 69.9034848,9.0739314 69.4996061,9.05335092 C69.1853636,9.03637203 68.8536061,9.02711082 68.5192727,9.02248021 C68.5151515,8.68856201 68.5053636,8.35721636 68.4883636,8.04336412 C68.4677576,7.64050132 68.4373636,7.26439314 68.3997576,6.9417942 C68.3312424,6.29711082 68.2354242,5.8674934 68.2354242,5.8674934 C68.2354242,5.8674934 68.1390909,6.29711082 68.0705758,6.9417942 C68.0334848,7.26439314 68.0025758,7.64050132 67.9819697,8.04336412 C67.9649697,8.35721636 67.955697,8.68856201 67.9510606,9.02248021 C67.6167273,9.02659631 67.2849697,9.03585752 66.9707273,9.05283641 C66.5673636,9.07290237 66.1907879,9.10377309 65.8677879,9.14081794 C65.222303,9.20924802 64.7916364,9.30597625 64.7916364,9.30597625 C64.7916364,9.30597625 65.222303,9.40270449 65.8677879,9.47113456 C66.1902727,9.50817942 66.5673636,9.53905013 66.9707273,9.55911609 C67.2849697,9.5766095 67.6167273,9.5853562 67.9505455,9.5894723 C67.9546667,9.9233905 67.9639394,10.2547361 67.9809394,10.5685884 C68.0010303,10.9714512 68.0319394,11.3475594 68.0690303,11.6701583 C68.1375455,12.3148417 68.2343939,12.7444591 68.2343939,12.7444591 C68.2343939,12.7444591 68.3312424,12.3148417 68.3997576,11.6701583 C68.4368485,11.3475594 68.4677576,10.9719657 68.4878485,10.5685884 C68.5053636,10.2547361 68.5141212,9.9233905 68.5182424,9.5894723 C68.8525758,9.5853562 69.1843333,9.57558047 69.4980606,9.55860158 C69.9014242,9.53802111 70.278,9.5071504 70.601,9.47010554 C71.2464848,9.40218997 71.6766364,9.30597625 71.6766364,9.30597625 C71.6766364,9.30597625 71.2480303,9.20976253 70.6025455,9.14184697 Z" id="Shape"></path>
                </g>
            </g>
        </g>
    </g>
</svg>