<?xml version="1.0" encoding="UTF-8"?>
<svg width="12px" height="12px" viewBox="0 0 12 12" version="1.1" xmlns="http://www.w3.org/2000/svg" xmlns:xlink="http://www.w3.org/1999/xlink">
    <!-- Generator: Sketch 45.1 (43504) - http://www.bohemiancoding.com/sketch -->
    <title>Login-icon</title>
    <desc>Created with Sketch.</desc>
    <defs></defs>
    <g id="Page-1" stroke="none" stroke-width="1" fill="none" fill-rule="evenodd">
        <g id="Home-Page" transform="translate(-1527.000000, -60.000000)" fill-rule="nonzero" fill="#FFBB41">
            <g id="HEADER" transform="translate(0.000000, 37.000000)">
                <g id="user" transform="translate(1306.000000, 23.000000)">
                    <g id="Group-5">
                        <g id="Login-icon" transform="translate(221.000000, 0.000000)">
                            <path d="M9.53684605,4.9905 L9.53609601,4.9905 C9.67260454,4.60125 9.75060941,4.18575 9.75060941,3.75 C9.75060941,1.67925 8.0720045,0 6.00037502,0 C3.92874555,0 2.25014063,1.67925 2.25014063,3.75 C2.25014063,4.18575 2.32814551,4.60125 2.46465404,4.9905 L2.46465404,4.9905 C1.00356272,5.73375 0,7.248 0,8.99925 L0,11.24925 C0,11.664 0.336021001,12 0.750796925,12 L11.2492031,12 C11.663979,12 12,11.664 12,11.24925 L12,8.99925 C12,7.24725 10.9971873,5.73375 9.53534596,4.9905 L9.53684605,4.9905 Z M6.00112507,1.5 C7.24170261,1.5 8.2512657,2.5095 8.2512657,3.75 C8.2512657,4.9905 7.24170261,6 6.00112507,6 C4.76054753,6 3.75098444,4.9905 3.75098444,3.75 C3.75098444,2.5095 4.76054753,1.5 6.00112507,1.5 Z M10.5014063,10.5 L1.5008438,10.5 L1.5008438,8.99925 C1.5008438,7.79625 2.21488843,6.759 3.23945247,6.28125 C3.92499531,7.029 4.90680668,7.5 6.00112507,7.5 C7.09544347,7.5 8.07725483,7.029 8.76279767,6.28125 C9.78736171,6.75825 10.5014063,7.79625 10.5014063,8.99925 L10.5014063,10.5 Z" id="Shape"></path>
                        </g>
                    </g>
                </g>
            </g>
        </g>
    </g>
</svg>