<?xml version="1.0" encoding="UTF-8"?>
<svg width="420px" height="421px" viewBox="0 0 420 421" version="1.1" xmlns="http://www.w3.org/2000/svg" xmlns:xlink="http://www.w3.org/1999/xlink">
    <!-- Generator: Sketch 45.1 (43504) - http://www.bohemiancoding.com/sketch -->
    <title>Logo-transparent-style</title>
    <desc>Created with Sketch.</desc>
    <defs></defs>
    <g id="Page-1" stroke="none" stroke-width="1" fill="none" fill-rule="evenodd" opacity="0.100000001">
        <g id="Home-Page" transform="translate(-148.000000, -4285.000000)" fill-rule="nonzero" fill="#FFFFFF">
            <g id="Logo-transparent-style" transform="translate(148.000000, 4285.000000)">
                <rect id="_Rectangle_" x="168" y="1" width="39" height="207" rx="8.79"></rect>
                <rect id="_Rectangle_2" transform="translate(19.500000, 294.500000) rotate(180.000000) translate(-19.500000, -294.500000) " x="0" y="169" width="39" height="251" rx="8.79"></rect>
                <rect id="_Rectangle_3" transform="translate(89.500000, 401.500000) rotate(90.000000) translate(-89.500000, -401.500000) " x="70" y="312" width="39" height="179" rx="8.79"></rect>
                <rect id="_Rectangle_4" transform="translate(103.500000, 188.500000) rotate(90.000000) translate(-103.500000, -188.500000) " x="84" y="85" width="39" height="207" rx="8.79"></rect>
                <rect id="_Rectangle_5" transform="translate(232.500000, 317.500000) rotate(180.000000) translate(-232.500000, -317.500000) " x="213" y="214" width="39" height="207" rx="8.79"></rect>
                <rect id="_Rectangle_6" x="381" y="1" width="39" height="251" rx="8.79"></rect>
                <rect id="_Rectangle_7" transform="translate(330.500000, 19.500000) rotate(-90.000000) translate(-330.500000, -19.500000) " x="311" y="-70" width="39" height="179" rx="8.79"></rect>
                <rect id="_Rectangle_8" transform="translate(316.500000, 233.500000) rotate(-90.000000) translate(-316.500000, -233.500000) " x="297" y="130" width="39" height="207" rx="8.79"></rect>
            </g>
        </g>
    </g>
</svg>