<?xml version="1.0" encoding="UTF-8"?>
<svg width="13px" height="13px" viewBox="0 0 13 13" version="1.1" xmlns="http://www.w3.org/2000/svg" xmlns:xlink="http://www.w3.org/1999/xlink">
    <!-- Generator: Sketch 45.1 (43504) - http://www.bohemiancoding.com/sketch -->
    <title>Tag-icon</title>
    <desc>Created with Sketch.</desc>
    <defs></defs>
    <g id="Page-1" stroke="none" stroke-width="1" fill="none" fill-rule="evenodd">
        <g id="Home-Page" transform="translate(-1306.000000, -60.000000)" fill-rule="nonzero" fill="#FFBB41">
            <g id="HEADER" transform="translate(0.000000, 37.000000)">
                <g id="user" transform="translate(1306.000000, 23.000000)">
                    <g id="Group-5">
                        <g id="Tag-icon">
                            <path d="M12.4628099,5.45474301 L7.18668241,0.180555556 C7.07126328,0.0650982615 6.91409681,0 6.75324675,0 L0.613931523,0 C0.276269185,0 0,0.276360544 0,0.614134543 L0,6.75547997 C0,6.91699735 0.0650767414,7.0742158 0.180495868,7.18905896 L5.45232586,12.4589475 C5.80165289,12.80839 6.26210153,13 6.75693034,13 C7.24807556,13 7.71220779,12.80839 8.06153483,12.4589475 L12.4628099,8.05621693 C12.4664935,8.05253212 12.4664935,8.05253212 12.4701771,8.04884732 C12.811523,7.70308957 13,7.24248866 13,6.75547997 C12.9963164,6.26417234 12.8084534,5.80357143 12.4628099,5.45412887 L12.4628099,5.45474301 Z M11.5916411,7.18967309 C11.5916411,7.18967309 11.5879575,7.1933579 11.5879575,7.1933579 L7.190366,11.5924036 C7.07494687,11.7078609 6.92146399,11.7729592 6.75693034,11.7729592 C6.59239669,11.7729592 6.43829988,11.7078609 6.32349469,11.5924036 L1.22786305,6.50245654 L1.22786305,1.22888322 L6.50030697,1.22888322 L11.592255,6.32251512 C11.7076741,6.43797241 11.7727509,6.59150605 11.7727509,6.7560941 C11.7690673,6.9212963 11.7076741,7.07482993 11.592255,7.18967309 L11.5916411,7.18967309 Z" id="Shape"></path>
                            <path d="M4.5,3 C4.1055,3 3.7215,3.159 3.441,3.441 C3.1605,3.723 3,4.107 3,4.5 C3,4.893 3.159,5.2785 3.441,5.559 C3.723,5.841 4.107,6 4.5,6 C4.893,6 5.2785,5.841 5.559,5.559 C5.841,5.277 6,4.893 6,4.5 C6,4.107 5.841,3.7215 5.559,3.441 C5.277,3.159 4.893,3 4.5,3 L4.5,3 Z" id="Shape"></path>
                        </g>
                    </g>
                </g>
            </g>
        </g>
    </g>
</svg>