<?xml version="1.0" encoding="UTF-8"?>
<svg width="86px" height="64px" viewBox="0 0 86 64" version="1.1" xmlns="http://www.w3.org/2000/svg" xmlns:xlink="http://www.w3.org/1999/xlink">
    <!-- Generator: Sketch 46.2 (44496) - http://www.bohemiancoding.com/sketch -->
    <title>Reliability-icon</title>
    <desc>Created with Sketch.</desc>
    <defs>
        <linearGradient x1="50%" y1="0%" x2="50%" y2="100%" id="linearGradient-1">
            <stop stop-color="#FFFFFF" stop-opacity="0.5" offset="0%"></stop>
            <stop stop-color="#000000" stop-opacity="0.5" offset="100%"></stop>
        </linearGradient>
        <path d="M11.8321047,1.7442 C11.8491047,1.6322 11.8570116,1.5812 11.7136977,1.4362 L10.7741512,0.4856 C10.5760814,0.2854 10.3117907,0.1748 10.0306977,0.1748 C9.74960465,0.1748 9.48531395,0.2856 9.28625581,0.4866 L0.901104651,8.9716 C1.36563953,8.9764 1.91853488,8.98 2.49317442,8.98 C3.69503488,8.98 4.64802326,8.9642 5.33059302,8.933 C6.25847674,8.447 8.98638372,5.6846 11.0886512,3.0886 C11.6876047,2.349 11.808186,1.902 11.8321047,1.7442 Z" id="path-2"></path>
        <path d="M53.8669571,33.6856291 C53.8669569,33.2049075 53.8572864,32.6828346 53.8309924,32.016996 L52.5955878,30.7973597 C50.7033206,28.933581 45.7524275,23.9736443 45.7062595,23.9247273 L31.0209389,9.28066403 L21.3819389,18.8977866 C20.6251145,19.6500395 19.5797405,20.0660395 18.4393511,20.0660395 C17.038855,20.0660395 15.6202214,19.4498498 14.5441374,18.3765534 L12.8113969,16.6463715 C10.7956718,14.6333755 10.5537023,11.5964111 12.265626,9.85574704 C12.4999695,9.57848221 14.5826794,7.124 17.0415344,4.70301976 C19.2194656,2.55663241 21.0268168,1.07288538 22.5046031,0.220332016 C22.2830382,0.161549407 22.0334427,0.122909091 21.7578779,0.122909091 C20.5556565,0.122909091 17.3632672,0.122909091 17.3632672,0.122909091 C16.1583664,0.122909091 15.1568931,0.58001581 14.3743053,1.35754941 L1.30857252,14.3896126 C0.633984733,15.0623241 0.0704885496,16.0943083 0.0704885496,17.3702609 C0.0704885496,17.3702609 0.0704885496,23.8297708 0.0704885496,25.9810909 C0.0704885496,26.5101344 0.268557252,26.9388775 0.60059542,27.2699921 L1.37555725,28.0427984 C3.83935878,25.5856443 8.27787023,21.1570119 8.27787023,21.1570119 C9.02191603,20.4177075 10.0079313,20.0095178 11.0557786,20.0095178 C12.1063053,20.0095178 13.0921145,20.4177075 13.833687,21.1570119 L15.0719771,22.3893913 C15.8133435,23.1289012 16.2226718,24.1148458 16.2226718,25.1622451 C16.2226718,25.675668 16.1222977,26.1761423 15.931855,26.6410593 C16.3978626,26.4509407 16.8997328,26.3508458 17.4145878,26.3508458 C18.4651145,26.3508458 19.4511298,26.7590356 20.1924962,27.5010119 L21.4285191,28.7335968 C22.1723588,29.4729012 22.5792137,30.4561739 22.5792137,31.5009012 C22.5792137,32.016996 22.4788397,32.5176759 22.2908702,32.9797154 C22.7541985,32.7922688 23.2562748,32.6923794 23.7736031,32.6923794 C24.8216565,32.6923794 25.810145,33.0978972 26.5515115,33.8398735 L27.7900076,35.0720474 C28.938229,36.219747 29.2238931,37.9065613 28.6474122,39.3210435 C29.1132137,39.131336 29.6152901,39.0310356 30.1328244,39.0310356 C31.1806718,39.0310356 32.1668931,39.4392253 32.9105267,40.1785296 L34.1465496,41.413581 C34.8877099,42.1528854 35.2970382,43.1361581 35.2970382,44.1837628 C35.2970382,45.2130751 34.903374,46.1811383 34.1828244,46.9177708 C34.1127481,47.0077945 33.9328168,47.2361423 33.6677634,47.5623241 L36.4353664,50.3222292 L36.4438168,50.3277787 L37.2278473,51.1096285 C38.2291145,52.1081107 39.8676641,52.1081107 40.8689313,51.1096285 L42.893313,49.0908775 C43.8945802,48.0923953 43.8945802,46.4584032 42.893313,45.4599209 L41.1964351,43.7677628 L41.1956107,43.768585 L33.3522137,35.947004 C33.0840687,35.6796047 33.0840687,35.2461344 33.3522137,34.9787352 C33.6203588,34.711336 34.0550382,34.711336 34.3231832,34.9787352 L36.4475267,37.0973755 C36.5262595,37.2056917 36.6113817,37.3105138 36.7090763,37.4079368 L43.6266412,44.3060553 C44.6279084,45.3047431 46.266458,45.3047431 47.2677252,44.3060553 L49.0344733,42.5442213 C50.0359466,41.5455336 50.0359466,39.911747 49.0344733,38.9130593 L48.7838473,38.6631304 C48.7753969,38.6386719 48.7665344,38.614419 48.7512824,38.5948933 L39.7885191,29.6568538 C39.520374,29.3896601 39.520374,28.9561897 39.7885191,28.6887905 C40.0566641,28.4213913 40.4913435,28.4213913 40.7592824,28.6887905 L49.8022214,37.7065771 C50.596145,38.259668 51.4133588,38.5770119 52.4381221,38.1916364 C53.7009389,37.7166482 53.8130611,36.4224032 53.8295496,35.7268775 C53.8482535,34.9427802 53.8669575,34.3541956 53.8669571,33.6856291 L53.8669571,33.6856263 L53.8669571,33.6856291 Z" id="path-4"></path>
    </defs>
    <g id="Homepage" stroke="none" stroke-width="1" fill="none" fill-rule="evenodd">
        <g id="Home-Page" transform="translate(-1186.000000, -3555.000000)">
            <g id="Reliability-icon" transform="translate(1186.000000, 3555.000000)">
                <path d="M35.6428486,42.6060119 L25.6056824,52.6431178 C25.4011963,52.8478068 25.1291603,52.9606612 24.8393696,52.9606612 C24.5493749,52.9606612 24.2769308,52.8478068 24.0699957,52.6406689 L23.3583759,51.9306859 C22.9343019,51.5057982 22.9338937,50.8152025 23.3567433,50.3919474 L33.395338,40.3574944 C33.5402334,40.2123959 33.7685966,40.0393388 34.0334898,40.0393388 C34.2985871,40.0393388 34.5267462,40.2123959 34.6740905,40.3601474 L35.6434608,41.3282874 C35.7881521,41.4729778 35.9605979,41.7011356 35.9605979,41.9668435 C35.9605979,42.2327555 35.7881521,42.4609133 35.6428486,42.6060119 Z M37.0848634,39.8858731 L36.1154931,38.9173249 C35.5053,38.3057069 34.7693949,38 34.0334898,38 C33.2975847,38 32.5616796,38.3057069 31.9514865,38.9173249 L21.9151366,48.9497371 C20.6949545,50.1709323 20.6949545,52.149048 21.9151366,53.3714677 L22.6296135,54.0843077 C23.2396025,54.6947012 24.0395881,55 24.8393696,55 C25.6391512,55 26.4389327,54.6947012 27.0487176,54.0843077 L37.0848634,44.0480181 C38.3050455,42.8286596 38.3050455,41.1050275 37.0848634,39.8858731 L37.0848634,39.8858731 Z" id="Fill-14" fill="#6BB3BE"></path>
                <path d="M43.0848634,50.0480907 C44.3050455,48.8287175 44.3050455,47.1050648 43.0848634,45.8856916 L42.1154931,44.9173359 C41.5055041,44.3057106 40.769599,44 40.0336939,44 C39.2975847,44 38.5616796,44.3057106 37.9516905,44.9173359 L27.9151366,54.9498685 C26.6949545,56.1710784 26.6949545,58.1492179 27.9151366,59.3714481 L28.6298176,60.0845008 C29.2398066,60.6949016 30.0395881,61 30.8393696,61 C31.6393552,61 32.4391368,60.6949016 33.0487176,60.0845008 L43.0848634,50.0480907 L43.0848634,50.0480907 Z" id="Fill-15" fill="#FFBB41"></path>
                <path d="M31.0642072,34.127563 L29.8112664,32.9101016 C29.1868829,32.3035025 28.4994766,32 27.8120704,32 C27.1246642,32 26.4370493,32.3035025 25.8122483,32.9101016 C25.8122483,32.9101016 19.834694,38.7272 17.8409237,40.6653531 C17.4362848,41.0589928 17.2607813,41.5336343 17.2607813,42.0021854 C17.2607813,43.2561889 17.0001345,45.4414072 17.0001345,46.4347437 C17.0001345,47.0050036 16.9725882,48.4041605 17.705905,48.7894768 C17.9824117,48.9348332 18.2839606,49 18.5928134,49 C19.3722495,49 20.1996829,48.585653 20.8004851,48.0003702 L31.0642072,38.01808 C32.3119309,36.8044758 32.3119309,35.3415732 31.0642072,34.127563 L31.0642072,34.127563 Z" id="Fill-16" fill="#FFBB41"></path>
                <path d="M48.3248577,51.9100325 C47.722351,51.3034119 46.9331096,51 46.1438681,51 C45.3546267,51 44.5653852,51.3034119 43.9628785,51.9100325 L34.0576766,61.8976442 C33.8238049,62.1340374 33.5716022,62.4476036 33.3185937,62.7028838 C32.6324894,63.3943948 33.1509957,63.9683184 33.960784,63.9683184 C34.5967297,63.9683184 35.2137401,63.9731925 35.4963603,63.9731925 C35.4963603,63.9731925 36.8901228,64 38.462764,64 C39.5809568,64 40.7897975,63.9863932 41.6525645,63.9400894 C43.068284,63.8637287 47.2386939,59.1697807 48.7789032,57.2745735 C50.0769818,55.677498 50.4873149,54.0901706 49.2823015,52.8753046 L48.3248577,51.9100325 L48.3248577,51.9100325 Z" id="Fill-17" fill="#FFBB41"></path>
                <path d="M69.7425111,26.5297767 C69.7425111,25.4532661 69.340713,24.4090387 68.5049565,23.5853112 L55.9490235,11.2200588 C55.2353113,10.5171393 53.6013186,10 52.4439587,10 L44.1579294,10 C43.5373998,10 42.8816174,10 42.1699668,10 C38.5339929,10 29.9463574,20.1267521 29.9463574,20.1267521 C28.5034713,21.5484282 28.7368399,24.078695 30.4666952,25.7852342 L31.1709242,26.4802352 C32.1380021,27.4322831 33.3693721,27.9238395 34.5191043,27.9238395 C35.4253662,27.9238395 36.2805014,27.6186725 36.9162866,26.9929077 L47.3615941,16.7025065 C47.3615941,16.7025065 68.0879028,37.1385423 70,39 L69.7425111,26.5297767 L69.7425111,26.5297767 Z" id="Fill-18" fill="#FFBB41"></path>
                <path d="M37.0848634,39.8858731 L36.1154931,38.9173249 C35.5053,38.3057069 34.7693949,38 34.0334898,38 C33.2975847,38 32.5616796,38.3057069 31.9514865,38.9173249 L21.9151366,48.9497371 C20.6949545,50.1709323 20.6949545,52.149048 21.9151366,53.3714677 L22.6296135,54.0843077 C23.2396025,54.6947012 24.0395881,55 24.8393696,55 C25.6391512,55 26.4389327,54.6947012 27.0487176,54.0843077 L37.0848634,44.0480181 C38.3050455,42.8286596 38.3050455,41.1050275 37.0848634,39.8858731 L37.0848634,39.8858731 Z" id="Fill-19" fill="#FFBB41"></path>
                <g id="Group-28" transform="translate(36.000000, 53.000000)">
                    <mask id="mask-3" fill="white">
                        <use xlink:href="#path-2"></use>
                    </mask>
                    <g id="Clip-27">
                        <use fill="#D8D8D8" xlink:href="#path-2"></use>
                        <use fill="url(#linearGradient-1)" xlink:href="#path-2"></use>
                        <use fill="url(#linearGradient-1)" xlink:href="#path-2"></use>
                        <use fill="#FFBB41" xlink:href="#path-2"></use>
                    </g>
                </g>
                <path d="M35.238,29.0105 C35.1585,29.011 35.0795,29.002 35,29 C35.07,29.002 35.1415,29.012 35.2115,29.012 L35.238,29.0105" id="Fill-31" fill="#F1A948"></path>
                <path d="M64.5184529,0 C63.8548038,0 63.1913619,0.24973698 62.6877181,0.749622368 L55,8.41082879 L69.986615,23.2856077 C70.5607274,23.9371044 71.3091462,25.1390922 71.136498,27.1627023 L71.1149428,35 L76.4807181,29.7310434 L86,20.2827982 L66.3493949,0.749622368 C65.8459584,0.24973698 65.1823093,0 64.5184529,0 Z M64.5184529,2.05570151 C64.5999064,2.05570151 64.7555593,2.07483293 64.8836465,2.20196428 L83.0720265,20.2817696 L75.0240891,28.2696501 L73.1995721,30.0612147 L73.207448,27.2470451 C73.3633082,25.180235 72.7898175,23.3440305 71.5458381,21.9322142 C71.5153707,21.89786 71.4838671,21.8643286 71.4511199,21.8320315 L57.9261082,8.40774308 L64.152223,2.20319856 C64.2815538,2.07483293 64.4372067,2.05570151 64.5184529,2.05570151 Z M8.49989558,20 C9.32711451,20 10,20.6728855 10,21.5001044 C10,22.3271145 9.32711451,23 8.49989558,23 C7.67288549,23 7,22.3271145 7,21.5001044 C7,20.6728855 7.67288549,20 8.49989558,20 Z" id="Fill-32" fill="#1A1919"></path>
                <path d="M9.25129371,24.8500787 C7.2885338,24.8500787 5.69158922,23.2650535 5.69158922,21.3169433 C5.69158922,19.3686275 7.2885338,17.7836023 9.25129371,17.7836023 C11.2142609,17.7836023 12.8112055,19.3686275 12.8112055,21.3169433 C12.8112055,23.2650535 11.2142609,24.8500787 9.25129371,24.8500787 Z M31,8.41086786 L23.3122819,0.749672695 C22.3054088,-0.249890898 20.6574781,-0.249890898 19.6506051,0.749672695 L0,20.2828198 L9.51928194,29.7310512 L14.8850572,35 L14.863502,27.1627138 C14.6908538,25.1391066 15.4392726,23.9371206 16.013385,23.2856249 L31,8.41086786 L31,8.41086786 Z" id="Fill-34" fill="#FFBB41"></path>
                <path d="M53.1395024,61.884583 L50.176835,59 C49.6487365,59.6195826 48.9445331,60.4167298 48.1638375,61.2222924 C46.8230636,62.605571 45.7973337,63.4588909 45,63.9829588 C45.0319798,63.9875873 45.0667686,63.9962131 45.0961554,63.9974754 L45.1365623,64 C47.3496496,64 51.6680004,64 51.6680004,64 C51.9707279,64 53.2337131,63.9924262 53.4847976,63.8556762 C54.5617384,63.2722797 53.7034702,62.4366322 53.1395024,61.884583" id="Fill-36"></path>
                <g id="Group-40" transform="translate(17.000000, 10.000000)">
                    <mask id="mask-5" fill="white">
                        <use xlink:href="#path-4"></use>
                    </mask>
                    <use id="Clip-39" fill="#202020" xlink:href="#path-4"></use>
                </g>
            </g>
        </g>
    </g>
</svg>