<?xml version="1.0" encoding="UTF-8"?>
<svg width="50px" height="52px" viewBox="0 0 50 52" version="1.1" xmlns="http://www.w3.org/2000/svg" xmlns:xlink="http://www.w3.org/1999/xlink">
    <!-- Generator: Sketch 55.2 (78181) - https://sketchapp.com -->
    <title>Arrow</title>
    <desc>Created with Sketch.</desc>
    <g id="Homepage" stroke="none" stroke-width="1" fill="none" fill-rule="evenodd">
        <g id="Home" transform="translate(-122.000000, -472.000000)" fill="#FFFFFF">
            <path d="M121.023843,491.217791 C120.934151,489.591093 121.08975,487.962907 121.622946,486.361989 C121.880625,485.588055 121.978741,484.753635 122.091228,483.938054 C122.420264,481.563699 122.830072,479.232973 124.077336,477.109985 C124.628867,476.16996 124.904881,475.071282 125.345908,474.061846 C125.487135,473.738093 125.711118,473.415331 125.980689,473.193711 C126.265622,472.958705 126.655113,472.945319 127.018341,473.11141 C127.383056,473.279484 127.569377,473.587371 127.63231,473.960208 C127.661547,474.132744 127.628346,474.335028 127.564917,474.501119 C127.073841,475.787703 126.694756,477.138741 126.035198,478.333603 C125.122421,479.987571 124.685854,481.745655 124.454438,483.572654 C124.280505,484.945011 124.10013,486.307452 123.620452,487.61238 C123.296371,488.492414 123.261188,489.415086 123.249791,490.333296 C123.209652,493.741381 123.452465,497.112281 124.130358,500.474753 C124.558005,502.598237 125.343925,504.445068 126.506948,506.256698 C128.122891,508.773842 129.956869,511.011854 132.513835,512.603848 C132.747728,512.749115 132.977161,512.905786 133.191728,513.078322 C137.71498,516.706044 143.120781,518.123518 148.643529,519.226658 C149.355118,519.368455 150.108333,519.338212 150.841231,519.325321 C151.667289,519.311935 152.493347,519.238557 153.317424,519.173608 C157.445238,518.847872 158.05326,518.705579 161.832713,517.151266 C162.340637,516.942042 162.848561,516.713481 163.316347,516.427408 C164.72466,515.564231 166.116621,514.673786 167.504121,513.777887 C167.635934,513.692115 167.777657,513.490327 167.772206,513.34853 C167.75734,512.952886 167.410465,513.037667 167.166661,513.03618 C166.247442,513.031718 165.328223,513.059482 164.409499,513.048575 C163.951624,513.043617 163.486812,513.020314 163.039838,512.932559 C162.785628,512.882979 162.544798,512.708956 162.324284,512.553277 C161.976914,512.309346 161.84411,511.753562 161.988311,511.315776 C162.115664,510.930544 162.402579,510.73074 162.771753,510.622161 C162.858968,510.596379 162.949651,510.55622 163.037361,510.560187 C165.710777,510.677194 168.356939,510.3346 171.010038,510.102569 C171.367815,510.070838 171.738476,510.139258 172.098235,510.194291 C172.482771,510.253786 172.986731,510.763462 172.993668,511.14324 C173.003083,511.6901 173.017454,512.25233 172.907445,512.781838 C172.590302,514.311361 172.221623,515.830472 171.853936,517.348592 C171.508052,518.776974 171.142842,520.200397 170.773667,521.622829 C170.705283,521.886095 170.592797,522.140437 170.479814,522.389326 C170.271689,522.84496 169.589832,523.110705 169.062086,522.955522 C168.676064,522.841489 168.191925,522.31099 168.239001,521.950053 C168.370318,520.951028 168.518979,519.952004 168.714716,518.963392 C168.893108,518.066997 169.151283,517.186468 169.341073,516.29156 C169.353957,516.230578 169.048211,516.001521 168.962484,516.035235 C167.847032,516.473021 166.822759,517.080368 165.897098,517.840915 C164.743986,518.788873 163.442213,519.458194 162.031423,519.910854 C160.547788,520.387807 159.161774,521.13001 157.602323,521.410133 C154.496799,521.967901 151.374427,521.803793 148.252055,521.741323 C145.857626,521.10522 143.447339,520.523159 141.075209,519.812686 C139.672346,519.391758 138.318542,518.794822 136.965729,518.222676 C136.292792,517.938587 135.63026,517.59054 135.035617,517.168619 C133.087665,515.784859 131.169446,514.358957 129.246271,512.939996 C127.738355,511.827435 126.670971,510.319231 125.651653,508.789212 C122.792907,504.500102 122.428192,503.72468 121.677455,498.66709 C121.314227,496.220349 120.908879,493.756255 121.023843,491.217791" id="Arrow" transform="translate(147.000000, 498.000000) scale(-1, 1) rotate(-90.000000) translate(-147.000000, -498.000000) "></path>
        </g>
    </g>
</svg>