<?xml version="1.0" encoding="UTF-8"?>
<svg width="242px" height="16px" viewBox="0 0 242 16" version="1.1" xmlns="http://www.w3.org/2000/svg" xmlns:xlink="http://www.w3.org/1999/xlink">
    <!-- Generator: Sketch 55.2 (78181) - https://sketchapp.com -->
    <title>Arrow-right</title>
    <desc>Created with Sketch.</desc>
    <g id="Homepage" stroke="none" stroke-width="1" fill="none" fill-rule="evenodd">
        <g id="Home" transform="translate(-385.000000, -3416.000000)" fill="#FFBB41" fill-rule="nonzero">
            <g id="Office-2" transform="translate(0.000000, 3115.000000)">
                <path id="Arrow-right" d="M399.429111,310 C398.943881,313.392294 396.026472,316 392.5,316 C388.634007,316 385.5,312.865993 385.5,309 C385.5,305.134007 388.634007,302 392.5,302 C396.026472,302 398.943881,304.607706 399.429111,308 L401.5,308 L401.5,310 L399.429111,310 Z M620.5,308.037972 L611.759739,303.121576 L612.740261,301.378424 L626.289729,309 L612.740261,316.621576 L611.759739,314.878424 L620.5,309.962028 L620.5,308.037972 Z M387.5,309 C387.5,311.761424 389.738576,314 392.5,314 C395.261424,314 397.5,311.761424 397.5,309 C397.5,306.238576 395.261424,304 392.5,304 C389.738576,304 387.5,306.238576 387.5,309 Z M404.5,310 L404.5,308 L407.5,308 L407.5,310 L404.5,310 Z M410.5,310 L410.5,308 L413.5,308 L413.5,310 L410.5,310 Z M416.5,310 L416.5,308 L419.5,308 L419.5,310 L416.5,310 Z M422.5,310 L422.5,308 L425.5,308 L425.5,310 L422.5,310 Z M428.5,310 L428.5,308 L431.5,308 L431.5,310 L428.5,310 Z M434.5,310 L434.5,308 L437.5,308 L437.5,310 L434.5,310 Z M440.5,310 L440.5,308 L443.5,308 L443.5,310 L440.5,310 Z M446.5,310 L446.5,308 L449.5,308 L449.5,310 L446.5,310 Z M452.5,310 L452.5,308 L455.5,308 L455.5,310 L452.5,310 Z M458.5,310 L458.5,308 L461.5,308 L461.5,310 L458.5,310 Z M464.5,310 L464.5,308 L467.5,308 L467.5,310 L464.5,310 Z M470.5,310 L470.5,308 L473.5,308 L473.5,310 L470.5,310 Z M476.5,310 L476.5,308 L479.5,308 L479.5,310 L476.5,310 Z M482.5,310 L482.5,308 L485.5,308 L485.5,310 L482.5,310 Z M488.5,310 L488.5,308 L491.5,308 L491.5,310 L488.5,310 Z M494.5,310 L494.5,308 L497.5,308 L497.5,310 L494.5,310 Z M500.5,310 L500.5,308 L503.5,308 L503.5,310 L500.5,310 Z M506.5,310 L506.5,308 L509.5,308 L509.5,310 L506.5,310 Z M512.5,310 L512.5,308 L515.5,308 L515.5,310 L512.5,310 Z M518.5,310 L518.5,308 L521.5,308 L521.5,310 L518.5,310 Z M524.5,310 L524.5,308 L527.5,308 L527.5,310 L524.5,310 Z M530.5,310 L530.5,308 L533.5,308 L533.5,310 L530.5,310 Z M536.5,310 L536.5,308 L539.5,308 L539.5,310 L536.5,310 Z M542.5,310 L542.5,308 L545.5,308 L545.5,310 L542.5,310 Z M548.5,310 L548.5,308 L551.5,308 L551.5,310 L548.5,310 Z M554.5,310 L554.5,308 L557.5,308 L557.5,310 L554.5,310 Z M560.5,310 L560.5,308 L563.5,308 L563.5,310 L560.5,310 Z M566.5,310 L566.5,308 L569.5,308 L569.5,310 L566.5,310 Z M572.5,310 L572.5,308 L575.5,308 L575.5,310 L572.5,310 Z M578.5,310 L578.5,308 L581.5,308 L581.5,310 L578.5,310 Z M584.5,310 L584.5,308 L587.5,308 L587.5,310 L584.5,310 Z M590.5,310 L590.5,308 L593.5,308 L593.5,310 L590.5,310 Z M596.5,310 L596.5,308 L599.5,308 L599.5,310 L596.5,310 Z M602.5,310 L602.5,308 L605.5,308 L605.5,310 L602.5,310 Z M608.5,310 L608.5,308 L611.5,308 L611.5,310 L608.5,310 Z M614.5,310 L614.5,308 L617.5,308 L617.5,310 L614.5,310 Z"></path>
            </g>
        </g>
    </g>
</svg>