<?xml version="1.0" encoding="UTF-8"?>
<svg width="22px" height="22px" viewBox="0 0 22 22" version="1.1" xmlns="http://www.w3.org/2000/svg" xmlns:xlink="http://www.w3.org/1999/xlink">
    <!-- Generator: Sketch 55.2 (78181) - https://sketchapp.com -->
    <title>fb</title>
    <desc>Created with Sketch.</desc>
    <g id="Homepage" stroke="none" stroke-width="1" fill="none" fill-rule="evenodd">
        <g id="Home" transform="translate(-1228.000000, -5076.000000)" fill="#FFBB41" fill-rule="nonzero">
            <g id="Group-13" transform="translate(0.000000, 4534.000000)">
                <g id="Group-15" transform="translate(1196.000000, 542.000000)">
                    <path d="M51.9375,0 L34.0625,0 C32.928125,0 32,0.928125 32,2.0625 L32,19.9375 C32,21.071875 32.928125,22 34.0625,22 L43,22 L43,12.375 L40.25,12.375 L40.25,9.625 L43,9.625 L43,8.25 C43,5.977125 44.852125,4.125 47.125,4.125 L49.875,4.125 L49.875,6.875 L47.125,6.875 C46.36875,6.875 45.75,7.49375 45.75,8.25 L45.75,9.625 L49.875,9.625 L49.1875,12.375 L45.75,12.375 L45.75,22 L51.9375,22 C53.071875,22 54,21.071875 54,19.9375 L54,2.0625 C54,0.928125 53.071875,0 51.9375,0 Z" id="fb"></path>
                </g>
            </g>
        </g>
    </g>
</svg>