<?xml version="1.0" encoding="UTF-8"?>
<svg width="45px" height="40px" viewBox="0 0 45 40" version="1.1" xmlns="http://www.w3.org/2000/svg" xmlns:xlink="http://www.w3.org/1999/xlink">
    <!-- Generator: Sketch 55.2 (78181) - https://sketchapp.com -->
    <title>icn-quality</title>
    <desc>Created with Sketch.</desc>
    <defs>
        <linearGradient x1="0%" y1="11.3599587%" x2="100%" y2="88.6400413%" id="linearGradient-1">
            <stop stop-color="#242845" offset="0%"></stop>
            <stop stop-color="#554479" offset="100%"></stop>
        </linearGradient>
    </defs>
    <g id="Homepage" stroke="none" stroke-width="1" fill="none" fill-rule="evenodd">
        <g id="Home" transform="translate(-1066.000000, -2526.000000)" fill="url(#linearGradient-1)">
            <g id="Group-20" transform="translate(120.000000, 2438.000000)">
                <g id="Group-36" transform="translate(946.000000, 88.000000)">
                    <g id="icn-quality">
                        <path d="M44.516129,11.4650538 C44.5026882,11.4247312 44.5026882,11.3709677 44.4758065,11.3306452 C44.4758065,11.3306452 44.4758065,11.3172043 44.4758065,11.3172043 L39.0994624,0.564516129 C39.0860215,0.551075269 39.0725806,0.537634409 39.0591398,0.524193548 C39.0188172,0.443548387 38.9516129,0.389784946 38.8844086,0.336021505 C38.8575269,0.322580645 38.844086,0.295698925 38.8172043,0.282258065 C38.8037634,0.282258065 38.8037634,0.268817204 38.7903226,0.255376344 C38.6962366,0.215053763 38.6021505,0.188172043 38.5080645,0.188172043 C38.4946237,0.188172043 38.4946237,0.188172043 38.4946237,0.188172043 L6.23655914,0.188172043 C5.9811828,0.188172043 5.75268817,0.336021505 5.63172043,0.564516129 L0.255376344,11.3172043 C0.255376344,11.3172043 0.255376344,11.3306452 0.255376344,11.3306452 C0.241935484,11.3709677 0.228494624,11.4112903 0.215053763,11.4650538 C0.201612903,11.5053763 0.188172043,11.5456989 0.188172043,11.5994624 C0.188172043,11.6129032 0.188172043,11.6129032 0.188172043,11.6263441 L0.188172043,17.0026882 C0.188172043,17.1774194 0.255376344,17.3521505 0.389784946,17.4731183 L21.8951613,38.9784946 C22.0295699,39.1129032 22.2043011,39.1801075 22.3655914,39.1801075 C22.5268817,39.1801075 22.7150538,39.1129032 22.8360215,38.9784946 L44.3413978,17.4731183 C44.4623656,17.3521505 44.5430108,17.1774194 44.5430108,17.0026882 L44.5430108,11.6263441 C44.5430108,11.6129032 44.5430108,11.6129032 44.5430108,11.5994624 C44.5430108,11.5456989 44.516129,11.5053763 44.516129,11.4650538 Z M38.4946237,2.3655914 L42.7822581,10.9408602 L34.2069892,10.9408602 L38.4946237,2.3655914 Z M37.405914,1.53225806 L32.7016129,10.9408602 L23.4543011,10.9408602 L28.1586022,1.53225806 L37.405914,1.53225806 Z M26.6532258,1.53225806 L21.9489247,10.9408602 L12.7016129,10.9408602 L17.405914,1.53225806 L26.6532258,1.53225806 Z M6.65322581,1.53225806 L15.9005376,1.53225806 L11.1962366,10.9408602 L1.94892473,10.9408602 L6.65322581,1.53225806 Z M43.1989247,16.7069892 L22.3655914,37.5403226 L1.53225806,16.7069892 L1.53225806,12.2849462 L43.1989247,12.2849462 L43.1989247,16.7069892 Z" id="Shape"></path>
                    </g>
                </g>
            </g>
        </g>
    </g>
</svg>