<?xml version="1.0" encoding="UTF-8"?>
<svg width="96px" height="18px" viewBox="0 0 96 18" version="1.1" xmlns="http://www.w3.org/2000/svg" xmlns:xlink="http://www.w3.org/1999/xlink">
    <!-- Generator: Sketch 55.2 (78181) - https://sketchapp.com -->
    <title>icn-stars</title>
    <desc>Created with Sketch.</desc>
    <g id="Homepage" stroke="none" stroke-width="1" fill="none" fill-rule="evenodd">
        <g id="Home" transform="translate(-392.000000, -3948.000000)" fill="#FF8641" fill-rule="nonzero">
            <g id="Group-45" transform="translate(120.000000, 3922.000000)">
                <g id="icn-stars" transform="translate(271.000000, 26.000000)">
                    <polygon id="Path" points="19.04 6.97 12.8 6.07 10.01 0.41 7.22 6.07 0.98 6.97 5.5 11.37 4.43 17.59 10.01 14.65 15.59 17.59 14.53 11.37"></polygon>
                    <polygon id="Path" points="32.3 6.07 29.51 0.41 26.72 6.07 20.48 6.97 24.99 11.37 23.93 17.59 29.51 14.65 35.09 17.59 34.02 11.37 38.54 6.97"></polygon>
                    <polygon id="Path" points="51.79 6.07 49 0.41 46.21 6.07 39.97 6.97 44.49 11.37 43.42 17.59 49 14.65 54.58 17.59 53.52 11.37 58.03 6.97"></polygon>
                    <polygon id="Path" points="71.29 6.07 68.5 0.41 65.7 6.07 59.47 6.97 63.98 11.37 62.91 17.59 68.5 14.65 74.08 17.59 73.01 11.37 77.53 6.97"></polygon>
                    <polygon id="Path" points="97.02 6.97 90.78 6.07 87.99 0.41 85.2 6.07 78.96 6.97 83.47 11.37 82.41 17.59 87.99 14.65 93.57 17.59 92.5 11.37"></polygon>
                </g>
            </g>
        </g>
    </g>
</svg>