<?xml version="1.0" encoding="UTF-8"?>
<svg width="45px" height="45px" viewBox="0 0 45 45" version="1.1" xmlns="http://www.w3.org/2000/svg" xmlns:xlink="http://www.w3.org/1999/xlink">
    <!-- Generator: Sketch 55.2 (78181) - https://sketchapp.com -->
    <title>icn-fast</title>
    <desc>Created with Sketch.</desc>
    <defs>
        <linearGradient x1="0%" y1="0%" x2="100%" y2="100%" id="linearGradient-1">
            <stop stop-color="#242845" offset="0%"></stop>
            <stop stop-color="#554479" offset="100%"></stop>
        </linearGradient>
    </defs>
    <g id="Homepage" stroke="none" stroke-width="1" fill="none" fill-rule="evenodd">
        <g id="Home" transform="translate(-1066.000000, -2749.000000)" fill="url(#linearGradient-1)">
            <g id="Group-20" transform="translate(120.000000, 2438.000000)">
                <g id="Group-37" transform="translate(946.000000, 311.000000)">
                    <g id="icn-fast">
                        <path d="M17.313278,36.9295091 C16.9513741,36.9301039 16.5949578,36.8409998 16.2759336,36.6701245 C15.3897318,36.2402417 14.9728561,35.2092589 15.3112033,34.2842324 L19.2012448,23.4439834 L15.8817427,23.4439834 C15.0939128,23.4573833 14.3664896,23.0233407 14.0041494,22.3236515 C13.681764,21.6734802 13.758264,20.896401 14.2012448,20.3215768 L22.313278,8.91078838 C22.9256397,8.02309457 24.1159799,7.75256271 25.0518672,8.28838174 C25.9380691,8.71826449 26.3549447,9.74924736 26.0165975,10.6742739 L23.9419087,16.56639 L29.1286307,16.56639 C29.9224683,16.5509769 30.6554829,16.9899802 31.0165975,17.6970954 C31.3572014,18.3679918 31.2718934,19.1763867 30.7987552,19.7614108 L28.3609959,23.0186722 L19.0248963,36.0477178 C18.6335376,36.6046062 17.9939135,36.9341096 17.313278,36.9295091 Z M17.313278,34.8547718 L17.313278,34.8547718 L26.6493776,21.8049793 L29.0041494,18.6929461 L23.8174274,18.6929461 C23.1275581,18.702118 22.4782615,18.3677497 22.0850622,17.8008299 C21.7161912,17.2940235 21.6229122,16.6371834 21.8360996,16.0477178 L23.9626556,10.1556017 L23.9626556,10.1556017 L15.9647303,21.4626556 L19.2634855,21.4107884 C19.9525893,21.4065105 20.6014647,21.7348105 21.0062241,22.2925311 C21.3715948,22.8011619 21.4609693,23.4578697 21.2448133,24.0456432 L17.313278,34.8547718 Z M22.5000027,45.0103734 C10.0749438,45.0103734 0.00191126719,34.9388857 2.65675125e-06,22.5138297 C-0.00190595369,10.0887736 10.0680319,0.0141930479 22.4930876,0.0103734207 C34.9181432,0.00655596517 44.9942715,10.0749451 45.0000027,22.5 C44.988562,34.921666 34.921666,44.988562 22.5000027,45 L22.5000027,45.0103734 Z M22.5,2.08506224 C14.237789,2.08506331 6.78932394,7.06265377 3.62848263,14.6963431 C0.467641315,22.3300324 2.21704637,31.1161362 8.06079554,36.9569175 C13.9045447,42.7976988 22.6915361,44.5426403 30.3236187,41.3779215 C37.9557014,38.2132027 42.9295073,30.7622099 42.9253139,22.5 C42.9138752,11.2241524 33.7758476,2.08612476 22.5,2.0746888 L22.5,2.08506224 Z" id="Shape"></path>
                    </g>
                </g>
            </g>
        </g>
    </g>
</svg>