<?xml version="1.0" encoding="UTF-8"?>
<svg width="80px" height="80px" viewBox="0 0 80 80" version="1.1" xmlns="http://www.w3.org/2000/svg" xmlns:xlink="http://www.w3.org/1999/xlink">
    <!-- Generator: Sketch 55.2 (78181) - https://sketchapp.com -->
    <title>icn-experts</title>
    <desc>Created with Sketch.</desc>
    <g id="Homepage" stroke="none" stroke-width="1" fill="none" fill-rule="evenodd">
        <g id="Home" transform="translate(-283.000000, -3384.000000)">
            <g id="Office-2" transform="translate(0.000000, 3115.000000)">
                <g id="Group-40" transform="translate(150.000000, 269.000000)">
                    <g id="icn-experts" transform="translate(133.000000, 0.000000)">
                        <rect id="Rectangle-Copy-10" stroke="#FFBB41" x="0.5" y="0.5" width="79" height="79" rx="39.5"></rect>
                        <g id="noun_talk_3140048" transform="translate(19.000000, 24.000000)" fill="#FFBB41">
                            <path d="M3.57446809,25.8434043 L3.57446809,20.9285106 C1.49502128,20.5040426 -0.00893617021,18.6542553 -3.96114686e-05,16.5319149 L-3.96114686e-05,4.46808511 C-3.96114686e-05,2.01689362 2.01689362,1.0658141e-14 4.46808511,1.0658141e-14 L28.5957447,1.0658141e-14 C31.0469362,1.0658141e-14 33.0638298,2.01689362 33.0638298,4.46808511 L33.0638298,16.5319149 C33.0638298,18.9831064 31.0469362,21 28.5957447,21 L17.1351064,21 L3.57446809,25.8434043 Z M4.46808511,1.78723404 C2.99719149,1.78723404 1.78723404,2.99719149 1.78723404,4.46808511 L1.78723404,16.5319149 C1.78723404,18.0028085 2.99719149,19.212766 4.46808511,19.212766 L5.36170213,19.212766 L5.36170213,23.3055319 L16.8223404,19.212766 L28.5957447,19.212766 C30.0666383,19.212766 31.2765957,18.0028085 31.2765957,16.5319149 L31.2765957,4.46808511 C31.2765957,2.99719149 30.0666383,1.78723404 28.5957447,1.78723404 L4.46808511,1.78723404 Z M38.4255319,32.0987234 L24.8648936,27.2553191 L12.5106383,27.2553191 L12.5106383,25.4680851 L25.1776596,25.4680851 L36.6382979,29.5608511 L36.6382979,25.4680851 L37.5319149,25.4680851 C39.0028085,25.4680851 40.212766,24.2581277 40.212766,22.787234 L40.212766,10.7234043 C40.212766,9.25251064 39.0028085,8.04255319 37.5319149,8.04255319 L36.6382979,8.04255319 L36.6382979,6.25531915 L37.5319149,6.25531915 C39.9831064,6.25531915 42.0000001,8.27221277 42.0000001,10.7234043 L42.0000001,22.787234 C42.0004468,24.9028723 40.4982766,26.7428298 38.4255319,27.1659574 L38.4255319,32.0987234 Z M7.59574468,6.25531915 L26.3617021,6.25531915 L26.3617021,8.04255319 L7.59574468,8.04255319 L7.59574468,6.25531915 Z M7.59574468,12.9574468 L17.4255319,12.9574468 L17.4255319,14.7446809 L7.59574468,14.7446809 L7.59574468,12.9574468 Z M20.106383,12.9574468 L23.2340426,12.9574468 L23.2340426,14.7446809 L20.106383,14.7446809 L20.106383,12.9574468 Z" id="Combined-Shape"></path>
                        </g>
                    </g>
                </g>
            </g>
        </g>
    </g>
</svg>