<?xml version="1.0" encoding="UTF-8"?>
<svg width="62px" height="37px" viewBox="0 0 62 37" version="1.1" xmlns="http://www.w3.org/2000/svg" xmlns:xlink="http://www.w3.org/1999/xlink">
    <!-- Generator: Sketch 55.2 (78181) - https://sketchapp.com -->
    <title>icn-quote</title>
    <desc>Created with Sketch.</desc>
    <g id="Homepage" stroke="none" stroke-width="1" fill="none" fill-rule="evenodd">
        <g id="Home" transform="translate(-144.000000, -3977.000000)" fill="#FFBB41">
            <g id="Group-45" transform="translate(120.000000, 3922.000000)">
                <g id="icn-quote" transform="translate(24.000000, 55.000000)">
                    <path d="M9.35873684,0.0780047059 C4.1599462,0.0780047059 0,4.54542824 0,9.91732039 L0,17.5799478 C0,22.9522027 4.16016374,27.4190459 9.35873684,27.4190459 L12.6899135,27.4190459 L12.6899135,35.3769478 C12.6851146,35.7833561 12.8428094,36.1748386 13.1279351,36.4643502 C13.4130607,36.7538618 13.8019824,36.9174043 14.2082246,36.9186145 C16.0273263,36.9186145 17.712276,36.0034812 19.284248,34.7421439 C20.8562199,33.4808067 22.3347205,31.8089871 23.6577497,29.9130635 C26.3038807,26.1211439 28.3258784,21.5401812 28.3258784,17.5797302 L28.3258784,9.91710275 C28.3258784,4.54528314 24.1892094,0.0780047059 18.9896211,0.0780047059 L9.35895439,0.0780047059 L9.35873684,0.0780047059 Z M42.6705029,0.0780047059 C37.4717123,0.0780047059 33.3342456,4.54542824 33.3342456,9.91732039 L33.3342456,17.5799478 C33.3342456,22.9522027 37.4717848,27.4190459 42.6705029,27.4190459 L46.0016795,27.4190459 L46.0016795,35.3769478 C45.996807,35.7872983 46.1575899,36.182266 46.4476344,36.4724481 C46.7376789,36.7626301 47.1324593,36.9234894 47.5426152,36.9187222 C49.361717,36.9187222 51.0238971,36.0034086 52.596014,34.7421439 C54.168131,33.4808792 55.6690386,31.8089871 56.9922129,29.9130635 C59.6385614,26.1211439 61.6376444,21.5401812 61.6376444,17.5797302 L61.6376444,9.91710275 C61.6376444,4.54528314 57.5017731,0.0780047059 52.3013871,0.0780047059 L42.6932,0.0780047059 L42.6705392,0.0780047059 L42.6705029,0.0780047059 Z M9.35873684,3.13884784 L18.9894035,3.13884784 C22.4531368,3.13884784 25.2891111,6.08542627 25.2891111,9.91775569 L25.2891111,17.5803831 C25.2891111,20.4175576 23.5444819,24.7580204 21.1648421,28.1681871 C19.9750222,29.8732341 18.6223345,31.3705008 17.3578246,32.3850988 C16.7750608,32.8526773 16.2345731,33.1603576 15.7262456,33.4052831 L15.7262456,25.9008125 C15.7310445,25.4944043 15.5733496,25.1029218 15.288224,24.8134102 C15.0030984,24.5238986 14.6141766,24.3603561 14.2079345,24.3591459 L9.3585193,24.3591459 C5.8959462,24.3591459 3.0588117,21.4121322 3.0588117,17.5803106 L3.0588117,9.91768314 C3.0588117,6.08586157 5.89601871,3.13884784 9.3585193,3.13884784 L9.35873684,3.13884784 Z M42.6705029,3.13884784 L42.6931637,3.13884784 L52.3013509,3.13884784 C55.7662444,3.13884784 58.6010585,6.08542627 58.6010585,9.91775569 L58.6010585,17.5803831 C58.6010585,20.4174851 56.8566468,24.7580204 54.4767895,28.1681871 C53.2868971,29.8732341 51.9569789,31.3705008 50.6923965,32.3850988 C50.1149046,32.8483969 49.5655193,33.1606478 49.0608175,33.4052831 L49.0608175,25.9008125 C49.0656164,25.4944043 48.9079216,25.1029218 48.6227959,24.8134102 C48.3376703,24.5238986 47.9487486,24.3603561 47.5425064,24.3591459 L42.6703942,24.3591459 C39.2078211,24.3591459 36.3706865,21.4121322 36.3706865,17.5803106 L36.3706865,9.91768314 C36.3706865,6.08586157 39.2078936,3.13884784 42.6703942,3.13884784 L42.6705029,3.13884784 Z" id="Shape"></path>
                </g>
            </g>
        </g>
    </g>
</svg>