<?xml version="1.0" encoding="UTF-8"?>
<svg width="22px" height="22px" viewBox="0 0 22 22" version="1.1" xmlns="http://www.w3.org/2000/svg" xmlns:xlink="http://www.w3.org/1999/xlink">
    <!-- Generator: Sketch 55.2 (78181) - https://sketchapp.com -->
    <title>tw</title>
    <desc>Created with Sketch.</desc>
    <g id="Homepage" stroke="none" stroke-width="1" fill="none" fill-rule="evenodd">
        <g id="Home" transform="translate(-1260.000000, -5076.000000)" fill="#FFBB41" fill-rule="nonzero">
            <g id="Group-13" transform="translate(0.000000, 4534.000000)">
                <g id="Group-15" transform="translate(1196.000000, 542.000000)">
                    <path d="M82.3333333,6.90341667 C81.7888333,7.14725 81.2159167,7.30491667 80.5999167,7.39016667 C81.2305833,7.018 81.7026667,6.41666667 81.9318333,5.7145 C81.34425,6.05825 80.6998333,6.31583333 80.0123333,6.44508333 C79.4678333,5.8575 78.6804167,5.5 77.8205833,5.5 C76.1586667,5.5 74.813,6.84658333 74.813,8.50758333 C74.813,8.73675 74.8276667,8.98058333 74.8845,9.19508333 C72.3783333,9.06583333 70.1581667,7.87783333 68.6685833,6.0445 C68.411,6.48816667 68.2533333,7.018 68.2533333,7.5625 C68.2533333,8.60841667 68.7400833,9.52508333 69.5568333,10.0686667 C69.0554167,10.054 68.5833333,9.911 68.1240833,9.6965 L68.1240833,9.72491667 C68.1240833,11.1860833 69.2268333,12.4034167 70.6018333,12.6756667 C70.34425,12.7471667 70.1435,12.79025 69.87125,12.79025 C69.6851667,12.79025 69.4990833,12.7618333 69.313,12.7325 C69.6998333,13.9214167 70.8025833,14.795 72.12075,14.8234167 C71.0895,15.6255 69.8006667,16.11225 68.3825833,16.11225 C68.13875,16.11225 67.8958333,16.0975833 67.6666667,16.0691667 C68.9985833,16.9143333 70.5743333,17.41575 72.2784167,17.41575 C77.8068333,17.41575 80.84375,12.8324167 80.84375,8.85041667 C80.84375,8.72116667 80.84375,8.59283333 80.8290833,8.46358333 C81.4166667,8.04833333 81.9318333,7.5185 82.3333333,6.9025 L82.3333333,6.90341667 Z M86,4.125 L86,17.875 C86,20.152 84.152,22 81.875,22 L68.125,22 C65.848,22 64,20.152 64,17.875 L64,4.125 C64,1.848 65.848,0 68.125,0 L81.875,0 C84.152,0 86,1.848 86,4.125 Z" id="tw"></path>
                </g>
            </g>
        </g>
    </g>
</svg>