<?xml version="1.0" encoding="UTF-8"?>
<svg width="28px" height="22px" viewBox="0 0 28 22" version="1.1" xmlns="http://www.w3.org/2000/svg" xmlns:xlink="http://www.w3.org/1999/xlink">
    <!-- Generator: Sketch 55.2 (78181) - https://sketchapp.com -->
    <title>yt</title>
    <desc>Created with Sketch.</desc>
    <g id="Homepage" stroke="none" stroke-width="1" fill="none" fill-rule="evenodd">
        <g id="Home" transform="translate(-1292.000000, -5077.000000)" fill="#FFBB41" fill-rule="nonzero">
            <g id="Group-13" transform="translate(0.000000, 4534.000000)">
                <g id="Group-15" transform="translate(1196.000000, 542.000000)">
                    <path d="M114.671151,11.563 L107.109151,7.61 L107.109151,15.469 L114.671151,11.563 Z M119.797151,1.281 C120.344151,1.344 121.547151,1.344 122.609151,2.469 C122.609151,2.469 123.468151,3.313 123.718151,5.25 C124.015151,7.516 123.999303,9.781 123.999303,9.781 L123.999303,11.906 C123.999303,11.906 124.015151,16.172 123.718151,18.437 C123.468151,20.359 122.609151,21.218 122.609151,21.218 C121.547151,22.327 120.343151,22.327 119.797151,22.39 C119.797151,22.39 115.891151,22.687 110.000151,22.687 C102.719151,22.624 100.484151,22.406 100.484151,22.406 C99.8591514,22.297 98.4531514,22.328 97.3901514,21.218 C97.3901514,21.218 96.5311514,20.359 96.2811514,18.437 C95.9841514,16.171 96,11.906 96,11.906 L96,9.781 C96,9.781 95.9841514,7.515 96.2811514,5.25 C96.5311514,3.313 97.3901514,2.469 97.3901514,2.469 C98.4521514,1.344 99.6561514,1.344 100.202151,1.281 C100.202151,1.281 104.108151,1 109.999151,1 C115.891151,1 119.797151,1.281 119.797151,1.281 Z" id="yt"></path>
                </g>
            </g>
        </g>
    </g>
</svg>