<?xml version="1.0" encoding="UTF-8"?>
<svg width="85px" height="64px" viewBox="0 0 85 64" version="1.1" xmlns="http://www.w3.org/2000/svg" xmlns:xlink="http://www.w3.org/1999/xlink">
    <!-- Generator: Sketch 45.2 (43514) - http://www.bohemiancoding.com/sketch -->
    <title>Faq-icon1</title>
    <desc>Created with Sketch.</desc>
    <defs></defs>
    <g id="Page-1" stroke="none" stroke-width="1" fill="none" fill-rule="evenodd">
        <g id="Why-Page" transform="translate(-472.000000, -1593.000000)" fill-rule="nonzero">
            <g id="Group-2" transform="translate(224.000000, 1554.000000)">
                <g id="Faq-icon1" transform="translate(248.000000, 39.000000)">
                    <path d="M19.01,48.36 L19.01,38.495 C19.01,33.924 21.871,32.826 22.246,32.702 C22.738,32.64 26.154,32.202 28.692,31.592 C29.411,31.42 30.153,31.241 30.864,31.036 L31.709,31.673 L33.143,41.074 L34.121,40.571 L34.372,40.904 L33.127,32.74 L36.457,35.249 L37.339,33.289 L38.373,34.857 L36.962,44.332 L43.1,52.459 L46.27,31.671 L47.115,31.034 C47.826,31.239 48.568,31.417 49.286,31.59 C51.824,32.199 55.238,32.637 55.733,32.699 C56.122,32.828 58.969,33.931 58.969,38.492 L58.969,43.963 L60.21,43.256 L60.21,38.492 C60.21,32.726 56.201,31.54 56.031,31.493 L55.939,31.474 C55.902,31.469 52.19,31.011 49.575,30.383 C48.888,30.218 48.125,30.035 47.395,29.821 L44.851,25.723 L44.286,26.079 L44.286,23.973 C44.933,23.303 45.644,22.488 46.142,21.63 C46.692,20.684 46.849,19.616 46.955,18.257 C48.098,17.818 49.167,16.296 49.128,14.34 C49.113,13.583 49.077,11.918 47.699,11.533 C47.699,10.922 47.699,9.793 47.699,7.751 C47.699,3.972 44.238,0.835 38.987,0.836 C33.736,0.836 30.276,3.972 30.276,7.752 C30.277,9.802 30.277,10.931 30.277,11.541 C28.897,11.937 28.864,13.584 28.848,14.341 C28.808,16.297 29.877,17.819 31.021,18.258 C31.128,19.617 31.285,20.685 31.833,21.631 C32.332,22.489 33.043,23.304 33.69,23.974 L33.69,26.079 L33.126,25.723 L30.582,29.821 C29.853,30.035 29.089,30.219 28.402,30.383 C25.788,31.01 22.076,31.47 22.038,31.475 L21.947,31.493 C21.776,31.54 17.767,32.726 17.767,38.492 L17.77,49 L19.01,48.36 Z M32.188,17.187 L31.652,17.148 C31.001,17.101 30.058,15.914 30.09,14.37 C30.123,12.698 30.524,12.698 30.946,12.698 C31.095,12.698 31.274,12.716 31.479,12.751 L31.555,12.764 C31.979,13.246 32.19,14.004 32.19,14.927 C32.19,16.522 32.571,16.86 32.571,16.86 C32.571,16.86 32.648,14.549 32.648,12.078 C32.648,9.607 32.648,9.607 32.648,8.481 C32.648,7.356 34.193,5.345 36.014,6.149 C37.835,6.953 38.989,6.712 38.989,6.712 C38.989,6.712 40.142,6.953 41.964,6.149 C43.784,5.345 45.329,7.355 45.329,8.481 C45.329,9.606 45.329,9.606 45.329,12.078 C45.33,14.549 45.407,16.861 45.407,16.861 C45.407,16.861 45.788,16.523 45.788,14.928 C45.788,14.005 45.999,13.247 46.423,12.765 L46.498,12.752 C46.703,12.717 46.883,12.699 47.032,12.699 C47.455,12.699 47.854,12.699 47.888,14.37 C47.919,15.914 46.976,17.102 46.326,17.149 L45.79,17.188 L45.752,17.724 C45.649,19.178 45.547,20.192 45.07,21.012 C44.385,22.189 43.183,23.345 42.465,24.034 L42.323,24.171 C41.056,25.391 40.238,25.606 38.989,25.606 C37.74,25.606 36.922,25.391 35.656,24.171 L35.511,24.033 C34.793,23.343 33.591,22.189 32.907,21.012 C32.432,20.194 32.329,19.179 32.225,17.725 L32.188,17.187 Z M34.932,25.187 C36.234,26.402 37.317,26.844 38.989,26.844 C40.661,26.844 41.743,26.402 43.046,25.187 L43.046,26.864 L38.989,29.422 L34.932,26.863 L34.932,25.187 Z M46.167,30.197 L42.016,33.325 L40.493,29.94 L44.456,27.441 L46.167,30.197 Z M37.484,29.94 L35.962,33.325 L31.811,30.197 L33.522,27.441 L37.484,29.94 Z M38.418,30.891 L38.988,29.621 L39.55,30.871 L38.827,30.883 L38.418,30.891 Z M42.175,50.292 L39.418,34.841 L40.523,33.033 L41.521,35.251 L44.851,32.741 L42.175,50.292 Z" id="Shape" fill="#000000"></path>
                    <polygon id="Shape" fill="#000000" points="25.46 45.036 25.46 42.052 24.84 42.052 24.22 42.052 24.22 45.675"></polygon>
                    <polygon id="Shape" fill="#000000" points="53.759 46.935 53.759 42.051 52.518 42.051 52.518 47.642"></polygon>
                    <polygon id="Shape" fill="#FFBB41" points="2.346 63.406 32.453 47.887 41.849 60.329 76.524 40.564 78.819 44.591 85.063 33.914 72.694 33.844 74.989 37.87 42.681 56.285 33.354 43.934 0.925 60.65"></polygon>
                </g>
            </g>
        </g>
    </g>
</svg>