<?xml version="1.0" encoding="UTF-8"?>
<svg width="87px" height="59px" viewBox="0 0 87 59" version="1.1" xmlns="http://www.w3.org/2000/svg" xmlns:xlink="http://www.w3.org/1999/xlink">
    <!-- Generator: Sketch 45.2 (43514) - http://www.bohemiancoding.com/sketch -->
    <title>Faq3</title>
    <desc>Created with Sketch.</desc>
    <defs></defs>
    <g id="Page-1" stroke="none" stroke-width="1" fill="none" fill-rule="evenodd">
        <g id="Why-Page" transform="translate(-1050.000000, -1986.000000)">
            <g id="Faq3" transform="translate(1050.000000, 1986.000000)">
                <path d="M83.704,43.6762937 C83.668,38.0712937 79.759,36.9442937 79.593,36.8982937 C79.466,36.8762937 75.865,36.4542937 73.325,35.8622937 C71.164,35.3592937 68.204,34.6692937 68.195,33.3802937 L68.187,32.2282937 C71.837,32.2042937 73.615,29.4182937 73.615,29.4182937 C73.615,29.4182937 72.253,27.6432937 72.239,25.5642937 C72.225,23.5582937 74.493,15.8032937 70.094,10.3502937 C69.961,10.1782937 69.818,10.0122937 69.665,9.85129368 C68.098,8.24829368 65.761,7.27929368 62.865,7.29829368 C59.97,7.31729368 57.646,8.31729368 56.181,9.84929368 C55.95,10.1042937 55.808,10.2722937 55.677,10.4462937 C51.351,15.9572937 53.721,23.6812937 53.735,25.6862937 C53.749,27.7652937 52.409,29.5592937 52.409,29.5592937 C52.409,29.5592937 52.465,29.6412937 52.567,29.7712937 C51.818,29.6402937 51.06,29.4942937 50.376,29.3332937 C49.692,29.1742937 48.932,28.9962937 48.205,28.7882937 L45.645,24.7252937 L45.086,25.0822937 L45.072,22.9912937 C45.713,22.3212937 46.414,21.5062937 46.904,20.6482937 C47.445,19.7042937 47.593,18.6392937 47.691,17.2872937 C48.827,16.8412937 49.88,15.3182937 49.829,13.3732937 C49.808,12.6202937 49.763,10.9792937 48.385,10.5942937 C48.381,9.98829368 48.374,8.86429368 48.361,6.82529368 C48.337,3.06329368 44.872,-0.034706319 39.646,0.000293680992 C34.42,0.034293681 30.997,3.17829368 31.022,6.93929368 C31.036,8.97529368 31.043,10.0992937 31.047,10.7062937 C29.672,11.1092937 29.651,12.7502937 29.641,13.5062937 C29.615,15.4512937 30.689,16.9602937 31.829,17.3922937 C31.945,18.7452937 32.107,19.8062937 32.66,20.7432937 C33.162,21.5942937 33.874,22.4002937 34.523,23.0622937 L34.537,25.1522937 L33.974,24.8022937 L31.469,28.8992937 C31.267,28.9602937 31.063,29.0172937 30.858,29.0742937 C30.646,28.7082937 30.319,28.4072937 29.821,28.2692937 C29.816,27.7012937 29.809,26.9062937 29.799,25.7862937 C29.779,22.7252937 28.173,19.2562937 25.056,19.7592937 C25.056,19.7592937 24.198,18.5182937 21.068,18.5382937 C17.938,18.5592937 12.419,19.7182937 12.458,25.5632937 C12.473,25.6832937 12.46,25.8102937 12.461,25.9352937 C12.471,27.0572937 12.478,27.8522937 12.483,28.4192937 C11.111,28.8252937 11.092,30.4662937 11.084,31.2212937 C11.062,33.1672937 12.139,34.6742937 13.281,35.1022937 C13.399,36.4542937 13.564,37.5152937 14.119,38.4512937 C14.623,39.3022937 15.337,40.1062937 15.988,40.7662937 L16.021,44.5442937 C16.032,45.8792937 12.998,46.6352937 10.783,47.1882937 C8.115,47.8532937 6.864,48.3302937 6.863,48.3332937 C6.704,48.3792937 3.183,49.4562937 2.798,54.3442937 L0,54.3442937 L0,58.4922937 L86.541,58.4922937 L86.541,54.3442937 L83.775,54.3442937 L83.704,43.6762937 Z M15.186,37.8182937 C14.706,37.0072937 14.595,35.9992937 14.48,34.5532937 L14.437,34.0172937 L13.901,33.9832937 C13.254,33.9422937 12.307,32.7702937 12.324,31.2352937 C12.334,30.3542937 12.452,29.9412937 12.623,29.7452937 C13.83,29.8002937 14.406,30.7282937 14.418,32.0432937 C14.43,33.4052937 14.812,33.6912937 14.812,33.6912937 C14.812,33.6912937 14.872,31.7152937 14.853,29.6052937 C14.834,27.4942937 14.844,28.9912937 14.835,28.0292937 C14.827,27.0672937 27.447,26.9582937 27.456,27.9202937 C27.465,28.8822937 27.455,27.3852937 27.474,29.4962937 C27.493,31.6072937 27.587,33.5812937 27.587,33.5812937 C27.587,33.5812937 27.963,33.2882937 27.951,31.9262937 C27.939,30.6122937 28.5,29.6732937 29.706,29.5982937 C29.879,29.7892937 30.007,30.1992937 30.032,31.0792937 C30.076,32.6142937 29.15,33.8032937 28.504,33.8552937 L27.968,33.9002937 L27.935,34.4362937 C27.846,35.8822937 27.752,36.8932937 27.286,37.7112937 C26.615,38.8892937 25.428,40.0492937 24.718,40.7422937 L24.579,40.8792937 C23.33,42.1042937 22.519,42.3242937 21.276,42.3352937 L21.198,42.3352937 C20.022,42.3352937 19.197,42.1182937 17.948,40.9362937 L17.805,40.8022937 C17.084,40.1222937 15.877,38.9842937 15.186,37.8182937 Z M33.73,20.1112937 C33.251,19.3012937 33.142,18.2932937 33.031,16.8452937 L32.99,16.3102937 L32.453,16.2742937 C31.806,16.2322937 30.861,15.0572937 30.882,13.5222937 C30.904,11.8562937 31.306,11.8562937 31.733,11.8562937 C31.879,11.8562937 32.053,11.8732937 32.251,11.9052937 L32.331,11.9182937 C32.754,12.3962937 32.968,13.1472937 32.974,14.0632937 C32.984,15.6512937 33.366,15.9852937 33.366,15.9852937 C33.366,15.9852937 33.428,13.6842937 33.411,11.2252937 C33.395,8.76529368 33.395,8.76529368 33.388,7.64529368 C33.381,6.52529368 34.905,4.51329368 36.722,5.30229368 C38.54,6.09029368 39.686,5.84229368 39.686,5.84229368 C39.686,5.84229368 40.836,6.07429368 42.643,5.26329368 C44.45,4.45129368 46,6.44129368 46.008,7.56129368 C46.015,8.68229368 46.015,8.68229368 46.031,11.1412937 C46.048,13.6012937 46.139,15.9012937 46.139,15.9012937 C46.139,15.9012937 46.516,15.5622937 46.505,13.9742937 C46.499,13.0572937 46.703,12.3032937 47.121,11.8212937 L47.199,11.8062937 C47.407,11.7702937 47.59,11.7512937 47.741,11.7512937 C48.137,11.7512937 48.545,11.7512937 48.589,13.4062937 C48.63,14.9402937 47.701,16.1282937 47.055,16.1782937 L46.52,16.2202937 L46.485,16.7572937 C46.392,18.2042937 46.297,19.2152937 45.83,20.0312937 C45.157,21.2062937 43.969,22.3622937 43.258,23.0532937 L43.116,23.1922937 C41.864,24.4142937 41.053,24.6322937 39.809,24.6412937 L39.749,24.6412937 C38.564,24.6412937 37.734,24.4242937 36.485,23.2362937 L36.34,23.0992937 C35.622,22.4192937 34.418,21.2782937 33.73,20.1112937 Z M35.773,24.2652937 C37.063,25.4512937 38.125,25.8832937 39.75,25.8832937 L39.819,25.8832937 C41.481,25.8722937 42.556,25.4252937 43.842,24.2112937 L43.853,25.8722937 L39.835,28.4422937 L35.784,25.9252937 L35.773,24.2652937 Z M66.955,33.3892937 C66.962,34.5502937 67.815,35.3132937 69.025,35.8702937 C68.091,39.0562937 63.889,40.3222937 63.086,40.5362937 C62.279,40.3342937 58.063,39.1302937 57.087,35.9482937 C58.29,35.3752937 59.133,34.6012937 59.125,33.4402937 L59.109,30.9752937 C60.356,32.1152937 61.392,32.5332937 62.969,32.5332937 L63.033,32.5332937 C64.646,32.5212937 65.693,32.0902937 66.937,30.9242937 L66.955,33.3892937 Z M77.519,54.3432937 L77.472,47.1662937 L76.231,47.1752937 L76.278,54.3432937 L68.976,54.3432937 C69.228,53.9462937 69.376,53.4772937 69.373,52.9722937 C69.367,52.2042937 69.028,51.5222937 68.49,51.0612937 C69.022,50.5932937 69.352,49.9062937 69.347,49.1372937 C69.342,48.3702937 69.003,47.6872937 68.465,47.2262937 C68.996,46.7582937 69.326,46.0712937 69.321,45.3032937 C69.316,44.5352937 68.977,43.8522937 68.439,43.3912937 C68.97,42.9232937 69.3,42.2362937 69.295,41.4682937 C69.291,40.7882937 69.022,40.1532937 68.538,39.6742937 C68.409,39.5462937 68.268,39.4382937 68.121,39.3432937 C69.02,38.5692937 69.795,37.5772937 70.184,36.3192937 C71.089,36.6152937 72.085,36.8492937 73.04,37.0712937 C75.503,37.6452937 78.811,38.0492937 79.298,38.1062937 C79.679,38.2302937 82.432,39.2812937 82.46,43.6842937 L82.53,54.3432937 L77.519,54.3432937 Z M69.514,23.6242937 C69.423,25.0322937 69.331,26.0152937 68.876,26.8092937 C68.222,27.9532937 67.064,29.0792937 66.372,29.7512937 L66.235,29.8852937 C65.02,31.0722937 64.231,31.2842937 63.024,31.2922937 L62.969,31.9112937 L62.968,31.9112937 L62.968,31.2922937 C61.817,31.2922937 61.009,31.0812937 59.796,29.9282937 L59.657,29.7962937 C58.956,29.1322937 57.783,28.0212937 57.113,26.8862937 C56.649,26.0982937 56.543,25.1162937 56.436,23.7602937 C56.442,21.6852937 56.444,21.1402937 56.416,19.9292937 C62.523,19.4822937 65.434,15.9832937 66.679,13.4832937 C67.09,15.2282937 68.232,16.8462937 69.083,17.8672937 L69.083,17.8852937 C69.09,17.8862937 69.095,17.8882937 69.102,17.8892937 C69.242,18.0562937 69.373,18.2072937 69.493,18.3392937 L69.514,23.6242937 Z M43.753,43.9402937 C43.724,39.5262937 46.474,38.4442937 46.839,38.3212937 C47.322,38.2572937 50.628,37.8092937 53.084,37.2032937 C54.036,36.9692937 55.028,36.7212937 55.93,36.4132937 C56.337,37.6682937 57.125,38.6502937 58.036,39.4132937 C57.342,39.8712937 56.882,40.6582937 56.888,41.5512937 C56.893,42.3192937 57.233,43.0022937 57.771,43.4632937 C57.239,43.9312937 56.909,44.6182937 56.914,45.3852937 C56.919,46.1532937 57.259,46.8362937 57.797,47.2972937 C57.265,47.7652937 56.935,48.4522937 56.94,49.2212937 C56.945,49.9892937 57.284,50.6712937 57.822,51.1322937 C57.29,51.6002937 56.96,52.2872937 56.966,53.0552937 C56.969,53.5182937 57.104,53.9572937 57.336,54.3442937 L50.078,54.3442937 L50.032,47.3492937 L49.412,47.3532937 L48.792,47.3582937 L48.838,54.3442937 L43.823,54.3442937 L43.753,43.9402937 Z M59.516,54.3432937 L59.516,54.3402937 C59.156,54.3192937 58.839,54.2092937 58.592,53.9652937 C58.345,53.7202937 58.207,53.3952937 58.204,53.0462937 C58.199,52.3402937 58.751,51.7662937 59.46,51.7402937 L59.451,50.5002937 C58.742,50.4832937 58.183,49.9172937 58.179,49.2112937 C58.175,48.5052937 58.726,47.9322937 59.434,47.9052937 L59.427,46.6652937 C58.718,46.6482937 58.158,46.0822937 58.154,45.3762937 C58.15,44.6702937 58.701,44.0972937 59.41,44.0702937 L59.401,42.8302937 C58.693,42.8142937 58.133,42.2482937 58.129,41.5422937 C58.125,40.8962937 58.595,40.3582937 59.211,40.2532937 C59.92,40.6862937 60.63,41.0122937 61.242,41.2472937 L61.328,54.3432937 L59.516,54.3432937 L59.516,54.3432937 Z M64.941,41.2232937 C65.546,40.9812937 66.248,40.6472937 66.948,40.2082937 C67.215,40.2552937 67.471,40.3622937 67.67,40.5582937 C67.917,40.8022937 68.055,41.1282937 68.057,41.4762937 C68.063,42.1832937 67.511,42.7562937 66.802,42.7832937 L66.81,44.0232937 C67.52,44.0392937 68.079,44.6052937 68.083,45.3112937 C68.088,46.0182937 67.536,46.5902937 66.828,46.6172937 L66.835,47.8572937 C67.545,47.8742937 68.104,48.4402937 68.108,49.1462937 C68.112,49.8512937 67.56,50.4252937 66.852,50.4522937 L66.86,51.6922937 C67.569,51.7092937 68.129,52.2752937 68.133,52.9802937 C68.137,53.7002937 67.557,54.2882937 66.839,54.2922937 L66.839,54.3432937 L65.027,54.3432937 L64.941,41.2232937 Z M57.73,32.2962937 C57.731,32.2962937 57.732,32.2962937 57.732,32.2962937 C57.78,32.3352937 57.829,32.3802937 57.878,32.4232937 L57.885,33.4482937 C57.894,34.7372937 54.943,35.4662937 52.787,35.9982937 C50.257,36.6232937 46.661,37.0932937 46.625,37.0972937 L46.534,37.1172937 C46.368,37.1642937 42.475,38.3442937 42.513,43.9482937 L42.581,54.3442937 L39.484,54.3442937 C39.166,49.5282937 35.936,48.2762937 35.373,48.0962937 C35.107,47.9592937 34.178,47.5402937 31.854,47.0042937 C29.629,46.4912937 26.582,45.7882937 26.57,44.4522937 L26.537,40.6752937 C27.176,40.0032937 27.876,39.1862937 28.365,38.3262937 C28.903,37.3812937 29.05,36.3162937 29.144,34.9642937 C30.278,34.5162937 31.329,32.9902937 31.273,31.0442937 C31.267,30.8372937 31.258,30.5622937 31.221,30.2642937 C31.402,30.2142937 31.581,30.1632937 31.759,30.1112937 L37.354,34.2702937 L39.836,28.6522937 L42.394,34.2372937 L47.933,30.0052937 C48.642,30.2042937 49.38,30.3762937 50.096,30.5432937 C51.438,30.8552937 53.022,31.1182937 54.289,31.3062937 C55.149,31.8472937 56.295,32.3062937 57.73,32.2962937 Z M17.261,44.5322937 L17.239,41.9662937 C18.527,43.1462937 19.585,43.5772937 21.199,43.5772937 L21.287,43.5762937 C22.949,43.5612937 24.023,43.1122937 25.307,41.8952937 L25.329,44.4612937 C25.338,45.4662937 25.967,46.1782937 26.915,46.7172937 L27.681,46.7152937 C27.284,47.4612937 25.696,49.7902937 21.289,49.8062937 C21.275,49.8062937 21.261,49.8062937 21.246,49.8062937 C16.85,49.8062937 15.376,47.4732937 15.028,46.7582937 L15.806,46.7562937 C16.691,46.2082937 17.27,45.5032937 17.261,44.5322937 Z M46.98,29.1692937 L42.875,32.3072937 L41.34,28.9532937 L45.262,26.4422937 L46.98,29.1692937 Z M38.338,28.9732937 L36.847,32.3462937 L32.701,29.2642937 L34.382,26.5152937 L38.338,28.9732937 Z M14.051,47.5562937 C14.692,48.6892937 16.583,51.0472937 21.246,51.0472937 C21.261,51.0472937 21.278,51.0472937 21.293,51.0472937 C26.067,51.0302937 28.037,48.5662937 28.683,47.4592937 C29.601,47.7552937 30.608,47.9892937 31.575,48.2122937 C34.056,48.7852937 34.814,49.2022937 34.814,49.2022937 L34.97,49.2682937 C35.001,49.2772937 37.919,50.1232937 38.241,54.3422937 L4.046,54.3422937 C4.406,50.4252937 7.09,49.5582937 7.256,49.5062937 C7.268,49.5012937 8.5,49.0342937 11.082,48.3912937 C12.077,48.1442937 13.114,47.8832937 14.051,47.5562937 Z" id="Shape" fill="#000000" fill-rule="nonzero"></path>
                <path d="M2.798,54.3442937 L0,54.3442937 L0,58.4922937 L86.541,58.4922937 L86.541,54.3442937 L83.775,54.3442937 C30.047,51.085627 3.05466667,51.085627 2.798,54.3442937 Z" id="Path-Copy" fill="#FFBB41"></path>
            </g>
        </g>
    </g>
</svg>