<?xml version="1.0" encoding="UTF-8"?>
<svg width="180px" height="128px" viewBox="0 0 180 128" version="1.1" xmlns="http://www.w3.org/2000/svg" xmlns:xlink="http://www.w3.org/1999/xlink">
    <!-- Generator: Sketch 46.2 (44496) - http://www.bohemiancoding.com/sketch -->
    <title>Group 6</title>
    <desc>Created with Sketch.</desc>
    <defs></defs>
    <g id="Why-Us-Page" stroke="none" stroke-width="1" fill="none" fill-rule="evenodd">
        <g id="Why-Us" transform="translate(-574.000000, -1908.000000)">
            <g id="Group-6" transform="translate(574.000000, 1908.000000)">
                <g id="1637086">
                    <path d="M22.3287964,0.18498946 C20.9972675,0.18498946 19.9137131,1.27399989 19.9137131,2.61223345 L19.9137131,108.976879 C19.9137131,110.315113 20.9972675,111.404123 22.3287964,111.404123 L158.769392,111.404123 C160.100921,111.404123 161.184476,110.315113 161.184476,108.976879 L161.184476,2.61223345 C161.184476,1.27399989 160.100921,0.18498946 158.769392,0.18498946 L22.3287964,0.18498946 Z" id="Fill-1" fill="#202020"></path>
                    <path d="M5.86213147,115.058486 C4.53071298,115.058486 3.44838644,116.147833 3.44838644,117.486479 L3.44838644,122.103895 C3.44838644,123.442542 4.53071298,124.531889 5.86213147,124.531889 L174.137869,124.531889 C175.469287,124.531889 176.551614,123.442542 176.551614,122.103895 L176.551614,117.486479 C176.551614,116.147833 175.469287,115.058486 174.137869,115.058486 L111.726215,115.058486 C111.511632,118.113832 108.971145,120.534252 105.879769,120.534252 L73.5078534,120.534252 C70.4158504,120.534252 67.8759908,118.113832 67.6607804,115.058486 L5.86213147,115.058486 Z M174.137869,128 L5.86213147,128 C2.62958289,128 0,125.354895 0,122.103895 L0,117.486479 C0,114.234849 2.62958289,111.589744 5.86213147,111.589744 L69.3699152,111.589744 C70.3217351,111.589744 71.0941084,112.366045 71.0941084,113.324115 L71.0941084,114.637516 C71.0941084,115.976163 72.1764349,117.065509 73.5078534,117.065509 L105.879769,117.065509 C107.21056,117.065509 108.293514,115.976163 108.293514,114.637516 L108.293514,113.324115 C108.293514,112.366045 109.06526,111.589744 110.01708,111.589744 L174.137869,111.589744 C177.370417,111.589744 180,114.234849 180,117.486479 L180,122.103895 C180,125.354895 177.370417,128 174.137869,128 L174.137869,128 Z" id="Fill-2" fill="#202020"></path>
                    <path d="M30.272588,6.09898918 C28.4558499,6.09898918 26.9779755,7.5673591 26.9779755,9.37241332 L26.9779755,108.78206 C26.9779755,110.587114 28.4558499,112.055484 30.272588,112.055484 L153.020095,112.055484 C154.836833,112.055484 156.314707,110.587114 156.314707,108.78206 L156.314707,9.37241332 C156.314707,7.5673591 154.836833,6.09898918 153.020095,6.09898918 L30.272588,6.09898918 Z" id="Fill-3" fill="#FAFAFA"></path>
                    <path d="M64.1604266,34.8295157 C63.9837383,34.8295157 63.8151953,34.8481868 63.6591834,34.8842843 C62.2563289,35.2116511 61.2763984,36.441455 61.2763984,37.8753965 L61.2763984,54.5275392 C61.2763984,55.3484458 61.5978206,56.1195627 62.1823955,56.6996119 L72.6746693,67.1224492 C73.2586177,67.7024985 74.0355447,68.0223968 74.8613429,68.0223968 L77.6996327,68.0223968 C78.5254309,68.0223968 79.3023579,67.7024985 79.8863063,67.1224492 L90.3785801,56.6996119 C90.9625285,56.1195627 91.2845772,55.3484458 91.2845772,54.5275392 L91.2845772,37.8753965 C91.2845772,36.3157362 90.110415,35.0037794 88.5534282,34.8239143 C88.400549,34.806488 88.2188484,34.8170683 88.0145917,34.8562776 C85.9801708,35.2458815 79.1363211,36.5180066 76.4728399,36.5180066 C73.848205,36.5180066 66.7932066,35.2645526 64.6936241,34.88055 C64.5094172,34.846942 64.3302227,34.8295157 64.1604266,34.8295157 Z M77.6996327,70.017094 L74.8613429,70.017094 C73.4985879,70.017094 72.2179115,69.4899463 71.2542713,68.5327406 L60.7619975,58.1105257 C59.7983574,57.15332 59.2682927,55.8811948 59.2682927,54.5275392 L59.2682927,37.8753965 C59.2682927,35.5103889 60.8848021,33.4820837 63.2005458,32.9424886 C63.7769755,32.8080566 64.4091685,32.7999658 65.057652,32.9182161 C69.2975431,33.694312 74.5223772,34.5233094 76.4728399,34.5233094 C79.0222883,34.5233094 86.2176348,33.1690314 87.6336469,32.8976779 C88.0446663,32.8186369 88.4224784,32.8005881 88.7852532,32.8422869 C91.3553779,33.1391576 93.2926829,35.3025172 93.2926829,37.8753965 L93.2926829,54.5275392 C93.2926829,55.8811948 92.7619917,57.15332 91.7989781,58.1105257 L81.3067043,68.5327406 C80.3430642,69.4899463 79.0617612,70.017094 77.6996327,70.017094 L77.6996327,70.017094 Z" id="Fill-5" fill="#FFBB41"></path>
                    <path d="M92.2251343,51.4188034 C91.6026125,51.4188034 91.097561,50.9638677 91.097561,50.4023362 C91.097561,49.8401702 91.6026125,49.3852345 92.2251343,49.3852345 C93.9914079,49.3852345 95.4284836,48.0889532 95.4284836,46.4957265 C95.4284836,44.9024998 93.9914079,43.6062185 92.2251343,43.6062185 C91.6026125,43.6062185 91.097561,43.1512828 91.097561,42.5897513 C91.097561,42.0282198 91.6026125,41.5726496 92.2251343,41.5726496 C95.2343412,41.5726496 97.6829268,43.7813402 97.6829268,46.4957265 C97.6829268,49.2107473 95.2343412,51.4188034 92.2251343,51.4188034" id="Fill-6" fill="#FFBB41"></path>
                    <path d="M60.3358413,51.4188034 C57.3266344,51.4188034 54.8780488,49.2107473 54.8780488,46.4957265 C54.8780488,43.7813402 57.3266344,41.5726496 60.3358413,41.5726496 C60.9583631,41.5726496 61.4634146,42.0282198 61.4634146,42.5897513 C61.4634146,43.1512828 60.9583631,43.6062185 60.3358413,43.6062185 C58.5695677,43.6062185 57.132492,44.9024998 57.132492,46.4957265 C57.132492,48.0889532 58.5695677,49.3852345 60.3358413,49.3852345 C60.9583631,49.3852345 61.4634146,49.8401702 61.4634146,50.4023362 C61.4634146,50.9638677 60.9583631,51.4188034 60.3358413,51.4188034" id="Fill-7" fill="#FFBB41"></path>
                    <path d="M60.2720322,45.9487179 C59.7175319,45.9487179 59.2682927,45.4851426 59.2682927,44.9137441 L59.2682927,32.0924646 C59.2682927,29.0850359 60.7425743,26.3326381 62.9373931,25.2434298 C65.7255586,23.859806 68.5569562,22.7570391 70.9585378,21.8608795 C71.986713,21.4773646 73.8369271,20.9911916 74.9979317,20.7994341 C75.0549481,20.790395 75.1125911,20.7852298 75.1702341,20.7865211 L79.1682753,20.8420469 C79.2102545,20.8426925 79.251607,20.8459208 79.2929596,20.8517316 C82.2183404,21.2694659 84.3699269,22.3160614 86.8611058,23.5285885 C87.373627,23.7778087 87.901812,24.0347766 88.4538061,24.2943271 C91.3935977,25.6753684 93.2926829,28.7363859 93.2926829,32.0924646 L93.2926829,44.4837425 C93.2926829,45.055141 92.8434437,45.5180707 92.2889434,45.5180707 C91.734443,45.5180707 91.2845772,45.055141 91.2845772,44.4837425 L91.2845772,32.0924646 C91.2845772,28.9972277 89.310932,26.9711841 87.6211158,26.1770369 C87.0597234,25.9136125 86.5240197,25.6527707 86.0033533,25.3996766 C83.6794644,24.2691469 81.6701056,23.29099 79.0780516,22.9107033 L75.2316364,22.8571145 C74.1846646,23.0385416 72.5336947,23.4743541 71.6421083,23.8068628 C69.2875182,24.6855899 66.5162697,25.7644678 63.8083032,27.1080615 C62.3177312,27.8479741 61.2763984,29.8979068 61.2763984,32.0924646 L61.2763984,44.9137441 C61.2763984,45.4851426 60.8265326,45.9487179 60.2720322,45.9487179" id="Fill-8" fill="#FFBB41"></path>
                    <path d="M75.9570951,88.6153846 C75.6326868,88.6153846 75.3269078,88.460712 75.1322628,88.1986099 L66.4612454,76.5101499 C66.3353364,76.3399453 66.2640308,76.135441 66.2569645,75.9231706 L65.8541842,63.4296365 C65.8361972,62.8568948 66.2820178,62.3779922 66.849893,62.3592244 C67.4241921,62.3469283 67.8944236,62.7895896 67.9124106,63.3623313 L68.3042702,75.5296939 L75.9320418,85.8112156 L83.5386145,74.9220053 L83.1493244,64.5136391 C83.1274831,63.9415446 83.5707341,63.4600533 84.1392517,63.4380497 C84.7058421,63.4153989 85.1850671,63.8632375 85.2069085,64.4359792 L85.6090463,75.1938149 C85.6173974,75.4203229 85.5518734,75.6442422 85.42211,75.8299788 L76.799272,88.1753119 C76.6091238,88.4464744 76.3014176,88.6102073 75.9718702,88.6147374 C75.966731,88.6153846 75.9615919,88.6153846 75.9570951,88.6153846" id="Fill-9" fill="#FFBB41"></path>
                    <path d="M108.186464,94.0854701 L41.0818289,94.0854701 C39.0059356,94.0854701 37.3170732,92.7270286 37.3170732,91.0566487 C37.3170732,80.6620555 48.6911341,72.2051282 62.6713711,72.2051282 L64.8609862,72.2051282 C65.4170291,72.2051282 65.867518,72.6560553 65.867518,73.212639 C65.867518,73.7692227 65.4170291,74.2207787 64.8609862,74.2207787 L62.6713711,74.2207787 C56.4072498,74.2207787 50.5119389,76.0131668 46.0711355,79.2677662 C41.7245768,82.4531858 39.3307651,86.639827 39.3307651,91.0566487 C39.3307651,91.5346188 40.0796952,92.0698196 41.0818289,92.0698196 L108.186464,92.0698196 C109.188598,92.0698196 109.937528,91.5346188 109.937528,91.0566487 C109.937528,86.639827 107.543716,82.4531858 103.197785,79.2677662 C98.7569821,76.0131668 92.8610429,74.2207787 86.5969216,74.2207787 L84.17358,74.2207787 C83.6175371,74.2207787 83.1670482,73.7692227 83.1670482,73.212639 C83.1670482,72.6560553 83.6175371,72.2051282 84.17358,72.2051282 L86.5969216,72.2051282 C100.577787,72.2051282 111.95122,80.6620555 111.95122,91.0566487 C111.95122,92.7270286 110.262357,94.0854701 108.186464,94.0854701" id="Fill-10" fill="#FFBB41"></path>
                    <path d="M139.45393,68.9230769 L117.375339,68.9230769 C116.80419,68.9230769 116.341463,68.1878155 116.341463,67.2815393 C116.341463,66.375263 116.80419,65.6410256 117.375339,65.6410256 L139.45393,65.6410256 C140.025078,65.6410256 140.487805,66.375263 140.487805,67.2815393 C140.487805,68.1878155 140.025078,68.9230769 139.45393,68.9230769" id="Fill-12" fill="#FFBB41"></path>
                    <path d="M139.45393,74.3931624 L117.375339,74.3931624 C116.80419,74.3931624 116.341463,73.6581303 116.341463,72.7521368 C116.341463,71.8461432 116.80419,71.1111111 117.375339,71.1111111 L139.45393,71.1111111 C140.025078,71.1111111 140.487805,71.8461432 140.487805,72.7521368 C140.487805,73.6581303 140.025078,74.3931624 139.45393,74.3931624" id="Fill-13" fill="#FFBB41"></path>
                </g>
                <rect id="Rectangle-5" fill="#FFBB41" x="117" y="38" width="22" height="23"></rect>
            </g>
        </g>
    </g>
</svg>