<?xml version="1.0" encoding="UTF-8"?>
<svg width="80px" height="80px" viewBox="0 0 80 80" version="1.1" xmlns="http://www.w3.org/2000/svg" xmlns:xlink="http://www.w3.org/1999/xlink">
    <!-- Generator: Sketch 55.2 (78181) - https://sketchapp.com -->
    <title>icn-satisfy</title>
    <desc>Created with Sketch.</desc>
    <g id="Homepage" stroke="none" stroke-width="1" fill="none" fill-rule="evenodd">
        <g id="Home" transform="translate(-1078.000000, -3384.000000)">
            <g id="Office-2" transform="translate(0.000000, 3115.000000)">
                <g id="Group-44" transform="translate(945.000000, 269.000000)">
                    <g id="icn-satisfy" transform="translate(133.000000, 0.000000)">
                        <rect id="Rectangle-Copy-9" stroke="#FFBB41" x="0.5" y="0.5" width="79" height="79" rx="39.5"></rect>
                        <g id="noun_Ribbon_831690" transform="translate(19.000000, 14.000000)" fill="#FFBB41">
                            <path d="M4.37253521,25.0200704 L4.03239437,31.6947183 L8.36056338,32.8211268 L2.87394366,45.8426056 L10.675,45.3373239 L15.7598592,51.275 L21,38.8302817 L26.2426056,51.2725352 L31.3274648,45.3348592 L39.1285211,45.8401408 L33.6419014,32.8211268 L37.9700704,31.6922535 L37.6299296,25.0176056 L41.9753521,19.8119718 L37.6299296,14.6038732 L37.9700704,7.92922535 L31.2707746,6.18661972 L27.4823944,0.586619718 L21,2.97007042 L14.5176056,0.586619718 L10.7292254,6.18415493 L4.03239437,7.93169014 L4.37253521,14.606338 L0.0271126761,19.8119718 L4.37253521,25.0200704 Z M15.2447183,47.9869718 L11.4316901,43.5355634 L5.58028169,43.9151408 L10.068662,33.2672535 L10.7292254,33.4397887 L14.5176056,39.0397887 L19.8440141,37.0827465 L15.2447183,47.9869718 Z M36.4197183,43.9151408 L30.5683099,43.5355634 L26.7552817,47.9869718 L22.1584507,37.0802817 L27.4823944,39.0373239 L31.2707746,33.4397887 L31.931338,33.2672535 L36.4197183,43.9151408 Z M5.84894366,9.26267606 L11.806338,7.70985915 L15.1978873,2.69894366 L21,4.8334507 L26.8021127,2.69894366 L30.193662,7.71232394 L36.1510563,9.26267606 L35.8478873,15.1978873 L39.6978873,19.8119718 L35.8478873,24.4235915 L36.1510563,30.3588028 L30.193662,31.9140845 L26.8021127,36.9225352 L21,34.790493 L15.1978873,36.925 L11.806338,31.9116197 L5.84894366,30.3588028 L6.15211268,24.4235915 L2.30211268,19.8119718 L6.15211268,15.1978873 L5.84894366,9.26267606 Z" id="Shape"></path>
                            <path d="M21,30.2996479 C26.7922535,30.2996479 31.4876761,25.6066901 31.4876761,19.8119718 C31.4876761,14.0172535 26.7922535,9.32429577 21,9.32429577 C15.2077465,9.32429577 10.5123239,14.0197183 10.5123239,19.8119718 C10.5123239,25.6042254 15.2077465,30.2996479 21,30.2996479 Z M21,11.0742958 C25.8260563,11.0742958 29.7401408,14.9859155 29.7401408,19.8144366 C29.7401408,24.640493 25.8285211,28.5545775 21,28.5545775 C16.1714789,28.5545775 12.2598592,24.6429577 12.2598592,19.8144366 C12.2598592,14.9859155 16.1739437,11.0742958 21,11.0742958 Z" id="Shape"></path>
                        </g>
                    </g>
                </g>
            </g>
        </g>
    </g>
</svg>