<?xml version="1.0" encoding="UTF-8"?>
<svg width="182px" height="156px" viewBox="0 0 182 156" version="1.1" xmlns="http://www.w3.org/2000/svg" xmlns:xlink="http://www.w3.org/1999/xlink">
    <!-- Generator: Sketch 46.2 (44496) - http://www.bohemiancoding.com/sketch -->
    <title>Group</title>
    <desc>Created with Sketch.</desc>
    <defs></defs>
    <g id="Why-Us-Page" stroke="none" stroke-width="1" fill="none" fill-rule="evenodd">
        <g id="Why-Us" transform="translate(-889.000000, -1569.000000)" fill-rule="nonzero">
            <g id="Group" transform="translate(889.000000, 1569.000000)">
                <path d="M175.19437,115.379293 C173.29514,107.740209 169.052673,101.314944 162.929573,96.7971056 C157.052885,92.4596998 149.886022,90.1679749 142.200764,90.1679749 C140.42009,90.1679749 138.609196,90.2968551 136.823873,90.549929 C135.873096,90.6834958 134.947889,90.8404954 134.055228,90.9928084 C131.746861,91.3888222 129.589595,91.75906 127.290527,91.6700154 C120.428192,91.4028819 113.923851,88.7198297 108.977018,84.112947 C106.498953,81.8071624 104.45327,79.0795879 102.895762,76.0052084 C102.105384,74.4398994 101.440537,72.778516 100.922143,71.0679237 C100.754769,70.5172536 100.155012,67.5975304 99.7830695,65.699476 C99.6203447,64.869956 98.9810689,64.2185249 98.1604712,64.0451224 C97.3398735,63.8717199 96.4960294,64.2068086 96.0148291,64.9004186 L72.3778961,98.9552638 C72.0780176,99.38877 71.9501625,99.9160073 72.017577,100.438558 C72.2965337,102.594373 72.7614616,104.712695 73.3984128,106.737287 C77.7664101,120.602457 90.5310048,129.916983 105.162285,129.916983 C107.407887,129.916983 109.669761,129.689685 111.887467,129.246806 C113.321769,128.960926 114.744448,128.747688 116.111336,128.616465 C117.206241,128.511017 118.308121,128.459465 119.386753,128.459465 C126.163077,128.459465 132.341968,130.502803 137.251607,134.366866 C140.176003,136.667964 142.695912,139.629867 144.539351,142.929201 C145.490129,144.632763 146.282831,146.453489 146.894211,148.344514 C147.091805,148.958452 147.789197,152.203891 148.22158,154.317527 C148.388954,155.142361 149.030554,155.786762 149.848827,155.955478 C149.99063,155.98594 150.132433,156 150.271912,156 C150.946057,156 151.587658,155.671941 151.985171,155.100182 L175.622104,121.042993 C175.921982,120.61183 176.049838,120.084593 175.982423,119.562042 C175.798776,118.146703 175.533768,116.738393 175.19437,115.379293 Z M170.617155,120.89771 C169.406018,114.020192 166.237535,108.295566 161.313949,104.185458 C156.006797,99.7543212 148.691157,97.3102833 140.717644,97.3009102 L140.717644,97.3009102 C140.236444,97.3009102 139.845904,97.6945807 139.845904,98.1796391 C139.845904,98.6646974 140.234119,99.058368 140.717644,99.058368 C156.415934,99.0747709 167.36266,108.39164 169.164256,122.990256 L167.634643,125.192937 C166.920979,121.125008 165.523871,117.469496 163.461915,114.289669 C163.199231,113.881939 162.65759,113.769461 162.255428,114.036595 C161.853265,114.301385 161.739358,114.847369 162.004367,115.252756 C164.231371,118.688 165.633129,122.730153 166.181743,127.294856 L151.306376,148.726468 C151.134353,147.983649 150.978602,147.355651 150.876318,147.036965 C150.178926,144.883494 149.274641,142.80735 148.189035,140.86243 C146.078262,137.082724 143.188736,133.687316 139.831956,131.0441 C134.178433,126.59656 127.109205,124.24391 119.391402,124.24391 C118.180265,124.24391 116.943557,124.302491 115.718472,124.419655 C114.209781,124.564939 112.647624,124.796923 111.076167,125.113265 C109.12812,125.502249 107.138228,125.701428 105.166934,125.701428 L105.16461,125.701428 C92.3651453,125.701428 81.2045517,117.567913 77.3921432,105.462544 C76.9086182,103.930041 76.5366759,102.327239 76.2832902,100.696319 L77.5153491,98.9177713 C80.8837515,113.621835 92.0582929,123.229271 106.315306,123.229271 C106.3525,123.229271 106.394344,123.229271 106.431538,123.229271 C106.912738,123.229271 107.303278,122.833257 107.300953,122.348198 C107.300953,121.865483 106.910414,121.471813 106.429213,121.471813 C106.392019,121.476499 106.354825,121.471813 106.317631,121.471813 C92.4162874,121.471813 81.6206622,111.712064 78.8892109,96.9400455 L79.9027537,95.4801839 C80.4188236,97.7086404 81.1208647,99.8527389 82.008877,101.882017 C82.1530046,102.210076 82.4738048,102.406911 82.8085529,102.406911 C82.9247849,102.406911 83.0456661,102.381135 83.1595734,102.331926 C83.5989303,102.135091 83.7988493,101.617226 83.6059042,101.174347 C82.5551672,98.7724882 81.7787377,96.1972267 81.2766156,93.5048014 L92.502299,77.3315032 C92.8881892,78.6859174 93.5693085,79.9231677 94.4340743,80.8370457 C94.6060976,81.017478 94.8339123,81.1088658 95.0640516,81.1088658 C95.2802431,81.1088658 95.4964345,81.0291944 95.6661332,80.865165 C96.0148291,80.5300764 96.0264523,79.9747197 95.6940289,79.6255715 C94.68746,78.5617237 94.0016914,76.9354894 93.9110305,75.2998821 L96.6750267,71.3163111 C96.7726615,71.7474741 96.8609978,72.0966223 96.9214384,72.305174 C97.5095722,74.2524372 98.2674046,76.1458051 99.1716893,77.9290389 C100.952363,81.448641 103.2956,84.5745726 106.140958,87.2201324 C111.820052,92.5065654 119.275171,95.5832881 127.132452,95.8902574 C129.842981,95.9957049 132.348942,95.5692284 134.759593,95.1568117 C135.624359,95.0091852 136.517021,94.8568722 137.407357,94.7303353 C139.004385,94.5030374 140.617684,94.3882168 142.205413,94.3882168 C156.453128,94.3882168 167.811316,103.030223 171.140199,116.405648 C171.377312,117.352332 171.572582,118.327135 171.723684,119.308968 L170.617155,120.89771 Z" id="Shape" fill="#000000"></path>
                <path d="M145.755423,103.948222 C149.351068,104.732352 152.651284,106.048852 155.567695,107.861007 C155.719197,107.955417 155.885849,108 156.052501,108 C156.37318,108 156.686284,107.832159 156.865561,107.522703 C157.133215,107.055896 156.989288,106.452719 156.539832,106.17211 C153.441619,104.247188 149.94445,102.84939 146.141752,102.020677 C145.629171,101.910531 145.129215,102.251458 145.020638,102.781205 C144.912062,103.310952 145.242841,103.835454 145.755423,103.948222 Z" id="Shape" fill="#FFBB41"></path>
                <path d="M92.6688026,113.408661 C90.2971118,111.505665 88.2324503,109.146989 86.5304395,106.398742 C86.2790313,105.990282 85.7606411,105.876952 85.375742,106.146111 C84.9908428,106.415269 84.8840499,106.965391 85.1376829,107.37385 C86.9442617,110.289731 89.1401894,112.797152 91.6631701,114.820561 C91.81446,114.943335 91.9902232,115 92.1659864,115 C92.4173945,115 92.6688026,114.877226 92.8312168,114.648205 C93.1093231,114.258634 93.035903,113.70143 92.6688026,113.408661 Z" id="Shape" fill="#FFBB41"></path>
                <path d="M155.136011,130.133779 C155.329509,130.853872 155.723026,131.400309 156.27308,131.71752 C156.599199,131.905068 156.964453,132 157.355796,132 C158.714626,132 160.210426,130.842295 161.164868,129.052483 C161.925812,127.62619 162.186708,126.060972 161.864937,124.866221 C161.671439,124.146128 161.275748,123.599691 160.727868,123.28248 C160.401749,123.094932 160.036495,123 159.645152,123 C158.286322,123 156.790523,124.157705 155.83608,125.947517 C155.075136,127.376126 154.812066,128.941343 155.136011,130.133779 Z M157.253612,126.806535 C157.977596,125.447389 159.005959,124.736558 159.645152,124.736558 C159.764729,124.736558 159.866913,124.762027 159.953878,124.810651 C160.110416,124.900952 160.227819,125.079238 160.299565,125.343195 C160.49741,126.07255 160.279998,127.193208 159.747336,128.19115 C158.888556,129.802676 157.60582,130.50656 157.04707,130.184718 C156.890532,130.094417 156.775304,129.916131 156.703557,129.652174 C156.505712,128.92282 156.72095,127.804476 157.253612,126.806535 Z" id="Shape" fill="#FFBB41"></path>
                <path d="M90.3692887,87 C89.0592481,87 87.6153507,87.8240535 86.5049979,89.2071269 C84.7846095,91.3452116 84.499341,94.0311804 85.8554635,95.3207127 C86.322865,95.7639198 86.9372894,96 87.6285169,96 C88.9385576,96 90.382455,95.1759465 91.4950021,93.7928731 C93.2153905,91.6525612 93.500659,88.9688196 92.1445365,87.6792873 C91.677135,87.2360802 91.0627106,87 90.3692887,87 Z M90.2200714,92.7394209 C89.4432633,93.7082405 88.4250743,94.3318486 87.6285169,94.3318486 C87.358609,94.3318486 87.1391717,94.2561247 86.9811769,94.1024499 C86.3689468,93.518931 86.546691,91.8017817 87.782123,90.2628062 C88.558931,89.2939866 89.5771201,88.6703786 90.3714831,88.6703786 C90.6435854,88.6703786 90.8608283,88.7461024 91.0188231,88.8997773 C91.6332476,89.4832962 91.4555034,91.2004454 90.2200714,92.7394209 Z" id="Shape" fill="#FFBB41"></path>
                <path d="M132.10406,101.911555 L133.236612,100.381254 C133.483016,100.047968 133.553094,99.632533 133.426501,99.2663873 C133.302169,98.9072828 133.001511,98.6397148 132.623994,98.5481784 L130.471918,98.0341661 C129.93842,97.9050763 129.309978,98.1515205 128.97089,98.6092026 L127.546722,100.533815 C125.858066,100.430543 124.216882,100.693417 122.650297,101.313048 C120.771751,102.057075 119.225512,103.232966 118.059051,104.812556 C116.716264,106.626855 116.295795,108.269817 116.808948,109.689805 C117.254283,110.92672 118.334842,112.191801 119.996371,113.43341 C120.785315,114.060083 120.896084,114.412146 120.911908,114.475517 C120.945816,114.625731 120.821484,114.912075 120.581862,115.235974 C120.251817,115.68192 119.881081,115.975306 119.417662,116.160726 C118.965545,116.339105 118.490822,116.360229 117.932458,116.226445 C117.252022,116.064496 117.16612,115.815704 117.138993,115.735903 C117.138993,115.733556 117.071175,115.360369 117.839774,114.318262 C118.086178,113.987323 118.158516,113.571888 118.029663,113.203395 C117.905331,112.846638 117.604673,112.576723 117.229416,112.487534 L113.37286,111.565128 C112.977257,111.468897 112.520619,111.576864 112.167968,111.839737 L112.09789,111.89372 C111.989382,111.975868 111.892177,112.069752 111.813057,112.175371 C110.192218,114.297138 109.654199,116.170115 110.214824,117.742664 C110.608165,118.850489 111.383546,119.740035 112.52288,120.401914 L111.623168,121.617706 C111.379025,121.950992 111.306686,122.36408 111.433279,122.732573 C111.557611,123.08933 111.858268,123.359245 112.235786,123.448434 L114.387862,123.962447 C114.482806,123.985917 114.584533,124 114.686259,124 C115.151939,124 115.613099,123.765291 115.89115,123.389757 L117.161599,121.674036 C117.423826,121.690465 117.686054,121.699854 117.946021,121.699854 C119.354365,121.699854 120.7288,121.446368 122.033157,120.944091 C123.891358,120.22823 125.446639,119.038256 126.653791,117.409377 C127.976233,115.618549 128.39218,113.994364 127.88581,112.57907 C127.449517,111.356237 126.405127,110.079421 124.777506,108.776788 C123.898139,108.070314 123.809976,107.720598 123.805455,107.704168 C123.782849,107.607938 123.852928,107.375576 124.115155,107.021166 C124.458764,106.558789 124.838542,106.232544 125.279356,106.030695 C125.656874,105.859357 126.056997,105.833539 126.538501,105.948547 C126.884371,106.033042 126.893413,106.119884 126.897934,106.166826 C126.906977,106.279486 126.884371,106.720739 126.167766,107.690086 C125.923623,108.021025 125.851284,108.43646 125.980137,108.802606 C126.104469,109.16171 126.405127,109.431625 126.780384,109.520814 L130.63694,110.44322 C130.976028,110.523021 131.373891,110.454955 131.701676,110.260147 L131.789838,110.208511 C131.957122,110.107586 132.10632,109.97615 132.217089,109.828283 C133.598306,107.995207 134.181536,106.293569 133.950957,104.775003 C133.819843,103.925357 133.38129,102.803449 132.10406,101.911555 Z M130.910471,108.704028 L130.910471,108.704028 L128.012402,108.011637 C128.448695,107.265263 128.636324,106.603384 128.58433,106.011918 C128.536858,105.48617 128.258806,104.559071 126.91828,104.23752 C126.077342,104.038017 125.299701,104.099041 124.592139,104.425287 C123.886836,104.751532 123.290042,105.251462 122.770108,105.953241 C122.200441,106.723086 121.999249,107.429559 122.155229,108.112562 C122.304427,108.769746 122.808538,109.424584 123.739898,110.173305 C125.091728,111.255312 125.975616,112.299767 126.294358,113.194007 C126.583713,114.003752 126.251407,115.062289 125.306483,116.339105 C124.296002,117.702763 122.996166,118.697928 121.440884,119.296436 C119.994111,119.852696 118.44335,120.052198 116.851899,119.885555 C116.560283,119.850349 116.273189,119.984133 116.096864,120.225883 L114.620702,122.220907 L113.517537,121.958033 L114.509933,120.615499 C114.672696,120.394873 114.72695,120.108528 114.65235,119.84096 C114.580012,119.575739 114.390123,119.359807 114.141458,119.258882 C112.913961,118.768341 112.127278,118.057173 111.801754,117.146503 C111.381285,115.968265 112.271955,114.423881 113.108371,113.32075 L115.992877,114.008447 C115.4639,114.919117 115.316962,115.686615 115.54076,116.336758 C115.823333,117.155892 116.499247,117.698069 117.550419,117.951554 C118.432047,118.160445 119.2549,118.113503 120.018977,117.813076 C120.778533,117.512649 121.400194,117.022108 121.924649,116.315634 C122.512401,115.522318 122.720375,114.794721 122.562134,114.085901 C122.412936,113.409939 121.908825,112.743366 121.006852,112.025157 C119.621114,110.992439 118.719141,109.971455 118.395878,109.079562 C118.102002,108.262775 118.441089,107.190156 119.401837,105.892217 C120.376149,104.5755 121.671464,103.59207 123.253873,102.965398 C124.720992,102.38332 126.276274,102.169735 127.854161,102.329337 C128.145777,102.357502 128.43061,102.230759 128.609197,101.989009 L130.236817,99.7874408 L131.339982,100.050315 L130.155436,101.648682 C129.997195,101.864614 129.942941,102.139223 130.006237,102.39975 C130.069534,102.660276 130.243599,102.876209 130.48096,102.988869 C131.550216,103.488798 132.135708,104.162413 132.271343,105.049612 C132.427323,106.05886 131.968424,107.286387 130.910471,108.704028 Z" id="Shape" fill="#FFBB41"></path>
                <path d="M79.6232127,71.7456298 C83.2105633,62.9150055 89.504161,56.0906024 97.3455175,52.5216648 C101.382744,50.6849507 105.890825,49.6353998 110.382588,49.4844688 C112.704227,49.4078423 115.058498,49.5634173 117.38713,49.9465498 C118.067771,50.0580066 121.503609,50.9798467 124.431297,51.8088061 C124.699358,51.8854326 124.976742,51.9202629 125.242472,51.9132968 C126.769252,51.8923987 128,50.6524425 128,49.1292004 C128,48.5951369 127.850818,48.0959036 127.589751,47.6732968 L104.674062,3.92652793 C104.338404,3.2856517 103.764987,2.80035049 103.077353,2.57047097 C102.94915,2.52635268 99.9025829,1.51859803 98.2429379,1.12617744 C95.0821533,0.378488499 91.8817423,0 88.7279506,0 C71.5044717,0 56.3881825,11.206046 50.2227877,28.5538226 C49.835848,29.6451698 49.4885347,30.7179409 49.1528761,31.7558817 C48.2950821,34.4145893 47.4862382,36.9223658 46.1319493,39.2884995 C42.0644204,46.3985104 35.6496127,51.8157722 28.0716549,54.5348521 C24.3607633,55.8653669 20.4494089,56.5387514 16.447147,56.5387514 L16.1790863,56.5387514 C14.0928752,56.5224973 11.9763617,56.3181599 9.88548866,55.9327054 C9.68735689,55.8955531 9.37733893,55.8491128 8.99739211,55.7887404 C6.81094966,55.4520482 5.39838663,55.1617963 4.79000552,54.9226287 C3.95085917,54.0704491 2.61987981,53.8243154 1.50334897,54.4071413 C0.135074217,55.12 -0.396385141,56.8011391 0.31688926,58.1641621 L0.31688926,58.1664841 L0.31688926,58.1664841 C0.501035266,58.5171084 23.3188232,102.078116 23.3188232,102.078116 C23.642827,102.695772 24.1859411,103.169463 24.8409415,103.406309 C27.3001065,104.300285 29.8245384,104.971347 32.3396465,105.405564 C34.6193275,105.800307 36.9339728,106 39.2229776,106 C47.9873951,106 56.3369013,103.174107 63.3740759,97.824184 C70.4065885,92.4789047 75.4461286,85.1274042 77.9495819,76.5661336 C78.4414149,74.8919606 79.0031767,73.2688719 79.6232127,71.7456298 Z M72.5813762,75.0103834 C68.2038293,89.9757722 54.4861174,100.431807 39.2229776,100.431807 C37.2556456,100.431807 35.260342,100.259978 33.297672,99.9186418 C31.449219,99.5982037 29.5914422,99.1314786 27.7639679,98.5231106 C27.5495194,98.1121139 27.2721349,97.5803724 26.9388074,96.9464622 C30.2907309,97.7429135 33.6543092,98.1446221 36.9549515,98.1446221 C41.041128,98.1446221 45.0247423,97.5316101 48.7426268,96.3009419 C57.3951581,93.435575 64.2528486,87.5074699 68.5697904,79.1575027 C68.9217657,78.4748302 68.653705,77.6342607 67.9660712,77.2813143 C67.2807684,76.928368 66.4369601,77.1977218 66.0826538,77.8827163 C58.4604078,92.6135816 42.2392426,98.734414 25.178931,93.588828 C24.9971159,93.2451698 24.810639,92.8852574 24.6195001,92.518379 C27.0763341,93.1058488 29.544823,93.4866594 31.9969951,93.6422344 C32.0272976,93.6445564 32.0576001,93.6468784 32.0879026,93.6468784 C32.8174938,93.6468784 33.4351987,93.0803067 33.481818,92.3419058 C33.5307682,91.5756407 32.9480276,90.9138664 32.1741482,90.862782 C29.0809615,90.6630887 25.9574723,90.0872289 22.8572927,89.1561008 C19.6335722,83.0027601 15.5147621,75.1404162 12.0742621,68.5691128 C13.3842628,68.8036364 14.7315589,68.8918729 16.015919,68.8918729 C19.640565,68.8918729 22.7523994,68.1952683 23.0204601,68.1348959 C23.7733608,67.9630668 24.2418842,67.2153779 24.069393,66.4630449 C23.8969018,65.715356 23.146332,65.2486309 22.3934313,65.42046 C19.8853161,65.9939978 14.0415941,66.7323987 10.3167167,65.2138007 C9.57780167,63.8020153 8.89016785,62.4877547 8.27712482,61.3174589 C8.52653776,61.3546112 8.72933147,61.3847974 8.86685823,61.4126616 C11.277073,61.8561665 13.7222523,62.093012 16.134798,62.1115882 L16.447147,62.1115882 C21.0997473,62.1115882 25.6474544,61.324425 29.9690581,59.7733187 C38.8010735,56.6037678 46.2671451,50.3064622 50.9943362,42.0424096 C52.6353335,39.1770427 53.5723803,36.2698795 54.4791245,33.460241 C54.8031283,32.4594524 55.1364558,31.4238335 55.497755,30.4114348 C60.8612987,15.3206572 73.9053626,5.57051479 88.7279506,5.57051479 C91.4458524,5.57051479 94.2103735,5.90024096 96.946923,6.54808324 C97.7744145,6.74545455 99.1893085,7.1773494 100.242903,7.51404162 L100.890911,8.75167579 C93.0821878,6.46681271 85.4133225,6.78028478 78.4437458,9.71531216 C70.7142755,12.9661336 63.9894499,19.4770646 59.5093407,28.0453012 C59.1527035,28.7256517 59.4184332,29.5685433 60.1037361,29.9238116 C60.3111917,30.0329463 60.5326331,30.0817087 60.7494126,30.0817087 C61.2529004,30.0817087 61.7424024,29.8100329 61.9918154,29.3340197 C68.6187406,16.662782 83.1406345,4.99233297 102.75568,12.3090033 L103.804613,14.3129025 C99.280216,12.9847097 94.8117617,12.5249507 90.4621864,12.9591676 C89.6929689,13.0357941 89.133538,13.7184666 89.2104598,14.4847317 C89.2873815,15.2486747 89.9750153,15.8082804 90.7419019,15.7316539 C95.5669934,15.2486747 100.576231,15.9708215 105.667052,17.867908 L119.76238,44.7754217 C119.130689,44.6198467 118.608554,44.5014239 118.300867,44.4480175 C115.613267,44.0091566 112.888373,43.8257174 110.200773,43.916276 C104.977087,44.0881051 99.7277607,45.3118072 95.0238792,47.4503834 C85.874853,51.6137568 78.5649559,59.4993209 74.439153,69.653494 C73.7491882,71.3508872 73.1244903,73.1527711 72.5813762,75.0103834 Z" id="Shape" fill="#000000"></path>
                <path d="M77.8316488,17.1933444 C74.3241875,19.1637698 71.1250223,21.7491411 68.3218991,24.8758381 C67.8238823,25.4301556 67.9139996,26.2508053 68.5211058,26.7055188 C68.7867148,26.9025614 69.104497,27 69.4222791,27 C69.8349216,27 70.2428211,26.8376023 70.5250306,26.5236334 C73.1289471,23.6199626 76.0885899,21.2273032 79.3233277,19.408449 C79.9920931,19.0316863 80.2007859,18.2305244 79.7881434,17.619909 C79.3778724,17.0071284 78.5004142,16.8165818 77.8316488,17.1933444 Z" id="Shape" fill="#FFBB41"></path>
                <path d="M49.0126862,88.1364397 C45.6894728,89.7506323 42.0675175,90.7716149 38.2487168,91.1710272 C37.4844935,91.2490189 36.9286948,91.9462177 37.0074329,92.726135 C37.0792236,93.4564213 37.6836547,94 38.3876665,94 C38.4339831,94 38.4826155,93.9952732 38.5312479,93.9905465 C42.667317,93.5580468 46.5949616,92.4496189 50.2076536,90.6959866 C50.9000862,90.3580224 51.1941964,89.5142937 50.8653488,88.8052779 C50.5341854,88.100989 49.7051189,87.8032023 49.0126862,88.1364397 Z" id="Shape" fill="#FFBB41"></path>
                <path d="M103.921262,33 C104.542263,33 105.126986,32.8002841 105.613544,32.425208 C107.410395,31.0296326 107.468013,27.5589608 105.74372,24.5242541 C104.508119,22.3492998 102.721939,21 101.078738,21 C100.457737,21 99.8730135,21.1997159 99.3864555,21.5772275 C97.5896053,22.9703674 97.5319866,26.4410392 99.2562799,29.4781814 C100.491881,31.6482647 102.278061,33 103.921262,33 Z M100.826923,23.9957378 C100.850398,23.9762533 100.918686,23.9251066 101.080872,23.9251066 C101.712544,23.9251066 102.779557,24.6776943 103.59689,26.1122387 C104.659635,27.9827481 104.574274,29.6973818 104.175211,30.0066978 C104.151736,30.0261823 104.083448,30.077329 103.921262,30.077329 C103.28959,30.077329 102.224711,29.3247412 101.407378,27.8877613 C100.344633,26.0172519 100.42786,24.3050538 100.826923,23.9957378 Z" id="Shape" fill="#FFBB41"></path>
                <path d="M24.6874331,75 C24.2823339,75 23.8863896,75.0696343 23.5156209,75.2065017 C22.5841218,75.5522719 21.8631826,76.2798301 21.4306192,77.3195419 C20.7646087,78.916328 20.8767548,81.1062061 21.7281496,83.1832287 C22.9114052,86.062246 25.1566157,88 27.3125669,88 L27.3125669,88 C27.7176661,88 28.1113217,87.9327669 28.4843791,87.7934983 C29.4158782,87.4477281 30.1368174,86.7201699 30.5693808,85.6804581 C31.2353913,84.083672 31.1232452,81.8937939 30.2718504,79.8167713 C29.0863061,76.9353528 26.8410956,75 24.6874331,75 Z M28.0541043,84.5254895 C27.9328035,84.8160325 27.7703061,85.0009235 27.5711896,85.0753602 C27.4933739,85.1065755 27.4086922,85.1209826 27.3125669,85.1209826 L27.3125669,85.1209826 C26.4291304,85.1209826 25.0421809,83.9708164 24.2502922,82.0426672 C23.5934365,80.445881 23.6758296,79.1228297 23.9458957,78.4745105 C24.0671965,78.1839675 24.2296939,77.9990765 24.4288104,77.9246398 C24.5066261,77.8934245 24.5913078,77.8790174 24.6874331,77.8790174 C25.5708696,77.8790174 26.9578191,79.0291836 27.7497078,80.9573328 C28.4065635,82.554119 28.3218817,83.8795715 28.0541043,84.5254895 Z" id="Shape" fill="#FFBB41"></path>
                <path d="M69.1784648,49.1504926 C67.5953827,48.9545567 65.6107943,49.39883 63.277469,50.4741995 C62.3780948,50.8888547 61.9674112,50.9207512 61.8618724,50.9207512 C61.8618724,50.9207512 61.8595781,50.9207512 61.8572837,50.9207512 C61.8113973,50.8774631 61.6897982,50.7498768 61.5269014,50.4035714 C61.2561714,49.8294335 61.146044,49.314532 61.1804588,48.7836823 C61.2079906,48.3644704 61.3777705,47.9839901 61.7219187,47.5852833 C61.7700995,47.5306034 61.809103,47.4895936 61.8389292,47.4622537 C61.9834714,47.5738916 62.3184424,47.9110837 62.7566579,48.8429187 C63.0480368,49.4649015 63.6376775,49.8544951 64.2915592,49.8544951 C64.7779554,49.8544951 65.2482914,49.6312192 65.5786738,49.2439039 L68.7104231,45.5940271 C69.0453941,45.2021552 69.2243512,44.6644704 69.201408,44.1153941 L69.1968193,43.9946429 C69.1853477,43.7144089 69.1211067,43.4478448 69.0086849,43.1995074 C67.8339922,40.63867 66.3197397,39.0347291 64.5118141,38.4332512 C63.2155223,38.0049261 61.8526951,38.1074507 60.5380487,38.7362685 L59.728153,37.0115764 C59.4344799,36.3895936 58.8471335,36 58.1932517,36 C57.7068555,36 57.2365195,36.2232759 56.9038428,36.6105911 L55.1578639,38.6474138 C54.6347585,39.2557266 54.5154538,40.1966749 54.8618964,40.9348522 L55.9907027,43.3430419 C54.9674352,45.0950739 54.3296137,46.995197 54.0955929,49.0069581 C53.8065083,51.4903325 54.1735998,53.8461207 55.1899844,56.0105296 C56.3807375,58.5440271 57.945465,59.9474754 59.8428691,60.1730296 C61.4488944,60.3689655 63.4311885,59.8814039 65.743865,58.7217365 C66.5147571,58.3663177 66.9047918,58.3253079 67.0355682,58.3253079 C67.0676887,58.3253079 67.0860432,58.3275862 67.0883376,58.3275862 C67.1135751,58.3435345 67.269589,58.4597291 67.4806666,58.9108374 C67.733042,59.4462438 67.8202262,59.945197 67.7605739,60.4783251 C67.7009215,60.9932266 67.4806666,61.4534483 67.0722773,61.9318966 C66.8038416,62.2463054 66.5950584,62.37617 66.4619877,62.4012315 C66.3587432,62.3214901 66.0398325,62.0207512 65.601617,61.079803 C65.3079438,60.4578202 64.7205974,60.0682266 64.0667157,60.0682266 C63.5780251,60.0682266 63.1099835,60.2915025 62.7773068,60.6788177 L59.6455575,64.3309729 C59.2601114,64.779803 59.0834486,65.4222906 59.1775158,66.0442734 L59.1935761,66.1513547 C59.2234022,66.342734 59.2761716,66.5272783 59.3518843,66.6958744 C60.7055342,69.6987069 62.4469244,71.3527709 64.5301687,71.6125 C65.8631697,71.7765394 67.2076423,71.4712438 68.4970512,70.7125616 L69.0958692,71.9884236 C69.3872481,72.6104064 69.9768888,73 70.6307705,73 C71.1171667,73 71.5875027,72.7767241 71.9201794,72.3894089 L73.6661583,70.3525862 C74.1869694,69.7442734 74.3085684,68.8033251 73.9621258,68.0628695 L72.9618015,65.9349138 C73.9965407,64.1806034 74.6481281,62.2987069 74.8959148,60.3256773 C75.203354,57.8764778 74.8293795,55.5001847 73.7785801,53.2651478 C72.6130646,50.7703818 71.0643973,49.3874384 69.1784648,49.1504926 Z M72.1725548,59.9907635 C71.9454169,61.7974754 71.3007125,63.5153325 70.256796,65.0987685 C69.9952433,65.495197 69.9608285,65.9987069 70.1604345,66.4247537 L71.3167727,68.8876232 L70.9083834,69.3637931 L70.2912109,68.0514778 C70.1076651,67.6618842 69.7497509,67.3793719 69.3253014,67.2905172 C69.2312342,67.2722906 69.137167,67.260899 69.0453941,67.260899 C68.7127174,67.260899 68.3869237,67.3816502 68.1345483,67.6026478 C67.005742,68.5937192 65.9251164,69.0311576 64.8811999,68.8967365 C63.6330888,68.7418103 62.6350588,67.1925493 61.9857658,65.8232759 L63.8923472,63.5996305 C64.5370517,64.5041256 65.2505858,65.0030788 66.0535984,65.1124384 C67.1778161,65.2628079 68.2469701,64.7820813 69.1761704,63.7021552 C69.9424739,62.8067734 70.3761008,61.8544335 70.5022885,60.7950123 C70.6238875,59.7515394 70.4541077,58.7581897 69.9837717,57.7580049 C69.4491947,56.616564 68.7104231,55.9193966 67.7926944,55.6847291 C66.9231464,55.4614532 65.8746413,55.6459975 64.5622892,56.258867 C64.5508176,56.2634236 64.539346,56.2702586 64.5278744,56.2770936 C62.742892,57.1724754 61.2171679,57.5871305 60.1801345,57.464101 C59.071977,57.3296798 58.2139006,55.9740764 57.6907952,54.857697 C56.8946656,53.1580665 56.605581,51.2989532 56.8373075,49.321367 C57.0529738,47.478202 57.6839123,45.7489532 58.7117685,44.1769089 C58.9710268,43.7827586 59.007736,43.2815271 58.8058357,42.8554803 L57.5210154,40.1169335 L57.9294047,39.6407635 L58.7071798,41.2971059 C58.8838426,41.6753079 59.2279909,41.9532635 59.6363802,42.0489532 C60.0447695,42.1446429 60.4783963,42.0512315 60.8087786,41.7937808 C61.5544332,41.2082512 62.2633787,40.912069 62.9172604,40.912069 C63.1627529,40.912069 63.4013623,40.9508005 63.6445605,41.0328202 C64.6380018,41.3631773 65.5855567,42.4157635 66.393158,44.0903325 L64.4796936,46.3208128 C63.9726485,45.6054187 63.4197169,45.1292488 62.807133,44.878633 C62.4836336,44.7464901 62.1532512,44.6804187 61.8205746,44.6804187 C61.0083846,44.6804187 60.2719073,45.060899 59.6294972,45.810468 C58.9021972,46.6602833 58.5006909,47.6012315 58.4341555,48.6105296 C58.3722088,49.601601 58.5672262,50.5653325 59.0329735,51.5586823 C59.5537846,52.6659483 60.2719073,53.3426108 61.1643985,53.568165 C62.008709,53.7800493 63.0549197,53.5863916 64.4338072,52.9507389 C66.2532044,52.1145936 67.7995773,51.731835 68.8366108,51.8594212 C69.935591,51.9961207 70.7799014,53.3289409 71.2938295,54.4225369 C72.1197854,56.1882389 72.4157529,58.0587438 72.1725548,59.9907635 Z" id="Shape" fill="#FFBB41"></path>
                <path d="M181.851969,59.6833627 L171.850616,33.3036029 C171.725714,32.9765135 171.485164,32.7078329 171.175223,32.5512973 C170.31248,32.1167357 169.426606,31.7289011 168.536106,31.4041481 C166.001073,30.4719433 163.39665,30 160.796853,30 C152.106963,30 144.15029,35.2754847 140.030861,43.7657909 C139.744051,44.3592245 139.48037,44.9456491 139.223629,45.5133828 C138.564428,46.978276 137.942234,48.3637332 137.014727,49.6393819 C134.241456,53.4569824 130.246929,56.1437882 125.7713,57.2068287 C123.550833,57.7325081 121.1939,57.8586711 118.894791,57.5712997 C117.715168,57.4241095 116.528606,57.1647744 115.3698,56.8073124 C114.995096,56.6904947 113.130829,55.9148256 111.925763,55.400828 C111.41228,55.1812108 110.820156,55.2933557 110.422322,55.6835267 C110.024488,56.0736976 109.892648,56.6671312 110.091565,57.1928106 L120.139178,83.7010698 C120.264079,84.0281592 120.50463,84.2968398 120.81457,84.4533754 C122.126033,85.1145633 123.488382,85.6612698 124.862296,86.0701316 C126.934732,86.6892651 129.067305,87 131.199879,87 C140.296855,87 148.505643,81.4067713 152.113902,72.7552568 C152.500171,71.8277247 152.925761,70.9352379 153.37448,70.10116 C155.988155,65.267246 160.005812,61.7603804 164.687297,60.2277329 C167.111306,59.433373 169.70879,59.1319834 172.280831,59.3469279 C173.599233,59.4567365 174.924575,59.6997172 176.219847,60.07587 C176.638497,60.1973603 178.724811,61.0431201 180.075595,61.6061811 C180.249069,61.6762717 180.424856,61.711317 180.614521,61.711317 C181.38012,61.7089806 182,61.0805017 182,60.3095053 C182,60.0852154 181.946801,59.8726073 181.851969,59.6833627 Z M176.985445,57.3843915 C175.514386,56.9591753 174.008632,56.6811493 172.509817,56.5573226 C171.899188,56.5082592 171.281621,56.4825593 170.670992,56.4825593 C168.332563,56.4825593 166.033455,56.844694 163.833805,57.5642907 C158.474615,59.3188917 153.894902,63.2953642 150.941218,68.7624298 C150.446239,69.6782801 149.981329,70.657212 149.558052,71.6688527 C146.384635,79.2806902 139.179682,84.198713 131.202192,84.198713 C129.335612,84.198713 127.466719,83.9253597 125.651025,83.3809895 C124.598616,83.0679182 123.555459,82.6637291 122.537745,82.1801041 L122.045079,80.8787556 C124.859983,81.9721687 127.686453,82.5071935 130.413464,82.5071935 C136.961528,82.5071935 142.929033,79.4348895 146.780156,73.6360618 C146.99295,73.3136451 146.90737,72.8790835 146.590491,72.664139 C146.271299,72.4468582 145.841083,72.5333033 145.625975,72.85572 C140.329236,80.8273558 130.695648,83.2431446 121.360435,79.0750912 L121.027365,78.1989589 C122.468355,78.7550109 123.930163,79.1708817 125.398909,79.4395622 C125.440543,79.4465713 125.482177,79.4489077 125.52381,79.4489077 C125.852254,79.4489077 126.146004,79.2105997 126.206141,78.8741649 C126.273218,78.4933393 126.023415,78.1288683 125.646399,78.0587777 C123.860773,77.7316883 122.082086,77.1709636 120.345034,76.3976309 L115.670488,64.0710333 C116.288055,64.2696233 116.924127,64.3724228 117.534755,64.3724228 C117.828504,64.3724228 118.113002,64.3490593 118.388247,64.3046686 C118.767577,64.2392507 119.019692,63.877116 118.957242,63.4962905 C118.894791,63.1131287 118.538591,62.8561299 118.156948,62.9215477 C117.141547,63.0944378 115.913352,62.83043 114.960401,62.194942 L113.831664,59.2160921 C114.14623,59.3399188 114.405284,59.4357093 114.555629,59.4824364 C115.869405,59.8912981 117.215563,60.1833422 118.557095,60.3492233 C121.180022,60.678649 123.867712,60.5337951 126.407371,59.9310161 C131.528323,58.7161126 136.091845,55.6484814 139.256011,51.2935197 C140.352366,49.7842358 141.064766,48.2001885 141.754036,46.6698774 C142.001526,46.1208345 142.258267,45.5507644 142.526574,44.9970488 C146.176466,37.4716564 153.177876,32.7989507 160.799166,32.7989507 C163.075145,32.7989507 165.360376,33.2148215 167.590095,34.0348813 C168.216914,34.2638439 168.84142,34.5278518 169.456675,34.8198959 L169.893829,35.9763905 C160.780662,31.9228184 151.311296,34.9156864 145.184195,44.0508259 C144.969087,44.3709063 145.052355,44.8054679 145.369234,45.0250851 C145.489509,45.104521 145.623662,45.1465754 145.757816,45.1465754 C145.979862,45.1465754 146.197283,45.0367668 146.333749,44.8381768 C152.338262,35.8876091 161.756743,33.2428577 170.617794,37.8805181 L171.163659,39.3173751 C168.612435,38.1748986 166.035768,37.5767922 163.46604,37.5347379 C163.079771,37.5440833 162.767518,37.8384637 162.760579,38.2262983 C162.755953,38.6117965 163.061267,38.9318769 163.44291,38.9388859 C166.250875,38.9832766 169.086597,39.7519367 171.88531,41.2261753 L178.172007,57.8096077 C177.656211,57.6133541 177.212118,57.4498094 176.985445,57.3843915 Z" id="Shape" fill="#000000"></path>
                <path d="M155.008084,40.0756586 C152.931908,41.1700307 150.981421,42.7063608 149.212482,44.6425577 C148.935504,44.9450884 148.928521,45.4475525 149.196189,45.7606061 C149.333515,45.9210789 149.515064,46 149.696613,46 C149.871179,46 150.045745,45.928971 150.183071,45.779021 C151.840287,43.9664672 153.662759,42.5274731 155.596954,41.5067606 C155.946087,41.3226114 156.097378,40.8517157 155.934449,40.4571104 C155.77152,40.0598744 155.357216,39.8888787 155.008084,40.0756586 Z" id="Shape" fill="#FFBB41"></path>
                <path d="M135.073022,77.0313961 C133.064504,77.595499 130.92535,77.8698756 128.709215,77.846851 C128.706883,77.846851 128.70455,77.846851 128.699884,77.846851 C128.31731,77.846851 128.007051,78.0982029 128.000052,78.4128725 C127.995387,78.7313796 128.303313,78.9942438 128.690553,78.9980813 C128.786197,78.9980813 128.881841,79 128.977484,79 C131.249606,79 133.451744,78.7045175 135.52558,78.1231462 C135.891825,78.0195355 136.087778,77.6914349 135.961808,77.392115 C135.835839,77.0889577 135.439267,76.9277854 135.073022,77.0313961 Z" id="Shape" fill="#FFBB41"></path>
                <path d="M168.788695,42 C168.511387,42 168.249861,42.0674518 168.01088,42.2073519 C166.897141,42.8518915 166.671687,44.8004996 167.494592,46.6416845 C168.13488,48.0756602 169.201274,49 170.211305,49 C170.488613,49 170.750139,48.93005 170.98912,48.7926481 C172.102859,48.1481085 172.328313,46.1995004 171.505408,44.3583155 C170.86512,42.9243398 169.798726,42 168.788695,42 Z M170.362359,47.4635974 C170.021925,47.6609565 169.217056,47.1088508 168.709786,45.9771592 C168.17997,44.7905068 168.317497,43.7212705 168.639895,43.5314061 C168.682731,43.506424 168.732331,43.4939329 168.788695,43.4939329 C169.187747,43.4939329 169.85058,44.028551 170.292469,45.0178444 C170.822284,46.206995 170.687012,47.2762313 170.362359,47.4635974 Z" id="Shape" fill="#FFBB41"></path>
                <path d="M122.347465,68 C122.189197,68 122.028333,68.0182589 121.875254,68.0479296 C121.283691,68.16433 120.793317,68.4952723 120.458618,69.0019563 C119.934515,69.7962178 119.854083,70.9510923 120.245863,72.0991197 C120.819263,73.7789371 122.251466,75 123.652535,75 L123.652535,75 C123.813398,75 123.971667,74.9840235 124.124746,74.9520704 C124.716309,74.83567 125.206683,74.5047277 125.541382,73.9980437 C126.065485,73.2037822 126.145917,72.0489077 125.754137,70.9008803 C125.183331,69.2210629 123.748534,68 122.347465,68 Z M124.197394,73.3110531 C124.083233,73.4822302 123.943127,73.5872188 123.779669,73.6214542 C123.738155,73.6283013 123.696642,73.632866 123.652535,73.632866 C123.048,73.632866 122.142494,72.8979459 121.737741,71.7065536 C121.418609,70.7776329 121.563905,70.0541246 121.8052,69.6912292 C121.919361,69.5200522 122.059468,69.4150636 122.222926,69.3808282 C122.264439,69.3739811 122.305952,69.3694164 122.347465,69.3694164 C122.952,69.3694164 123.857506,70.1043365 124.264853,71.2957287 C124.583986,72.2269319 124.43869,72.9481578 124.197394,73.3110531 Z" id="Shape" fill="#FFBB41"></path>
                <path d="M149.182078,57.3200507 C148.260202,57.1061199 147.052227,57.231688 145.587495,57.6921044 C144.875915,57.9153366 144.621604,57.8502272 144.621604,57.8502272 C144.621604,57.8502272 144.521347,57.7944192 144.408863,57.4735229 C144.281708,57.1130959 144.249919,56.7828982 144.308606,56.4666526 C144.359957,56.206215 144.499339,55.9783321 144.751205,55.7550999 C144.839235,55.6760385 144.895477,55.6504598 144.905258,55.6434838 C144.939492,55.6620865 145.181576,55.8155586 145.453004,56.5898954 C145.58505,56.9712504 145.927391,57.217736 146.323529,57.217736 C146.555832,57.217736 146.783244,57.1293732 146.959306,56.9735757 L149.103829,55.0737766 C149.314124,54.8877497 149.448616,54.6110348 149.470623,54.3157172 L149.475514,54.2482824 C149.48774,54.0971356 149.470623,53.9483141 149.424163,53.8134447 C148.90576,52.2833739 148.123266,51.2741782 147.101133,50.8207378 C146.345537,50.4835641 145.511691,50.4672868 144.663174,50.767255 L144.262146,49.6255153 C144.1301,49.2464856 143.787758,49 143.391621,49 C143.159318,49 142.934351,49.0860374 142.755844,49.2441602 L141.560095,50.3021879 C141.232426,50.5951802 141.102825,51.0881514 141.249543,51.5043864 L141.777726,53.0158546 C141.029466,53.9576155 140.506173,55.0156432 140.222519,56.1643589 C139.877732,57.5618856 139.933974,58.929183 140.388799,60.2290456 C140.916983,61.735863 141.738602,62.6287919 142.829203,62.8776028 C143.768196,63.093859 144.990843,62.9403869 146.423786,62.4404397 C147.110914,62.2195328 147.33099,62.2939436 147.348107,62.3009196 C147.389677,62.3148716 147.494825,62.4241624 147.599973,62.71948 C147.719792,63.0636296 147.739355,63.3752246 147.65866,63.6961209 C147.58041,64.0100412 147.406794,64.2774548 147.113359,64.5378924 C146.925071,64.7029912 146.756346,64.79833 146.646308,64.79833 C146.629191,64.79833 146.609628,64.7936793 146.609628,64.7960047 C146.607183,64.7960047 146.387107,64.6727619 146.118124,63.9077265 C145.986078,63.5263714 145.643737,63.2798858 145.247599,63.2798858 C145.015296,63.2798858 144.790329,63.3682486 144.611823,63.5240461 L142.467299,65.4261706 C142.225215,65.6424268 142.088279,65.9702991 142.09806,66.3097981 L142.100505,66.3725822 C142.10295,66.4772223 142.122513,66.5772117 142.151856,66.6702251 C142.746063,68.4607335 143.655713,69.5094599 144.856352,69.7885002 C145.655964,69.974527 146.502035,69.8745376 147.348107,69.4931825 L147.653769,70.3721594 C147.78826,70.7535144 148.128156,71 148.524294,71 C148.756597,71 148.98401,70.9116372 149.160071,70.7558398 L150.35582,69.6954867 C150.683489,69.4048198 150.81309,68.9095233 150.666372,68.4932882 L150.196876,67.1515696 C150.954917,66.2098087 151.483101,65.1610823 151.771645,64.0356199 C152.126213,62.6590212 152.067526,61.2800972 151.598029,59.9383786 C151.077182,58.4548145 150.265344,57.571187 149.182078,57.3200507 Z M150.348484,63.7077476 C150.079502,64.7494979 149.563544,65.7121869 148.812839,66.5679104 C148.651449,66.7516119 148.600098,67.0050735 148.680793,67.2329563 L149.226094,68.7909312 L148.78105,69.1862382 L148.450935,68.2444773 C148.377576,68.0351971 148.206406,67.8724236 147.986329,67.8026636 C147.910525,67.7794102 147.832276,67.7654582 147.754026,67.7654582 C147.604863,67.7654582 147.458146,67.8119649 147.335881,67.8933517 C146.563168,68.4072508 145.851587,68.588627 145.201139,68.4374802 C144.396637,68.2514533 143.878234,67.2190043 143.577463,66.3493288 L145.027523,65.0634182 C145.347856,65.6726562 145.743994,66.0261072 146.220827,66.1446993 C146.849267,66.2958461 147.49727,66.0981926 148.106149,65.5587147 C148.617215,65.1075996 148.935104,64.6030018 149.079376,64.0170172 C149.221203,63.4426593 149.189414,62.8752775 148.98401,62.2823169 C148.751707,61.6172709 148.375131,61.1847585 147.86651,60.9987316 C147.379896,60.8220061 146.773463,60.8545608 145.929837,61.1242998 C144.760986,61.5335588 143.807321,61.6707536 143.166654,61.5242575 C142.459963,61.3638093 142.01981,60.4941338 141.775281,59.7918825 C141.408487,58.7408308 141.364471,57.6293204 141.64568,56.4852553 C141.907327,55.4225769 142.415948,54.4505866 143.159318,53.6018391 C143.320707,53.4158123 143.369613,53.164676 143.291364,52.9367932 L142.687376,51.2113941 L143.129974,50.8184124 L143.533448,51.9671282 C143.604361,52.1717577 143.768196,52.3298806 143.978491,52.4042913 C144.188787,52.4763767 144.423535,52.4531233 144.614268,52.3438326 C145.318513,51.9299228 145.922501,51.8415601 146.475137,52.0880457 C147.086461,52.3601099 147.609754,53.073988 147.99122,54.155269 L146.533824,55.4458303 C146.277068,54.9551844 145.968961,54.6203361 145.607058,54.4273333 C145.00796,54.113413 144.333059,54.2203784 143.743743,54.7412536 C143.26202,55.1714407 142.963694,55.6667371 142.858546,56.227143 C142.753399,56.7782475 142.80475,57.3340027 143.010155,57.9223127 C143.235122,58.5664306 143.601916,58.984991 144.09342,59.1640419 C144.565362,59.3337914 145.184022,59.2919353 146.039875,59.0221964 C147.223397,58.6501427 148.189289,58.5338759 148.827511,58.6826974 C149.526865,58.8431455 149.959682,59.698869 150.201766,60.384843 C150.588123,61.4707748 150.634583,62.5892612 150.348484,63.7077476 Z" id="Shape" fill="#FFBB41"></path>
                <path d="M27.6018493,67 C27.7564589,67 27.9110685,66.9841793 28.0656782,66.9505604 L30.8646452,66.3197115 C31.7096666,66.1298636 32.1868239,65.4673734 31.9309183,64.8404797 C31.6750128,64.213586 30.782009,63.8615762 29.9343218,64.0514242 L27.1353548,64.6802955 C26.2903334,64.8701434 25.8131761,65.5346112 26.0690817,66.1595273 C26.2796706,66.6717213 26.9141031,67 27.6018493,67 Z" id="Shape" fill="#000000"></path>
                <path d="M41.3317751,60.4760832 C41.9954256,60.0853204 42.1985357,59.2613691 41.787592,58.6339157 C41.3742865,58.0042294 40.5028024,57.8121973 39.8367901,58.2007272 C39.8297049,58.2051931 39.0432436,58.6651767 35.911569,60.3264769 C32.9475783,61.9006927 31.1195872,62.3472788 31.0794376,62.3562105 C30.3213172,62.532612 29.8560533,63.2538485 30.0402695,63.975085 C30.1961447,64.5869079 30.7771341,65 31.4171672,65 C31.5281692,65 31.6391713,64.9866024 31.752535,64.9598073 C31.8399196,64.9397109 33.9371497,64.4484662 37.3026371,62.6643549 C40.5216963,60.9516974 41.2987106,60.4961796 41.3317751,60.4760832 Z" id="Shape" fill="#FFBB41"></path>
            </g>
        </g>
    </g>
</svg>