<?xml version="1.0" encoding="UTF-8"?>
<svg width="73px" height="67px" viewBox="0 0 73 67" version="1.1" xmlns="http://www.w3.org/2000/svg" xmlns:xlink="http://www.w3.org/1999/xlink">
    <!-- Generator: Sketch 45.2 (43514) - http://www.bohemiancoding.com/sketch -->
    <title>Faq-icon2</title>
    <desc>Created with Sketch.</desc>
    <defs></defs>
    <g id="Page-1" stroke="none" stroke-width="1" fill="none" fill-rule="evenodd">
        <g id="Why-Page" transform="translate(-1057.000000, -1590.000000)" fill-rule="nonzero">
            <g id="Faq-icon2" transform="translate(1057.000000, 1590.000000)">
                <path d="M40.099,27.759 C40.099,27.15 40.099,26.02 40.099,23.97 C40.099,20.191 36.639,17.054 31.388,17.054 C26.137,17.054 22.677,20.191 22.677,23.97 C22.677,26.023 22.677,27.154 22.677,27.762 C21.306,28.164 21.264,29.802 21.248,30.558 C21.209,32.513 22.278,34.036 23.422,34.475 C23.529,35.835 23.685,36.902 24.234,37.847 C24.733,38.706 25.443,39.521 26.091,40.19 L26.091,42.296 L25.527,41.94 L22.983,46.038 C22.254,46.252 21.49,46.436 20.804,46.6 C18.189,47.227 14.477,47.687 14.44,47.692 L14.349,47.71 C14.228,47.743 12.182,48.359 11,50.763 C11.279,51.145 11.566,51.521 11.866,51.887 C12.689,49.649 14.366,49.009 14.647,48.916 C15.14,48.854 18.555,48.416 21.094,47.806 C21.812,47.634 22.554,47.455 23.264,47.25 L24.147,47.916 L26.353,60.63 C26.782,60.717 27.215,60.792 27.651,60.856 L25.596,49.006 L28.857,51.463 L29.739,49.503 L30.773,51.072 L29.024,61.02 C29.803,61.093 30.592,61.134 31.39,61.134 C32.243,61.134 33.086,61.091 33.917,61.008 L31.818,51.055 L32.924,49.246 L33.922,51.464 L37.182,49.007 L35.127,60.856 C35.564,60.791 35.997,60.716 36.425,60.629 L38.63,47.915 L39.514,47.249 C40.224,47.454 40.966,47.633 41.684,47.805 C44.222,48.414 47.635,48.852 48.131,48.914 C48.397,49.003 50.082,49.652 50.909,51.889 C51.21,51.522 51.498,51.145 51.778,50.761 C50.595,48.357 48.549,47.741 48.429,47.708 L48.337,47.69 C48.3,47.685 44.588,47.226 41.973,46.599 C41.287,46.434 40.523,46.251 39.794,46.037 L37.25,41.939 L36.685,42.295 L36.685,40.189 C37.332,39.52 38.043,38.704 38.542,37.846 C39.091,36.901 39.248,35.833 39.354,34.473 C40.497,34.034 41.566,32.512 41.527,30.556 C41.513,29.801 41.479,28.154 40.099,27.759 Z M38.189,33.401 L38.151,33.937 C38.048,35.392 37.945,36.406 37.47,37.225 C36.786,38.403 35.583,39.558 34.864,40.247 L34.722,40.384 C33.455,41.604 32.638,41.818 31.389,41.818 C30.139,41.818 29.322,41.604 28.056,40.384 L27.912,40.246 C27.193,39.556 25.992,38.402 25.308,37.225 C24.832,36.407 24.729,35.392 24.626,33.938 L24.588,33.402 L24.052,33.363 C23.401,33.316 22.458,32.129 22.489,30.585 C22.522,28.913 22.922,28.913 23.345,28.913 C23.495,28.913 23.674,28.931 23.878,28.966 L23.954,28.979 C24.379,29.461 24.589,30.219 24.589,31.142 C24.589,32.737 24.97,33.075 24.97,33.075 C24.97,33.075 25.047,30.764 25.047,28.293 C25.047,25.822 25.047,25.822 25.047,24.696 C25.047,23.57 26.592,21.56 28.413,22.364 C30.234,23.168 31.387,22.927 31.387,22.927 C31.387,22.927 32.541,23.168 34.362,22.364 C36.183,21.56 37.728,23.57 37.728,24.696 C37.728,25.822 37.728,25.822 37.728,28.293 C37.728,30.764 37.806,33.075 37.806,33.075 C37.806,33.075 38.187,32.737 38.187,31.142 C38.187,30.219 38.397,29.461 38.822,28.979 L38.898,28.966 C39.103,28.931 39.282,28.913 39.431,28.913 C39.854,28.913 40.254,28.913 40.287,30.585 C40.318,32.129 39.375,33.316 38.725,33.363 L38.189,33.401 Z M38.566,46.412 L34.415,49.54 L32.892,46.155 L36.855,43.656 L38.566,46.412 Z M31.389,45.638 L27.332,43.08 L27.332,41.402 C28.634,42.616 29.717,43.059 31.389,43.059 C33.06,43.059 34.143,42.616 35.445,41.402 L35.445,43.08 L31.389,45.638 Z M24.211,46.413 L25.921,43.657 L29.884,46.156 L28.362,49.541 L24.211,46.413 Z M31.228,47.099 L30.818,47.106 L31.389,45.836 L31.951,47.086 L31.228,47.099 Z" id="Shape" fill="#000000"></path>
                <path d="M9.422,57.867 C15.299,63.743 23.101,66.979 31.389,66.979 C39.679,66.978 47.48,63.742 53.356,57.865 C57.888,53.333 60.841,47.654 61.959,41.491 C62.785,41.803 63.676,41.981 64.611,41.981 C68.764,41.981 72.131,38.615 72.131,34.461 C72.131,30.308 68.765,26.942 64.611,26.942 C63.447,26.942 62.349,27.214 61.365,27.687 C61.102,26.726 60.794,25.78 60.441,24.852 C64.545,22.659 67.339,18.337 67.339,13.359 C67.339,6.165 61.507,0.333 54.313,0.333 C49.415,0.333 45.152,3.04 42.928,7.037 C39.304,5.585 35.404,4.819 31.387,4.819 C14.249,4.82 0.307,18.763 0.307,35.9 C0.308,44.188 3.545,51.99 9.422,57.867 Z M62.648,30.671 C63.04,30.249 63.562,30.005 64.213,29.941 L64.213,29.379 L65.037,29.379 L65.037,29.941 C65.639,30.013 66.119,30.219 66.475,30.557 C66.831,30.896 67.059,31.35 67.158,31.918 L65.72,32.106 C65.633,31.659 65.405,31.356 65.038,31.197 L65.038,33.419 C65.947,33.666 66.567,33.984 66.896,34.377 C67.226,34.769 67.391,35.272 67.391,35.885 C67.391,36.571 67.183,37.149 66.768,37.618 C66.353,38.088 65.776,38.376 65.038,38.482 L65.038,39.544 L64.214,39.544 L64.214,38.51 C63.559,38.43 63.026,38.186 62.617,37.777 C62.208,37.368 61.947,36.79 61.833,36.044 L63.316,35.884 C63.377,36.187 63.49,36.449 63.657,36.669 C63.824,36.889 64.009,37.048 64.214,37.146 L64.214,34.765 C63.471,34.553 62.927,34.232 62.581,33.802 C62.234,33.372 62.061,32.85 62.061,32.237 C62.06,31.616 62.256,31.094 62.648,30.671 Z M49.893,9.505 C49.893,8.429 50.232,7.525 50.912,6.793 C51.591,6.061 52.495,5.64 53.624,5.528 L53.624,4.553 L55.052,4.553 L55.052,5.528 C56.095,5.653 56.926,6.009 57.542,6.596 C58.159,7.183 58.553,7.97 58.724,8.954 L56.233,9.279 C56.082,8.505 55.688,7.98 55.052,7.704 L55.052,11.553 C56.627,11.98 57.699,12.532 58.271,13.212 C58.843,13.892 59.127,14.762 59.127,15.825 C59.127,17.013 58.768,18.014 58.049,18.828 C57.331,19.642 56.331,20.14 55.052,20.325 L55.052,22.166 L53.624,22.166 L53.624,20.374 C52.489,20.236 51.567,19.813 50.857,19.104 C50.149,18.396 49.696,17.395 49.499,16.102 L52.068,15.826 C52.173,16.351 52.37,16.805 52.659,17.185 C52.948,17.566 53.269,17.842 53.624,18.012 L53.624,13.887 C52.337,13.519 51.394,12.963 50.794,12.218 C50.193,11.473 49.893,10.568 49.893,9.505 Z M31.388,7.92 C34.999,7.92 38.505,8.608 41.763,9.912 C41.462,11.012 41.287,12.164 41.287,13.359 C41.287,20.553 47.119,26.385 54.313,26.385 C55.431,26.385 56.509,26.23 57.544,25.965 C58.022,27.22 58.407,28.509 58.698,29.827 C57.695,31.105 57.091,32.712 57.091,34.463 C57.091,36.446 57.864,38.244 59.118,39.588 C58.321,45.652 55.57,51.265 51.162,55.673 C45.871,60.964 38.849,63.879 31.388,63.879 C23.927,63.879 16.905,60.965 11.614,55.674 C6.323,50.384 3.409,43.362 3.408,35.901 C3.409,20.472 15.96,7.92 31.388,7.92 Z" id="Shape" fill="#FFBB41"></path>
                <path d="M53.624,11.08 L53.624,7.674 C53.237,7.805 52.929,8.028 52.698,8.343 C52.469,8.658 52.354,9.006 52.354,9.386 C52.354,9.734 52.458,10.057 52.669,10.356 C52.879,10.655 53.197,10.896 53.624,11.08 Z" id="Shape" fill="#FFBB41"></path>
                <path d="M55.052,18.148 C55.544,18.056 55.944,17.828 56.253,17.463 C56.561,17.099 56.715,16.671 56.715,16.179 C56.715,15.74 56.586,15.36 56.326,15.041 C56.067,14.723 55.642,14.479 55.052,14.308 L55.052,18.148 Z" id="Shape" fill="#FFBB41"></path>
            </g>
        </g>
    </g>
</svg>