<?xml version="1.0" encoding="UTF-8"?>
<svg width="48px" height="61px" viewBox="0 0 48 61" version="1.1" xmlns="http://www.w3.org/2000/svg" xmlns:xlink="http://www.w3.org/1999/xlink">
    <!-- Generator: Sketch 45.2 (43514) - http://www.bohemiancoding.com/sketch -->
    <title>Faq3</title>
    <desc>Created with Sketch.</desc>
    <defs></defs>
    <g id="Page-1" stroke="none" stroke-width="1" fill="none" fill-rule="evenodd">
        <g id="Why-Page" transform="translate(-491.000000, -1988.000000)" fill-rule="nonzero">
            <g id="Faq3" transform="translate(491.000000, 1988.000000)">
                <path d="M30.5940754,31.355804 L28.5980683,28.1948486 L28.1543193,28.4697881 L28.1543193,26.84476 C28.6628177,26.3288242 29.2196622,25.6991789 29.6116117,25.0381361 C30.0424108,24.3100557 30.1658663,23.4852372 30.2496088,22.4372426 C31.1466034,22.0978112 31.9857551,20.9233783 31.9546754,19.4154541 C31.9425889,18.831632 31.9166891,17.5613098 30.8340797,17.2566701 C30.8340797,16.7865575 30.8340797,15.9150673 30.8340797,14.3341653 C30.8340797,11.4192977 28.1180597,9 23.9982734,9 C19.878487,9 17.1633303,11.4192977 17.1633303,14.3341653 C17.1633303,15.9150673 17.1633303,16.7865575 17.1633303,17.2566701 C16.0807209,17.5613098 16.0539578,18.831632 16.0418713,19.4163027 C16.0116549,20.9242269 16.8508067,22.0978112 17.7478012,22.4372426 C17.8324071,23.4852372 17.9549992,24.3092071 18.3857983,25.0389847 C18.7777478,25.700876 19.3354557,26.3296728 19.8430907,26.8456086 L19.8430907,28.4706367 L19.3993417,28.1956972 L17.4033346,31.3566526 C16.8309502,31.5221254 16.2318027,31.6638381 15.693088,31.7902763 C13.6418281,32.2748147 10.7289699,32.628672 10.6996169,32.6320663 L10.6279609,32.6464921 C10.5329952,32.6719495 8.92807425,33.1471535 8,35.0012978 C8.21928452,35.2966032 8.44461231,35.5859685 8.67943668,35.8676966 C9.32520369,34.1416877 10.6409108,33.6478149 10.8610587,33.5756857 C11.2478282,33.5281653 13.928452,33.190431 15.9201424,32.7203185 C16.4838936,32.5870916 17.0657746,32.4496219 17.6234824,32.2917863 L18.3175956,32.8051763 L20.0476987,42.611351 C20.3843954,42.6783887 20.7236821,42.736092 21.0664221,42.7861582 L19.4537312,33.6469663 L22.0126261,35.5418424 L22.7041494,34.0296753 L23.5156747,35.2388998 L22.1429882,42.9117478 C22.7542222,42.9669054 23.3732261,43 24,43 C24.6690768,43 25.331247,42.9660569 25.9830572,42.9024135 L24.3366967,35.2261712 L25.2043382,33.8311079 L25.9873739,35.5418424 L28.5462688,33.6469663 L26.9344413,42.7870068 C27.2763179,42.7369406 27.6164679,42.6792373 27.9531646,42.6121996 L29.6824044,32.8051763 L30.3756542,32.2917863 C30.9333621,32.4504705 31.5152431,32.5879402 32.0789942,32.7203185 C34.0706847,33.190431 36.7495818,33.5290139 37.1372147,33.5765343 C37.3461393,33.6452692 38.6678897,34.145082 39.3179733,35.8710909 C39.553661,35.5885142 39.7798522,35.2966032 40,35.0012978 C39.0719258,33.1463049 37.4661415,32.6719495 37.3720391,32.6464921 L37.3003831,32.6320663 C37.2710301,32.628672 34.3581719,32.2739661 32.3060487,31.7894277 C31.7664706,31.6621409 31.1664598,31.5204283 30.5940754,31.355804 Z M23.9982734,31.0452242 L20.8143312,29.0722789 L20.8143312,27.7790451 C21.8356445,28.7158759 22.6842929,29.0570045 23.9939567,29.0570045 L23.99741,29.0570045 C25.3096638,29.0570045 26.1591755,28.7158759 27.1813522,27.7790451 L27.1813522,29.0722789 L23.9982734,31.0452242 Z M18.3650785,31.6434722 L19.7075487,29.5186313 L22.8181082,31.4457534 L21.6232666,34.0568298 L18.3650785,31.6434722 Z M18.6611989,21.6081813 L18.2407597,21.5776325 C17.7305347,21.5419922 16.989802,20.6255272 17.0148384,19.4349714 C17.0407381,18.1459805 17.3541251,18.1459805 17.6856418,18.1459805 C17.803054,18.1459805 17.943776,18.1595577 18.1043544,18.1858637 L18.1647871,18.1960466 C18.4980305,18.5677241 18.6629256,19.1515462 18.6629256,19.8635036 C18.6629256,21.0939426 18.961636,21.3544563 18.961636,21.3544563 C18.961636,21.3544563 19.0220687,19.5715926 19.0220687,17.665685 C19.0220687,15.7597774 19.0220687,15.7597774 19.0220687,14.8908329 C19.0220687,14.0227369 20.2341769,12.4715352 21.6629795,13.0918462 C23.0926456,13.7121571 23.99741,13.5263184 23.99741,13.5263184 C23.99741,13.5263184 24.9021745,13.7121571 26.3318405,13.0918462 C27.7615065,12.4715352 28.9736146,14.0218883 28.9736146,14.8908329 C28.9736146,15.7589288 28.9736146,15.7589288 28.9736146,17.665685 C28.9736146,19.5715926 29.0340474,21.3544563 29.0340474,21.3544563 C29.0340474,21.3544563 29.3327578,21.0939426 29.3327578,19.8635036 C29.3327578,19.1515462 29.4976528,18.5668755 29.8317596,18.195198 L29.891329,18.1850151 C30.0519074,18.1587092 30.1926294,18.1451319 30.3109049,18.1451319 C30.6424216,18.1451319 30.9558086,18.1451319 30.9817083,19.4341228 C31.0058814,20.6246787 30.266012,21.540295 29.755787,21.5776325 L29.3353478,21.6081813 L29.3059947,22.0214391 C29.2248422,23.14326 29.1436896,23.9264981 28.7707333,24.556992 C28.2337452,25.4649712 27.2901311,26.3559787 26.7255166,26.8880375 L26.6150111,26.9941099 C25.6213241,27.9351836 24.9790104,28.1006564 23.9982734,28.1006564 L23.9948201,28.5784062 L23.9948201,28.1006564 C23.016673,28.1006564 22.3760859,27.9351836 21.3832623,26.9949584 L21.2718934,26.8888861 C20.7081422,26.3568273 19.7636648,25.4658198 19.2266767,24.5578406 C18.8537204,23.9264981 18.7725679,23.14326 18.6914153,22.0222877 L18.6611989,21.6081813 Z M25.1784385,31.4449048 L28.2881347,29.5177827 L29.6306049,31.6434722 L26.3732801,34.0559812 L25.1784385,31.4449048 Z M23.8722279,32.1729852 L23.5502077,32.1780767 L23.9982734,31.198817 L24.4402957,32.1636509 L23.8722279,32.1729852 Z" id="Shape" fill="#000000"></path>
                <path d="M1.22628499e-14,61 L48,61 L48,13.3027856 L34.8249169,0.0313724945 L0,0 L0,61 L1.22628499e-14,61 Z M2.6759191,2.63189792 L33.6953528,2.65987879 L34.2597034,3.22882322 L34.2597034,13.8386617 L44.7916584,13.8386617 L45.323218,14.3736899 L45.323218,58.3714937 L2.6759191,58.3714937 L2.6759191,2.63189792 Z" id="Shape" fill="#FFBB41"></path>
                <rect id="Rectangle-path" fill="#000000" x="9" y="47" width="21" height="3"></rect>
                <rect id="Rectangle-path" fill="#000000" x="9" y="53" width="21" height="3"></rect>
                <rect id="Rectangle-path" fill="#000000" x="34" y="47" width="4" height="3"></rect>
                <rect id="Rectangle-path" fill="#000000" x="34" y="53" width="4" height="3"></rect>
            </g>
        </g>
    </g>
</svg>