<?xml version="1.0" encoding="UTF-8"?>
<svg width="183px" height="164px" viewBox="0 0 183 164" version="1.1" xmlns="http://www.w3.org/2000/svg" xmlns:xlink="http://www.w3.org/1999/xlink">
    <!-- Generator: Sketch 46.2 (44496) - http://www.bohemiancoding.com/sketch -->
    <title>Group 7</title>
    <desc>Created with Sketch.</desc>
    <defs></defs>
    <g id="Why-Us-Page" stroke="none" stroke-width="1" fill="none" fill-rule="evenodd">
        <g id="mobile-copy-5" transform="translate(-69.000000, -1189.000000)">
            <g id="Group-7" transform="translate(69.000000, 1189.000000)">
                <g id="1808434" transform="translate(0.000000, 31.000000)" fill-rule="nonzero">
                    <path d="M128.135576,133 L124.812964,133 C120.122217,133 116.29144,129.159974 116.29144,124.457902 L116.29144,111.958225 L70.5175656,111.958225 L70.5175656,124.457902 C70.5175656,129.159974 66.6867887,133 61.9960416,133 L58.673429,133 C53.9826818,133 50.151905,129.159974 50.151905,124.457902 L50.151905,111.840674 C37.1741712,110.743523 17.5903018,100.085492 12.782286,85.4306995 L11.0232558,85.4306995 C4.92528451,85.4306995 0,80.8069948 0,75.1253238 L0,54.2794689 C0,48.5977979 4.96437407,43.9740933 11.0232558,43.9740933 L25.6818407,43.9740933 C26.1900049,43.9740933 26.6590797,44.0132772 27.1281544,44.0524611 C29.5517071,35.314443 34.7115289,27.4384715 41.7867392,21.7176166 C49.526472,15.4481865 59.2988619,12 69.2666997,12 L114.297872,12 C138.416131,12 158,31.6703368 158,55.8076425 L158,67.6020078 C158,83.197215 149.791192,97.4993523 136.422563,105.375324 C136.539832,105.963083 136.618011,106.550842 136.618011,107.138601 L136.618011,124.457902 C136.6571,129.159974 132.826324,133 128.135576,133 Z M68.4067293,107.687176 L118.402276,107.687176 C119.574963,107.687176 120.513112,108.627591 120.513112,109.803109 L120.513112,124.457902 C120.513112,126.848122 122.428501,128.768135 124.812964,128.768135 L128.135576,128.768135 C130.52004,128.768135 132.435428,126.848122 132.435428,124.457902 L132.435428,107.138601 C132.435428,106.511658 132.27907,105.884715 132.005443,105.296956 C131.497279,104.278174 131.927264,103.063472 132.904503,102.514896 C145.804057,95.6185233 153.778328,82.2176166 153.778328,67.6020078 L153.778328,55.8076425 C153.778328,33.9821891 136.070757,16.2318653 114.297872,16.2318653 L69.2666997,16.2318653 C50.6991588,16.2318653 34.8678872,28.8882772 30.7634834,47.0304404 C30.6462147,47.6181995 30.2553191,48.1275907 29.7471549,48.4018782 C29.2389906,48.7153497 28.6135576,48.7545337 28.0272143,48.558614 C27.2454231,48.3235104 26.4636319,48.1667746 25.6818407,48.1667746 L11.0232558,48.1667746 C7.27065809,48.1667746 4.22167244,50.9096503 4.22167244,54.240285 L4.22167244,75.0861399 C4.22167244,78.4167746 7.27065809,81.1596503 11.0232558,81.1596503 L14.3458684,81.1596503 C15.3231074,81.1596503 16.1830777,81.8257772 16.417615,82.7661917 C19.9356754,96.9899611 40.6140524,107.647992 52.2627412,107.647992 C53.435428,107.647992 54.3735774,108.588407 54.3735774,109.763925 L54.3735774,124.418718 C54.3735774,126.808938 56.2889659,128.728951 58.673429,128.728951 L61.9960416,128.728951 C64.3805047,128.728951 66.2958931,126.808938 66.2958931,124.418718 L66.2958931,109.763925 C66.2958931,108.627591 67.2340426,107.687176 68.4067293,107.687176 Z" id="Shape" fill="#303030"></path>
                    <path d="M169.427976,55 C167.81879,55 166.288101,54.4791652 165.032151,53.4374955 C163.30522,52.0352479 162.127767,49.7115232 161.931524,47.2275417 C161.892276,46.8669637 161.617537,42.9807346 163.226723,38.4935422 C160.479332,38.2130927 156.789979,38.0929 152.119416,38.0929 C152.119416,38.0929 152.119416,38.0929 152.119416,38.0929 C150.941962,38.0929 150,37.1313588 150,35.9294322 C150,34.7275057 150.941962,33.7659645 152.119416,33.7259002 C156.122756,33.685836 161.303549,33.7659645 165.267641,34.3268635 C167.858038,30.3204417 172.450105,26.514341 180.496034,25.0319649 C181.634239,24.8316438 182.772444,25.592864 182.968686,26.7547263 C183.164928,27.9165886 182.419208,29.0784509 181.281003,29.278772 C175.550732,30.3605059 171.979124,32.764359 169.781212,35.4887258 C174.412527,37.5720652 178.415867,42.499964 177.316911,48.1490187 C176.610439,51.7147341 173.863049,54.3990367 170.487683,54.8798073 C170.095199,54.9599358 169.781212,55 169.427976,55 Z M167.504802,39.2948265 C165.895616,43.1009273 166.131107,46.54645 166.170355,46.8268995 C166.288101,48.1089545 166.876827,49.3509453 167.701044,50.032037 C168.329019,50.5528718 169.07474,50.7531929 169.898957,50.6330002 C171.468894,50.4326791 172.764093,49.11056 173.117329,47.3477344 C173.784552,43.9022116 170.958665,40.7371384 167.81879,39.4150192 C167.701044,39.374955 167.622548,39.3348908 167.504802,39.2948265 Z" id="Shape" fill="#303030"></path>
                    <path d="M103.247668,68.1797753 C102.723543,66.9438202 101.951149,65.8764045 100.985656,64.9775281 C100.075334,64.1067416 99.027084,63.4606742 97.8409068,63.011236 C96.9029993,62.6460674 95.7168221,62.252809 94.2547898,61.8314607 L94.2547898,51.9157303 C95.6064801,52.6741573 96.4892166,53.8258427 96.9029993,55.4550562 C97.3719531,57.1685393 98.3650316,58.0393258 99.937406,58.0393258 C100.764971,58.0393258 101.454609,57.7303371 102.033905,57.1404494 C102.613201,56.5505618 102.916642,55.8483146 102.916642,55.0337079 C102.916642,54.3033708 102.723543,53.5168539 102.337346,52.6460674 C101.951149,51.7752809 101.399438,50.9325843 100.682215,50.0898876 C99.7718929,48.994382 98.7236433,48.2078652 97.5098806,47.6741573 C96.5719731,47.252809 95.496138,46.9719101 94.2823754,46.747191 L94.2823754,44.6966292 C94.2823754,43.3483146 93.2892968,42.2247191 92.0203631,42.0280899 C91.9100211,42 91.7720935,42 91.6341659,42 C91.6341659,42 91.6341659,42 91.6341659,42 C91.6341659,42 91.6341659,42 91.6341659,42 C91.6341659,42 91.6341659,42 91.6341659,42 C91.4962383,42 91.3858963,42.0280899 91.2479687,42.0280899 C89.9514495,42.2247191 88.9583709,43.3202247 88.9583709,44.6966292 L88.9583709,46.747191 C86.227405,47.1685393 84.1033203,48.1516854 82.5585314,49.7247191 C80.820644,51.494382 79.9379075,53.7696629 79.9379075,56.5786517 C79.9379075,58.7134831 80.3792758,60.4550562 81.2620122,61.8314607 C82.1447487,63.1797753 83.3033404,64.247191 84.7377871,64.9775281 C85.8963788,65.5674157 87.30324,66.1292135 88.9307854,66.6348315 L88.9307854,77.8146067 C88.3790751,77.5617978 87.9101214,77.2808989 87.5239242,76.9157303 C86.8894573,76.3258427 86.392918,75.6797753 86.0894774,74.9775281 C85.7584512,74.2752809 85.3998395,73.2640449 84.9584713,71.9438202 C84.7653727,71.3258427 84.4343465,70.8483146 83.9378072,70.511236 C83.4412679,70.1741573 82.8343866,70.005618 82.1171632,70.005618 C81.2344267,70.005618 80.4896178,70.3146067 79.8827365,70.9325843 C79.2758552,71.5505618 79,72.252809 79,73.0393258 C79,74.0786517 79.2206841,75.1741573 79.6620524,76.241573 C80.1034206,77.3370787 80.7930585,78.3764045 81.730966,79.3876404 C82.6688735,80.3988764 83.8274651,81.241573 85.2067409,81.9157303 C86.3101615,82.4494382 87.5515097,82.8426966 88.9307854,83.0674157 L88.9307854,89.2752809 C88.9307854,90.6516854 89.923864,91.747191 91.2203832,91.9438202 C91.2755542,91.9438202 91.3307252,91.9438202 91.3583108,91.9719101 C91.4410673,91.9719101 91.4962383,92 91.5789949,92 C91.5789949,92 91.6065804,92 91.6065804,92 C91.6065804,92 91.6341659,92 91.6341659,92 C91.799679,92 91.9376066,91.9719101 92.0755342,91.9438202 C93.2892968,91.7191011 94.2272043,90.6235955 94.2272043,89.3033708 L94.2272043,83.0674157 C96.0202628,82.7865169 97.6202227,82.252809 98.9719129,81.4101124 C100.627044,80.3988764 101.868392,79.0786517 102.723543,77.4775281 C103.578694,75.8764045 103.992477,74.1348315 103.992477,72.3089888 C104.047648,70.7640449 103.799378,69.4157303 103.247668,68.1797753 Z M87.0178571,58.7651007 C86.3482143,58.147651 86,57.2080537 86,56 C86,54.7114094 86.375,53.7718121 87.0982143,53.1275168 C87.6071429,52.6979866 88.25,52.3221477 89,52 L89,60 C88.1696429,59.6241611 87.5,59.2214765 87.0178571,58.7651007 Z M96.6658321,76.3286119 C95.9851941,77.0651558 95.1060367,77.631728 94,78 L94,68 C95.1343966,68.4532578 96.0419139,68.9631728 96.694192,69.5580737 C97.5733494,70.3229462 97.9987481,71.427762 97.9987481,72.8441926 C98.027108,74.203966 97.5733494,75.3371105 96.6658321,76.3286119 Z" id="Shape" fill="#FFBB41"></path>
                    <path d="M77,27.5448954 C77,31.1266913 73.5658537,34 69.3121951,34 L60.6878049,34 C56.4341463,34 53,31.1266913 53,27.5448954 L53,8.45510455 C53,4.87330873 56.4341463,2 60.6878049,2 L69.3121951,2 C73.5658537,2 77,4.87330873 77,8.45510455 L77,27.5448954 Z" id="Shape" fill="#FFFFFF"></path>
                    <path d="M70.9322268,36 L62.0677732,36 C56.5325035,36 52,32.1693811 52,27.4788274 L52,8.52117264 C52,3.83061889 56.5325035,0 62.0677732,0 L70.9322268,0 C76.4674965,0 81,3.83061889 81,8.52117264 L81,27.4788274 C81,32.1693811 76.4674965,36 70.9322268,36 Z M62.0276625,4.22149837 C58.8589212,4.22149837 56.2918396,6.13680782 56.2918396,8.52117264 L56.2918396,27.4788274 C56.2918396,29.8631922 58.8589212,31.7785016 62.0276625,31.7785016 L70.8921162,31.7785016 C74.0608575,31.7785016 76.6279391,29.8631922 76.6279391,27.4788274 L76.6279391,8.52117264 C76.6279391,6.13680782 74.0608575,4.22149837 70.8921162,4.22149837 L62.0276625,4.22149837 Z" id="Shape" fill="#303030"></path>
                    <path d="M138.923842,41 C138.184297,41 137.444752,40.592668 137.055518,39.8187373 C134.058414,33.9124236 125.106028,25.3991853 116.737493,25.3991853 L89.1018647,25.3991853 C87.9341621,25.3991853 87,24.4215886 87,23.1995927 C87,21.9775967 87.9341621,21 89.1018647,21 L116.737493,21 C127.713897,21 137.795063,31.9164969 140.753243,37.7413442 C141.298171,38.8004073 140.908936,40.1446029 139.896927,40.7148676 C139.58554,40.9185336 139.274153,41 138.923842,41 Z" id="Shape" fill="#FFBB41"></path>
                    <path d="M145.59908,51 C144.622801,51 143.690899,50.4705669 143.335889,49.6386007 L142.137729,46.7267188 C141.693966,45.6678526 142.35961,44.4955365 143.602147,44.11737 C144.844683,43.7392036 146.220348,44.3064533 146.664111,45.3653194 L147.862271,48.2772013 C148.306034,49.3360675 147.64039,50.5083836 146.397853,50.8865501 C146.131596,50.9621834 145.865338,51 145.59908,51 Z" id="Shape" fill="#FFBB41"></path>
                    <path d="M12.75,58 L10.25,58 C9,58 8,56.8888889 8,55.5 C8,54.1111111 9,53 10.25,53 L12.75,53 C14,53 15,54.1111111 15,55.5 C15,56.8888889 14,58 12.75,58 Z" id="Shape" fill="#FFBB41"></path>
                    <path d="M36.1481481,55 L20.0895522,55 C18.9286899,55 18,54.085764 18,52.9429691 C18,51.8001741 18.9286899,50.8859382 20.0895522,50.8859382 L34.4842454,50.8859382 C35.567717,46.924249 38.7407407,36.6010013 44.3515755,30.6584676 C45.1254837,29.8204179 46.4798231,29.7823248 47.3311222,30.5441881 C48.1824212,31.3060514 48.2211166,32.6393121 47.4472084,33.4773618 C41.3333333,39.991293 38.2377004,53.2858076 38.199005,53.4000871 C37.9668325,54.314323 37.1155334,55 36.1481481,55 Z" id="Shape" fill="#FFBB41"></path>
                </g>
                <circle id="Oval-3" fill="#FFBB41" cx="127.5" cy="15.5" r="15.5"></circle>
                <circle id="Oval-3-Copy" stroke="#FFFFFF" cx="127.5" cy="15.5" r="11.5"></circle>
            </g>
        </g>
    </g>
</svg>