<?xml version="1.0" encoding="UTF-8"?>
<svg width="455px" height="238px" viewBox="0 0 455 238" version="1.1" xmlns="http://www.w3.org/2000/svg" xmlns:xlink="http://www.w3.org/1999/xlink">
    <!-- Generator: Sketch 45.2 (43514) - http://www.bohemiancoding.com/sketch -->
    <title>Graphics-modal</title>
    <desc>Created with Sketch.</desc>
    <defs>
        <path d="M4,6.17821766e-15 L451,1.81538812e-15 L451,1.77635684e-15 C453.209139,3.27642915e-14 455,1.790861 455,4 L455,234 L455,234 C455,236.209139 453.209139,238 451,238 L4,238 L4,238 C1.790861,238 1.5523329e-14,236.209139 -4.4408921e-16,234 L0,4 L0,4 C-2.705415e-16,1.790861 1.790861,4.05816873e-16 4,0 Z" id="path-1"></path>
        <path d="M4,197.000038 L451,197.000038 L451,197.000038 C453.209139,197.000038 455,198.790899 455,201.000038 L455,234 L455,234 C455,236.209139 453.209139,238 451,238 L4,238 L4,238 C1.790861,238 2.705415e-16,236.209139 0,234 L0,201.000038 L0,201.000038 C-2.705415e-16,198.790899 1.790861,197.000038 4,197.000038 Z" id="path-3"></path>
    </defs>
    <g id="Page-1" stroke="none" stroke-width="1" fill="none" fill-rule="evenodd">
        <g id="Get-Started-Form2-Copy-7" transform="translate(-574.000000, -236.000000)">
            <g id="Group-8" transform="translate(0.000000, -1.000000)">
                <g id="Graphics-modal" transform="translate(574.000000, 237.000000)">
                    <g id="Fill-124">
                        <mask id="mask-2" fill="white">
                            <use xlink:href="#path-1"></use>
                        </mask>
                        <use id="Mask" fill="#F2F2F2" xlink:href="#path-1"></use>
                        <mask id="mask-4" fill="white">
                            <use xlink:href="#path-3"></use>
                        </mask>
                        <use id="Mask-Copy-2" fill="#EBEBEB" xlink:href="#path-3"></use>
                    </g>
                    <g id="Group" transform="translate(77.399000, 26.060847)" fill-rule="nonzero">
                        <g id="Group-5" transform="translate(66.000000, -0.000000)" fill="#FFBB41">
                            <path d="M20.4118002,11.2733418 C15.2956515,11.2733418 11.1314739,15.4347358 11.1314739,20.553668 C11.1314739,25.6726003 15.2956515,29.8339943 20.4118002,29.8339943 C25.5307324,29.8339943 29.69491,25.6726003 29.69491,20.553668 C29.69491,15.4347358 25.5307324,11.2733418 20.4118002,11.2733418 Z M20.4118002,28.5953185 C15.9776191,28.5953185 12.3701498,24.9850656 12.3701498,20.5508845 C12.3701498,16.1167034 15.9776191,12.509234 20.4118002,12.509234 C24.8487648,12.509234 28.4562342,16.1167034 28.4562342,20.5508845 C28.4562342,24.9850656 24.8487648,28.5953185 20.4118002,28.5953185 Z" id="Shape"></path>
                            <polygon id="Shape" points="21.0297464 4.37294319 21.0297464 0.943620459 19.7938541 0.943620459 19.7938541 4.37294319 19.7938541 9.03259112 21.0297464 9.03259112"></polygon>
                            <polygon id="Shape" points="19.7938541 36.7316094 19.7938541 40.1664992 21.0297464 40.1664992 21.0297464 36.7316094 21.0297464 32.074745 19.7938541 32.074745"></polygon>
                            <rect id="Rectangle-path" transform="translate(15.069120, 7.690885) rotate(67.492085) translate(-15.069120, -7.690885) " x="12.7473883" y="7.07153606" width="4.65672999" height="1.23864007"></rect>
                            <rect id="Rectangle-path" transform="translate(25.751983, 33.402326) rotate(-112.507915) translate(-25.751983, -33.402326) " x="23.4167703" y="32.7829757" width="4.65672999" height="1.23864007"></rect>
                            <rect id="Rectangle-path" transform="translate(7.608314, 15.178533) rotate(22.507915) translate(-7.608314, -15.178533) " x="5.28679638" y="14.5591825" width="4.65672999" height="1.23864007"></rect>
                            <rect id="Rectangle-path" transform="translate(33.211425, 25.794975) rotate(22.464282) translate(-33.211425, -25.794975) " x="30.8879052" y="25.1756234" width="4.65955758" height="1.23865181"></rect>
                            <rect id="Rectangle-path" transform="translate(7.551327, 25.886031) rotate(-22.477061) translate(-7.551327, -25.886031) " x="5.21654631" y="25.2666886" width="4.65669974" height="1.23863203"></rect>
                            <rect id="Rectangle-path" transform="translate(33.243145, 15.210002) rotate(157.504865) translate(-33.243145, -15.210002) " x="30.9201575" y="14.5906425" width="4.65958728" height="1.2386597"></rect>
                            <rect id="Rectangle-path" transform="translate(15.185184, 33.341302) rotate(112.507915) translate(-15.185184, -33.341302) " x="12.8636663" y="32.7219516" width="4.65672999" height="1.23864007"></rect>
                            <rect id="Rectangle-path" transform="translate(25.717882, 7.843257) rotate(22.456798) translate(-25.717882, -7.843257) " x="25.0984985" y="5.50858559" width="1.23871895" height="4.65702654"></rect>
                            <polygon id="Shape" points="12.7013912 11.9692271 9.41124548 8.67351431 9.41124548 8.67351431 6.98399758 6.24904994 6.10718211 7.12586541 11.8273592 12.843259"></polygon>
                            <polygon id="Shape" points="28.1194257 29.138109 33.8423864 34.8582862 34.7164183 33.9814707 32.2891704 31.5570063 32.2891704 31.5570063 28.9990247 28.2612936"></polygon>
                            <polygon id="Shape" points="8.89072328 21.1716142 8.89072328 19.9329384 4.23107535 19.9329384 0.801752624 19.9329384 0.801752624 21.1716142 4.23107535 21.1716142"></polygon>
                            <polygon id="Shape" points="31.9328771 21.1716142 36.5897415 21.1716142 40.0246313 21.1716142 40.0246313 19.9329384 36.5897415 19.9329384 31.9328771 19.9329384"></polygon>
                            <polygon id="Shape" points="9.41124548 32.4310382 12.7013912 29.138109 11.8273592 28.2612936 8.53443001 31.5570063 6.10718211 33.9814707 6.98399758 34.8582862"></polygon>
                            <polygon id="Shape" points="32.2891704 9.55311332 34.7164183 7.12586541 33.8423864 6.24904994 31.4151385 8.67351431 28.1194257 11.9692271 28.9990247 12.843259"></polygon>
                        </g>
                        <path d="M170.564484,92.5375215 C171.071089,92.5375215 171.563776,92.4651495 172.042545,92.3148382 C172.688326,94.4164118 174.620104,95.8749874 176.883123,95.8749874 C176.930443,95.8749874 176.97498,95.8749874 177.019516,95.8722039 C178.119015,97.9153231 180.265125,99.2152368 182.6033,99.2152368 C184.153732,99.2152368 185.606741,98.6668792 186.759127,97.6564538 C187.911513,98.6640957 189.367305,99.2152368 190.914954,99.2152368 C193.395089,99.2152368 195.621922,97.7705789 196.657399,95.5576637 C197.216891,95.7664293 197.818136,95.8749874 198.427732,95.8749874 C200.618378,95.8749874 202.544589,94.4609485 203.237691,92.4345305 C204.38451,92.6711315 205.564731,92.5013355 206.600208,91.9613285 C208.281467,91.0817295 209.325295,89.355934 209.325295,87.4603424 C209.325295,84.6601 207.048359,82.3859469 204.248116,82.3859469 C203.89739,82.3859469 203.546664,82.4221329 203.207072,82.494505 C202.486135,80.5154072 200.573842,79.1375543 198.430515,79.1375543 C197.968447,79.1375543 197.51473,79.1987922 197.074931,79.3240516 C196.392963,76.5182421 193.871075,74.4890405 190.917737,74.4890405 C188.35688,74.4890405 186.052107,76.0561742 185.075084,78.3804311 C184.295693,78.0519732 183.455064,77.8766102 182.6033,77.8766102 C180.791215,77.8766102 179.062636,78.6643523 177.868496,80.0143698 C177.256117,79.5996221 176.568583,79.321268 175.850429,79.2071428 C175.580426,79.1598226 175.302071,79.1375543 175.020934,79.1375543 C172.913793,79.1375543 171.029336,80.4541693 170.283347,82.3915139 C167.613931,82.5390416 165.487305,84.7575239 165.487305,87.4603424 C165.487305,90.2605848 167.767025,92.5375215 170.564484,92.5375215 Z M170.611805,83.6246227 L170.617372,83.6246227 L171.199132,83.6274062 L171.327175,83.1764726 C171.847697,81.3282012 173.718236,80.0895254 175.644447,80.4291174 C176.348683,80.5432426 177.011166,80.8577828 177.559523,81.3421189 L178.074478,81.7930526 L178.475308,81.2391279 C179.432847,79.9113788 180.974928,79.1180695 182.606083,79.1180695 C183.485682,79.1180695 184.356931,79.3491034 185.119621,79.7805523 L185.804372,80.1702481 L186.021488,79.4159084 C186.647785,77.2447463 188.657502,75.7277164 190.917737,75.7277164 C193.503647,75.7277164 195.677593,77.6622775 195.978215,80.2287024 L196.078423,81.0721154 L196.849464,80.7213892 C197.356068,80.4903553 197.884941,80.3734466 198.427732,80.3734466 C200.214765,80.3734466 201.790249,81.6399578 202.177161,83.3880217 L202.327473,84.0699893 L202.987172,83.8361718 C203.393569,83.6942112 203.816667,83.6218391 204.245333,83.6218391 C206.363607,83.6218391 208.083836,85.3448511 208.083836,87.4603424 C208.083836,88.8966497 207.296094,90.1993469 206.026799,90.8646133 C205.09988,91.3489494 204.017082,91.4408063 203.003873,91.0900801 L202.335823,90.8590462 L202.193863,91.5549315 C201.840353,93.3419649 200.256518,94.6363116 198.427732,94.6363116 C197.78195,94.6363116 197.175138,94.4832168 196.621213,94.1853779 L195.980999,93.8374353 L195.741614,94.5277535 C195.031811,96.5903575 193.094467,97.9793445 190.917737,97.9793445 C189.503699,97.9793445 188.189867,97.4087186 187.212844,96.3732413 L186.76191,95.8972557 L186.310977,96.3732413 C185.333954,97.4087186 184.020122,97.9793445 182.606083,97.9793445 C180.607501,97.9793445 178.781498,96.7963395 177.95757,94.9703365 L177.771072,94.5555889 L177.317355,94.6112597 C177.175395,94.6307445 177.033434,94.6390951 176.88869,94.6390951 C174.981964,94.6390951 173.389779,93.2723764 173.10029,91.3851355 L172.975031,90.5556402 L172.220691,90.9202841 C171.697386,91.1735864 171.140677,91.3044128 170.570051,91.3044128 C168.45456,91.3044128 166.731548,89.5814008 166.731548,87.463126 C166.725981,85.3448511 168.44621,83.6246227 170.611805,83.6246227 Z" id="Shape" fill="#414042"></path>
                        <path d="M101.767231,64.5657577 C100.790208,62.2442843 98.4854357,60.6771507 95.9245778,60.6771507 C92.9712407,60.6771507 90.4493524,62.7063522 89.7673848,65.5093781 C89.3275853,65.3841188 88.873868,65.3228809 88.4118002,65.3228809 C86.2684735,65.3228809 84.3561807,66.7007338 83.6352436,68.6798315 C83.2956515,68.610243 82.9449253,68.5712734 82.5941992,68.5712734 C79.7939567,68.5712734 77.51702,70.8482101 77.51702,73.6484525 C77.51702,75.5440441 78.560848,77.2698396 80.2421069,78.1494386 C81.2748006,78.6866621 82.4550221,78.8592416 83.6018411,78.6226406 C84.2893757,80.6518421 86.2183698,82.060314 88.4118002,82.060314 C89.0213957,82.060314 89.6226406,81.9517559 90.1821324,81.7457738 C91.2148262,83.9586891 93.4472262,85.4033469 95.9245778,85.4033469 C97.4750103,85.4033469 98.9280188,84.8549893 100.080405,83.8417803 C101.232791,84.8522058 102.688583,85.4033469 104.236232,85.4033469 C106.574406,85.4033469 108.720517,84.1034332 109.820015,82.060314 C109.867336,82.060314 109.909089,82.060314 109.956409,82.060314 C112.216644,82.060314 114.151205,80.6045219 114.796987,78.5001648 C115.275756,78.650476 115.771226,78.7256316 116.275047,78.7256316 C119.07529,78.7256316 121.349443,76.448695 121.349443,73.6484525 C121.349443,70.9428505 119.222817,68.7215847 116.553402,68.5796241 C115.804629,66.6422794 113.920172,65.3228809 111.815814,65.3228809 C111.531893,65.3228809 111.256323,65.3479328 110.997453,65.3924694 C110.270949,65.5093781 109.580631,65.7849487 108.971035,66.1996964 C107.774113,64.855246 106.045534,64.0647203 104.233448,64.0647203 C103.387252,64.0647203 102.546622,64.2345163 101.767231,64.5657577 Z M108.36979,67.4216709 L108.77062,67.9755956 L109.285575,67.524662 C109.83115,67.0403258 110.496416,66.7257856 111.209002,66.6116604 C111.406634,66.5754744 111.612616,66.5587732 111.821382,66.5587732 C113.533259,66.5587732 115.053073,67.7083757 115.515141,69.3590156 L115.643184,69.8127328 L116.280614,69.8071657 C118.396106,69.8071657 120.119118,71.5273942 120.119118,73.645669 C120.119118,75.7611603 118.396106,77.4841723 116.280614,77.4841723 C115.709989,77.4841723 115.156064,77.3561294 114.629975,77.1028271 L113.875635,76.7381832 L113.750376,77.564895 C113.460887,79.4521359 111.865918,80.8216382 109.961976,80.8216382 C109.814448,80.8216382 109.672488,80.810504 109.533311,80.7938027 L109.079593,80.7353484 L108.893096,81.150096 C108.069168,82.9788826 106.243165,84.159104 104.244582,84.159104 C102.830544,84.159104 101.516712,83.5912616 100.539689,82.5557843 L100.088755,82.0770152 L99.6378218,82.5557843 C98.6607988,83.5912616 97.3469674,84.159104 95.9329285,84.159104 C93.7561993,84.159104 91.8160711,82.7729005 91.1090516,80.7102965 L90.8696671,80.0171948 L90.2294526,80.3651374 C89.6755279,80.6657598 89.0659324,80.8188546 88.4229344,80.8188546 C86.5969314,80.8188546 85.0103129,79.5217244 84.6540196,77.734691 L84.5176261,77.0388057 L83.8467927,77.2698396 C82.8308002,77.6205658 81.7507862,77.5287089 80.8266505,77.0471563 C79.5545722,76.38189 78.7640465,75.0764092 78.7640465,73.6428855 C78.7640465,71.5246106 80.4870585,69.8043822 82.6053333,69.8043822 C83.0339987,69.8043822 83.4598805,69.8739707 83.8634939,70.0187148 L84.5204096,70.2497488 L84.6735044,69.5677812 C85.0604166,67.8225009 86.6359009,66.5559896 88.4229344,66.5559896 C88.9657249,66.5559896 89.4973813,66.6701148 90.0012022,66.9011487 L90.7722431,67.2518749 L90.8724506,66.4084619 C91.1730731,63.842037 93.3498023,61.9102594 95.9329285,61.9102594 C98.1903804,61.9102594 100.202881,63.4245058 100.829177,65.5956679 L101.046294,66.3500076 L101.731045,65.9603118 C102.493735,65.5260794 103.364983,65.2950455 104.244582,65.2950455 C105.864603,65.3006126 107.412252,66.0939218 108.36979,67.4216709 Z" id="Shape" fill="#414042"></path>
                        <path d="M226.483639,107.950595 C226.216419,105.670875 224.273508,103.892192 221.918632,103.892192 C219.761387,103.892192 217.915899,105.412006 217.445481,107.460692 C215.9201,107.221307 214.439257,107.546982 213.172745,108.329157 C212.323765,107.544198 211.215916,107.101615 210.046829,107.101615 C208.226393,107.101615 206.58967,108.18998 205.857599,109.818351 C205.4178,109.679174 204.961299,109.609586 204.496447,109.609586 C201.963425,109.609586 199.903605,111.67219 199.903605,114.205212 C199.903605,116.738235 201.963425,118.798055 204.496447,118.798055 C204.852741,118.798055 205.200683,118.756302 205.543059,118.678363 C205.963374,120.779936 207.833913,122.377689 210.046829,122.377689 C210.631372,122.377689 211.210349,122.266347 211.747572,122.049231 C212.418406,123.797295 214.113582,124.999785 216.039793,124.999785 C217.117023,124.999785 218.158068,124.615656 218.979212,123.928121 C220.284693,125.016486 222.188635,125.297624 223.752985,124.612873 C224.62145,125.715155 225.926931,126.355369 227.352104,126.355369 C229.178107,126.355369 230.809262,125.269788 231.541334,123.638633 C232.070206,123.847399 232.638049,123.953173 233.208675,123.953173 C235.563551,123.953173 237.509246,122.171707 237.773682,119.88642 C238.068738,119.944874 238.372144,119.975493 238.678333,119.975493 C241.211356,119.975493 243.27396,117.915672 243.27396,115.38265 C243.27396,112.849628 241.211356,110.789807 238.678333,110.789807 C238.305339,110.789807 237.940695,110.834344 237.584401,110.920634 C236.888516,108.398745 234.555909,106.572742 231.886493,106.572742 C230.344411,106.572742 228.86635,107.182338 227.764068,108.254001 C227.349321,108.11204 226.923439,108.011833 226.483639,107.950595 Z M228.387581,109.389686 C229.275531,108.387611 230.550393,107.811418 231.883709,107.811418 C234.188481,107.811418 236.173146,109.531646 236.504387,111.81415 L236.621296,112.607459 L237.361718,112.292919 C237.776466,112.117556 238.221832,112.025699 238.67555,112.025699 C240.526604,112.025699 242.0325,113.531595 242.0325,115.38265 C242.0325,117.233705 240.526604,118.739601 238.67555,118.739601 C238.238534,118.739601 237.807085,118.656094 237.400688,118.486298 L236.470985,118.104953 L236.548924,119.104245 C236.554491,119.187751 236.560058,119.271257 236.560058,119.357547 C236.560058,121.208602 235.054162,122.711714 233.205891,122.711714 C232.60743,122.711714 232.020103,122.550269 231.505147,122.246863 L230.800912,121.832115 L230.592146,122.619857 C230.199667,124.086783 228.869134,125.11391 227.352104,125.11391 C226.171883,125.11391 225.097436,124.504314 224.482273,123.491105 L224.164949,122.965016 L223.63886,123.279556 C223.115554,123.591313 222.525444,123.755542 221.924199,123.755542 C220.983362,123.755542 220.081494,123.351928 219.44128,122.65326 L218.981996,122.146655 L218.525495,122.65326 C217.888064,123.354712 216.98063,123.755542 216.042576,123.755542 C214.436473,123.755542 213.053053,122.61429 212.746863,121.038806 L212.574284,120.156423 L211.811594,120.632409 C211.279937,120.960867 210.667558,121.139013 210.046829,121.139013 C208.229176,121.139013 206.726064,119.658169 206.692661,117.837733 L206.67596,116.913598 L205.82698,117.281025 C205.403882,117.461955 204.958515,117.559379 204.493664,117.559379 C202.642609,117.559379 201.136713,116.053483 201.136713,114.202429 C201.136713,112.351374 202.642609,110.845478 204.493664,110.845478 C205.000268,110.845478 205.487388,110.95682 205.946672,111.179503 L206.611939,111.502394 L206.812354,110.789807 C207.215967,109.345149 208.543716,108.337507 210.041261,108.337507 C211.029419,108.337507 211.964688,108.77174 212.607686,109.53443 L212.983464,109.977013 L213.448316,109.631854 C214.684208,108.718852 216.217939,108.382044 217.796207,108.796792 L218.519928,108.983289 L218.572815,108.240083 C218.698075,106.494803 220.167784,105.128084 221.915848,105.128084 C223.766903,105.128084 225.272799,106.63398 225.275582,108.443282 L225.272799,109.083496 L225.848992,109.122466 C226.494773,109.167003 227.11272,109.308963 227.683345,109.545564 L228.089742,109.718144 L228.387581,109.389686 Z" id="Shape" fill="#414042"></path>
                    </g>
                    <g id="1498775" transform="translate(128.000000, 44.000000)">
                        <path d="M106.317319,6.77846174 L127.463816,11.9865424 C127.500478,11.9952503 127.537566,12 127.573801,12 C127.762225,12 127.934875,11.88284 127.985605,11.7055166 C128.046139,11.4941536 127.91015,11.2772492 127.682933,11.2214398 L106.53601,6.01296333 C106.308367,5.9579456 106.075182,6.08302187 106.014221,6.29398911 C105.954113,6.50535217 106.090102,6.72225658 106.317319,6.77846174 Z" id="Shape" fill="#414042" fill-rule="nonzero"></path>
                        <path d="M86,22 C90.4114142,22 94,18.4114142 94,14 C94,9.58858576 90.4114142,6 86,6 C81.5885858,6 78,9.58858576 78,14 C78,18.4114142 81.5890039,22 86,22 Z M86,8.35308874 C89.1136197,8.35308874 91.6473294,10.8863803 91.6473294,14.0004181 C91.6473294,17.1140378 89.1136197,19.6477475 86,19.6477475 C82.8863803,19.6477475 80.3526706,17.1140378 80.3526706,14.0004181 C80.3530887,10.8863803 82.8863803,8.35308874 86,8.35308874 Z" id="Shape" fill="#414042" fill-rule="nonzero"></path>
                        <path d="M200.744338,158.135058 L197.990711,153.359729 L197.982657,153.345723 L169.638016,104.188829 C169.297203,103.598014 168.667294,103.233848 167.986094,103.233848 C167.304893,103.233848 166.67456,103.598014 166.334172,104.188829 L152.811895,127.640611 L104.392821,43.6706351 C104.272858,43.4622371 104.114745,43.283974 103.933318,43.1383925 L103.933318,24.9415517 C104.215632,24.4228911 104.485654,23.8723977 104.741263,23.2883739 L143.317477,13.0429155 C143.840141,12.9041249 144.204267,12.4304545 144.204267,11.8888742 C144.204267,11.347294 143.840565,10.8736235 143.317477,10.734833 L103.046528,0.0398969754 C103.037626,0.03735036 103.027452,0.0381992318 103.01855,0.0356526163 C102.960901,0.0220706673 102.903251,0.0157041286 102.845177,0.0106108977 C102.815928,0.00806428227 102.787951,0.00212217954 102.758278,0.00169774364 C102.752344,0.00169774364 102.747257,0 102.740899,0 C102.671804,0 102.604828,0.00891315409 102.538276,0.0203729236 C102.527255,0.0224951032 102.514538,0.0216462314 102.503093,0.0237684109 C102.42001,0.0407458473 102.339045,0.0679097454 102.261049,0.102289054 C102.23943,0.111626644 102.220355,0.125208593 102.19916,0.135819491 C102.144901,0.163407825 102.09149,0.194391646 102.041471,0.230893134 C102.032569,0.237259673 102.021971,0.241079596 102.013493,0.247870571 C101.997385,0.260179212 101.98594,0.276732213 101.970256,0.289889726 C101.92829,0.325542342 101.889292,0.363317138 101.853261,0.403638549 C101.831642,0.427831396 101.810871,0.452873115 101.791372,0.478763705 C101.758732,0.522056168 101.729907,0.567895246 101.703626,0.615432068 C101.688789,0.641747094 101.673529,0.667637685 101.660388,0.695226019 C101.634955,0.749978251 101.616303,0.807701535 101.598923,0.865849254 C101.592141,0.889617665 101.582815,0.911688332 101.577305,0.936305615 C101.558653,1.02076836 101.547632,1.10692885 101.547632,1.19521152 L101.547632,12.5705183 C99.4938568,12.6970002 97.7342653,14.1969567 97.3048588,16.2355224 C96.5282817,19.9247193 95.0620261,22.3996051 92.9476338,23.59227 C92.6805795,23.7425203 92.3410389,23.8753687 91.9387618,23.986571 C90.8701205,24.2819783 89.7209389,24.2004867 88.7141864,23.7565267 C86.6324341,22.8376229 84.2280971,22.8185233 82.1319323,23.7026233 C80.9242531,24.2123709 79.5631237,24.2433547 78.4287785,23.7824173 C78.2821106,23.7225718 78.1477356,23.658482 78.0307403,23.5926944 C75.9155003,22.3996051 74.4492447,19.9247193 73.6726675,16.2355224 C73.2237619,14.1048541 71.3217414,12.5582097 69.1492754,12.5582097 C68.8296579,12.5582097 68.5074971,12.5917401 68.1921186,12.6583765 C65.6962201,13.1851015 64.093894,15.6468298 64.6195248,18.145484 C66.3740295,26.479283 70.7117553,30.2576115 74.0423047,31.9600239 C74.98081,32.4396365 75.9672156,32.82078 76.9854133,33.0970877 L77.0032169,76.2558531 C77.0032169,78.187461 78.1405294,79.8537963 79.777615,80.6317873 L58.719319,117.151951 L42.9554817,89.8140338 C42.6146695,89.223219 41.9847603,88.859053 41.3035597,88.859053 C40.6223592,88.859053 39.9920261,89.223219 39.6516378,89.8140338 L4.02065174,151.605111 C3.63660214,151.803323 3.37124336,152.199746 3.37124336,152.662381 C3.37124336,152.682329 3.37633011,152.701005 3.3771779,152.720953 L0.255609172,158.135058 C-0.0852030574,158.725872 -0.0852030574,159.454204 0.255609172,160.045019 C0.596845298,160.635834 1.22633057,161 1.90753114,161 L36.7390497,161 L80.7000122,161 L80.7084902,161 L136.880195,161 L168.743595,161 L168.752073,161 L199.09284,161 C199.77404,161 200.403949,160.635834 200.744762,160.045019 C201.08515,159.454204 201.08515,158.726297 200.744338,158.135058 Z M167.986094,108.963309 L180.406241,130.503007 L175.901924,137.847021 L167.410867,127.449615 C167.029361,126.981886 166.453286,126.721707 165.847539,126.750993 C165.245183,126.778157 164.691152,127.089269 164.354154,127.589679 L158.113984,136.83559 L155.014458,131.46011 L167.986094,108.963309 Z M103.933318,2.74567589 L138.360016,11.8888742 L105.743777,20.5511867 C105.97268,19.7935686 106.179541,18.9935069 106.358426,18.1437862 C106.798005,16.0547127 105.747168,13.9961985 103.933318,13.0679572 L103.933318,2.74567589 Z M101.548056,28.3642029 L101.548056,43.137968 C101.47345,43.1978135 101.404355,43.2640255 101.339499,43.3349063 C100.506544,42.6575066 99.4468044,42.2496237 98.29296,42.2496237 L93.7373517,42.2496237 L93.7373517,33.161602 C94.8462632,32.8810499 95.9187195,32.4778357 96.9356456,31.9579018 C98.3815542,31.2193833 100.01652,30.0882616 101.548056,28.3642029 Z M93.4541893,51.9462864 L93.4541893,56.9109133 L86.681606,68.6559037 L86.681606,51.945862 L93.4541893,51.945862 L93.4541893,51.9462864 Z M84.3052461,80.4174472 L86.6794865,76.3004189 L94.9034891,62.0376746 L95.5257681,60.9587585 L96.1789916,59.8259391 L100.747317,51.902994 L101.939736,49.8342934 L102.740899,48.4451146 L103.132578,49.1246365 L135.675483,105.561879 L125.237897,117.991485 L108.675864,93.4514495 C108.338443,92.951464 107.784411,92.6403525 107.182479,92.6127642 C106.581819,92.5822048 106.000234,92.8440818 105.619151,93.3113857 L85.6977438,117.704991 L73.8981801,98.4670087 L84.3052461,80.4174472 Z M41.3035597,94.5868156 L56.5167564,120.970176 L57.6184616,122.880138 L58.7197429,124.790099 L60.0266137,127.057011 L54.7982828,133.282637 L54.2722281,132.502949 L53.0840481,130.743237 L51.8962921,128.983102 L45.4827485,119.480406 C45.1453275,118.980421 44.5912956,118.669309 43.9893636,118.641721 C43.3933661,118.614557 42.8075421,118.873463 42.4260358,119.340342 L31.2190785,133.062355 L24.9814517,122.893295 L41.3035597,94.5868156 Z M40.0428936,157.180077 L37.840331,157.180077 L35.6377684,157.180077 L5.21137506,157.180077 L7.12780801,153.856319 L37.5542013,153.856319 L39.7567639,153.856319 L41.9589027,153.856319 L62.7374274,153.856319 C63.3961615,153.856319 63.9298463,153.32153 63.9298463,152.662381 C63.9298463,152.585134 63.9209445,152.510009 63.9069559,152.437006 C63.8014059,151.885239 63.3185885,151.468018 62.7370035,151.468018 L49.5012808,151.468018 L43.3357162,151.468018 L41.1335775,151.468018 L38.930591,151.468018 L8.5046216,151.468018 L22.8119529,126.655495 L29.3721644,137.350431 C29.6955969,137.877156 30.2534438,138.215007 30.8693644,138.256602 C31.485285,138.296074 32.083402,138.038442 32.474234,137.559678 L43.7566448,123.744714 L49.7746936,132.661688 L50.9628735,134.421823 L52.1506296,136.181535 L53.0518321,137.51681 C53.3867098,138.012976 53.934807,138.323238 54.5320762,138.354647 C54.565564,138.356344 54.5990518,138.357193 54.6321156,138.357193 C55.1933537,138.357193 55.7287341,138.108898 56.0920128,137.676398 L62.0549551,130.575161 L69.325616,143.184303 L48.1117503,143.184303 L45.9096116,143.184303 L43.7066251,143.184303 L31.1220063,143.184303 C30.4632722,143.184303 29.9295874,143.719092 29.9295874,144.378241 C29.9295874,145.03739 30.4636961,145.572179 31.1220063,145.572179 L42.3289637,145.572179 L44.5319502,145.572179 L46.7340889,145.572179 L70.7024296,145.572179 L73.2826834,150.047431 L74.6599209,152.435732 L77.3948966,157.178804 L40.0428936,157.178804 L40.0428936,157.180077 Z M140.183615,157.180077 L137.981053,157.180077 L135.77849,157.180077 L81.8012936,157.180077 L79.0663178,152.437006 L138.513042,152.437006 L140.715605,152.437006 L142.918167,152.437006 L148.131662,152.437006 C148.790396,152.437006 149.324081,151.902216 149.324081,151.242643 C149.324081,150.583494 148.789972,150.048705 148.131662,150.048705 L144.294981,150.048705 L142.092842,150.048705 L139.889856,150.048705 L77.6890803,150.048705 L60.9218816,120.969752 L71.7274097,102.230057 L83.8495581,121.993067 C84.1729906,122.519792 84.7308375,122.857643 85.3467581,122.899237 C85.9643743,122.93871 86.5607957,122.681077 86.9516276,122.202738 L106.948912,97.7161816 L123.490598,122.226082 C123.825476,122.722248 124.373573,123.03251 124.970843,123.063918 C125.00433,123.065616 125.037818,123.066465 125.070882,123.066465 C125.63212,123.066465 126.167501,122.818595 126.530779,122.38567 L137.703401,109.080453 L150.607637,131.459685 L151.135388,132.375618 L151.709342,133.369647 L152.810624,135.279608 L155.796122,140.457302 L154.335377,140.457302 L149.825126,140.457302 L147.622563,140.457302 L145.42,140.457302 L93.7755023,140.457302 C93.1167683,140.457302 92.5830834,140.992091 92.5830834,141.65124 C92.5830834,142.310389 93.1171922,142.845178 93.7755023,142.845178 L144.043187,142.845178 L146.245749,142.845178 L148.448312,142.845178 L156.495126,142.845178 L157.173783,142.845178 L157.323842,143.106207 L159.590837,147.036907 L160.967651,149.425208 L162.925202,152.819847 L164.302439,155.208148 L165.438904,157.179228 L140.183615,157.179228 L140.183615,157.180077 Z M165.373624,149.426482 L181.29515,149.426482 C181.953884,149.426482 182.487569,148.891692 182.487569,148.232543 C182.487569,147.573394 181.953461,147.038605 181.29515,147.038605 L163.99681,147.038605 L160.235159,140.515025 L166.079834,131.854835 L174.646768,142.345193 C175.0376,142.823532 175.636141,143.08456 176.251638,143.041692 C176.867559,143.000098 177.425829,142.662247 177.748838,142.135522 L182.57574,134.265631 L193.274446,152.820696 L167.330751,152.820696 L165.373624,149.426482 Z M169.844453,157.180077 L168.707988,155.208996 L194.651259,155.208996 L195.788148,157.180077 L169.844453,157.180077 Z" id="Shape" fill="#414042" fill-rule="nonzero"></path>
                        <path d="M79.3884786,76.2533065 L79.3702511,32.1514445 C79.3698272,31.5839737 78.9709412,31.0950236 78.4156377,30.9816992 C77.2698474,30.7482594 76.1639032,30.3611739 75.1266302,29.8310534 C72.258975,28.3654762 68.5134317,25.062516 66.9534951,17.6514406 C66.6987337,16.4409494 67.4748869,15.2487089 68.6834139,14.9936229 C68.8372881,14.9609414 68.9937056,14.9448128 69.1492754,14.9448128 C70.2001131,14.9448128 71.1212387,15.6939422 71.3386972,16.7261703 C72.2627901,21.1173842 74.1203015,24.1270592 76.8612118,25.6728548 C77.0663774,25.7883014 77.2923138,25.8961081 77.531815,25.9937284 C79.2591904,26.6953209 81.2616742,26.6596683 83.0585685,25.9020502 C84.5523774,25.270914 86.2691554,25.2853448 87.7523668,25.9402494 C89.2618598,26.6057649 90.9782139,26.7288514 92.5741816,26.2870136 C93.1629729,26.1244546 93.6813975,25.9173299 94.1180102,25.6720059 C96.8576488,24.1270592 98.7155841,21.1173842 99.6392531,16.7265947 C99.8367885,15.7877425 100.618028,15.0899699 101.548056,14.9694301 C101.640889,14.9575459 101.733722,14.9448128 101.828675,14.9448128 C101.983821,14.9448128 102.140238,14.9609414 102.294113,14.9936229 C103.076624,15.1587285 103.676013,15.7177106 103.933318,16.4193031 C104.073203,16.8012955 104.114321,17.2248825 104.024455,17.6514406 C103.996478,17.784289 103.962566,17.9061021 103.933318,18.0364039 C103.446261,20.198056 102.77481,22.0074263 101.990603,23.5086561 C101.846479,23.784115 101.698963,24.048963 101.548056,24.3044734 C99.810507,27.2530297 97.6571163,28.9074809 95.8513201,29.8310534 C94.7441043,30.3972509 93.5588916,30.7996162 92.328746,31.0258405 C91.762845,31.1306762 91.35209,31.6242951 91.35209,32.2006791 L91.35209,43.4439863 C91.35209,44.1035597 91.8861987,44.6379245 92.5445089,44.6379245 L98.29296,44.6379245 C98.9978987,44.6379245 99.6328946,44.9388496 100.080952,45.4171889 L95.8390271,52.7739365 L95.8390271,50.7514994 C95.8390271,50.091926 95.3049184,49.5575612 94.6466082,49.5575612 L85.4887632,49.5575612 C84.8300291,49.5575612 84.2963443,50.0923504 84.2963443,50.7514994 L84.2963443,72.7920317 L80.9763923,78.5490803 C80.0497561,78.1984963 79.3884786,77.3029365 79.3884786,76.2533065 Z" id="Path" fill="#FFBB41"></path>
                        <path d="M101.841092,60.8032786 C102.16839,60.2263816 101.97378,59.4891877 101.40722,59.1561646 C101.371837,59.1355918 101.334768,59.1227338 101.298542,59.1060183 C100.774948,58.8664303 100.15784,59.0434426 99.835596,59.530762 C99.8204316,59.5534779 99.8018973,59.5731935 99.7884178,59.5971952 L99.7799931,59.6117676 L98.549147,61.7809177 L97.8199908,63.066721 L80.1589084,94.1913034 C79.8316095,94.7677719 80.0262197,95.5053943 80.5927795,95.8384174 C80.778965,95.9481393 80.9832636,96 81.183771,96 C81.5936318,96 81.991698,95.7839851 82.211161,95.3969583 L101.777064,60.9142863 L101.841092,60.8032786 Z" id="Shape" fill="#414042" fill-rule="nonzero"></path>
                        <path d="M41.4143354,101.160661 C40.8540394,100.829681 40.1380594,101.026824 39.8146196,101.598286 L28.1570496,122.207013 C27.8336098,122.778899 28.0259254,123.50969 28.5853888,123.839821 C28.7697953,123.94859 28.971685,124 29.1698283,124 C29.5748565,124 29.9682293,123.785436 30.1851046,123.402196 L41.8426746,102.793469 C42.1665307,102.221582 41.9742151,101.490791 41.4143354,101.160661 Z" id="Shape" fill="#414042" fill-rule="nonzero"></path>
                    </g>
                </g>
            </g>
        </g>
    </g>
</svg>