<?xml version="1.0" encoding="UTF-8"?>
<svg width="20px" height="20px" viewBox="0 0 20 20" version="1.1" xmlns="http://www.w3.org/2000/svg" xmlns:xlink="http://www.w3.org/1999/xlink">
    <!-- Generator: Sketch 45.2 (43514) - http://www.bohemiancoding.com/sketch -->
    <title>phone-call</title>
    <desc>Created with Sketch.</desc>
    <defs></defs>
    <g id="Page-1" stroke="none" stroke-width="1" fill="none" fill-rule="evenodd">
        <g id="Schedule-a-call" transform="translate(-330.000000, -134.000000)" fill-rule="nonzero" fill="#FFBB41">
            <g id="phone-call" transform="translate(330.000000, 134.000000)">
                <path d="M14.3323556,8.31844234 C14.4113988,8.72010473 14.7637297,9 15.157264,9 C15.2102398,9 15.26742,8.99492637 15.3254411,8.9839335 C15.7828826,8.89429937 16.0771925,8.44528309 15.9821724,7.99034758 C15.5827519,5.98203561 14.022069,4.41766629 12.0039444,4.01600389 C11.5465029,3.92636976 11.1050381,4.22233152 11.0159043,4.67642143 C10.9267704,5.13051133 11.2210803,5.58037322 11.6785218,5.67000735 C13.0239382,5.93975536 14.0649541,6.98069516 14.3323556,8.31759673 L14.3323556,8.31844234 Z" id="Shape"></path>
                <path d="M19.9931942,7.98279054 C19.7615189,5.96018907 18.8339128,4.0512169 17.3913722,2.60767032 C15.9488317,1.16412374 14.0320808,0.238726756 12.0067321,0.00601395725 C11.5089922,-0.051255208 11.0619313,0.306904333 11.0058225,0.806873236 C10.9497136,1.30684214 11.3053714,1.75590512 11.8031112,1.81226525 C13.432078,1.99952633 14.9651167,2.73857127 16.1189682,3.89759009 C17.2728196,5.0511547 18.0139995,6.57924148 18.2004257,8.19277748 C18.2511047,8.65911211 18.6474866,9 19.0999774,9 C19.1343667,9 19.167851,9 19.2076702,8.99454579 C19.6999801,8.93182242 20.050208,8.48275944 19.9940991,7.98279054 L19.9931942,7.98279054 Z" id="Shape"></path>
                <path d="M16.6995477,12.1767764 C16.6995477,12.1767764 16.6943391,12.1767764 16.6943391,12.1767764 C15.9234706,12.0736568 15.1751725,11.8838821 14.5188925,11.6299827 C14.2202677,11.5164645 13.9060173,11.4566724 13.5856901,11.4566724 C12.9016311,11.4566724 12.2566364,11.7166378 11.7678988,12.1932409 L11.0899164,12.8110919 C9.52213643,11.8041594 8.17658884,10.44974 7.15136839,8.85701906 L7.77552885,8.2339688 C8.25818979,7.74610052 8.5299036,7.09618718 8.5299036,6.40381282 C8.5299036,6.09532062 8.4752136,5.77556326 8.3831955,5.54852686 C8.10106456,4.81195841 7.91095171,4.05372617 7.8024398,3.2305026 C7.8024398,3.22530329 7.8024398,3.22530329 7.8024398,3.22010399 C7.61753552,1.95320624 6.51071412,1 5.22506511,1 L2.60428565,1 C1.17192854,1 0,2.16984402 0,3.59965338 C0,3.6915078 0.0052085713,3.7729636 0.0164938091,3.91421144 C0.0164938091,3.91941075 0.0164938091,3.92461005 0.0164938091,3.93067591 C0.325535706,6.7305026 1.30214282,9.45493934 2.8482204,11.8110919 C4.22067894,13.9393414 6.07145794,15.7859619 8.20870837,17.1568458 C10.5907616,18.7166378 13.2601544,19.669844 16.1352858,19.9896014 C16.1404944,19.9896014 16.1457029,19.9896014 16.1517796,19.9896014 C16.2333805,19.9948007 16.3149815,20 16.3957144,20 C17.83328,20 19,18.8353553 19,17.4003466 L19,14.8006932 C19,14.7842288 19,14.7677643 19,14.7521664 C18.9947914,13.4523397 18.0286015,12.3691508 16.6995477,12.1793761 L16.6995477,12.1767764 Z M6.77114269,6.21317158 C6.77114269,6.20797227 6.77114269,6.20797227 6.76593412,6.20277296 C6.77114269,6.20277296 6.77114269,6.20797227 6.77114269,6.21317158 Z M17.258601,14.7816291 C17.258601,14.7920277 17.258601,14.8032929 17.258601,14.8197574 L17.258601,17.4090121 C17.258601,17.8856153 16.8679581,18.2755633 16.3905058,18.2755633 C16.3635948,18.2755633 16.3418924,18.2755633 16.3149815,18.270364 C13.7159044,17.9783362 11.3069402,17.1169844 9.15319596,15.7088388 C9.15319596,15.7088388 9.14798739,15.7036395 9.14798739,15.7036395 C7.2216841,14.4688042 5.54539224,12.7954939 4.30835656,10.872617 C4.30835656,10.872617 4.30835656,10.8674177 4.30314799,10.8674177 C2.9037785,8.73916811 2.01918947,6.27469671 1.7422671,3.75129983 C1.73184996,3.64818024 1.73184996,3.62131716 1.73184996,3.60485269 C1.73184996,3.12824957 2.1224928,2.73830156 2.59994517,2.73830156 L5.20423082,2.73830156 C5.20943939,2.73830156 5.20943939,2.73830156 5.21464796,2.73830156 L5.21985654,2.73830156 C5.64869557,2.73830156 6.01763604,3.05285962 6.07666651,3.47487002 C6.2068808,4.43327556 6.42911317,5.32149047 6.75985745,6.18284229 C6.75985745,6.18804159 6.76506602,6.1932409 6.76506602,6.1932409 C6.77548316,6.22530329 6.7867684,6.31282496 6.7867684,6.40467938 C6.7867684,6.63258232 6.69995888,6.8492201 6.53675698,7.01126516 L5.43514415,8.11091854 C5.15822178,8.38734835 5.0991913,8.81542461 5.29451272,9.1559792 C6.61314936,11.4471404 8.50125645,13.3422877 10.7530954,14.6369151 C11.0786312,14.8266898 11.4909764,14.7833622 11.7731073,14.5285962 L12.9450359,13.4618718 C12.955453,13.4566724 12.9615297,13.4454073 12.9719468,13.440208 C13.1351487,13.2772964 13.3521725,13.1906412 13.5796135,13.1906412 C13.6881254,13.1906412 13.7914287,13.212305 13.8886554,13.245234 C14.6647325,13.5433276 15.5545301,13.770364 16.4495363,13.889948 C16.9217801,13.9601386 17.2525243,14.3119584 17.2525243,14.7564991 C17.2577329,14.7668977 17.2577329,14.7729636 17.2577329,14.7833622 L17.258601,14.7816291 Z" id="Shape"></path>
            </g>
        </g>
    </g>
</svg>