<?xml version="1.0" encoding="UTF-8"?>
<svg width="16px" height="16px" viewBox="0 0 16 16" version="1.1" xmlns="http://www.w3.org/2000/svg" xmlns:xlink="http://www.w3.org/1999/xlink">
    <!-- Generator: Sketch 45.2 (43514) - http://www.bohemiancoding.com/sketch -->
    <title>Team requirements-icon</title>
    <desc>Created with Sketch.</desc>
    <defs></defs>
    <g id="Page-1" stroke="none" stroke-width="1" fill="none" fill-rule="evenodd">
        <g id="Get-Started-Form-Main" transform="translate(-336.000000, -402.000000)" fill-rule="nonzero" fill="#FFBB41">
            <g id="Team-requirements-icon" transform="translate(336.000000, 402.000000)">
                <path d="M9,9.555 L9,7 C9,5.343 7.657,4 6,4 C4.343,4 3,5.343 3,7 L3,9.555 C1.214,10.248 0,11.524 0,13 C0,13.177 0,15 0,15 C0,15.553 0.447,16 1,16 L11,16 C11.553,16 12,15.553 12,15 C12,15 12,13.177 12,13 C12,11.523 10.786,10.248 9,9.555 Z M5,7 C5,6.447 5.447,6 6,6 C6.553,6 7,6.447 7,7 L7,10 C7,10.553 6.553,11 6,11 C5.447,11 5,10.553 5,10 L5,7 Z M10,14 L2,14 L2,13 C2,12.393 2.554,11.854 3.409,11.487 C3.928,12.387 4.888,13 6,13 C7.112,13 8.072,12.388 8.591,11.487 C9.446,11.854 10,12.392 10,13 L10,14 L10,14 Z M13,5.555 L13,3 C13,1.343 11.657,0 10,0 C8.343,0 7,1.343 7,3 L7,3.142 C7.79,3.346 8.479,3.784 9,4.38 L9,3 C9,2.447 9.447,2 10,2 C10.553,2 11,2.447 11,3 L11,6 C11,6.553 10.553,7 10,7 L10,9 C11.112,9 12.072,8.388 12.591,7.487 C13.446,7.854 14,8.392 14,9 L14,10 L10.351,10 C11.358,10.519 12.131,11.203 12.572,12 L15.001,12 C15.554,12 16.001,11.553 16.001,11 C16.001,11 16.001,9.177 16.001,9 C16.001,7.523 14.787,6.248 13.001,5.555 L13,5.555 Z" id="Shape"></path>
            </g>
        </g>
    </g>
</svg>