<?xml version="1.0" encoding="UTF-8"?>
<svg width="28px" height="22px" viewBox="0 0 28 22" version="1.1" xmlns="http://www.w3.org/2000/svg" xmlns:xlink="http://www.w3.org/1999/xlink">
    <!-- Generator: Sketch 45.2 (43514) - http://www.bohemiancoding.com/sketch -->
    <title>youtube-play</title>
    <desc>Created with Sketch.</desc>
    <defs></defs>
    <g id="Page-1" stroke="none" stroke-width="1" fill="none" fill-rule="evenodd">
        <g id="Schedule-a-call" transform="translate(-180.000000, -530.000000)" fill-rule="nonzero" fill="#FFBB41">
            <g id="Group-3" transform="translate(84.000000, 529.000000)">
                <g id="youtube-play" transform="translate(96.000000, 1.000000)">
                    <path d="M18.6711514,10.563 L11.1091514,6.61 L11.1091514,14.469 L18.6711514,10.563 Z M23.7971514,0.281 C24.3441514,0.344 25.5471514,0.344 26.6091514,1.469 C26.6091514,1.469 27.4681514,2.313 27.7181514,4.25 C28.0151514,6.516 27.9991514,8.781 27.9991514,8.781 L27.9991514,10.906 C27.9991514,10.906 28.0151514,15.172 27.7181514,17.437 C27.4681514,19.359 26.6091514,20.218 26.6091514,20.218 C25.5471514,21.327 24.3431514,21.327 23.7971514,21.39 C23.7971514,21.39 19.8911514,21.687 14.0001514,21.687 C6.71915137,21.624 4.48415137,21.406 4.48415137,21.406 C3.85915137,21.297 2.45315137,21.328 1.39015137,20.218 C1.39015137,20.218 0.531151366,19.359 0.281151366,17.437 C-0.0158486341,15.171 0.000151365933,10.906 0.000151365933,10.906 L0.000151365933,8.781 C0.000151365933,8.781 -0.0158486341,6.515 0.281151366,4.25 C0.531151366,2.313 1.39015137,1.469 1.39015137,1.469 C2.45215137,0.344 3.65615137,0.344 4.20215137,0.281 C4.20215137,0.281 8.10815137,2.66453526e-15 13.9991514,2.66453526e-15 C19.8911514,0 23.7971514,0.281 23.7971514,0.281 Z" id="Shape"></path>
                </g>
            </g>
        </g>
    </g>
</svg>