<?xml version="1.0" encoding="UTF-8"?>
<svg width="84px" height="66px" viewBox="0 0 84 66" version="1.1" xmlns="http://www.w3.org/2000/svg" xmlns:xlink="http://www.w3.org/1999/xlink">
    <!-- Generator: Sketch 45.1 (43504) - http://www.bohemiancoding.com/sketch -->
    <title>People-icon</title>
    <desc>Created with Sketch.</desc>
    <defs></defs>
    <g id="Page-1" stroke="none" stroke-width="1" fill="none" fill-rule="evenodd">
        <g id="Home-Page" transform="translate(-347.000000, -3551.000000)" fill-rule="nonzero">
            <g id="Group-19" transform="translate(224.000000, 3551.000000)">
                <g id="People-icon" transform="translate(123.000000, 0.000000)">
                    <path d="M59.859,32.629 L59.768,32.61 C59.759,32.609 59.534,32.58 59.168,32.528 L59.172,31.731 C60.366,32.822 61.388,33.228 62.943,33.236 C64.499,33.243 65.525,32.847 66.729,31.767 L66.718,34.068 C66.707,36.321 69.873,37.097 72.667,37.782 C72.892,37.837 73.126,37.89 73.363,37.943 C73.543,37.538 73.713,37.128 73.878,36.715 C73.569,36.649 73.266,36.581 72.979,36.51 C70.887,35.997 68.022,35.295 68.028,34.074 L68.045,30.502 C68.66,29.871 69.332,29.104 69.807,28.295 C70.333,27.399 70.49,26.392 70.598,25.115 C71.692,24.673 72.708,23.224 72.68,21.365 C72.668,20.627 72.64,19.02 71.272,18.638 C71.275,18.046 71.28,16.984 71.289,15.114 C71.307,11.531 68.041,8.543 63.063,8.519 C58.085,8.495 54.791,11.452 54.774,15.035 C54.765,16.905 54.76,17.967 54.757,18.559 C53.385,18.927 53.341,20.534 53.323,21.272 C53.277,23.131 54.279,24.59 55.368,25.042 C55.464,26.32 55.611,27.33 56.128,28.23 C56.596,29.043 57.26,29.817 57.869,30.454 L57.86,32.303 L57.371,31.991 L57.218,32.235 C55.947,32.029 54.414,31.754 53.131,31.439 C52.412,31.263 51.612,31.066 50.849,30.838 L48.224,26.564 L47.614,26.944 L47.625,24.687 C48.305,23.992 49.053,23.144 49.578,22.25 C50.155,21.268 50.322,20.153 50.44,18.73 C51.631,18.29 52.756,16.711 52.725,14.674 C52.713,13.892 52.686,12.196 51.275,11.775 C51.278,11.147 51.284,9.963 51.294,7.793 C51.313,3.85 47.719,0.561 42.241,0.535 C36.763,0.509 33.137,3.763 33.118,7.706 C33.108,9.875 33.102,11.058 33.099,11.687 C31.684,12.094 31.641,13.792 31.621,14.572 C31.57,16.609 32.68,18.199 33.867,18.651 C33.972,20.074 34.128,21.191 34.696,22.178 C35.213,23.077 35.952,23.932 36.625,24.634 L36.614,26.891 L36.008,26.505 L33.342,30.754 C32.576,30.975 31.775,31.164 31.054,31.333 C29.602,31.674 27.832,31.963 26.482,32.161 L26.286,31.842 L25.794,32.149 L25.803,30.301 C26.418,29.67 27.09,28.903 27.565,28.094 C28.091,27.198 28.248,26.191 28.356,24.914 C29.45,24.472 30.466,23.023 30.438,21.164 C30.426,20.426 30.398,18.819 29.03,18.437 C29.033,17.845 29.038,16.783 29.047,14.913 C29.065,11.33 25.798,8.342 20.821,8.318 C15.844,8.294 12.549,11.251 12.532,14.834 C12.523,16.704 12.518,17.766 12.515,18.358 C11.143,18.726 11.099,20.333 11.081,21.071 C11.035,22.93 12.037,24.389 13.126,24.841 C13.222,26.119 13.369,27.128 13.886,28.029 C14.354,28.842 15.018,29.616 15.627,30.253 L15.609,33.825 C15.604,35.046 12.732,35.721 10.635,36.213 C10.403,36.267 10.161,36.32 9.914,36.371 C10.074,36.786 10.239,37.198 10.414,37.604 C10.59,37.566 10.764,37.527 10.934,37.488 C13.734,36.83 16.907,36.085 16.918,33.831 L16.929,31.53 C18.123,32.621 19.145,33.027 20.7,33.034 C22.256,33.042 23.282,32.645 24.486,31.565 L24.482,32.432 C24.438,32.437 24.407,32.441 24.404,32.441 L24.313,32.459 C24.197,32.491 22.385,33.028 21.129,35.058 L20.538,35.426 L20.717,35.83 C20.262,36.825 19.946,38.088 19.938,39.714 L19.892,50.33 C20.296,50.669 20.708,50.998 21.128,51.319 L21.184,39.718 C21.207,34.922 24.222,33.79 24.61,33.665 C25.115,33.604 28.687,33.164 31.341,32.54 C32.095,32.363 32.875,32.18 33.621,31.968 L34.474,32.617 L37.618,58.083 C38.99,58.257 40.384,58.359 41.802,58.366 C43.334,58.373 44.84,58.27 46.321,58.083 L49.705,32.69 L50.564,32.049 C51.308,32.268 52.085,32.459 52.838,32.643 C55.485,33.292 59.051,33.767 59.557,33.833 C59.956,33.967 62.948,35.132 62.925,39.918 L62.87,51.262 C63.293,50.937 63.708,50.603 64.115,50.259 L64.165,39.925 C64.193,33.93 60.036,32.679 59.859,32.629 Z M56.604,23.921 L56.039,23.878 C55.521,23.838 54.594,22.83 54.632,21.305 C54.67,19.785 55.017,19.787 55.384,19.789 C55.522,19.79 55.688,19.807 55.879,19.841 L56.027,19.867 C56.382,20.328 56.558,21.014 56.554,21.841 C56.547,23.353 56.906,23.675 56.906,23.675 C56.906,23.675 56.99,21.485 57.002,19.142 C57.013,16.799 57.013,16.799 57.018,15.732 C57.023,14.665 58.497,12.766 60.22,13.537 C61.943,14.308 63.037,14.084 63.037,14.084 C63.037,14.084 64.129,14.318 65.859,13.564 C67.589,12.81 69.045,14.723 69.039,15.79 C69.034,16.857 69.034,16.857 69.023,19.2 C69.011,21.542 69.074,23.734 69.074,23.734 C69.074,23.734 69.437,23.415 69.444,21.903 C69.448,21.076 69.63,20.392 69.99,19.934 L70.139,19.91 C70.329,19.878 70.495,19.862 70.634,19.863 C71.001,19.864 71.348,19.866 71.371,21.386 C71.394,22.911 70.457,23.91 69.939,23.945 L69.373,23.984 L69.33,24.549 C69.226,25.918 69.125,26.872 68.678,27.633 C68.03,28.737 66.889,29.821 66.208,30.469 L66.07,30.6 C64.88,31.735 64.116,31.932 62.95,31.926 C61.784,31.921 61.022,31.716 59.843,30.571 L59.706,30.438 C59.031,29.784 57.901,28.688 57.263,27.579 C56.823,26.813 56.731,25.858 56.641,24.488 L56.604,23.921 Z M42.099,30.385 L37.853,27.679 L37.862,25.854 C39.229,27.155 40.357,27.629 42.112,27.637 L42.163,27.637 C43.891,27.637 45.009,27.174 46.379,25.895 L46.37,27.72 L42.099,30.385 Z M34.571,31.133 L36.398,28.223 L40.562,30.876 L38.933,34.453 L34.571,31.133 Z M35.041,17.58 L34.505,17.538 C33.824,17.485 32.821,16.288 32.864,14.604 C32.908,12.838 33.353,12.838 33.782,12.838 C33.942,12.838 34.134,12.857 34.353,12.896 L34.402,12.904 C34.86,13.407 35.084,14.213 35.079,15.195 C35.071,16.859 35.467,17.214 35.467,17.214 C35.467,17.214 35.559,14.803 35.572,12.225 C35.584,9.647 35.584,9.647 35.59,8.473 C35.596,7.298 37.217,5.209 39.113,6.057 C41.009,6.905 42.213,6.659 42.213,6.659 C42.213,6.659 43.415,6.917 45.319,6.087 C47.223,5.257 48.825,7.362 48.819,8.537 C48.813,9.712 48.813,9.712 48.801,12.29 C48.788,14.868 48.858,17.279 48.858,17.279 C48.858,17.279 49.257,16.928 49.265,15.264 C49.27,14.281 49.501,13.478 49.965,12.979 L50.013,12.971 C50.223,12.936 50.409,12.919 50.564,12.919 C51.024,12.919 51.459,12.919 51.486,14.693 C51.511,16.378 50.498,17.565 49.817,17.611 L49.281,17.648 L49.24,18.184 C49.125,19.704 49.012,20.766 48.509,21.622 C47.788,22.849 46.526,24.05 45.772,24.767 L45.622,24.911 C44.305,26.168 43.424,26.398 42.164,26.398 L42.164,27.017 L42.164,27.017 L42.119,26.398 C40.836,26.392 39.944,26.155 38.63,24.877 L38.487,24.738 C37.738,24.012 36.486,22.799 35.775,21.561 C35.28,20.701 35.177,19.639 35.077,18.117 L35.041,17.58 Z M45.227,34.483 L43.632,30.891 L47.821,28.278 L49.619,31.206 L45.227,34.483 Z M14.366,23.718 L13.8,23.674 C13.282,23.634 12.355,22.626 12.393,21.101 C12.431,19.581 12.778,19.583 13.145,19.585 C13.283,19.585 13.449,19.603 13.639,19.637 L13.788,19.663 C14.143,20.124 14.319,20.81 14.315,21.637 C14.308,23.149 14.668,23.471 14.668,23.471 C14.668,23.471 14.751,21.281 14.763,18.938 C14.774,16.595 14.774,16.595 14.779,15.528 C14.784,14.461 16.258,12.562 17.981,13.333 C19.704,14.104 20.798,13.88 20.798,13.88 C20.798,13.88 21.89,14.114 23.62,13.36 C25.35,12.606 26.806,14.519 26.8,15.586 C26.795,16.653 26.795,16.653 26.783,18.996 C26.772,21.339 26.835,23.53 26.835,23.53 C26.835,23.53 27.198,23.211 27.205,21.699 C27.209,20.873 27.391,20.188 27.751,19.731 L27.9,19.706 C28.09,19.675 28.256,19.659 28.395,19.66 C28.762,19.661 29.109,19.663 29.132,21.183 C29.155,22.708 28.218,23.707 27.7,23.742 L27.134,23.781 L27.091,24.346 C26.987,25.715 26.886,26.669 26.439,27.43 C25.791,28.534 24.65,29.618 23.969,30.266 L23.831,30.397 C22.641,31.532 21.877,31.729 20.711,31.723 C19.545,31.717 18.783,31.513 17.604,30.368 L17.467,30.235 C16.792,29.581 15.662,28.485 15.025,27.375 C14.585,26.61 14.493,25.654 14.402,24.284 L14.366,23.718 Z M38.769,57.284 L35.853,33.667 L39.417,36.38 L40.34,34.354 L41.428,36.022 L38.769,57.284 Z M41.466,31.883 L42.098,30.495 L42.708,31.868 L41.923,31.877 L41.466,31.883 Z M45.321,56.18 L42.52,36.009 L43.7,34.1 L44.723,36.405 L48.313,33.727 L45.321,56.18 Z" id="Shape" fill="#000000"></path>
                    <path d="M27.895,43.461 L26.655,43.455 L26.6,54.738 C27.008,54.943 27.421,55.136 27.838,55.325 L27.895,43.461 Z" id="Shape" fill="#000000"></path>
                    <path d="M57.417,43.604 L56.177,43.598 L56.12,55.313 C56.539,55.123 56.953,54.925 57.364,54.719 L57.417,43.604 Z" id="Shape" fill="#000000"></path>
                    <path d="M12.295,53.409 C20.144,61.334 30.61,65.729 41.765,65.783 C41.834,65.783 41.903,65.783 41.973,65.783 C53.05,65.783 63.477,61.494 71.354,53.694 C79.279,45.845 83.674,35.378 83.728,24.223 L80.626,24.208 C80.576,34.534 76.508,44.223 69.171,51.49 C61.879,58.712 52.227,62.682 41.972,62.682 C41.909,62.682 41.844,62.682 41.781,62.682 C31.454,62.632 21.766,58.564 14.499,51.227 C7.232,43.89 3.257,34.162 3.307,23.836 L0.205,23.821 C0.152,34.976 4.445,45.483 12.295,53.409 Z" id="Shape" fill="#FFBB41"></path>
                </g>
            </g>
        </g>
    </g>
</svg>