<?xml version="1.0" encoding="UTF-8"?>
<svg width="95px" height="64px" viewBox="0 0 95 64" version="1.1" xmlns="http://www.w3.org/2000/svg" xmlns:xlink="http://www.w3.org/1999/xlink">
    <!-- Generator: Sketch 45.1 (43504) - http://www.bohemiancoding.com/sketch -->
    <title>Performance-icon</title>
    <desc>Created with Sketch.</desc>
    <defs></defs>
    <g id="Page-1" stroke="none" stroke-width="1" fill="none" fill-rule="evenodd">
        <g id="Home-Page" transform="translate(-1171.000000, -3548.000000)" fill-rule="nonzero">
            <g id="Group-24" transform="translate(1058.000000, 3548.000000)">
                <g id="Performance-icon" transform="translate(113.000000, 0.000000)">
                    <path d="M1.446,63.171 L1.446,48.964 C1.446,44.393 4.307,43.295 4.682,43.171 C5.175,43.109 8.591,42.671 11.129,42.062 C11.848,41.889 12.589,41.711 13.3,41.506 L14.145,42.143 L17.353,63.171 L17.992,63.171 L18.155,63.146 L18.151,63.171 L21.587,63.171 L24.536,63.121 L24.864,63.171 L25.499,63.171 L28.707,42.142 L29.552,41.505 C30.263,41.71 31.004,41.889 31.723,42.061 C34.26,42.67 37.674,43.109 38.169,43.17 C38.524,43.289 41.406,44.402 41.406,48.962 L41.406,63.171 L42.646,63.171 L42.646,53.651 L63.109,53.651 L63.109,57.095 C62.175,57.635 61.538,58.633 61.538,59.787 C61.538,61.508 62.939,62.908 64.66,62.908 C66.381,62.908 67.781,61.508 67.781,59.787 C67.781,58.633 67.144,57.635 66.21,57.095 L66.21,53.651 L94.054,53.651 L94.054,0.633 L90.952,0.633 L90.952,0.633 L90.952,50.55 L42.646,50.55 L42.646,48.961 C42.646,43.195 38.637,42.01 38.466,41.963 L38.375,41.944 C38.375,41.944 38.368,41.944 38.367,41.943 L38.367,0.632 L38.367,0.632 L35.265,0.632 L35.265,41.489 C34.2,41.312 33.024,41.095 32.011,40.852 C31.324,40.687 30.561,40.503 29.831,40.29 L27.287,36.191 L26.722,36.547 L26.722,34.442 C27.37,33.772 28.08,32.957 28.579,32.098 C29.128,31.153 29.284,30.085 29.391,28.726 C30.534,28.287 31.603,26.764 31.564,24.809 C31.548,24.052 31.515,22.406 30.135,22.009 C30.135,21.4 30.135,20.27 30.135,18.221 C30.135,14.442 26.675,11.305 21.424,11.305 C16.173,11.306 12.713,14.442 12.713,18.221 C12.713,20.271 12.713,21.401 12.713,22.01 C11.333,22.406 11.3,24.052 11.284,24.809 C11.245,26.764 12.314,28.287 13.457,28.726 C13.564,30.085 13.72,31.154 14.269,32.099 C14.768,32.957 15.478,33.773 16.126,34.442 L16.126,36.548 L15.561,36.192 L13.017,40.291 C12.288,40.505 11.524,40.688 10.838,40.853 C8.224,41.481 4.511,41.941 4.474,41.946 L4.383,41.964 C4.213,42.012 0.204,43.197 0.204,48.963 L0.204,63.17 L1.446,63.17 L1.446,63.171 Z M64.659,61.669 C63.621,61.669 62.778,60.825 62.778,59.788 C62.778,58.751 63.622,57.907 64.659,57.907 C65.696,57.907 66.54,58.751 66.54,59.788 C66.54,60.825 65.696,61.669 64.659,61.669 Z M14.624,27.655 L14.088,27.616 C13.444,27.569 12.492,26.436 12.525,24.837 C12.558,23.166 12.958,23.166 13.381,23.166 C13.53,23.166 13.71,23.184 13.914,23.219 L13.99,23.232 C14.414,23.714 14.625,24.471 14.625,25.394 C14.625,26.99 15.006,27.328 15.006,27.328 C15.006,27.328 15.083,25.016 15.083,22.546 C15.083,20.074 15.083,20.074 15.083,18.948 C15.083,17.822 16.627,15.812 18.449,16.616 C20.27,17.421 21.424,17.178 21.424,17.178 C21.424,17.178 22.577,17.419 24.399,16.616 C26.22,15.812 27.765,17.822 27.765,18.948 C27.765,20.074 27.765,20.074 27.765,22.545 C27.765,25.017 27.843,27.327 27.843,27.327 C27.843,27.327 28.224,26.989 28.224,25.394 C28.224,24.471 28.434,23.713 28.859,23.231 L28.935,23.218 C29.14,23.183 29.319,23.165 29.469,23.165 C29.892,23.165 30.291,23.165 30.325,24.837 C30.358,26.437 29.406,27.568 28.763,27.615 L28.227,27.654 L28.189,28.19 C28.086,29.644 27.983,30.659 27.508,31.477 C26.825,32.653 25.624,33.806 24.907,34.496 L24.76,34.638 C23.493,35.858 22.676,36.073 21.427,36.073 C20.178,36.073 19.36,35.858 18.094,34.637 L17.953,34.502 C17.234,33.812 16.03,32.656 15.346,31.478 C14.87,30.661 14.767,29.646 14.665,28.192 L14.624,27.655 Z M17.369,35.655 C18.671,36.87 19.754,37.312 21.425,37.312 C23.096,37.312 24.179,36.87 25.481,35.655 L25.481,37.332 L21.425,39.89 L17.368,37.332 L17.368,35.655 L17.369,35.655 Z M28.603,40.665 L24.453,43.793 L22.93,40.408 L26.893,37.909 L28.603,40.665 Z M19.921,40.408 L18.398,43.794 L14.247,40.666 L15.958,37.91 L19.921,40.408 Z M18.377,61.654 L15.563,43.211 L18.893,45.719 L19.775,43.759 L20.809,45.327 L18.377,61.654 Z M21.264,41.352 L20.853,41.359 L21.424,40.088 L21.987,41.34 L21.264,41.352 Z M24.611,60.759 L21.854,45.31 L22.96,43.501 L23.958,45.72 L27.288,43.211 L24.611,60.759 Z" id="Shape" fill="#000000"></path>
                    <polygon id="Shape" fill="#000000" points="7.897 63.171 7.896 52.521 7.276 52.521 6.656 52.521 6.656 63.171"></polygon>
                    <rect id="Rectangle-path" fill="#000000" x="34.954" y="52.52" width="1.241" height="10.651"></rect>
                    <rect id="Rectangle-path" fill="#FFBB41" x="44.223" y="26.707" width="6.279" height="9.401"></rect>
                    <rect id="Rectangle-path" fill="#FFBB41" x="55.534" y="20.445" width="6.279" height="15.663"></rect>
                    <rect id="Rectangle-path" fill="#FFBB41" x="66.846" y="9.611" width="6.279" height="26.497"></rect>
                    <polygon id="Shape" fill="#FFBB41" points="84.818 36.108 84.818 0.634 84.818 0.514 78.54 0.514 78.54 0.634 78.54 36.108"></polygon>
                    <polygon id="Shape" fill="#000000" points="44.223 43.259 84.247 43.259 82.34 45.03 82.763 45.485 85.491 42.948 82.763 40.412 82.34 40.866 84.247 42.638 44.223 42.638"></polygon>
                </g>
            </g>
        </g>
    </g>
</svg>