<?xml version="1.0" encoding="UTF-8"?>
<svg width="54px" height="59px" viewBox="0 0 54 59" version="1.1" xmlns="http://www.w3.org/2000/svg" xmlns:xlink="http://www.w3.org/1999/xlink">
    <!-- Generator: Sketch 45.2 (43514) - http://www.bohemiancoding.com/sketch -->
    <title>Human Resource-icon</title>
    <desc>Created with Sketch.</desc>
    <defs></defs>
    <g id="Page-1" stroke="none" stroke-width="1" fill="none" fill-rule="evenodd">
        <g id="[Services]-Human-Resource" transform="translate(-308.000000, -469.000000)" fill-rule="nonzero" fill="#000000">
            <g id="Group" transform="translate(224.000000, 421.000000)">
                <g id="Human-Resource-icon" transform="translate(84.000000, 48.000000)">
                    <path d="M38.3601694,33.612872 L38.2840526,33.59723 C38.2547769,33.5939369 35.3489557,33.2391099 33.300494,32.7558537 C32.7668401,32.6298942 32.1737983,32.489116 31.6066864,32.3269329 L29.6025564,29.1491319 L29.1818229,29.4101068 L29.1818229,27.8582532 C29.6887106,27.3420664 30.2432757,26.7147389 30.6330606,26.0536575 C31.0638315,25.3234219 31.1884622,24.5018039 31.2721071,23.4587278 C32.1721254,23.1047241 33.0077371,21.9249861 32.9767886,20.4142957 C32.9642418,19.8207221 32.936639,18.5281968 31.8241629,18.2227657 C31.8241629,17.7452723 31.8241629,16.879198 31.8241629,15.3339306 C31.8241629,12.4187511 29.1123977,10 24.9979089,10 C20.88342,10 18.1716549,12.4187511 18.1716549,15.3339306 C18.1716549,16.879198 18.1716549,17.7460955 18.1716549,18.2227657 C17.0591787,18.5281968 17.0315759,19.8207221 17.0198656,20.4142957 C16.9889171,21.9249861 17.8245288,23.1047241 18.7245471,23.4587278 C18.8090284,24.5018039 18.9328228,25.3234219 19.36443,26.0544807 C19.7550514,26.7155621 20.3087801,27.3420664 20.8148313,27.8582532 L20.8148313,29.41093 L20.3949343,29.1499552 L18.3908043,32.3277561 C17.8236924,32.4907625 17.2298142,32.6315407 16.6969966,32.7566769 C14.6502078,33.2407564 11.7427138,33.5955834 11.7134381,33.5980532 L11.6373213,33.6136952 C11.5428026,33.6392164 9.93514912,34.1150633 9,35.9690549 C9.23336906,36.2843652 9.47259325,36.5955592 9.72436417,36.8960508 C10.3592284,35.1746047 11.6624147,34.6798228 11.8865828,34.6065522 C12.2838958,34.5571563 14.9538385,34.2187946 16.9395666,33.7503572 C17.4974776,33.6186348 18.072954,33.4819729 18.6258463,33.3255527 L19.2950048,33.8219812 L21.0180882,43.6040098 C21.376088,43.6756338 21.7391066,43.7365554 22.103798,43.7892443 L20.5061819,34.720986 L23.0280733,36.5906196 L23.727344,35.0609942 L24.5161147,36.2390857 L23.145176,43.9119107 C23.7557833,43.9678927 24.3739185,44 24.9995818,44 C25.6679039,44 26.328698,43.9662462 26.9802912,43.9020315 L25.335834,36.2259135 L26.1823196,34.864234 L26.9719267,36.5914429 L29.4938181,34.7218092 L27.8953656,43.7908908 C28.2608934,43.7382019 28.6230755,43.6781036 28.9810754,43.6056563 L30.7049952,33.8236277 L31.3741537,33.3271992 C31.927046,33.4836195 32.5025224,33.6194581 33.0604334,33.7520037 C35.045325,34.2204412 37.7127584,34.5588029 38.1125807,34.6081987 C38.3451133,34.6847623 39.6424445,35.1820141 40.2756358,36.8976973 C40.5274067,36.5972057 40.7666309,36.2860118 41,35.9707015 C40.063178,34.1142401 38.4555245,33.6383932 38.3601694,33.612872 Z M24.9979089,32.0050364 L21.8520271,30.0530763 L21.8520271,28.8494637 C22.8549285,29.7550546 23.7022506,30.0876535 24.9979089,30.0876535 C26.2927307,30.0876535 27.1408892,29.7550546 28.1437907,28.8502869 L28.1437907,30.0530763 L24.9979089,32.0050364 Z M19.4162898,32.6331872 L20.7236584,30.5602073 L23.7766945,32.4553621 L22.6115221,35.004189 L19.4162898,32.6331872 Z M19.6990093,22.5761883 L19.2506731,22.544081 C18.8148836,22.5127969 18.0311316,21.6878859 18.056225,20.4340541 C18.0821549,19.1769292 18.379094,19.1769292 18.694435,19.1769292 C18.8098649,19.1769292 18.9487153,19.1901015 19.1076404,19.2164459 L19.203832,19.2329112 C19.5149907,19.6066733 19.6697336,20.1747258 19.6697336,20.8629749 C19.6697336,22.092932 19.9683457,22.3539069 19.9683457,22.3539069 C19.9683457,22.3539069 20.0285699,20.5715393 20.0285699,18.665682 C20.0285699,16.7598247 20.0285699,16.7598247 20.0285699,15.8912807 C20.0285699,15.0235599 21.2389105,13.4725296 22.6667277,14.0924478 C24.0937083,14.7123659 24.9979089,14.5263081 24.9979089,14.5263081 C24.9979089,14.5263081 25.9021094,14.7123659 27.3290901,14.0924478 C28.7560708,13.4725296 29.9664114,15.0227366 29.9664114,15.8912807 C29.9664114,16.7598247 29.9664114,16.7598247 29.9664114,18.665682 C29.9664114,20.5715393 30.0274721,22.3539069 30.0274721,22.3539069 C30.0274721,22.3539069 30.3252477,22.092932 30.3252477,20.8629749 C30.3252477,20.1747258 30.480827,19.60585 30.7911493,19.2329112 L30.8881773,19.2164459 C31.046266,19.1901015 31.1851164,19.1769292 31.3013828,19.1769292 C31.6158873,19.1769292 31.9136629,19.1769292 31.9387563,20.4340541 C31.9646862,21.6887092 31.1800978,22.5127969 30.7443082,22.544081 L30.295972,22.5761883 L30.2641869,23.017458 C30.1838879,24.134628 30.1035889,24.9142594 29.7347152,25.5382939 C29.2002248,26.4438848 28.2592205,27.3330105 27.6962909,27.8640161 L27.5867162,27.9677474 C26.6022166,28.9013293 25.9673524,29.065159 24.9970724,29.065159 C24.0267925,29.065159 23.3919283,28.9013293 22.4074287,27.9669241 L22.297854,27.8640161 C21.7357608,27.3330105 20.7939201,26.4438848 20.2594296,25.5382939 C19.890556,24.9134362 19.8102569,24.1338047 19.7299579,23.0166348 L19.6990093,22.5761883 Z M26.2182868,32.4553621 L29.2713229,30.5602073 L30.5786915,32.6331872 L27.3826228,35.004189 L26.2182868,32.4553621 Z M24.8716052,33.170779 L24.5863763,33.1757185 L24.9979089,32.2750672 L25.4027498,33.1625463 L24.8716052,33.170779 Z" id="Shape"></path>
                    <path d="M24.2886617,48.2901971 C28.0876186,48.2901971 31.8192564,47.3931323 35.1777304,45.7164065 L35.5558807,46.1703131 C36.8191523,47.6858152 38.9409499,48.0942484 40.6563398,47.2864766 L42.7930972,49.8503457 C42.4963946,50.7722142 42.6044376,51.7296345 43.182883,52.4241363 L47.925138,58.1132633 C48.9274443,59.3154129 50.9677942,59.2922628 52.4596182,58.0620025 L52.5576879,57.9809773 C54.049512,56.750717 54.450102,54.7598119 53.4477958,53.5576624 L48.7055407,47.8685353 C48.1287575,47.1765139 47.2062368,46.9036739 46.2438233,47.0210778 L44.0987549,44.4472872 C45.2132596,42.9202101 45.2032864,40.7705617 43.9400148,39.2550596 L43.5635267,38.8036335 C50.274657,30.0628325 50.3120565,17.5452646 42.9609793,8.7267456 C38.3384026,3.1806528 31.5192294,0 24.2529244,0 L24.2520933,0 C18.6089261,0 13.1112014,1.97188899 8.77119861,5.5527071 C-1.53443805,14.0545664 -2.96642289,29.3129359 5.57977565,39.5651051 C10.2031835,45.1095443 17.0223567,48.2901971 24.2886617,48.2901971 Z M44.1718917,47.9189693 L44.0738219,47.9999945 C43.766315,48.2538184 43.507843,48.5407138 43.2959125,48.8449717 L41.5364744,46.7341824 C41.5397988,46.731702 41.5439543,46.7292216 41.5481098,46.7259145 L43.3806847,45.2137195 C43.3848402,45.2104124 43.3873335,45.2071052 43.391489,45.2037981 L45.1575759,47.3220285 C44.8159939,47.4741575 44.4802297,47.6643187 44.1718917,47.9189693 Z M10.415945,7.52459609 C14.4592452,4.18933396 19.3693824,2.56304229 24.2512622,2.56304229 C30.4928212,2.56304229 36.6903319,5.22033839 40.9763132,10.3629587 C48.6149508,19.5270751 47.3358883,33.1657672 38.1231478,40.7647742 C34.0798476,44.1000363 29.1705415,45.726328 24.2878306,45.726328 C18.0462716,45.726328 11.849592,43.0690319 7.56277961,37.9264116 C-0.0750269224,28.7622952 1.20403556,15.1236031 10.415945,7.52459609 Z" id="Shape"></path>
                    <path d="M5.02291461,24.9991757 C5.02291461,14.5351137 13.5367623,6.02209034 24,6.02209034 L24,5 C12.9721398,5 4,13.9713155 4,25 L5.02291461,25 L5.02291461,24.9991757 Z" id="Shape"></path>
                </g>
            </g>
        </g>
    </g>
</svg>