<?xml version="1.0" encoding="UTF-8"?>
<svg width="70px" height="51px" viewBox="0 0 70 51" version="1.1" xmlns="http://www.w3.org/2000/svg" xmlns:xlink="http://www.w3.org/1999/xlink">
    <!-- Generator: Sketch 45.2 (43514) - http://www.bohemiancoding.com/sketch -->
    <title>Prod-Management-icon</title>
    <desc>Created with Sketch.</desc>
    <defs></defs>
    <g id="Page-1" stroke="none" stroke-width="1" fill="none" fill-rule="evenodd">
        <g id="[Services]-Human-Resource" transform="translate(-777.000000, -455.000000)" fill-rule="nonzero" fill="#FFBB41">
            <g id="Group" transform="translate(224.000000, 421.000000)">
                <g id="Prod-Management-icon" transform="translate(553.000000, 34.000000)">
                    <path d="M33.1133039,33.6902743 L33.0620439,33.6806983 C33.0413746,33.6775062 30.9471584,33.4277307 29.4721953,33.0861845 C29.0852655,32.996808 28.6545167,32.8970574 28.2427837,32.7797506 L26.8075057,30.5485287 L26.489198,30.7424439 L26.489198,29.5917207 C26.8554585,29.2270324 27.2547899,28.7889277 27.5367195,28.3204988 C27.8467594,27.8057855 27.9343974,27.2240399 27.9947518,26.4842893 C28.6396348,26.2448878 29.2423523,25.4165586 29.2200295,24.35202 C29.2117617,23.9394514 29.1919192,23.0432918 28.4139257,22.8278304 C28.4139257,22.4966584 28.4139257,21.8805985 28.4139257,20.7649875 C28.4139257,18.7077307 26.4627413,17 23.5004134,17 C20.5380855,17 18.586901,18.7077307 18.586901,20.7657855 C18.586901,21.8813965 18.586901,22.4966584 18.586901,22.8286284 C17.8089076,23.0440898 17.7898918,23.9402494 17.7807973,24.35202 C17.7593012,25.4165586 18.3620188,26.2448878 19.0069018,26.4842893 C19.0672562,27.2248379 19.1557209,27.8057855 19.464934,28.3212968 C19.7468637,28.7889277 20.146195,29.2270324 20.5124555,29.5917207 L20.5124555,30.7424439 L20.1949747,30.5493267 L18.7596966,32.7813466 C18.3479636,32.8978554 17.9172149,32.997606 17.5302851,33.0869825 C16.0553219,33.4293267 13.9619325,33.6791022 13.9404364,33.6814963 L13.8891765,33.6918703 C13.8205543,33.7094264 12.6672059,34.0445885 12,35.3541147 C12.1570869,35.562394 12.3191344,35.7674813 12.4886229,35.9661845 C12.9524426,34.7476309 13.898271,34.3997007 14.0570114,34.3494264 C14.3348071,34.3151122 16.2620152,34.0765087 17.6931594,33.7445387 C18.0982782,33.6511721 18.5166253,33.5538155 18.9176103,33.4420948 L19.4161544,33.804389 L20.6596211,40.7262843 C20.9010389,40.7741646 21.1457637,40.8140648 21.3921421,40.8491771 L20.2330062,34.3981047 L22.0717495,35.7355611 L22.5694669,34.6686284 L23.1523419,35.5224938 L22.1660017,40.9377556 C22.6058449,40.9776559 23.0498221,41 23.5004134,41 C23.9815953,41 24.4569898,40.9768579 24.9257702,40.9313716 L23.7418311,35.5121197 L24.365218,34.5281796 L24.9282505,35.7363591 L26.7669938,34.3981047 L25.6078579,40.8491771 C25.8542363,40.8140648 26.0981344,40.7733666 26.3403789,40.7262843 L27.5838456,33.804389 L28.0823897,33.4420948 C28.4833747,33.5538155 28.9017218,33.6503741 29.3068406,33.7445387 C30.7379848,34.0757107 32.6635393,34.3151122 32.9429886,34.3486284 C33.1066897,34.4004988 34.0483842,34.7508229 34.5113771,35.9653865 C34.6808656,35.7666833 34.8420863,35.561596 35,35.3533167 C34.3352745,34.0437905 33.181926,33.7094264 33.1133039,33.6902743 Z M23.5012402,32.5610973 L21.2127323,31.1693766 L21.2127323,30.2556608 C21.9477336,30.916409 22.5578921,31.1582045 23.5012402,31.1582045 C24.4445882,31.1582045 25.0547468,30.916409 25.789748,30.2556608 L25.789748,31.1693766 L23.5012402,32.5610973 Z M19.4525324,32.9840399 L20.4173766,31.4837905 L22.6521442,32.843591 L21.793127,34.6877805 L19.4525324,32.9840399 Z M19.6650131,25.9009476 L19.363241,25.8801995 C19.0002876,25.8546633 18.4628851,25.2378055 18.4819009,24.367182 C18.5000899,23.4566584 18.7257989,23.4566584 18.9639096,23.4566584 C19.0482404,23.4566584 19.1499335,23.4662344 19.264855,23.4853865 L19.3078472,23.4925686 C19.5476113,23.7551122 19.6658399,24.1676808 19.6658399,24.6696259 C19.6658399,25.5386534 19.8808009,25.7221945 19.8808009,25.7221945 C19.8808009,25.7221945 19.9246199,24.4637406 19.9237931,23.1183042 C19.9237931,21.7720698 19.9237931,21.7720698 19.9237931,21.16 C19.9237931,20.5479302 20.7952119,19.4522693 21.8220641,19.8903741 C22.849743,20.3284788 23.4995866,20.196808 23.4995866,20.196808 C23.4995866,20.196808 24.150257,20.3284788 25.1771092,19.8903741 C26.2047881,19.4522693 27.0753801,20.5463342 27.0753801,21.16 C27.0753801,21.7728678 27.0753801,21.7728678 27.0753801,23.1183042 C27.0753801,24.4637406 27.1191991,25.7221945 27.1191991,25.7221945 C27.1191991,25.7221945 27.3341601,25.5378554 27.3341601,24.6696259 C27.3341601,24.1668828 27.4532154,23.7551122 27.6921528,23.4917706 L27.735145,23.4845885 C27.8508933,23.4662344 27.9517596,23.4558603 28.0360904,23.4558603 C28.2750279,23.4558603 28.5007369,23.4558603 28.5189259,24.366384 C28.5362881,25.2074813 28.0046731,25.8538653 27.6375858,25.8794015 L27.3349869,25.9001496 L27.3143176,26.1914214 C27.2564434,26.9830424 27.1977426,27.5360599 26.9298681,27.9813466 C26.5437651,28.6221446 25.8649844,29.2509726 25.4598656,29.6268329 L25.3796686,29.7018454 C24.6653366,30.3657855 24.2039973,30.4830923 23.4995866,30.4830923 C22.795176,30.4830923 22.3338366,30.3665835 21.6195047,29.7018454 L21.5393077,29.6268329 C21.1341889,29.2509726 20.4554082,28.6221446 20.0693052,27.9813466 C19.8006039,27.5352618 19.7427298,26.9838404 19.6848557,26.1922195 L19.6650131,25.9009476 Z M24.3495093,32.843591 L26.5851037,31.4837905 L27.5499479,32.9840399 L25.2085265,34.6869825 L24.3495093,32.843591 Z M23.4102951,33.3575062 L23.1787987,33.3614963 L23.5012402,32.6696259 L23.818721,33.3511222 L23.4102951,33.3575062 Z" id="Shape"></path>
                    <path d="M42.7297735,24.6001239 C42.5161812,23.1752686 42.1351133,21.7617408 41.5987055,20.3983783 L41.4635922,20.0569309 L44.7823625,17.3625706 L42.9182848,14.1358112 L38.9199029,15.6658518 L38.6909385,15.3794243 C37.7855987,14.2474694 36.7524272,13.2134176 35.618932,12.3072063 L35.3325243,12.0790353 L36.8624595,8.07956893 L33.6351133,6.21617201 L30.9417476,9.53517078 L30.6003236,9.40085732 C29.2354369,8.8636035 27.8211974,8.4825093 26.3988673,8.26971147 L26.0355987,8.2146915 L25.3632686,4 L21.6367314,4 L20.9644013,8.21307327 L20.6011327,8.266475 C19.1739482,8.48008194 17.7580906,8.85874879 16.3940129,9.3951935 L16.052589,9.52950695 L13.3640777,6.21698113 L10.1367314,8.08037805 L11.6650485,12.0757988 L11.3794498,12.304779 C10.7953074,12.7732578 10.2483819,13.2611555 9.75404531,13.7555261 C9.2605178,14.2482785 8.77265372,14.7952417 8.30420712,15.3802334 L8.07524272,15.6658518 L4.08090615,14.1382385 L2.21763754,17.3649979 L5.52993528,20.0545035 L5.39563107,20.3967601 C4.8592233,21.7609317 4.47977346,23.1760777 4.26699029,24.6025513 L4.21278317,24.9658449 L0,25.6382213 L0,29.3650151 L4.21440129,30.0373915 L4.26860841,30.3998761 C4.48300971,31.8255406 4.86326861,33.2398774 5.39967638,34.6016217 L5.53478964,34.9430691 L2.21601942,37.6374294 L4.07928803,40.8649979 L8.0776699,39.3349573 L8.3066343,39.6213848 C9.21197411,40.7533398 10.2459547,41.7873915 11.3786408,42.6927937 L11.6650485,42.9217739 L10.1351133,46.9204311 L13.3624595,48.783828 L16.0558252,45.4656383 L16.3972492,45.5991427 C17.762945,46.1372056 19.1763754,46.5174907 20.5995146,46.7310976 L20.9627832,46.7853085 L21.6351133,51 L25.3616505,51 L26.0339806,46.7877358 L26.3980583,46.733525 C27.8252427,46.5207272 29.2402913,46.1412512 30.6043689,45.6048065 L30.9466019,45.470493 L33.6351133,48.7830189 L36.8624595,46.919622 L35.3341424,42.9242012 L35.6205502,42.695221 C36.2046926,42.2275513 36.7516181,41.7388445 37.2459547,41.2444739 C37.7419094,40.7492942 38.2289644,40.2023309 38.6957929,39.6205757 L38.9247573,39.3341482 L42.9190939,40.8625706 L44.7831715,37.6350021 L41.4700647,34.9463056 L41.6043689,34.604049 C42.1407767,33.2398774 42.5202265,31.8247314 42.7330097,30.3974487 L42.7872168,30.0341551 L47,29.3625878 L47,25.635794 L42.7855987,24.9634176 L42.7297735,24.6001239 Z M23.5,43.3449422 L23.5,43.3449422 C14.763754,43.3449422 7.65533981,36.2368475 7.65533981,27.4991909 C7.65533981,18.7623433 14.762945,11.6542487 23.4991909,11.6534396 C32.2354369,11.6534396 39.3438511,18.7615342 39.3438511,27.4991909 C39.3438511,36.2360384 32.236246,43.3449422 23.5,43.3449422 Z" id="Shape"></path>
                    <path d="M64.4884064,33.3190309 L66.0085381,31.2496424 L64.9833138,29.8110345 L63.8938586,28.4588913 L61.5642526,29.335067 C61.3435617,29.1851948 61.1171066,29.0493217 60.8857106,28.9282711 L60.5110302,26.4776145 L58.7693841,26.186105 L57.043384,26 L56.0198067,28.2563169 C55.7637065,28.3114896 55.5084298,28.3806614 55.2556235,28.4646557 L53.2496424,26.9914619 L51.8110345,28.0166862 L50.4588913,29.1053179 L51.3622416,31.5082131 C51.2346032,31.7066701 51.1209639,31.9026568 51.0188532,32.1002904 L48.478438,32.4889698 L48.186105,34.2306159 L48,35.9574394 L50.3403112,37.0180731 C50.3856022,37.2362935 50.4424219,37.4561609 50.5115936,37.6809691 L48.9914619,39.7503576 L50.0166862,41.1889655 L51.1061414,42.5411087 L53.4357474,41.664933 C53.6564383,41.8148052 53.8828934,41.9506783 54.1142894,42.0717289 L54.4889698,44.5223855 L56.2314393,44.813895 L57.9574394,45 L58.9810168,42.7436831 C59.2362935,42.6893339 59.4923937,42.6193386 59.7443765,42.5353443 L61.7503576,44.0085381 L63.1889655,42.9833138 L64.5411087,41.8946821 L63.6377584,39.4917869 C63.7653968,39.2941533 63.8790361,39.0973432 63.9819703,38.8997096 L66.5223855,38.5110302 L66.813895,36.7693841 L67,35.0425606 L64.6596888,33.9819269 C64.6143978,33.7637065 64.5575781,33.5446626 64.4884064,33.3190309 Z M65.8026698,36.6302171 L65.6371516,37.6134443 L63.29437,37.9716552 L63.1782603,38.2186972 C63.0349759,38.5242058 62.8612231,38.8239501 62.6462965,39.1360465 L62.4947774,39.3559138 L63.3248386,41.5636458 L62.5721839,42.1697222 L61.7602392,42.7478005 L59.9090712,41.3890695 L59.6505006,41.4854159 C59.284055,41.6229359 58.9093746,41.7250466 58.5371647,41.7892775 L58.2703593,41.8362155 L57.3315997,43.9064274 L56.3706063,43.8034933 L55.3873792,43.6379751 L55.0439908,41.3915399 L54.8002427,41.2737832 C54.4585013,41.111559 54.1266415,40.9114549 53.8112512,40.6800589 L53.58809,40.5170112 L51.4380011,41.3248386 L50.8311013,40.5730074 L50.253023,39.7602392 L51.6488103,37.8604863 L51.5623456,37.60768 C51.4396481,37.2494691 51.3531834,36.913492 51.2988341,36.5808087 L51.2543666,36.311533 L49.0952195,35.3332467 L49.1981537,34.3722533 L49.3636718,33.3882027 L51.7064534,33.0308152 L51.8217397,32.7821263 C51.9642006,32.4790881 52.1379535,32.1785203 52.3537035,31.8656005 L52.5052226,31.6449096 L51.6751614,29.4388246 L52.4278161,28.8319248 L53.2405842,28.2538465 L55.0909288,29.6125775 L55.3494994,29.5162311 C55.715945,29.378711 56.0906254,29.2766004 56.4628353,29.2123694 L56.7288172,29.1654315 L57.6675768,27.0952195 L58.6285702,27.1981537 L59.6117973,27.3636718 L59.9551857,29.6109305 L60.1989338,29.7278637 C60.5398518,29.890088 60.872535,30.090192 61.1887488,30.321588 L61.41191,30.4846357 L63.5611754,29.6768084 L64.1680752,30.4286395 L64.7461535,31.2414077 L63.3503662,33.1411607 L63.4368309,33.393967 C63.5595285,33.7530013 63.6459932,34.0889785 63.7011659,34.4208382 L63.7456334,34.690114 L65.903957,35.6684003 L65.8026698,36.6302171 Z" id="Shape"></path>
                    <path d="M57.5529438,31.0370156 C57.3726888,31.0123385 57.1893124,31 57.0090574,31 C55.0207896,31 53.3142191,32.4875651 53.0387645,34.4601889 C52.7336574,36.6456526 54.2630942,38.6653171 56.4472235,38.9629844 C56.6274785,38.9876615 56.8108549,39 56.9918902,39 C58.980158,39 60.6867285,37.5124349 60.9614028,35.5398111 C61.2657295,33.3551186 59.7370731,31.335454 57.5529438,31.0370156 Z M60.0023836,35.4094853 C59.7932565,36.9109312 58.4986975,38.0437633 56.9918902,38.0437633 C56.8553334,38.0437633 56.7164356,38.0337382 56.5798787,38.0160015 C54.9240293,37.7900521 53.7660272,36.253904 53.9977837,34.5912859 C54.2076911,33.08984 55.5014697,31.9570079 57.0090574,31.9570079 C57.1456142,31.9570079 57.2845121,31.967033 57.4202886,31.9847696 C59.0761379,32.2099479 60.23414,33.7468672 60.0023836,35.4094853 Z" id="Shape"></path>
                    <path d="M67.3021757,11.0861594 L69.7784045,8.89745484 L68.922643,6.90537909 L67.9645447,4.99469478 L64.6946011,5.47740246 C64.4609186,5.23483984 64.2078969,5.00114163 63.9315068,4.7714727 L64.1345689,1.47632798 L62.1216761,0.673695521 L60.0918614,0 L58.182917,2.56987442 C57.7896857,2.55778658 57.3940371,2.56987442 57.0064464,2.60774965 L54.8960516,0.220804513 L52.9049154,1.07662346 L50.9935536,2.03478611 L51.4585012,5.18648848 C51.1804996,5.45886777 50.9170024,5.75139346 50.6712329,6.06164798 L47.4762288,5.86501914 L46.6728445,7.87804714 L46,9.90719226 L48.650282,11.8758982 C48.6470588,12.2361158 48.6631749,12.5794104 48.6978243,12.9138406 L46.2215955,15.103351 L47.077357,17.0954268 L48.0354553,19.0061111 L51.3053989,18.5234034 C51.5390814,18.765966 51.7912973,18.9980525 52.0684932,19.2293332 L51.8654311,22.523672 L53.8791297,23.3271103 L55.9081386,24 L57.817083,21.4309314 C58.2103143,21.4430193 58.6059629,21.4309314 58.9943594,21.3930562 L61.1039484,23.7800013 L63.0958904,22.9241824 L65.0064464,21.9652139 L64.5414988,18.8151232 C64.8195004,18.5419381 65.0838034,18.2494124 65.3287671,17.9391579 L68.5237712,18.1357867 L69.3271555,16.1219529 L70,14.0928077 L67.349718,12.1249077 C67.3521354,11.7638842 67.3360193,11.4213955 67.3021757,11.0861594 Z M68.3867849,15.7794641 L67.8622079,17.0930092 L64.8533441,16.9084682 L64.6913779,17.1252434 C64.3827558,17.5402592 64.0386785,17.9230408 63.6688155,18.2639178 L63.4746172,18.4428178 L63.910556,21.3970855 L62.6728445,22.0184004 L61.3730862,22.5760526 L59.3956487,20.3389967 L59.1329573,20.3720368 C58.6333602,20.4356994 58.1152297,20.4526224 57.6035455,20.421194 L57.3344077,20.4050769 L55.536664,22.8242563 L54.2224013,22.3890941 L52.9081386,21.8644819 L53.0983078,18.7740246 L52.8936342,18.6120475 C52.4995971,18.3001813 52.1619662,17.9883151 51.8630137,17.6563025 L51.6833199,17.4580619 L48.6051571,17.9125646 L47.983884,16.67477 L47.4262691,15.3749245 L49.7574537,13.3135451 L49.7219984,13.0484185 C49.6623691,12.6051978 49.6406124,12.1458599 49.6559226,11.6446176 L49.6639807,11.3835202 L47.1780822,9.53649856 L47.614021,8.22214761 L48.1385979,6.90860251 L51.1474617,7.09314351 L51.3094279,6.87636828 C51.61805,6.46135249 51.9621273,6.07857095 52.3319903,5.73769391 L52.5269944,5.5587939 L52.0910556,2.60372037 L53.3287671,1.98240548 L54.6285254,1.42475321 L56.6067687,3.66180915 L56.8694601,3.62876906 C57.3682514,3.56510644 57.8871878,3.54898932 58.3988719,3.57961185 L58.6688155,3.59572896 L60.4665592,1.17574374 L61.7816277,1.61171177 L63.0950846,2.1355181 L62.9049154,5.22758713 L63.1103948,5.38956417 C63.5028203,5.69981868 63.8404512,6.01168491 64.1410153,6.34450339 L64.3207091,6.54274394 L67.3988719,6.08824122 L68.020145,7.32603586 L68.5785657,8.6258814 L66.2473811,10.6864549 L66.2828364,10.9515815 C66.3432716,11.3956081 66.3642224,11.8549459 66.3489122,12.3553824 L66.3408541,12.6164798 L68.8267526,14.4635014 L68.3867849,15.7794641 Z" id="Shape"></path>
                    <path d="M58.4455568,7 C57.651216,7 56.8826332,7.16977598 56.1597499,7.5027347 C54.8294784,8.1159062 53.823258,9.21285682 53.3263796,10.5916685 C52.8303321,11.9680078 52.9017895,13.4597288 53.5266266,14.7940361 C54.4397861,16.7415149 56.4148363,18 58.5577283,18 C59.3512382,18 60.1206519,17.8310482 60.8435352,17.4980895 C63.5871682,16.2330112 64.7678776,12.961939 63.4766585,10.2059639 C62.563499,8.25848505 60.5892797,7 58.4455568,7 Z M54.4613895,14.3621788 C53.9512167,13.2742938 53.8930537,12.0570166 54.2968712,10.9361654 C54.6998579,9.81778677 55.5158021,8.92687495 56.5943107,8.42990934 C57.1809264,8.15958642 57.8032708,8.02277665 58.4463877,8.02277665 C60.1904475,8.02277665 61.7982397,9.04884993 62.5427265,10.6369971 C63.5946463,12.881996 62.6374491,15.5431932 60.4106361,16.5700907 C59.8240205,16.8404136 59.2008452,16.9772233 58.5585592,16.9772233 C56.8136684,16.9772233 55.2058762,15.9511501 54.4613895,14.3621788 Z" id="Shape"></path>
                </g>
            </g>
        </g>
    </g>
</svg>