<?xml version="1.0" encoding="UTF-8"?>
<svg width="62px" height="67px" viewBox="0 0 62 67" version="1.1" xmlns="http://www.w3.org/2000/svg" xmlns:xlink="http://www.w3.org/1999/xlink">
    <!-- Generator: Sketch 45.2 (43514) - http://www.bohemiancoding.com/sketch -->
    <title>UX-UI-icon</title>
    <desc>Created with Sketch.</desc>
    <defs></defs>
    <g id="Page-1" stroke="none" stroke-width="1" fill="none" fill-rule="evenodd">
        <g id="[Services]-Human-Resource" transform="translate(-1008.000000, -444.000000)" fill-rule="nonzero" fill="#000000">
            <g id="Group" transform="translate(224.000000, 421.000000)">
                <g id="UX-UI-icon" transform="translate(784.000000, 23.000000)">
                    <path d="M40.2109961,50.037726 L40.1351219,50.0222091 C40.1042719,50.0181257 37.0101035,49.644087 34.8289274,49.1303963 C34.2569523,48.9964611 33.6207759,48.8461922 33.0121144,48.6714231 L30.8901368,45.324675 L30.4190495,45.6145959 L30.4190495,43.8954879 C30.9593408,43.3483133 31.5521605,42.6835371 31.9673844,41.9811937 C32.4251312,41.2094326 32.5552013,40.3372201 32.6444161,39.2273542 C33.5982638,38.8688324 34.4895777,37.6250312 34.4562264,36.0284249 C34.4428859,35.4101994 34.415371,34.0651301 33.2647506,33.7417255 C33.2647506,33.245185 33.2647506,32.3223384 33.2647506,30.6481477 C33.2647506,27.5619201 30.3798617,25 26.0016676,25 C21.6234734,25.0008167 18.7377507,27.5619201 18.7385845,30.6481477 C18.7385845,32.3223384 18.7385845,33.245185 18.7385845,33.7425421 C17.5879641,34.0659468 17.5604493,35.4101994 17.5471087,36.0292416 C17.5145912,37.6258479 18.4059051,38.8688324 19.358919,39.2273542 C19.4473,40.3372201 19.5790377,41.2094326 20.0367845,41.9811937 C20.4520084,42.6827204 21.0448281,43.34913 21.5851194,43.8954879 L21.5851194,45.6154125 L21.1140321,45.324675 L18.9928883,48.6714231 C18.3850606,48.8461922 17.7480504,48.9964611 17.1752416,49.1303963 C14.995733,49.6432703 11.9007308,50.0181257 11.869047,50.0222091 L11.7931728,50.037726 C11.6922851,50.0646764 9.98719898,50.5669336 9,52.5318618 C9.23262544,52.8438329 9.47192113,53.150904 9.72205601,53.4498083 C10.4082594,51.6220821 11.8065133,51.0985912 12.0408063,51.0226401 C12.4510275,50.9720061 15.29923,50.6143009 17.415371,50.1169438 C18.014861,49.9756584 18.6335279,49.829473 19.2255138,49.6620539 L19.9625779,50.2059618 L21.8010692,60.5892108 C22.1587621,60.6602618 22.5197901,60.7215127 22.8841532,60.7745968 L21.1698955,51.0969579 L23.8888616,53.1035367 L24.6242582,51.502847 L25.4863897,52.7833987 L24.0281034,60.9077153 C24.6776203,60.9665162 25.3346412,61 26.0008338,61 C26.7128844,61 27.4149296,60.9648828 28.1078032,60.8970985 L26.3576929,52.7686985 L27.2798568,51.2913273 L28.1111384,53.10272 L30.8301045,51.0969579 L29.1166806,60.7737801 C29.4810437,60.7215127 29.8420717,60.6594451 30.1997646,60.5883941 L32.0374221,50.2051451 L32.7744862,49.6612373 C33.3673059,49.8286563 33.985139,49.9740251 34.584629,50.1153105 C36.6999362,50.6118509 39.5464711,50.9711894 39.9591937,51.0210068 C40.1809799,51.0936912 41.5850704,51.6228988 42.2754426,53.450625 C42.5264113,53.1517207 42.7665408,52.8430163 43,52.5294118 C42.0178037,50.5677503 40.3118839,50.0646764 40.2109961,50.037726 Z M26.0025013,48.3447517 L22.6206778,46.2556884 L22.6206778,44.8844854 C23.7062632,45.8767496 24.6092501,46.2385381 26.0025013,46.2385381 C27.3965864,46.2385381 28.2995733,45.8767496 29.3851587,44.8853021 L29.3851587,46.2548717 L26.0025013,48.3447517 Z M20.0176075,48.9776775 L21.4442101,46.7260951 L24.7484918,48.7669744 L23.4794742,51.5322475 L20.0176075,48.9776775 Z M20.3319437,38.351875 L19.885036,38.3208412 C19.3430771,38.2816406 18.5559861,37.31306 18.5826671,36.0521086 C18.610182,34.6866224 18.9445289,34.6866224 19.2963853,34.6866224 C19.420619,34.6866224 19.5698661,34.7013226 19.7407916,34.7299063 L19.8041591,34.7405231 C20.1576831,35.1333454 20.3336113,35.7523877 20.3336113,36.5061818 C20.3336113,37.8096005 20.6512826,38.0856378 20.6512826,38.0856378 C20.6512826,38.0856378 20.7154838,36.1974774 20.7154838,34.1802818 C20.7154838,32.1614528 20.7154838,32.1614528 20.7154838,31.2418729 C20.7154838,30.3222931 22.0036785,28.6807695 23.5219972,29.3373789 C25.0403159,29.994805 26.0025013,29.7971688 26.0025013,29.7971688 C26.0025013,29.7971688 26.9638531,29.9939883 28.4830055,29.3373789 C30.0013242,28.6807695 31.2895189,30.3222931 31.2895189,31.2418729 C31.2895189,32.1614528 31.2895189,32.1614528 31.2895189,34.1794651 C31.2895189,36.198294 31.3537201,38.0848211 31.3537201,38.0848211 C31.3537201,38.0848211 31.6713914,37.8087838 31.6713914,36.5061818 C31.6713914,35.7523877 31.8473196,35.1333454 32.2008436,34.7397064 L32.2650449,34.7290896 C32.4351366,34.7013226 32.5852175,34.6866224 32.7094512,34.6866224 C33.0621414,34.6866224 33.3948207,34.6866224 33.4223356,36.0512919 C33.4481828,37.3122434 32.6627593,38.2816406 32.1199666,38.3200245 L31.673059,38.351875 L31.642209,38.7896146 C31.5554956,39.9770649 31.469616,40.8059935 31.0735691,41.4748531 C30.501594,42.4377169 29.4977194,43.3809805 28.8982294,43.9444886 L28.7814998,44.0539235 C27.7259306,45.0510878 27.04473,45.2258569 26.0025013,45.2258569 C24.9611065,45.2258569 24.2799058,45.0510878 23.2235029,44.0539235 L23.1059395,43.9436719 C22.5064496,43.3801638 21.5025749,42.4360836 20.9322674,41.4740364 C20.5345529,40.8051768 20.4495071,39.9770649 20.3636274,38.7896146 L20.3319437,38.351875 Z M27.2565109,48.7677911 L30.5607926,46.7269118 L31.9882289,48.9776775 L28.5280298,51.5330641 L27.2565109,48.7677911 Z M25.8690961,49.5379188 L25.5264113,49.5436356 L26.0025013,48.506454 L26.4710874,49.5281187 L25.8690961,49.5379188 Z" id="Shape"></path>
                    <path d="M51.9999998,41 L49.4058974,41 C49.4058974,53.905891 38.9065168,64.4051026 26.0004182,64.4059391 C19.7590128,64.4059391 13.8848474,61.969145 9.45872811,57.5430969 C5.03260885,53.1170489 2.59493894,47.242978 2.59493894,41.001673 L0,41.001673 C0.000836537376,47.9356198 2.70787148,54.4621794 7.6233651,59.3775939 C12.5396953,64.2938449 19.0663599,67.0008363 26.0004182,66.9999998 C32.9344765,66.9999998 39.4611411,64.2930084 44.3766347,59.3767574 C49.2938014,54.4605063 52.0008363,47.9347833 51.9999998,41 Z" id="Shape"></path>
                    <path d="M46,8 C41.03715,8 37,12.0878248 37,17.1129692 C37,19.5366939 37.9290269,21.8180943 39.6165789,23.5369346 C39.7721098,23.7045236 41.4189077,25.5286333 41.7482673,27.6626564 C41.5619629,27.903513 41.447186,28.2033205 41.447186,28.5317613 C41.447186,28.8492541 41.5536457,29.1482194 41.7374549,29.3907603 C41.5536457,29.6324591 41.447186,29.9331088 41.447186,30.2497594 C41.447186,30.5226179 41.5237039,30.7828441 41.6626005,31.0051732 C41.5237039,31.2283446 41.447186,31.4877286 41.447186,31.7605871 C41.447186,32.2869346 41.7316329,32.7475938 42.153313,32.9926612 C42.0984197,33.1467757 42.0676462,33.310154 42.0676462,33.4785852 C42.0676462,34.2617902 42.6972553,34.8984601 43.4707513,34.8984601 L44.2800111,34.8984601 C44.2800111,34.9077238 44.2800111,34.914461 44.2800111,34.9228826 C44.2800111,35.3540664 44.5270308,36 46,36 C47.4729692,36 47.7191572,35.3532243 47.7191572,34.9228826 C47.7191572,34.9136189 47.7191572,34.9068816 47.7191572,34.8984601 L48.528417,34.8984601 C49.3027447,34.8984601 49.931522,34.2617902 49.931522,33.4785852 C49.931522,33.310154 49.902412,33.1459336 49.8458553,32.9935034 C50.2683671,32.7475938 50.552814,32.2869346 50.552814,31.7605871 C50.552814,31.4885707 50.4762961,31.2275024 50.3373995,31.0051732 C50.4762961,30.7820019 50.552814,30.5226179 50.552814,30.2497594 C50.552814,29.9331088 50.4463543,29.6333013 50.2625451,29.3907603 C50.4463543,29.1490616 50.552814,28.8492541 50.552814,28.5317613 C50.552814,28.2024783 50.4372054,27.903513 50.2517327,27.6626564 C50.5927363,25.4376805 52.3551428,23.5672522 52.4025506,23.5167228 C54.0784586,21.800409 55,19.5257459 55,17.1129692 C54.9991683,12.088667 50.9620183,8 46,8 Z M43.4707513,33.8541867 C43.2661492,33.8541867 43.0998059,33.6857555 43.0998059,33.4794273 C43.0998059,33.3312079 43.1871361,33.1964629 43.3218741,33.1366699 C43.5447741,33.0364533 43.6662046,32.7913859 43.6163016,32.5505294 C43.5663987,32.3096728 43.3551428,32.137873 43.1122817,32.137873 L42.8519545,32.137873 C42.6473524,32.137873 42.4810091,31.9694418 42.4810091,31.7622714 C42.4810091,31.6351059 42.5450513,31.5163619 42.6540061,31.4464629 C42.8028833,31.3504572 42.8918769,31.1837103 42.8918769,31.0060154 C42.8918769,30.8283205 42.8020516,30.6624158 42.6531744,30.56641 C42.5450513,30.4973532 42.4810091,30.3786092 42.4810091,30.2514437 C42.4810091,30.085539 42.5891322,29.9415303 42.7496535,29.8935274 C42.9700582,29.8295236 43.1214306,29.6248797 43.1214306,29.3916025 C43.1214306,29.1600096 42.9692265,28.9545236 42.7488217,28.8896776 C42.5891322,28.8425168 42.4810091,28.6993503 42.4810091,28.5334456 C42.4810091,28.3262753 42.6473524,28.1578441 42.8519545,28.1578441 L49.1513723,28.1578441 C49.3551428,28.1578441 49.5223177,28.3262753 49.5223177,28.5334456 C49.5223177,28.6993503 49.4141946,28.8425168 49.2536734,28.8896776 C49.0324369,28.9545236 48.8810646,29.1591675 48.8810646,29.3916025 C48.8810646,29.6240375 49.0332686,29.8295236 49.2528417,29.8935274 C49.4133629,29.9415303 49.5223177,30.085539 49.5223177,30.2514437 C49.5223177,30.3786092 49.4574439,30.4965111 49.3493208,30.56641 C49.2004436,30.6624158 49.1106182,30.8291627 49.1106182,31.0060154 C49.1106182,31.1845525 49.1996119,31.3504572 49.348489,31.4464629 C49.4574439,31.517204 49.5223177,31.6351059 49.5223177,31.7622714 C49.5223177,31.9694418 49.3551428,32.137873 49.1513723,32.137873 L48.8902135,32.137873 C48.6473524,32.137873 48.4360965,32.3096728 48.3861935,32.5513715 C48.3354588,32.7913859 48.4577211,33.0364533 48.680621,33.1366699 C48.8145273,33.1964629 48.9018575,33.3312079 48.9018575,33.4794273 C48.9018575,33.6857555 48.7355143,33.8541867 48.5309121,33.8541867 L43.4707513,33.8541867 L43.4707513,33.8541867 Z M50.5661214,21.6825072 C50.4604935,21.7911453 48.2664264,24.0725457 47.7283061,27.0790423 L44.2725256,27.0790423 C43.7826449,24.3100337 41.8988079,22.1768527 41.4771278,21.7279836 L41.3057943,21.892204 L41.4746327,21.724615 L41.4380371,21.686718 L41.4330469,21.6825072 C40.2370391,20.4580125 39.5791516,18.8360202 39.5791516,17.1129692 C39.5791516,13.5279115 42.4593845,10.6115255 46,10.6115255 C49.5397838,10.6115255 52.4200166,13.5279115 52.4200166,17.1129692 C52.4200166,18.8351781 51.7621292,20.4571704 50.5661214,21.6825072 Z" id="Shape"></path>
                    <path d="M48.3046473,18 C47.8585019,18 47.4552214,18.1563467 47.1525424,18.4063467 C46.8489885,18.1563467 46.445708,18 46.0004374,18 C45.5534172,18 45.1501367,18.1563467 44.8474576,18.4063467 C44.5447786,18.1563467 44.1414981,18 43.6953527,18 C42.7610716,18 42,18.6726006 42,19.5 C42,20.3273994 42.7601968,21 43.6953527,21 C44.1423729,21 44.5456534,20.8436533 44.8474576,20.5936533 C45.1510115,20.8436533 45.554292,21 46.0004374,21 C46.4465828,21 46.8498633,20.8436533 47.1525424,20.5936533 C47.4560962,20.8436533 47.8593767,21 48.3046473,21 C49.2398032,21 50,20.3266254 50,19.5 C50,18.6733746 49.2398032,18 48.3046473,18 Z M48.3046473,20.0394737 C47.9687261,20.0394737 47.69579,19.7972136 47.69579,19.499226 C47.69579,19.2012384 47.9687261,18.9597523 48.3046473,18.9597523 C48.6414434,18.9597523 48.9143794,19.2012384 48.9143794,19.499226 C48.9143794,19.7972136 48.6414434,20.0394737 48.3046473,20.0394737 Z M45.9995626,20.0394737 C45.6627665,20.0394737 45.3898305,19.7972136 45.3898305,19.499226 C45.3898305,19.2012384 45.6627665,18.9597523 45.9995626,18.9597523 C46.3354839,18.9597523 46.6092947,19.2012384 46.6092947,19.499226 C46.6092947,19.7972136 46.3354839,20.0394737 45.9995626,20.0394737 Z M43.6936031,20.0394737 C43.356807,20.0394737 43.083871,19.7972136 43.083871,19.499226 C43.083871,19.2012384 43.356807,18.9597523 43.6936031,18.9597523 C44.0303991,18.9597523 44.3033352,19.2012384 44.3033352,19.499226 C44.3033352,19.7972136 44.0303991,20.0394737 43.6936031,20.0394737 Z" id="Shape"></path>
                    <rect id="Rectangle-path" x="45" y="0" width="3" height="4"></rect>
                    <rect id="Rectangle-path" transform="translate(38.500000, 4.000000) rotate(149.994310) translate(-38.500000, -4.000000) " x="37" y="2" width="3" height="4"></rect>
                    <rect id="Rectangle-path" transform="translate(33.000000, 9.500000) rotate(30.000728) translate(-33.000000, -9.500000) " x="31" y="8" width="4" height="3"></rect>
                    <rect id="Rectangle-path" x="29" y="15" width="4" height="3"></rect>
                    <rect id="Rectangle-path" x="58" y="15" width="4" height="3"></rect>
                    <rect id="Rectangle-path" transform="translate(58.000000, 9.500000) rotate(-29.992901) translate(-58.000000, -9.500000) " x="56" y="8" width="4" height="3"></rect>
                    <rect id="Rectangle-path" transform="translate(53.500000, 4.000000) rotate(-149.994310) translate(-53.500000, -4.000000) " x="52" y="2" width="3" height="4"></rect>
                </g>
            </g>
        </g>
    </g>
</svg>