<svg xmlns="http://www.w3.org/2000/svg" xmlns:xlink="http://www.w3.org/1999/xlink" width="469px" height="289px" viewBox="0 0 469 289" version="1.1">
    <!-- Generator: Sketch 46.2 (44496) - http://www.bohemiancoding.com/sketch -->
    <title>Product-Design-graphics</title>
    <desc>Created with Sketch.</desc>
    <defs>
        <linearGradient x1="58.4233128%" y1="-35.8159622%" x2="65.2244905%" y2="100%" id="linearGradient-1">
            <stop stop-color="#CCCCCC" offset="0%"/>
            <stop stop-color="#FEFEFE" offset="100%"/>
        </linearGradient>
        <linearGradient x1="58.4233128%" y1="-35.8159622%" x2="65.2244905%" y2="100%" id="linearGradient-2">
            <stop stop-color="#B8B8B8" offset="0%"/>
            <stop stop-color="#FEFEFE" offset="100%"/>
        </linearGradient>
    </defs>
    <g id="UX/UI" stroke="none" stroke-width="1" fill="none" fill-rule="evenodd">
        <g id="[Services]-UX-UI-Designs-Copy-5" transform="translate(-938.000000, -3255.000000)">
            <g id="4th-section" transform="translate(0.000000, 3034.000000)">
                <g id="Product-Design-graphics" transform="translate(618.000000, 221.000000)">
                    <g id="Notebook" transform="translate(396.000000, 0.000000)" fill-rule="nonzero">
                        <g id="Group">
                            <path d="M372.486697,265.106587 C372.486697,276.580838 363.247248,285.828743 351.783486,285.828743 L20.703211,285.828743 C9.23944954,285.914371 0,276.580838 0,265.106587 L0,45.211976 C0,33.7377246 9.23944954,24.4898204 20.703211,24.4898204 L351.783486,24.4898204 C363.247248,24.4898204 372.486697,33.7377246 372.486697,45.211976 L372.486697,265.106587 Z" id="Shape" fill="#202020"/>
                            <rect id="Rectangle-path" fill="#FAFAFA" x="22.8419725" y="10.3610778" width="323.209633" height="255.944311"/>
                            <rect id="Rectangle-path" fill="#F2F2F2" x="183.847936" y="10.3610778" width="162.118119" height="255.944311"/>
                            <polygon id="Shape" fill="#FFBB41" points="316.622248 78.9497006 293.780275 68.5886228 273.077064 78.9497006 273.077064 0.513772455 316.622248 0.513772455"/>
                        </g>
                    </g>
                    <g id="Logo" transform="translate(506.000000, 90.000000)" fill-rule="nonzero">
                        <path d="M0.0057048877,43.9175335 C0.0057048877,43.7487497 0.0703602816,43.579966 0.19967107,43.4524405 L38.0547861,6.11995842 C38.0718031,6.09822752 38.0903915,6.0773431 38.1105515,6.05746149 L44.0588477,0.191288258 C44.3174693,-0.0637627526 44.7434342,-0.0637627526 45.0020558,0.191288258 L74.4620959,29.2445989 L103.914529,0.198789758 C104.173151,-0.0562612523 104.599116,-0.0562612523 104.857738,0.198789758 L110.806034,6.06496299 C111.064655,6.320014 111.064655,6.74009802 110.806034,6.99514903 L74.9337,42.3797259 C74.6674719,42.634777 74.2491134,42.634777 73.9828853,42.3797259 L68.0345891,36.5135527 C68.0059529,36.4853119 67.9804875,36.4550477 67.9581928,36.4232082 L44.534255,13.3226645 L13.5110757,43.9175335 L37.9432081,68.0123525 C38.2018297,68.2674035 38.2018297,68.6874875 37.9432081,68.9425385 L31.9949119,74.8087117 C31.7362903,75.0637628 31.3103253,75.0637628 31.0517038,74.8087117 L0.19967107,44.3826265 C0.0665570232,44.255101 1.21430643e-15,44.0863173 1.10440527e-29,43.9175335 Z" id="Combined-Shape" stroke="#FFBB41" stroke-width="2"/>
                        <path d="M105.476016,75.6735847 L136.494861,45.0824665 L112.063147,20.9876475 C111.80453,20.7325965 111.80453,20.3125125 112.063147,20.0574615 L118.011341,14.1912883 C118.269958,13.9362372 118.695916,13.9362372 118.954533,14.1912883 L149.806037,44.6173735 C149.935346,44.744899 150,44.9118074 150,45.0796534 C150,45.2512503 149.935346,45.420034 149.806037,45.5475595 L108.917906,85.8718744 L105.940005,88.8087117 C105.681388,89.0637628 105.255431,89.0637628 104.996814,88.8087117 L75.5435235,59.7492418 L46.0853491,88.8012102 C45.826732,89.0562613 45.4007743,89.0562613 45.1421572,88.8012102 L39.1939629,82.935037 C38.9353457,82.679986 38.9353457,82.259902 39.1939629,82.004851 L75.0732886,46.6202741 C75.3319057,46.365223 75.7578634,46.365223 76.0164805,46.6202741 L78.9905777,49.5533607 L105.476016,75.6735847 Z" id="Combined-Shape" stroke="#202020"/>
                    </g>
                    <g id="Pen" transform="translate(360.000000, 157.000000) rotate(-315.000000) translate(-360.000000, -157.000000) translate(266.000000, 64.000000)" fill-rule="nonzero">
                        <path d="M153.429389,131.166582 C152.963039,126.28272 150.631285,121.863987 146.667304,119.073209 L116.354507,97.2121121 C116.121331,96.9795472 115.888156,96.5144175 115.65498,96.2818527 L23.084361,3.95360265 C20.519432,1.39538917 17.2549769,0 13.5241711,0 C10.0265406,0 6.52891019,1.39538917 3.96398119,3.95360265 C1.39905218,6.51181612 0,9.76772418 0,13.488762 C0,16.9772349 1.39905218,20.4657078 3.96398119,23.0239213 L95.3687238,114.189347 C95.6018992,114.421912 95.6018992,114.887042 95.8350745,115.119606 L118.919436,146.748428 C121.950715,150.934595 127.080573,153.492809 132.443607,153.492809 C137.80664,153.492809 142.936498,151.16716 146.900479,147.213557 C151.797162,142.56226 153.89574,136.980703 153.429389,131.166582 Z M8.3943131,13.488762 C8.3943131,12.0933728 8.86066383,10.6979836 10.0265406,9.76772418 C10.9592421,8.83746474 12.3582943,8.13977015 13.7573465,8.13977015 C15.1563987,8.13977015 16.5554508,8.60489988 17.4881523,9.76772418 L107.260667,99.3051959 L99.7990557,106.747271 L10.0265406,17.2097998 C9.09383919,16.0469754 8.3943131,14.8841511 8.3943131,13.488762 Z M141.537446,141.399436 C138.972517,143.957649 135.941237,145.353038 132.676782,145.353038 C129.878678,145.353038 127.080573,144.190214 125.681521,141.864566 L104.695738,113.026523 L113.090051,104.654188 L142.003797,125.585025 C144.102375,126.980414 145.268252,129.306063 145.501427,131.864276 C145.734602,135.120185 144.33555,138.608657 141.537446,141.399436 Z" id="Shape" fill="#FFBB41"/>
                        <path d="M185.357746,178.130827 C180.503041,174.906045 177.266571,165.46204 175.648336,160.394525 C175.41716,159.7035 175.185983,158.782134 174.954807,158.321451 C172.411866,150.720178 167.094809,146.113347 161.084222,146.113347 C157.385399,146.113347 153.686577,147.956079 149.987754,151.411203 C146.98246,154.405644 145.595402,158.321451 146.288931,162.467599 C147.444813,170.299213 155.535988,176.748778 161.777751,179.97356 C169.637749,183.889367 182.121276,185.7321 182.583629,185.962441 C182.814805,185.962441 183.045982,185.962441 183.277158,185.962441 C183.277158,185.962441 183.277158,185.962441 183.508334,185.962441 C185.588922,185.962441 187.438334,184.119708 187.438334,182.046634 C187.438334,180.203902 186.513628,178.821852 185.357746,178.130827 Z M165.476574,172.602629 C159.697163,169.608189 154.842459,164.771015 154.380106,161.08555 C154.148929,159.473159 154.611282,158.321451 155.767164,157.169743 C157.616576,155.32701 159.465987,154.175302 161.084222,154.175302 C163.395986,154.175302 165.938927,156.939401 167.325985,161.08555 C167.557162,161.776575 167.788338,162.237258 168.019514,163.158624 C169.175397,166.613748 170.562455,171.22058 172.874219,175.59707 C170.331279,174.675703 167.557162,173.754337 165.476574,172.602629 Z" id="Shape" fill="#202020"/>
                        <path d="M90.9835332,89.8000225 L82.9312877,81.7246734 C82.1992653,80.9905508 80.9792281,80.9905508 80.2472058,81.7246734 C79.5151835,82.4587961 79.5151835,83.6823338 80.2472058,84.4164565 L88.2994514,92.4918055 C88.5434588,92.736513 89.0314737,92.9812206 89.5194886,92.9812206 C90.0075035,92.9812206 90.4955183,92.736513 90.7395258,92.4918055 C91.7155556,91.7576829 91.7155556,90.5341451 90.9835332,89.8000225 Z" id="Shape" fill="#202020"/>
                        <path d="M39.9562823,37.4124412 C39.2636847,36.7255993 38.1093555,36.7255993 37.4167579,37.4124412 C36.7241604,38.0992831 36.7241604,39.2440195 37.4167579,39.9308614 L54.7316966,57.1019086 C54.9625624,57.3308559 55.4242941,57.5598032 55.8860258,57.5598032 C56.3477575,57.5598032 56.8094892,57.3308559 57.0403551,57.1019086 C57.7329526,56.4150667 57.7329526,55.2703303 57.0403551,54.5834884 L39.9562823,37.4124412 Z" id="Shape" fill="#202020"/>
                        <path d="M63.5201379,62.4930629 C62.8389568,61.8189529 61.7036549,61.8189529 61.0224738,62.4930629 C60.3412927,63.1671729 60.3412927,64.2906896 61.0224738,64.9647996 L73.9649148,77.77289 C74.1919752,77.9975933 74.6460959,78.2222967 75.1002166,78.2222967 C75.5543374,78.2222967 76.0084581,77.9975933 76.2355185,77.77289 C76.9166996,77.09878 76.9166996,75.9752633 76.2355185,75.3011533 L63.5201379,62.4930629 Z" id="Shape" fill="#202020"/>
                    </g>
                </g>
            </g>
        </g>
    </g>
</svg>