<?xml version="1.0" encoding="UTF-8"?>
<svg width="64px" height="53px" viewBox="0 0 64 53" version="1.1" xmlns="http://www.w3.org/2000/svg" xmlns:xlink="http://www.w3.org/1999/xlink">
    <!-- Generator: Sketch 45.2 (43514) - http://www.bohemiancoding.com/sketch -->
    <title>Virtual-Assistant-icon</title>
    <desc>Created with Sketch.</desc>
    <defs></defs>
    <g id="Page-1" stroke="none" stroke-width="1" fill="none" fill-rule="evenodd">
        <g id="[Services]-Human-Resource" transform="translate(-1238.000000, -455.000000)" fill-rule="nonzero" fill="#FFBB41">
            <g id="Group" transform="translate(224.000000, 421.000000)">
                <g id="Virtual-Assistant-icon" transform="translate(1014.000000, 34.000000)">
                    <g id="Group">
                        <path d="M60.9459034,13.8435778 L61,11.9991413 L60.9459034,10.1555635 L57.7533453,9.20758497 C57.5987835,8.71041145 57.398712,8.23470483 57.1677281,7.77703041 L58.751127,4.85753131 L57.4854383,3.51542039 L56.1424687,2.24973166 L53.3062612,3.78676208 C52.8142397,3.52057245 52.2955993,3.29817531 51.7554919,3.12472272 L50.8435778,0.0540966011 L49,0 L47.1564222,0.0540966011 L46.2445081,3.12472272 C45.7044007,3.29731664 45.186619,3.52057245 44.6937388,3.78676208 L41.8575313,2.24973166 L40.5145617,3.51542039 L39.2497317,4.85753131 L40.8322719,7.77703041 C40.601288,8.23470483 40.4012165,8.71041145 40.2466547,9.20758497 L37.0540966,10.1555635 L37,11.9991413 L37.0540966,13.8435778 L40.2466547,14.7915564 C40.4012165,15.2895886 40.601288,15.7652952 40.8322719,16.2229696 L39.2497317,19.1424687 L40.5145617,20.4845796 L41.8575313,21.7502683 L44.6937388,20.2132379 C45.1857603,20.4794275 45.7044007,20.7018247 46.2445081,20.8752773 L47.1564222,23.9450447 L49,24 L50.8435778,23.9450447 L51.7554919,20.8752773 C52.2955993,20.7026834 52.813381,20.4794275 53.3062612,20.2132379 L56.1424687,21.7502683 L57.4854383,20.4845796 L58.751127,19.1424687 L57.1677281,16.2229696 C57.398712,15.7652952 57.5987835,15.2895886 57.7533453,14.7915564 L60.9459034,13.8435778 Z M49,17.0773524 C46.2342039,17.0773524 43.9922004,14.8044365 43.9922004,11.9991413 C43.9922004,9.19470483 46.2342039,6.92178891 49,6.92178891 C51.7657961,6.92178891 54.0077996,9.19470483 54.0077996,11.9991413 C54.0077996,14.8035778 51.7657961,17.0773524 49,17.0773524 Z" id="Shape"></path>
                        <path d="M41.1288962,37.4278487 L41.0507884,37.4114698 C41.0190303,37.4071595 37.8329205,37.0114789 35.5883954,36.4709739 C34.9995831,36.3287357 34.3438213,36.1701186 33.7181009,35.9865021 L31.534517,32.4529616 L31.0495623,32.7598512 L31.0495623,30.9443751 C31.6048998,30.3676641 32.214312,29.6650938 32.6426172,28.9254554 C33.114697,28.1099567 33.248596,27.1884259 33.3395787,26.0177628 C34.3215048,25.6393231 35.2390563,24.3255598 35.2055816,22.6402532 C35.1918483,21.9876818 35.1626652,20.5687484 33.978174,20.2273769 C33.978174,19.7023888 33.978174,18.728273 33.978174,16.9619337 C33.978174,13.7033869 31.0083626,11 26.5012875,11 C21.9942124,11 19.024401,13.704249 19.024401,16.9619337 C19.024401,18.729135 19.024401,19.7032508 19.024401,20.2282389 C17.8407681,20.5696105 17.811585,21.9885438 17.7978517,22.6411152 C17.764377,24.3264218 18.6819285,25.6393231 19.6629963,26.0186248 C19.7548373,27.1892879 19.8895946,28.1108187 20.3608161,28.9254554 C20.7891213,29.6650938 21.3985335,30.3685261 21.9547294,30.9452372 L21.9547294,32.7607132 L21.4697746,32.4538236 L19.2870491,35.9865021 C18.6613287,36.1718427 18.0047085,36.3295978 17.4158962,36.4709739 C15.1713711,37.0123409 11.9852613,37.4080216 11.9526449,37.4123318 L11.8745371,37.4287108 C11.7706795,37.4571584 10.0154008,37.9873188 9,40.0605476 C9.23861491,40.3907126 9.48495475,40.7148431 9.74245285,41.0294912 C10.448856,39.1002246 11.8882703,38.548513 12.1294602,38.4683424 C12.5526154,38.4148953 15.4846605,38.0373177 17.6630944,37.5123296 C18.2802315,37.363195 18.9162518,37.2097502 19.5265223,37.0330301 L20.284425,37.606293 L22.1778944,48.5663891 C22.5461167,48.6413874 22.9169139,48.7060412 23.2920028,48.7620744 L21.5281409,38.5467889 L24.3271452,40.6648443 L25.0841896,38.9752274 L25.9708414,40.3269209 L24.4696275,48.9025884 C25.1391225,48.964656 25.8154842,49 26.5004292,49 C27.2334404,49 27.9561518,48.9629319 28.6694215,48.8913818 L26.8677931,40.311404 L27.8171028,38.7519566 L28.6728548,40.6648443 L31.4727175,38.5459268 L29.7088555,48.7612123 C30.0839444,48.7060412 30.4547416,48.6405254 30.8229639,48.5655271 L32.715575,37.6054309 L33.4734777,37.031306 C34.0837482,37.2080261 34.7197685,37.362333 35.3369056,37.5106055 C37.5144812,38.0347315 40.4448096,38.4140333 40.8696814,38.4666183 C41.1185963,38.5502371 42.5528607,39.1036728 43.2575471,41.0286291 C43.5150452,40.713119 43.7605268,40.3889885 44,40.0588235 C42.9888908,37.9864568 41.2336121,37.4562964 41.1288962,37.4278487 Z M26.5030041,35.6399583 L23.0207715,33.4348359 L23.0207715,31.989179 C24.1383133,33.035707 25.0678814,33.4175949 26.5030041,33.4175949 C27.9372686,33.4175949 28.8659784,33.036569 29.9843784,31.989179 L29.9843784,33.4348359 L26.5030041,35.6399583 Z M20.3427913,36.3089086 L21.8105304,33.9331004 L25.2129387,36.0864999 L23.906565,39.0053992 L20.3427913,36.3089086 Z M20.6655222,25.0927837 L20.2063173,25.0591638 C19.6475464,25.0177854 18.8381441,23.9945328 18.8656105,22.6635285 C18.8939353,21.2230439 19.2372661,21.2230439 19.5986218,21.2230439 C19.7273708,21.2230439 19.8810114,21.2385608 20.0569684,21.2678705 L20.1222012,21.2790772 C20.4869902,21.694585 20.6672389,22.3480184 20.6672389,23.14369 C20.6672389,24.5195209 20.9951198,24.8108936 20.9951198,24.8108936 C20.9951198,24.8108936 21.061211,22.8178353 21.061211,20.6885733 C21.061211,18.5575872 21.061211,18.5575872 21.061211,17.5869195 C21.061211,16.6162519 22.3864679,14.8835326 23.9494813,15.5766203 C25.5124948,16.269708 26.5030041,16.0610921 26.5030041,16.0610921 C26.5030041,16.0610921 27.4926552,16.268846 29.056527,15.5766203 C30.6195404,14.8826705 31.9456556,16.6162519 31.9456556,17.5869195 C31.9456556,18.5575872 31.9456556,18.5575872 31.9456556,20.6877113 C31.9456556,22.8186974 32.0117468,24.8100315 32.0117468,24.8100315 C32.0117468,24.8100315 32.3396277,24.5186588 32.3396277,23.14369 C32.3387694,22.3471564 32.5198764,21.694585 32.8846654,21.2790772 L32.9490399,21.2678705 C33.1249969,21.2376988 33.2794958,21.2221819 33.4073865,21.2221819 C33.7704588,21.2221819 34.1129313,21.2221819 34.1421144,22.6626665 C34.1687226,24.0428076 33.3524536,25.0177854 32.8005493,25.0583018 L32.3404861,25.0919217 L32.308728,25.5539802 C32.219462,26.8074 32.1327709,27.6823802 31.7233489,28.3875366 C31.1362533,29.4030308 30.1036859,30.3969738 29.4882654,30.9917878 L29.3646664,31.1107507 C28.277166,32.1624509 27.5759129,32.3486536 26.5038625,32.3486536 C25.4309537,32.3486536 24.7297006,32.163313 23.6430586,31.1116127 L23.5203178,30.9935119 C22.9031807,30.3986979 21.8706133,29.4021687 21.2835177,28.3883986 C20.874954,27.6832422 20.7874047,26.8082621 20.6981387,25.5548422 L20.6655222,25.0927837 Z M27.7939279,36.0864999 L31.1954778,33.9322384 L32.6640753,36.3080466 L29.1020183,39.0045371 L27.7939279,36.0864999 Z M26.3648135,36.9002745 L26.0128994,36.9063088 L26.5030041,35.810644 L26.9853839,36.8899299 L26.3648135,36.9002745 Z" id="Shape"></path>
                        <path d="M26.3748627,50.3551584 C13.2833184,50.3551584 2.63307377,39.6538666 2.63222522,26.4995737 C2.63222522,20.1381413 5.10407308,14.1510111 9.59379056,9.63977413 C14.083508,5.12853719 20.0420785,2.643989 26.3731656,2.643989 C29.5722272,2.643989 32.678796,3.27493123 35.6037736,4.52061582 L36.6305281,2.08637248 C33.3788559,0.701710075 29.9269242,0 26.3731656,0 C19.3386243,0 12.7190277,2.75994595 7.73205551,7.77082093 C2.74593192,12.7816959 0,19.4330207 0,26.5004263 C0.000848557452,41.1127073 11.8322851,53 26.3748627,53 C37.2083957,52.9991474 47.1051213,46.1619504 51,35.9875806 L48.5434262,35.0377568 C45.0371868,44.1983559 36.1281821,50.3543058 26.3748627,50.3551584 Z" id="Shape"></path>
                        <path d="M62.1622178,27.8506174 L63.2205179,26.410968 L62.6447543,25.6022441 L62.0223772,24.8297703 L60.3978088,25.4399814 C60.1552457,25.262183 59.8962815,25.1050989 59.6209163,24.9739078 L59.3602258,23.2710131 L58.3813413,23.1070243 L57.3946879,23 L56.6833997,24.5691143 C56.3821381,24.6209003 56.0903718,24.7011685 55.8081009,24.8073297 L54.4105578,23.7802417 L53.6017264,24.3559288 L52.8282869,24.9782233 L53.4575697,26.6500465 C53.3004648,26.8770416 53.1588977,27.11612 53.0406375,27.3698712 L51.2701859,27.6400212 L51.1061753,28.6187757 L51,29.6052981 L52.6314741,30.344111 C52.6772244,30.6203027 52.7488712,30.8887266 52.8377822,31.1502457 L51.7803453,32.589032 L52.3552457,33.3977559 L52.9784861,34.1710928 L54.6021912,33.5600186 C54.8447543,33.737817 55.1045817,33.8949011 55.3799469,34.0269553 L55.6397742,35.7289869 L56.6186587,35.8938388 L57.6061753,36 L58.3166003,34.4317488 C58.6178619,34.3790997 58.9104914,34.2988315 59.1918991,34.1935334 L60.5903054,35.2197583 L61.3991368,34.6449343 L62.1717131,34.0217767 L61.5424303,32.3499535 C61.6995352,32.1229584 61.8411023,31.8847431 61.9593625,31.6309919 L63.7298141,31.3599788 L63.8938247,30.3820874 L64,29.3947019 L62.3693891,28.655889 C62.3236388,28.3788342 62.2511288,28.1112734 62.1622178,27.8506174 Z M60.1681939,29.8676803 C59.9618858,31.361705 58.6005976,32.4077812 57.1270916,32.2049529 C55.6544489,32.0021246 54.6272244,30.6263444 54.8326693,29.1323197 C55.0381142,27.638295 56.3994024,26.5922188 57.8729084,26.7950471 C59.3464143,26.9978754 60.3736388,28.3745187 60.1681939,29.8676803 Z" id="Shape"></path>
                    </g>
                </g>
            </g>
        </g>
    </g>
</svg>