<?xml version="1.0" encoding="UTF-8"?>
<svg width="742px" height="490px" viewBox="0 0 742 490" version="1.1" xmlns="http://www.w3.org/2000/svg" xmlns:xlink="http://www.w3.org/1999/xlink">
    <!-- Generator: Sketch 46.2 (44496) - http://www.bohemiancoding.com/sketch -->
    <title>App-Design-Graphics</title>
    <desc>Created with Sketch.</desc>
    <defs>
        <linearGradient x1="58.4233128%" y1="-35.8159622%" x2="65.2244905%" y2="100%" id="linearGradient-1">
            <stop stop-color="#B8B8B8" offset="0%"></stop>
            <stop stop-color="#FEFEFE" offset="100%"></stop>
        </linearGradient>
        <linearGradient x1="58.4233128%" y1="-35.8159622%" x2="65.2244905%" y2="100%" id="linearGradient-2">
            <stop stop-color="#CCCCCC" offset="0%"></stop>
            <stop stop-color="#FEFEFE" offset="100%"></stop>
        </linearGradient>
    </defs>
    <g id="UX/UI" stroke="none" stroke-width="1" fill="none" fill-rule="evenodd">
        <g id="[Services]-UX-UI-Designs-Copy-5" transform="translate(-618.000000, -1723.000000)">
            <g id="2nd-sction" transform="translate(0.000000, 1551.000000)">
                <g id="App-Design-Graphics" transform="translate(618.000000, 172.000000)">
                    <polygon id="Rectangle-3" fill="url(#linearGradient-1)" opacity="0.100000001" transform="translate(506.500000, 377.000000) scale(-1, 1) translate(-506.500000, -377.000000) " points="279 292 574 292 734 462 439 462"></polygon>
                    <polygon id="Rectangle-3-Copy-3" fill="url(#linearGradient-1)" opacity="0.200000003" transform="translate(388.500000, 405.000000) scale(-1, 1) translate(-388.500000, -405.000000) " points="225 320 392 320 552 490 385 490"></polygon>
                    <polygon id="Rectangle-3-Copy" fill="url(#linearGradient-2)" opacity="0.300000012" transform="translate(198.000000, 246.000000) scale(-1, 1) translate(-198.000000, -246.000000) " points="1 312 0 10 396 422 161 482"></polygon>
                    <g id="Ipad" transform="translate(419.000000, 44.000000)">
                        <g id="Group-2">
                            <rect id="Rectangle" fill="#4A4A4A" x="0" y="0" width="323" height="248" rx="21"></rect>
                            <rect id="Rectangle-path" fill="#FFFFFF" fill-rule="nonzero" x="26" y="24" width="266" height="199"></rect>
                            <rect id="Rectangle-6" fill="#F2F2F2" x="107" y="135" width="127" height="10" rx="5"></rect>
                            <rect id="Rectangle-6-Copy" fill="#F2F2F2" x="107" y="155" width="127" height="10" rx="5"></rect>
                            <rect id="Rectangle-6-Copy-2" fill="#F2F2F2" x="107" y="175" width="127" height="10" rx="5"></rect>
                            <rect id="Rectangle-5-Copy" fill="#F2F2F2" x="126" y="43" width="148" height="77"></rect>
                            <g id="Group-22" transform="translate(103.000000, 74.000000)" fill="#FFBB41">
                                <circle id="Oval-5" cx="26" cy="26" r="26"></circle>
                            </g>
                            <circle id="Oval" fill="#FFFFFF" fill-rule="nonzero" opacity="0.3" cx="308" cy="125" r="7"></circle>
                        </g>
                    </g>
                    <g id="Iphone" transform="translate(386.000000, 0.000000)">
                        <g id="Phone">
                            <rect id="Rectangle-4" fill="#202020" x="0" y="0" width="166" height="336" rx="27"></rect>
                            <circle id="Oval" fill="#FFFFFF" fill-rule="nonzero" opacity="0.538722826" cx="84.5" cy="312.5" r="13.5"></circle>
                            <rect id="Rectangle-5" fill="#FFFFFF" x="9" y="37" width="148" height="255"></rect>
                        </g>
                        <rect id="Rectangle-5-Copy" fill="#F2F2F2" x="9" y="37" width="148" height="77"></rect>
                        <g id="Group-22" transform="translate(57.000000, 88.000000)">
                            <circle id="Oval-5" fill="#FFBB41" cx="26" cy="26" r="26"></circle>
                            <g id="Group" transform="translate(15.000000, 11.000000)" fill-rule="nonzero" fill="#FFFFFF">
                                <path d="M21.5308057,27 L0.521327014,27 C0.417061611,27 0.260663507,26.9478779 0.156398104,26.8436336 C0.0521327014,26.7393894 0,26.6351451 0,26.4787787 C0,26.2181681 0.0521327014,20.4847338 1.30331754,18.0871158 C2.55450237,15.5852536 7.4028436,14.0737118 7.55924171,14.0215897 C7.66350711,13.9694676 7.81990521,14.0215897 7.92417062,14.0737118 C8.02843602,14.125834 8.13270142,14.2300782 8.18483412,14.3343225 L11,23.6641837 L13.8151659,14.3343225 C13.8672986,14.2300782 13.9194313,14.125834 14.0758294,14.0737118 C14.1800948,14.0215897 14.3364929,14.0215897 14.4407583,14.0215897 C14.6492891,14.0737118 19.4454976,15.5852536 20.6966825,18.0871158 C21.8957346,20.4847338 22,26.2702902 22,26.4787787 C22,26.583023 21.9478673,26.7393894 21.8436019,26.8436336 C21.7914692,26.9478779 21.6350711,27 21.5308057,27 Z M0.990521327,26.0096795 L21.0094787,26.0096795 C20.957346,24.5502599 20.7488152,20.3283674 19.8625592,18.5040929 C19.0805687,16.8883068 16.1611374,15.6373757 14.5971564,15.0640323 L11.4691943,25.4363361 C11.4170616,25.6448246 11.2085308,25.801191 11,25.801191 C10.7914692,25.801191 10.5829384,25.6448246 10.5308057,25.4363361 L7.4028436,15.0640323 C6.20379147,15.4810093 3.02369668,16.7319404 2.13744076,18.5040929 C1.25118483,20.3804895 1.04265403,24.602382 0.990521327,26.0096795 Z" id="Shape"></path>
                                <path d="M11.0373027,26 C10.830703,26 10.6241033,25.8414097 10.5724534,25.6299559 L9.02295552,20.3964758 C9.02295552,20.2907489 8.9713056,20.2378855 9.02295552,20.1321586 L10.0559541,15.9559471 L9.12625538,14.7929515 C9.02295552,14.6343612 8.9713056,14.4229075 9.07460545,14.2643172 C9.17790531,14.1057269 9.33285509,14 9.48780488,14 L12.4835007,14 C12.6901004,14 12.8450502,14.1057269 12.8967001,14.2643172 C13,14.4229075 12.9483501,14.6343612 12.8450502,14.7929515 L11.9153515,15.9559471 L13,20.1321586 C13,20.2378855 13,20.2907489 13,20.3964758 L11.4505022,25.6299559 C11.4505022,25.8414097 11.2439024,26 11.0373027,26 Z M10.0043042,20.2907489 L11.0373027,23.8325991 L12.0703013,20.2907489 L11.0373027,16.1145374 L10.0043042,20.2907489 Z M10.5724534,14.9515419 L11.0373027,15.5330396 C11.0373027,15.5330396 11.0889527,15.5859031 11.0889527,15.6387665 C11.0889527,15.5859031 11.1406026,15.5859031 11.1406026,15.5330396 L11.6054519,14.9515419 L10.5724534,14.9515419 Z" id="Shape"></path>
                                <g transform="translate(5.000000, 0.000000)" id="Shape">
                                    <path d="M6.05,13.5851852 L5.05,13.5851852 C2.45,13.5851852 0.3,11.3555556 0.3,8.65925926 L0.3,5.34074074 C0.3,2.64444444 2.45,0.414814815 5.05,0.414814815 L6.05,0.414814815 C8.65,0.414814815 10.8,2.64444444 10.8,5.34074074 L10.8,8.65925926 C10.8,11.4074074 8.7,13.5851852 6.05,13.5851852 Z M5.05,1.4 C2.95,1.4 1.25,3.16296296 1.25,5.34074074 L1.25,8.65925926 C1.25,10.837037 2.95,12.6 5.05,12.6 L6.05,12.6 C8.15,12.6 9.85,10.837037 9.85,8.65925926 L9.85,5.34074074 C9.85,3.16296296 8.15,1.4 6.05,1.4 L5.05,1.4 Z"></path>
                                </g>
                            </g>
                        </g>
                        <rect id="Rectangle-6" fill="#F2F2F2" x="20" y="149" width="127" height="10" rx="5"></rect>
                        <rect id="Rectangle-6-Copy" fill="#F2F2F2" x="20" y="169" width="127" height="10" rx="5"></rect>
                        <rect id="Rectangle-6-Copy-2" fill="#F2F2F2" x="20" y="189" width="127" height="10" rx="5"></rect>
                    </g>
                </g>
            </g>
        </g>
    </g>
</svg>