<?xml version="1.0" encoding="UTF-8" standalone="no"?>
<!DOCTYPE svg PUBLIC "-//W3C//DTD SVG 1.1//EN" "http://www.w3.org/Graphics/SVG/1.1/DTD/svg11.dtd">
<svg xmlns="http://www.w3.org/2000/svg" xmlns:xlink="http://www.w3.org/1999/xlink" version="1.1" preserveAspectRatio="xMidYMid meet" viewBox="0 0 797 565" width="797" height="565"><defs><path d="M407 250L567 420L162 420L2 250L407 250Z" id="d2H6GkZKvf"/><linearGradient id="gradientb1HKaF0jjO" gradientUnits="userSpaceOnUse" x1="332.09" y1="189.11" x2="370.52" y2="420"><stop style="stop-color: #b8b8b8;stop-opacity: 1" offset="0%"/><stop style="stop-color: #fefefe;stop-opacity: 1" offset="100%"/></linearGradient><path d="M402 8L798 420L563 420L403 250L402 8Z" id="aGuSgNufw"/><linearGradient id="gradientbsIJgbI3X" gradientUnits="userSpaceOnUse" x1="633.36" y1="-139.56" x2="660.29" y2="420"><stop style="stop-color: #cccccc;stop-opacity: 1" offset="0%"/><stop style="stop-color: #fefefe;stop-opacity: 1" offset="100%"/></linearGradient><path d="M266 311L532 566L397 566L142 312L266 311Z" id="c1FfDgHC4j"/><linearGradient id="gradienta3P2DEHFhX" gradientUnits="userSpaceOnUse" x1="370.08" y1="222.65" x2="396.38" y2="566"><stop style="stop-color: #c3c3c3;stop-opacity: 1" offset="0%"/><stop style="stop-color: #fefefe;stop-opacity: 1" offset="100%"/></linearGradient><path d="M398.4 1C359.42 1 47.58 1 8.6 1C4.4 1 1 4.42 1 8.64C1 31.91 1 218.09 1 241.36C1 245.58 4.4 249 8.6 249C47.58 249 359.42 249 398.39 249C402.59 249 406 245.58 406 241.36C406 225.85 406 148.27 406 8.64L406 8.64C403.73 3.55 401.2 1 398.4 1Z" id="ccUkxUU3F"/><path d="M254.52 292.21C249.79 286.58 249.79 249 249.79 249C240.93 249 170.07 249 161.21 249C161.21 249 161.21 286.57 156.48 292.21C151.75 297.85 143.22 304.43 140.38 306.3C137.54 308.18 138.49 311 148.9 311C154.73 311 256.27 311 262.1 311C272.51 311 273.46 308.18 270.62 306.3C267.78 304.42 259.26 297.85 254.52 292.21Z" id="ccpUK9y5A"/><path d="M386 22C386 22 386 22 386 22C386 145 386 213.33 386 227C386 227 386 227 386 227C167.6 227 46.27 227 22 227C22 227 22 227 22 227C22 104 22 35.67 22 22C22 22 22 22 22 22C240.4 22 361.73 22 386 22Z" id="a1OaULyEyE"/><path d="M205.5 234C203.01 234 201 236.01 201 238.5C201 240.99 203.01 243 205.5 243C207.99 243 210 240.99 210 238.5C210 236.01 207.99 234 205.5 234Z" id="b1A8Hg2Bl"/><path d="M170 293L241 293" id="b13okrDYYJ"/><path d="M191 74L191 137L42 137L42 74L191 74Z" id="b2vJ9BM94r"/><path d="M365 42L365 63L42 63L42 42L365 42Z" id="a2maQI35Pc"/><path d="M365 148L365 169L42 169L42 148L365 148Z" id="b8gdTW92sb"/><path d="M365 179L365 200L42 200L42 179L365 179Z" id="h1w0Q0Jflk"/><path d="M364 74L364 137L215 137L215 74L364 74Z" id="b2IlLU8Lrp"/><path d="M206.5 27C153.76 27 111 69.76 111 122.5C111 175.24 153.76 218 206.5 218C259.24 218 302 175.24 302 122.5C302 69.76 259.24 27 206.5 27Z" id="a1sVsOfREY"/><path d="M206.5 63C190.76 63 178 75.76 178 91.5C178 107.24 190.76 120 206.5 120C222.24 120 235 107.24 235 91.5C235 75.76 222.24 63 206.5 63Z" id="a4xP3Z0G3W"/><path d="M197.19 98.53C197 98.32 197 98.07 197.19 97.87C197.82 97.2 202.86 91.85 203.49 91.18C203.68 90.98 203.92 90.98 204.11 91.18C204.3 91.39 204.3 91.64 204.11 91.84C203.48 92.51 198.44 97.86 197.81 98.53C197.76 98.63 197.67 98.68 197.52 98.68C197.43 98.68 197.29 98.63 197.19 98.53Z" id="dqL5UeE4x"/><path d="M199.67 101.11C199.48 100.91 199.48 100.65 199.67 100.45C200.32 99.76 205.51 94.25 206.16 93.56C206.35 93.36 206.59 93.36 206.78 93.56C206.97 93.77 206.97 94.02 206.78 94.22C206.13 94.91 200.94 100.42 200.29 101.11C200.2 101.21 200.1 101.26 200 101.26C199.91 101.26 199.77 101.21 199.67 101.11Z" id="c4zDNae9z"/><path d="M202.24 78.01L202.33 78.01L202.42 78.02L202.51 78.04L202.6 78.05L202.69 78.07L202.78 78.09L202.87 78.11L202.96 78.14L203.04 78.17L203.13 78.2L203.21 78.24L203.3 78.27L203.38 78.31L203.46 78.35L203.54 78.4L203.62 78.45L203.7 78.5L203.78 78.55L203.85 78.6L203.93 78.66L204 78.72L204.07 78.79L204.15 78.85L204.22 78.92L204.29 78.99L207.33 82.15L207.4 82.22L207.47 82.29L207.53 82.36L207.59 82.43L207.65 82.51L207.7 82.58L207.76 82.66L207.81 82.74L207.86 82.82L207.9 82.9L207.94 82.99L207.99 83.07L208.02 83.16L208.06 83.25L208.09 83.34L208.12 83.43L208.15 83.52L208.18 83.61L208.2 83.7L208.22 83.8L208.24 83.89L208.25 83.99L208.26 84.09L208.27 84.18L208.28 84.28L208.28 84.38L208.29 84.48L208.29 88.04L213.95 82.15L214 80.77L214 80.75L214 80.74L214 80.72L214.01 80.71L214.01 80.69L214.01 80.68L214.02 80.66L214.02 80.65L214.03 80.64L214.03 80.62L214.04 80.61L214.05 80.6L214.06 80.58L214.06 80.57L214.07 80.56L214.08 80.55L214.09 80.54L214.1 80.52L214.11 80.51L214.12 80.5L214.13 80.49L214.14 80.48L214.15 80.47L214.16 80.46L214.17 80.45L214.18 80.43L214.19 80.42L217.14 78.1L217.16 78.08L217.19 78.07L217.21 78.06L217.23 78.05L217.25 78.04L217.28 78.03L217.3 78.02L217.32 78.02L217.34 78.01L217.37 78.01L217.39 78.01L217.41 78.01L217.44 78.01L217.46 78.01L217.48 78.02L217.5 78.02L217.52 78.03L217.54 78.04L217.57 78.05L217.59 78.05L217.61 78.07L217.63 78.08L217.64 78.09L217.66 78.1L217.68 78.12L217.7 78.13L217.71 78.15L219.76 80.27L219.78 80.29L219.79 80.31L219.81 80.33L219.82 80.35L219.83 80.37L219.84 80.39L219.85 80.41L219.86 80.43L219.87 80.45L219.88 80.47L219.88 80.5L219.89 80.52L219.89 80.54L219.89 80.56L219.9 80.59L219.9 80.61L219.89 80.64L219.89 80.66L219.89 80.68L219.88 80.71L219.88 80.73L219.87 80.75L219.86 80.78L219.85 80.8L219.84 80.82L219.82 80.85L219.81 80.87L217.57 83.93L217.56 83.95L217.55 83.97L217.54 83.98L217.53 83.99L217.52 84.01L217.51 84.02L217.5 84.03L217.49 84.04L217.47 84.05L217.46 84.06L217.45 84.07L217.44 84.08L217.43 84.09L217.42 84.09L217.4 84.1L217.39 84.1L217.38 84.11L217.37 84.11L217.35 84.12L217.34 84.12L217.33 84.12L217.31 84.13L217.3 84.13L217.28 84.13L217.27 84.13L217.25 84.13L217.24 84.13L215.9 84.18L210.1 90.31L219.05 99.56L219.11 99.63L219.17 99.7L219.23 99.77L219.29 99.84L219.34 99.91L219.39 99.98L219.44 100.06L219.49 100.14L219.54 100.22L219.58 100.3L219.62 100.38L219.66 100.46L219.7 100.54L219.74 100.63L219.77 100.72L219.8 100.8L219.83 100.89L219.86 100.98L219.88 101.07L219.91 101.16L219.93 101.26L219.94 101.35L219.96 101.45L219.97 101.54L219.98 101.64L219.99 101.74L220 101.84L220 101.93L219.99 102.02L219.99 102.11L219.98 102.21L219.97 102.3L219.95 102.39L219.93 102.48L219.91 102.57L219.89 102.65L219.87 102.74L219.84 102.83L219.81 102.91L219.78 103L219.74 103.08L219.71 103.17L219.67 103.25L219.63 103.33L219.58 103.41L219.54 103.48L219.49 103.56L219.44 103.64L219.39 103.71L219.33 103.78L219.28 103.86L219.22 103.93L219.16 103.99L219.1 104.06L219.03 104.13L218.97 104.19L218.9 104.25L218.83 104.31L218.76 104.36L218.69 104.42L218.61 104.47L218.54 104.52L218.47 104.57L218.39 104.61L218.31 104.66L218.23 104.7L218.15 104.73L218.07 104.77L217.99 104.8L217.91 104.83L217.82 104.86L217.74 104.89L217.66 104.91L217.57 104.93L217.48 104.95L217.4 104.97L217.31 104.98L217.22 104.99L217.13 104.99L217.04 105L216.95 105L216.86 105L216.77 104.99L216.68 104.99L216.6 104.98L216.51 104.97L216.42 104.95L216.33 104.93L216.25 104.91L216.16 104.89L216.08 104.86L216 104.83L215.91 104.8L215.83 104.77L215.75 104.73L215.67 104.7L215.59 104.66L215.52 104.61L215.44 104.57L215.36 104.52L215.29 104.47L215.22 104.42L215.15 104.36L215.08 104.31L215.01 104.25L214.94 104.19L214.87 104.13L214.81 104.06L208.62 97.58L201.67 104.8L201.66 104.81L201.64 104.82L201.63 104.83L201.62 104.84L201.61 104.85L201.6 104.86L201.58 104.87L201.57 104.88L201.56 104.88L201.55 104.89L201.53 104.9L201.52 104.9L201.51 104.91L201.49 104.92L201.48 104.92L201.47 104.93L201.45 104.93L201.44 104.93L201.43 104.94L201.42 104.94L201.4 104.94L201.39 104.95L201.38 104.95L201.37 104.95L201.36 104.95L201.34 104.95L201.33 104.95L197.76 104.95L197.75 104.95L197.73 104.95L197.72 104.95L197.7 104.95L197.69 104.95L197.67 104.94L197.66 104.94L197.65 104.94L197.63 104.93L197.62 104.93L197.61 104.93L197.6 104.92L197.58 104.92L197.57 104.91L197.56 104.9L197.55 104.9L197.54 104.89L197.53 104.88L197.51 104.88L197.5 104.87L197.49 104.86L197.48 104.85L197.47 104.84L197.46 104.83L197.45 104.82L197.44 104.81L197.43 104.8L194.14 101.39L194.13 101.38L194.12 101.37L194.11 101.36L194.1 101.34L194.09 101.33L194.09 101.32L194.08 101.3L194.07 101.29L194.06 101.28L194.06 101.26L194.05 101.25L194.04 101.24L194.04 101.22L194.03 101.21L194.03 101.2L194.02 101.18L194.02 101.17L194.02 101.16L194.01 101.14L194.01 101.13L194.01 101.12L194 101.1L194 101.09L194 101.08L194 101.07L194 101.06L194 101.04L194 97.34L194 97.32L194 97.3L194 97.29L194 97.27L194 97.26L194.01 97.24L194.01 97.23L194.01 97.22L194.02 97.2L194.02 97.19L194.02 97.18L194.03 97.16L194.03 97.15L194.04 97.14L194.04 97.13L194.05 97.11L194.06 97.1L194.06 97.09L194.07 97.08L194.08 97.07L194.09 97.06L194.09 97.04L194.1 97.03L194.11 97.02L194.12 97.01L194.13 97L194.14 96.99L198.62 92.34L198.59 92.32L198.57 92.31L198.54 92.29L198.52 92.27L198.49 92.26L198.47 92.24L198.44 92.22L198.42 92.21L198.4 92.19L198.37 92.17L198.35 92.16L198.33 92.14L198.3 92.12L198.28 92.1L198.26 92.08L198.24 92.07L198.21 92.05L198.19 92.03L198.17 92.01L198.15 91.99L198.13 91.97L198.11 91.95L198.08 91.93L198.06 91.91L198.04 91.89L198.02 91.87L198 91.85L194.95 88.68L194.88 88.61L194.82 88.55L194.76 88.47L194.7 88.4L194.64 88.33L194.58 88.25L194.53 88.17L194.48 88.09L194.43 88.01L194.38 87.93L194.34 87.85L194.3 87.76L194.26 87.67L194.23 87.59L194.19 87.5L194.16 87.41L194.13 87.32L194.11 87.22L194.09 87.13L194.07 87.04L194.05 86.94L194.03 86.85L194.02 86.75L194.01 86.65L194.01 86.55L194 86.46L194 86.36L194 86.26L194.01 86.16L194.01 86.06L194.02 85.97L194.03 85.87L194.05 85.78L194.07 85.69L194.09 85.59L194.11 85.5L194.13 85.41L194.16 85.32L194.19 85.23L194.23 85.15L194.26 85.06L194.3 84.97L194.34 84.89L194.38 84.81L194.43 84.72L194.48 84.64L194.53 84.56L194.58 84.48L194.64 84.41L194.7 84.33L194.76 84.25L194.82 84.18L194.88 84.11L194.95 84.03L194.97 84.01L195 83.99L195.02 83.97L195.04 83.96L195.06 83.94L195.09 83.93L195.11 83.92L195.13 83.91L195.16 83.9L195.18 83.89L195.2 83.89L195.23 83.89L195.25 83.88L195.27 83.88L195.3 83.89L195.32 83.89L195.35 83.89L195.37 83.9L195.39 83.91L195.42 83.92L195.44 83.93L195.46 83.94L195.48 83.96L195.51 83.97L195.53 83.99L195.55 84.01L195.57 84.03L199.67 88.29L203 87.35L203.9 83.88L199.81 79.63L199.79 79.61L199.77 79.59L199.75 79.56L199.74 79.54L199.72 79.52L199.71 79.49L199.7 79.47L199.69 79.45L199.68 79.42L199.68 79.4L199.67 79.37L199.67 79.35L199.67 79.32L199.67 79.3L199.67 79.27L199.67 79.25L199.68 79.22L199.68 79.2L199.69 79.18L199.7 79.15L199.71 79.13L199.72 79.1L199.74 79.08L199.75 79.06L199.77 79.03L199.79 79.01L199.81 78.99L199.87 78.92L199.94 78.85L200.01 78.79L200.08 78.72L200.15 78.66L200.22 78.6L200.3 78.55L200.38 78.5L200.45 78.45L200.53 78.4L200.61 78.35L200.7 78.31L200.78 78.27L200.86 78.24L200.95 78.2L201.04 78.17L201.12 78.14L201.21 78.11L201.3 78.09L201.39 78.07L201.49 78.05L201.58 78.04L201.67 78.02L201.76 78.01L201.86 78.01L201.95 78L202.05 78L202.14 78L202.24 78.01ZM199.54 92.75L199.53 92.76L199.53 92.77L199.52 92.78L199.52 92.78L199.52 92.79L194.95 97.53L194.95 100.85L197.95 103.96L201.14 103.96L208.05 96.89L204.19 92.84L200.33 92.84L200.23 92.83L200.12 92.82L200.01 92.81L199.9 92.8L199.78 92.78L199.68 92.76L199.57 92.74L199.55 92.74L199.54 92.75ZM201.98 78.85L201.9 78.85L201.81 78.86L201.74 78.88L201.66 78.89L201.58 78.91L201.5 78.93L201.43 78.96L201.35 78.98L201.28 79.01L201.21 79.05L201.13 79.08L201.06 79.11L200.99 79.15L200.92 79.19L200.86 79.24L204.81 83.34L204.83 83.36L204.84 83.38L204.86 83.4L204.87 83.42L204.88 83.45L204.89 83.48L204.9 83.5L204.91 83.53L204.91 83.56L204.92 83.59L204.92 83.62L204.92 83.65L204.92 83.67L204.92 83.7L204.92 83.73L204.91 83.76L204.9 83.79L203.86 87.79L203.85 87.83L203.84 87.86L203.82 87.89L203.81 87.92L203.79 87.94L203.78 87.97L203.76 87.99L203.74 88.01L203.72 88.03L203.69 88.05L203.67 88.06L203.65 88.08L203.62 88.09L203.6 88.11L203.57 88.12L203.55 88.13L203.52 88.14L199.67 89.23L199.64 89.23L199.61 89.24L199.59 89.24L199.56 89.24L199.53 89.24L199.5 89.24L199.48 89.24L199.45 89.23L199.42 89.23L199.39 89.22L199.37 89.21L199.34 89.2L199.32 89.19L199.3 89.17L199.28 89.16L199.26 89.14L199.24 89.13L195.29 85.02L195.24 85.09L195.21 85.16L195.17 85.24L195.13 85.31L195.1 85.38L195.07 85.46L195.04 85.54L195.02 85.61L194.99 85.69L194.97 85.77L194.96 85.85L194.94 85.93L194.93 86.02L194.92 86.1L194.91 86.18L194.91 86.27L194.9 86.36L194.91 86.47L194.91 86.58L194.93 86.69L194.94 86.8L194.97 86.91L194.99 87.01L195.02 87.12L195.06 87.22L195.1 87.32L195.14 87.42L195.19 87.52L195.24 87.61L195.3 87.7L195.36 87.79L195.43 87.88L195.5 87.96L195.57 88.04L198.62 91.2L198.7 91.28L198.78 91.35L198.86 91.42L198.94 91.48L199.03 91.54L199.12 91.6L199.21 91.65L199.31 91.7L199.41 91.74L199.5 91.77L199.6 91.81L199.71 91.83L199.81 91.86L199.92 91.87L200.02 91.89L200.13 91.89L200.24 91.9L204.29 91.9L204.31 91.9L204.33 91.9L204.36 91.9L204.38 91.9L204.4 91.91L204.42 91.91L204.44 91.92L204.46 91.93L204.48 91.94L204.5 91.95L204.52 91.96L204.53 91.97L204.55 91.98L204.57 92L204.59 92.01L204.6 92.03L204.62 92.04L215.38 103.32L215.46 103.39L215.54 103.45L215.62 103.51L215.7 103.57L215.78 103.63L215.87 103.68L215.96 103.73L216.04 103.77L216.13 103.81L216.23 103.84L216.32 103.87L216.41 103.9L216.51 103.92L216.61 103.94L216.71 103.95L216.8 103.96L216.9 103.96L217.01 103.96L217.11 103.95L217.21 103.94L217.31 103.92L217.4 103.9L217.5 103.87L217.6 103.84L217.69 103.81L217.78 103.77L217.87 103.73L217.96 103.68L218.05 103.63L218.13 103.57L218.21 103.51L218.29 103.45L218.36 103.39L218.43 103.32L218.5 103.25L218.57 103.17L218.63 103.1L218.69 103.01L218.75 102.93L218.8 102.84L218.84 102.75L218.89 102.66L218.92 102.57L218.96 102.47L218.99 102.36L219.01 102.26L219.04 102.15L219.06 102.04L219.07 101.92L219.09 101.81L219.1 101.69L219.09 101.58L219.09 101.48L219.07 101.37L219.06 101.27L219.04 101.17L219.01 101.07L218.98 100.97L218.95 100.87L218.91 100.77L218.87 100.68L218.82 100.59L218.77 100.5L218.72 100.41L218.66 100.33L218.6 100.25L218.54 100.18L218.48 100.1L207.62 88.93L207.6 88.91L207.59 88.89L207.57 88.87L207.56 88.85L207.55 88.83L207.54 88.81L207.53 88.79L207.52 88.77L207.51 88.74L207.5 88.72L207.49 88.7L207.49 88.68L207.48 88.66L207.48 88.64L207.48 88.62L207.48 88.6L207.48 88.58L207.48 84.38L207.47 84.27L207.47 84.15L207.45 84.04L207.44 83.93L207.42 83.83L207.39 83.72L207.36 83.62L207.32 83.51L207.28 83.41L207.24 83.32L207.19 83.22L207.14 83.13L207.08 83.04L207.02 82.95L206.95 82.86L206.88 82.78L206.81 82.7L203.76 79.53L203.68 79.46L203.6 79.38L203.52 79.32L203.44 79.25L203.35 79.19L203.26 79.14L203.17 79.09L203.07 79.04L202.98 79L202.88 78.96L202.78 78.93L202.67 78.9L202.57 78.88L202.47 78.86L202.36 78.85L202.25 78.84L202.14 78.84L202.06 78.84L201.98 78.85ZM214.86 82.4L214.85 82.44L214.84 82.48L214.82 82.52L214.79 82.58L214.76 82.63L214.71 82.7L208.71 88.88L209.48 89.67L215.43 83.39L215.46 83.34L215.5 83.31L215.55 83.28L215.61 83.26L215.66 83.25L215.71 83.24L217.05 83.19L218.95 80.62L217.43 79.04L214.9 81.02L214.86 82.4Z" id="c1dwHAn8Qe"/><path d="M217.32 101.87C217.2 101.75 216.25 100.8 216.13 100.68C215.96 100.51 215.96 100.3 216.13 100.13C216.3 99.96 216.51 99.96 216.68 100.13C216.8 100.25 217.75 101.2 217.87 101.32C218.04 101.49 218.04 101.7 217.87 101.87C217.83 101.96 217.74 102 217.62 102C217.53 102 217.4 101.96 217.32 101.87Z" id="aHbCQrvBm"/><path d="M176.5 113C160.76 113 148 125.76 148 141.5C148 157.24 160.76 170 176.5 170C192.24 170 205 157.24 205 141.5C205 125.76 192.24 113 176.5 113Z" id="a1LFEYEmaY"/><path d="M178.66 131.21L179.59 131.51L180.47 131.91L181.3 132.43L182.06 133.03L182.75 133.73L183.36 134.51L183.89 135.35L184.33 136.27L184.66 137.23L184.89 138.24L185 139.29L184.99 139.72L184.96 140.14L184.9 140.56L184.83 140.98L184.73 141.39L184.61 141.8L184.48 142.2L184.32 142.6L184.14 142.99L183.95 143.37L183.73 143.74L183.5 144.1L183.25 144.45L183.08 144.67L182.92 144.9L182.77 145.14L182.62 145.38L182.48 145.64L182.35 145.9L182.23 146.16L182.12 146.44L182.02 146.71L181.93 147L181.85 147.29L181.78 147.58L181.72 147.88L181.38 149.54L181.33 149.77L181.26 149.99L181.19 150.21L181.11 150.43L181.02 150.64L180.92 150.84L180.81 151.04L180.69 151.23L180.57 151.42L180.43 151.6L180.29 151.77L180.13 151.93L179.97 152.08L179.97 154.22L179.96 154.36L179.94 154.51L179.9 154.65L179.85 154.78L179.79 154.9L179.71 155.02L179.63 155.13L179.53 155.23L179.43 155.32L179.32 155.4L179.2 155.47L179.08 155.53L178.95 155.58L178.89 155.77L178.82 155.94L178.73 156.11L178.62 156.27L178.5 156.41L178.38 156.54L178.24 156.66L178.09 156.76L177.92 156.84L177.75 156.91L177.58 156.96L177.39 156.99L177.2 157L176.8 157L176.61 156.99L176.42 156.96L176.25 156.91L176.08 156.84L175.91 156.76L175.76 156.66L175.62 156.54L175.5 156.41L175.38 156.27L175.27 156.11L175.18 155.94L175.11 155.77L175.05 155.58L174.91 155.53L174.78 155.47L174.66 155.4L174.54 155.32L174.44 155.23L174.35 155.13L174.27 155.02L174.2 154.9L174.14 154.78L174.09 154.65L174.06 154.51L174.04 154.36L174.03 154.22L174.03 152.08L173.87 151.93L173.71 151.77L173.56 151.6L173.42 151.42L173.29 151.23L173.17 151.04L173.06 150.84L172.96 150.64L172.87 150.43L172.79 150.21L172.72 149.99L172.66 149.77L172.62 149.54L172.28 147.88L172.21 147.58L172.13 147.29L172.05 147L171.95 146.71L171.85 146.44L171.74 146.16L171.63 145.9L171.5 145.64L171.37 145.38L171.23 145.14L171.08 144.9L170.92 144.67L170.75 144.45L170.5 144.1L170.27 143.74L170.05 143.38L169.86 143L169.68 142.62L169.52 142.22L169.39 141.82L169.27 141.42L169.17 141L169.1 140.58L169.04 140.16L169.01 139.73L169 139.29L169.06 138.28L169.24 137.3L169.52 136.37L169.9 135.48L170.38 134.65L170.94 133.88L171.58 133.19L172.3 132.58L173.08 132.05L173.91 131.63L174.8 131.3L175.73 131.09L176.69 131L177.69 131.04L178.66 131.21ZM176.23 155.72L176.36 155.8L176.52 155.85L176.69 155.87L177.08 155.87L177.24 155.86L177.39 155.82L177.52 155.75L177.65 155.64L176.12 155.64L176.23 155.72ZM175.05 152.91L175.45 152.91L175.64 152.96L175.81 153.07L175.91 153.24L175.95 153.45L175.91 153.66L175.81 153.82L175.64 153.94L175.45 153.98L175.05 153.98L175.05 154.22L175.07 154.34L175.13 154.43L175.22 154.49L175.33 154.51L178.5 154.51L178.61 154.49L178.7 154.43L178.76 154.34L178.78 154.22L178.78 153.98L178.39 153.98L178.19 153.94L178.02 153.82L177.92 153.66L177.88 153.45L177.92 153.24L178.02 153.07L178.19 152.96L178.39 152.91L178.78 152.91L178.78 152.38L175.05 152.38L175.05 152.91ZM175.59 132.28L174.99 132.44L174.41 132.67L173.85 132.94L173.32 133.27L172.83 133.65L172.36 134.06L171.94 134.52L171.55 135.02L171.21 135.55L170.91 136.12L170.65 136.71L170.45 137.33L170.31 137.96L170.22 138.62L170.19 139.29L170.2 139.57L170.23 139.85L170.26 140.13L170.3 140.41L170.35 140.68L170.42 140.96L170.49 141.23L170.57 141.49L170.66 141.76L170.76 142.02L170.87 142.27L170.98 142.53L171.11 142.78L171.25 143.02L171.39 143.27L171.55 143.5L171.71 143.73L171.86 143.94L172 144.14L172.14 144.35L172.27 144.56L172.39 144.77L172.51 144.99L172.62 145.22L172.72 145.44L172.82 145.67L172.92 145.9L173 146.14L173.09 146.38L173.16 146.63L173.23 146.88L173.3 147.13L173.36 147.38L173.41 147.64L173.75 149.3L173.77 149.44L173.8 149.57L173.83 149.7L173.87 149.83L173.92 149.95L173.97 150.07L174.02 150.19L174.08 150.31L174.15 150.42L174.22 150.54L174.29 150.65L174.37 150.75L174.45 150.86L174.54 150.96L174.63 151.06L174.73 151.16L174.82 151.26L176.35 151.26L173.92 142.43L173.9 142.39L173.89 142.35L173.89 142.3L173.89 142.26L173.9 142.21L173.91 142.17L173.93 142.13L173.95 142.08L173.97 142.04L174 142L174.03 141.96L174.07 141.93L174.1 141.89L174.14 141.86L174.18 141.83L174.22 141.8L174.26 141.78L174.3 141.76L174.34 141.75L174.39 141.74L174.43 141.74L174.48 141.75L174.52 141.76L174.57 141.77L174.61 141.79L174.65 141.82L174.69 141.84L174.73 141.87L174.77 141.91L174.8 141.95L174.83 141.99L174.85 142.04L174.87 142.08L174.88 142.14L176.97 149.83L179.06 142.14L179.08 142.09L179.09 142.04L179.11 142L179.14 141.96L179.17 141.92L179.2 141.89L179.23 141.86L179.27 141.84L179.31 141.82L179.35 141.8L179.4 141.78L179.44 141.77L179.49 141.77L179.54 141.77L179.59 141.77L179.64 141.77L179.69 141.78L179.73 141.79L179.78 141.81L179.82 141.83L179.86 141.86L179.89 141.89L179.92 141.92L179.95 141.96L179.97 142L179.99 142.04L180.01 142.08L180.02 142.13L180.03 142.18L180.04 142.23L180.04 142.28L180.04 142.33L180.03 142.38L180.02 142.43L177.59 151.26L179.12 151.26L179.22 151.16L179.31 151.06L179.4 150.96L179.48 150.86L179.56 150.75L179.64 150.65L179.71 150.54L179.77 150.42L179.84 150.31L179.89 150.19L179.95 150.07L180 149.95L180.05 149.83L180.09 149.7L180.13 149.57L180.16 149.44L180.19 149.3L180.53 147.64L180.59 147.39L180.65 147.14L180.71 146.9L180.78 146.65L180.86 146.41L180.94 146.17L181.03 145.93L181.12 145.69L181.22 145.46L181.33 145.23L181.44 145.01L181.55 144.78L181.68 144.57L181.81 144.35L181.94 144.14L182.08 143.94L182.23 143.73L182.39 143.51L182.55 143.28L182.7 143.05L182.83 142.8L182.96 142.55L183.08 142.3L183.19 142.04L183.3 141.78L183.39 141.51L183.48 141.24L183.56 140.97L183.63 140.7L183.69 140.42L183.75 140.14L183.8 139.86L183.84 139.58L183.87 139.29L183.84 138.59L183.74 137.91L183.59 137.25L183.38 136.61L183.11 136.01L182.8 135.43L182.43 134.89L182.03 134.39L181.58 133.93L181.09 133.52L180.57 133.15L180.01 132.83L179.43 132.57L178.82 132.37L178.18 132.22L177.53 132.14L176.86 132.13L176.22 132.17L175.59 132.28Z" id="k1tkrytUCt"/><path d="M176.04 129.02C176.04 128.69 176.04 126.07 176.04 125.75C176.04 125.46 176.27 125.23 176.56 125.23C176.84 125.23 177.07 125.46 177.07 125.75C177.07 126.07 177.07 128.69 177.07 129.02C177.13 129.31 176.84 129.54 176.56 129.54C176.27 129.54 176.04 129.31 176.04 129.02Z" id="d15cGdNDBk"/><path d="M184.31 132.7C184.08 132.47 184.08 132.18 184.31 131.95C184.54 131.72 186.37 129.88 186.6 129.65C186.83 129.42 187.12 129.42 187.35 129.65C187.58 129.88 187.58 130.17 187.35 130.4C187.12 130.63 185.28 132.47 185.05 132.7C184.94 132.87 184.82 132.87 184.71 132.87C184.59 132.87 184.42 132.81 184.31 132.7Z" id="i7XOwPz5Z"/><path d="M165.76 151.25C165.54 151.02 165.54 150.74 165.76 150.51C165.99 150.28 167.83 148.44 168.06 148.21C168.29 147.98 168.58 147.98 168.81 148.21C169.04 148.44 169.04 148.73 168.81 148.96C168.58 149.19 166.74 151.02 166.51 151.25C166.45 151.37 166.28 151.43 166.17 151.43C166.05 151.43 165.88 151.37 165.76 151.25Z" id="g1b4eFI8Gs"/><path d="M188.04 141.03C187.75 141.03 187.52 140.8 187.52 140.51C187.52 140.22 187.75 139.99 188.04 139.99C188.37 139.99 190.98 139.99 191.31 139.99C191.6 139.99 191.83 140.22 191.83 140.51C191.83 140.8 191.6 141.03 191.31 141.03C190.66 141.03 188.37 141.03 188.04 141.03Z" id="bQQR33Mtg"/><path d="M161.8 141.03C161.52 141.03 161.29 140.8 161.29 140.51C161.29 140.22 161.52 139.99 161.8 139.99C162.13 139.99 164.75 139.99 165.08 139.99C165.36 139.99 165.59 140.22 165.59 140.51C165.65 140.8 165.36 141.03 165.08 141.03C164.42 141.03 162.13 141.03 161.8 141.03Z" id="gHORXQU3r"/><path d="M186.6 151.25C186.37 151.02 184.54 149.19 184.31 148.96C184.08 148.73 184.08 148.44 184.31 148.21C184.54 147.98 184.82 147.98 185.05 148.21C185.28 148.44 187.12 150.28 187.35 150.51C187.58 150.74 187.58 151.02 187.35 151.25C187.24 151.37 187.12 151.43 187.01 151.43C186.89 151.43 186.72 151.37 186.6 151.25Z" id="bA8izVxmI"/><path d="M168.06 132.7C167.83 132.47 165.99 130.63 165.76 130.4C165.54 130.17 165.54 129.88 165.76 129.65C165.99 129.42 166.28 129.42 166.51 129.65C166.74 129.88 168.58 131.72 168.81 131.95C169.04 132.18 169.04 132.47 168.81 132.7C168.75 132.87 168.58 132.87 168.46 132.87C168.35 132.87 168.18 132.81 168.06 132.7Z" id="bn3u1oFvw"/><path d="M236.5 113C220.76 113 208 125.76 208 141.5C208 157.24 220.76 170 236.5 170C252.24 170 265 157.24 265 141.5C265 125.76 252.24 113 236.5 113Z" id="ac119GOev"/><path d="M247.62 134.01L247.66 134.02L247.71 134.03L247.77 134.05L247.82 134.07L247.87 134.1L247.92 134.13L247.96 134.17L248.01 134.21L254.79 141.02L254.87 141.1L254.93 141.19L254.97 141.28L254.99 141.37L255 141.47L254.99 141.56L254.97 141.65L254.93 141.74L254.87 141.83L254.79 141.91L247.87 148.79L247.83 148.83L247.79 148.87L247.74 148.9L247.7 148.93L247.65 148.95L247.61 148.97L247.56 148.98L247.5 148.99L247.45 149L247.39 149L242.66 149L242.58 149L242.5 148.98L242.43 148.96L242.36 148.93L242.3 148.9L242.24 148.85L242.18 148.8L242.13 148.74L242.08 148.67L242.04 148.59L242.02 148.52L242.01 148.46L242 148.39L242 148.32L242.01 148.24L242.02 148.17L242.04 148.1L242.08 148.03L242.12 147.96L242.18 147.9L248.62 141.43L242.32 135.1L242.26 135.04L242.22 134.97L242.18 134.9L242.16 134.83L242.14 134.76L242.14 134.68L242.14 134.61L242.15 134.54L242.16 134.48L242.18 134.41L242.2 134.35L242.24 134.29L242.29 134.23L242.35 134.18L242.41 134.13L242.48 134.09L242.55 134.05L242.63 134.02L242.71 134.01L242.8 134L247.53 134L247.57 134L247.62 134.01ZM249.99 141.02L250.08 141.12L250.15 141.24L250.19 141.35L250.2 141.47L250.19 141.58L250.15 141.7L250.08 141.81L249.99 141.91L244.17 147.69L247.11 147.69L253.35 141.43L247.25 135.31L244.3 135.31L249.99 141.02Z" id="c37CsFDDQ"/><path d="M231.33 134.02L231.41 134.04L231.47 134.07L231.54 134.1L231.6 134.15L231.65 134.2L231.7 134.26L231.75 134.33L231.79 134.41L231.81 134.47L231.83 134.54L231.83 134.61L231.84 134.68L231.83 134.75L231.81 134.82L231.79 134.89L231.76 134.96L231.71 135.03L231.66 135.09L225.36 141.36L231.79 147.77L231.83 147.81L231.87 147.86L231.9 147.9L231.93 147.94L231.95 147.99L231.97 148.03L231.98 148.08L231.99 148.13L232 148.19L232 148.25L231.97 148.39L231.94 148.51L231.89 148.62L231.83 148.72L231.76 148.8L231.68 148.87L231.6 148.93L231.51 148.97L231.42 148.99L231.32 149L226.59 149L226.55 149L226.51 148.99L226.46 148.98L226.41 148.97L226.36 148.95L226.3 148.93L226.25 148.9L226.21 148.87L226.16 148.83L226.12 148.8L219.21 141.91L219.17 141.87L219.13 141.83L219.1 141.78L219.07 141.74L219.05 141.7L219.03 141.65L219.02 141.6L219.01 141.55L219 141.49L219 141.43L219 141.39L219.01 141.34L219.02 141.29L219.03 141.24L219.05 141.19L219.07 141.14L219.1 141.09L219.13 141.04L219.17 141L219.21 140.95L225.98 134.2L226.02 134.17L226.06 134.13L226.1 134.1L226.15 134.07L226.19 134.05L226.24 134.03L226.29 134.02L226.34 134.01L226.4 134L226.46 134L231.18 134L231.26 134L231.33 134.02ZM220.57 141.43L226.8 147.7L229.74 147.7L223.93 141.91L223.84 141.8L223.77 141.69L223.73 141.58L223.72 141.47L223.73 141.35L223.77 141.24L223.84 141.13L223.93 141.02L229.61 135.36L226.66 135.36L220.57 141.43Z" id="aoyyi6oZ"/><path d="M240.51 129.01L240.55 129.01L240.6 129.03L240.64 129.04L240.68 129.06L240.72 129.08L240.76 129.1L240.8 129.13L240.83 129.16L240.87 129.2L240.9 129.23L240.93 129.27L240.95 129.32L240.97 129.36L240.98 129.41L240.99 129.46L240.99 129.51L241 129.56L241 129.61L241 129.67L241 129.72L236.9 151.48L236.87 151.55L236.84 151.62L236.8 151.68L236.76 151.75L236.7 151.81L236.64 151.86L236.58 151.91L236.51 151.95L236.44 151.98L236.37 151.99L236.3 152L232.6 152L232.54 152L232.49 151.99L232.45 151.99L232.4 151.97L232.36 151.96L232.32 151.94L232.28 151.92L232.24 151.9L232.2 151.87L232.17 151.84L232.13 151.8L232.1 151.77L232.07 151.73L232.05 151.68L232.03 151.64L232.02 151.59L232.01 151.54L232.01 151.49L232 151.44L232 151.39L232 151.33L232 151.28L236.1 129.52L236.13 129.45L236.16 129.38L236.2 129.32L236.24 129.25L236.3 129.19L236.36 129.14L236.42 129.09L236.49 129.05L236.56 129.02L236.63 129.01L236.7 129L240.4 129L240.46 129L240.51 129.01ZM233.26 150.75L235.77 150.75L239.61 130.18L237.1 130.18L233.26 150.75Z" id="c15dEHhvcN"/><path d="M460.37 336.43L543.14 456.5L390.53 456.5L307.75 336.43L460.37 336.43Z" id="jo8V9paiz"/><linearGradient id="gradientd9E6Nk2soG" gradientUnits="userSpaceOnUse" x1="445.27" y1="293.42" x2="461.28" y2="456.5"><stop style="stop-color: #b8b8b8;stop-opacity: 1" offset="0%"/><stop style="stop-color: #fefefe;stop-opacity: 1" offset="100%"/></linearGradient><path d="M328.99 359.25L444.16 479.32L323.95 479.32L208.78 359.25L328.99 359.25Z" id="k4qrJgxdLW"/><linearGradient id="gradienta4bRe6CAYY" gradientUnits="userSpaceOnUse" x1="346.3" y1="316.25" x2="362.31" y2="479.32"><stop style="stop-color: #b8b8b8;stop-opacity: 1" offset="0%"/><stop style="stop-color: #fefefe;stop-opacity: 1" offset="100%"/></linearGradient><path d="M451 165.08C461.08 165.08 466.12 170.02 466.12 179.91C466.12 267.21 466.12 315.7 466.12 325.4C466.12 335.29 461.08 340.24 451 340.24C329.64 340.24 262.21 340.24 248.73 340.24C238.65 340.24 233.61 335.29 233.61 325.4C233.61 238.11 233.61 189.61 233.61 179.91C233.61 170.02 238.65 165.08 248.73 165.08C370.09 165.08 437.52 165.08 451 165.08Z" id="b2XVyMLD7s"/><path d="M443.8 182.03C443.8 182.03 443.8 182.03 443.8 182.03C443.8 266.36 443.8 313.21 443.8 322.58C443.8 322.58 443.8 322.58 443.8 322.58C328.92 322.58 265.09 322.58 252.33 322.58C252.33 322.58 252.33 322.58 252.33 322.58C252.33 238.25 252.33 191.4 252.33 182.03C252.33 182.03 252.33 182.03 252.33 182.03C367.21 182.03 431.04 182.03 443.8 182.03Z" id="a2ECmYnGu"/><path d="M398.45 260.43C400.85 260.43 402.05 261.6 402.05 263.96C402.05 263.96 402.05 263.96 402.05 263.96C402.05 266.31 400.85 267.49 398.45 267.49C347.92 267.49 319.85 267.49 314.23 267.49C311.83 267.49 310.63 266.31 310.63 263.96C310.63 263.96 310.63 263.96 310.63 263.96C310.63 261.6 311.83 260.43 314.23 260.43C364.76 260.43 392.84 260.43 398.45 260.43Z" id="c4TYxzvbxN"/><path d="M398.45 274.55C400.85 274.55 402.05 275.73 402.05 278.08C402.05 278.08 402.05 278.08 402.05 278.08C402.05 280.44 400.85 281.61 398.45 281.61C347.92 281.61 319.85 281.61 314.23 281.61C311.83 281.61 310.63 280.44 310.63 278.08C310.63 278.08 310.63 278.08 310.63 278.08C310.63 275.73 311.83 274.55 314.23 274.55C364.76 274.55 392.84 274.55 398.45 274.55Z" id="c1mEvrYPCq"/><path d="M398.45 288.68C400.85 288.68 402.05 289.85 402.05 292.21C402.05 292.21 402.05 292.21 402.05 292.21C402.05 294.56 400.85 295.74 398.45 295.74C347.92 295.74 319.85 295.74 314.23 295.74C311.83 295.74 310.63 294.56 310.63 292.21C310.63 292.21 310.63 292.21 310.63 292.21C310.63 289.85 311.83 288.68 314.23 288.68C364.76 288.68 392.84 288.68 398.45 288.68Z" id="bJKzQavHm"/><path d="M430.84 195.45C430.84 195.45 430.84 195.45 430.84 195.45C430.84 228.08 430.84 246.21 430.84 249.83C430.84 249.83 430.84 249.83 430.84 249.83C366.92 249.83 331.41 249.83 324.31 249.83C324.31 249.83 324.31 249.83 324.31 249.83C324.31 217.2 324.31 199.07 324.31 195.45C324.31 195.45 324.31 195.45 324.31 195.45C388.23 195.45 423.74 195.45 430.84 195.45Z" id="pHNPoEdKY"/><path d="M326.47 217.34C316.13 217.34 307.75 225.56 307.75 235.71C307.75 245.85 316.13 254.07 326.47 254.07C336.81 254.07 345.18 245.85 345.18 235.71C345.18 225.56 336.81 217.34 326.47 217.34Z" id="b2zxm7PyHY"/><path d="M455.32 248.42C452.54 248.42 450.28 250.63 450.28 253.36C450.28 256.09 452.54 258.31 455.32 258.31C458.1 258.31 460.36 256.09 460.36 253.36C460.36 250.63 458.1 248.42 455.32 248.42Z" id="ereTVkOVf"/><path d="M309.91 134C322.87 134 329.35 140.36 329.35 153.07C329.35 272.57 329.35 338.96 329.35 352.24C329.35 364.96 322.87 371.31 309.91 371.31C261.54 371.31 234.67 371.31 229.29 371.31C216.33 371.31 209.86 364.96 209.86 352.24C209.86 232.74 209.86 166.35 209.86 153.07C209.86 140.36 216.33 134 229.29 134C277.66 134 304.54 134 309.91 134Z" id="eaNCSTo2d"/><path d="M270.68 345.18C265.31 345.18 260.96 349.45 260.96 354.71C260.96 359.98 265.31 364.25 270.68 364.25C276.05 364.25 280.4 359.98 280.4 354.71C280.4 349.45 276.05 345.18 270.68 345.18Z" id="a3itPRzYxP"/><path d="M322.87 160.13C322.87 160.13 322.87 160.13 322.87 160.13C322.87 268.19 322.87 328.23 322.87 340.24C322.87 340.24 322.87 340.24 322.87 340.24C258.95 340.24 223.44 340.24 216.33 340.24C216.33 340.24 216.33 340.24 216.33 340.24C216.33 232.17 216.33 172.14 216.33 160.13C216.33 160.13 216.33 160.13 216.33 160.13C280.26 160.13 315.77 160.13 322.87 160.13Z" id="c5nWeALoMO"/><path d="M322.87 160.13C322.87 160.13 322.87 160.13 322.87 160.13C322.87 192.76 322.87 210.89 322.87 214.52C322.87 214.52 322.87 214.52 322.87 214.52C258.95 214.52 223.44 214.52 216.33 214.52C216.33 214.52 216.33 214.52 216.33 214.52C216.33 181.89 216.33 163.76 216.33 160.13C216.33 160.13 216.33 160.13 216.33 160.13C280.26 160.13 315.77 160.13 322.87 160.13Z" id="evPYsOtSC"/><path d="M269.6 196.15C259.27 196.15 250.89 204.37 250.89 214.52C250.89 224.66 259.27 232.88 269.6 232.88C279.94 232.88 288.32 224.66 288.32 214.52C288.32 204.37 279.94 196.15 269.6 196.15Z" id="a92xDzwyu"/><path d="M267.26 213.82L267.28 213.82L267.31 213.83L267.34 213.84L267.36 213.85L267.39 213.86L267.41 213.87L267.43 213.89L267.45 213.9L267.48 213.92L267.5 213.94L267.51 213.96L267.53 213.98L267.55 214L267.56 214.02L267.58 214.05L269.6 220.64L271.63 214.05L271.64 214.02L271.65 214L271.66 213.98L271.68 213.96L271.69 213.94L271.71 213.92L271.73 213.9L271.76 213.89L271.78 213.87L271.82 213.86L271.84 213.85L271.86 213.84L271.89 213.84L271.92 213.83L271.95 213.83L271.98 213.83L272 213.83L272.03 213.83L272.06 213.83L272.08 213.83L272.22 213.87L272.52 213.97L272.95 214.13L273.47 214.34L274.05 214.61L274.65 214.93L275.24 215.3L275.78 215.72L276.24 216.19L276.58 216.7L276.82 217.27L277.01 217.95L277.17 218.7L277.29 219.47L277.37 220.24L277.44 220.96L277.48 221.6L277.51 222.11L277.52 222.47L277.52 222.62L277.52 222.65L277.52 222.67L277.51 222.7L277.5 222.73L277.49 222.75L277.48 222.78L277.46 222.81L277.45 222.83L277.43 222.86L277.41 222.88L277.39 222.9L277.38 222.92L277.36 222.94L277.33 222.95L277.31 222.96L277.28 222.97L277.26 222.98L277.23 222.99L277.21 222.99L277.18 222.99L262.06 222.99L262.04 222.99L262.01 222.99L261.98 222.98L261.96 222.97L261.93 222.96L261.9 222.95L261.87 222.94L261.85 222.92L261.82 222.9L261.8 222.88L261.77 222.86L261.76 222.84L261.74 222.81L261.72 222.79L261.71 222.77L261.7 222.74L261.69 222.71L261.69 222.69L261.68 222.66L261.68 222.62L261.69 222.46L261.69 222.1L261.72 221.58L261.75 220.95L261.82 220.23L261.9 219.46L262.02 218.69L262.18 217.95L262.38 217.27L262.62 216.7L262.96 216.19L263.43 215.72L263.97 215.3L264.56 214.93L265.17 214.61L265.75 214.34L266.27 214.13L266.7 213.97L267 213.87L267.13 213.83L267.15 213.82L267.17 213.81L267.2 213.81L267.23 213.81L267.26 213.82ZM269.93 221.93L269.9 221.97L269.88 222.01L269.85 222.04L269.81 222.07L269.77 222.1L269.73 222.12L269.69 222.13L269.65 222.14L269.6 222.15L269.56 222.14L269.51 222.13L269.47 222.12L269.43 222.1L269.39 222.07L269.36 222.04L269.33 222.01L269.3 221.97L269.28 221.93L269.26 221.89L267.01 214.56L266.71 214.67L266.35 214.81L265.93 214.98L265.49 215.18L265.03 215.42L264.58 215.68L264.16 215.97L263.78 216.29L263.46 216.63L263.22 216.99L263.05 217.44L262.9 217.96L262.77 218.53L262.67 219.14L262.58 219.77L262.52 220.38L262.47 220.96L262.44 221.49L262.41 221.94L262.4 222.29L276.81 222.29L276.79 221.93L276.77 221.47L276.73 220.94L276.68 220.35L276.62 219.74L276.54 219.12L276.43 218.51L276.31 217.94L276.16 217.43L275.98 216.99L275.77 216.66L275.48 216.34L275.13 216.04L274.73 215.76L274.3 215.5L273.85 215.26L273.4 215.05L272.96 214.86L272.56 214.7L272.19 214.56L269.94 221.89L269.93 221.93Z" id="h4IGiISXpF"/><path d="M270.86 213.86L270.93 213.92L270.97 214L271 214.09L271 214.18L270.98 214.28L270.93 214.37L270.26 215.19L271.04 218.14L271.04 218.33L269.93 222.02L269.9 222.13L269.83 222.21L269.74 222.27L269.63 222.29L269.52 222.27L269.42 222.21L269.34 222.13L269.29 222.02L268.18 218.33L268.17 218.28L268.16 218.23L268.16 218.19L268.18 218.14L268.92 215.19L268.25 214.37L268.21 214.28L268.18 214.18L268.18 214.09L268.22 214L268.28 213.92L268.35 213.86L268.43 213.82L268.51 213.81L270.67 213.81L270.77 213.82L270.86 213.86ZM269.63 220.76L270.37 218.25L269.63 215.3L268.89 218.25L269.63 220.76ZM269.63 214.89L269.63 214.9L269.65 214.92L269.66 214.94L269.67 214.97L269.67 214.95L269.7 214.92L269.7 214.89L270.04 214.48L269.29 214.48L269.63 214.89Z" id="c7EtCJJew"/><path d="M271.65 204.89L272.39 205.65L272.88 206.6L273.06 207.69L273.06 210.04L272.88 211.15L272.4 212.1L271.67 212.85L270.73 213.34L269.64 213.52L268.92 213.52L267.84 213.34L266.91 212.84L266.16 212.09L265.67 211.13L265.5 210.04L265.5 207.69L265.67 206.6L266.16 205.65L266.91 204.89L267.84 204.39L268.92 204.22L269.64 204.22L270.71 204.39L271.65 204.89ZM267.72 205.55L266.87 206.23L266.35 206.94L266.18 207.69L266.18 210.04L266.4 211.12L266.98 212.01L267.85 212.6L268.92 212.82L269.64 212.82L270.7 212.6L271.57 212.01L272.16 211.12L272.37 210.04L272.37 207.69L272.16 206.61L271.57 205.73L270.7 205.13L269.64 204.91L268.92 204.91L267.72 205.55Z" id="c7V9ZMb4q"/><path d="M312.07 239.24C314.47 239.24 315.67 240.41 315.67 242.77C315.67 242.77 315.67 242.77 315.67 242.77C315.67 245.12 314.47 246.3 312.07 246.3C261.54 246.3 233.47 246.3 227.85 246.3C225.45 246.3 224.25 245.12 224.25 242.77C224.25 242.77 224.25 242.77 224.25 242.77C224.25 240.41 225.45 239.24 227.85 239.24C278.38 239.24 306.46 239.24 312.07 239.24Z" id="a7YchsthW"/><path d="M312.07 253.36C314.47 253.36 315.67 254.54 315.67 256.89C315.67 256.89 315.67 256.89 315.67 256.89C315.67 259.25 314.47 260.43 312.07 260.43C261.54 260.43 233.47 260.43 227.85 260.43C225.45 260.43 224.25 259.25 224.25 256.89C224.25 256.89 224.25 256.89 224.25 256.89C224.25 254.54 225.45 253.36 227.85 253.36C278.38 253.36 306.46 253.36 312.07 253.36Z" id="lYtx7RgD2"/><path d="M312.07 267.49C314.47 267.49 315.67 268.67 315.67 271.02C315.67 271.02 315.67 271.02 315.67 271.02C315.67 273.37 314.47 274.55 312.07 274.55C261.54 274.55 233.47 274.55 227.85 274.55C225.45 274.55 224.25 273.37 224.25 271.02C224.25 271.02 224.25 271.02 224.25 271.02C224.25 268.67 225.45 267.49 227.85 267.49C278.38 267.49 306.46 267.49 312.07 267.49Z" id="affzIhpDW"/></defs><g><g><g><g><use xlink:href="#d2H6GkZKvf" opacity="0.28" fill="url(#gradientb1HKaF0jjO)"/><g><use xlink:href="#d2H6GkZKvf" opacity="0.28" fill-opacity="0" stroke="#000000" stroke-width="1" stroke-opacity="0"/></g></g><g><use xlink:href="#aGuSgNufw" opacity="0.29" fill="url(#gradientbsIJgbI3X)"/><g><use xlink:href="#aGuSgNufw" opacity="0.29" fill-opacity="0" stroke="#000000" stroke-width="1" stroke-opacity="0"/></g></g><g><use xlink:href="#c1FfDgHC4j" opacity="0.24" fill="url(#gradienta3P2DEHFhX)"/><g><use xlink:href="#c1FfDgHC4j" opacity="0.24" fill-opacity="0" stroke="#000000" stroke-width="1" stroke-opacity="0"/></g></g><g><use xlink:href="#ccUkxUU3F" opacity="1" fill="#202020" fill-opacity="1"/><g><use xlink:href="#ccUkxUU3F" opacity="1" fill-opacity="0" stroke="#dfdfdf" stroke-width="1" stroke-opacity="1"/></g></g><g><use xlink:href="#ccpUK9y5A" opacity="1" fill="#d3d3d3" fill-opacity="1"/><g><use xlink:href="#ccpUK9y5A" opacity="1" fill-opacity="0" stroke="#eaeaea" stroke-width="1" stroke-opacity="1"/></g></g><g><use xlink:href="#a1OaULyEyE" opacity="1" fill="#ffffff" fill-opacity="1"/><g><use xlink:href="#a1OaULyEyE" opacity="1" fill-opacity="0" stroke="#000000" stroke-width="1" stroke-opacity="0"/></g></g><g><use xlink:href="#b1A8Hg2Bl" opacity="1" fill="#ffffff" fill-opacity="1"/><g><use xlink:href="#b1A8Hg2Bl" opacity="1" fill-opacity="0" stroke="#000000" stroke-width="1" stroke-opacity="0"/></g></g><g><use xlink:href="#b13okrDYYJ" opacity="1" fill="#ffffff" fill-opacity="1"/><g><use xlink:href="#b13okrDYYJ" opacity="1" fill-opacity="0" stroke="#dfdfdf" stroke-width="1" stroke-opacity="1"/></g></g><g><use xlink:href="#b2vJ9BM94r" opacity="1" fill="#f2f2f2" fill-opacity="1"/><g><use xlink:href="#b2vJ9BM94r" opacity="1" fill-opacity="0" stroke="#000000" stroke-width="1" stroke-opacity="0"/></g></g><g><use xlink:href="#a2maQI35Pc" opacity="1" fill="#f2f2f2" fill-opacity="1"/><g><use xlink:href="#a2maQI35Pc" opacity="1" fill-opacity="0" stroke="#000000" stroke-width="1" stroke-opacity="0"/></g></g><g><use xlink:href="#b8gdTW92sb" opacity="1" fill="#f2f2f2" fill-opacity="1"/><g><use xlink:href="#b8gdTW92sb" opacity="1" fill-opacity="0" stroke="#000000" stroke-width="1" stroke-opacity="0"/></g></g><g><use xlink:href="#h1w0Q0Jflk" opacity="1" fill="#f2f2f2" fill-opacity="1"/><g><use xlink:href="#h1w0Q0Jflk" opacity="1" fill-opacity="0" stroke="#000000" stroke-width="1" stroke-opacity="0"/></g></g><g><use xlink:href="#b2IlLU8Lrp" opacity="1" fill="#f2f2f2" fill-opacity="1"/><g><use xlink:href="#b2IlLU8Lrp" opacity="1" fill-opacity="0" stroke="#000000" stroke-width="1" stroke-opacity="0"/></g></g><g><use xlink:href="#a1sVsOfREY" opacity="1" fill="#fafafa" fill-opacity="1"/><g><use xlink:href="#a1sVsOfREY" opacity="1" fill-opacity="0" stroke="#000000" stroke-width="1" stroke-opacity="0"/></g></g><g id="Tools"><g id="Tools-BG"><use xlink:href="#a4xP3Z0G3W" opacity="1" fill="#ffbb41" fill-opacity="1"/><g><use xlink:href="#a4xP3Z0G3W" opacity="1" fill-opacity="0" stroke="#000000" stroke-width="1" stroke-opacity="0"/></g></g><g><use xlink:href="#dqL5UeE4x" opacity="1" fill="#ffffff" fill-opacity="1"/><g><use xlink:href="#dqL5UeE4x" opacity="1" fill-opacity="0" stroke="#000000" stroke-width="1" stroke-opacity="0"/></g></g><g><use xlink:href="#c4zDNae9z" opacity="1" fill="#ffffff" fill-opacity="1"/><g><use xlink:href="#c4zDNae9z" opacity="1" fill-opacity="0" stroke="#000000" stroke-width="1" stroke-opacity="0"/></g></g><g><use xlink:href="#c1dwHAn8Qe" opacity="1" fill="#ffffff" fill-opacity="1"/><g><use xlink:href="#c1dwHAn8Qe" opacity="1" fill-opacity="0" stroke="#000000" stroke-width="1" stroke-opacity="0"/></g></g><g><use xlink:href="#aHbCQrvBm" opacity="1" fill="#ffffff" fill-opacity="1"/><g/><use xlink:href="#aHbCQrvBm" opacity="1" fill-opacity="0" stroke="#000000" stroke-width="1" stroke-opacity="0"/></g></g><g id="Idea"><g id="Idea-BG"><use xlink:href="#a1LFEYEmaY" opacity="1" fill="#ffbb41" fill-opacity="1"/><g><use xlink:href="#a1LFEYEmaY" opacity="1" fill-opacity="0" stroke="#000000" stroke-width="1" stroke-opacity="0"/></g></g><g><use xlink:href="#k1tkrytUCt" opacity="1" fill="#ffffff" fill-opacity="1"/><g><use xlink:href="#k1tkrytUCt" opacity="1" fill-opacity="0" stroke="#000000" stroke-width="1" stroke-opacity="0"/></g></g><g><use xlink:href="#d15cGdNDBk" opacity="1" fill="#ffffff" fill-opacity="1"/><g><use xlink:href="#d15cGdNDBk" opacity="1" fill-opacity="0" stroke="#000000" stroke-width="1" stroke-opacity="0"/></g></g><g><use xlink:href="#i7XOwPz5Z" opacity="1" fill="#ffffff" fill-opacity="1"/><g><use xlink:href="#i7XOwPz5Z" opacity="1" fill-opacity="0" stroke="#000000" stroke-width="1" stroke-opacity="0"/></g></g><g><use xlink:href="#g1b4eFI8Gs" opacity="1" fill="#ffffff" fill-opacity="1"/><g><use xlink:href="#g1b4eFI8Gs" opacity="1" fill-opacity="0" stroke="#000000" stroke-width="1" stroke-opacity="0"/></g></g><g><use xlink:href="#bQQR33Mtg" opacity="1" fill="#ffffff" fill-opacity="1"/><g><use xlink:href="#bQQR33Mtg" opacity="1" fill-opacity="0" stroke="#000000" stroke-width="1" stroke-opacity="0"/></g></g><g><use xlink:href="#gHORXQU3r" opacity="1" fill="#ffffff" fill-opacity="1"/><g><use xlink:href="#gHORXQU3r" opacity="1" fill-opacity="0" stroke="#000000" stroke-width="1" stroke-opacity="0"/></g></g><g><use xlink:href="#bA8izVxmI" opacity="1" fill="#ffffff" fill-opacity="1"/><g><use xlink:href="#bA8izVxmI" opacity="1" fill-opacity="0" stroke="#000000" stroke-width="1" stroke-opacity="0"/></g></g><g><use xlink:href="#bn3u1oFvw" opacity="1" fill="#ffffff" fill-opacity="1"/></g><g><use xlink:href="#bn3u1oFvw" opacity="1" fill-opacity="0" stroke="#000000" stroke-width="1" stroke-opacity="0"/></g></g><g id="Code"><g id="Code-BG"><use xlink:href="#ac119GOev" opacity="1" fill="#ffbb41" fill-opacity="1"/><g><use xlink:href="#ac119GOev" opacity="1" fill-opacity="0" stroke="#000000" stroke-width="1" stroke-opacity="0"/></g></g><g><use xlink:href="#c37CsFDDQ" opacity="1" fill="#ffffff" fill-opacity="1"/><g><use xlink:href="#c37CsFDDQ" opacity="1" fill-opacity="0" stroke="#000000" stroke-width="1" stroke-opacity="0"/></g></g><g><use xlink:href="#aoyyi6oZ" opacity="1" fill="#ffffff" fill-opacity="1"/><g><use xlink:href="#aoyyi6oZ" opacity="1" fill-opacity="0" stroke="#000000" stroke-width="1" stroke-opacity="0"/></g></g><g><use xlink:href="#c15dEHhvcN" opacity="1" fill="#ffffff" fill-opacity="1"/></g><g><use xlink:href="#c15dEHhvcN" opacity="1" fill-opacity="0" stroke="#000000" stroke-width="1" stroke-opacity="0"/></g></g></g><g><use xlink:href="#jo8V9paiz" opacity="0.27" fill="url(#gradientd9E6Nk2soG)"/><g><use xlink:href="#jo8V9paiz" opacity="0.27" fill-opacity="0" stroke="#000000" stroke-width="1" stroke-opacity="0"/></g></g><g><use xlink:href="#k4qrJgxdLW" opacity="0.28" fill="url(#gradienta4bRe6CAYY)"/><g><use xlink:href="#k4qrJgxdLW" opacity="0.28" fill-opacity="0" stroke="#000000" stroke-width="1" stroke-opacity="0"/></g></g><g><use xlink:href="#b2XVyMLD7s" opacity="1" fill="#4a4a4a" fill-opacity="1"/><g><use xlink:href="#b2XVyMLD7s" opacity="1" fill-opacity="0" stroke="#000000" stroke-width="1" stroke-opacity="0"/></g></g><g><use xlink:href="#a2ECmYnGu" opacity="1" fill="#ffffff" fill-opacity="1"/><g><use xlink:href="#a2ECmYnGu" opacity="1" fill-opacity="0" stroke="#000000" stroke-width="1" stroke-opacity="0"/></g></g><g><use xlink:href="#c4TYxzvbxN" opacity="1" fill="#f2f2f2" fill-opacity="1"/><g><use xlink:href="#c4TYxzvbxN" opacity="1" fill-opacity="0" stroke="#000000" stroke-width="1" stroke-opacity="0"/></g></g><g><use xlink:href="#c1mEvrYPCq" opacity="1" fill="#f2f2f2" fill-opacity="1"/><g><use xlink:href="#c1mEvrYPCq" opacity="1" fill-opacity="0" stroke="#000000" stroke-width="1" stroke-opacity="0"/></g></g><g><use xlink:href="#bJKzQavHm" opacity="1" fill="#f2f2f2" fill-opacity="1"/><g><use xlink:href="#bJKzQavHm" opacity="1" fill-opacity="0" stroke="#000000" stroke-width="1" stroke-opacity="0"/></g></g><g><use xlink:href="#pHNPoEdKY" opacity="1" fill="#f2f2f2" fill-opacity="1"/><g><use xlink:href="#pHNPoEdKY" opacity="1" fill-opacity="0" stroke="#000000" stroke-width="1" stroke-opacity="0"/></g></g><g><use xlink:href="#b2zxm7PyHY" opacity="1" fill="#ffbb41" fill-opacity="1"/><g><use xlink:href="#b2zxm7PyHY" opacity="1" fill-opacity="0" stroke="#000000" stroke-width="1" stroke-opacity="0"/></g></g><g><use xlink:href="#ereTVkOVf" opacity="1" fill="#ffffff" fill-opacity="1"/><g><use xlink:href="#ereTVkOVf" opacity="1" fill-opacity="0" stroke="#000000" stroke-width="1" stroke-opacity="0"/></g></g><g><use xlink:href="#eaNCSTo2d" opacity="1" fill="#202020" fill-opacity="1"/><g><use xlink:href="#eaNCSTo2d" opacity="1" fill-opacity="0" stroke="#000000" stroke-width="1" stroke-opacity="0"/></g></g><g><use xlink:href="#a3itPRzYxP" opacity="1" fill="#ffffff" fill-opacity="1"/><g><use xlink:href="#a3itPRzYxP" opacity="1" fill-opacity="0" stroke="#000000" stroke-width="1" stroke-opacity="0"/></g></g><g><use xlink:href="#c5nWeALoMO" opacity="1" fill="#ffffff" fill-opacity="1"/><g><use xlink:href="#c5nWeALoMO" opacity="1" fill-opacity="0" stroke="#000000" stroke-width="1" stroke-opacity="0"/></g></g><g><use xlink:href="#evPYsOtSC" opacity="1" fill="#f2f2f2" fill-opacity="1"/><g><use xlink:href="#evPYsOtSC" opacity="1" fill-opacity="0" stroke="#000000" stroke-width="1" stroke-opacity="0"/></g></g><g id="Phone-Icon"><g id="Phone-Icon-BG" style="&#10;    /* display: none; */&#10;"><use xlink:href="#a92xDzwyu" opacity="1" fill="#ffbb41" fill-opacity="1"/><g><use xlink:href="#a92xDzwyu" opacity="1" fill-opacity="0" stroke="#000000" stroke-width="1" stroke-opacity="0"/></g></g><g id="Phone-Icon-Human-Chest"><use xlink:href="#h4IGiISXpF" opacity="1" fill="#ffffff" fill-opacity="1"/><g><use xlink:href="#h4IGiISXpF" opacity="1" fill-opacity="0" stroke="#000000" stroke-width="1" stroke-opacity="0"/></g></g><g id="Phone-Icon-Necktie"><use xlink:href="#c7EtCJJew" opacity="1" fill="#ffffff" fill-opacity="1"/><g><use xlink:href="#c7EtCJJew" opacity="1" fill-opacity="0" stroke="#000000" stroke-width="1" stroke-opacity="0"/></g></g><g id="Phone-Icon-Head"><use xlink:href="#c7V9ZMb4q" opacity="1" fill="#ffffff" fill-opacity="1"/><g><use xlink:href="#c7V9ZMb4q" opacity="1" fill-opacity="0" stroke="#000000" stroke-width="1" stroke-opacity="0"/></g></g></g><g><use xlink:href="#a7YchsthW" opacity="1" fill="#f2f2f2" fill-opacity="1"/><g><use xlink:href="#a7YchsthW" opacity="1" fill-opacity="0" stroke="#000000" stroke-width="1" stroke-opacity="0"/></g></g><g><use xlink:href="#lYtx7RgD2" opacity="1" fill="#f2f2f2" fill-opacity="1"/><g><use xlink:href="#lYtx7RgD2" opacity="1" fill-opacity="0" stroke="#000000" stroke-width="1" stroke-opacity="0"/></g></g><g><use xlink:href="#affzIhpDW" opacity="1" fill="#f2f2f2" fill-opacity="1"/><g><use xlink:href="#affzIhpDW" opacity="1" fill-opacity="0" stroke="#000000" stroke-width="1" stroke-opacity="0"/></g></g></g></g></svg>