<svg width="722" height="575" xmlns="http://www.w3.org/2000/svg" style="vector-effect: non-scaling-stroke;" stroke="null" viewBox="0 0 722 575">
 <!-- Generator: Sketch 46.2 (44496) - http://www.bohemiancoding.com/sketch -->
 <title stroke="null">Graphics-Design-Graphics</title>
 <desc stroke="null">Created with Sketch.</desc>
 <defs stroke="null">
  <linearGradient style="vector-effect: non-scaling-stroke;" stroke="null" x1="NaN" y1="-35.8159622%" x2="NaN" y2="100%" id="svg_6">
   <stop style="vector-effect: non-scaling-stroke;" stroke="null" stop-color="#CCCCCC" offset="0%"/>
   <stop style="vector-effect: non-scaling-stroke;" stroke="null" stop-color="#FEFEFE" offset="100%"/>
  </linearGradient>
  <linearGradient style="vector-effect: non-scaling-stroke;" stroke="null" x1="NaN" y1="-35.8159622%" x2="NaN" y2="100%" id="svg_9">
   <stop style="vector-effect: non-scaling-stroke;" stroke="null" stop-color="#B8B8B8" offset="0%"/>
   <stop style="vector-effect: non-scaling-stroke;" stroke="null" stop-color="#FEFEFE" offset="100%"/>
  </linearGradient>
 </defs>
 <g stroke="null">
  <title stroke="null">background</title>
  <rect stroke="null" fill="none" id="canvas_background" height="402" width="582" y="-1" x="-1"/>
 </g>
 <g stroke="null">
  <title stroke="null">Layer 1</title>
  <g stroke="null" id="UX/UI" fill="none" fill-rule="evenodd">
   <g stroke="null" id="[Services]-UX-UI-Designs-Copy-5">
    <g stroke="null" id="Graphics-Design-Graphics">
     <g stroke="null" id="MBP-graphics">
      <g stroke="null" id="Group">
       <polygon stroke="null" id="Rectangle-3" fill="url(#svg_9)" opacity="0.1" points="713.8185424804688,404.5570068359375 261.3110046386719,404.5570068359375 122.07792663574219,574.0000610351562 554.6950073242188,574.0000610351562 "/>
       <polygon stroke="null" id="Rectangle-3-Copy" fill="url(#svg_6)" opacity="0.3" points="334.9056396484375,267.0091552734375 335.90020751953125,25.802045822143555 1.7408101558685303,516.1900634765625 205.61773681640625,516.1900634765625 "/>
       <path stroke="#EAEAEA" d="m325.518906,233.854156c0,8.140559 6.586906,14.741441 14.713491,14.741441l309.508735,0c8.126575,0 14.713481,-6.598243 14.713481,-14.741441l0,-202.127055c0,-8.140559 -6.586906,-14.741441 -14.713481,-14.741441l-309.508735,0c-8.126585,0 -14.713491,6.598243 -14.713491,14.741441l0,202.127055z" id="Shape" fill="#323232" fill-rule="nonzero"/>
       <rect stroke="null" id="Rectangle-path" fill="#FFFFFF" fill-rule="nonzero" x="343.044577" y="33.775835" width="302.151992" height="197.39484"/>
       <g stroke="null" id="DP-Logo" fill-rule="nonzero" fill="#FFBB41">
        <path stroke="null" d="m564.634863,128.624884c0,-0.1615 -0.061404,-0.323 -0.184221,-0.445026l-35.951902,-35.721755c-0.016156,-0.020799 -0.033816,-0.040783 -0.05296,-0.05981l-5.649232,-5.613069c-0.245625,-0.244043 -0.65017,-0.244043 -0.895796,0l-27.978892,27.799796l-27.971672,-27.792614c-0.245625,-0.244053 -0.65017,-0.244053 -0.895796,0l-5.649232,5.613069c-0.245625,0.244043 -0.245625,0.645999 0,0.890052l34.068802,33.8579c0.252846,0.244053 0.65017,0.244053 0.903016,0l5.649232,-5.613079c0.027207,-0.027014 0.051385,-0.055972 0.072565,-0.086441l22.246265,-22.103862l29.463455,29.274838l-23.203775,23.055244c-0.245625,0.244053 -0.245625,0.646009 0,0.890052l5.649232,5.613069c0.245615,0.244053 0.65017,0.244053 0.895786,0l29.300905,-29.113339c0.126428,-0.122016 0.189637,-0.283526 0.189637,-0.445026l-0.005415,0z" id="Combined-Shape"/>
        <path stroke="null" d="m464.709114,158.572252l-29.459343,-29.271253l23.203384,-23.055244c0.245615,-0.244043 0.245615,-0.646009 0,-0.890052l-5.649142,-5.613069c-0.245615,-0.244053 -0.65016,-0.244053 -0.895776,0l-29.300393,29.113339c-0.122818,0.122016 -0.184221,0.281733 -0.184221,0.442337c0,0.164189 0.061404,0.325689 0.184221,0.447715l38.832427,38.584503l2.828176,2.81013c0.245615,0.244043 0.65016,0.244043 0.895776,0l27.972484,-27.805688l27.977127,27.798507c0.245625,0.244053 0.65016,0.244053 0.895776,0l5.649142,-5.613069c0.245615,-0.244043 0.245615,-0.645999 0,-0.890052l-34.075451,-33.8579c-0.245605,-0.244053 -0.65015,-0.244053 -0.895766,0l-2.824576,2.806544l-25.153845,24.993252z" id="Combined-Shape"/>
       </g>
       <path stroke="null" d="m263.1705,396.2022c0,3.489932 2.824455,6.316631 6.30577,6.316631l443.940102,0c3.483942,0 6.30578,-2.826699 6.30578,-6.316631l0,-9.124908c0,-3.487303 -11.334636,-15.43891 -14.818578,-15.43891l-430.238165,0c-3.481315,0 -11.497537,11.951607 -11.497537,15.43891l0,9.124908l0.002627,0z" id="Shape" fill="#4A4A4A" fill-rule="nonzero"/>
       <g stroke="null" id="Shape" fill-rule="nonzero">
        <path stroke="null" d="m710.082195,392.977392c3.665236,0 6.568514,-1.102779 7.766616,-2.950397c0.706781,-1.089615 0.751447,-2.352947 0.131382,-3.747874l-59.797203,-134.823303c-0.764574,-1.726549 -5.020973,-3.647856 -9.90533,-3.647856l-310.275947,0c-4.897484,0 -9.214314,1.934472 -10.026182,3.671546l-63.013147,134.823303c-0.656849,1.410721 -0.641075,2.676672 0.052549,3.766297c1.156063,1.821299 4.017312,2.908285 7.656273,2.908285l437.41099,0l0,0z" fill="#FFFFFF" id="svg_1"/>
        <path stroke="null" d="m338.001722,249.12656c-4.837063,0 -8.373554,1.923936 -8.835973,2.910914l-63.013137,134.823303c-0.685751,1.468627 -0.191803,2.247671 -0.031539,2.500345c0.706781,1.113295 2.795564,2.300299 6.547505,2.300299l437.413617,0c3.788715,0 5.927439,-1.213313 6.665729,-2.350308c0.168156,-0.257932 0.677879,-1.042255 0.031539,-2.497707l-59.797203,-134.823303c-0.446654,-1.010658 -4.093498,-2.863544 -8.701963,-2.863544l-310.278574,0l0,0zm0,-2.63194l310.275937,0c5.052513,0 10.015682,1.968698 11.106059,4.429539l59.797193,134.823323c2.078273,4.684833 -1.970558,8.548509 -9.098717,8.548509l-437.41099,0c-7.122903,0 -11.085029,-3.863686 -8.896404,-8.548509l63.013147,-134.823323c1.14817,-2.460842 6.161271,-4.429539 11.213774,-4.429539l0,0z" fill="#EAEAEA" id="svg_2"/>
       </g>
       <path stroke="null" d="m366.871687,256.436132l-1.442443,4.108433c-0.133999,0.373744 -0.846025,0.679046 -1.6001,0.679046l-14.821206,0c-0.751447,0 -1.242768,-0.305313 -1.087749,-0.679046l1.631619,-4.108433c0.144499,-0.365847 0.86179,-0.660624 1.602717,-0.660624l14.605766,0c0.743565,0.002629 1.240141,0.297416 1.111396,0.660624zm259.217511,6.063967l14.876382,0c0.751447,0 1.481865,0.307931 1.623736,0.686933l2.997876,7.80367c0.155019,0.397424 -0.352067,0.715891 -1.124533,0.715891l-15.236341,0c-0.772457,0 -1.508129,-0.318467 -1.642129,-0.715891l-2.632663,-7.80367c-0.126117,-0.379002 0.386223,-0.686933 1.13766,-0.686933l0.00001,0zm-20.509558,0l14.871137,0c0.759319,0 1.468728,0.307931 1.58958,0.686933l2.574869,7.80367c0.128734,0.397424 -0.394126,0.715891 -1.166582,0.715891l-15.238968,0c-0.772457,0 -1.489737,-0.318467 -1.597462,-0.715891l-2.209645,-7.80367c-0.105108,-0.379002 0.42038,-0.686933 1.177072,-0.686933zm-20.506921,0l14.871137,0c0.751427,0 1.450316,0.307931 1.552796,0.686933l2.146587,7.80367c0.107725,0.397424 -0.43089,0.715891 -1.203356,0.715891l-15.233703,0c-0.777722,0 -1.47661,-0.318467 -1.565943,-0.715891l-1.78401,-7.80367c-0.086705,-0.379002 0.451919,-0.686933 1.216494,-0.686933zm-20.512176,0l14.8685,0c0.75933,0 1.437188,0.307931 1.518649,0.686933l1.723569,7.80367c0.089343,0.397424 -0.472929,0.715891 -1.242758,0.715891l-15.236341,0c-0.777722,0 -1.460845,-0.318467 -1.526521,-0.715891l-1.361003,-7.80367c-0.063059,-0.379002 0.496586,-0.686933 1.255895,-0.686933l0.00001,0zm-20.514803,0l14.871127,0c0.754065,0 1.413541,0.307931 1.47661,0.686933l1.300562,7.80367c0.063048,0.397424 -0.504458,0.715891 -1.28218,0.715891l-15.233713,0c-0.769829,0 -1.437188,-0.318467 -1.481855,-0.715891l-0.935358,-7.80367c-0.044666,-0.379002 0.530742,-0.686933 1.284807,-0.686933zm-20.509558,0l14.871137,0c0.754065,0 1.395149,0.307931 1.439816,0.686933l0.877554,7.80367c0.044666,0.397424 -0.54387,0.715891 -1.318964,0.715891l-15.233713,0c-0.777702,0 -1.418796,-0.318467 -1.447708,-0.715891l-0.51233,-7.80367c-0.023657,-0.379002 0.570144,-0.686933 1.324209,-0.686933zm-20.509548,0l14.8685,0c0.754075,0 1.38465,0.307931 1.400414,0.686933l0.454547,7.80367c0.023637,0.397424 -0.585919,0.715891 -1.358385,0.715891l-15.231086,0c-0.780339,0 -1.408287,-0.318467 -1.410914,-0.715891l-0.086705,-7.80367c-0.005245,-0.379002 0.604301,-0.686933 1.36363,-0.686933zm-20.514813,0l14.863255,0c0.759319,0 1.37413,0.307931 1.37413,0.686933l0.028912,7.80367c0,0.397424 -0.622703,0.715891 -1.403042,0.715891l-15.233713,0c-0.772467,0 -1.38465,-0.318467 -1.366258,-0.715891l0.336312,-7.80367c0.02102,-0.379002 0.643712,-0.686933 1.400404,-0.686933zm-20.514803,0l14.876392,0c0.751427,0 1.345228,0.307931 1.329463,0.686933l-0.399371,7.80367c-0.018382,0.397424 -0.656849,0.715891 -1.431923,0.715891l-15.236351,0c-0.769829,0 -1.366258,-0.318467 -1.326846,-0.715891l0.761957,-7.80367c0.036774,-0.379002 0.675241,-0.686933 1.426679,-0.686933zm-20.506921,0l14.873765,0c0.746182,0 1.332091,0.307931 1.290052,0.686933l-0.819751,7.80367c-0.042039,0.397424 -0.704143,0.715891 -1.471355,0.715891l-15.238968,0c-0.777712,0 -1.347855,-0.318467 -1.287424,-0.715891l1.184964,-7.80367c0.060421,-0.379002 0.712026,-0.686933 1.468718,-0.686933zm-20.512176,0l14.8685,0c0.759319,0 1.318954,0.307931 1.258533,0.686933l-1.240141,7.80367c-0.068313,0.397424 -0.73831,0.715891 -1.516012,0.715891l-15.236351,0c-0.775074,0 -1.332091,-0.318467 -1.25064,-0.715891l1.602717,-7.80367c0.084078,-0.379002 0.754065,-0.686933 1.513394,-0.686933zm-20.509558,0l14.865882,0c0.756692,0 1.303189,0.307931 1.221738,0.686933l-1.665775,7.80367c-0.084078,0.397424 -0.782966,0.715891 -1.552796,0.715891l-15.241596,0c-0.769829,0 -1.313709,-0.318467 -1.208611,-0.715891l2.028362,-7.80367c0.105098,-0.379002 0.796094,-0.686933 1.552796,-0.686933zm-20.514803,0l14.871137,0c0.756692,0 1.287424,0.307931 1.184964,0.686933l-2.09142,7.80367c-0.107735,0.397424 -0.819761,0.715891 -1.597462,0.715891l-15.233724,0c-0.772457,0 -1.297944,-0.318467 -1.174455,-0.715891l2.459252,-7.80367c0.120872,-0.379002 0.827633,-0.686933 1.581707,-0.686933zm217.404928,10.561937l15.286262,0c0.777712,0 1.502874,0.323725 1.623736,0.721149l2.477644,8.251103c0.128744,0.418485 -0.417753,0.757993 -1.216494,0.757993l-15.669858,0c-0.798741,0 -1.523894,-0.339518 -1.631619,-0.757993l-2.096675,-8.251103c-0.097215,-0.397424 0.449282,-0.721149 1.227003,-0.721149zm21.08233,0l26.539448,0c0.769829,0 1.523894,0.323725 1.68154,0.721149l3.163405,8.251103c0.162901,0.418485 -0.354704,0.757993 -1.150808,0.757993l-27.201562,0c-0.793476,0 -1.542296,-0.339518 -1.67103,-0.757993l-2.545957,-8.251103c-0.115607,-0.397424 0.415135,-0.721149 1.184964,-0.721149zm-42.162032,0l15.281007,0c0.780349,0 1.48711,0.323725 1.586952,0.721149l2.030999,8.251103c0.10246,0.418485 -0.459802,0.757993 -1.258533,0.757993l-15.669868,0c-0.796104,0 -1.513384,-0.339518 -1.592207,-0.757993l-1.644766,-8.251103c-0.078823,-0.397424 0.486076,-0.721149 1.266415,-0.721149zm-21.090212,0l15.286262,0c0.775094,0 1.471355,0.323725 1.547551,0.721149l1.57907,8.251103c0.084078,0.418485 -0.499203,0.757993 -1.292679,0.757993l-15.672496,0c-0.790859,0 -1.48712,-0.339518 -1.550168,-0.757993l-1.195484,-8.251103c-0.060421,-0.397424 0.528115,-0.721149 1.297944,-0.721149zm-21.08233,0l15.281017,0c0.780339,0 1.45558,0.323725 1.508129,0.721149l1.135043,8.251103c0.055176,0.418485 -0.541252,0.757993 -1.339983,0.757993l-15.669858,0c-0.798731,0 -1.473983,-0.339518 -1.510767,-0.757993l-0.74881,-8.251103c-0.034147,-0.397424 0.564889,-0.721149 1.345228,-0.721149zm-21.084947,0l15.286262,0c0.775094,0 1.426679,0.323725 1.460845,0.721149l0.685751,8.251103c0.036774,0.418485 -0.580664,0.757993 -1.368885,0.757993l-15.672496,0c-0.796104,0 -1.45558,-0.339518 -1.473962,-0.757993l-0.29691,-8.251103c-0.015765,-0.397424 0.601673,-0.721149 1.379395,-0.721149zm-21.087575,0l15.280997,0c0.782966,0 1.416179,0.323725 1.429316,0.721149l0.239097,8.251103c0.0105,0.418485 -0.620075,0.757993 -1.418806,0.757993l-15.667241,0c-0.801358,0 -1.439816,-0.339518 -1.431944,-0.757993l0.147147,-8.251103c0.007872,-0.397424 0.643712,-0.721149 1.421424,-0.721149l0.00001,0zm-21.084967,0l15.283635,0c0.782966,0 1.397787,0.323725 1.38465,0.721149l-0.207558,8.251103c-0.013137,0.418485 -0.659487,0.757993 -1.463473,0.757993l-15.664603,0c-0.798741,0 -1.418806,-0.339518 -1.387287,-0.757993l0.596428,-8.251103c0.031529,-0.397424 0.683124,-0.721149 1.458208,-0.721149zm-21.084947,0l15.283635,0c0.777712,0 1.382012,0.323725 1.35311,0.721149l-0.656849,8.251103c-0.039412,0.418485 -0.712026,0.757993 -1.505512,0.757993l-15.667231,0c-0.803986,0 -1.403042,-0.339518 -1.342601,-0.757993l1.040445,-8.251103c0.047304,-0.397424 0.714653,-0.721149 1.494992,-0.721149l0.00001,0zm-21.087585,0l15.286262,0c0.780349,0 1.366258,0.323725 1.313709,0.721149l-1.108779,8.251103c-0.055166,0.418485 -0.7488,0.757993 -1.542286,0.757993l-15.67774,0c-0.793476,0 -1.376767,-0.339518 -1.295317,-0.757993l1.48712,-8.251103c0.076186,-0.397424 0.761947,-0.721149 1.537031,-0.721149zm-21.084957,0l15.2889,0c0.775074,0 1.345228,0.323725 1.263777,0.721149l-1.552796,8.251103c-0.078833,0.418485 -0.788221,0.757993 -1.586952,0.757993l-15.669868,0c-0.798731,0 -1.36363,-0.339518 -1.26116,-0.757993l1.939039,-8.251103c0.097195,-0.397424 0.803976,-0.721149 1.57906,-0.721149zm-21.08232,0l15.283625,0c0.777722,0 1.332101,0.323725 1.234886,0.721149l-2.007342,8.251103c-0.099833,0.418485 -0.827623,0.757993 -1.626354,0.757993l-15.669878,0c-0.798721,0 -1.342601,-0.339518 -1.221738,-0.757993l2.390938,-8.251103c0.115607,-0.397424 0.838153,-0.721149 1.615864,-0.721149zm-21.087585,0l15.28889,0c0.772457,0 1.311071,0.323725 1.192847,0.721149l-2.454007,8.251103c-0.126117,0.418485 -0.874917,0.757993 -1.67103,0.757993l-15.667241,0c-0.801348,0 -1.321581,-0.339518 -1.179699,-0.757993l2.837603,-8.251103c0.139254,-0.397424 0.874917,-0.721149 1.652638,-0.721149zm243.813014,22.992554l16.192718,0c0.822378,0 1.602717,0.363198 1.744599,0.810631l2.921681,9.272286c0.149764,0.471113 -0.417763,0.850125 -1.26116,0.850125l-16.623608,0c-0.846035,0 -1.629001,-0.381641 -1.757746,-0.850125l-2.485526,-9.272286c-0.120862,-0.447433 0.44141,-0.810631 1.269042,-0.810631zm22.330343,0l22.154314,0c0.819751,0 1.628981,0.363198 1.802402,0.810631l3.554873,9.272286c0.181293,0.471113 -0.354694,0.850125 -1.198092,0.850125l-22.74285,0c-0.835515,0 -1.644756,-0.381641 -1.797147,-0.850125l-2.995239,-9.272286c-0.147147,-0.447433 0.401978,-0.810631 1.221738,-0.810631zm-44.66595,0l16.195346,0c0.819751,0 1.584335,0.363198 1.697315,0.810631l2.41984,9.272286c0.120862,0.471113 -0.462429,0.850125 -1.305816,0.850125l-16.626255,0c-0.84077,0 -1.607972,-0.381641 -1.710442,-0.850125l-1.981068,-9.272286c-0.097215,-0.447433 0.488703,-0.810631 1.311081,-0.810631zm-22.335597,0l16.192718,0c0.825005,0 1.563305,0.363198 1.657893,0.810631l1.912755,9.272286c0.097215,0.471113 -0.501831,0.850125 -1.350493,0.850125l-16.623608,0c-0.846025,0 -1.586952,-0.381641 -1.668403,-0.850125l-1.47661,-9.272286c-0.070941,-0.447433 0.53336,-0.810631 1.355748,-0.810631zm49.665904,13.412317l2.706231,9.853953c0.139254,0.500061 -0.457174,0.908011 -1.318964,0.908011l-17.149096,0c-0.874927,0 -1.67103,-0.405321 -1.786638,-0.908011l-2.249057,-9.853953c-0.110352,-0.47902 0.486066,-0.863269 1.339973,-0.863269l16.686677,0c0.846025,0 1.636874,0.384249 1.770873,0.863269zm-23.06076,0l2.175488,9.853953c0.110352,0.500061 -0.504468,0.908011 -1.379385,0.908011l-23.454876,0c-0.867044,0 -1.636874,-0.405321 -1.715707,-0.908011l-1.573815,-9.853953c-0.076196,-0.47902 0.549134,-0.863269 1.392532,-0.863269l22.826928,0c0.85128,0 1.621109,0.384249 1.728834,0.863269zm46.126775,0l3.242218,9.853953c0.162911,0.500061 -0.404615,0.908011 -1.274287,0.908011l-17.149096,0c-0.869672,0 -1.69205,-0.405321 -1.828677,-0.908011l-2.787681,-9.853953c-0.141882,-0.47902 0.438782,-0.863269 1.28218,-0.863269l16.694549,0c0.848662,0 1.660531,0.384249 1.820794,0.863269zm-242.533462,-0.863269l16.689304,0c0.846025,0 1.458208,0.386888 1.360993,0.863269l-1.965293,9.853953c-0.097225,0.500061 -0.880192,0.908011 -1.755108,0.908011l-17.146468,0c-0.867054,0 -1.47661,-0.405321 -1.355748,-0.908011l2.43036,-9.853953c0.110342,-0.476381 0.898574,-0.863269 1.741961,-0.863269zm23.016104,0l22.826928,0c0.846025,0 1.484482,0.386888 1.421424,0.863269l-1.28217,9.853953c-0.065686,0.500061 -0.822378,0.908011 -1.697315,0.908011l-23.452248,0c-0.869672,0 -1.497619,-0.405321 -1.403032,-0.908011l1.889108,-9.853953c0.089323,-0.476381 0.85128,-0.863269 1.697305,-0.863269zm144.173786,0.863269l1.497619,9.853953c0.073578,0.500061 -0.564879,0.908011 -1.434551,0.908011l-116.470404,0c-0.867044,0 -1.523894,-0.405321 -1.463463,-0.908011l1.208611,-9.853953c0.060421,-0.476381 0.796104,-0.863269 1.639501,-0.863269l113.359537,0c0.848662,0 1.58959,0.384249 1.663148,0.863269zm98.401715,0l3.780833,9.853953c0.191803,0.500061 -0.359939,0.908011 -1.226983,0.908011l-17.143851,0c-0.872299,0 -1.718324,-0.405321 -1.889108,-0.908011l-3.321051,-9.853953c-0.162891,-0.47902 0.399371,-0.863269 1.248033,-0.863269l16.689294,0c0.843397,0 1.684168,0.384249 1.862833,0.863269zm-118.125669,-13.412317l16.200601,0c0.822388,0 1.539658,0.363198 1.605354,0.810631l1.410914,9.272286c0.073568,0.471113 -0.551762,0.850125 -1.392532,0.850125l-16.626235,0c-0.848662,0 -1.571188,-0.381641 -1.618492,-0.850125l-0.980014,-9.272286c-0.044666,-0.447433 0.578036,-0.810631 1.400404,-0.810631zm-22.325088,0l16.192728,0c0.819741,0 1.518629,0.363198 1.563305,0.810631l0.903819,9.272286c0.049931,0.471113 -0.596408,0.850125 -1.437188,0.850125l-16.626245,0c-0.848642,0 -1.550168,-0.381641 -1.573805,-0.850125l-0.472939,-9.272286c-0.023647,-0.447433 0.620065,-0.810631 1.450326,-0.810631zm-22.335597,0l16.187453,0c0.822388,0 1.508139,0.363198 1.529159,0.810631l0.399371,9.272286c0.02102,0.471113 -0.64635,0.850125 -1.494992,0.850125l-16.618363,0c-0.84077,0 -1.529159,-0.381641 -1.526521,-0.850125l0.028902,-9.272286c0.002627,-0.447433 0.667349,-0.810631 1.494992,-0.810631zm-22.340852,0l16.192718,0c0.825005,0 1.48711,0.363198 1.479227,0.810631l-0.099843,9.272286c-0.002627,0.471113 -0.691006,0.850125 -1.542286,0.850125l-16.620991,0c-0.84077,0 -1.502874,-0.381641 -1.4766,-0.850125l0.530742,-9.272286c0.028892,-0.447433 0.71727,-0.810631 1.537031,-0.810631zm-22.33298,0l16.192718,0c0.822378,0 1.468718,0.363198 1.439816,0.810631l-0.604301,9.272286c-0.034157,0.471113 -0.740927,0.850125 -1.58958,0.850125l-16.623618,0c-0.84077,0 -1.479227,-0.381641 -1.426679,-0.850125l1.037818,-9.272286c0.044676,-0.447433 0.74882,-0.810631 1.573825,-0.810631zm-22.33297,0l16.195346,0c0.819741,0 1.439816,0.363198 1.38464,0.810631l-1.108759,9.272286c-0.057814,0.471113 -0.785604,0.850125 -1.623746,0.850125l-16.628863,0c-0.846035,0 -1.460845,-0.381641 -1.379395,-0.850125l1.539658,-9.272286c0.081451,-0.447433 0.798741,-0.810631 1.621119,-0.810631zm-22.33298,0l16.190101,0c0.819751,0 1.424051,0.363198 1.350483,0.810631l-1.615854,9.272286c-0.081451,0.471113 -0.827633,0.850125 -1.676285,0.850125l-16.620991,0c-0.846025,0 -1.447698,-0.381641 -1.342611,-0.850125l2.041499,-9.272286c0.099843,-0.447433 0.85128,-0.810631 1.673658,-0.810631zm-22.335597,0l16.192718,0c0.822378,0 1.408287,0.363198 1.300562,0.810631l-2.115057,9.272286c-0.107725,0.471113 -0.877554,0.850125 -1.720952,0.850125l-16.623618,0c-0.848652,0 -1.424051,-0.381641 -1.295307,-0.850125l2.548585,-9.272286c0.126117,-0.447433 0.888064,-0.810631 1.713069,-0.810631zm-50.624909,0l44.487284,0c0.819751,0 1.382012,0.363198 1.255905,0.810631l-2.616908,9.272286c-0.139244,0.471113 -0.930103,0.850125 -1.770873,0.850125l-45.669611,0c-0.838143,0 -1.371502,-0.381641 -1.187592,-0.850125l3.69151,-9.272286c0.178666,-0.447433 0.987907,-0.810631 1.810285,-0.810631zm260.63368,-11.827909l15.725044,0c0.793476,0 1.542286,0.342147 1.665775,0.7659l2.530192,8.737999c0.126117,0.444804 -0.4309,0.805374 -1.253268,0.805374l-16.132297,0c-0.817123,0 -1.571188,-0.360569 -1.676285,-0.805374l-2.128205,-8.737999c-0.099843,-0.423753 0.465056,-0.7659 1.269042,-0.7659zm21.689258,0l31.633999,0c0.798731,0 1.576453,0.342147 1.741981,0.7659l3.347306,8.737999c0.173421,0.444804 -0.352067,0.805374 -1.16919,0.805374l-32.456377,0c-0.817123,0 -1.586952,-0.360569 -1.718324,-0.805374l-2.598506,-8.737999c-0.126117,-0.423753 0.417753,-0.7659 1.219111,-0.7659zm-43.38377,0l15.722417,0c0.801358,0 1.526521,0.342147 1.626364,0.7659l2.057264,8.737999c0.10247,0.444804 -0.478194,0.805374 -1.295317,0.805374l-16.132287,0c-0.819761,0 -1.550178,-0.360569 -1.634256,-0.805374l-1.650011,-8.737999c-0.076196,-0.423753 0.509723,-0.7659 1.305816,-0.7659l0.00001,0zm-21.691885,0l15.727662,0c0.796104,0 1.502884,0.342147 1.57908,0.7659l1.584325,8.737999c0.076196,0.444804 -0.514968,0.805374 -1.334728,0.805374l-16.134915,0c-0.819751,0 -1.529149,-0.360569 -1.592197,-0.805374l-1.177092,-8.737999c-0.052549,-0.423753 0.549134,-0.7659 1.347866,-0.7659zm-21.691885,0l15.722407,0c0.798741,0 1.48712,0.342147 1.542296,0.7659l1.106141,8.737999c0.055176,0.444804 -0.557017,0.805374 -1.376767,0.805374l-16.132287,0c-0.819751,0 -1.516022,-0.360569 -1.550168,-0.805374l-0.698888,-8.737999c-0.031529,-0.423753 0.588536,-0.7659 1.387267,-0.7659zm-21.691885,0l15.719789,0c0.806603,0 1.473973,0.342147 1.502874,0.7659l0.633202,8.737999c0.034157,0.444804 -0.606928,0.805374 -1.426689,0.805374l-16.12965,0c-0.822388,0 -1.497629,-0.360569 -1.508139,-0.805374l-0.22595,-8.737999c-0.007892,-0.423753 0.633202,-0.7659 1.434561,-0.7659zm-21.69715,0l15.727672,0c0.803996,0 1.452963,0.342147 1.458208,0.7659l0.160284,8.737999c0.01051,0.444804 -0.648967,0.805374 -1.471345,0.805374l-16.132297,0c-0.819751,0 -1.473973,-0.360569 -1.460845,-0.805374l0.254871,-8.737999c0.0105,-0.423753 0.669987,-0.7659 1.463453,-0.7659zm-21.68662,0l15.730289,0c0.796104,0 1.424061,0.342147 1.408297,0.7659l-0.312655,8.737999c-0.018402,0.444804 -0.693644,0.805374 -1.513394,0.805374l-16.132297,0c-0.822368,0 -1.452953,-0.360569 -1.410904,-0.805374l0.722525,-8.737999c0.036784,-0.423753 0.704153,-0.7659 1.508139,-0.7659zm-21.689258,0l15.722407,0c0.801358,0 1.416169,0.342147 1.376767,0.7659l-0.793476,8.737999c-0.039412,0.444804 -0.735683,0.805374 -1.558061,0.805374l-16.132277,0c-0.819761,0 -1.434571,-0.360569 -1.371522,-0.805374l1.200729,-8.737999c0.057804,-0.423753 0.754065,-0.7659 1.555433,-0.7659zm-21.69714,0l15.725034,0c0.798731,0 1.397787,0.342147 1.337356,0.7659l-1.266415,8.737999c-0.065676,0.444804 -0.780339,0.805374 -1.60009,0.805374l-16.132287,0c-0.817133,0 -1.416169,-0.360569 -1.329473,-0.805374l1.676295,-8.737999c0.078823,-0.423753 0.793476,-0.7659 1.58958,-0.7659zm-21.689268,0l15.725054,0c0.801348,0 1.37413,0.342147 1.295297,0.7659l-1.741961,8.737999c-0.089343,0.444804 -0.825005,0.805374 -1.647383,0.805374l-16.12967,0c-0.822378,0 -1.397777,-0.360569 -1.287424,-0.805374l2.146597,-8.737999c0.107725,-0.423753 0.84077,-0.7659 1.639491,-0.7659zm-21.691885,0l15.727672,0c0.803996,0 1.35312,0.342147 1.248023,0.7659l-2.220155,8.737999c-0.11299,0.444804 -0.859172,0.805374 -1.684178,0.805374l-16.134915,0c-0.819761,0 -1.371512,-0.360569 -1.240141,-0.805374l2.62478,-8.737999c0.131372,-0.423753 0.877554,-0.7659 1.678913,-0.7659zm-21.691875,0l15.727672,0c0.798721,0 1.342601,0.342147 1.208601,0.7659l-2.690466,8.737999c-0.139254,0.444804 -0.911711,0.805374 -1.728834,0.805374l-16.137542,0c-0.819761,0 -1.355748,-0.360569 -1.192857,-0.805374l3.097719,-8.737999c0.149764,-0.423753 0.919603,-0.7659 1.715707,-0.7659zm-15.859044,-3.792605l11.282087,0c0.793486,0 1.308454,0.336879 1.153445,0.752736l-4.54279,12.546408c-0.162901,0.444794 -0.951122,0.805374 -1.776138,0.805374l-11.681458,0c-0.817123,0 -1.337346,-0.360579 -1.15869,-0.805374l4.992082,-12.546408c0.165519,-0.415856 0.937985,-0.752736 1.731461,-0.752736zm2.908543,-7.37204l15.291517,0c0.772457,0 1.290062,0.323725 1.14818,0.721149l-2.900661,8.251103c-0.149764,0.418485 -0.911711,0.757993 -1.707814,0.757993l-15.667241,0c-0.798731,0 -1.303199,-0.339518 -1.140298,-0.757993l3.284267,-8.251103c0.160264,-0.397424 0.919593,-0.721149 1.69205,-0.721149zm4.169694,-10.561937l25.80904,0c0.751427,0 1.269042,0.307931 1.145553,0.686933l-2.517065,7.80367c-0.126117,0.397424 -0.853907,0.715891 -1.631619,0.715891l-26.436988,0c-0.772457,0 -1.27167,-0.318467 -1.116651,-0.715891l3.108229,-7.80367c0.149764,-0.379002 0.882809,-0.686933 1.639501,-0.686933zm38.551973,-6.063967l-1.224376,4.108433c-0.107725,0.373744 -0.814496,0.679046 -1.565933,0.679046l-14.818588,0c-0.759319,0 -1.255905,-0.305313 -1.129778,-0.679046l1.413541,-4.108433c0.120852,-0.365847 0.822378,-0.660624 1.565933,-0.660624l14.605766,0c0.746182,0.002629 1.26115,0.297416 1.153435,0.660624zm-40.669657,58.289368l-1.618492,4.59536c-0.173411,0.500061 -1.022053,0.908011 -1.89699,0.908011l-17.141213,0c-0.869672,0 -1.408287,-0.405311 -1.211239,-0.908011l1.826049,-4.59536c0.19443,-0.492164 1.04571,-0.886949 1.904882,-0.886949l16.894234,0c0.859162,0 1.410924,0.394785 1.242768,0.886949zm21.791728,0l-1.382022,4.59536c-0.147137,0.500061 -0.977397,0.908011 -1.849696,0.908011l-17.138596,0c-0.872289,0 -1.442443,-0.405311 -1.269022,-0.908011l1.594835,-4.59536c0.170773,-0.492164 1.008916,-0.886949 1.870716,-0.886949l16.891607,0c0.856535,0 1.429306,0.394785 1.28218,0.886949zm1.841804,-6.121862l-1.347855,4.463755c-0.144519,0.484268 -0.959005,0.88432 -1.812912,0.88432l-16.896862,0c-0.859172,0 -1.421434,-0.400053 -1.255905,-0.88432l1.552796,-4.463755c0.162901,-0.476381 0.990534,-0.863269 1.833931,-0.863269l16.65252,0c0.846025,0 1.418796,0.386888 1.274287,0.863269zm19.947287,6.121862l-1.150798,4.59536c-0.12349,0.500061 -0.927486,0.908011 -1.802402,0.908011l-17.135968,0c-0.880182,0 -1.46609,-0.405311 -1.316326,-0.908011l1.36363,-4.59536c0.149754,-0.492164 0.956367,-0.886949 1.823412,-0.886949l16.883734,0c0.864417,0 1.458208,0.394785 1.334718,0.886949zm17.26733,-58.289368l-0.993161,4.108433c-0.09196,0.373744 -0.777712,0.679046 -1.531776,0.679046l-14.818578,0c-0.754065,0 -1.276925,-0.305313 -1.166572,-0.679046l1.190209,-4.108433c0.10248,-0.365847 0.788231,-0.660624 1.534414,-0.660624l14.600501,0c0.746192,0.002629 1.274307,0.297416 1.184964,0.660624zm20.181129,0l-0.772457,4.108433c-0.070941,0.373744 -0.735673,0.679046 -1.48711,0.679046l-14.826471,0c-0.74881,0 -1.287434,-0.305313 -1.203356,-0.679046l0.961632,-4.108433c0.086715,-0.365847 0.764574,-0.660624 1.502884,-0.660624l14.608393,0c0.743555,0.002629 1.284787,0.297416 1.216484,0.660624zm20.183746,0l-0.549124,4.108433c-0.052549,0.373744 -0.706771,0.679046 -1.458208,0.679046l-14.823833,0c-0.754075,0 -1.305827,-0.305313 -1.234896,-0.679046l0.743555,-4.108433c0.063069,-0.365847 0.714663,-0.660624 1.455601,-0.660624l14.608383,0c0.74881,0.002629 1.311081,0.297416 1.258523,0.660624zm20.183756,0l-0.331057,4.108433c-0.028892,0.373744 -0.664722,0.679046 -1.416169,0.679046l-14.821206,0c-0.756692,0 -1.324219,-0.305313 -1.274297,-0.679046l0.517605,-4.108433c0.047284,-0.365847 0.677869,-0.660624 1.426679,-0.660624l14.605756,0c0.73831,0.002629 1.318964,0.297416 1.292689,0.660624zm21.526367,0l-0.09197,4.108433c-0.005245,0.373744 -0.620055,0.679046 -1.379375,0.679046l-16.176954,0c-0.756692,0 -1.342621,-0.305313 -1.313709,-0.679046l0.291646,-4.108433c0.031529,-0.365847 0.651585,-0.660624 1.392522,-0.660624l15.945739,0c0.743565,0.002629 1.337346,0.297416 1.332101,0.660624zm21.528984,0l0.149764,4.108433c0.015765,0.373744 -0.588536,0.679046 -1.339983,0.679046l-16.184836,0c-0.751447,0 -1.358365,-0.305313 -1.350493,-0.679046l0.055186,-4.108433c0.005255,-0.365847 0.609556,-0.660624 1.35311,-0.660624l15.950994,0c0.73831,0.002629 1.355748,0.297416 1.366258,0.660624zm21.526357,0l0.386223,4.108433c0.036794,0.373744 -0.549124,0.679046 -1.300562,0.679046l-16.182208,0c-0.756692,0 -1.371502,-0.305313 -1.392532,-0.679046l-0.173401,-4.108433c-0.02103,-0.365847 0.564889,-0.660624 1.305816,-0.660624l15.948377,0c0.743555,0.002629 1.37413,0.297416 1.408287,0.660624zm21.523729,0l0.627948,4.108433c0.052559,0.373744 -0.507085,0.679046 -1.26115,0.679046l-16.182208,0c-0.75933,0 -1.400404,-0.305313 -1.437188,-0.679046l-0.417763,-4.108433c-0.036784,-0.365847 0.538625,-0.660624 1.279542,-0.660624l15.951004,0c0.743565,0.002629 1.387277,0.297416 1.439816,0.660624zm21.528984,0l0.8618,4.108433c0.076196,0.373744 -0.467684,0.679046 -1.219121,0.679046l-16.184836,0c-0.751437,0 -1.408287,-0.305313 -1.471355,-0.679046l-0.656849,-4.108433c-0.055176,-0.365847 0.496586,-0.660624 1.240141,-0.660624l15.948367,0c0.743565,0.002629 1.403042,0.297416 1.481855,0.660624zm21.526367,0l1.100886,4.108433c0.099833,0.373744 -0.425655,0.679046 -1.177082,0.679046l-16.182219,0c-0.756692,0 -1.431934,-0.305313 -1.513384,-0.679046l-0.895946,-4.108433c-0.076196,-0.365847 0.459802,-0.660624 1.205984,-0.660624l15.948377,0c0.7383,0.002629 1.413541,0.297416 1.513384,0.660624zm21.528984,0l1.342601,4.108433c0.120862,0.373744 -0.388861,0.679046 -1.145553,0.679046l-16.179581,0c-0.756692,0 -1.450326,-0.305313 -1.550168,-0.679046l-1.135033,-4.108433c-0.097215,-0.365847 0.417753,-0.660624 1.161307,-0.660624l15.945739,0c0.740927,0.002629 1.445081,0.297416 1.560688,0.660624zm21.526357,0l1.581697,4.108433c0.139254,0.373744 -0.357322,0.679046 -1.100886,0.679046l-16.190081,0c-0.74882,0 -1.463473,-0.305313 -1.586962,-0.679046l-1.368875,-4.108433c-0.12349,-0.365847 0.380968,-0.660624 1.119268,-0.660624l15.953631,0c0.735673,0.002629 1.452953,0.297416 1.592207,0.660624z" id="Tastatur_1_" fill="#202020" fill-rule="nonzero" opacity="0.3"/>
       <path stroke="null" d="m415.30797,381.729216c-0.323175,1.971306 1.841814,3.582053 4.844945,3.582053l147.392367,0c3.008376,0 5.202267,-1.610747 4.902749,-3.582053l-8.184388,-54.212531c-0.233842,-1.55547 -2.564349,-2.805638 -5.207521,-2.805638l-129.539128,0c-2.640545,0 -4.984189,1.252807 -5.246933,2.805638l-8.96209,54.212531z" id="Shape" fill="#CCCCCC" fill-rule="nonzero" opacity="0.3"/>
       <path stroke="null" d="m363.868556,248.595597c0,2.03449 2.351537,3.947901 5.254825,3.947901l249.341073,0c2.900661,0 5.254825,-1.910782 5.254825,-3.947901l0,0c0,-2.037109 -2.354164,-3.947891 -5.254825,-3.947891l-249.338456,0c-2.905906,0 -5.257443,1.910782 -5.257443,3.947891l0,0z" id="Shape" fill="#EAEAEA" fill-rule="nonzero"/>
      </g>
     </g>
     <g stroke="#D9D9D9" id="Lines" stroke-linecap="square" opacity="0.5">
      <path stroke="null" d="m621.573675,171.822061l-247.092207,0" id="Line-4"/>
      <path stroke="null" d="m621.573675,181.789298l-247.092207,0" id="Line-4-Copy-7"/>
      <path stroke="null" d="m621.573675,85.107104l-247.092207,0" id="Line-4-Copy"/>
      <path stroke="null" d="m621.573675,75.139867l-247.092207,0" id="Line-4-Copy-6"/>
      <path stroke="null" d="m567.86948,41.251266l0,167.901303" id="Line-4-Copy-2"/>
      <path stroke="null" d="m577.814703,41.251266l0,167.901303" id="Line-4-Copy-5"/>
      <path stroke="null" d="m422.669258,41.251266l0,167.901303" id="Line-4-Copy-3"/>
      <path stroke="null" d="m412.724045,41.251266l0,167.901303" id="Line-4-Copy-4"/>
     </g>
     <g id="Product">
        <circle stroke="null" id="Oval-3" fill="#FFBB41" cx="666.288841" cy="37.25782" r="34.649506"/>
        <g stroke="null" id="Group" fill-rule="nonzero" fill="#FFFFFF">
        <path stroke="null" d="m648.720998,26.828758c0,-0.231079 0.15559,-0.462149 0.388971,-0.616195l17.659601,-10.090099c0.233381,-0.154056 0.466781,-0.154056 0.700162,0l17.659601,10.090099c0.233381,0.154046 0.388981,0.385116 0.388981,0.616195l0,0l0,0l0,20.257231c0,0.231069 -0.1556,0.462139 -0.388981,0.616195l-17.659601,10.090099c-0.0778,0.077023 -0.233381,0.077023 -0.388971,0.077023c-0.1556,0 -0.233391,0 -0.388981,-0.077023l-17.58181,-10.167132c-0.233381,-0.154036 -0.388971,-0.385106 -0.388971,-0.616185l0,-20.180208l0,0l0,0zm35.396992,1.23238l-16.259277,9.319858l0,18.562723l16.259277,-9.319868l0,-18.562713zm-17.659601,27.88258l0,-18.562723l-6.379238,-3.620107c-0.311181,-0.231069 -0.466781,-0.616195 -0.233381,-1.001311c0.233381,-0.308092 0.622362,-0.462139 1.011333,-0.231069l6.379248,3.620107l16.259267,-9.319858l-16.259267,-9.319878l-16.259287,9.319878l5.679076,3.234991c0.311181,0.231069 0.466771,0.616185 0.233391,1.001311c-0.233391,0.308092 -0.622362,0.462139 -1.011343,0.231069l-5.679076,-3.234991l0,18.562713l16.259277,9.319868z" id="Shape"/>
        <path stroke="null" d="m659.620953,41.921733c0.15912,0 0.238686,0 0.397806,-0.07654c0.238686,-0.153079 0.397816,-0.382678 0.397816,-0.612297l0,-7.653723l17.742275,-9.873302c0.238686,-0.153079 0.397806,-0.382688 0.397806,-0.612297c0,-0.229619 -0.15912,-0.459228 -0.397806,-0.612297l-4.296342,-2.372659c-0.238686,-0.153069 -0.477371,-0.153069 -0.716057,0l-18.060516,10.026381c-0.238686,0.153079 -0.397806,0.382678 -0.397806,0.612297l0,8.036411c0,0.229609 0.15912,0.459218 0.397806,0.612297l4.296332,2.372648c0,0.153079 0.15913,0.153079 0.238686,0.153079zm16.628412,-18.751619l-17.026218,9.414074c-0.238686,0.153079 -0.397806,0.382688 -0.397806,0.612297l0,6.811817l-2.784663,-1.530753l0,-7.194495l17.344459,-9.643693l2.864228,1.530753z" id="Shape"/>
        </g>
     </g>
     <g stroke="null" id="ellipse-connect">
      <circle stroke="null" id="Oval-3" fill="#FFBB41" cx="665.581747" cy="125.856116" r="35.65036"/>
      <g stroke="null" id="Group" fill-rule="nonzero" fill="#FFFFFF">
       <g stroke="null" id="Shape">
        <path stroke="null" d="m654.387383,110.210465c1.655876,0 3.063375,1.282234 3.063375,2.965183c0,0.560979 -0.165592,1.041827 -0.413969,1.522663l7.86541,7.613327c0.331173,0.320561 0.331173,0.721265 0,1.041827c-0.165581,0.160275 -0.331173,0.240418 -0.57955,0.240418c-0.165592,0 -0.413969,-0.080143 -0.579561,-0.240418l-7.865421,-7.613327c-0.413969,0.240418 -0.99353,0.400704 -1.490284,0.400704c-1.655887,0 -3.063375,-1.282245 -3.063375,-2.965194c0,-1.602806 1.324703,-2.965194 3.063375,-2.965194l0,0.000011zm0,4.407704c0.827927,0 1.490284,-0.641122 1.490284,-1.44252c0,-0.801398 -0.662357,-1.44252 -1.490284,-1.44252c-0.827938,0 -1.490295,0.641122 -1.490295,1.44252c-0.082796,0.801398 0.662357,1.44252 1.490295,1.44252z" id="svg_3"/>
        <path stroke="null" d="m663.4947,107.726107c0,-1.602795 1.324703,-2.965183 3.063375,-2.965183c1.655876,0 3.063375,1.282245 3.063375,2.965183c0,1.362388 -0.99353,2.484358 -2.235426,2.804908l0,10.899082c0,0.400704 -0.331173,0.721265 -0.745153,0.721265c-0.413969,0 -0.745142,-0.320561 -0.745142,-0.721265l0,-10.899071c-1.407499,-0.320561 -2.401029,-1.442531 -2.401029,-2.804919zm4.55367,0c0,-0.801398 -0.662346,-1.44252 -1.490295,-1.44252c-0.827938,0 -1.490284,0.641122 -1.490284,1.44252c0,0.801408 0.662346,1.442531 1.490284,1.442531c0.827949,0 1.490295,-0.641122 1.490295,-1.442531z" id="svg_4"/>
        <path stroke="null" d="m675.996587,114.858598c-0.331173,-0.480847 -0.579561,-1.041827 -0.579561,-1.682949c0,-1.602806 1.324703,-2.965194 3.063375,-2.965194c1.655876,0 3.063375,1.282245 3.063375,2.965194c0,1.602806 -1.324703,2.965194 -3.063375,2.965194c-0.496776,0 -0.910734,-0.080143 -1.324703,-0.320561l-7.782636,7.533184c-0.165581,0.160275 -0.331173,0.240418 -0.57955,0.240418c-0.165592,0 -0.413958,-0.080143 -0.579561,-0.240418c-0.331173,-0.320561 -0.331173,-0.721265 0,-1.041827l7.782636,-7.453041zm3.974098,-1.682949c0,-0.801398 -0.662346,-1.44252 -1.490284,-1.44252c-0.827938,0 -1.490284,0.641122 -1.490284,1.44252c0,0.801398 0.662346,1.44252 1.490284,1.44252c0.827938,0 1.490284,-0.641122 1.490284,-1.44252z" id="svg_5"/>
       </g>
       <path stroke="null" d="m651.704131,127.043888c1.648639,0 3.049982,1.295948 3.049982,2.996876c0,0.566983 -0.164864,1.05296 -0.41216,1.538957l7.418875,7.28971c0.824319,-0.566972 1.813503,-0.971963 2.802686,-1.133945l0,-10.286618c-1.318911,-0.323984 -2.225662,-1.457951 -2.225662,-2.834894c0,-1.619943 1.318911,-2.996886 3.049982,-2.996886c1.648639,0 3.049982,1.295948 3.049982,2.996886c0,1.376944 -0.989183,2.51091 -2.225651,2.834894l0,10.286618c1.071604,0.161981 2.060787,0.566972 2.802675,1.133945l7.171579,-7.046732c-0.329728,-0.485976 -0.577024,-1.052949 -0.577024,-1.700939c0,-1.619932 1.318911,-2.996876 3.049982,-2.996876c1.64865,0 3.049982,1.295948 3.049982,2.996876c0,1.619943 -1.318911,2.996897 -3.049982,2.996897c-0.494592,0 -0.90674,-0.080996 -1.318911,-0.323995l-7.254011,7.127739c0.824319,0.971963 1.318911,2.267911 1.318911,3.644855c0,3.239875 -2.720254,5.831781 -5.9351,5.831781c-3.297278,0 -5.9351,-2.672902 -5.9351,-5.831781c0,-1.376944 0.494592,-2.591895 1.318911,-3.644855l-7.418875,-7.289731c-0.41216,0.242988 -0.989183,0.404991 -1.483786,0.404991c-1.648628,0 -3.049982,-1.295958 -3.049982,-2.996897c-0.164864,-1.619932 1.154058,-2.996876 2.802697,-2.996876zm15.085045,-2.51091c0,-0.809961 -0.659456,-1.457951 -1.483775,-1.457951c-0.824319,0 -1.483786,0.64799 -1.483786,1.457951c0,0.809971 0.659467,1.45794 1.483786,1.45794c0.824319,0 1.483775,-0.647968 1.483775,-1.45794zm13.271542,5.507796c0,-0.809982 -0.659456,-1.457951 -1.483764,-1.457951c-0.824319,0 -1.483786,0.647979 -1.483786,1.457951c0,0.809971 0.659456,1.45794 1.483786,1.45794c0.824308,0 1.483764,-0.647979 1.483764,-1.45794zm-14.755317,17.819326c2.472958,0 4.451325,-1.943927 4.451325,-4.373841c0,-2.429903 -1.978367,-4.37383 -4.451325,-4.37383c-2.472958,0 -4.451325,1.943927 -4.451325,4.37383c0,2.429914 1.978367,4.373841 4.451325,4.373841zm-13.60127,-16.361387c0.824319,0 1.483775,-0.647968 1.483775,-1.45794c0,-0.809971 -0.659456,-1.457951 -1.483775,-1.457951c-0.824319,0 -1.483786,0.647979 -1.483786,1.457951c0,0.809971 0.659467,1.45794 1.483786,1.45794z" id="Shape"/>
      </g>
     </g>
    </g>
   </g>
  </g>
 </g>
</svg>