<!--?xml version="1.0" encoding="UTF-8"?-->
<svg width="547px" height="428px" viewBox="0 0 547 428" version="1.1" xmlns="http://www.w3.org/2000/svg" xmlns:xlink="http://www.w3.org/1999/xlink" style="">
    <!-- Generator: Sketch 46.2 (44496) - http://www.bohemiancoding.com/sketch -->
    <title>Group 3</title>
    <desc>Created with Sketch.</desc>
    <defs>
        <path id="path-1" d="M116.722741,19.2207792L462.283489,19.2207792L462.283489,276.01039L116.722741,276.01039Z" class="iPEzhvmZ_0"></path>
        <mask id="mask-2" maskContentUnits="userSpaceOnUse" maskUnits="objectBoundingBox" x="0" y="0" width="345.560748" height="256.78961" fill="white">
            <use xlink:href="#path-1"></use>
        </mask>
        <path id="path-3" width="62.9688474" height="18.4519481" d="M30.7165109 30.7532468 L93.6853583 30.7532468 L93.6853583 49.205194899999995 L30.7165109 49.205194899999995 Z" class="iPEzhvmZ_1"></path>
        <mask id="mask-4" maskContentUnits="userSpaceOnUse" maskUnits="objectBoundingBox" x="0" y="0" width="62.9688474" height="18.4519481" fill="white">
            <use xlink:href="#path-3"></use>
        </mask>
        <path id="path-5" width="62.9688474" height="18.4519481" d="M30.7165109 63.812987 L93.6853583 63.812987 L93.6853583 82.2649351 L30.7165109 82.2649351 Z" class="iPEzhvmZ_2"></path>
        <mask id="mask-6" maskContentUnits="userSpaceOnUse" maskUnits="objectBoundingBox" x="0" y="0" width="62.9688474" height="18.4519481" fill="white">
            <use xlink:href="#path-5"></use>
        </mask>
        <path id="path-7" width="62.9688474" height="18.4519481" d="M30.7165109 96.8727273 L93.6853583 96.8727273 L93.6853583 115.32467539999999 L30.7165109 115.32467539999999 Z" class="iPEzhvmZ_3"></path>
        <mask id="mask-8" maskContentUnits="userSpaceOnUse" maskUnits="objectBoundingBox" x="0" y="0" width="62.9688474" height="18.4519481" fill="white">
            <use xlink:href="#path-7"></use>
        </mask>
        <path id="path-9" width="62.9688474" height="18.4519481" d="M30.7165109 129.932468 L93.6853583 129.932468 L93.6853583 148.3844161 L30.7165109 148.3844161 Z" class="iPEzhvmZ_4"></path>
        <mask id="mask-10" maskContentUnits="userSpaceOnUse" maskUnits="objectBoundingBox" x="0" y="0" width="62.9688474" height="18.4519481" fill="white">
            <use xlink:href="#path-9"></use>
        </mask>
    </defs>
    <g id="UX/UI" stroke="none" stroke-width="1" fill="none" fill-rule="evenodd">
        <g id="[Services]-UX-UI-Designs-Copy-5" transform="translate(-891.000000, -181.000000)">
            <g id="Group-3" transform="translate(891.000000, 182.000000)">
                <g id="Lines" transform="translate(31.000000, 0.000000)" stroke="#FFFFFF" stroke-linecap="square" opacity="0.100000001">
                    <path d="M1.15097691,0.383783784 L1.15097691,425.618987" id="Line" class="iPEzhvmZ_5"></path>
                    <path d="M87.0905861,0.383783784 L87.0905861,425.618987" id="Line-Copy-2" class="iPEzhvmZ_6"></path>
                    <path d="M44.1207815,0.383783784 L44.1207815,425.618987" id="Line-Copy-3" class="iPEzhvmZ_7"></path>
                    <path d="M173.030195,0.383783784 L173.030195,425.618987" id="Line-Copy-4" class="iPEzhvmZ_8"></path>
                    <path d="M216,0.383783784 L216,425.618987" id="Line-Copy-12" class="iPEzhvmZ_9"></path>
                    <path d="M302.706927,0.383783784 L302.706927,425.618987" id="Line-Copy-13" class="iPEzhvmZ_10"></path>
                    <path d="M387.111901,0.383783784 L387.111901,425.618987" id="Line-Copy-14" class="iPEzhvmZ_11"></path>
                    <path d="M129.293073,0.383783784 L129.293073,425.618987" id="Line-Copy-11" class="iPEzhvmZ_12"></path>
                    <path d="M259.737123,0.383783784 L259.737123,425.618987" id="Line-Copy-6" class="iPEzhvmZ_13"></path>
                    <path d="M344.909414,0.383783784 L344.909414,425.618987" id="Line-Copy-8" class="iPEzhvmZ_14"></path>
                    <path d="M430.849023,0.383783784 L430.849023,425.618987" id="Line-Copy-9" class="iPEzhvmZ_15"></path>
                </g>
                <g id="Lines-Copy" transform="translate(247.000000, 213.500000) rotate(-270.000000) translate(-247.000000, -213.500000) translate(117.000000, -33.000000)" stroke="#FFFFFF" stroke-linecap="square" opacity="0.100000001">
                    <path d="M1.15044248,0.383956386 L1.15044248,492.618816" id="Line-Copy-2" class="iPEzhvmZ_16"></path>
                    <path d="M87.0501475,0.383956386 L87.0501475,492.618816" id="Line-Copy-4" class="iPEzhvmZ_17"></path>
                    <path d="M130.766962,0.383956386 L130.766962,492.618816" id="Line-Copy-5" class="iPEzhvmZ_18"></path>
                    <path d="M45.6342183,0.383956386 L45.6342183,492.618816" id="Line-Copy-7" class="iPEzhvmZ_19"></path>
                    <path d="M215.132743,0.383956386 L215.132743,492.618816" id="Line-Copy-10" class="iPEzhvmZ_20"></path>
                    <path d="M172.949853,0.383956386 L172.949853,492.618816" id="Line-Copy-6" class="iPEzhvmZ_21"></path>
                    <path d="M258.849558,0.383956386 L258.849558,492.618816" id="Line-Copy-8" class="iPEzhvmZ_22"></path>
                </g>
                <g id="x" opacity="0.100000001" transform="translate(118.000000, 85.000000)" stroke="#FFFFFF" stroke-linecap="square">
                    <path d="M0.383073497,257.616071 L343.616927,0.383928571" id="Line-2" class="iPEzhvmZ_23"></path>
                    <path d="M0.383073497,257.616071 L343.616927,0.383928571" id="Line-2-Copy" transform="translate(172.000000, 129.000000) scale(1, -1) translate(-172.000000, -129.000000) " class="iPEzhvmZ_24"></path>
                </g>
                <g id="Group" transform="translate(0.000000, 66.000000)">
                    <path d="M32,0.5 C14.6030304,0.5 0.5,14.6030304 0.5,32 L0.5,264 C0.5,281.39697 14.6030304,295.5 32,295.5 L461,295.5 C478.39697,295.5 492.5,281.39697 492.5,264 L492.5,32 C492.5,14.6030304 478.39697,0.5 461,0.5 L32,0.5 Z" id="Rectangle-10" stroke="#FFFFFF" class="iPEzhvmZ_25"></path>
                    <use id="Rectangle-11" stroke="#FFBB41" mask="url(#mask-2)" stroke-width="2" stroke-dasharray="4" xlink:href="#path-1"></use>
                    <use id="Rectangle-12" stroke="#FFBB41" mask="url(#mask-4)" stroke-width="2" stroke-dasharray="3" xlink:href="#path-3"></use>
                    <use id="Rectangle-12-Copy" stroke="#FFBB41" mask="url(#mask-6)" stroke-width="2" stroke-dasharray="3" xlink:href="#path-5"></use>
                    <use id="Rectangle-12-Copy-2" stroke="#FFBB41" mask="url(#mask-8)" stroke-width="2" stroke-dasharray="3" xlink:href="#path-7"></use>
                    <use id="Rectangle-12-Copy-3" stroke="#FFBB41" mask="url(#mask-10)" stroke-width="2" stroke-dasharray="3" xlink:href="#path-9"></use>
                </g>
                <path id="Oval" stroke="#FFBB41" stroke-dasharray="3" d="M206,213.5A84.5,84.5 0,1,1 375,213.5A84.5,84.5 0,1,1 206,213.5" class="iPEzhvmZ_26"></path>
                <path id="Oval-Copy" stroke="#FFBB41" stroke-dasharray="3" d="M248,212.5A42.5,42.5 0,1,1 333,212.5A42.5,42.5 0,1,1 248,212.5" class="iPEzhvmZ_27"></path>
                <path d="M33.00221,278.981446 C33.00221,278.916183 33.0272567,278.85092 33.0773501,278.80161 L47.7419442,264.366384 C47.7485363,264.357981 47.7557373,264.349906 47.763547,264.342218 L50.0678419,262.073965 C50.1680286,261.975345 50.3330421,261.975345 50.4332288,262.073965 L61.8456768,273.307912 L73.2551781,262.076865 C73.3553648,261.978246 73.5203783,261.978246 73.620565,262.076865 L75.9248599,264.345119 C76.0250467,264.443739 76.0250467,264.606171 75.9248599,264.704791 L62.0283703,278.386827 C61.9252368,278.485447 61.7631701,278.485447 61.6600367,278.386827 L59.3557417,276.118574 C59.3446484,276.107654 59.3347834,276.095952 59.3261468,276.08364 L50.2520087,267.15143 L38.2340203,278.981446 L47.6987203,288.29811 C47.798907,288.396729 47.798907,288.559162 47.6987203,288.657782 L45.3944253,290.926035 C45.2942386,291.024655 45.1292251,291.024655 45.0290384,290.926035 L33.0773501,279.161282 C33.0257834,279.111972 33,279.046709 33,278.981446 Z" id="Combined-Shape" stroke="#FFBB41" stroke-dasharray="3" fill-rule="nonzero" class="iPEzhvmZ_28"></path>
                <path d="M73.7519701,290.847119 L85.7682793,279.018554 L76.3037415,269.70189 C76.2035565,269.603271 76.2035565,269.440838 76.3037415,269.342218 L78.607997,267.073965 C78.708182,266.975345 78.8731926,266.975345 78.9733776,267.073965 L90.9248612,278.838718 C90.9749537,278.888028 91,278.952566 91,279.017466 C91,279.083817 90.9749537,279.14908 90.9248612,279.19839 L75.0853149,294.790458 L73.9317138,295.926035 C73.8315288,296.024655 73.6665182,296.024655 73.5663332,295.926035 L62.1565001,284.689707 L50.7447749,295.923135 C50.6445899,296.021754 50.4795793,296.021754 50.3793942,295.923135 L48.0751388,293.654881 C47.9749537,293.556261 47.9749537,293.393829 48.0751388,293.295209 L61.974337,279.613173 C62.074522,279.514553 62.2395327,279.514553 62.3397177,279.613173 L63.4918454,280.747299 L73.7519701,290.847119 Z" id="Combined-Shape" stroke="#FFBB41" stroke-dasharray="3" fill-rule="nonzero" class="iPEzhvmZ_29"></path>
                <g id="Group-2" transform="translate(527.500000, 202.000000) scale(-1, 1) translate(-527.500000, -202.000000) translate(508.000000, 82.000000)" stroke="#FFBB41">
                    <path d="M12.7352941,162.083611 L12.7352941,213.429712 L38.5,213.429712 L38.5,16.6022364 L12.7352941,16.6022364 L12.7352941,131.851372 L21.2216643,131.851372 L21.2216643,162.083611 L12.7352941,162.083611 Z" id="Combined-Shape" class="iPEzhvmZ_30"></path>
                    <path d="M22.9363657,238.277246 C20.1420968,234.896807 17.9015357,231.505264 16.2146822,228.102617 C14.0879506,223.812667 12.7614879,219.343956 12.2352941,214.696486 L38.2352941,214.696486 C37.7886072,219.183579 36.4620231,223.652534 34.255542,228.103351 C32.5182766,231.607687 30.2849134,235.001205 27.5554522,238.283907 L27.5554567,238.28391 C26.4961656,239.557911 24.6046584,239.731968 23.3306573,238.672677 C23.1872184,238.553412 23.0552162,238.421029 22.9363657,238.277246 Z" id="Triangle" class="iPEzhvmZ_31"></path>
                    <path id="Rectangle-14-Copy-2" width="6.64705882" height="74.14377" d="M0.5 16.6022364 L7.14705882 16.6022364 L7.14705882 90.7460064 L0.5 90.7460064 Z" class="iPEzhvmZ_32"></path>
                    <path d="M12.73554,13.3019169 L38.4997542,13.3019169 C38.4564788,6.22420586 32.7055429,0.5 25.6176471,0.5 C18.5297512,0.5 12.7788153,6.22420586 12.73554,13.3019169 Z" id="Rectangle-14-Copy" class="iPEzhvmZ_33"></path>
                    <path id="Rectangle-15" width="6.64705882" height="22.0031949" d="M10.4411765 136.21885 L17.08823532 136.21885 L17.08823532 158.22204490000001 L10.4411765 158.22204490000001 Z" class="iPEzhvmZ_34"></path>
                </g>
            </g>
        </g>
    </g>
<style>.iPEzhvmZ_0{stroke-dasharray:1205 1207;stroke-dashoffset:1206;animation:iPEzhvmZ_draw 3600ms ease-out 0ms forwards;}.iPEzhvmZ_1{stroke-dasharray:163 165;stroke-dashoffset:164;animation:iPEzhvmZ_draw 3600ms ease-out 11ms forwards;}.iPEzhvmZ_2{stroke-dasharray:163 165;stroke-dashoffset:164;animation:iPEzhvmZ_draw 3600ms ease-out 23ms forwards;}.iPEzhvmZ_3{stroke-dasharray:163 165;stroke-dashoffset:164;animation:iPEzhvmZ_draw 3600ms ease-out 35ms forwards;}.iPEzhvmZ_4{stroke-dasharray:163 165;stroke-dashoffset:164;animation:iPEzhvmZ_draw 3600ms ease-out 47ms forwards;}.iPEzhvmZ_5{stroke-dasharray:426 428;stroke-dashoffset:427;animation:iPEzhvmZ_draw 3600ms ease-out 58ms forwards;}.iPEzhvmZ_6{stroke-dasharray:426 428;stroke-dashoffset:427;animation:iPEzhvmZ_draw 3600ms ease-out 70ms forwards;}.iPEzhvmZ_7{stroke-dasharray:426 428;stroke-dashoffset:427;animation:iPEzhvmZ_draw 3600ms ease-out 82ms forwards;}.iPEzhvmZ_8{stroke-dasharray:426 428;stroke-dashoffset:427;animation:iPEzhvmZ_draw 3600ms ease-out 94ms forwards;}.iPEzhvmZ_9{stroke-dasharray:426 428;stroke-dashoffset:427;animation:iPEzhvmZ_draw 3600ms ease-out 105ms forwards;}.iPEzhvmZ_10{stroke-dasharray:426 428;stroke-dashoffset:427;animation:iPEzhvmZ_draw 3600ms ease-out 117ms forwards;}.iPEzhvmZ_11{stroke-dasharray:426 428;stroke-dashoffset:427;animation:iPEzhvmZ_draw 3600ms ease-out 129ms forwards;}.iPEzhvmZ_12{stroke-dasharray:426 428;stroke-dashoffset:427;animation:iPEzhvmZ_draw 3600ms ease-out 141ms forwards;}.iPEzhvmZ_13{stroke-dasharray:426 428;stroke-dashoffset:427;animation:iPEzhvmZ_draw 3600ms ease-out 152ms forwards;}.iPEzhvmZ_14{stroke-dasharray:426 428;stroke-dashoffset:427;animation:iPEzhvmZ_draw 3600ms ease-out 164ms forwards;}.iPEzhvmZ_15{stroke-dasharray:426 428;stroke-dashoffset:427;animation:iPEzhvmZ_draw 3600ms ease-out 176ms forwards;}.iPEzhvmZ_16{stroke-dasharray:493 495;stroke-dashoffset:494;animation:iPEzhvmZ_draw 3600ms ease-out 188ms forwards;}.iPEzhvmZ_17{stroke-dasharray:493 495;stroke-dashoffset:494;animation:iPEzhvmZ_draw 3600ms ease-out 200ms forwards;}.iPEzhvmZ_18{stroke-dasharray:493 495;stroke-dashoffset:494;animation:iPEzhvmZ_draw 3600ms ease-out 211ms forwards;}.iPEzhvmZ_19{stroke-dasharray:493 495;stroke-dashoffset:494;animation:iPEzhvmZ_draw 3600ms ease-out 223ms forwards;}.iPEzhvmZ_20{stroke-dasharray:493 495;stroke-dashoffset:494;animation:iPEzhvmZ_draw 3600ms ease-out 235ms forwards;}.iPEzhvmZ_21{stroke-dasharray:493 495;stroke-dashoffset:494;animation:iPEzhvmZ_draw 3600ms ease-out 247ms forwards;}.iPEzhvmZ_22{stroke-dasharray:493 495;stroke-dashoffset:494;animation:iPEzhvmZ_draw 3600ms ease-out 258ms forwards;}.iPEzhvmZ_23{stroke-dasharray:429 431;stroke-dashoffset:430;animation:iPEzhvmZ_draw 3600ms ease-out 270ms forwards;}.iPEzhvmZ_24{stroke-dasharray:429 431;stroke-dashoffset:430;animation:iPEzhvmZ_draw 3600ms ease-out 282ms forwards;}.iPEzhvmZ_25{stroke-dasharray:1520 1522;stroke-dashoffset:1521;animation:iPEzhvmZ_draw 3600ms ease-out 294ms forwards;}.iPEzhvmZ_26{stroke-dasharray:532 534;stroke-dashoffset:533;animation:iPEzhvmZ_draw 3600ms ease-out 305ms forwards;}.iPEzhvmZ_27{stroke-dasharray:268 270;stroke-dashoffset:269;animation:iPEzhvmZ_draw 3600ms ease-out 317ms forwards;}.iPEzhvmZ_28{stroke-dasharray:148 150;stroke-dashoffset:149;animation:iPEzhvmZ_draw 3600ms ease-out 329ms forwards;}.iPEzhvmZ_29{stroke-dasharray:148 150;stroke-dashoffset:149;animation:iPEzhvmZ_draw 3600ms ease-out 341ms forwards;}.iPEzhvmZ_30{stroke-dasharray:463 465;stroke-dashoffset:464;animation:iPEzhvmZ_draw 3600ms ease-out 352ms forwards;}.iPEzhvmZ_31{stroke-dasharray:84 86;stroke-dashoffset:85;animation:iPEzhvmZ_draw 3600ms ease-out 364ms forwards;}.iPEzhvmZ_32{stroke-dasharray:162 164;stroke-dashoffset:163;animation:iPEzhvmZ_draw 3600ms ease-out 376ms forwards;}.iPEzhvmZ_33{stroke-dasharray:67 69;stroke-dashoffset:68;animation:iPEzhvmZ_draw 3600ms ease-out 388ms forwards;}.iPEzhvmZ_34{stroke-dasharray:58 60;stroke-dashoffset:59;animation:iPEzhvmZ_draw 3600ms ease-out 400ms forwards;}@keyframes iPEzhvmZ_draw{100%{stroke-dashoffset:0;}}@keyframes iPEzhvmZ_fade{0%{stroke-opacity:1;}95.1219512195122%{stroke-opacity:1;}100%{stroke-opacity:0;}}</style></svg>