<!--?xml version="1.0" encoding="UTF-8"?-->
<svg width="480px" height="483px" viewBox="0 0 480 483" version="1.1" xmlns="http://www.w3.org/2000/svg" xmlns:xlink="http://www.w3.org/1999/xlink" style="">
    <!-- Generator: Sketch 46.2 (44496) - http://www.bohemiancoding.com/sketch -->
    <title>Group 9</title>
    <desc>Created with Sketch.</desc>
    <defs></defs>
    <g id="UX/UI" stroke="none" stroke-width="1" fill="none" fill-rule="evenodd">
        <g id="[Services]-UX-UI-Designs-Copy-5" transform="translate(-869.000000, -164.000000)">
            <g id="Group-9" transform="translate(869.000000, 166.000000)">
                <g id="Group-3" transform="translate(0.000000, 103.000000)" stroke="#FFBB41" stroke-width="3">
                    <path d="M417,106.114102 L417,251 L44,251 L44,8.96714514 C44,4.0222526 47.9805604,0 52.8711068,0 L337.271255,0 C331.367551,10.4925629 328,22.6030146 328,35.5 C328,75.5406444 360.459356,108 400.5,108 C406.175964,108 411.699586,107.347746 417,106.114102 Z" id="Combined-Shape" class="ERDjvifh_0 bmGCTAxb_0"></path>
                    <path d="M400,107.998312 L400,235 L60,235 L60,25.9741385 C60,21.0253895 63.979444,17 68.8686188,17 L330.381662,17 C328.827652,22.9058298 328,29.1062607 328,35.5 C328,75.3738455 360.189485,107.729434 400,107.998312 Z" id="Combined-Shape" class="ERDjvifh_1 bmGCTAxb_1"></path>
                    <path id="Rectangle-6" width="459" height="15" d="M1.5 262.5 L460.5 262.5 L460.5 277.5 L1.5 277.5 Z" class="ERDjvifh_2 bmGCTAxb_2"></path>
                </g>
                <path id="Oval-7" stroke="#FFFFFF" stroke-width="3" d="M150,227.5A80.5,80.5 0,1,1 311,227.5A80.5,80.5 0,1,1 150,227.5" class="ERDjvifh_3 bmGCTAxb_3"></path>
                <path id="Oval-7-Copy" stroke="#FFFFFF" stroke-width="3" d="M165,227.5A65.5,65.5 0,1,1 296,227.5A65.5,65.5 0,1,1 165,227.5" class="ERDjvifh_4 bmGCTAxb_4"></path>
                <g id="Group" transform="translate(414.500000, 120.500000) rotate(41.000000) translate(-414.500000, -120.500000) translate(350.000000, 54.000000)" fill-rule="nonzero">
                    <path d="M65.1978799,24.0113301 C47.4416961,24.5078616 33,40.1486047 33,58.7685369 C33,66.7130413 35.6042403,74.1610142 40.3392226,80.3676583 C43.4169611,84.3399105 45.5477032,89.3052257 46.7314488,94.7670725 L48.1519435,101.718514 C48.8621908,105.939032 50.9929329,109.663018 54.0706714,112.393942 L54.0706714,121.331509 C54.0706714,124.062433 55.7279152,126.296824 58.3321555,127.041622 C59.2791519,130.517342 62.1201413,133 65.6713781,133 L67.3286219,133 C70.8798587,133 73.7208481,130.517342 74.6678445,127.041622 C77.0353357,126.296824 78.9293286,124.062433 78.9293286,121.331509 L78.9293286,112.393942 C82.0070671,109.663018 83.9010601,105.939032 84.8480565,101.718514 L86.2685512,94.7670725 C87.2155477,89.3052257 89.5830389,84.3399105 92.6607774,80.3676583 C97.3957597,74.1610142 100,66.4647756 100,58.7685369 C99.0530035,39.4038074 83.664311,23.5147986 65.1978799,24.0113301 Z M66.1448763,113.63527 L66.1448763,113.63527 L73.9575972,113.63527 L73.9575972,115.869662 L72.3003534,115.869662 C71.1166078,115.869662 70.1696113,116.862725 70.1696113,118.104054 C70.1696113,119.345383 71.1166078,120.338446 72.3003534,120.338446 L73.9575972,120.338446 L73.9575972,121.331509 C73.9575972,122.076306 73.4840989,122.572838 72.7738516,122.572838 L72.3003534,122.572838 L59.9893993,122.572838 L59.5159011,122.572838 C58.8056537,122.572838 58.3321555,122.076306 58.3321555,121.331509 L58.3321555,120.338446 L59.9893993,120.338446 C61.1731449,120.338446 62.1201413,119.345383 62.1201413,118.104054 C62.1201413,116.862725 61.1731449,115.869662 59.9893993,115.869662 L58.3321555,115.869662 L58.3321555,113.63527 L66.1448763,113.63527 Z M66.8551237,128.282951 L65.1978799,128.282951 C64.2508834,128.282951 63.3038869,127.786419 62.8303887,127.289887 L69.2226148,127.289887 C68.5123675,128.034685 67.8021201,128.282951 66.8551237,128.282951 Z M88.3992933,77.3884691 C84.8480565,82.1055186 82.4805654,87.8156312 81.2968198,93.7740095 L79.8763251,100.725451 C79.1660777,103.952906 77.745583,106.683829 75.3780919,108.918221 L68.9858657,108.918221 L79.1660777,71.9266223 C79.4028269,70.6852935 78.9293286,69.4439647 77.745583,69.195699 C76.5618375,68.9474332 75.3780919,69.4439647 75.1413428,70.6852935 L66.3816254,102.959843 L57.6219081,70.6852935 C57.385159,69.4439647 55.9646643,68.6991674 55.0176678,69.195699 C54.0706714,69.6922305 53.1236749,70.9335593 53.5971731,71.9266223 L63.7773852,108.918221 L57.385159,108.918221 C55.0176678,106.683829 53.360424,103.952906 52.8869258,100.725451 L51.4664311,93.7740095 C50.2826855,87.5673654 47.9151943,82.1055186 44.3639576,77.3884691 C40.3392226,71.9266223 38.2084806,65.4717125 37.9717314,58.7685369 C37.9717314,42.6312623 50.5194346,28.9766454 65.9081272,28.7283796 C82.0070671,28.2318481 95.2650177,41.886465 95.2650177,58.7685369 C94.5547703,65.4717125 92.4240283,72.1748881 88.3992933,77.3884691 Z" id="Shape" fill="#FFFFFF" class="ERDjvifh_5 bmGCTAxb_5"></path>
                    <g id="Shape" fill="#FFBB41">
                        <path d="M64.2987443,18.1096631 C63.0961187,18.1096631 62.1340183,17.148113 62.1340183,15.9461753 L62.1340183,2.24408561 C62.1340183,1.04214792 63.0961187,0.080597771 64.2987443,0.080597771 C65.5013699,0.080597771 66.4634703,1.04214792 66.4634703,2.24408561 L66.4634703,15.9461753 C66.7039954,17.148113 65.5013699,18.1096631 64.2987443,18.1096631 Z" class="ERDjvifh_6 bmGCTAxb_6"></path>
                        <g transform="translate(18.358447, 17.708080)">
                            <path d="M80.094863,14.3440603 C79.6138128,14.3440603 78.8922374,14.1036727 78.4111872,13.6228977 C77.4490868,12.6613475 77.4490868,11.4594098 78.4111872,10.4978597 L88.0321918,0.882358156 C88.9942922,-0.0791919959 90.1969178,-0.0791919959 91.1590183,0.882358156 C92.1211187,1.84390831 92.1211187,3.045846 91.1590183,4.00739615 L81.5380137,13.6228977 C81.0569635,14.3440603 80.5759132,14.3440603 80.094863,14.3440603 Z" class="ERDjvifh_7 bmGCTAxb_7"></path>
                            <path d="M2.40525114,91.9892351 C1.92420091,91.9892351 1.20262557,91.7488475 0.721575342,91.2680724 C-0.240525114,90.3065223 -0.240525114,89.1045846 0.721575342,88.1430344 L10.3425799,78.5275329 C11.3046804,77.5659828 12.5073059,77.5659828 13.4694064,78.5275329 C14.4315068,79.4890831 14.4315068,80.6910208 13.4694064,81.6525709 L3.84840183,91.2680724 C3.60787671,91.7488475 2.88630137,91.9892351 2.40525114,91.9892351 Z" class="ERDjvifh_8 bmGCTAxb_8"></path>
                        </g>
                        <g transform="translate(0.000000, 61.619807)">
                            <path d="M126.113699,4.56736322 L112.403767,4.56736322 C111.201142,4.56736322 110.239041,3.60581307 110.239041,2.40387538 C110.239041,1.20193769 111.201142,0.240387538 112.403767,0.240387538 L126.113699,0.240387538 C127.316324,0.240387538 128.278425,1.20193769 128.278425,2.40387538 C128.278425,3.60581307 127.316324,4.56736322 126.113699,4.56736322 Z" class="ERDjvifh_9 bmGCTAxb_9"></path>
                            <path d="M16.1937215,4.56736322 L2.48378995,4.56736322 C1.28116438,4.56736322 0.319063927,3.60581307 0.319063927,2.40387538 C0.319063927,1.20193769 1.28116438,0.240387538 2.48378995,0.240387538 L16.1937215,0.240387538 C17.396347,0.240387538 18.3584475,1.20193769 18.3584475,2.40387538 C18.5989726,3.60581307 17.396347,4.56736322 16.1937215,4.56736322 Z" class="ERDjvifh_10 bmGCTAxb_10"></path>
                        </g>
                        <g transform="translate(18.358447, 17.708080)">
                            <path d="M89.7158676,91.9892351 C89.2348174,91.9892351 88.513242,91.7488475 88.0321918,91.2680724 L78.4111872,81.6525709 C77.4490868,80.6910208 77.4490868,79.4890831 78.4111872,78.5275329 C79.3732877,77.5659828 80.5759132,77.5659828 81.5380137,78.5275329 L91.1590183,88.1430344 C92.1211187,89.1045846 92.1211187,90.3065223 91.1590183,91.2680724 C90.677968,91.7488475 90.1969178,91.9892351 89.7158676,91.9892351 Z" class="ERDjvifh_11 bmGCTAxb_11"></path>
                            <path d="M12.0262557,14.3440603 C11.5452055,14.3440603 10.8236301,14.1036727 10.3425799,13.6228977 L0.721575342,4.00739615 C-0.240525114,3.045846 -0.240525114,1.84390831 0.721575342,0.882358156 C1.6836758,-0.0791919959 2.88630137,-0.0791919959 3.84840183,0.882358156 L13.4694064,10.4978597 C14.4315068,11.4594098 14.4315068,12.6613475 13.4694064,13.6228977 C13.2288813,14.3440603 12.5073059,14.3440603 12.0262557,14.3440603 Z" class="ERDjvifh_12 bmGCTAxb_12"></path>
                        </g>
                    </g>
                </g>
                <path d="M190.482186,233.32002 L196.800476,233.32002 C198.605702,233.32002 200.185275,234.446687 200.862235,236.249355 C201.313541,238.052022 202.216154,239.629356 202.893114,241.20669 C203.795727,242.784024 203.570073,244.812025 202.216154,246.164026 L197.703089,250.670694 C196.800476,251.572028 196.800476,253.149362 197.703089,254.276029 L202.441807,259.008031 C203.34442,259.909365 204.923993,259.909365 206.052259,259.008031 L210.565324,254.501362 C211.919243,253.149362 213.950122,252.924028 215.529695,253.825362 C217.109268,254.726696 218.914494,255.402696 220.494066,255.853363 C222.299292,256.30403 223.427558,257.881364 223.427558,259.909365 L223.427558,266.218701 C223.427558,267.570701 224.555825,268.697368 225.909744,268.697368 L232.679341,268.697368 C234.033261,268.697368 235.161527,267.570701 235.161527,266.218701 L235.161527,259.684031 C235.161527,257.881364 236.289793,256.30403 238.095019,255.62803 C239.900245,255.177363 241.479818,254.276029 243.05939,253.600029 C244.638963,252.698695 246.669842,252.924028 248.023761,254.276029 L252.536826,258.782698 C253.439439,259.684031 255.019012,259.684031 256.147278,258.782698 L260.885996,254.050696 C261.788609,253.149362 261.788609,251.572028 260.885996,250.445361 L256.372931,245.938692 C255.019012,244.586692 254.793359,242.558691 255.695972,240.981357 C256.598585,239.404023 257.275544,237.601355 257.726851,236.024021 C258.178157,234.221354 259.75773,233.094687 261.788609,233.094687 L268.1069,233.094687 C269.460819,233.094687 270.589085,231.96802 270.589085,230.616019 L270.589085,223.856016 C270.589085,222.504015 269.460819,221.377348 268.1069,221.377348 L261.788609,221.377348 C259.983383,221.377348 258.40381,220.250681 257.726851,218.448014 C257.275544,216.645346 256.372931,215.068012 255.695972,213.490678 C254.793359,211.913344 255.019012,209.885343 256.372931,208.533343 L260.885996,204.026674 C261.788609,203.125341 261.788609,201.548007 260.885996,200.421339 L256.147278,195.689337 C255.244665,194.788004 253.665092,194.788004 252.536826,195.689337 L248.023761,200.196006 C246.669842,201.548007 244.638963,201.77334 243.05939,200.872006 C241.479818,199.970673 239.674592,199.294672 238.095019,198.844005 C236.289793,198.393339 235.161527,196.816005 235.161527,194.788004 L235.161527,188.478668 C235.161527,187.126667 234.033261,186 232.679341,186 L225.909744,186 C224.555825,186 223.427558,187.126667 223.427558,188.478668 L223.427558,194.788004 C223.427558,196.590671 222.299292,198.168005 220.494066,198.844005 C218.68884,199.294672 217.109268,200.196006 215.529695,200.872006 C213.950122,201.77334 211.919243,201.548007 210.565324,200.196006 L206.052259,195.689337 C205.149646,194.788004 203.570073,194.788004 202.441807,195.689337 L197.703089,200.421339 C196.800476,201.322673 196.800476,202.900007 197.703089,204.026674 L202.216154,208.533343 C203.570073,209.885343 203.795727,211.913344 202.893114,213.490678 C201.990501,215.068012 201.313541,216.87068 200.862235,218.448014 C200.410928,220.250681 198.831355,221.377348 196.800476,221.377348 L190.482186,221.377348 C189.128266,221.377348 188,222.504015 188,223.856016 L188,230.616019 C188,232.193353 189.128266,233.32002 190.482186,233.32002 Z M228.39193,209.885343 C238.771979,209.434677 247.572455,217.997347 246.895495,228.362685 C246.444189,237.376022 239.223285,244.586692 230.197156,245.037358 C219.817107,245.488025 211.01663,236.925355 211.69359,226.560017 C212.144897,217.54668 219.3658,210.33601 228.39193,209.885343 Z" id="Shape" stroke="#FFBB41" stroke-width="3" fill-rule="nonzero" class="ERDjvifh_13 bmGCTAxb_13"></path>
                <path d="M313.5,0.5 L283.5,78.50641" id="Line-5-Copy" stroke="#FEBA41" stroke-width="3" stroke-linecap="square" class="ERDjvifh_14 bmGCTAxb_14"></path>
                <path d="M326.5,0.5 L296.5,78.50641" id="Line-5-Copy-2" stroke="#FEBA41" stroke-width="3" stroke-linecap="square" class="ERDjvifh_15 bmGCTAxb_15"></path>
                <path d="M300.5,0.5 L270.5,78.50641" id="Line-5" stroke="#FEBA41" stroke-width="3" stroke-linecap="square" class="ERDjvifh_16 bmGCTAxb_16"></path>
                <path d="M183.5,400.5 L153.5,478.50641" id="Line-5-Copy-5" stroke="#FEBA41" stroke-width="3" stroke-linecap="square" class="ERDjvifh_17 bmGCTAxb_17"></path>
                <path d="M196.5,400.5 L166.5,478.50641" id="Line-5-Copy-4" stroke="#FEBA41" stroke-width="3" stroke-linecap="square" class="ERDjvifh_18 bmGCTAxb_18"></path>
                <path d="M170.5,400.5 L140.5,478.50641" id="Line-5-Copy-3" stroke="#FEBA41" stroke-width="3" stroke-linecap="square" class="ERDjvifh_19 bmGCTAxb_19"></path>
            </g>
        </g>
    </g>
<style>.ERDjvifh_0{stroke-dasharray:1226 1228;stroke-dashoffset:1227;animation:ERDjvifh_draw 2150ms ease-in-out 0ms forwards;}.ERDjvifh_1{stroke-dasharray:1084 1086;stroke-dashoffset:1085;animation:ERDjvifh_draw 2150ms ease-in-out 5ms forwards;}.ERDjvifh_2{stroke-dasharray:948 950;stroke-dashoffset:949;animation:ERDjvifh_draw 2150ms ease-in-out 10ms forwards;}.ERDjvifh_3{stroke-dasharray:506 508;stroke-dashoffset:507;animation:ERDjvifh_draw 2150ms ease-in-out 15ms forwards;}.ERDjvifh_4{stroke-dasharray:412 414;stroke-dashoffset:413;animation:ERDjvifh_draw 2150ms ease-in-out 21ms forwards;}.ERDjvifh_5{stroke-dasharray:724 726;stroke-dashoffset:725;animation:ERDjvifh_draw 2150ms ease-in-out 26ms forwards;}.ERDjvifh_6{stroke-dasharray:42 44;stroke-dashoffset:43;animation:ERDjvifh_draw 2150ms ease-in-out 31ms forwards;}.ERDjvifh_7{stroke-dasharray:42 44;stroke-dashoffset:43;animation:ERDjvifh_draw 2150ms ease-in-out 36ms forwards;}.ERDjvifh_8{stroke-dasharray:42 44;stroke-dashoffset:43;animation:ERDjvifh_draw 2150ms ease-in-out 42ms forwards;}.ERDjvifh_9{stroke-dasharray:42 44;stroke-dashoffset:43;animation:ERDjvifh_draw 2150ms ease-in-out 47ms forwards;}.ERDjvifh_10{stroke-dasharray:42 44;stroke-dashoffset:43;animation:ERDjvifh_draw 2150ms ease-in-out 52ms forwards;}.ERDjvifh_11{stroke-dasharray:42 44;stroke-dashoffset:43;animation:ERDjvifh_draw 2150ms ease-in-out 57ms forwards;}.ERDjvifh_12{stroke-dasharray:42 44;stroke-dashoffset:43;animation:ERDjvifh_draw 2150ms ease-in-out 63ms forwards;}.ERDjvifh_13{stroke-dasharray:459 461;stroke-dashoffset:460;animation:ERDjvifh_draw 2150ms ease-in-out 68ms forwards;}.ERDjvifh_14{stroke-dasharray:84 86;stroke-dashoffset:85;animation:ERDjvifh_draw 2150ms ease-in-out 73ms forwards;}.ERDjvifh_15{stroke-dasharray:84 86;stroke-dashoffset:85;animation:ERDjvifh_draw 2150ms ease-in-out 78ms forwards;}.ERDjvifh_16{stroke-dasharray:84 86;stroke-dashoffset:85;animation:ERDjvifh_draw 2150ms ease-in-out 84ms forwards;}.ERDjvifh_17{stroke-dasharray:84 86;stroke-dashoffset:85;animation:ERDjvifh_draw 2150ms ease-in-out 89ms forwards;}.ERDjvifh_18{stroke-dasharray:84 86;stroke-dashoffset:85;animation:ERDjvifh_draw 2150ms ease-in-out 94ms forwards;}.ERDjvifh_19{stroke-dasharray:84 86;stroke-dashoffset:85;animation:ERDjvifh_draw 2150ms ease-in-out 100ms forwards;}@keyframes ERDjvifh_draw{100%{stroke-dashoffset:0;}}@keyframes ERDjvifh_fade{0%{stroke-opacity:1;}93.7984496124031%{stroke-opacity:1;}100%{stroke-opacity:0;}}</style><style>.bmGCTAxb_0{stroke-dasharray:1226 1228;stroke-dashoffset:1227;animation:bmGCTAxb_draw 2266ms linear 0ms forwards;}.bmGCTAxb_1{stroke-dasharray:1084 1086;stroke-dashoffset:1085;animation:bmGCTAxb_draw 2266ms linear 59ms forwards;}.bmGCTAxb_2{stroke-dasharray:948 950;stroke-dashoffset:949;animation:bmGCTAxb_draw 2266ms linear 119ms forwards;}.bmGCTAxb_3{stroke-dasharray:506 508;stroke-dashoffset:507;animation:bmGCTAxb_draw 2266ms linear 178ms forwards;}.bmGCTAxb_4{stroke-dasharray:412 414;stroke-dashoffset:413;animation:bmGCTAxb_draw 2266ms linear 238ms forwards;}.bmGCTAxb_5{stroke-dasharray:724 726;stroke-dashoffset:725;animation:bmGCTAxb_draw 2266ms linear 298ms forwards;}.bmGCTAxb_6{stroke-dasharray:42 44;stroke-dashoffset:43;animation:bmGCTAxb_draw 2266ms linear 357ms forwards;}.bmGCTAxb_7{stroke-dasharray:42 44;stroke-dashoffset:43;animation:bmGCTAxb_draw 2266ms linear 417ms forwards;}.bmGCTAxb_8{stroke-dasharray:42 44;stroke-dashoffset:43;animation:bmGCTAxb_draw 2266ms linear 477ms forwards;}.bmGCTAxb_9{stroke-dasharray:42 44;stroke-dashoffset:43;animation:bmGCTAxb_draw 2266ms linear 536ms forwards;}.bmGCTAxb_10{stroke-dasharray:42 44;stroke-dashoffset:43;animation:bmGCTAxb_draw 2266ms linear 596ms forwards;}.bmGCTAxb_11{stroke-dasharray:42 44;stroke-dashoffset:43;animation:bmGCTAxb_draw 2266ms linear 656ms forwards;}.bmGCTAxb_12{stroke-dasharray:42 44;stroke-dashoffset:43;animation:bmGCTAxb_draw 2266ms linear 715ms forwards;}.bmGCTAxb_13{stroke-dasharray:459 461;stroke-dashoffset:460;animation:bmGCTAxb_draw 2266ms linear 775ms forwards;}.bmGCTAxb_14{stroke-dasharray:84 86;stroke-dashoffset:85;animation:bmGCTAxb_draw 2266ms linear 835ms forwards;}.bmGCTAxb_15{stroke-dasharray:84 86;stroke-dashoffset:85;animation:bmGCTAxb_draw 2266ms linear 894ms forwards;}.bmGCTAxb_16{stroke-dasharray:84 86;stroke-dashoffset:85;animation:bmGCTAxb_draw 2266ms linear 954ms forwards;}.bmGCTAxb_17{stroke-dasharray:84 86;stroke-dashoffset:85;animation:bmGCTAxb_draw 2266ms linear 1014ms forwards;}.bmGCTAxb_18{stroke-dasharray:84 86;stroke-dashoffset:85;animation:bmGCTAxb_draw 2266ms linear 1073ms forwards;}.bmGCTAxb_19{stroke-dasharray:84 86;stroke-dashoffset:85;animation:bmGCTAxb_draw 2266ms linear 1133ms forwards;}@keyframes bmGCTAxb_draw{100%{stroke-dashoffset:0;}}@keyframes bmGCTAxb_fade{0%{stroke-opacity:1;}94.73684210526316%{stroke-opacity:1;}100%{stroke-opacity:0;}}</style></svg>