<?xml version="1.0" encoding="UTF-8"?>
<svg width="798px" height="566px" viewBox="0 0 798 566" version="1.1" xmlns="http://www.w3.org/2000/svg" xmlns:xlink="http://www.w3.org/1999/xlink">
    <!-- Generator: Sketch 46.2 (44496) - http://www.bohemiancoding.com/sketch -->
    <title>Website-Design-Graphics</title>
    <desc>Created with Sketch.</desc>
    <defs>
        <linearGradient x1="58.4233128%" y1="-35.8159622%" x2="65.2244905%" y2="100%" id="linearGradient-1">
            <stop stop-color="#B8B8B8" offset="0%"></stop>
            <stop stop-color="#FEFEFE" offset="100%"></stop>
        </linearGradient>
        <linearGradient x1="58.4233128%" y1="-35.8159622%" x2="65.2244905%" y2="100%" id="linearGradient-2">
            <stop stop-color="#CCCCCC" offset="0%"></stop>
            <stop stop-color="#FEFEFE" offset="100%"></stop>
        </linearGradient>
        <linearGradient x1="58.4818689%" y1="-34.6466284%" x2="65.2244905%" y2="100%" id="linearGradient-3">
            <stop stop-color="#C3C3C3" offset="0%"></stop>
            <stop stop-color="#FEFEFE" offset="100%"></stop>
        </linearGradient>
    </defs>
    <g id="UX/UI" stroke="none" stroke-width="1" fill="none" fill-rule="evenodd">
        <g id="[Services]-UX-UI-Designs-Copy-5" transform="translate(-225.000000, -991.000000)">
            <g id="1st-section" transform="translate(0.000000, 811.000000)">
                <g id="Website-Design-Graphics" transform="translate(226.000000, 181.000000)">
                    <g id="shadows" transform="translate(1.000000, 7.000000)">
                        <polygon id="Rectangle-3" fill="url(#linearGradient-1)" opacity="0.100000001" points="0 242 405 242 565 412 160 412"></polygon>
                        <polygon id="Rectangle-3-Copy" fill="url(#linearGradient-2)" opacity="0.300000012" points="401 242 400 0 796 412 561 412"></polygon>
                        <polygon id="Rectangle-3-Copy-2" fill="url(#linearGradient-3)" opacity="0.100000001" points="140 304 264 303 530 558 395 558"></polygon>
                    </g>
                    <path d="" id="Path-3" stroke="#979797"></path>
                    <g id="Flat-Mockups-27" fill-rule="nonzero">
                        <path d="M405,7.63521012 C405,3.41714276 401.595975,0 397.396125,0 L7.603875,0 C3.404025,0 0,3.41917557 0,7.63521012 L0,240.36479 C0,244.582857 3.404025,248 7.603875,248 L397.3941,248 C401.59395,248 404.997975,244.580824 404.997975,240.36479 L404.997975,7.63521012 L405,7.63521012 Z" id="Shape" stroke="#DFDFDF" fill="#202020"></path>
                        <path d="M269.620675,305.301878 C266.776822,303.42303 258.257364,296.84806 253.521643,291.211515 C248.787939,285.57697 248.787939,248 248.787939,248 L160.21301,248 C160.21301,248 160.21301,285.574969 155.477289,291.211515 C150.745601,296.84806 142.22211,303.425031 139.380274,305.301878 C136.540455,307.180727 137.488406,310 147.901748,310 C153.728622,310 255.274344,310 261.097184,310 C271.512543,310 272.458477,307.178726 269.620675,305.301878 Z" id="Shape" stroke="#EAEAEA" fill="#D3D3D3"></path>
                        <rect id="Rectangle-path" fill="#FFFFFF" x="21" y="21" width="364" height="205"></rect>
                        <circle id="Oval" fill="#FFFFFF" cx="204.5" cy="237.5" r="4.5"></circle>
                        <path d="M169,292 L240,292" id="Shape" stroke="#DFDFDF" fill="#FFFFFF"></path>
                    </g>
                    <g id="squares" transform="translate(41.000000, 41.000000)" fill="#F2F2F2">
                        <g id="Group-21">
                            <polygon id="Rectangle-2-Copy" points="0 32 149 32 149 95 0 95"></polygon>
                            <g id="Group-20">
                                <polygon id="Rectangle-2" points="0 0 323 0 323 21 0 21"></polygon>
                                <polygon id="Rectangle-2-Copy-3" points="0 106 323 106 323 127 0 127"></polygon>
                                <polygon id="Rectangle-2-Copy-4" points="0 137 323 137 323 158 0 158"></polygon>
                                <polygon id="Rectangle-2-Copy-2" points="173 32 322 32 322 95 173 95"></polygon>
                            </g>
                        </g>
                    </g>
                    <circle id="Oval-6" fill="#FAFAFA" cx="205.5" cy="121.5" r="95.5"></circle>
                    <g id="ellipse02" transform="translate(177.000000, 62.000000)">
                        <circle id="Oval-3" fill="#FFBB41" cx="28.5" cy="28.5" r="28.5"></circle>
                        <g id="Group" transform="translate(16.000000, 15.000000)" fill-rule="nonzero" fill="#FFFFFF">
                            <g transform="translate(3.000000, 13.000000)" id="Shape">
                                <path d="M0.524666823,7.67912946 C0.429272855,7.67912946 0.286181903,7.62848772 0.190787935,7.52720424 C-1.4849233e-14,7.32463728 -1.4849233e-14,7.07142857 0.190787935,6.86886161 L6.48678981,0.184151786 C6.67757774,-0.0184151786 6.91606266,-0.0184151786 7.1068506,0.184151786 C7.29763853,0.38671875 7.29763853,0.639927455 7.1068506,0.84249442 L0.810848726,7.52720424 C0.763151742,7.62848772 0.667757774,7.67912946 0.524666823,7.67912946 Z"></path>
                                <path d="M3.00490998,10.2618583 C2.90951602,10.2618583 2.76642506,10.2112165 2.6710311,10.109933 C2.48024316,9.90736607 2.48024316,9.65415737 2.6710311,9.4515904 L9.1578209,2.56431362 C9.34860884,2.36174665 9.58709376,2.36174665 9.77788169,2.56431362 C9.96866963,2.76688058 9.96866963,3.02008929 9.77788169,3.22265625 L3.29109189,10.109933 C3.19569792,10.2112165 3.10030395,10.2618583 3.00490998,10.2618583 Z"></path>
                            </g>
                            <path d="M25.047619,21.5604396 L16.0952381,12.3131868 L21.9047619,6.18131868 L23.2380952,6.13186813 C23.3809524,6.13186813 23.4761905,6.08241758 23.5714286,5.93406593 L25.8095238,2.86813187 C25.952381,2.67032967 25.9047619,2.42307692 25.7619048,2.27472527 L23.7142857,0.148351648 C23.5714286,0 23.3333333,-0.0494505495 23.1428571,0.0989010989 L20.1904762,2.42307692 C20.0952381,2.52197802 20,2.62087912 20,2.76923077 L19.952381,4.15384615 L14.2857143,10.0384615 L14.2857143,6.47802198 C14.2857143,5.58791209 13.952381,4.74725275 13.3333333,4.15384615 L10.2857143,0.989010989 C9.66666667,0.346153846 8.9047619,0 8.04761905,0 C7.19047619,0 6.38095238,0.346153846 5.80952381,0.989010989 C5.61904762,1.18681319 5.61904762,1.43406593 5.80952381,1.63186813 L9.9047619,5.88461538 L9,9.34615385 L5.66666667,10.2857143 L1.57142857,6.03296703 C1.38095238,5.83516484 1.14285714,5.83516484 0.952380952,6.03296703 C0.333333333,6.67582418 0,7.46703297 0,8.35714286 C0,9.24725275 0.333333333,10.0879121 0.952380952,10.6813187 L4,13.8461538 C4.19047619,14.043956 4.38095238,14.1923077 4.61904762,14.3406593 L0.142857143,18.989011 C0.0476190476,19.0879121 0,19.1868132 0,19.3351648 L0,23.043956 C0,23.1428571 0.0476190476,23.2912088 0.142857143,23.3901099 L3.42857143,26.8021978 C3.52380952,26.9010989 3.61904762,26.9505495 3.76190476,26.9505495 L7.33333333,26.9505495 C7.42857143,26.9505495 7.57142857,26.9010989 7.66666667,26.8021978 L14.6190476,19.5824176 L20.8095238,26.0604396 C21.3809524,26.6538462 22.1428571,27 22.952381,27 C23.7619048,27 24.5238095,26.6538462 25.0952381,26.0604396 C25.6666667,25.467033 26,24.6758242 26,23.8351648 C25.952381,22.9450549 25.6190476,22.1538462 25.047619,21.5604396 Z M20.7142857,4.6978022 C20.8095238,4.5989011 20.8571429,4.5 20.8571429,4.4010989 L20.9047619,3.01648352 L23.4285714,1.03846154 L24.952381,2.62087912 L23.047619,5.19230769 L21.7142857,5.24175824 C21.6190476,5.24175824 21.4761905,5.29120879 21.4285714,5.39010989 L15.4761905,11.6703297 L14.7142857,10.8791209 L20.7142857,4.6978022 Z M7.14285714,25.9615385 L3.95238095,25.9615385 L0.952380952,22.8461538 L0.952380952,19.532967 L5.52380952,14.7857143 C5.52380952,14.7857143 5.52380952,14.7362637 5.57142857,14.7362637 C5.80952381,14.7857143 6.0952381,14.8351648 6.33333333,14.8351648 L10.1904762,14.8351648 L14.047619,18.8901099 L7.14285714,25.9615385 Z M24.4285714,25.3186813 C24.047619,25.7142857 23.4761905,25.9615385 22.9047619,25.9615385 C22.3333333,25.9615385 21.8095238,25.7142857 21.3809524,25.3186813 L10.6190476,14.043956 C10.5238095,13.9450549 10.4285714,13.8956044 10.2857143,13.8956044 L6.23809524,13.8956044 C5.61904762,13.8956044 5.04761905,13.6483516 4.61904762,13.2032967 L1.57142857,10.0384615 C1.14285714,9.59340659 0.904761905,9 0.904761905,8.35714286 C0.904761905,7.86263736 1.04761905,7.41758242 1.28571429,7.02197802 L5.23809524,11.1263736 C5.33333333,11.2252747 5.52380952,11.2747253 5.66666667,11.2252747 L9.52380952,10.1373626 C9.66666667,10.0879121 9.80952381,9.98901099 9.85714286,9.79120879 L10.9047619,5.78571429 C10.952381,5.63736264 10.9047619,5.43956044 10.8095238,5.34065934 L6.85714286,1.23626374 C7.23809524,0.989010989 7.66666667,0.840659341 8.14285714,0.840659341 C8.76190476,0.840659341 9.33333333,1.08791209 9.76190476,1.53296703 L12.8095238,4.6978022 C13.2380952,5.14285714 13.4761905,5.73626374 13.4761905,6.37912088 L13.4761905,10.5824176 C13.4761905,10.6813187 13.5238095,10.8296703 13.6190476,10.9285714 L24.4761905,22.1043956 C24.8571429,22.5 25.0952381,23.0934066 25.0952381,23.6868132 C25.047619,24.3791209 24.8571429,24.9230769 24.4285714,25.3186813 Z" id="Shape"></path>
                            <path d="M23.6170213,24 C23.5319149,24 23.4042553,23.9574468 23.3191489,23.8723404 L22.1276596,22.6808511 C21.9574468,22.5106383 21.9574468,22.2978723 22.1276596,22.1276596 C22.2978723,21.9574468 22.5106383,21.9574468 22.6808511,22.1276596 L23.8723404,23.3191489 C24.0425532,23.4893617 24.0425532,23.7021277 23.8723404,23.8723404 C23.8297872,23.9574468 23.7446809,24 23.6170213,24 Z" id="Shape"></path>
                        </g>
                    </g>
                    <g id="ellipse03" transform="translate(147.000000, 112.000000)">
                        <circle id="Oval-3" fill="#FFBB41" cx="28.5" cy="28.5" r="28.5"></circle>
                        <g id="Group" transform="translate(13.000000, 12.000000)" fill-rule="nonzero" fill="#FFFFFF">
                            <path d="M15.6890459,6.0027026 C11.4487633,6.12114131 8,9.85196075 8,14.2934125 C8,16.1884319 8.62190813,17.9650126 9.75265018,19.4454965 C10.4876325,20.3930062 10.9964664,21.5773933 11.2791519,22.8802191 L11.6183746,24.5383611 C11.7879859,25.5450902 12.2968198,26.4333805 13.0318021,27.0847934 L13.0318021,29.2166903 C13.0318021,29.8681032 13.4275618,30.4010774 14.04947,30.5787354 C14.2756184,31.4078064 14.9540636,32 15.8021201,32 L16.1978799,32 C17.0459364,32 17.7243816,31.4078064 17.95053,30.5787354 C18.5159011,30.4010774 18.9681979,29.8681032 18.9681979,29.2166903 L18.9681979,27.0847934 C19.7031802,26.4333805 20.155477,25.5450902 20.3816254,24.5383611 L20.7208481,22.8802191 C20.9469965,21.5773933 21.5123675,20.3930062 22.2473498,19.4454965 C23.3780919,17.9650126 24,16.1292125 24,14.2934125 C23.7738516,9.67430269 20.0989399,5.88426388 15.6890459,6.0027026 Z M15.9151943,27.3808902 L15.9151943,27.3808902 L17.7809187,27.3808902 L17.7809187,27.9138644 L17.385159,27.9138644 C17.1024735,27.9138644 16.8763251,28.1507418 16.8763251,28.4468386 C16.8763251,28.7429354 17.1024735,28.9798128 17.385159,28.9798128 L17.7809187,28.9798128 L17.7809187,29.2166903 C17.7809187,29.3943483 17.6678445,29.512787 17.4982332,29.512787 L17.385159,29.512787 L14.4452297,29.512787 L14.3321555,29.512787 C14.1625442,29.512787 14.04947,29.3943483 14.04947,29.2166903 L14.04947,28.9798128 L14.4452297,28.9798128 C14.7279152,28.9798128 14.9540636,28.7429354 14.9540636,28.4468386 C14.9540636,28.1507418 14.7279152,27.9138644 14.4452297,27.9138644 L14.04947,27.9138644 L14.04947,27.3808902 L15.9151943,27.3808902 Z M16.0848057,30.8748322 L15.6890459,30.8748322 C15.4628975,30.8748322 15.2367491,30.7563935 15.1236749,30.6379548 L16.6501767,30.6379548 C16.4805654,30.8156129 16.3109541,30.8748322 16.0848057,30.8748322 Z M21.229682,18.7348642 C20.3816254,19.860032 19.8162544,21.2220772 19.5335689,22.6433417 L19.1943463,24.3014837 C19.024735,25.0713353 18.6855124,25.7227482 18.1201413,26.2557224 L16.5936396,26.2557224 L19.024735,17.4320384 C19.0812721,17.1359416 18.9681979,16.8398448 18.6855124,16.7806254 C18.4028269,16.7214061 18.1201413,16.8398448 18.0636042,17.1359416 L15.9717314,24.8344579 L13.8798587,17.1359416 C13.8233216,16.8398448 13.4840989,16.6621867 13.2579505,16.7806254 C13.0318021,16.8990642 12.8056537,17.1951609 12.9187279,17.4320384 L15.3498233,26.2557224 L13.8233216,26.2557224 C13.2579505,25.7227482 12.8621908,25.0713353 12.7491166,24.3014837 L12.409894,22.6433417 C12.1272085,21.1628578 11.5618375,19.860032 10.7137809,18.7348642 C9.75265018,17.4320384 9.24381625,15.8923351 9.18727915,14.2934125 C9.18727915,10.4441543 12.1837456,7.18708972 15.8586572,7.12787037 C19.7031802,7.00943165 22.869258,10.2664962 22.869258,14.2934125 C22.6996466,15.8923351 22.1908127,17.4912577 21.229682,18.7348642 Z" id="Shape"></path>
                            <g id="Shape">
                                <path d="M15.5574074,4.53829787 C15.2703704,4.53829787 15.0407407,4.30851064 15.0407407,4.0212766 L15.0407407,0.746808511 C15.0407407,0.459574468 15.2703704,0.229787234 15.5574074,0.229787234 C15.8444444,0.229787234 16.0740741,0.459574468 16.0740741,0.746808511 L16.0740741,4.0212766 C16.1314815,4.30851064 15.8444444,4.53829787 15.5574074,4.53829787 Z"></path>
                                <g transform="translate(4.592593, 4.021277)">
                                    <path d="M19.1166667,3.84893617 C19.0018519,3.84893617 18.8296296,3.79148936 18.7148148,3.67659574 C18.4851852,3.44680851 18.4851852,3.15957447 18.7148148,2.92978723 L21.0111111,0.631914894 C21.2407407,0.40212766 21.5277778,0.40212766 21.7574074,0.631914894 C21.987037,0.861702128 21.987037,1.14893617 21.7574074,1.3787234 L19.4611111,3.67659574 C19.3462963,3.84893617 19.2314815,3.84893617 19.1166667,3.84893617 Z"></path>
                                    <path d="M0.574074074,22.4042553 C0.459259259,22.4042553 0.287037037,22.3468085 0.172222222,22.2319149 C-0.0574074074,22.0021277 -0.0574074074,21.7148936 0.172222222,21.4851064 L2.46851852,19.187234 C2.69814815,18.9574468 2.98518519,18.9574468 3.21481481,19.187234 C3.44444444,19.4170213 3.44444444,19.7042553 3.21481481,19.9340426 L0.918518519,22.2319149 C0.861111111,22.3468085 0.688888889,22.4042553 0.574074074,22.4042553 Z"></path>
                                </g>
                                <g transform="translate(0.000000, 14.936170)">
                                    <path d="M30.3111111,1.09148936 L27.0388889,1.09148936 C26.7518519,1.09148936 26.5222222,0.861702128 26.5222222,0.574468085 C26.5222222,0.287234043 26.7518519,0.0574468085 27.0388889,0.0574468085 L30.3111111,0.0574468085 C30.5981481,0.0574468085 30.8277778,0.287234043 30.8277778,0.574468085 C30.8277778,0.861702128 30.5981481,1.09148936 30.3111111,1.09148936 Z"></path>
                                    <path d="M4.07592593,1.09148936 L0.803703704,1.09148936 C0.516666667,1.09148936 0.287037037,0.861702128 0.287037037,0.574468085 C0.287037037,0.287234043 0.516666667,0.0574468085 0.803703704,0.0574468085 L4.07592593,0.0574468085 C4.36296296,0.0574468085 4.59259259,0.287234043 4.59259259,0.574468085 C4.65,0.861702128 4.36296296,1.09148936 4.07592593,1.09148936 Z"></path>
                                </g>
                                <g transform="translate(4.592593, 4.021277)">
                                    <path d="M21.412963,22.4042553 C21.2981481,22.4042553 21.1259259,22.3468085 21.0111111,22.2319149 L18.7148148,19.9340426 C18.4851852,19.7042553 18.4851852,19.4170213 18.7148148,19.187234 C18.9444444,18.9574468 19.2314815,18.9574468 19.4611111,19.187234 L21.7574074,21.4851064 C21.987037,21.7148936 21.987037,22.0021277 21.7574074,22.2319149 C21.6425926,22.3468085 21.5277778,22.4042553 21.412963,22.4042553 Z"></path>
                                    <path d="M2.87037037,3.84893617 C2.75555556,3.84893617 2.58333333,3.79148936 2.46851852,3.67659574 L0.172222222,1.3787234 C-0.0574074074,1.14893617 -0.0574074074,0.861702128 0.172222222,0.631914894 C0.401851852,0.40212766 0.688888889,0.40212766 0.918518519,0.631914894 L3.21481481,2.92978723 C3.44444444,3.15957447 3.44444444,3.44680851 3.21481481,3.67659574 C3.15740741,3.84893617 2.98518519,3.84893617 2.87037037,3.84893617 Z"></path>
                                </g>
                            </g>
                        </g>
                    </g>
                    <g id="ellipse01" transform="translate(207.000000, 112.000000)">
                        <circle id="Oval-3" fill="#FFBB41" cx="28.5" cy="28.5" r="28.5"></circle>
                        <g id="Group" transform="translate(11.000000, 16.000000)" fill-rule="nonzero" fill="#FFFFFF">
                            <path d="M28.3891633,20 L23.6581026,20 C23.3838382,20 23.1781399,19.8623853 23.0410078,19.587156 C22.9724417,19.3807339 22.9724417,19.1055046 23.1781399,18.8990826 L29.623353,12.4311927 L23.3152721,6.10091743 C23.1095738,5.89449541 23.1095738,5.61926606 23.1781399,5.41284404 C23.246706,5.20642202 23.5209704,5 23.7952348,5 L28.5262955,5 C28.6634277,5 28.869126,5.06880734 29.0062582,5.20642202 L35.7943017,12.0183486 C36.0685661,12.293578 36.0685661,12.6376147 35.7943017,12.912844 L28.869126,19.793578 C28.7319938,19.9311927 28.5948616,20 28.3891633,20 Z M25.1665567,18.6926606 L28.1148989,18.6926606 L34.3544137,12.4311927 L28.2520311,6.30733945 L25.3036889,6.30733945 L30.994675,12.0183486 C31.2689393,12.293578 31.2689393,12.6376147 30.994675,12.912844 L25.1665567,18.6926606 Z" id="Shape"></path>
                            <path d="M12.3157895,20 C12.3157895,20 12.3157895,20 12.3157895,20 L7.59473684,20 C7.45789474,20 7.25263158,19.9318182 7.11578947,19.7954545 L0.205263158,12.9090909 C0.0684210526,12.7727273 0,12.6363636 0,12.4318182 C0,12.2954545 0.0684210526,12.0909091 0.205263158,11.9545455 L6.97894737,5.20454545 C7.11578947,5.06818182 7.25263158,5 7.45789474,5 L12.1789474,5 C12.4526316,5 12.6578947,5.13636364 12.7947368,5.40909091 C12.8631579,5.61363636 12.8631579,5.88636364 12.6578947,6.09090909 L6.36315789,12.3636364 L12.7947368,18.7727273 C12.9315789,18.9090909 13,19.0454545 13,19.25 C12.9315789,19.7272727 12.6578947,20 12.3157895,20 Z M7.8,18.7045455 L10.7421053,18.7045455 L4.92631579,12.9090909 C4.65263158,12.6363636 4.65263158,12.2954545 4.92631579,12.0227273 L10.6052632,6.36363636 L7.66315789,6.36363636 L1.57368421,12.4318182 L7.8,18.7045455 Z" id="Shape"></path>
                            <path d="M17.3014706,23 L13.5955882,23 C13.3970588,23 13.2647059,22.9344729 13.1323529,22.8034188 C13,22.6723647 13,22.4757835 13,22.2792023 L17.1029412,0.524216524 C17.1691176,0.262108262 17.4338235,0 17.6985294,0 L21.4044118,0 C21.6029412,0 21.7352941,0.0655270655 21.8676471,0.196581197 C22,0.327635328 22,0.524216524 22,0.720797721 L17.8970588,22.4757835 C17.8308824,22.7378917 17.5661765,23 17.3014706,23 Z M14.2573529,21.7549858 L16.7720588,21.7549858 L20.6102941,1.17948718 L18.0955882,1.17948718 L14.2573529,21.7549858 Z" id="Shape"></path>
                        </g>
                    </g>
                </g>
            </g>
        </g>
    </g>
</svg>