<?xml version="1.0" encoding="UTF-8"?>
<svg width="15px" height="21px" viewBox="0 0 15 21" version="1.1" xmlns="http://www.w3.org/2000/svg" xmlns:xlink="http://www.w3.org/1999/xlink">
    <!-- Generator: Sketch 45.2 (43514) - http://www.bohemiancoding.com/sketch -->
    <title>Pass-icon</title>
    <desc>Created with Sketch.</desc>
    <defs></defs>
    <g id="Page-1" stroke="none" stroke-width="1" fill="none" fill-rule="evenodd">
        <g id="Log-in-form-Copy-9" transform="translate(-1124.000000, -356.000000)" fill-rule="nonzero" fill="#5C5C5C">
            <g id="Pass-icon" transform="translate(1124.000000, 356.000000)">
                <path d="M13.125,8.53125 L13.125,5.90625 C13.125,2.64403125 10.606875,0 7.5,0 C4.393125,0 1.875,2.64403125 1.875,5.90625 L1.875,8.53125 C0.839375,8.53125 0,9.41259375 0,10.5 L0,15.09375 C0,18.3559688 2.518125,21 5.625,21 L9.375,21 C12.481875,21 15,18.3559688 15,15.09375 L15,10.5 C15,9.4119375 14.16,8.53125 13.125,8.53125 Z M10,5.90625 L10,8.53125 L5,8.53125 L5,5.90625 C5,4.45659375 6.119375,3.28125 7.5,3.28125 C8.880625,3.28125 10,4.45659375 10,5.90625 Z M13.75,12.46875 L13.75,15.09375 C13.75,17.6262188 11.786875,19.6875 9.375,19.6875 L5.625,19.6875 C3.213125,19.6875 1.25,17.6262188 1.25,15.09375 L1.25,10.5 C1.25,10.13775 1.53,9.84375 1.875,9.84375 C2.291875,9.84375 2.708125,9.84375 3.125,9.84375 L11.875,9.84375 C12.29125,9.84375 12.7075,9.84375 13.125,9.84375 C13.469375,9.84375 13.75,10.13775 13.75,10.5 L13.75,12.46875 Z M7.5,12.46875 C8.19,12.46875 8.75,13.0560938 8.75,13.78125 C8.75,14.1809062 8.545,14.9415 8.33375,15.5413125 C8.163125,16.025625 7.98875,16.4049375 7.5,16.4049375 C7.050625,16.4049375 6.836875,16.0216875 6.666875,15.53475 C6.458125,14.93625 6.25,14.1795937 6.25,13.78125 C6.25,13.0560938 6.81,12.46875 7.5,12.46875 L7.5,12.46875 Z" id="Shape"></path>
            </g>
        </g>
    </g>
</svg>