<?xml version="1.0" encoding="UTF-8"?>
<svg width="16px" height="16px" viewBox="0 0 16 16" version="1.1" xmlns="http://www.w3.org/2000/svg" xmlns:xlink="http://www.w3.org/1999/xlink">
    <!-- Generator: Sketch 45.2 (43514) - http://www.bohemiancoding.com/sketch -->
    <title>User-icon</title>
    <desc>Created with Sketch.</desc>
    <defs></defs>
    <g id="Page-1" stroke="none" stroke-width="1" fill="none" fill-rule="evenodd">
        <g id="Log-in-form-Copy-9" transform="translate(-1123.000000, -278.000000)" fill-rule="nonzero" fill="#5C5C5C">
            <g id="User-icon" transform="translate(1122.000000, 278.000000)">
                <path d="M13.714,6.654 L13.713,6.654 C13.895,6.135 13.999,5.581 13.999,5 C13.999,2.239 11.761,0 8.999,0 C6.237,0 3.999,2.239 3.999,5 C3.999,5.581 4.103,6.135 4.285,6.654 L4.285,6.654 C2.337,7.645 0.999,9.664 0.999,11.999 L0.999,14.999 C0.999,15.552 1.447,16 2,16 L15.997,16 C16.55,16 16.998,15.552 16.998,14.999 L16.998,11.999 C16.998,9.663 15.661,7.645 13.712,6.654 L13.714,6.654 Z M9,2 C10.654,2 12,3.346 12,5 C12,6.654 10.654,8 9,8 C7.346,8 6,6.654 6,5 C6,3.346 7.346,2 9,2 Z M15,14 L3,14 L3,11.999 C3,10.395 3.952,9.012 5.318,8.375 C6.232,9.372 7.541,10 9,10 C10.459,10 11.768,9.372 12.682,8.375 C14.048,9.011 15,10.395 15,11.999 L15,14 Z" id="Shape"></path>
            </g>
        </g>
    </g>
</svg>