<?xml version="1.0" encoding="UTF-8"?>
<svg width="79px" height="67px" viewBox="0 0 79 67" version="1.1" xmlns="http://www.w3.org/2000/svg" xmlns:xlink="http://www.w3.org/1999/xlink">
    <!-- Generator: Sketch 46.2 (44496) - http://www.bohemiancoding.com/sketch -->
    <title>Prescrenned-icon</title>
    <desc>Created with Sketch.</desc>
    <defs></defs>
    <g id="Homepage" stroke="none" stroke-width="1" fill="none" fill-rule="evenodd">
        <g id="Home-Page" transform="translate(-360.000000, -3554.000000)">
            <g id="Prescrenned-icon" transform="translate(360.000000, 3554.000000)">
                <g id="Group">
                    <path d="M38.5246914,34.4386473 C40.2152263,34.8917874 41.190535,35.2154589 42.6534979,35.7657005 C35.8588477,44.8608696 44.3440329,58.2608696 55.1374486,55.3801932 C55.1374486,55.7038647 55.1374486,56.0275362 55.1374486,56.3188406 C55.1374486,56.9014493 54.6823045,57.3545894 54.0971193,57.3545894 L27.6337449,57.3545894 L1.17037037,57.3545894 C0.585185185,57.3545894 0.130041152,56.9014493 0.130041152,56.3188406 C0.130041152,53.2439614 0.552674897,49.6188406 1.39794239,46.5115942 C2.14567901,43.7603865 3.21851852,41.3328502 4.64897119,39.9086957 L4.64897119,39.9086957 L4.64897119,39.9086957 C5.39670782,39.1642512 7.31481481,38.031401 9.88312757,36.8985507 C11.963786,35.9922705 14.4670782,35.0536232 17.1979424,34.3415459 C17.6855967,34.2120773 18.2057613,34.4386473 18.400823,34.8917874 L25.0004115,46.1231884 L26.1707819,40.2 L25.4230453,39.2613527 C25.0654321,38.8082126 25.1304527,38.1608696 25.5855967,37.8048309 L25.5855967,37.8048309 L26.0082305,37.4811594 L20.2864198,33.3705314 C20.0263374,33.1763285 19.8962963,32.9173913 19.863786,32.626087 L19.863786,32.626087 L19.7012346,30.9429952 C18.8234568,30.1338164 18.0432099,29.2275362 17.3604938,28.2241546 C16.7427984,27.3178744 16.1901235,26.3144928 15.7674897,25.2463768 C14.9872428,25.2140097 14.2395062,24.857971 13.5567901,24.2429952 C12.7440329,23.5309179 12.0938272,22.4304348 11.736214,21.1357488 L11.736214,21.1357488 C11.4111111,19.9381643 11.4111111,18.7405797 11.6711934,17.7695652 C11.8987654,16.9280193 12.3213992,16.2483092 12.9065844,15.7628019 C12.9065844,15.5362319 12.8740741,15.2449275 12.8740741,14.9536232 C12.8415638,14.3386473 12.8415638,13.7236715 12.8415638,13.1086957 C12.8415638,9.83961353 14.7596708,6.4410628 17.7506173,3.94879227 C20.5465021,1.61835749 24.2851852,0.0323671498 28.2839506,0.0323671498 C35.1761317,0.0323671498 37.581893,4.49903382 38.2320988,6.1821256 C38.9798354,6.3763285 40.182716,6.8294686 41.0930041,7.86521739 C41.1255144,7.89758454 41.1255144,7.92995169 41.1580247,7.92995169 C41.7757202,8.67439614 42.1983539,10.0338164 42.3283951,11.6198068 C42.4584362,12.8497585 42.4259259,14.273913 42.2308642,15.6333333 C42.8485597,16.0864734 43.2711934,16.7338164 43.5312757,17.5753623 C43.8563786,18.578744 43.8888889,19.8410628 43.5312757,21.1357488 C43.2386831,22.2038647 42.7185185,23.1748792 42.100823,23.8545894 C41.5806584,24.4371981 40.962963,24.857971 40.2802469,25.0845411 C39.727572,26.4115942 39.044856,27.6415459 38.2646091,28.7096618 C37.4518519,29.8101449 36.5090535,30.8135266 35.5012346,31.6227053 L35.4037037,32.626087 C35.3711934,32.9821256 35.1761317,33.27343 34.9160494,33.4352657 L29.2592593,37.4487923 L29.681893,37.7724638 C30.137037,38.1285024 30.2020576,38.7758454 29.8444444,39.2289855 L29.8444444,39.2289855 L29.0967078,40.1676329 L30.2995885,46.3173913 L37.3218107,34.8594203 C37.581893,34.4710145 38.0695473,34.2768116 38.5246914,34.4386473 Z" id="Shape" fill="#202020"></path>
                    <path d="M78.2522634,63.1806763 L67.7839506,52.7584541 C67.3613169,52.3376812 66.7761317,52.1434783 66.1909465,52.1758454 L62.2897119,48.2917874 L60.3065844,50.2661836 L64.2078189,54.1502415 C64.1753086,54.7328502 64.3703704,55.2830918 64.7930041,55.7362319 L75.2613169,66.1584541 C75.6839506,66.5792271 76.2041152,66.77343 76.7567901,66.77343 C77.309465,66.77343 77.8296296,66.5792271 78.2522634,66.1584541 C79.0975309,65.3169082 79.0975309,63.9898551 78.2522634,63.1806763 Z" id="Shape" fill="#FFBB41" fill-rule="nonzero"></path>
                    <path d="M54.4222222,54.2149758 C51.2687243,54.2149758 48.2777778,52.9850242 46.0345679,50.7516908 C43.791358,48.5183575 42.5559671,45.5405797 42.5559671,42.4009662 C42.5559671,39.2613527 43.791358,36.2835749 46.0345679,34.0502415 C48.2777778,31.8169082 51.2687243,30.5869565 54.4222222,30.5869565 C57.6082305,30.5869565 60.5666667,31.8169082 62.8098765,34.0502415 C65.0530864,36.2835749 66.2884774,39.2613527 66.2884774,42.4009662 C66.2884774,45.5729469 65.0530864,48.5183575 62.8098765,50.7516908 C60.5666667,52.9850242 57.6082305,54.2149758 54.4222222,54.2149758 Z M54.4222222,34.7623188 C52.3740741,34.7623188 50.4559671,35.5714976 48.9930041,36.9956522 C47.5300412,38.4521739 46.7497942,40.3618357 46.7497942,42.4009662 C46.7497942,44.4400966 47.5625514,46.3497585 48.9930041,47.8062802 C50.4559671,49.2628019 52.3740741,50.0396135 54.4222222,50.0396135 C56.4703704,50.0396135 58.3884774,49.2304348 59.8514403,47.8062802 C61.3144033,46.3497585 62.0946502,44.4400966 62.0946502,42.4009662 C62.0946502,40.3618357 61.281893,38.4521739 59.8514403,36.9956522 C58.3884774,35.5714976 56.4703704,34.7623188 54.4222222,34.7623188 Z" id="Shape" fill="#FFBB41" fill-rule="nonzero"></path>
                    <path d="M56.9580247,36.8985507 C57.6082305,37.1898551 58.1934156,37.610628 58.7135802,38.1285024 C61.0868313,40.4913043 61.0868313,44.310628 58.7135802,46.67343 C56.4053498,48.9714976 52.6666667,49.0362319 50.2934156,46.8352657 C52.5366255,47.8710145 55.2674897,47.4502415 57.1205761,45.605314 C59.4938272,43.2425121 59.4938272,39.4231884 57.1205761,37.0603865 C57.0880658,37.0280193 57.0230453,36.963285 56.9580247,36.8985507 Z" id="Shape" fill="#FFBB41"></path>
                </g>
            </g>
        </g>
    </g>
</svg>