<?xml version="1.0" encoding="UTF-8"?>
<svg width="71px" height="65px" viewBox="0 0 71 65" version="1.1" xmlns="http://www.w3.org/2000/svg" xmlns:xlink="http://www.w3.org/1999/xlink">
    <!-- Generator: Sketch 46.2 (44496) - http://www.bohemiancoding.com/sketch -->
    <title>Quality-icon</title>
    <desc>Created with Sketch.</desc>
    <defs></defs>
    <g id="Homepage" stroke="none" stroke-width="1" fill="none" fill-rule="evenodd">
        <g id="Home-Page" transform="translate(-766.000000, -3548.000000)" fill-rule="nonzero">
            <g id="Quality-icon" transform="translate(766.000000, 3548.000000)">
                <polygon id="Shape" fill="#FFBB41" points="50.4601036 26 56 12 38 12"></polygon>
                <polygon id="Shape" fill="#FFBB41" points="21 28 48 28 34.5 12"></polygon>
                <polygon id="Shape" fill="#202020" points="19.526971 26 32 12 14 12"></polygon>
                <polygon id="Shape" fill="#FFBB41" points="35 65 49 30 21 30"></polygon>
                <polygon id="Shape" fill="#202020" points="52 28 69 28 57.7296997 13"></polygon>
                <polygon id="Shape" fill="#202020" points="0 28 17 28 11.2828508 13"></polygon>
                <polygon id="Shape" fill="#202020" points="1 30 31 62 18.3255096 30"></polygon>
                <polygon id="Shape" fill="#202020" points="38 62 68 30 50.6744904 30"></polygon>
                <path d="M54.6506877,8.57638704 L49.1103378,5.11101337 C48.769669,4.88623238 48.3214207,5.01735462 48.1062614,5.37325787 C47.8911022,5.72916111 48.0166118,6.19745484 48.3572805,6.42223584 L53.8976304,9.8876095 C54.02314,9.9625365 54.1486495,10 54.2741591,10 C54.5251782,10 54.7582673,9.86887775 54.9017068,9.62536501 C55.0989361,9.26946177 54.9913565,8.80116803 54.6506877,8.57638704 Z" id="Shape" fill="#FFBB41"></path>
                <path d="M68.6427195,17.576387 L63.1023696,14.1110134 C62.7617008,13.8862324 62.3134524,14.0173546 62.0982932,14.3732579 C61.9010639,14.7291611 62.0086435,15.1974548 62.3493123,15.4222358 L67.8896622,18.8876095 C68.0151718,18.9625365 68.1406813,19 68.2661908,19 C68.5172099,19 68.7502991,18.8688778 68.8937386,18.625365 C69.1088978,18.25073 68.9833882,17.801168 68.6427195,17.576387 Z" id="Shape" fill="#FFBB41"></path>
                <path d="M56.4112038,0.566145562 C56.3224076,0.157283568 55.9317045,-0.0843167011 55.5410013,0.0271911154 C55.1502981,0.120114296 54.9194281,0.52897629 55.0259835,0.937838284 L56.5887962,7.42387628 C56.6775924,7.75839973 56.9617401,8 57.2814064,8 C57.3346841,8 57.405721,8 57.4589987,7.98141536 C57.8497019,7.88849218 58.0805719,7.47963019 57.9740165,7.0707682 L56.4112038,0.566145562 Z" id="Shape" fill="#FFBB41"></path>
                <path d="M65.6226453,2.12128074 C65.2669513,1.87571027 64.7989329,2.01895971 64.5742841,2.40777962 L61.1109481,8.73121924 C60.8862993,9.12003915 61.0173444,9.63164429 61.3730384,9.87721476 C61.5040835,9.95907159 61.6351287,10 61.7661738,10 C62.0282641,10 62.2716337,9.85675056 62.4213996,9.59071588 L65.8847356,3.26727627 C66.1093844,2.87845636 65.99706,2.36685121 65.6226453,2.12128074 Z" id="Shape" fill="#FFBB41"></path>
                <path d="M70.0609905,9.02582278 L63.5668526,10.5837251 C63.15748,10.6722423 62.915578,11.0617179 63.0272251,11.4511935 C63.1202643,11.7698553 63.4179898,12 63.752931,12 C63.8087546,12 63.8831859,12 63.9390095,11.9822966 L70.4331474,10.4243942 C70.84252,10.335877 71.084422,9.94640144 70.9727749,9.55692585 C70.8797357,9.14974683 70.4703631,8.91960216 70.0609905,9.02582278 Z" id="Shape" fill="#FFBB41"></path>
            </g>
        </g>
    </g>
</svg>