<?xml version="1.0" encoding="UTF-8"?>
<svg width="28px" height="20px" viewBox="0 0 28 20" version="1.1" xmlns="http://www.w3.org/2000/svg" xmlns:xlink="http://www.w3.org/1999/xlink">
    <!-- Generator: Sketch 45.2 (43514) - http://www.bohemiancoding.com/sketch -->
    <title>Estimated cost-icon</title>
    <desc>Created with Sketch.</desc>
    <defs></defs>
    <g id="Page-1" stroke="none" stroke-width="1" fill="none" fill-rule="evenodd">
        <g id="Get-Started-Form-Main" transform="translate(-1304.000000, -137.000000)" fill-rule="nonzero" fill="#000000">
            <g id="Estimated-cost-icon" transform="translate(1304.000000, 137.000000)">
                <path d="M26.5,17 L14.254,17 C14.613,16.381 14.888,15.71 15.07,15 L26.5,15 C27.053,15 27.5,15.447 27.5,16 C27.5,16.552 27.053,17 26.5,17 L26.5,17 Z M26.5,14 L15.264,14 C15.305,13.672 15.333,13.339 15.333,13 C15.333,12.66 15.305,12.328 15.264,12 L26.5,12 C27.053,12 27.5,12.447 27.5,13 C27.5,13.552 27.053,14 26.5,14 Z M26.5,11 L15.07,11 C14.887,10.29 14.613,9.619 14.254,9 L26.5,9 C27.053,9 27.5,9.447 27.5,10 C27.5,10.552 27.053,11 26.5,11 Z M26.5,8 L13.572,8 C12.922,7.189 12.119,6.507 11.203,6 L26.5,6 C27.053,6 27.5,6.447 27.5,7 C27.5,7.552 27.053,8 26.5,8 Z M26.5,5 L10.5,5 C9.947,5 9.5,4.552 9.5,4 C9.5,3.447 9.947,3 10.5,3 L26.5,3 C27.053,3 27.5,3.447 27.5,4 C27.5,4.552 27.053,5 26.5,5 Z M26.5,2 L10.5,2 C9.947,2 9.5,1.552 9.5,1 C9.5,0.447 9.947,0 10.5,0 L26.5,0 C27.053,0 27.5,0.447 27.5,1 C27.5,1.552 27.053,2 26.5,2 Z M14.5,13 C14.5,16.866 11.365,20 7.5,20 C3.635,20 0.5,16.866 0.5,13 C0.5,9.134 3.634,6 7.5,6 C11.365,6 14.5,9.134 14.5,13 Z M9.978,13.761 C9.877,13.522 9.747,13.314 9.584,13.137 C9.421,12.96 9.236,12.808 9.028,12.681 C8.82,12.554 8.608,12.441 8.391,12.34 C8.174,12.24 7.962,12.146 7.754,12.056 C7.546,11.967 7.359,11.871 7.195,11.769 C7.031,11.667 6.899,11.55 6.801,11.419 C6.703,11.288 6.654,11.133 6.654,10.953 C6.654,10.833 6.676,10.719 6.719,10.611 C6.763,10.504 6.829,10.411 6.919,10.334 C7.008,10.258 7.12,10.197 7.253,10.154 C7.386,10.11 7.543,10.089 7.722,10.089 C7.951,10.089 8.161,10.116 8.353,10.172 C8.544,10.229 8.713,10.29 8.859,10.359 C9.005,10.427 9.128,10.49 9.228,10.548 C9.328,10.606 9.401,10.634 9.447,10.634 C9.493,10.634 9.529,10.622 9.556,10.597 C9.582,10.572 9.604,10.533 9.618,10.478 C9.633,10.424 9.642,10.355 9.649,10.272 C9.655,10.188 9.658,10.085 9.658,9.964 C9.658,9.856 9.656,9.765 9.652,9.693 C9.648,9.621 9.64,9.559 9.631,9.511 C9.62,9.463 9.608,9.424 9.594,9.395 C9.578,9.366 9.551,9.331 9.509,9.29 C9.467,9.249 9.382,9.196 9.253,9.135 C9.124,9.073 8.976,9.017 8.81,8.968 C8.643,8.918 8.464,8.879 8.273,8.85 C8.234,8.844 8.194,8.846 8.155,8.841 L8.155,7.807 L7.171,7.807 L7.171,8.841 C6.99,8.865 6.815,8.901 6.645,8.95 C6.314,9.046 6.027,9.19 5.783,9.384 C5.539,9.578 5.345,9.822 5.202,10.114 C5.058,10.408 4.987,10.748 4.987,11.135 C4.987,11.472 5.037,11.762 5.136,12.003 C5.235,12.244 5.366,12.454 5.527,12.631 C5.688,12.808 5.869,12.959 6.073,13.086 C6.277,13.214 6.488,13.327 6.704,13.427 C6.92,13.527 7.131,13.621 7.335,13.711 C7.539,13.801 7.721,13.897 7.881,13.998 C8.042,14.101 8.172,14.217 8.272,14.348 C8.372,14.48 8.422,14.637 8.422,14.82 C8.422,14.979 8.393,15.123 8.335,15.253 C8.277,15.383 8.192,15.49 8.082,15.578 C7.972,15.666 7.838,15.733 7.68,15.781 C7.521,15.829 7.343,15.853 7.142,15.853 C6.838,15.853 6.57,15.819 6.339,15.75 C6.108,15.681 5.909,15.605 5.742,15.521 C5.575,15.438 5.439,15.363 5.333,15.293 C5.227,15.225 5.145,15.19 5.086,15.19 C5.044,15.19 5.007,15.202 4.977,15.224 C4.945,15.247 4.92,15.286 4.902,15.34 C4.883,15.395 4.87,15.465 4.861,15.553 C4.852,15.641 4.848,15.749 4.848,15.878 C4.848,16.07 4.86,16.217 4.882,16.319 C4.905,16.422 4.944,16.5 4.998,16.553 C5.052,16.606 5.14,16.668 5.263,16.739 C5.386,16.81 5.539,16.876 5.722,16.94 C5.905,17.003 6.117,17.058 6.356,17.104 C6.595,17.149 6.855,17.171 7.134,17.171 C7.146,17.171 7.157,17.169 7.17,17.169 L7.17,18.132 L8.153,18.132 L8.153,17.04 C8.2,17.028 8.25,17.022 8.296,17.009 C8.658,16.901 8.975,16.739 9.246,16.525 C9.517,16.311 9.731,16.044 9.89,15.723 C10.048,15.402 10.126,15.03 10.126,14.605 C10.127,14.282 10.077,14.001 9.978,13.761 L9.978,13.761 Z M13.572,18 L26.5,18 C27.053,18 27.5,18.447 27.5,19 C27.5,19.552 27.053,20 26.5,20 L11.203,20 C12.119,19.493 12.922,18.811 13.572,18 Z" id="Shape"></path>
            </g>
        </g>
    </g>
</svg>