<?xml version="1.0" encoding="UTF-8"?>
<svg width="19px" height="14px" viewBox="0 0 19 14" version="1.1" xmlns="http://www.w3.org/2000/svg" xmlns:xlink="http://www.w3.org/1999/xlink">
    <!-- Generator: Sketch 45.2 (43514) - http://www.bohemiancoding.com/sketch -->
    <title>Send Request-icon</title>
    <desc>Created with Sketch.</desc>
    <defs></defs>
    <g id="Page-1" stroke="none" stroke-width="1" fill="none" fill-rule="evenodd">
        <g id="Request-Formal-Quote" transform="translate(-330.000000, -152.000000)" fill-rule="nonzero" fill="#FFBB41">
            <g id="Send-Request-icon" transform="translate(330.000000, 152.000000)">
                <path d="M17.8125,0 L1.1875,0 C0.532,0 0,0.522666667 0,1.16666667 L0,12.8333333 C0,13.4773333 0.532,14 1.1875,14 L17.8125,14 C18.468,14 19,13.4773333 19,12.8333333 L19,1.16666667 C19,0.522666667 18.468,0 17.8125,0 Z M16.171375,2.33333333 L9.5,6.80283333 L2.828625,2.33333333 L16.171375,2.33333333 Z M16.625,11.0833333 C16.625,11.4053333 16.359,11.6666667 16.03125,11.6666667 L2.96875,11.6666667 C2.641,11.6666667 2.375,11.4053333 2.375,11.0833333 L2.375,4.8265 L8.9026875,9.17 C9.08675,9.2785 9.293375,9.33216667 9.5,9.33216667 C9.706625,9.33216667 9.91325,9.2785 10.0973125,9.17 L16.625,4.8265 L16.625,11.0833333 Z" id="Shape"></path>
            </g>
        </g>
    </g>
</svg>