<?xml version="1.0" encoding="UTF-8"?>
<svg width="76px" height="81px" viewBox="0 0 76 81" version="1.1" xmlns="http://www.w3.org/2000/svg" xmlns:xlink="http://www.w3.org/1999/xlink">
    <!-- Generator: Sketch 45.1 (43504) - http://www.bohemiancoding.com/sketch -->
    <title>UX-UI-icon</title>
    <desc>Created with Sketch.</desc>
    <defs></defs>
    <g id="Page-1" stroke="none" stroke-width="1" fill="none" fill-rule="evenodd">
        <g id="Home-Page" transform="translate(-1158.000000, -2545.000000)" fill-rule="nonzero">
            <g id="UX-UI-icon" transform="translate(1158.000000, 2545.000000)">
                <path d="M48.663,60.825 L48.572,60.806 C48.535,60.801 44.824,60.343 42.208,59.714 C41.522,59.55 40.759,59.366 40.029,59.152 L37.484,55.054 L36.919,55.409 L36.919,53.304 C37.567,52.634 38.278,51.82 38.776,50.96 C39.325,50.015 39.481,48.947 39.588,47.588 C40.732,47.149 41.801,45.626 41.761,43.671 C41.745,42.914 41.712,41.267 40.332,40.871 C40.332,40.263 40.332,39.133 40.332,37.083 C40.332,33.304 36.872,30.167 31.621,30.167 C26.37,30.168 22.909,33.304 22.91,37.083 C22.91,39.133 22.91,40.263 22.91,40.872 C21.53,41.268 21.497,42.914 21.481,43.672 C21.442,45.627 22.511,47.149 23.654,47.588 C23.76,48.947 23.918,50.015 24.467,50.96 C24.965,51.819 25.676,52.635 26.324,53.304 L26.324,55.41 L25.759,55.054 L23.215,59.152 C22.486,59.366 21.722,59.55 21.035,59.714 C18.421,60.342 14.709,60.801 14.671,60.806 L14.58,60.825 C14.459,60.858 12.414,61.473 11.23,63.879 C11.509,64.261 11.796,64.637 12.096,65.003 C12.919,62.765 14.596,62.124 14.877,62.031 C15.369,61.969 18.785,61.531 21.323,60.922 C22.042,60.749 22.784,60.57 23.494,60.365 L24.378,61.031 L26.583,73.745 C27.012,73.832 27.445,73.907 27.882,73.972 L25.826,62.122 L29.087,64.579 L29.969,62.619 L31.003,64.187 L29.254,74.135 C30.033,74.207 30.821,74.248 31.62,74.248 C32.474,74.248 33.316,74.205 34.147,74.122 L32.048,64.169 L33.154,62.36 L34.151,64.578 L37.412,62.122 L35.357,73.971 C35.794,73.907 36.227,73.831 36.656,73.744 L38.86,61.03 L39.744,60.364 C40.455,60.569 41.196,60.747 41.915,60.92 C44.452,61.528 47.866,61.968 48.361,62.029 C48.627,62.118 50.311,62.766 51.139,65.004 C51.44,64.638 51.728,64.26 52.008,63.876 C50.83,61.474 48.784,60.858 48.663,60.825 Z M31.622,58.752 L27.566,56.194 L27.566,54.515 C28.868,55.73 29.951,56.173 31.622,56.173 C33.294,56.173 34.377,55.73 35.679,54.516 L35.679,56.193 L31.622,58.752 Z M24.444,59.527 L26.155,56.77 L30.118,59.269 L28.596,62.655 L24.444,59.527 Z M24.821,46.516 L24.285,46.478 C23.635,46.43 22.691,45.244 22.723,43.7 C22.756,42.028 23.157,42.028 23.579,42.028 C23.728,42.028 23.907,42.046 24.112,42.081 L24.188,42.094 C24.612,42.575 24.823,43.333 24.823,44.256 C24.823,45.852 25.204,46.19 25.204,46.19 C25.204,46.19 25.281,43.878 25.281,41.408 C25.281,38.936 25.281,38.936 25.281,37.81 C25.281,36.684 26.826,34.674 28.647,35.478 C30.468,36.283 31.622,36.041 31.622,36.041 C31.622,36.041 32.775,36.282 34.597,35.478 C36.418,34.674 37.963,36.684 37.963,37.81 C37.963,38.936 37.963,38.936 37.963,41.407 C37.963,43.879 38.04,46.189 38.04,46.189 C38.04,46.189 38.421,45.851 38.421,44.256 C38.421,43.333 38.632,42.575 39.056,42.093 L39.133,42.08 C39.337,42.046 39.517,42.028 39.666,42.028 C40.089,42.028 40.488,42.028 40.521,43.699 C40.552,45.243 39.61,46.43 38.959,46.477 L38.423,46.516 L38.386,47.052 C38.282,48.506 38.179,49.521 37.704,50.34 C37.018,51.519 35.814,52.674 35.095,53.364 L34.955,53.498 C33.689,54.719 32.872,54.933 31.622,54.933 C30.373,54.933 29.556,54.719 28.289,53.498 L28.148,53.363 C27.429,52.673 26.225,51.517 25.541,50.339 C25.064,49.52 24.962,48.506 24.859,47.052 L24.821,46.516 Z M33.126,59.27 L37.089,56.771 L38.801,59.527 L34.651,62.656 L33.126,59.27 Z M31.462,60.213 L31.051,60.22 L31.622,58.95 L32.184,60.201 L31.462,60.213 Z" id="Shape" fill="#000000"></path>
                <path d="M62.702,49.012 L59.601,49.012 C59.601,64.44 47.05,76.991 31.622,76.992 C24.161,76.992 17.139,74.079 11.848,68.788 C6.557,63.497 3.643,56.475 3.643,49.014 L0.541,49.014 C0.542,57.303 3.778,65.105 9.654,70.981 C15.531,76.858 23.333,80.094 31.622,80.093 C39.911,80.093 47.713,76.857 53.589,70.98 C59.467,65.103 62.703,57.302 62.702,49.012 Z" id="Shape" fill="#FFBB41"></path>
                <path d="M55.326,9.448 C49.359,9.448 44.505,14.302 44.505,20.269 C44.505,23.147 45.622,25.856 47.651,27.897 C47.838,28.096 49.818,30.262 50.214,32.796 C49.99,33.082 49.852,33.438 49.852,33.828 C49.852,34.205 49.98,34.56 50.201,34.848 C49.98,35.135 49.852,35.492 49.852,35.868 C49.852,36.192 49.944,36.501 50.111,36.765 C49.944,37.03 49.852,37.338 49.852,37.662 C49.852,38.287 50.194,38.834 50.701,39.125 C50.635,39.308 50.598,39.502 50.598,39.702 C50.598,40.632 51.355,41.388 52.285,41.388 L53.258,41.388 C53.258,41.399 53.258,41.407 53.258,41.417 C53.258,41.929 53.555,42.696 55.326,42.696 C57.097,42.696 57.393,41.928 57.393,41.417 C57.393,41.406 57.393,41.398 57.393,41.388 L58.366,41.388 C59.297,41.388 60.053,40.632 60.053,39.702 C60.053,39.502 60.018,39.307 59.95,39.126 C60.458,38.834 60.8,38.287 60.8,37.662 C60.8,37.339 60.708,37.029 60.541,36.765 C60.708,36.5 60.8,36.192 60.8,35.868 C60.8,35.492 60.672,35.136 60.451,34.848 C60.672,34.561 60.8,34.205 60.8,33.828 C60.8,33.437 60.661,33.082 60.438,32.796 C60.848,30.154 62.967,27.933 63.024,27.873 C65.039,25.835 66.147,23.134 66.147,20.269 C66.146,14.303 61.292,9.448 55.326,9.448 Z M52.285,40.148 C52.039,40.148 51.839,39.948 51.839,39.703 C51.839,39.527 51.944,39.367 52.106,39.296 C52.374,39.177 52.52,38.886 52.46,38.6 C52.4,38.314 52.146,38.11 51.854,38.11 L51.541,38.11 C51.295,38.11 51.095,37.91 51.095,37.664 C51.095,37.513 51.172,37.372 51.303,37.289 C51.482,37.175 51.589,36.977 51.589,36.766 C51.589,36.555 51.481,36.358 51.302,36.244 C51.172,36.162 51.095,36.021 51.095,35.87 C51.095,35.673 51.225,35.502 51.418,35.445 C51.683,35.369 51.865,35.126 51.865,34.849 C51.865,34.574 51.682,34.33 51.417,34.253 C51.225,34.197 51.095,34.027 51.095,33.83 C51.095,33.584 51.295,33.384 51.541,33.384 L59.115,33.384 C59.36,33.384 59.561,33.584 59.561,33.83 C59.561,34.027 59.431,34.197 59.238,34.253 C58.972,34.33 58.79,34.573 58.79,34.849 C58.79,35.125 58.973,35.369 59.237,35.445 C59.43,35.502 59.561,35.673 59.561,35.87 C59.561,36.021 59.483,36.161 59.353,36.244 C59.174,36.358 59.066,36.556 59.066,36.766 C59.066,36.978 59.173,37.175 59.352,37.289 C59.483,37.373 59.561,37.513 59.561,37.664 C59.561,37.91 59.36,38.11 59.115,38.11 L58.801,38.11 C58.509,38.11 58.255,38.314 58.195,38.601 C58.134,38.886 58.281,39.177 58.549,39.296 C58.71,39.367 58.815,39.527 58.815,39.703 C58.815,39.948 58.615,40.148 58.369,40.148 L52.285,40.148 L52.285,40.148 Z M60.816,25.695 C60.689,25.824 58.051,28.533 57.404,32.103 L53.249,32.103 C52.66,28.815 50.395,26.282 49.888,25.749 L49.682,25.944 L49.885,25.745 L49.841,25.7 L49.835,25.695 C48.397,24.241 47.606,22.315 47.606,20.269 C47.606,16.012 51.069,12.549 55.326,12.549 C59.582,12.549 63.045,16.012 63.045,20.269 C63.045,22.314 62.254,24.24 60.816,25.695 Z" id="Shape" fill="#000000"></path>
                <path d="M57.961,21.265 C57.451,21.265 56.99,21.467 56.644,21.79 C56.297,21.467 55.836,21.265 55.327,21.265 C54.816,21.265 54.355,21.467 54.009,21.79 C53.663,21.467 53.202,21.265 52.692,21.265 C51.624,21.265 50.754,22.134 50.754,23.203 C50.754,24.272 51.623,25.141 52.692,25.141 C53.203,25.141 53.664,24.939 54.009,24.616 C54.356,24.939 54.817,25.141 55.327,25.141 C55.837,25.141 56.298,24.939 56.644,24.616 C56.991,24.939 57.452,25.141 57.961,25.141 C59.03,25.141 59.899,24.271 59.899,23.203 C59.899,22.135 59.03,21.265 57.961,21.265 Z M57.961,23.9 C57.577,23.9 57.265,23.587 57.265,23.202 C57.265,22.817 57.577,22.505 57.961,22.505 C58.346,22.505 58.658,22.817 58.658,23.202 C58.658,23.587 58.346,23.9 57.961,23.9 Z M55.326,23.9 C54.941,23.9 54.629,23.587 54.629,23.202 C54.629,22.817 54.941,22.505 55.326,22.505 C55.71,22.505 56.023,22.817 56.023,23.202 C56.023,23.587 55.71,23.9 55.326,23.9 Z M52.69,23.9 C52.305,23.9 51.993,23.587 51.993,23.202 C51.993,22.817 52.305,22.505 52.69,22.505 C53.075,22.505 53.387,22.817 53.387,23.202 C53.387,23.587 53.075,23.9 52.69,23.9 Z" id="Shape" fill="#000000"></path>
                <rect id="Rectangle-path" fill="#FFBB41" x="53.775" y="0.107" width="3.102" height="5.117"></rect>
                <rect id="Rectangle-path" fill="#FFBB41" transform="translate(46.505731, 5.032485) rotate(149.994310) translate(-46.505731, -5.032485) " x="44.9551871" y="2.4739138" width="3.10108684" height="5.1171433"></rect>
                <rect id="Rectangle-path" fill="#FFBB41" transform="translate(40.068863, 11.457505) rotate(30.000728) translate(-40.068863, -11.457505) " x="37.5104193" y="9.90703911" width="5.11688742" height="3.10093178"></rect>
                <rect id="Rectangle-path" fill="#FFBB41" x="35.164" y="18.719" width="5.117" height="3.102"></rect>
                <rect id="Rectangle-path" fill="#FFBB41" x="70.37" y="18.719" width="5.118" height="3.102"></rect>
                <rect id="Rectangle-path" fill="#FFBB41" transform="translate(70.576046, 11.484459) rotate(-29.992901) translate(-70.576046, -11.484459) " x="68.017009" y="9.9339362" width="5.11807477" height="3.10104531"></rect>
                <rect id="Rectangle-path" fill="#FFBB41" transform="translate(64.135137, 5.005020) rotate(-149.994310) translate(-64.135137, -5.005020) " x="62.584594" y="2.4464486" width="3.10108684" height="5.1171433"></rect>
            </g>
        </g>
    </g>
</svg>