<?xml version="1.0" encoding="UTF-8"?>
<svg width="76px" height="63px" viewBox="0 0 76 63" version="1.1" xmlns="http://www.w3.org/2000/svg" xmlns:xlink="http://www.w3.org/1999/xlink">
    <!-- Generator: Sketch 45.1 (43504) - http://www.bohemiancoding.com/sketch -->
    <title>Virtual-Assistant-icon</title>
    <desc>Created with Sketch.</desc>
    <defs></defs>
    <g id="Page-1" stroke="none" stroke-width="1" fill="none" fill-rule="evenodd">
        <g id="Home-Page" transform="translate(-967.000000, -2909.000000)" fill-rule="nonzero">
            <g id="Group-9" transform="translate(832.000000, 2909.000000)">
                <g id="Virtual-Assistant-icon" transform="translate(135.000000, 0.000000)">
                    <path d="M71.479,16.488 L71.542,14.34 L71.479,12.193 L67.761,11.089 C67.581,10.51 67.348,9.956 67.079,9.423 L68.923,6.023 L67.449,4.46 L65.885,2.986 L62.582,4.776 C62.009,4.466 61.405,4.207 60.776,4.005 L59.714,0.429 L57.567,0.366 L55.42,0.429 L54.358,4.005 C53.729,4.206 53.126,4.466 52.552,4.776 L49.249,2.986 L47.685,4.46 L46.212,6.023 L48.055,9.423 C47.786,9.956 47.553,10.51 47.373,11.089 L43.655,12.193 L43.592,14.34 L43.655,16.488 L47.373,17.592 C47.553,18.172 47.786,18.726 48.055,19.259 L46.212,22.659 L47.685,24.222 L49.249,25.696 L52.552,23.906 C53.125,24.216 53.729,24.475 54.358,24.677 L55.42,28.252 L57.567,28.316 L59.714,28.252 L60.776,24.677 C61.405,24.476 62.008,24.216 62.582,23.906 L65.885,25.696 L67.449,24.222 L68.923,22.659 L67.079,19.259 C67.348,18.726 67.581,18.172 67.761,17.592 L71.479,16.488 Z M57.567,20.254 C54.346,20.254 51.735,17.607 51.735,14.34 C51.735,11.074 54.346,8.427 57.567,8.427 C60.788,8.427 63.399,11.074 63.399,14.34 C63.399,17.606 60.788,20.254 57.567,20.254 Z" id="Shape" fill="#FFBB41"></path>
                    <path d="M48.396,43.458 L48.305,43.439 C48.268,43.434 44.556,42.975 41.941,42.348 C41.255,42.183 40.491,41.999 39.762,41.786 L37.218,37.687 L36.653,38.043 L36.653,35.937 C37.3,35.268 38.01,34.453 38.509,33.595 C39.059,32.649 39.215,31.58 39.321,30.222 C40.465,29.783 41.534,28.259 41.495,26.304 C41.479,25.547 41.445,23.901 40.065,23.505 C40.065,22.896 40.065,21.766 40.065,19.717 C40.065,15.937 36.605,12.801 31.354,12.801 C26.103,12.801 22.643,15.938 22.643,19.717 C22.643,21.767 22.643,22.897 22.643,23.506 C21.264,23.902 21.23,25.548 21.214,26.305 C21.175,28.26 22.244,29.783 23.387,30.223 C23.494,31.581 23.651,32.65 24.2,33.595 C24.699,34.453 25.409,35.269 26.057,35.938 L26.057,38.044 L25.492,37.688 L22.949,41.786 C22.22,42.001 21.455,42.184 20.769,42.348 C18.154,42.976 14.442,43.435 14.404,43.44 L14.313,43.459 C14.192,43.492 12.147,44.107 10.964,46.512 C11.242,46.895 11.529,47.271 11.829,47.636 C12.652,45.398 14.329,44.758 14.61,44.665 C15.103,44.603 18.519,44.165 21.057,43.556 C21.776,43.383 22.517,43.205 23.228,43 L24.111,43.665 L26.317,56.379 C26.746,56.466 27.178,56.541 27.615,56.606 L25.56,44.756 L28.821,47.213 L29.703,45.253 L30.736,46.821 L28.987,56.769 C29.767,56.841 30.555,56.882 31.353,56.882 C32.207,56.882 33.049,56.839 33.88,56.756 L31.781,46.803 L32.887,44.994 L33.884,47.213 L37.146,44.755 L35.091,56.605 C35.528,56.541 35.96,56.465 36.389,56.378 L38.594,43.664 L39.477,42.998 C40.188,43.203 40.929,43.382 41.648,43.554 C44.185,44.162 47.599,44.602 48.094,44.663 C48.384,44.76 50.055,45.402 50.876,47.635 C51.176,47.269 51.462,46.893 51.741,46.51 C50.563,44.106 48.518,43.491 48.396,43.458 Z M31.356,41.384 L27.299,38.826 L27.299,37.149 C28.601,38.363 29.684,38.806 31.356,38.806 C33.027,38.806 34.109,38.364 35.412,37.149 L35.412,38.826 L31.356,41.384 Z M24.179,42.16 L25.889,39.404 L29.853,41.902 L28.331,45.288 L24.179,42.16 Z M24.555,29.149 L24.02,29.11 C23.369,29.062 22.426,27.875 22.458,26.331 C22.491,24.66 22.891,24.66 23.312,24.66 C23.462,24.66 23.641,24.678 23.846,24.712 L23.922,24.725 C24.347,25.207 24.557,25.965 24.557,26.888 C24.557,28.484 24.939,28.822 24.939,28.822 C24.939,28.822 25.016,26.51 25.016,24.04 C25.016,21.568 25.016,21.568 25.016,20.442 C25.016,19.316 26.56,17.306 28.381,18.11 C30.202,18.914 31.356,18.672 31.356,18.672 C31.356,18.672 32.509,18.913 34.331,18.11 C36.152,17.305 37.697,19.316 37.697,20.442 C37.697,21.568 37.697,21.568 37.697,24.039 C37.697,26.511 37.774,28.821 37.774,28.821 C37.774,28.821 38.156,28.483 38.156,26.888 C38.155,25.964 38.366,25.207 38.791,24.725 L38.866,24.712 C39.071,24.677 39.251,24.659 39.4,24.659 C39.823,24.659 40.222,24.659 40.256,26.33 C40.287,27.931 39.336,29.062 38.693,29.109 L38.157,29.148 L38.12,29.684 C38.016,31.138 37.915,32.153 37.438,32.971 C36.754,34.149 35.551,35.302 34.834,35.992 L34.69,36.13 C33.423,37.35 32.606,37.566 31.357,37.566 C30.107,37.566 29.29,37.351 28.024,36.131 L27.881,35.994 C27.162,35.304 25.959,34.148 25.275,32.972 C24.799,32.154 24.697,31.139 24.593,29.685 L24.555,29.149 Z M32.86,41.902 L36.823,39.403 L38.534,42.159 L34.384,45.287 L32.86,41.902 Z M31.195,42.846 L30.785,42.853 L31.356,41.582 L31.918,42.834 L31.195,42.846 Z" id="Shape" fill="#000000"></path>
                    <path d="M31.357,59.625 C15.929,59.625 3.378,47.074 3.377,31.646 C3.377,24.185 6.29,17.163 11.581,11.872 C16.872,6.581 23.894,3.667 31.355,3.667 C35.125,3.667 38.786,4.407 42.233,5.868 L43.443,3.013 C39.611,1.389 35.543,0.566 31.355,0.566 C23.065,0.566 15.264,3.803 9.387,9.68 C3.511,15.557 0.275,23.358 0.275,31.647 C0.276,48.785 14.219,62.727 31.357,62.727 C44.124,62.726 55.787,54.707 60.377,42.774 L57.482,41.66 C53.35,52.404 42.851,59.624 31.357,59.625 Z" id="Shape" fill="#000000"></path>
                    <path d="M73.137,32.245 L74.363,30.577 L73.696,29.64 L72.975,28.745 L71.093,29.452 C70.812,29.246 70.512,29.064 70.193,28.912 L69.891,26.939 L68.757,26.749 L67.614,26.625 L66.79,28.443 C66.441,28.503 66.103,28.596 65.776,28.719 L64.157,27.529 L63.22,28.196 L62.324,28.917 L63.053,30.854 C62.871,31.117 62.707,31.394 62.57,31.688 L60.519,32.001 L60.329,33.135 L60.206,34.278 L62.096,35.134 C62.149,35.454 62.232,35.765 62.335,36.068 L61.11,37.735 L61.776,38.672 L62.498,39.568 L64.379,38.86 C64.66,39.066 64.961,39.248 65.28,39.401 L65.581,41.373 L66.715,41.564 L67.859,41.687 L68.682,39.87 C69.031,39.809 69.37,39.716 69.696,39.594 L71.316,40.783 L72.253,40.117 L73.148,39.395 L72.419,37.458 C72.601,37.195 72.765,36.919 72.902,36.625 L74.953,36.311 L75.143,35.178 L75.266,34.034 L73.377,33.178 C73.324,32.857 73.24,32.547 73.137,32.245 Z M70.827,34.582 C70.588,36.313 69.011,37.525 67.304,37.29 C65.598,37.055 64.408,35.461 64.646,33.73 C64.884,31.999 66.461,30.787 68.168,31.022 C69.875,31.257 71.065,32.852 70.827,34.582 Z" id="Shape" fill="#FFBB41"></path>
                </g>
            </g>
        </g>
    </g>
</svg>