<?xml version="1.0" encoding="UTF-8"?>
<svg width="93px" height="84px" viewBox="0 0 93 84" version="1.1" xmlns="http://www.w3.org/2000/svg" xmlns:xlink="http://www.w3.org/1999/xlink">
    <!-- Generator: Sketch 45.1 (43504) - http://www.bohemiancoding.com/sketch -->
    <title>Process-icon</title>
    <desc>Created with Sketch.</desc>
    <defs></defs>
    <g id="Page-1" stroke="none" stroke-width="1" fill="none" fill-rule="evenodd">
        <g id="Home-Page" transform="translate(-758.000000, -3794.000000)" fill-rule="nonzero">
            <g id="Group-20" transform="translate(641.000000, 3794.000000)">
                <g id="Process-icon" transform="translate(117.000000, 0.000000)">
                    <path d="M34.737,29.998 C35.209,28.676 36.186,28.291 36.36,28.232 C36.674,28.193 38.695,27.932 40.2,27.571 C40.619,27.47 41.05,27.366 41.466,27.248 L41.948,27.611 L43.253,35.133 C43.55,35.195 43.851,35.246 44.154,35.289 L42.953,28.368 L44.833,29.783 L45.373,28.582 L45.949,29.455 L44.908,35.379 C45.372,35.422 45.841,35.446 46.316,35.446 C46.824,35.446 47.326,35.421 47.821,35.371 L46.572,29.444 L47.191,28.431 L47.799,29.784 L49.679,28.368 L48.478,35.289 C48.782,35.245 49.082,35.194 49.379,35.133 L50.684,27.611 L51.166,27.247 C51.581,27.366 52.013,27.471 52.432,27.57 C53.936,27.931 55.954,28.191 56.271,28.231 C56.452,28.293 57.425,28.679 57.896,29.997 C58.105,29.744 58.304,29.481 58.498,29.215 C57.779,27.783 56.553,27.415 56.479,27.395 L56.416,27.382 C56.395,27.379 54.187,27.107 52.634,26.734 C52.246,26.64 51.796,26.533 51.361,26.405 L49.827,23.934 L49.532,24.12 L49.532,22.997 C49.917,22.599 50.333,22.123 50.63,21.612 C50.958,21.048 51.055,20.416 51.119,19.615 C51.807,19.326 52.439,18.409 52.416,17.24 C52.407,16.811 52.38,15.763 51.504,15.518 C51.504,15.144 51.504,14.478 51.504,13.318 C51.504,11.068 49.443,9.201 46.316,9.201 C43.19,9.201 41.129,11.068 41.129,13.318 C41.129,14.479 41.129,15.144 41.129,15.519 C40.254,15.763 40.226,16.811 40.217,17.24 C40.194,18.41 40.826,19.327 41.515,19.616 C41.578,20.416 41.675,21.048 42.003,21.612 C42.3,22.123 42.717,22.598 43.101,22.997 L43.101,24.12 L42.807,23.934 L41.273,26.405 C40.837,26.533 40.387,26.641 40,26.734 C38.446,27.107 36.239,27.38 36.218,27.383 L36.155,27.396 C36.082,27.417 34.855,27.785 34.136,29.215 C34.328,29.482 34.527,29.745 34.737,29.998 Z M42.324,18.876 L41.952,18.85 C41.633,18.827 41.059,18.204 41.078,17.257 C41.097,16.321 41.306,16.321 41.526,16.321 C41.612,16.321 41.715,16.332 41.834,16.352 L41.95,16.372 C42.162,16.66 42.267,17.082 42.267,17.587 C42.267,18.537 42.494,18.738 42.494,18.738 C42.494,18.738 42.541,17.362 42.541,15.89 C42.54,14.418 42.54,14.418 42.54,13.748 C42.54,13.077 43.46,11.88 44.545,12.359 C45.629,12.838 46.316,12.694 46.316,12.694 C46.316,12.694 47.004,12.838 48.087,12.359 C49.172,11.88 50.092,13.077 50.092,13.747 C50.092,14.418 50.092,14.418 50.092,15.89 C50.092,17.361 50.138,18.738 50.138,18.738 C50.138,18.738 50.365,18.537 50.365,17.587 C50.365,17.082 50.47,16.66 50.683,16.371 L50.798,16.351 C50.916,16.331 51.02,16.321 51.106,16.321 C51.327,16.321 51.536,16.321 51.554,17.257 C51.574,18.203 50.999,18.826 50.68,18.85 L50.309,18.876 L50.283,19.248 C50.221,20.105 50.161,20.703 49.886,21.179 C49.483,21.872 48.771,22.557 48.345,22.965 L48.26,23.047 C47.521,23.759 47.044,23.884 46.318,23.884 C45.59,23.884 45.114,23.759 44.376,23.047 L44.291,22.966 C43.865,22.557 43.152,21.873 42.75,21.179 C42.474,20.703 42.413,20.106 42.353,19.248 L42.324,18.876 Z M43.962,23.835 C44.705,24.499 45.348,24.745 46.316,24.745 C47.284,24.745 47.926,24.499 48.67,23.835 L48.67,24.662 L46.316,26.146 L43.962,24.662 L43.962,23.835 Z M50.509,26.665 L48.144,28.447 L47.29,26.551 L49.552,25.124 L50.509,26.665 Z M45.343,26.551 L44.489,28.448 L42.124,26.665 L43.08,25.124 L45.343,26.551 Z M46.221,27.089 L46.044,27.092 L46.316,26.487 L46.585,27.084 L46.221,27.089 Z" id="Shape" fill="#000000"></path>
                    <path d="M20.413,83.028 C30.9,83.027 39.519,74.897 40.314,64.611 L52.318,64.611 C53.113,74.898 61.732,83.028 72.22,83.028 C83.23,83.027 92.187,74.069 92.186,63.06 C92.186,52.049 83.228,43.092 72.218,43.092 C68.979,43.092 65.92,43.872 63.212,45.247 L57.976,36.628 C58.841,36.002 59.665,35.308 60.435,34.538 C64.206,30.767 66.283,25.752 66.283,20.419 C66.283,9.409 57.325,0.452 46.315,0.452 C35.305,0.452 26.348,9.41 26.348,20.42 C26.348,27.082 29.631,32.988 34.661,36.617 L29.418,45.247 C26.71,43.872 23.65,43.092 20.411,43.092 C9.401,43.093 0.444,52.051 0.444,63.06 C0.445,74.07 9.403,83.028 20.413,83.028 Z M20.412,46.194 C29.712,46.194 37.278,53.759 37.278,63.06 C37.279,72.359 29.713,79.925 20.413,79.926 C11.113,79.926 3.547,72.36 3.547,63.06 C3.547,53.762 11.112,46.195 20.412,46.194 Z M89.085,63.061 C89.086,72.36 81.52,79.926 72.221,79.927 C62.92,79.927 55.354,72.361 55.354,63.061 C55.354,53.762 62.919,46.196 72.219,46.195 C81.52,46.194 89.085,53.76 89.085,63.061 Z M29.45,20.421 C29.45,11.121 37.015,3.555 46.315,3.555 C55.615,3.555 63.181,11.12 63.181,20.42 C63.182,24.925 61.427,29.16 58.242,32.346 C55.057,35.532 50.821,37.286 46.316,37.286 C37.017,37.286 29.45,29.721 29.45,20.421 Z M37.311,38.232 C40.019,39.607 43.078,40.387 46.317,40.387 C49.502,40.387 52.569,39.641 55.329,38.241 L60.566,46.861 C55.93,50.206 52.784,55.486 52.319,61.508 L40.315,61.508 C39.849,55.486 36.704,50.205 32.068,46.861 L37.311,38.232 Z" id="Shape" fill="#FFBB41"></path>
                    <path d="M30.576,70.035 L30.513,70.022 C30.491,70.019 28.284,69.746 26.731,69.373 C26.343,69.28 25.893,69.172 25.458,69.045 L23.924,66.573 L23.629,66.759 L23.629,65.636 C24.014,65.238 24.43,64.762 24.727,64.252 C25.055,63.688 25.152,63.055 25.216,62.255 C25.904,61.965 26.536,61.049 26.513,59.88 C26.504,59.451 26.476,58.403 25.601,58.158 C25.601,57.783 25.601,57.118 25.601,55.958 C25.601,53.707 23.54,51.84 20.413,51.84 C17.287,51.84 15.226,53.708 15.226,55.958 C15.226,57.118 15.226,57.783 15.226,58.158 C14.35,58.403 14.323,59.451 14.314,59.88 C14.291,61.05 14.923,61.966 15.611,62.255 C15.675,63.055 15.772,63.688 16.1,64.252 C16.397,64.763 16.814,65.237 17.198,65.636 L17.198,66.76 L16.904,66.573 L15.37,69.045 C14.934,69.173 14.484,69.28 14.097,69.374 C12.543,69.746 10.336,70.02 10.314,70.022 L10.252,70.035 C10.179,70.056 8.952,70.424 8.233,71.855 C8.426,72.122 8.625,72.384 8.835,72.638 C9.308,71.315 10.285,70.931 10.459,70.872 C10.773,70.832 12.794,70.571 14.299,70.21 C14.717,70.109 15.149,70.006 15.564,69.887 L16.047,70.251 L17.352,77.773 C17.649,77.835 17.95,77.885 18.253,77.929 L17.053,71.008 L18.931,72.424 L19.472,71.221 L20.048,72.095 L19.006,78.018 C19.471,78.062 19.94,78.086 20.415,78.086 C20.923,78.086 21.425,78.06 21.92,78.011 L20.67,72.084 L21.29,71.07 L21.898,72.423 L23.777,71.007 L22.577,77.929 C22.881,77.885 23.181,77.834 23.478,77.773 L24.783,70.25 L25.265,69.887 C25.68,70.006 26.112,70.11 26.531,70.21 C28.035,70.57 30.055,70.831 30.371,70.871 C30.537,70.928 31.518,71.315 31.993,72.638 C32.203,72.384 32.403,72.121 32.597,71.854 C31.876,70.423 30.649,70.055 30.576,70.035 Z M20.413,68.786 L18.059,67.303 L18.059,66.476 C18.802,67.14 19.445,67.386 20.413,67.386 C21.381,67.386 22.023,67.14 22.767,66.476 L22.767,67.303 L20.413,68.786 Z M16.221,69.306 L17.177,67.765 L19.44,69.192 L18.586,71.088 L16.221,69.306 Z M16.421,61.517 L16.049,61.49 C15.73,61.467 15.155,60.844 15.175,59.897 C15.194,58.962 15.403,58.962 15.623,58.962 C15.709,58.962 15.812,58.973 15.931,58.992 L16.046,59.012 C16.259,59.301 16.364,59.723 16.364,60.228 C16.364,61.177 16.591,61.378 16.591,61.378 C16.591,61.378 16.637,60.002 16.637,58.531 C16.637,57.059 16.637,57.059 16.637,56.388 C16.637,55.718 17.557,54.521 18.642,54.999 C19.726,55.478 20.413,55.334 20.413,55.334 C20.413,55.334 21.101,55.478 22.184,54.999 C23.267,54.52 24.188,55.718 24.188,56.388 C24.188,57.058 24.188,57.058 24.189,58.53 C24.189,60.002 24.235,61.378 24.235,61.378 C24.235,61.378 24.462,61.177 24.462,60.228 C24.462,59.723 24.567,59.301 24.78,59.012 L24.895,58.992 C25.013,58.971 25.117,58.961 25.203,58.961 C25.424,58.961 25.633,58.961 25.651,59.898 C25.671,60.844 25.096,61.466 24.777,61.49 L24.405,61.517 L24.379,61.889 C24.318,62.746 24.259,63.344 23.982,63.82 C23.579,64.514 22.866,65.198 22.44,65.607 L22.357,65.688 C21.618,66.399 21.141,66.525 20.415,66.525 C19.687,66.525 19.211,66.399 18.473,65.687 L18.39,65.608 C17.963,65.199 17.25,64.514 16.847,63.82 C16.571,63.344 16.51,62.747 16.45,61.889 L16.421,61.517 Z M21.386,69.19 L23.649,67.764 L24.606,69.304 L22.24,71.087 L21.386,69.19 Z M20.317,69.729 L20.14,69.732 L20.412,69.127 L20.681,69.724 L20.317,69.729 Z" id="Shape" fill="#000000"></path>
                    <path d="M81.947,69.714 L81.884,69.702 C81.863,69.699 79.74,69.451 78.245,69.102 C77.06,68.826 75.27,68.409 75.266,67.699 L75.261,67.018 C75.269,67.018 75.276,67.018 75.283,67.018 C77.351,67.004 78.402,65.36 78.402,65.36 C78.402,65.36 77.596,64.312 77.589,63.085 C77.581,61.919 78.874,57.461 76.431,54.251 C76.315,54.084 76.185,53.924 76.039,53.773 C76.033,53.767 76.028,53.76 76.022,53.753 L76.021,53.753 C75.144,52.86 73.764,52.288 72.055,52.3 C70.346,52.311 68.974,52.902 68.109,53.806 L68.108,53.805 C68.102,53.812 68.097,53.819 68.091,53.826 C67.947,53.978 67.82,54.139 67.705,54.308 C65.306,57.55 66.656,61.99 66.664,63.157 C66.672,64.384 65.882,65.443 65.882,65.443 C65.882,65.443 66.953,67.073 69.023,67.059 C69.031,67.059 69.037,67.059 69.044,67.059 L69.049,67.74 C69.053,68.45 67.269,68.891 66.088,69.183 C64.598,69.55 62.479,69.827 62.457,69.829 L62.394,69.843 C62.316,69.865 60.855,70.315 60.243,72.134 C60.459,72.418 60.684,72.693 60.919,72.959 C61.241,71.225 62.416,70.745 62.607,70.678 C62.916,70.638 64.852,70.374 66.295,70.019 C66.836,69.885 67.399,69.746 67.916,69.573 C68.156,70.269 68.595,70.82 69.1,71.257 C68.712,71.545 68.458,72.004 68.461,72.524 C68.464,72.97 68.651,73.371 68.951,73.653 C68.654,73.939 68.473,74.341 68.476,74.789 C68.479,75.235 68.665,75.635 68.965,75.917 C68.669,76.203 68.487,76.605 68.49,77.053 C68.491,77.266 68.537,77.467 68.614,77.651 C69.082,77.766 69.557,77.86 70.041,77.93 L70.04,77.744 C69.656,77.735 69.354,77.429 69.352,77.047 C69.35,76.665 69.648,76.355 70.032,76.341 L70.026,75.48 C69.642,75.471 69.339,75.166 69.338,74.784 C69.335,74.402 69.634,74.092 70.017,74.077 L70.011,73.217 C69.628,73.208 69.325,72.902 69.323,72.52 C69.322,72.332 69.394,72.155 69.526,72.02 C69.629,71.916 69.76,71.862 69.901,71.835 C70.32,72.087 70.738,72.278 71.097,72.415 L71.134,78.046 C71.492,78.072 71.855,78.09 72.22,78.09 C72.59,78.09 72.955,78.071 73.318,78.046 L73.281,72.401 C73.637,72.259 74.052,72.063 74.469,71.805 C74.607,71.831 74.743,71.882 74.847,71.984 C74.981,72.116 75.055,72.293 75.056,72.481 C75.059,72.863 74.761,73.173 74.377,73.187 L74.383,74.048 C74.767,74.057 75.07,74.363 75.071,74.745 C75.074,75.127 74.775,75.436 74.392,75.451 L74.397,76.311 C74.781,76.32 75.084,76.626 75.085,77.008 C75.088,77.39 74.789,77.7 74.406,77.714 L74.407,77.928 C74.882,77.859 75.349,77.766 75.808,77.654 C75.897,77.455 75.948,77.236 75.946,77.003 C75.943,76.557 75.757,76.156 75.457,75.874 C75.753,75.588 75.935,75.186 75.932,74.739 C75.929,74.292 75.743,73.892 75.442,73.61 C75.739,73.324 75.921,72.922 75.917,72.474 C75.915,72.056 75.749,71.663 75.451,71.37 C75.393,71.313 75.328,71.265 75.263,71.217 C75.762,70.774 76.194,70.217 76.424,69.519 C76.944,69.684 77.508,69.817 78.05,69.943 C79.497,70.28 81.438,70.518 81.746,70.554 C81.937,70.618 83.198,71.114 83.497,72.99 C83.737,72.717 83.969,72.436 84.189,72.145 C83.588,70.188 82.028,69.736 81.947,69.714 Z M72.148,66.402 L72.115,66.832 L72.115,66.832 L72.115,66.402 C71.438,66.402 70.992,66.285 70.287,65.614 L70.206,65.537 C69.795,65.148 69.106,64.496 68.716,63.832 C68.448,63.38 68.387,62.808 68.324,62.02 C68.328,60.791 68.329,60.471 68.312,59.752 C71.874,59.468 73.577,57.419 74.307,55.952 C74.55,56.982 75.224,57.937 75.726,58.54 L75.726,58.551 C75.73,58.551 75.734,58.553 75.738,58.553 C75.797,58.624 75.85,58.684 75.904,58.744 L75.916,61.935 C75.863,62.757 75.809,63.331 75.548,63.787 C75.166,64.454 74.487,65.115 74.081,65.511 L74,65.59 C73.297,66.275 72.843,66.397 72.148,66.402 Z M72.185,71.857 C71.685,71.729 69.309,71.033 68.719,69.252 C69.425,68.905 69.915,68.438 69.911,67.734 L69.902,66.424 C70.604,67.035 71.212,67.263 72.115,67.263 L72.154,67.263 C73.078,67.257 73.693,67.022 74.395,66.394 L74.404,67.705 C74.409,68.407 74.906,68.869 75.615,69.206 C75.05,70.995 72.684,71.724 72.185,71.857 Z" id="Shape" fill="#000000"></path>
                </g>
            </g>
        </g>
    </g>
</svg>